<?xml version="1.0" encoding="UTF-8" standalone="no"?><svg xmlns="http://www.w3.org/2000/svg" xmlns:xlink="http://www.w3.org/1999/xlink" clip-rule="evenodd" stroke-miterlimit="10" viewBox="0 0 1920 1080"><desc>SVG generated by Keynote</desc><defs></defs><g transform="matrix(1.00, 0.00, -0.00, -1.00, 0.0, 1080.0)"><path d="M 0.0 1080.0 L 1920.0 1080.0 L 1920.0 0.0 L 0.0 0.0 Z M 0.0 1080.0 " fill="#FEFFFF"></path><g><clipPath id="clip0x6080014bc2c0"><path d="M 640.0 1080.0 L 1280.0 1080.0 L 1280.0 0.0 L 640.0 0.0 Z M 640.0 1080.0 "></path></clipPath><g clip-path="url(#clip0x6080014bc2c0)"><image xlink:href="AA56BA91EADF6A3A15FCF490CCA6A316.png" width="2838.00" height="2152.00" transform="matrix(0.50, 0.00, -0.00, -0.50, 335.0, 1080.0)"></image></g></g><g><clipPath id="clip0x6080014bc620"><path d="M 0.0 1080.0 L 640.0 1080.0 L 640.0 0.0 L 0.0 0.0 Z M 0.0 1080.0 "></path></clipPath><g clip-path="url(#clip0x6080014bc620)"><image xlink:href="FDEFFFFF11916F1BE746EDE9F5CB94E1.png" width="2926.00" height="2152.00" transform="matrix(0.50, 0.00, -0.00, -0.50, -470.0, 1080.0)"></image></g></g><g><clipPath id="clip0x6080014bc6e0"><path d="M 1280.0 1081.0 L 1920.0 1081.0 L 1920.0 -1.0 L 1280.0 -1.0 Z M 1280.0 1081.0 "></path></clipPath><g clip-path="url(#clip0x6080014bc6e0)"><image xlink:href="817F4386D98D8539D95CF4852AD9B6BD.jpeg" width="1800.00" height="1200.00" transform="matrix(0.90, 0.00, -0.00, -0.90, 1271.0, 1080.0)"></image></g></g></g></svg>