<?xml version="1.0" encoding="UTF-8" standalone="no"?><svg xmlns="http://www.w3.org/2000/svg" xmlns:xlink="http://www.w3.org/1999/xlink" clip-rule="evenodd" stroke-miterlimit="10" viewBox="0 0 1920 1080"><desc>SVG generated by Keynote</desc><defs></defs><g transform="matrix(1.00, 0.00, -0.00, -1.00, 0.0, 1080.0)"><path d="M 0.0 1080.0 L 1920.0 1080.0 L 1920.0 0.0 L 0.0 0.0 Z M 0.0 1080.0 " fill="#FEFFFF"></path><g><clipPath id="clip0x6080018b4460"><path d="M 710.4 -11.6 L 1760.7 -11.6 L 1760.7 898.2 L 710.4 898.2 Z M 710.4 -11.6 "></path></clipPath><g clip-path="url(#clip0x6080018b4460)"><image xlink:href="../../E226DBFE-4CDD-4C73-87CB-6B0B69091872/assets/C10DA910F5D91B03EF01757F983ADF21.png" width="523.00" height="453.00" transform="matrix(2.01, 0.00, -0.00, -2.01, 710.0, 898.0)"></image></g></g><g><clipPath id="clip0x6180018ad620"><path d="M 157.1 169.2 L 1207.4 169.2 L 1207.4 1078.9 L 157.1 1078.9 Z M 157.1 169.2 "></path></clipPath><g clip-path="url(#clip0x6180018ad620)"><image xlink:href="../../E226DBFE-4CDD-4C73-87CB-6B0B69091872/assets/EF1854E1A5845638F4A7C6E00617B133.png" width="523.00" height="453.00" transform="matrix(2.01, 0.00, -0.00, -2.01, 157.0, 1079.0)"></image></g></g><g opacity="0.70"><g><clipPath id="clip0x6000018a5820"><path d="M 0.0 0.0 L 1920.0 0.0 L 1920.0 1080.0 L 0.0 1080.0 Z M 0.0 0.0 "></path></clipPath><g clip-path="url(#clip0x6000018a5820)"><path d="M -20.0 1100.0 L 1935.0 1100.0 L 1935.0 -17.0 L -20.0 -17.0 Z M -19.7 1100.2 " fill="#FEFFFF"></path></g></g></g><image xlink:href="12E62BF1D03AB6DD473108B319F68C5E.png" width="859.00" height="225.00" transform="matrix(1.00, 0.00, -0.00, -1.00, 527.0, 640.0)"></image><text xml:space="preserve" font-family="Times-BoldItalic,Times" font-style="italic" font-weight="bold" font-size="258.0" fill="#000000" transform="matrix(1.00, 0.00, -0.00, -1.00, 547.2, 450.4)">N</text><text xml:space="preserve" font-family="Times-BoldItalic,Times" font-style="italic" font-weight="bold" font-size="258.0" fill="#000000" transform="matrix(1.00, 0.00, -0.00, -1.00, 733.6, 450.4)">=</text><text xml:space="preserve" font-family="Times-BoldItalic,Times" font-style="italic" font-weight="bold" font-size="258.0" fill="#000000" transform="matrix(1.00, 0.00, -0.00, -1.00, 880.5, 450.4)">1</text><text xml:space="preserve" font-family="Times-BoldItalic,Times" font-style="italic" font-weight="bold" font-size="258.0" fill="#000000" transform="matrix(1.00, 0.00, -0.00, -1.00, 995.4, 450.4)">1</text><text xml:space="preserve" font-family="Times-BoldItalic,Times" font-style="italic" font-weight="bold" font-size="258.0" fill="#000000" transform="matrix(1.00, 0.00, -0.00, -1.00, 1110.3, 450.4)">1</text><text xml:space="preserve" font-family="Times-BoldItalic,Times" font-style="italic" font-weight="bold" font-size="258.0" fill="#000000" transform="matrix(1.00, 0.00, -0.00, -1.00, 1239.3, 450.4)">2</text></g></svg>