<?xml version="1.0" encoding="UTF-8" standalone="no"?><svg xmlns="http://www.w3.org/2000/svg" xmlns:xlink="http://www.w3.org/1999/xlink" clip-rule="evenodd" stroke-miterlimit="4.00" viewBox="0 0 1920 1080"><desc>SVG generated by Keynote</desc><defs></defs><g transform="matrix(1.00, 0.00, -0.00, -1.00, 0.0, 1080.0)"><path d="M 0.0 1080.0 L 1920.0 1080.0 L 1920.0 0.0 L 0.0 0.0 Z M 0.0 1080.0 " fill="#FEFFFF"></path><g><clipPath id="clip-14"><path d="M 640.0 1080.0 L 1280.0 1080.0 L 1280.0 0.0 L 640.0 0.0 Z M 640.0 1080.0 "></path></clipPath><g clip-path="url(#clip-14)"><image xlink:href="../../6386C738-4CD1-4895-ADCD-B376FFAE2038/assets/2500523E20B5F51C6BF57E5CCDFF678F.png" width="713.00" height="540.00" transform="matrix(2.00, 0.00, -0.00, -2.00, 335.0, 1080.0)"></image></g></g><g><clipPath id="clip-15"><path d="M 0.0 1080.0 L 640.0 1080.0 L 640.0 0.0 L 0.0 0.0 Z M 0.0 1080.0 "></path></clipPath><g clip-path="url(#clip-15)"><image xlink:href="../../6386C738-4CD1-4895-ADCD-B376FFAE2038/assets/95C246334C7EDE6409B29CB34E889B57.png" width="735.00" height="540.00" transform="matrix(2.00, 0.00, -0.00, -2.00, -470.0, 1080.0)"></image></g></g><g><clipPath id="clip-16"><path d="M 1280.0 1081.0 L 1920.0 1081.0 L 1920.0 -1.0 L 1280.0 -1.0 Z M 1280.0 1081.0 "></path></clipPath><g clip-path="url(#clip-16)"><image xlink:href="../../6386C738-4CD1-4895-ADCD-B376FFAE2038/assets/6798C8DFA0CCBAF8589CA0F9C03D994A.jpeg" width="1153.00" height="768.00" transform="matrix(1.41, 0.00, -0.00, -1.41, 1271.0, 1080.0)"></image></g></g></g></svg>