<?xml version="1.0" encoding="UTF-8" standalone="no"?><svg xmlns="http://www.w3.org/2000/svg" xmlns:xlink="http://www.w3.org/1999/xlink" clip-rule="evenodd" stroke-miterlimit="10" viewBox="0 0 1920 1080"><desc>SVG generated by Keynote</desc><defs></defs><g transform="matrix(1.00, 0.00, -0.00, -1.00, 0.0, 1080.0)"><path d="M 0.0 1080.0 L 1920.0 1080.0 L 1920.0 0.0 L 0.0 0.0 Z M 0.0 1080.0 " fill="#FEFFFF"></path><image xlink:href="../../4DEAC9D1-8278-44DD-A00B-CC689D637A6F/assets/4B4F995CC42FEBF96548C8DCCBAC9F21.png" width="2084.00" height="2102.00" transform="matrix(0.86, 0.00, -0.00, -0.86, 187.0, 1043.0)"></image><image xlink:href="../../4DEAC9D1-8278-44DD-A00B-CC689D637A6F/assets/4B4F995CC42FEBF96548C8DCCBAC9F21.png" width="2084.00" height="2102.00" transform="matrix(0.46, 0.00, -0.00, -0.46, 31.0, 1020.0)"></image><image xlink:href="../../1406AFE8-8277-4431-B55B-7D452CE6B70C/assets/77C16574AC9062BE815862AB351345A9.png" width="243.00" height="243.00" transform="matrix(1.00, 0.00, -0.00, -1.00, 1559.2, 845.3)" opacity="0.50"></image><path d="M 176.8 30.3 C 217.2 70.8 217.2 136.3 176.8 176.8 C 136.3 217.2 70.8 217.2 30.3 176.8 C -10.1 136.3 -10.1 70.8 30.3 30.3 C 70.8 -10.1 136.3 -10.1 176.8 30.3 " fill="none" stroke="#FF2600" stroke-width="22.00" transform="matrix(1.00, 0.00, 0.00, -1.00, 1577.2, 830.3)"></path></g></svg>