<?xml version="1.0" encoding="UTF-8" standalone="no"?><svg xmlns="http://www.w3.org/2000/svg" xmlns:xlink="http://www.w3.org/1999/xlink" clip-rule="evenodd" stroke-miterlimit="4.00" viewBox="0 0 1920 1080"><desc>SVG generated by Keynote</desc><defs></defs><g transform="matrix(1.00, 0.00, -0.00, -1.00, 0.0, 1080.0)"><path d="M 0.0 1080.0 L 1920.0 1080.0 L 1920.0 0.0 L 0.0 0.0 Z M 0.0 1080.0 " fill="#000000"></path><image xlink:href="../../17F7C147-1A78-4A0E-BDF2-CF75D1A2472C/assets/1DA54D6081E272911EF85210213F42EF.png" width="430.00" height="540.00" transform="matrix(0.00, 1.79, 1.78, -0.00, 674.0, 156.0)"></image><text xml:space="preserve" font-family="Helvetica-Light" font-size="50.0" fill="#FEFFFF" transform="matrix(1.00, 0.00, -0.00, -1.00, 214.0, 849.0)">R</text><text xml:space="preserve" font-family="Helvetica-Light" font-size="50.0" fill="#FEFFFF" transform="matrix(1.00, 0.00, -0.00, -1.00, 247.3, 849.0)">a</text><text xml:space="preserve" font-family="Helvetica-Light" font-size="50.0" fill="#FEFFFF" transform="matrix(1.00, 0.00, -0.00, -1.00, 275.1, 849.0)">w</text><text xml:space="preserve" font-family="Helvetica-Light" font-size="50.0" fill="#FEFFFF" transform="matrix(1.00, 0.00, -0.00, -1.00, 311.2, 849.0)"> </text><text xml:space="preserve" font-family="Helvetica-Light" font-size="50.0" fill="#FEFFFF" transform="matrix(1.00, 0.00, -0.00, -1.00, 325.1, 849.0)">M</text><text xml:space="preserve" font-family="Helvetica-Light" font-size="50.0" fill="#FEFFFF" transform="matrix(1.00, 0.00, -0.00, -1.00, 366.8, 849.0)">R</text><text xml:space="preserve" font-family="Helvetica-Light" font-size="50.0" fill="#FEFFFF" transform="matrix(1.00, 0.00, -0.00, -1.00, 400.1, 849.0)">I</text><text xml:space="preserve" font-family="Helvetica-Light" font-size="50.0" fill="#FEFFFF" transform="matrix(1.00, 0.00, -0.00, -1.00, 414.1, 849.0)"> </text><text xml:space="preserve" font-family="LucidaGrande" font-size="50.0" fill="#FEFFFF" transform="matrix(1.00, 0.00, -0.00, -1.00, 298.0, 790.0)">↓</text><text xml:space="preserve" font-family="Helvetica-Light" font-size="50.0" fill="#FEFFFF" transform="matrix(1.00, 0.00, -0.00, -1.00, 156.0, 730.0)">S</text><text xml:space="preserve" font-family="Helvetica-Light" font-size="50.0" fill="#FEFFFF" transform="matrix(1.00, 0.00, -0.00, -1.00, 186.6, 730.0)">k</text><text xml:space="preserve" font-family="Helvetica-Light" font-size="50.0" fill="#FEFFFF" transform="matrix(1.00, 0.00, -0.00, -1.00, 211.6, 730.0)">u</text><text xml:space="preserve" font-family="Helvetica-Light" font-size="50.0" fill="#FEFFFF" transform="matrix(1.00, 0.00, -0.00, -1.00, 239.3, 730.0)">l</text><text xml:space="preserve" font-family="Helvetica-Light" font-size="50.0" fill="#FEFFFF" transform="matrix(1.00, 0.00, -0.00, -1.00, 250.4, 730.0)">l</text><text xml:space="preserve" font-family="Helvetica-Light" font-size="50.0" fill="#FEFFFF" transform="matrix(1.00, 0.00, -0.00, -1.00, 261.5, 730.0)"> </text><text xml:space="preserve" font-family="Helvetica-Light" font-size="50.0" fill="#FEFFFF" transform="matrix(1.00, 0.00, -0.00, -1.00, 275.4, 730.0)">s</text><text xml:space="preserve" font-family="Helvetica-Light" font-size="50.0" fill="#FEFFFF" transform="matrix(1.00, 0.00, -0.00, -1.00, 300.4, 730.0)">t</text><text xml:space="preserve" font-family="Helvetica-Light" font-size="50.0" fill="#FEFFFF" transform="matrix(1.00, 0.00, -0.00, -1.00, 314.4, 730.0)">r</text><text xml:space="preserve" font-family="Helvetica-Light" font-size="50.0" fill="#FEFFFF" transform="matrix(1.00, 0.00, -0.00, -1.00, 331.0, 730.0)">i</text><text xml:space="preserve" font-family="Helvetica-Light" font-size="50.0" fill="#FEFFFF" transform="matrix(1.00, 0.00, -0.00, -1.00, 342.1, 730.0)">p</text><text xml:space="preserve" font-family="Helvetica-Light" font-size="50.0" fill="#FEFFFF" transform="matrix(1.00, 0.00, -0.00, -1.00, 372.6, 730.0)">p</text><text xml:space="preserve" font-family="Helvetica-Light" font-size="50.0" fill="#FEFFFF" transform="matrix(1.00, 0.00, -0.00, -1.00, 403.2, 730.0)">i</text><text xml:space="preserve" font-family="Helvetica-Light" font-size="50.0" fill="#FEFFFF" transform="matrix(1.00, 0.00, -0.00, -1.00, 414.3, 730.0)">n</text><text xml:space="preserve" font-family="Helvetica-Light" font-size="50.0" fill="#FEFFFF" transform="matrix(1.00, 0.00, -0.00, -1.00, 442.1, 730.0)">g</text><text xml:space="preserve" font-family="Helvetica-Light" font-size="50.0" fill="#FEFFFF" transform="matrix(1.00, 0.00, -0.00, -1.00, 472.7, 730.0)"> </text><text xml:space="preserve" font-family="LucidaGrande" font-size="50.0" fill="#FEFFFF" transform="matrix(1.00, 0.00, -0.00, -1.00, 298.0, 671.0)">↓</text><text xml:space="preserve" font-family="Helvetica-Light" font-size="50.0" fill="#FEFFFF" transform="matrix(1.00, 0.00, -0.00, -1.00, 242.0, 611.0)">T</text><text xml:space="preserve" font-family="Helvetica-Light" font-size="50.0" fill="#FEFFFF" transform="matrix(1.00, 0.00, -0.00, -1.00, 269.8, 611.0)">i</text><text xml:space="preserve" font-family="Helvetica-Light" font-size="50.0" fill="#FEFFFF" transform="matrix(1.00, 0.00, -0.00, -1.00, 280.9, 611.0)">s</text><text xml:space="preserve" font-family="Helvetica-Light" font-size="50.0" fill="#FEFFFF" transform="matrix(1.00, 0.00, -0.00, -1.00, 305.9, 611.0)">s</text><text xml:space="preserve" font-family="Helvetica-Light" font-size="50.0" fill="#FEFFFF" transform="matrix(1.00, 0.00, -0.00, -1.00, 330.9, 611.0)">u</text><text xml:space="preserve" font-family="Helvetica-Light" font-size="50.0" fill="#FEFFFF" transform="matrix(1.00, 0.00, -0.00, -1.00, 358.7, 611.0)">e</text><text xml:space="preserve" font-family="Helvetica-Light" font-size="50.0" fill="#FEFFFF" transform="matrix(1.00, 0.00, -0.00, -1.00, 386.5, 611.0)"> </text><text xml:space="preserve" font-family="Helvetica-Light" font-size="50.0" fill="#FEFFFF" transform="matrix(1.00, 0.00, -0.00, -1.00, 170.0, 551.0)">c</text><text xml:space="preserve" font-family="Helvetica-Light" font-size="50.0" fill="#FEFFFF" transform="matrix(1.00, 0.00, -0.00, -1.00, 197.8, 551.0)">l</text><text xml:space="preserve" font-family="Helvetica-Light" font-size="50.0" fill="#FEFFFF" transform="matrix(1.00, 0.00, -0.00, -1.00, 208.9, 551.0)">a</text><text xml:space="preserve" font-family="Helvetica-Light" font-size="50.0" fill="#FEFFFF" transform="matrix(1.00, 0.00, -0.00, -1.00, 236.7, 551.0)">s</text><text xml:space="preserve" font-family="Helvetica-Light" font-size="50.0" fill="#FEFFFF" transform="matrix(1.00, 0.00, -0.00, -1.00, 261.7, 551.0)">s</text><text xml:space="preserve" font-family="Helvetica-Light" font-size="50.0" fill="#FEFFFF" transform="matrix(1.00, 0.00, -0.00, -1.00, 286.7, 551.0)">i</text><text xml:space="preserve" font-family="Helvetica-Light" font-size="50.0" fill="#FEFFFF" transform="matrix(1.00, 0.00, -0.00, -1.00, 297.8, 551.0)">ﬁ</text><text xml:space="preserve" font-family="Helvetica-Light" font-size="50.0" fill="#FEFFFF" transform="matrix(1.00, 0.00, -0.00, -1.00, 322.8, 551.0)">c</text><text xml:space="preserve" font-family="Helvetica-Light" font-size="50.0" fill="#FEFFFF" transform="matrix(1.00, 0.00, -0.00, -1.00, 350.6, 551.0)">a</text><text xml:space="preserve" font-family="Helvetica-Light" font-size="50.0" fill="#FEFFFF" transform="matrix(1.00, 0.00, -0.00, -1.00, 378.4, 551.0)">t</text><text xml:space="preserve" font-family="Helvetica-Light" font-size="50.0" fill="#FEFFFF" transform="matrix(1.00, 0.00, -0.00, -1.00, 392.3, 551.0)">i</text><text xml:space="preserve" font-family="Helvetica-Light" font-size="50.0" fill="#FEFFFF" transform="matrix(1.00, 0.00, -0.00, -1.00, 403.4, 551.0)">o</text><text xml:space="preserve" font-family="Helvetica-Light" font-size="50.0" fill="#FEFFFF" transform="matrix(1.00, 0.00, -0.00, -1.00, 431.2, 551.0)">n</text><text xml:space="preserve" font-family="Helvetica-Light" font-size="50.0" fill="#FEFFFF" transform="matrix(1.00, 0.00, -0.00, -1.00, 459.0, 551.0)"> </text><text xml:space="preserve" font-family="LucidaGrande" font-size="50.0" fill="#FEFFFF" transform="matrix(1.00, 0.00, -0.00, -1.00, 298.0, 492.0)">↓</text><text xml:space="preserve" font-family="Helvetica-Light" font-size="50.0" fill="#FEFFFF" transform="matrix(1.00, 0.00, -0.00, -1.00, 132.0, 432.0)">S</text><text xml:space="preserve" font-family="Helvetica-Light" font-size="50.0" fill="#FEFFFF" transform="matrix(1.00, 0.00, -0.00, -1.00, 162.6, 432.0)">e</text><text xml:space="preserve" font-family="Helvetica-Light" font-size="50.0" fill="#FEFFFF" transform="matrix(1.00, 0.00, -0.00, -1.00, 190.3, 432.0)">g</text><text xml:space="preserve" font-family="Helvetica-Light" font-size="50.0" fill="#FEFFFF" transform="matrix(1.00, 0.00, -0.00, -1.00, 220.9, 432.0)">m</text><text xml:space="preserve" font-family="Helvetica-Light" font-size="50.0" fill="#FEFFFF" transform="matrix(1.00, 0.00, -0.00, -1.00, 262.6, 432.0)">e</text><text xml:space="preserve" font-family="Helvetica-Light" font-size="50.0" fill="#FEFFFF" transform="matrix(1.00, 0.00, -0.00, -1.00, 290.4, 432.0)">n</text><text xml:space="preserve" font-family="Helvetica-Light" font-size="50.0" fill="#FEFFFF" transform="matrix(1.00, 0.00, -0.00, -1.00, 318.2, 432.0)">t</text><text xml:space="preserve" font-family="Helvetica-Light" font-size="50.0" fill="#FEFFFF" transform="matrix(1.00, 0.00, -0.00, -1.00, 332.1, 432.0)">a</text><text xml:space="preserve" font-family="Helvetica-Light" font-size="50.0" fill="#FEFFFF" transform="matrix(1.00, 0.00, -0.00, -1.00, 359.9, 432.0)">t</text><text xml:space="preserve" font-family="Helvetica-Light" font-size="50.0" fill="#FEFFFF" transform="matrix(1.00, 0.00, -0.00, -1.00, 373.8, 432.0)">i</text><text xml:space="preserve" font-family="Helvetica-Light" font-size="50.0" fill="#FEFFFF" transform="matrix(1.00, 0.00, -0.00, -1.00, 384.9, 432.0)">o</text><text xml:space="preserve" font-family="Helvetica-Light" font-size="50.0" fill="#FEFFFF" transform="matrix(1.00, 0.00, -0.00, -1.00, 412.7, 432.0)">n</text><text xml:space="preserve" font-family="Helvetica-Light" font-size="50.0" fill="#FEFFFF" transform="matrix(1.00, 0.00, -0.00, -1.00, 440.5, 432.0)"> </text><text xml:space="preserve" font-family="Helvetica-Light" font-size="50.0" fill="#FEFFFF" transform="matrix(1.00, 0.00, -0.00, -1.00, 454.4, 432.0)">o</text><text xml:space="preserve" font-family="Helvetica-Light" font-size="50.0" fill="#FEFFFF" transform="matrix(1.00, 0.00, -0.00, -1.00, 482.2, 432.0)">f</text><text xml:space="preserve" font-family="Helvetica-Light" font-size="50.0" fill="#FEFFFF" transform="matrix(1.00, 0.00, -0.00, -1.00, 496.1, 432.0)"> </text><text xml:space="preserve" font-family="Helvetica-Light" font-size="50.0" fill="#FEFFFF" transform="matrix(1.00, 0.00, -0.00, -1.00, 140.0, 372.0)">b</text><text xml:space="preserve" font-family="Helvetica-Light" font-size="50.0" fill="#FEFFFF" transform="matrix(1.00, 0.00, -0.00, -1.00, 170.6, 372.0)">r</text><text xml:space="preserve" font-family="Helvetica-Light" font-size="50.0" fill="#FEFFFF" transform="matrix(1.00, 0.00, -0.00, -1.00, 187.2, 372.0)">a</text><text xml:space="preserve" font-family="Helvetica-Light" font-size="50.0" fill="#FEFFFF" transform="matrix(1.00, 0.00, -0.00, -1.00, 215.0, 372.0)">i</text><text xml:space="preserve" font-family="Helvetica-Light" font-size="50.0" fill="#FEFFFF" transform="matrix(1.00, 0.00, -0.00, -1.00, 226.1, 372.0)">n</text><text xml:space="preserve" font-family="Helvetica-Light" font-size="50.0" fill="#FEFFFF" transform="matrix(1.00, 0.00, -0.00, -1.00, 253.9, 372.0)"> </text><text xml:space="preserve" font-family="Helvetica-Light" font-size="50.0" fill="#FEFFFF" transform="matrix(1.00, 0.00, -0.00, -1.00, 267.8, 372.0)">s</text><text xml:space="preserve" font-family="Helvetica-Light" font-size="50.0" fill="#FEFFFF" transform="matrix(1.00, 0.00, -0.00, -1.00, 292.8, 372.0)">t</text><text xml:space="preserve" font-family="Helvetica-Light" font-size="50.0" fill="#FEFFFF" transform="matrix(1.00, 0.00, -0.00, -1.00, 306.7, 372.0)">r</text><text xml:space="preserve" font-family="Helvetica-Light" font-size="50.0" fill="#FEFFFF" transform="matrix(1.00, 0.00, -0.00, -1.00, 323.4, 372.0)">u</text><text xml:space="preserve" font-family="Helvetica-Light" font-size="50.0" fill="#FEFFFF" transform="matrix(1.00, 0.00, -0.00, -1.00, 351.2, 372.0)">c</text><text xml:space="preserve" font-family="Helvetica-Light" font-size="50.0" fill="#FEFFFF" transform="matrix(1.00, 0.00, -0.00, -1.00, 379.0, 372.0)">t</text><text xml:space="preserve" font-family="Helvetica-Light" font-size="50.0" fill="#FEFFFF" transform="matrix(1.00, 0.00, -0.00, -1.00, 392.9, 372.0)">u</text><text xml:space="preserve" font-family="Helvetica-Light" font-size="50.0" fill="#FEFFFF" transform="matrix(1.00, 0.00, -0.00, -1.00, 420.7, 372.0)">r</text><text xml:space="preserve" font-family="Helvetica-Light" font-size="50.0" fill="#FEFFFF" transform="matrix(1.00, 0.00, -0.00, -1.00, 436.4, 372.0)">e</text><text xml:space="preserve" font-family="Helvetica-Light" font-size="50.0" fill="#FEFFFF" transform="matrix(1.00, 0.00, -0.00, -1.00, 464.2, 372.0)">s</text><text xml:space="preserve" font-family="Helvetica-Light" font-size="50.0" fill="#FEFFFF" transform="matrix(1.00, 0.00, -0.00, -1.00, 489.2, 372.0)"> </text><text xml:space="preserve" font-family="LucidaGrande" font-size="50.0" fill="#FEFFFF" transform="matrix(1.00, 0.00, -0.00, -1.00, 298.0, 313.0)">↓</text><text xml:space="preserve" font-family="Helvetica-Bold" font-weight="bold" font-size="50.0" fill="#FEFFFF" transform="matrix(1.00, 0.00, -0.00, -1.00, 223.0, 253.0)">S</text><text xml:space="preserve" font-family="Helvetica-Bold" font-weight="bold" font-size="50.0" fill="#FEFFFF" transform="matrix(1.00, 0.00, -0.00, -1.00, 256.3, 253.0)">u</text><text xml:space="preserve" font-family="Helvetica-Bold" font-weight="bold" font-size="50.0" fill="#FEFFFF" transform="matrix(1.00, 0.00, -0.00, -1.00, 286.9, 253.0)">r</text><text xml:space="preserve" font-family="Helvetica-Bold" font-weight="bold" font-size="50.0" fill="#FEFFFF" transform="matrix(1.00, 0.00, -0.00, -1.00, 306.3, 253.0)">f</text><text xml:space="preserve" font-family="Helvetica-Bold" font-weight="bold" font-size="50.0" fill="#FEFFFF" transform="matrix(1.00, 0.00, -0.00, -1.00, 323.0, 253.0)">a</text><text xml:space="preserve" font-family="Helvetica-Bold" font-weight="bold" font-size="50.0" fill="#FEFFFF" transform="matrix(1.00, 0.00, -0.00, -1.00, 350.8, 253.0)">c</text><text xml:space="preserve" font-family="Helvetica-Bold" font-weight="bold" font-size="50.0" fill="#FEFFFF" transform="matrix(1.00, 0.00, -0.00, -1.00, 378.6, 253.0)">e</text><text xml:space="preserve" font-family="Helvetica-Bold" font-weight="bold" font-size="50.0" fill="#FEFFFF" transform="matrix(1.00, 0.00, -0.00, -1.00, 406.5, 253.0)"> </text><text xml:space="preserve" font-family="Helvetica-Bold" font-weight="bold" font-size="50.0" fill="#FEFFFF" transform="matrix(1.00, 0.00, -0.00, -1.00, 139.0, 193.0)">r</text><text xml:space="preserve" font-family="Helvetica-Bold" font-weight="bold" font-size="50.0" fill="#FEFFFF" transform="matrix(1.00, 0.00, -0.00, -1.00, 158.5, 193.0)">e</text><text xml:space="preserve" font-family="Helvetica-Bold" font-weight="bold" font-size="50.0" fill="#FEFFFF" transform="matrix(1.00, 0.00, -0.00, -1.00, 186.3, 193.0)">c</text><text xml:space="preserve" font-family="Helvetica-Bold" font-weight="bold" font-size="50.0" fill="#FEFFFF" transform="matrix(1.00, 0.00, -0.00, -1.00, 214.1, 193.0)">o</text><text xml:space="preserve" font-family="Helvetica-Bold" font-weight="bold" font-size="50.0" fill="#FEFFFF" transform="matrix(1.00, 0.00, -0.00, -1.00, 244.6, 193.0)">n</text><text xml:space="preserve" font-family="Helvetica-Bold" font-weight="bold" font-size="50.0" fill="#FEFFFF" transform="matrix(1.00, 0.00, -0.00, -1.00, 275.2, 193.0)">s</text><text xml:space="preserve" font-family="Helvetica-Bold" font-weight="bold" font-size="50.0" fill="#FEFFFF" transform="matrix(1.00, 0.00, -0.00, -1.00, 303.0, 193.0)">t</text><text xml:space="preserve" font-family="Helvetica-Bold" font-weight="bold" font-size="50.0" fill="#FEFFFF" transform="matrix(1.00, 0.00, -0.00, -1.00, 319.6, 193.0)">r</text><text xml:space="preserve" font-family="Helvetica-Bold" font-weight="bold" font-size="50.0" fill="#FEFFFF" transform="matrix(1.00, 0.00, -0.00, -1.00, 339.1, 193.0)">u</text><text xml:space="preserve" font-family="Helvetica-Bold" font-weight="bold" font-size="50.0" fill="#FEFFFF" transform="matrix(1.00, 0.00, -0.00, -1.00, 369.6, 193.0)">c</text><text xml:space="preserve" font-family="Helvetica-Bold" font-weight="bold" font-size="50.0" fill="#FEFFFF" transform="matrix(1.00, 0.00, -0.00, -1.00, 397.5, 193.0)">t</text><text xml:space="preserve" font-family="Helvetica-Bold" font-weight="bold" font-size="50.0" fill="#FEFFFF" transform="matrix(1.00, 0.00, -0.00, -1.00, 414.1, 193.0)">i</text><text xml:space="preserve" font-family="Helvetica-Bold" font-weight="bold" font-size="50.0" fill="#FEFFFF" transform="matrix(1.00, 0.00, -0.00, -1.00, 428.0, 193.0)">o</text><text xml:space="preserve" font-family="Helvetica-Bold" font-weight="bold" font-size="50.0" fill="#FEFFFF" transform="matrix(1.00, 0.00, -0.00, -1.00, 458.5, 193.0)">n</text></g></svg>