<?xml version="1.0" encoding="UTF-8" standalone="no"?><svg xmlns="http://www.w3.org/2000/svg" xmlns:xlink="http://www.w3.org/1999/xlink" clip-rule="evenodd" stroke-miterlimit="4.00" viewBox="0 0 1920 1080"><desc>SVG generated by Keynote</desc><defs></defs><g transform="matrix(1.00, 0.00, -0.00, -1.00, 0.0, 1080.0)"><path d="M 0.0 1080.0 L 1920.0 1080.0 L 1920.0 0.0 L 0.0 0.0 Z M 0.0 1080.0 " fill="#FEFFFF"></path><g><clipPath id="clip-0"><path d="M 186.0 189.0 L 885.0 189.0 L 885.0 891.0 L 186.0 891.0 Z M 186.0 189.0 "></path></clipPath><g clip-path="url(#clip-0)"><path d="M 226.6 870.7 C 226.6 859.5 217.5 850.4 206.3 850.4 C 195.1 850.4 186.0 859.5 186.0 870.7 C 186.0 881.9 195.1 891.0 206.3 891.0 C 217.5 891.0 226.6 881.9 226.6 870.7 Z M 226.6 870.7 " fill="#3BA395"></path><path d="M 277.2 870.7 C 277.2 859.5 268.1 850.4 256.9 850.4 C 245.7 850.4 236.6 859.5 236.6 870.7 C 236.6 881.9 245.7 891.0 256.9 891.0 C 268.1 891.0 277.2 881.9 277.2 870.7 Z M 277.2 870.7 " fill="#38A7A1"></path><path d="M 327.9 870.7 C 327.9 859.5 318.8 850.4 307.6 850.4 C 296.4 850.4 287.3 859.5 287.3 870.7 C 287.3 881.9 296.4 891.0 307.6 891.0 C 318.8 891.0 327.9 881.9 327.9 870.7 Z M 327.9 870.7 " fill="#33A5A3"></path><path d="M 378.5 870.7 C 378.5 859.5 369.4 850.4 358.2 850.4 C 347.0 850.4 337.9 859.5 337.9 870.7 C 337.9 881.9 347.0 891.0 358.2 891.0 C 369.4 891.0 378.5 881.9 378.5 870.7 Z M 378.5 870.7 " fill="#79B16E"></path><path d="M 429.2 870.7 C 429.2 859.5 420.1 850.4 408.9 850.4 C 397.7 850.4 388.6 859.5 388.6 870.7 C 388.6 881.9 397.7 891.0 408.9 891.0 C 420.1 891.0 429.2 881.9 429.2 870.7 Z M 429.2 870.7 " fill="#E4D438"></path><path d="M 479.8 870.7 C 479.8 859.5 470.7 850.4 459.5 850.4 C 448.3 850.4 439.2 859.5 439.2 870.7 C 439.2 881.9 448.3 891.0 459.5 891.0 C 470.7 891.0 479.8 881.9 479.8 870.7 Z M 479.8 870.7 " fill="#DABD2D"></path><path d="M 530.5 870.7 C 530.5 859.5 521.4 850.4 510.2 850.4 C 499.0 850.4 489.9 859.5 489.9 870.7 C 489.9 881.9 499.0 891.0 510.2 891.0 C 521.4 891.0 530.5 881.9 530.5 870.7 Z M 530.5 870.7 " fill="#D1AF2A"></path><path d="M 581.1 870.7 C 581.1 859.5 572.0 850.4 560.8 850.4 C 549.6 850.4 540.5 859.5 540.5 870.7 C 540.5 881.9 549.6 891.0 560.8 891.0 C 572.0 891.0 581.1 881.9 581.1 870.7 Z M 581.1 870.7 " fill="#E8BC26"></path><path d="M 631.8 870.7 C 631.8 859.5 622.7 850.4 611.5 850.4 C 600.3 850.4 591.2 859.5 591.2 870.7 C 591.2 881.9 600.3 891.0 611.5 891.0 C 622.7 891.0 631.8 881.9 631.8 870.7 Z M 631.8 870.7 " fill="#B6B63F"></path><path d="M 682.4 870.7 C 682.4 859.5 673.3 850.4 662.1 850.4 C 650.9 850.4 641.8 859.5 641.8 870.7 C 641.8 881.9 650.9 891.0 662.1 891.0 C 673.3 891.0 682.4 881.9 682.4 870.7 Z M 682.4 870.7 " fill="#3D9E7E"></path><path d="M 733.1 870.7 C 733.1 859.5 724.0 850.4 712.8 850.4 C 701.6 850.4 692.5 859.5 692.5 870.7 C 692.5 881.9 701.6 891.0 712.8 891.0 C 724.0 891.0 733.1 881.9 733.1 870.7 Z M 733.1 870.7 " fill="#219E91"></path><path d="M 783.7 870.7 C 783.7 859.5 774.6 850.4 763.4 850.4 C 752.2 850.4 743.1 859.5 743.1 870.7 C 743.1 881.9 752.2 891.0 763.4 891.0 C 774.6 891.0 783.7 881.9 783.7 870.7 Z M 783.7 870.7 " fill="#2AA08E"></path><path d="M 834.3 870.7 C 834.3 859.5 825.3 850.4 814.1 850.4 C 802.9 850.4 793.8 859.5 793.8 870.7 C 793.8 881.9 802.9 891.0 814.1 891.0 C 825.3 891.0 834.3 881.9 834.3 870.7 Z M 834.3 870.7 " fill="#269C87"></path><path d="M 885.0 870.7 C 885.0 859.5 875.9 850.4 864.7 850.4 C 853.5 850.4 844.4 859.5 844.4 870.7 C 844.4 881.9 853.5 891.0 864.7 891.0 C 875.9 891.0 885.0 881.9 885.0 870.7 Z M 885.0 870.7 " fill="#1D9785"></path><path d="M 226.6 819.8 C 226.6 808.6 217.5 799.5 206.3 799.5 C 195.1 799.5 186.0 808.6 186.0 819.8 C 186.0 831.0 195.1 840.1 206.3 840.1 C 217.5 840.1 226.6 831.0 226.6 819.8 Z M 226.6 819.8 " fill="#3DA7A0"></path><path d="M 277.2 819.8 C 277.2 808.6 268.1 799.5 256.9 799.5 C 245.7 799.5 236.6 808.6 236.6 819.8 C 236.6 831.0 245.7 840.1 256.9 840.1 C 268.1 840.1 277.2 831.0 277.2 819.8 Z M 277.2 819.8 " fill="#4BAA99"></path><path d="M 327.9 819.8 C 327.9 808.6 318.8 799.5 307.6 799.5 C 296.4 799.5 287.3 808.6 287.3 819.8 C 287.3 831.0 296.4 840.1 307.6 840.1 C 318.8 840.1 327.9 831.0 327.9 819.8 Z M 327.9 819.8 " fill="#AAC660"></path><path d="M 378.5 819.8 C 378.5 808.6 369.4 799.5 358.2 799.5 C 347.0 799.5 337.9 808.6 337.9 819.8 C 337.9 831.0 347.0 840.1 358.2 840.1 C 369.4 840.1 378.5 831.0 378.5 819.8 Z M 378.5 819.8 " fill="#EFD828"></path><path d="M 429.2 819.8 C 429.2 808.6 420.1 799.5 408.9 799.5 C 397.7 799.5 388.6 808.6 388.6 819.8 C 388.6 831.0 397.7 840.1 408.9 840.1 C 420.1 840.1 429.2 831.0 429.2 819.8 Z M 429.2 819.8 " fill="#DAB315"></path><path d="M 479.8 819.8 C 479.8 808.6 470.7 799.5 459.5 799.5 C 448.3 799.5 439.2 808.6 439.2 819.8 C 439.2 831.0 448.3 840.1 459.5 840.1 C 470.7 840.1 479.8 831.0 479.8 819.8 Z M 479.8 819.8 " fill="#E8BC1D"></path><path d="M 530.5 819.8 C 530.5 808.6 521.4 799.5 510.2 799.5 C 499.0 799.5 489.9 808.6 489.9 819.8 C 489.9 831.0 499.0 840.1 510.2 840.1 C 521.4 840.1 530.5 831.0 530.5 819.8 Z M 530.5 819.8 " fill="#AE891C"></path><path d="M 581.1 819.8 C 581.1 808.6 572.0 799.5 560.8 799.5 C 549.6 799.5 540.5 808.6 540.5 819.8 C 540.5 831.0 549.6 840.1 560.8 840.1 C 572.0 840.1 581.1 831.0 581.1 819.8 Z M 581.1 819.8 " fill="#E8BA21"></path><path d="M 631.8 819.8 C 631.8 808.6 622.7 799.5 611.5 799.5 C 600.3 799.5 591.2 808.6 591.2 819.8 C 591.2 831.0 600.3 840.1 611.5 840.1 C 622.7 840.1 631.8 831.0 631.8 819.8 Z M 631.8 819.8 " fill="#F2CD28"></path><path d="M 682.4 819.8 C 682.4 808.6 673.3 799.5 662.1 799.5 C 650.9 799.5 641.8 808.6 641.8 819.8 C 641.8 831.0 650.9 840.1 662.1 840.1 C 673.3 840.1 682.4 831.0 682.4 819.8 Z M 682.4 819.8 " fill="#BFC141"></path><path d="M 733.1 819.8 C 733.1 808.6 724.0 799.5 712.8 799.5 C 701.6 799.5 692.5 808.6 692.5 819.8 C 692.5 831.0 701.6 840.1 712.8 840.1 C 724.0 840.1 733.1 831.0 733.1 819.8 Z M 733.1 819.8 " fill="#44A37E"></path><path d="M 783.7 819.8 C 783.7 808.6 774.6 799.5 763.4 799.5 C 752.2 799.5 743.1 808.6 743.1 819.8 C 743.1 831.0 752.2 840.1 763.4 840.1 C 774.6 840.1 783.7 831.0 783.7 819.8 Z M 783.7 819.8 " fill="#3BA58C"></path><path d="M 834.3 819.8 C 834.3 808.6 825.3 799.5 814.1 799.5 C 802.9 799.5 793.8 808.6 793.8 819.8 C 793.8 831.0 802.9 840.1 814.1 840.1 C 825.3 840.1 834.3 831.0 834.3 819.8 Z M 834.3 819.8 " fill="#2BA397"></path><path d="M 885.0 819.8 C 885.0 808.6 875.9 799.5 864.7 799.5 C 853.5 799.5 844.4 808.6 844.4 819.8 C 844.4 831.0 853.5 840.1 864.7 840.1 C 875.9 840.1 885.0 831.0 885.0 819.8 Z M 885.0 819.8 " fill="#28A190"></path><path d="M 226.6 769.0 C 226.6 757.7 217.5 748.7 206.3 748.7 C 195.1 748.7 186.0 757.7 186.0 769.0 C 186.0 780.2 195.1 789.2 206.3 789.2 C 217.5 789.2 226.6 780.2 226.6 769.0 Z M 226.6 769.0 " fill="#3DA7AA"></path><path d="M 277.2 769.0 C 277.2 757.7 268.1 748.7 256.9 748.7 C 245.7 748.7 236.6 757.7 236.6 769.0 C 236.6 780.2 245.7 789.2 256.9 789.2 C 268.1 789.2 277.2 780.2 277.2 769.0 Z M 277.2 769.0 " fill="#579567"></path><path d="M 327.9 769.0 C 327.9 757.7 318.8 748.7 307.6 748.7 C 296.4 748.7 287.3 757.7 287.3 769.0 C 287.3 780.2 296.4 789.2 307.6 789.2 C 318.8 789.2 327.9 780.2 327.9 769.0 Z M 327.9 769.0 " fill="#EFD82A"></path><path d="M 378.5 769.0 C 378.5 757.7 369.4 748.7 358.2 748.7 C 347.0 748.7 337.9 757.7 337.9 769.0 C 337.9 780.2 347.0 789.2 358.2 789.2 C 369.4 789.2 378.5 780.2 378.5 769.0 Z M 378.5 769.0 " fill="#B69E1D"></path><path d="M 429.2 769.0 C 429.2 757.7 420.1 748.7 408.9 748.7 C 397.7 748.7 388.6 757.7 388.6 769.0 C 388.6 780.2 397.7 789.2 408.9 789.2 C 420.1 789.2 429.2 780.2 429.2 769.0 Z M 429.2 769.0 " fill="#937B1F"></path><path d="M 479.8 769.0 C 479.8 757.7 470.7 748.7 459.5 748.7 C 448.3 748.7 439.2 757.7 439.2 769.0 C 439.2 780.2 448.3 789.2 459.5 789.2 C 470.7 789.2 479.8 780.2 479.8 769.0 Z M 479.8 769.0 " fill="#EDCA28"></path><path d="M 530.5 769.0 C 530.5 757.7 521.4 748.7 510.2 748.7 C 499.0 748.7 489.9 757.7 489.9 769.0 C 489.9 780.2 499.0 789.2 510.2 789.2 C 521.4 789.2 530.5 780.2 530.5 769.0 Z M 530.5 769.0 " fill="#EBC818"></path><path d="M 581.1 769.0 C 581.1 757.7 572.0 748.7 560.8 748.7 C 549.6 748.7 540.5 757.7 540.5 769.0 C 540.5 780.2 549.6 789.2 560.8 789.2 C 572.0 789.2 581.1 780.2 581.1 769.0 Z M 581.1 769.0 " fill="#EBC321"></path><path d="M 631.8 769.0 C 631.8 757.7 622.7 748.7 611.5 748.7 C 600.3 748.7 591.2 757.7 591.2 769.0 C 591.2 780.2 600.3 789.2 611.5 789.2 C 622.7 789.2 631.8 780.2 631.8 769.0 Z M 631.8 769.0 " fill="#E6C11A"></path><path d="M 682.4 769.0 C 682.4 757.7 673.3 748.7 662.1 748.7 C 650.9 748.7 641.8 757.7 641.8 769.0 C 641.8 780.2 650.9 789.2 662.1 789.2 C 673.3 789.2 682.4 780.2 682.4 769.0 Z M 682.4 769.0 " fill="#F0D128"></path><path d="M 733.1 769.0 C 733.1 757.7 724.0 748.7 712.8 748.7 C 701.6 748.7 692.5 757.7 692.5 769.0 C 692.5 780.2 701.6 789.2 712.8 789.2 C 724.0 789.2 733.1 780.2 733.1 769.0 Z M 733.1 769.0 " fill="#EFC62B"></path><path d="M 783.7 769.0 C 783.7 757.7 774.6 748.7 763.4 748.7 C 752.2 748.7 743.1 757.7 743.1 769.0 C 743.1 780.2 752.2 789.2 763.4 789.2 C 774.6 789.2 783.7 780.2 783.7 769.0 Z M 783.7 769.0 " fill="#DBBF26"></path><path d="M 834.3 769.0 C 834.3 757.7 825.3 748.7 814.1 748.7 C 802.9 748.7 793.8 757.7 793.8 769.0 C 793.8 780.2 802.9 789.2 814.1 789.2 C 825.3 789.2 834.3 780.2 834.3 769.0 Z M 834.3 769.0 " fill="#49A782"></path><path d="M 885.0 769.0 C 885.0 757.7 875.9 748.7 864.7 748.7 C 853.5 748.7 844.4 757.7 844.4 769.0 C 844.4 780.2 853.5 789.2 864.7 789.2 C 875.9 789.2 885.0 780.2 885.0 769.0 Z M 885.0 769.0 " fill="#28A197"></path><path d="M 226.6 718.1 C 226.6 706.9 217.5 697.8 206.3 697.8 C 195.1 697.8 186.0 706.9 186.0 718.1 C 186.0 729.3 195.1 738.4 206.3 738.4 C 217.5 738.4 226.6 729.3 226.6 718.1 Z M 226.6 718.1 " fill="#3FAAAE"></path><path d="M 277.2 718.1 C 277.2 706.9 268.1 697.8 256.9 697.8 C 245.7 697.8 236.6 706.9 236.6 718.1 C 236.6 729.3 245.7 738.4 256.9 738.4 C 268.1 738.4 277.2 729.3 277.2 718.1 Z M 277.2 718.1 " fill="#5B955D"></path><path d="M 327.9 718.1 C 327.9 706.9 318.8 697.8 307.6 697.8 C 296.4 697.8 287.3 706.9 287.3 718.1 C 287.3 729.3 296.4 738.4 307.6 738.4 C 318.8 738.4 327.9 729.3 327.9 718.1 Z M 327.9 718.1 " fill="#EBCD1F"></path><path d="M 378.5 718.1 C 378.5 706.9 369.4 697.8 358.2 697.8 C 347.0 697.8 337.9 706.9 337.9 718.1 C 337.9 729.3 347.0 738.4 358.2 738.4 C 369.4 738.4 378.5 729.3 378.5 718.1 Z M 378.5 718.1 " fill="#C1A344"></path><path d="M 429.2 718.1 C 429.2 706.9 420.1 697.8 408.9 697.8 C 397.7 697.8 388.6 706.9 388.6 718.1 C 388.6 729.3 397.7 738.4 408.9 738.4 C 420.1 738.4 429.2 729.3 429.2 718.1 Z M 429.2 718.1 " fill="#DFA779"></path><path d="M 479.8 718.1 C 479.8 706.9 470.7 697.8 459.5 697.8 C 448.3 697.8 439.2 706.9 439.2 718.1 C 439.2 729.3 448.3 738.4 459.5 738.4 C 470.7 738.4 479.8 729.3 479.8 718.1 Z M 479.8 718.1 " fill="#EBC349"></path><path d="M 530.5 718.1 C 530.5 706.9 521.4 697.8 510.2 697.8 C 499.0 697.8 489.9 706.9 489.9 718.1 C 489.9 729.3 499.0 738.4 510.2 738.4 C 521.4 738.4 530.5 729.3 530.5 718.1 Z M 530.5 718.1 " fill="#E8B864"></path><path d="M 581.1 718.1 C 581.1 706.9 572.0 697.8 560.8 697.8 C 549.6 697.8 540.5 706.9 540.5 718.1 C 540.5 729.3 549.6 738.4 560.8 738.4 C 572.0 738.4 581.1 729.3 581.1 718.1 Z M 581.1 718.1 " fill="#E2A77C"></path><path d="M 631.8 718.1 C 631.8 706.9 622.7 697.8 611.5 697.8 C 600.3 697.8 591.2 706.9 591.2 718.1 C 591.2 729.3 600.3 738.4 611.5 738.4 C 622.7 738.4 631.8 729.3 631.8 718.1 Z M 631.8 718.1 " fill="#DA9C69"></path><path d="M 682.4 718.1 C 682.4 706.9 673.3 697.8 662.1 697.8 C 650.9 697.8 641.8 706.9 641.8 718.1 C 641.8 729.3 650.9 738.4 662.1 738.4 C 673.3 738.4 682.4 729.3 682.4 718.1 Z M 682.4 718.1 " fill="#EBC136"></path><path d="M 733.1 718.1 C 733.1 706.9 724.0 697.8 712.8 697.8 C 701.6 697.8 692.5 706.9 692.5 718.1 C 692.5 729.3 701.6 738.4 712.8 738.4 C 724.0 738.4 733.1 729.3 733.1 718.1 Z M 733.1 718.1 " fill="#EDC128"></path><path d="M 783.7 718.1 C 783.7 706.9 774.6 697.8 763.4 697.8 C 752.2 697.8 743.1 706.9 743.1 718.1 C 743.1 729.3 752.2 738.4 763.4 738.4 C 774.6 738.4 783.7 729.3 783.7 718.1 Z M 783.7 718.1 " fill="#E8B631"></path><path d="M 834.3 718.1 C 834.3 706.9 825.3 697.8 814.1 697.8 C 802.9 697.8 793.8 706.9 793.8 718.1 C 793.8 729.3 802.9 738.4 814.1 738.4 C 825.3 738.4 834.3 729.3 834.3 718.1 Z M 834.3 718.1 " fill="#80A850"></path><path d="M 885.0 718.1 C 885.0 706.9 875.9 697.8 864.7 697.8 C 853.5 697.8 844.4 706.9 844.4 718.1 C 844.4 729.3 853.5 738.4 864.7 738.4 C 875.9 738.4 885.0 729.3 885.0 718.1 Z M 885.0 718.1 " fill="#28A3A0"></path><path d="M 226.6 667.2 C 226.6 656.0 217.5 646.9 206.3 646.9 C 195.1 646.9 186.0 656.0 186.0 667.2 C 186.0 678.4 195.1 687.5 206.3 687.5 C 217.5 687.5 226.6 678.4 226.6 667.2 Z M 226.6 667.2 " fill="#3FAAAE"></path><path d="M 277.2 667.2 C 277.2 656.0 268.1 646.9 256.9 646.9 C 245.7 646.9 236.6 656.0 236.6 667.2 C 236.6 678.4 245.7 687.5 256.9 687.5 C 268.1 687.5 277.2 678.4 277.2 667.2 Z M 277.2 667.2 " fill="#489374"></path><path d="M 327.9 667.2 C 327.9 656.0 318.8 646.9 307.6 646.9 C 296.4 646.9 287.3 656.0 287.3 667.2 C 287.3 678.4 296.4 687.5 307.6 687.5 C 318.8 687.5 327.9 678.4 327.9 667.2 Z M 327.9 667.2 " fill="#85721F"></path><path d="M 378.5 667.2 C 378.5 656.0 369.4 646.9 358.2 646.9 C 347.0 646.9 337.9 656.0 337.9 667.2 C 337.9 678.4 347.0 687.5 358.2 687.5 C 369.4 687.5 378.5 678.4 378.5 667.2 Z M 378.5 667.2 " fill="#C69E59"></path><path d="M 429.2 667.2 C 429.2 656.0 420.1 646.9 408.9 646.9 C 397.7 646.9 388.6 656.0 388.6 667.2 C 388.6 678.4 397.7 687.5 408.9 687.5 C 420.1 687.5 429.2 678.4 429.2 667.2 Z M 429.2 667.2 " fill="#E2AAC4"></path><path d="M 479.8 667.2 C 479.8 656.0 470.7 646.9 459.5 646.9 C 448.3 646.9 439.2 656.0 439.2 667.2 C 439.2 678.4 448.3 687.5 459.5 687.5 C 470.7 687.5 479.8 678.4 479.8 667.2 Z M 479.8 667.2 " fill="#DFA3AF"></path><path d="M 530.5 667.2 C 530.5 656.0 521.4 646.9 510.2 646.9 C 499.0 646.9 489.9 656.0 489.9 667.2 C 489.9 678.4 499.0 687.5 510.2 687.5 C 521.4 687.5 530.5 678.4 530.5 667.2 Z M 530.5 667.2 " fill="#DFA0B5"></path><path d="M 581.1 667.2 C 581.1 656.0 572.0 646.9 560.8 646.9 C 549.6 646.9 540.5 656.0 540.5 667.2 C 540.5 678.4 549.6 687.5 560.8 687.5 C 572.0 687.5 581.1 678.4 581.1 667.2 Z M 581.1 667.2 " fill="#DF9EB1"></path><path d="M 631.8 667.2 C 631.8 656.0 622.7 646.9 611.5 646.9 C 600.3 646.9 591.2 656.0 591.2 667.2 C 591.2 678.4 600.3 687.5 611.5 687.5 C 622.7 687.5 631.8 678.4 631.8 667.2 Z M 631.8 667.2 " fill="#DD9AB3"></path><path d="M 682.4 667.2 C 682.4 656.0 673.3 646.9 662.1 646.9 C 650.9 646.9 641.8 656.0 641.8 667.2 C 641.8 678.4 650.9 687.5 662.1 687.5 C 673.3 687.5 682.4 678.4 682.4 667.2 Z M 682.4 667.2 " fill="#DDA15B"></path><path d="M 733.1 667.2 C 733.1 656.0 724.0 646.9 712.8 646.9 C 701.6 646.9 692.5 656.0 692.5 667.2 C 692.5 678.4 701.6 687.5 712.8 687.5 C 724.0 687.5 733.1 678.4 733.1 667.2 Z M 733.1 667.2 " fill="#C69E14"></path><path d="M 783.7 667.2 C 783.7 656.0 774.6 646.9 763.4 646.9 C 752.2 646.9 743.1 656.0 743.1 667.2 C 743.1 678.4 752.2 687.5 763.4 687.5 C 774.6 687.5 783.7 678.4 783.7 667.2 Z M 783.7 667.2 " fill="#D8A514"></path><path d="M 834.3 667.2 C 834.3 656.0 825.3 646.9 814.1 646.9 C 802.9 646.9 793.8 656.0 793.8 667.2 C 793.8 678.4 802.9 687.5 814.1 687.5 C 825.3 687.5 834.3 678.4 834.3 667.2 Z M 834.3 667.2 " fill="#386642"></path><path d="M 885.0 667.2 C 885.0 656.0 875.9 646.9 864.7 646.9 C 853.5 646.9 844.4 656.0 844.4 667.2 C 844.4 678.4 853.5 687.5 864.7 687.5 C 875.9 687.5 885.0 678.4 885.0 667.2 Z M 885.0 667.2 " fill="#34A7A3"></path><path d="M 226.6 616.3 C 226.6 605.1 217.5 596.0 206.3 596.0 C 195.1 596.0 186.0 605.1 186.0 616.3 C 186.0 627.5 195.1 636.6 206.3 636.6 C 217.5 636.6 226.6 627.5 226.6 616.3 Z M 226.6 616.3 " fill="#46ACAC"></path><path d="M 277.2 616.3 C 277.2 605.1 268.1 596.0 256.9 596.0 C 245.7 596.0 236.6 605.1 236.6 616.3 C 236.6 627.5 245.7 636.6 256.9 636.6 C 268.1 636.6 277.2 627.5 277.2 616.3 Z M 277.2 616.3 " fill="#9EAC48"></path><path d="M 327.9 616.3 C 327.9 605.1 318.8 596.0 307.6 596.0 C 296.4 596.0 287.3 605.1 287.3 616.3 C 287.3 627.5 296.4 636.6 307.6 636.6 C 318.8 636.6 327.9 627.5 327.9 616.3 Z M 327.9 616.3 " fill="#604D1D"></path><path d="M 378.5 616.3 C 378.5 605.1 369.4 596.0 358.2 596.0 C 347.0 596.0 337.9 605.1 337.9 616.3 C 337.9 627.5 347.0 636.6 358.2 636.6 C 369.4 636.6 378.5 627.5 378.5 616.3 Z M 378.5 616.3 " fill="#A3797C"></path><path d="M 429.2 616.3 C 429.2 605.1 420.1 596.0 408.9 596.0 C 397.7 596.0 388.6 605.1 388.6 616.3 C 388.6 627.5 397.7 636.6 408.9 636.6 C 420.1 636.6 429.2 627.5 429.2 616.3 Z M 429.2 616.3 " fill="#E2A5B3"></path><path d="M 479.8 616.3 C 479.8 605.1 470.7 596.0 459.5 596.0 C 448.3 596.0 439.2 605.1 439.2 616.3 C 439.2 627.5 448.3 636.6 459.5 636.6 C 470.7 636.6 479.8 627.5 479.8 616.3 Z M 479.8 616.3 " fill="#E1A5B3"></path><path d="M 530.5 616.3 C 530.5 605.1 521.4 596.0 510.2 596.0 C 499.0 596.0 489.9 605.1 489.9 616.3 C 489.9 627.5 499.0 636.6 510.2 636.6 C 521.4 636.6 530.5 627.5 530.5 616.3 Z M 530.5 616.3 " fill="#DD9AA5"></path><path d="M 581.1 616.3 C 581.1 605.1 572.0 596.0 560.8 596.0 C 549.6 596.0 540.5 605.1 540.5 616.3 C 540.5 627.5 549.6 636.6 560.8 636.6 C 572.0 636.6 581.1 627.5 581.1 616.3 Z M 581.1 616.3 " fill="#D68A90"></path><path d="M 631.8 616.3 C 631.8 605.1 622.7 596.0 611.5 596.0 C 600.3 596.0 591.2 605.1 591.2 616.3 C 591.2 627.5 600.3 636.6 611.5 636.6 C 622.7 636.6 631.8 627.5 631.8 616.3 Z M 631.8 616.3 " fill="#D8909A"></path><path d="M 682.4 616.3 C 682.4 605.1 673.3 596.0 662.1 596.0 C 650.9 596.0 641.8 605.1 641.8 616.3 C 641.8 627.5 650.9 636.6 662.1 636.6 C 673.3 636.6 682.4 627.5 682.4 616.3 Z M 682.4 616.3 " fill="#D49C54"></path><path d="M 733.1 616.3 C 733.1 605.1 724.0 596.0 712.8 596.0 C 701.6 596.0 692.5 605.1 692.5 616.3 C 692.5 627.5 701.6 636.6 712.8 636.6 C 724.0 636.6 733.1 627.5 733.1 616.3 Z M 733.1 616.3 " fill="#C39E1A"></path><path d="M 783.7 616.3 C 783.7 605.1 774.6 596.0 763.4 596.0 C 752.2 596.0 743.1 605.1 743.1 616.3 C 743.1 627.5 752.2 636.6 763.4 636.6 C 774.6 636.6 783.7 627.5 783.7 616.3 Z M 783.7 616.3 " fill="#C69A15"></path><path d="M 834.3 616.3 C 834.3 605.1 825.3 596.0 814.1 596.0 C 802.9 596.0 793.8 605.1 793.8 616.3 C 793.8 627.5 802.9 636.6 814.1 636.6 C 825.3 636.6 834.3 627.5 834.3 616.3 Z M 834.3 616.3 " fill="#56723D"></path><path d="M 885.0 616.3 C 885.0 605.1 875.9 596.0 864.7 596.0 C 853.5 596.0 844.4 605.1 844.4 616.3 C 844.4 627.5 853.5 636.6 864.7 636.6 C 875.9 636.6 885.0 627.5 885.0 616.3 Z M 885.0 616.3 " fill="#34A8A3"></path><path d="M 226.6 565.4 C 226.6 554.2 217.5 545.1 206.3 545.1 C 195.1 545.1 186.0 554.2 186.0 565.4 C 186.0 576.6 195.1 585.7 206.3 585.7 C 217.5 585.7 226.6 576.6 226.6 565.4 Z M 226.6 565.4 " fill="#4BAAA5"></path><path d="M 277.2 565.4 C 277.2 554.2 268.1 545.1 256.9 545.1 C 245.7 545.1 236.6 554.2 236.6 565.4 C 236.6 576.6 245.7 585.7 256.9 585.7 C 268.1 585.7 277.2 576.6 277.2 565.4 Z M 277.2 565.4 " fill="#97932F"></path><path d="M 327.9 565.4 C 327.9 554.2 318.8 545.1 307.6 545.1 C 296.4 545.1 287.3 554.2 287.3 565.4 C 287.3 576.6 296.4 585.7 307.6 585.7 C 318.8 585.7 327.9 576.6 327.9 565.4 Z M 327.9 565.4 " fill="#4D381F"></path><path d="M 378.5 565.4 C 378.5 554.2 369.4 545.1 358.2 545.1 C 347.0 545.1 337.9 554.2 337.9 565.4 C 337.9 576.6 347.0 585.7 358.2 585.7 C 369.4 585.7 378.5 576.6 378.5 565.4 Z M 378.5 565.4 " fill="#907B8C"></path><path d="M 429.2 565.4 C 429.2 554.2 420.1 545.1 408.9 545.1 C 397.7 545.1 388.6 554.2 388.6 565.4 C 388.6 576.6 397.7 585.7 408.9 585.7 C 420.1 585.7 429.2 576.6 429.2 565.4 Z M 429.2 565.4 " fill="#9A8991"></path><path d="M 479.8 565.4 C 479.8 554.2 470.7 545.1 459.5 545.1 C 448.3 545.1 439.2 554.2 439.2 565.4 C 439.2 576.6 448.3 585.7 459.5 585.7 C 470.7 585.7 479.8 576.6 479.8 565.4 Z M 479.8 565.4 " fill="#DD9EAE"></path><path d="M 530.5 565.4 C 530.5 554.2 521.4 545.1 510.2 545.1 C 499.0 545.1 489.9 554.2 489.9 565.4 C 489.9 576.6 499.0 585.7 510.2 585.7 C 521.4 585.7 530.5 576.6 530.5 565.4 Z M 530.5 565.4 " fill="#C19097"></path><path d="M 581.1 565.4 C 581.1 554.2 572.0 545.1 560.8 545.1 C 549.6 545.1 540.5 554.2 540.5 565.4 C 540.5 576.6 549.6 585.7 560.8 585.7 C 572.0 585.7 581.1 576.6 581.1 565.4 Z M 581.1 565.4 " fill="#93878E"></path><path d="M 631.8 565.4 C 631.8 554.2 622.7 545.1 611.5 545.1 C 600.3 545.1 591.2 554.2 591.2 565.4 C 591.2 576.6 600.3 585.7 611.5 585.7 C 622.7 585.7 631.8 576.6 631.8 565.4 Z M 631.8 565.4 " fill="#876469"></path><path d="M 682.4 565.4 C 682.4 554.2 673.3 545.1 662.1 545.1 C 650.9 545.1 641.8 554.2 641.8 565.4 C 641.8 576.6 650.9 585.7 662.1 585.7 C 673.3 585.7 682.4 576.6 682.4 565.4 Z M 682.4 565.4 " fill="#8E6B36"></path><path d="M 733.1 565.4 C 733.1 554.2 724.0 545.1 712.8 545.1 C 701.6 545.1 692.5 554.2 692.5 565.4 C 692.5 576.6 701.6 585.7 712.8 585.7 C 724.0 585.7 733.1 576.6 733.1 565.4 Z M 733.1 565.4 " fill="#AA871C"></path><path d="M 783.7 565.4 C 783.7 554.2 774.6 545.1 763.4 545.1 C 752.2 545.1 743.1 554.2 743.1 565.4 C 743.1 576.6 752.2 585.7 763.4 585.7 C 774.6 585.7 783.7 576.6 783.7 565.4 Z M 783.7 565.4 " fill="#99791D"></path><path d="M 834.3 565.4 C 834.3 554.2 825.3 545.1 814.1 545.1 C 802.9 545.1 793.8 554.2 793.8 565.4 C 793.8 576.6 802.9 585.7 814.1 585.7 C 825.3 585.7 834.3 576.6 834.3 565.4 Z M 834.3 565.4 " fill="#576D2F"></path><path d="M 885.0 565.4 C 885.0 554.2 875.9 545.1 864.7 545.1 C 853.5 545.1 844.4 554.2 844.4 565.4 C 844.4 576.6 853.5 585.7 864.7 585.7 C 875.9 585.7 885.0 576.6 885.0 565.4 Z M 885.0 565.4 " fill="#2FA7A1"></path><path d="M 226.6 514.6 C 226.6 503.4 217.5 494.3 206.3 494.3 C 195.1 494.3 186.0 503.4 186.0 514.6 C 186.0 525.8 195.1 534.8 206.3 534.8 C 217.5 534.8 226.6 525.8 226.6 514.6 Z M 226.6 514.6 " fill="#3DA5A5"></path><path d="M 277.2 514.6 C 277.2 503.4 268.1 494.3 256.9 494.3 C 245.7 494.3 236.6 503.4 236.6 514.6 C 236.6 525.8 245.7 534.8 256.9 534.8 C 268.1 534.8 277.2 525.8 277.2 514.6 Z M 277.2 514.6 " fill="#698542"></path><path d="M 327.9 514.6 C 327.9 503.4 318.8 494.3 307.6 494.3 C 296.4 494.3 287.3 503.4 287.3 514.6 C 287.3 525.8 296.4 534.8 307.6 534.8 C 318.8 534.8 327.9 525.8 327.9 514.6 Z M 327.9 514.6 " fill="#896728"></path><path d="M 378.5 514.6 C 378.5 503.4 369.4 494.3 358.2 494.3 C 347.0 494.3 337.9 503.4 337.9 514.6 C 337.9 525.8 347.0 534.8 358.2 534.8 C 369.4 534.8 378.5 525.8 378.5 514.6 Z M 378.5 514.6 " fill="#856772"></path><path d="M 429.2 514.6 C 429.2 503.4 420.1 494.3 408.9 494.3 C 397.7 494.3 388.6 503.4 388.6 514.6 C 388.6 525.8 397.7 534.8 408.9 534.8 C 420.1 534.8 429.2 525.8 429.2 514.6 Z M 429.2 514.6 " fill="#BC95A1"></path><path d="M 479.8 514.6 C 479.8 503.4 470.7 494.3 459.5 494.3 C 448.3 494.3 439.2 503.4 439.2 514.6 C 439.2 525.8 448.3 534.8 459.5 534.8 C 470.7 534.8 479.8 525.8 479.8 514.6 Z M 479.8 514.6 " fill="#DD9CAC"></path><path d="M 530.5 514.6 C 530.5 503.4 521.4 494.3 510.2 494.3 C 499.0 494.3 489.9 503.4 489.9 514.6 C 489.9 525.8 499.0 534.8 510.2 534.8 C 521.4 534.8 530.5 525.8 530.5 514.6 Z M 530.5 514.6 " fill="#CF9CA5"></path><path d="M 581.1 514.6 C 581.1 503.4 572.0 494.3 560.8 494.3 C 549.6 494.3 540.5 503.4 540.5 514.6 C 540.5 525.8 549.6 534.8 560.8 534.8 C 572.0 534.8 581.1 525.8 581.1 514.6 Z M 581.1 514.6 " fill="#74696D"></path><path d="M 631.8 514.6 C 631.8 503.4 622.7 494.3 611.5 494.3 C 600.3 494.3 591.2 503.4 591.2 514.6 C 591.2 525.8 600.3 534.8 611.5 534.8 C 622.7 534.8 631.8 525.8 631.8 514.6 Z M 631.8 514.6 " fill="#836B70"></path><path d="M 682.4 514.6 C 682.4 503.4 673.3 494.3 662.1 494.3 C 650.9 494.3 641.8 503.4 641.8 514.6 C 641.8 525.8 650.9 534.8 662.1 534.8 C 673.3 534.8 682.4 525.8 682.4 514.6 Z M 682.4 514.6 " fill="#A57E3B"></path><path d="M 733.1 514.6 C 733.1 503.4 724.0 494.3 712.8 494.3 C 701.6 494.3 692.5 503.4 692.5 514.6 C 692.5 525.8 701.6 534.8 712.8 534.8 C 724.0 534.8 733.1 525.8 733.1 514.6 Z M 733.1 514.6 " fill="#8E7921"></path><path d="M 783.7 514.6 C 783.7 503.4 774.6 494.3 763.4 494.3 C 752.2 494.3 743.1 503.4 743.1 514.6 C 743.1 525.8 752.2 534.8 763.4 534.8 C 774.6 534.8 783.7 525.8 783.7 514.6 Z M 783.7 514.6 " fill="#85671F"></path><path d="M 834.3 514.6 C 834.3 503.4 825.3 494.3 814.1 494.3 C 802.9 494.3 793.8 503.4 793.8 514.6 C 793.8 525.8 802.9 534.8 814.1 534.8 C 825.3 534.8 834.3 525.8 834.3 514.6 Z M 834.3 514.6 " fill="#386446"></path><path d="M 885.0 514.6 C 885.0 503.4 875.9 494.3 864.7 494.3 C 853.5 494.3 844.4 503.4 844.4 514.6 C 844.4 525.8 853.5 534.8 864.7 534.8 C 875.9 534.8 885.0 525.8 885.0 514.6 Z M 885.0 514.6 " fill="#34A5A3"></path><path d="M 226.6 463.7 C 226.6 452.5 217.5 443.4 206.3 443.4 C 195.1 443.4 186.0 452.5 186.0 463.7 C 186.0 474.9 195.1 484.0 206.3 484.0 C 217.5 484.0 226.6 474.9 226.6 463.7 Z M 226.6 463.7 " fill="#36AAA8"></path><path d="M 277.2 463.7 C 277.2 452.5 268.1 443.4 256.9 443.4 C 245.7 443.4 236.6 452.5 236.6 463.7 C 236.6 474.9 245.7 484.0 256.9 484.0 C 268.1 484.0 277.2 474.9 277.2 463.7 Z M 277.2 463.7 " fill="#69934B"></path><path d="M 327.9 463.7 C 327.9 452.5 318.8 443.4 307.6 443.4 C 296.4 443.4 287.3 452.5 287.3 463.7 C 287.3 474.9 296.4 484.0 307.6 484.0 C 318.8 484.0 327.9 474.9 327.9 463.7 Z M 327.9 463.7 " fill="#D89E3F"></path><path d="M 378.5 463.7 C 378.5 452.5 369.4 443.4 358.2 443.4 C 347.0 443.4 337.9 452.5 337.9 463.7 C 337.9 474.9 347.0 484.0 358.2 484.0 C 369.4 484.0 378.5 474.9 378.5 463.7 Z M 378.5 463.7 " fill="#E4A5BA"></path><path d="M 429.2 463.7 C 429.2 452.5 420.1 443.4 408.9 443.4 C 397.7 443.4 388.6 452.5 388.6 463.7 C 388.6 474.9 397.7 484.0 408.9 484.0 C 420.1 484.0 429.2 474.9 429.2 463.7 Z M 429.2 463.7 " fill="#DB95A3"></path><path d="M 479.8 463.7 C 479.8 452.5 470.7 443.4 459.5 443.4 C 448.3 443.4 439.2 452.5 439.2 463.7 C 439.2 474.9 448.3 484.0 459.5 484.0 C 470.7 484.0 479.8 474.9 479.8 463.7 Z M 479.8 463.7 " fill="#D48993"></path><path d="M 530.5 463.7 C 530.5 452.5 521.4 443.4 510.2 443.4 C 499.0 443.4 489.9 452.5 489.9 463.7 C 489.9 474.9 499.0 484.0 510.2 484.0 C 521.4 484.0 530.5 474.9 530.5 463.7 Z M 530.5 463.7 " fill="#DA909C"></path><path d="M 581.1 463.7 C 581.1 452.5 572.0 443.4 560.8 443.4 C 549.6 443.4 540.5 452.5 540.5 463.7 C 540.5 474.9 549.6 484.0 560.8 484.0 C 572.0 484.0 581.1 474.9 581.1 463.7 Z M 581.1 463.7 " fill="#DD9AA8"></path><path d="M 631.8 463.7 C 631.8 452.5 622.7 443.4 611.5 443.4 C 600.3 443.4 591.2 452.5 591.2 463.7 C 591.2 474.9 600.3 484.0 611.5 484.0 C 622.7 484.0 631.8 474.9 631.8 463.7 Z M 631.8 463.7 " fill="#CD858C"></path><path d="M 682.4 463.7 C 682.4 452.5 673.3 443.4 662.1 443.4 C 650.9 443.4 641.8 452.5 641.8 463.7 C 641.8 474.9 650.9 484.0 662.1 484.0 C 673.3 484.0 682.4 474.9 682.4 463.7 Z M 682.4 463.7 " fill="#594B1F"></path><path d="M 733.1 463.7 C 733.1 452.5 724.0 443.4 712.8 443.4 C 701.6 443.4 692.5 452.5 692.5 463.7 C 692.5 474.9 701.6 484.0 712.8 484.0 C 724.0 484.0 733.1 474.9 733.1 463.7 Z M 733.1 463.7 " fill="#91791F"></path><path d="M 783.7 463.7 C 783.7 452.5 774.6 443.4 763.4 443.4 C 752.2 443.4 743.1 452.5 743.1 463.7 C 743.1 474.9 752.2 484.0 763.4 484.0 C 774.6 484.0 783.7 474.9 783.7 463.7 Z M 783.7 463.7 " fill="#70501C"></path><path d="M 834.3 463.7 C 834.3 452.5 825.3 443.4 814.1 443.4 C 802.9 443.4 793.8 452.5 793.8 463.7 C 793.8 474.9 802.9 484.0 814.1 484.0 C 825.3 484.0 834.3 474.9 834.3 463.7 Z M 834.3 463.7 " fill="#3B795D"></path><path d="M 885.0 463.7 C 885.0 452.5 875.9 443.4 864.7 443.4 C 853.5 443.4 844.4 452.5 844.4 463.7 C 844.4 474.9 853.5 484.0 864.7 484.0 C 875.9 484.0 885.0 474.9 885.0 463.7 Z M 885.0 463.7 " fill="#2FA5A3"></path><path d="M 226.6 412.8 C 226.6 401.6 217.5 392.5 206.3 392.5 C 195.1 392.5 186.0 401.6 186.0 412.8 C 186.0 424.0 195.1 433.1 206.3 433.1 C 217.5 433.1 226.6 424.0 226.6 412.8 Z M 226.6 412.8 " fill="#28A3A1"></path><path d="M 277.2 412.8 C 277.2 401.6 268.1 392.5 256.9 392.5 C 245.7 392.5 236.6 401.6 236.6 412.8 C 236.6 424.0 245.7 433.1 256.9 433.1 C 268.1 433.1 277.2 424.0 277.2 412.8 Z M 277.2 412.8 " fill="#46A585"></path><path d="M 327.9 412.8 C 327.9 401.6 318.8 392.5 307.6 392.5 C 296.4 392.5 287.3 401.6 287.3 412.8 C 287.3 424.0 296.4 433.1 307.6 433.1 C 318.8 433.1 327.9 424.0 327.9 412.8 Z M 327.9 412.8 " fill="#6E5D26"></path><path d="M 378.5 412.8 C 378.5 401.6 369.4 392.5 358.2 392.5 C 347.0 392.5 337.9 401.6 337.9 412.8 C 337.9 424.0 347.0 433.1 358.2 433.1 C 369.4 433.1 378.5 424.0 378.5 412.8 Z M 378.5 412.8 " fill="#D88A97"></path><path d="M 429.2 412.8 C 429.2 401.6 420.1 392.5 408.9 392.5 C 397.7 392.5 388.6 401.6 388.6 412.8 C 388.6 424.0 397.7 433.1 408.9 433.1 C 420.1 433.1 429.2 424.0 429.2 412.8 Z M 429.2 412.8 " fill="#CF8390"></path><path d="M 479.8 412.8 C 479.8 401.6 470.7 392.5 459.5 392.5 C 448.3 392.5 439.2 401.6 439.2 412.8 C 439.2 424.0 448.3 433.1 459.5 433.1 C 470.7 433.1 479.8 424.0 479.8 412.8 Z M 479.8 412.8 " fill="#875457"></path><path d="M 530.5 412.8 C 530.5 401.6 521.4 392.5 510.2 392.5 C 499.0 392.5 489.9 401.6 489.9 412.8 C 489.9 424.0 499.0 433.1 510.2 433.1 C 521.4 433.1 530.5 424.0 530.5 412.8 Z M 530.5 412.8 " fill="#CD8590"></path><path d="M 581.1 412.8 C 581.1 401.6 572.0 392.5 560.8 392.5 C 549.6 392.5 540.5 401.6 540.5 412.8 C 540.5 424.0 549.6 433.1 560.8 433.1 C 572.0 433.1 581.1 424.0 581.1 412.8 Z M 581.1 412.8 " fill="#DB939E"></path><path d="M 631.8 412.8 C 631.8 401.6 622.7 392.5 611.5 392.5 C 600.3 392.5 591.2 401.6 591.2 412.8 C 591.2 424.0 600.3 433.1 611.5 433.1 C 622.7 433.1 631.8 424.0 631.8 412.8 Z M 631.8 412.8 " fill="#724D4D"></path><path d="M 682.4 412.8 C 682.4 401.6 673.3 392.5 662.1 392.5 C 650.9 392.5 641.8 401.6 641.8 412.8 C 641.8 424.0 650.9 433.1 662.1 433.1 C 673.3 433.1 682.4 424.0 682.4 412.8 Z M 682.4 412.8 " fill="#1F1A15"></path><path d="M 733.1 412.8 C 733.1 401.6 724.0 392.5 712.8 392.5 C 701.6 392.5 692.5 401.6 692.5 412.8 C 692.5 424.0 701.6 433.1 712.8 433.1 C 724.0 433.1 733.1 424.0 733.1 412.8 Z M 733.1 412.8 " fill="#83671D"></path><path d="M 783.7 412.8 C 783.7 401.6 774.6 392.5 763.4 392.5 C 752.2 392.5 743.1 401.6 743.1 412.8 C 743.1 424.0 752.2 433.1 763.4 433.1 C 774.6 433.1 783.7 424.0 783.7 412.8 Z M 783.7 412.8 " fill="#3D2B14"></path><path d="M 834.3 412.8 C 834.3 401.6 825.3 392.5 814.1 392.5 C 802.9 392.5 793.8 401.6 793.8 412.8 C 793.8 424.0 802.9 433.1 814.1 433.1 C 825.3 433.1 834.3 424.0 834.3 412.8 Z M 834.3 412.8 " fill="#1C6256"></path><path d="M 885.0 412.8 C 885.0 401.6 875.9 392.5 864.7 392.5 C 853.5 392.5 844.4 401.6 844.4 412.8 C 844.4 424.0 853.5 433.1 864.7 433.1 C 875.9 433.1 885.0 424.0 885.0 412.8 Z M 885.0 412.8 " fill="#2FA7A3"></path><path d="M 226.6 361.9 C 226.6 350.7 217.5 341.6 206.3 341.6 C 195.1 341.6 186.0 350.7 186.0 361.9 C 186.0 373.1 195.1 382.2 206.3 382.2 C 217.5 382.2 226.6 373.1 226.6 361.9 Z M 226.6 361.9 " fill="#149E95"></path><path d="M 277.2 361.9 C 277.2 350.7 268.1 341.6 256.9 341.6 C 245.7 341.6 236.6 350.7 236.6 361.9 C 236.6 373.1 245.7 382.2 256.9 382.2 C 268.1 382.2 277.2 373.1 277.2 361.9 Z M 277.2 361.9 " fill="#28A399"></path><path d="M 327.9 361.9 C 327.9 350.7 318.8 341.6 307.6 341.6 C 296.4 341.6 287.3 350.7 287.3 361.9 C 287.3 373.1 296.4 382.2 307.6 382.2 C 318.8 382.2 327.9 373.1 327.9 361.9 Z M 327.9 361.9 " fill="#3D4B33"></path><path d="M 378.5 361.9 C 378.5 350.7 369.4 341.6 358.2 341.6 C 347.0 341.6 337.9 350.7 337.9 361.9 C 337.9 373.1 347.0 382.2 358.2 382.2 C 369.4 382.2 378.5 373.1 378.5 361.9 Z M 378.5 361.9 " fill="#BC7077"></path><path d="M 429.2 361.9 C 429.2 350.7 420.1 341.6 408.9 341.6 C 397.7 341.6 388.6 350.7 388.6 361.9 C 388.6 373.1 397.7 382.2 408.9 382.2 C 420.1 382.2 429.2 373.1 429.2 361.9 Z M 429.2 361.9 " fill="#794D4B"></path><path d="M 479.8 361.9 C 479.8 350.7 470.7 341.6 459.5 341.6 C 448.3 341.6 439.2 350.7 439.2 361.9 C 439.2 373.1 448.3 382.2 459.5 382.2 C 470.7 382.2 479.8 373.1 479.8 361.9 Z M 479.8 361.9 " fill="#826659"></path><path d="M 530.5 361.9 C 530.5 350.7 521.4 341.6 510.2 341.6 C 499.0 341.6 489.9 350.7 489.9 361.9 C 489.9 373.1 499.0 382.2 510.2 382.2 C 521.4 382.2 530.5 373.1 530.5 361.9 Z M 530.5 361.9 " fill="#744B4D"></path><path d="M 581.1 361.9 C 581.1 350.7 572.0 341.6 560.8 341.6 C 549.6 341.6 540.5 350.7 540.5 361.9 C 540.5 373.1 549.6 382.2 560.8 382.2 C 572.0 382.2 581.1 373.1 581.1 361.9 Z M 581.1 361.9 " fill="#DA8C9A"></path><path d="M 631.8 361.9 C 631.8 350.7 622.7 341.6 611.5 341.6 C 600.3 341.6 591.2 350.7 591.2 361.9 C 591.2 373.1 600.3 382.2 611.5 382.2 C 622.7 382.2 631.8 373.1 631.8 361.9 Z M 631.8 361.9 " fill="#79524B"></path><path d="M 682.4 361.9 C 682.4 350.7 673.3 341.6 662.1 341.6 C 650.9 341.6 641.8 350.7 641.8 361.9 C 641.8 373.1 650.9 382.2 662.1 382.2 C 673.3 382.2 682.4 373.1 682.4 361.9 Z M 682.4 361.9 " fill="#1C1417"></path><path d="M 733.1 361.9 C 733.1 350.7 724.0 341.6 712.8 341.6 C 701.6 341.6 692.5 350.7 692.5 361.9 C 692.5 373.1 701.6 382.2 712.8 382.2 C 724.0 382.2 733.1 373.1 733.1 361.9 Z M 733.1 361.9 " fill="#1F1414"></path><path d="M 783.7 361.9 C 783.7 350.7 774.6 341.6 763.4 341.6 C 752.2 341.6 743.1 350.7 743.1 361.9 C 743.1 373.1 752.2 382.2 763.4 382.2 C 774.6 382.2 783.7 373.1 783.7 361.9 Z M 783.7 361.9 " fill="#17443B"></path><path d="M 834.3 361.9 C 834.3 350.7 825.3 341.6 814.1 341.6 C 802.9 341.6 793.8 350.7 793.8 361.9 C 793.8 373.1 802.9 382.2 814.1 382.2 C 825.3 382.2 834.3 373.1 834.3 361.9 Z M 834.3 361.9 " fill="#1AA095"></path><path d="M 885.0 361.9 C 885.0 350.7 875.9 341.6 864.7 341.6 C 853.5 341.6 844.4 350.7 844.4 361.9 C 844.4 373.1 853.5 382.2 864.7 382.2 C 875.9 382.2 885.0 373.1 885.0 361.9 Z M 885.0 361.9 " fill="#1FA59E"></path><path d="M 226.6 311.0 C 226.6 299.8 217.5 290.8 206.3 290.8 C 195.1 290.8 186.0 299.8 186.0 311.0 C 186.0 322.3 195.1 331.3 206.3 331.3 C 217.5 331.3 226.6 322.3 226.6 311.0 Z M 226.6 311.0 " fill="#0A9A90"></path><path d="M 277.2 311.0 C 277.2 299.8 268.1 290.8 256.9 290.8 C 245.7 290.8 236.6 299.8 236.6 311.0 C 236.6 322.3 245.7 331.3 256.9 331.3 C 268.1 331.3 277.2 322.3 277.2 311.0 Z M 277.2 311.0 " fill="#1FA39A"></path><path d="M 327.9 311.0 C 327.9 299.8 318.8 290.8 307.6 290.8 C 296.4 290.8 287.3 299.8 287.3 311.0 C 287.3 322.3 296.4 331.3 307.6 331.3 C 318.8 331.3 327.9 322.3 327.9 311.0 Z M 327.9 311.0 " fill="#217059"></path><path d="M 378.5 311.0 C 378.5 299.8 369.4 290.8 358.2 290.8 C 347.0 290.8 337.9 299.8 337.9 311.0 C 337.9 322.3 347.0 331.3 358.2 331.3 C 369.4 331.3 378.5 322.3 378.5 311.0 Z M 378.5 311.0 " fill="#824F4B"></path><path d="M 429.2 311.0 C 429.2 299.8 420.1 290.8 408.9 290.8 C 397.7 290.8 388.6 299.8 388.6 311.0 C 388.6 322.3 397.7 331.3 408.9 331.3 C 420.1 331.3 429.2 322.3 429.2 311.0 Z M 429.2 311.0 " fill="#9E6262"></path><path d="M 479.8 311.0 C 479.8 299.8 470.7 290.8 459.5 290.8 C 448.3 290.8 439.2 299.8 439.2 311.0 C 439.2 322.3 448.3 331.3 459.5 331.3 C 470.7 331.3 479.8 322.3 479.8 311.0 Z M 479.8 311.0 " fill="#804D4B"></path><path d="M 530.5 311.0 C 530.5 299.8 521.4 290.8 510.2 290.8 C 499.0 290.8 489.9 299.8 489.9 311.0 C 489.9 322.3 499.0 331.3 510.2 331.3 C 521.4 331.3 530.5 322.3 530.5 311.0 Z M 530.5 311.0 " fill="#BA797E"></path><path d="M 581.1 311.0 C 581.1 299.8 572.0 290.8 560.8 290.8 C 549.6 290.8 540.5 299.8 540.5 311.0 C 540.5 322.3 549.6 331.3 560.8 331.3 C 572.0 331.3 581.1 322.3 581.1 311.0 Z M 581.1 311.0 " fill="#C88082"></path><path d="M 631.8 311.0 C 631.8 299.8 622.7 290.8 611.5 290.8 C 600.3 290.8 591.2 299.8 591.2 311.0 C 591.2 322.3 600.3 331.3 611.5 331.3 C 622.7 331.3 631.8 322.3 631.8 311.0 Z M 631.8 311.0 " fill="#422D28"></path><path d="M 682.4 311.0 C 682.4 299.8 673.3 290.8 662.1 290.8 C 650.9 290.8 641.8 299.8 641.8 311.0 C 641.8 322.3 650.9 331.3 662.1 331.3 C 673.3 331.3 682.4 322.3 682.4 311.0 Z M 682.4 311.0 " fill="#0E0E0A"></path><path d="M 733.1 311.0 C 733.1 299.8 724.0 290.8 712.8 290.8 C 701.6 290.8 692.5 299.8 692.5 311.0 C 692.5 322.3 701.6 331.3 712.8 331.3 C 724.0 331.3 733.1 322.3 733.1 311.0 Z M 733.1 311.0 " fill="#142321"></path><path d="M 783.7 311.0 C 783.7 299.8 774.6 290.8 763.4 290.8 C 752.2 290.8 743.1 299.8 743.1 311.0 C 743.1 322.3 752.2 331.3 763.4 331.3 C 774.6 331.3 783.7 322.3 783.7 311.0 Z M 783.7 311.0 " fill="#179E93"></path><path d="M 834.3 311.0 C 834.3 299.8 825.3 290.8 814.1 290.8 C 802.9 290.8 793.8 299.8 793.8 311.0 C 793.8 322.3 802.9 331.3 814.1 331.3 C 825.3 331.3 834.3 322.3 834.3 311.0 Z M 834.3 311.0 " fill="#1CA39C"></path><path d="M 885.0 311.0 C 885.0 299.8 875.9 290.8 864.7 290.8 C 853.5 290.8 844.4 299.8 844.4 311.0 C 844.4 322.3 853.5 331.3 864.7 331.3 C 875.9 331.3 885.0 322.3 885.0 311.0 Z M 885.0 311.0 " fill="#0B9A93"></path><path d="M 226.6 260.2 C 226.6 249.0 217.5 239.9 206.3 239.9 C 195.1 239.9 186.0 249.0 186.0 260.2 C 186.0 271.4 195.1 280.5 206.3 280.5 C 217.5 280.5 226.6 271.4 226.6 260.2 Z M 226.6 260.2 " fill="#158C83"></path><path d="M 277.2 260.2 C 277.2 249.0 268.1 239.9 256.9 239.9 C 245.7 239.9 236.6 249.0 236.6 260.2 C 236.6 271.4 245.7 280.5 256.9 280.5 C 268.1 280.5 277.2 271.4 277.2 260.2 Z M 277.2 260.2 " fill="#0B9A90"></path><path d="M 327.9 260.2 C 327.9 249.0 318.8 239.9 307.6 239.9 C 296.4 239.9 287.3 249.0 287.3 260.2 C 287.3 271.4 296.4 280.5 307.6 280.5 C 318.8 280.5 327.9 271.4 327.9 260.2 Z M 327.9 260.2 " fill="#149A8C"></path><path d="M 378.5 260.2 C 378.5 249.0 369.4 239.9 358.2 239.9 C 347.0 239.9 337.9 249.0 337.9 260.2 C 337.9 271.4 347.0 280.5 358.2 280.5 C 369.4 280.5 378.5 271.4 378.5 260.2 Z M 378.5 260.2 " fill="#346044"></path><path d="M 429.2 260.2 C 429.2 249.0 420.1 239.9 408.9 239.9 C 397.7 239.9 388.6 249.0 388.6 260.2 C 388.6 271.4 397.7 280.5 408.9 280.5 C 420.1 280.5 429.2 271.4 429.2 260.2 Z M 429.2 260.2 " fill="#A36769"></path><path d="M 479.8 260.2 C 479.8 249.0 470.7 239.9 459.5 239.9 C 448.3 239.9 439.2 249.0 439.2 260.2 C 439.2 271.4 448.3 280.5 459.5 280.5 C 470.7 280.5 479.8 271.4 479.8 260.2 Z M 479.8 260.2 " fill="#CF838E"></path><path d="M 530.5 260.2 C 530.5 249.0 521.4 239.9 510.2 239.9 C 499.0 239.9 489.9 249.0 489.9 260.2 C 489.9 271.4 499.0 280.5 510.2 280.5 C 521.4 280.5 530.5 271.4 530.5 260.2 Z M 530.5 260.2 " fill="#AA7070"></path><path d="M 581.1 260.2 C 581.1 249.0 572.0 239.9 560.8 239.9 C 549.6 239.9 540.5 249.0 540.5 260.2 C 540.5 271.4 549.6 280.5 560.8 280.5 C 572.0 280.5 581.1 271.4 581.1 260.2 Z M 581.1 260.2 " fill="#332321"></path><path d="M 631.8 260.2 C 631.8 249.0 622.7 239.9 611.5 239.9 C 600.3 239.9 591.2 249.0 591.2 260.2 C 591.2 271.4 600.3 280.5 611.5 280.5 C 622.7 280.5 631.8 271.4 631.8 260.2 Z M 631.8 260.2 " fill="#0D1111"></path><path d="M 682.4 260.2 C 682.4 249.0 673.3 239.9 662.1 239.9 C 650.9 239.9 641.8 249.0 641.8 260.2 C 641.8 271.4 650.9 280.5 662.1 280.5 C 673.3 280.5 682.4 271.4 682.4 260.2 Z M 682.4 260.2 " fill="#1F6E62"></path><path d="M 733.1 260.2 C 733.1 249.0 724.0 239.9 712.8 239.9 C 701.6 239.9 692.5 249.0 692.5 260.2 C 692.5 271.4 701.6 280.5 712.8 280.5 C 724.0 280.5 733.1 271.4 733.1 260.2 Z M 733.1 260.2 " fill="#1F6D5E"></path><path d="M 783.7 260.2 C 783.7 249.0 774.6 239.9 763.4 239.9 C 752.2 239.9 743.1 249.0 743.1 260.2 C 743.1 271.4 752.2 280.5 763.4 280.5 C 774.6 280.5 783.7 271.4 783.7 260.2 Z M 783.7 260.2 " fill="#14938A"></path><path d="M 834.3 260.2 C 834.3 249.0 825.3 239.9 814.1 239.9 C 802.9 239.9 793.8 249.0 793.8 260.2 C 793.8 271.4 802.9 280.5 814.1 280.5 C 825.3 280.5 834.3 271.4 834.3 260.2 Z M 834.3 260.2 " fill="#08958C"></path><path d="M 885.0 260.2 C 885.0 249.0 875.9 239.9 864.7 239.9 C 853.5 239.9 844.4 249.0 844.4 260.2 C 844.4 271.4 853.5 280.5 864.7 280.5 C 875.9 280.5 885.0 271.4 885.0 260.2 Z M 885.0 260.2 " fill="#0B938C"></path><path d="M 226.6 209.3 C 226.6 198.1 217.5 189.0 206.3 189.0 C 195.1 189.0 186.0 198.1 186.0 209.3 C 186.0 220.5 195.1 229.6 206.3 229.6 C 217.5 229.6 226.6 220.5 226.6 209.3 Z M 226.6 209.3 " fill="#188079"></path><path d="M 277.2 209.3 C 277.2 198.1 268.1 189.0 256.9 189.0 C 245.7 189.0 236.6 198.1 236.6 209.3 C 236.6 220.5 245.7 229.6 256.9 229.6 C 268.1 229.6 277.2 220.5 277.2 209.3 Z M 277.2 209.3 " fill="#179089"></path><path d="M 327.9 209.3 C 327.9 198.1 318.8 189.0 307.6 189.0 C 296.4 189.0 287.3 198.1 287.3 209.3 C 287.3 220.5 296.4 229.6 307.6 229.6 C 318.8 229.6 327.9 220.5 327.9 209.3 Z M 327.9 209.3 " fill="#11978E"></path><path d="M 378.5 209.3 C 378.5 198.1 369.4 189.0 358.2 189.0 C 347.0 189.0 337.9 198.1 337.9 209.3 C 337.9 220.5 347.0 229.6 358.2 229.6 C 369.4 229.6 378.5 220.5 378.5 209.3 Z M 378.5 209.3 " fill="#178A7E"></path><path d="M 429.2 209.3 C 429.2 198.1 420.1 189.0 408.9 189.0 C 397.7 189.0 388.6 198.1 388.6 209.3 C 388.6 220.5 397.7 229.6 408.9 229.6 C 420.1 229.6 429.2 220.5 429.2 209.3 Z M 429.2 209.3 " fill="#1A1A17"></path><path d="M 479.8 209.3 C 479.8 198.1 470.7 189.0 459.5 189.0 C 448.3 189.0 439.2 198.1 439.2 209.3 C 439.2 220.5 448.3 229.6 459.5 229.6 C 470.7 229.6 479.8 220.5 479.8 209.3 Z M 479.8 209.3 " fill="#141112"></path><path d="M 530.5 209.3 C 530.5 198.1 521.4 189.0 510.2 189.0 C 499.0 189.0 489.9 198.1 489.9 209.3 C 489.9 220.5 499.0 229.6 510.2 229.6 C 521.4 229.6 530.5 220.5 530.5 209.3 Z M 530.5 209.3 " fill="#0D0D0D"></path><path d="M 581.1 209.3 C 581.1 198.1 572.0 189.0 560.8 189.0 C 549.6 189.0 540.5 198.1 540.5 209.3 C 540.5 220.5 549.6 229.6 560.8 229.6 C 572.0 229.6 581.1 220.5 581.1 209.3 Z M 581.1 209.3 " fill="#422A26"></path><path d="M 631.8 209.3 C 631.8 198.1 622.7 189.0 611.5 189.0 C 600.3 189.0 591.2 198.1 591.2 209.3 C 591.2 220.5 600.3 229.6 611.5 229.6 C 622.7 229.6 631.8 220.5 631.8 209.3 Z M 631.8 209.3 " fill="#755B57"></path><path d="M 682.4 209.3 C 682.4 198.1 673.3 189.0 662.1 189.0 C 650.9 189.0 641.8 198.1 641.8 209.3 C 641.8 220.5 650.9 229.6 662.1 229.6 C 673.3 229.6 682.4 220.5 682.4 209.3 Z M 682.4 209.3 " fill="#1A8E80"></path><path d="M 733.1 209.3 C 733.1 198.1 724.0 189.0 712.8 189.0 C 701.6 189.0 692.5 198.1 692.5 209.3 C 692.5 220.5 701.6 229.6 712.8 229.6 C 724.0 229.6 733.1 220.5 733.1 209.3 Z M 733.1 209.3 " fill="#148E85"></path><path d="M 783.7 209.3 C 783.7 198.1 774.6 189.0 763.4 189.0 C 752.2 189.0 743.1 198.1 743.1 209.3 C 743.1 220.5 752.2 229.6 763.4 229.6 C 774.6 229.6 783.7 220.5 783.7 209.3 Z M 783.7 209.3 " fill="#188E82"></path><path d="M 834.3 209.3 C 834.3 198.1 825.3 189.0 814.1 189.0 C 802.9 189.0 793.8 198.1 793.8 209.3 C 793.8 220.5 802.9 229.6 814.1 229.6 C 825.3 229.6 834.3 220.5 834.3 209.3 Z M 834.3 209.3 " fill="#1A9083"></path><path d="M 885.0 209.3 C 885.0 198.1 875.9 189.0 864.7 189.0 C 853.5 189.0 844.4 198.1 844.4 209.3 C 844.4 220.5 853.5 229.6 864.7 229.6 C 875.9 229.6 885.0 220.5 885.0 209.3 Z M 885.0 209.3 " fill="#1A9083"></path></g></g><text xml:space="preserve" font-family="HelveticaNeue" font-size="34.0" fill="#000000" transform="matrix(1.00, 0.00, -0.00, -1.00, 977.0, 350.0)">R</text><text xml:space="preserve" font-family="HelveticaNeue" font-size="34.0" fill="#000000" transform="matrix(1.00, 0.00, -0.00, -1.00, 1000.3, 350.0)">O</text><text xml:space="preserve" font-family="HelveticaNeue" font-size="34.0" fill="#000000" transform="matrix(1.00, 0.00, -0.00, -1.00, 1026.1, 350.0)">B</text><text xml:space="preserve" font-family="HelveticaNeue" font-size="34.0" fill="#000000" transform="matrix(1.00, 0.00, -0.00, -1.00, 1049.4, 350.0)">E</text><text xml:space="preserve" font-family="HelveticaNeue" font-size="34.0" fill="#000000" transform="matrix(1.00, 0.00, -0.00, -1.00, 1070.2, 350.0)">R</text><text xml:space="preserve" font-family="HelveticaNeue" font-size="34.0" fill="#000000" transform="matrix(1.00, 0.00, -0.00, -1.00, 1092.9, 350.0)">T</text><text xml:space="preserve" font-family="HelveticaNeue" font-size="34.0" fill="#000000" transform="matrix(1.00, 0.00, -0.00, -1.00, 1112.4, 350.0)">O</text><text xml:space="preserve" font-family="HelveticaNeue" font-size="34.0" fill="#000000" transform="matrix(1.00, 0.00, -0.00, -1.00, 1138.2, 350.0)"> </text><text xml:space="preserve" font-family="HelveticaNeue" font-size="34.0" fill="#000000" transform="matrix(1.00, 0.00, -0.00, -1.00, 1147.7, 350.0)">T</text><text xml:space="preserve" font-family="HelveticaNeue" font-size="34.0" fill="#000000" transform="matrix(1.00, 0.00, -0.00, -1.00, 1167.2, 350.0)">O</text><text xml:space="preserve" font-family="HelveticaNeue" font-size="34.0" fill="#000000" transform="matrix(1.00, 0.00, -0.00, -1.00, 1193.0, 350.0)">R</text><text xml:space="preserve" font-family="HelveticaNeue" font-size="34.0" fill="#000000" transform="matrix(1.00, 0.00, -0.00, -1.00, 1216.3, 350.0)">O</text><text xml:space="preserve" font-family="HelveticaNeue" font-size="34.0" fill="#000000" transform="matrix(1.00, 0.00, -0.00, -1.00, 1242.2, 350.0)"> </text><text xml:space="preserve" font-family="HelveticaNeue" font-size="34.0" fill="#000000" transform="matrix(1.00, 0.00, -0.00, -1.00, 1251.6, 350.0)">•</text><text xml:space="preserve" font-family="HelveticaNeue" font-size="34.0" fill="#000000" transform="matrix(1.00, 0.00, -0.00, -1.00, 1263.5, 350.0)"> </text><text xml:space="preserve" font-family="HelveticaNeue" font-size="34.0" fill="#000000" transform="matrix(1.00, 0.00, -0.00, -1.00, 1273.0, 350.0)">I</text><text xml:space="preserve" font-family="HelveticaNeue" font-size="34.0" fill="#000000" transform="matrix(1.00, 0.00, -0.00, -1.00, 1281.8, 350.0)">N</text><text xml:space="preserve" font-family="HelveticaNeue" font-size="34.0" fill="#000000" transform="matrix(1.00, 0.00, -0.00, -1.00, 1306.3, 350.0)">S</text><text xml:space="preserve" font-family="HelveticaNeue" font-size="34.0" fill="#000000" transform="matrix(1.00, 0.00, -0.00, -1.00, 1328.4, 350.0)">T</text><text xml:space="preserve" font-family="HelveticaNeue" font-size="34.0" fill="#000000" transform="matrix(1.00, 0.00, -0.00, -1.00, 1347.9, 350.0)">I</text><text xml:space="preserve" font-family="HelveticaNeue" font-size="34.0" fill="#000000" transform="matrix(1.00, 0.00, -0.00, -1.00, 1356.7, 350.0)">T</text><text xml:space="preserve" font-family="HelveticaNeue" font-size="34.0" fill="#000000" transform="matrix(1.00, 0.00, -0.00, -1.00, 1376.2, 350.0)">U</text><text xml:space="preserve" font-family="HelveticaNeue" font-size="34.0" fill="#000000" transform="matrix(1.00, 0.00, -0.00, -1.00, 1400.7, 350.0)">T</text><text xml:space="preserve" font-family="HelveticaNeue" font-size="34.0" fill="#000000" transform="matrix(1.00, 0.00, -0.00, -1.00, 1420.3, 350.0)"> </text><text xml:space="preserve" font-family="HelveticaNeue" font-size="34.0" fill="#000000" transform="matrix(1.00, 0.00, -0.00, -1.00, 1429.7, 350.0)">P</text><text xml:space="preserve" font-family="HelveticaNeue" font-size="34.0" fill="#000000" transform="matrix(1.00, 0.00, -0.00, -1.00, 1449.2, 350.0)">A</text><text xml:space="preserve" font-family="HelveticaNeue" font-size="34.0" fill="#000000" transform="matrix(1.00, 0.00, -0.00, -1.00, 1471.3, 350.0)">S</text><text xml:space="preserve" font-family="HelveticaNeue" font-size="34.0" fill="#000000" transform="matrix(1.00, 0.00, -0.00, -1.00, 1493.3, 350.0)">T</text><text xml:space="preserve" font-family="HelveticaNeue" font-size="34.0" fill="#000000" transform="matrix(1.00, 0.00, -0.00, -1.00, 1512.8, 350.0)">E</text><text xml:space="preserve" font-family="HelveticaNeue" font-size="34.0" fill="#000000" transform="matrix(1.00, 0.00, -0.00, -1.00, 1533.6, 350.0)">U</text><text xml:space="preserve" font-family="HelveticaNeue" font-size="34.0" fill="#000000" transform="matrix(1.00, 0.00, -0.00, -1.00, 1558.1, 350.0)">R</text><text xml:space="preserve" font-family="HelveticaNeue" font-size="34.0" fill="#000000" transform="matrix(1.00, 0.00, -0.00, -1.00, 1581.4, 350.0)"> </text><text xml:space="preserve" font-family="HelveticaNeue" font-size="34.0" fill="#000000" transform="matrix(1.00, 0.00, -0.00, -1.00, 1590.9, 350.0)">•</text><text xml:space="preserve" font-family="HelveticaNeue" font-size="34.0" fill="#000000" transform="matrix(1.00, 0.00, -0.00, -1.00, 1602.8, 350.0)"> </text><text xml:space="preserve" font-family="HelveticaNeue" font-size="34.0" fill="#000000" transform="matrix(1.00, 0.00, -0.00, -1.00, 1612.2, 350.0)">F</text><text xml:space="preserve" font-family="HelveticaNeue" font-size="34.0" fill="#000000" transform="matrix(1.00, 0.00, -0.00, -1.00, 1631.7, 350.0)">R</text><text xml:space="preserve" font-family="HelveticaNeue" font-size="34.0" fill="#000000" transform="matrix(1.00, 0.00, -0.00, -1.00, 1655.0, 350.0)">A</text><text xml:space="preserve" font-family="HelveticaNeue" font-size="34.0" fill="#000000" transform="matrix(1.00, 0.00, -0.00, -1.00, 1677.1, 350.0)">N</text><text xml:space="preserve" font-family="HelveticaNeue" font-size="34.0" fill="#000000" transform="matrix(1.00, 0.00, -0.00, -1.00, 1701.6, 350.0)">C</text><text xml:space="preserve" font-family="HelveticaNeue" font-size="34.0" fill="#000000" transform="matrix(1.00, 0.00, -0.00, -1.00, 1726.2, 350.0)">E</text><path d="M 0.0 0.0 L 771.1 0.0 " fill="none" stroke="#000000" stroke-width="2.00" transform="matrix(1.00, 0.00, 0.00, -1.00, 976.2, 330.6)"></path><text xml:space="preserve" font-family="HelveticaNeue-CondensedBold" font-weight="bold" font-size="60.0" fill="#000000" transform="matrix(1.00, 0.00, -0.00, -1.00, 974.0, 267.0)">P</text><text xml:space="preserve" font-family="HelveticaNeue-CondensedBold" font-weight="bold" font-size="60.0" fill="#000000" transform="matrix(1.00, 0.00, -0.00, -1.00, 1004.1, 267.0)">o</text><text xml:space="preserve" font-family="HelveticaNeue-CondensedBold" font-weight="bold" font-size="60.0" fill="#000000" transform="matrix(1.00, 0.00, -0.00, -1.00, 1032.9, 267.0)">l</text><text xml:space="preserve" font-family="HelveticaNeue-CondensedBold" font-weight="bold" font-size="60.0" fill="#000000" transform="matrix(1.00, 0.00, -0.00, -1.00, 1047.3, 267.0)">y</text><text xml:space="preserve" font-family="HelveticaNeue-CondensedBold" font-weight="bold" font-size="60.0" fill="#000000" transform="matrix(1.00, 0.00, -0.00, -1.00, 1073.9, 267.0)">g</text><text xml:space="preserve" font-family="HelveticaNeue-CondensedBold" font-weight="bold" font-size="60.0" fill="#000000" transform="matrix(1.00, 0.00, -0.00, -1.00, 1103.9, 267.0)">e</text><text xml:space="preserve" font-family="HelveticaNeue-CondensedBold" font-weight="bold" font-size="60.0" fill="#000000" transform="matrix(1.00, 0.00, -0.00, -1.00, 1131.7, 267.0)">n</text><text xml:space="preserve" font-family="HelveticaNeue-CondensedBold" font-weight="bold" font-size="60.0" fill="#000000" transform="matrix(1.00, 0.00, -0.00, -1.00, 1161.7, 267.0)">i</text><text xml:space="preserve" font-family="HelveticaNeue-CondensedBold" font-weight="bold" font-size="60.0" fill="#000000" transform="matrix(1.00, 0.00, -0.00, -1.00, 1176.1, 267.0)">c</text><text xml:space="preserve" font-family="HelveticaNeue-CondensedBold" font-weight="bold" font-size="60.0" fill="#000000" transform="matrix(1.00, 0.00, -0.00, -1.00, 1203.9, 267.0)"> </text><text xml:space="preserve" font-family="HelveticaNeue-CondensedBold" font-weight="bold" font-size="60.0" fill="#000000" transform="matrix(1.00, 0.00, -0.00, -1.00, 1218.3, 267.0)">c</text><text xml:space="preserve" font-family="HelveticaNeue-CondensedBold" font-weight="bold" font-size="60.0" fill="#000000" transform="matrix(1.00, 0.00, -0.00, -1.00, 1246.0, 267.0)">o</text><text xml:space="preserve" font-family="HelveticaNeue-CondensedBold" font-weight="bold" font-size="60.0" fill="#000000" transform="matrix(1.00, 0.00, -0.00, -1.00, 1274.8, 267.0)">n</text><text xml:space="preserve" font-family="HelveticaNeue-CondensedBold" font-weight="bold" font-size="60.0" fill="#000000" transform="matrix(1.00, 0.00, -0.00, -1.00, 1304.8, 267.0)">t</text><text xml:space="preserve" font-family="HelveticaNeue-CondensedBold" font-weight="bold" font-size="60.0" fill="#000000" transform="matrix(1.00, 0.00, -0.00, -1.00, 1322.6, 267.0)">r</text><text xml:space="preserve" font-family="HelveticaNeue-CondensedBold" font-weight="bold" font-size="60.0" fill="#000000" transform="matrix(1.00, 0.00, -0.00, -1.00, 1342.6, 267.0)">i</text><text xml:space="preserve" font-family="HelveticaNeue-CondensedBold" font-weight="bold" font-size="60.0" fill="#000000" transform="matrix(1.00, 0.00, -0.00, -1.00, 1357.0, 267.0)">b</text><text xml:space="preserve" font-family="HelveticaNeue-CondensedBold" font-weight="bold" font-size="60.0" fill="#000000" transform="matrix(1.00, 0.00, -0.00, -1.00, 1387.0, 267.0)">u</text><text xml:space="preserve" font-family="HelveticaNeue-CondensedBold" font-weight="bold" font-size="60.0" fill="#000000" transform="matrix(1.00, 0.00, -0.00, -1.00, 1417.0, 267.0)">t</text><text xml:space="preserve" font-family="HelveticaNeue-CondensedBold" font-weight="bold" font-size="60.0" fill="#000000" transform="matrix(1.00, 0.00, -0.00, -1.00, 1434.7, 267.0)">i</text><text xml:space="preserve" font-family="HelveticaNeue-CondensedBold" font-weight="bold" font-size="60.0" fill="#000000" transform="matrix(1.00, 0.00, -0.00, -1.00, 1449.1, 267.0)">o</text><text xml:space="preserve" font-family="HelveticaNeue-CondensedBold" font-weight="bold" font-size="60.0" fill="#000000" transform="matrix(1.00, 0.00, -0.00, -1.00, 1477.9, 267.0)">n</text><text xml:space="preserve" font-family="HelveticaNeue-CondensedBold" font-weight="bold" font-size="60.0" fill="#000000" transform="matrix(1.00, 0.00, -0.00, -1.00, 1507.9, 267.0)"> </text><text xml:space="preserve" font-family="HelveticaNeue-CondensedBold" font-weight="bold" font-size="60.0" fill="#000000" transform="matrix(1.00, 0.00, -0.00, -1.00, 1522.3, 267.0)">t</text><text xml:space="preserve" font-family="HelveticaNeue-CondensedBold" font-weight="bold" font-size="60.0" fill="#000000" transform="matrix(1.00, 0.00, -0.00, -1.00, 1540.1, 267.0)">o</text><text xml:space="preserve" font-family="HelveticaNeue-CondensedBold" font-weight="bold" font-size="60.0" fill="#000000" transform="matrix(1.00, 0.00, -0.00, -1.00, 1568.9, 267.0)"> </text><text xml:space="preserve" font-family="HelveticaNeue-CondensedBold" font-weight="bold" font-size="60.0" fill="#000000" transform="matrix(1.00, 0.00, -0.00, -1.00, 1583.3, 267.0)">a</text><text xml:space="preserve" font-family="HelveticaNeue-CondensedBold" font-weight="bold" font-size="60.0" fill="#000000" transform="matrix(1.00, 0.00, -0.00, -1.00, 1612.2, 267.0)">u</text><text xml:space="preserve" font-family="HelveticaNeue-CondensedBold" font-weight="bold" font-size="60.0" fill="#000000" transform="matrix(1.00, 0.00, -0.00, -1.00, 1642.2, 267.0)">t</text><text xml:space="preserve" font-family="HelveticaNeue-CondensedBold" font-weight="bold" font-size="60.0" fill="#000000" transform="matrix(1.00, 0.00, -0.00, -1.00, 1659.9, 267.0)">i</text><text xml:space="preserve" font-family="HelveticaNeue-CondensedBold" font-weight="bold" font-size="60.0" fill="#000000" transform="matrix(1.00, 0.00, -0.00, -1.00, 1674.3, 267.0)">s</text><text xml:space="preserve" font-family="HelveticaNeue-CondensedBold" font-weight="bold" font-size="60.0" fill="#000000" transform="matrix(1.00, 0.00, -0.00, -1.00, 1701.0, 267.0)">m</text><text xml:space="preserve" font-family="HelveticaNeue-CondensedBold" font-weight="bold" font-size="60.0" fill="#000000" transform="matrix(1.00, 0.00, -0.00, -1.00, 1746.4, 267.0)"> </text><text xml:space="preserve" font-family="HelveticaNeue-CondensedBold" font-weight="bold" font-size="60.0" fill="#000000" transform="matrix(1.00, 0.00, -0.00, -1.00, 974.0, 194.0)">a</text><text xml:space="preserve" font-family="HelveticaNeue-CondensedBold" font-weight="bold" font-size="60.0" fill="#000000" transform="matrix(1.00, 0.00, -0.00, -1.00, 1002.9, 194.0)">n</text><text xml:space="preserve" font-family="HelveticaNeue-CondensedBold" font-weight="bold" font-size="60.0" fill="#000000" transform="matrix(1.00, 0.00, -0.00, -1.00, 1032.9, 194.0)">d</text><text xml:space="preserve" font-family="HelveticaNeue-CondensedBold" font-weight="bold" font-size="60.0" fill="#000000" transform="matrix(1.00, 0.00, -0.00, -1.00, 1062.9, 194.0)"> </text><text xml:space="preserve" font-family="HelveticaNeue-CondensedBold" font-weight="bold" font-size="60.0" fill="#000000" transform="matrix(1.00, 0.00, -0.00, -1.00, 1077.3, 194.0)">n</text><text xml:space="preserve" font-family="HelveticaNeue-CondensedBold" font-weight="bold" font-size="60.0" fill="#000000" transform="matrix(1.00, 0.00, -0.00, -1.00, 1107.3, 194.0)">e</text><text xml:space="preserve" font-family="HelveticaNeue-CondensedBold" font-weight="bold" font-size="60.0" fill="#000000" transform="matrix(1.00, 0.00, -0.00, -1.00, 1135.0, 194.0)">u</text><text xml:space="preserve" font-family="HelveticaNeue-CondensedBold" font-weight="bold" font-size="60.0" fill="#000000" transform="matrix(1.00, 0.00, -0.00, -1.00, 1165.0, 194.0)">r</text><text xml:space="preserve" font-family="HelveticaNeue-CondensedBold" font-weight="bold" font-size="60.0" fill="#000000" transform="matrix(1.00, 0.00, -0.00, -1.00, 1185.0, 194.0)">o</text><text xml:space="preserve" font-family="HelveticaNeue-CondensedBold" font-weight="bold" font-size="60.0" fill="#000000" transform="matrix(1.00, 0.00, -0.00, -1.00, 1213.8, 194.0)">a</text><text xml:space="preserve" font-family="HelveticaNeue-CondensedBold" font-weight="bold" font-size="60.0" fill="#000000" transform="matrix(1.00, 0.00, -0.00, -1.00, 1242.7, 194.0)">n</text><text xml:space="preserve" font-family="HelveticaNeue-CondensedBold" font-weight="bold" font-size="60.0" fill="#000000" transform="matrix(1.00, 0.00, -0.00, -1.00, 1272.7, 194.0)">a</text><text xml:space="preserve" font-family="HelveticaNeue-CondensedBold" font-weight="bold" font-size="60.0" fill="#000000" transform="matrix(1.00, 0.00, -0.00, -1.00, 1301.5, 194.0)">t</text><text xml:space="preserve" font-family="HelveticaNeue-CondensedBold" font-weight="bold" font-size="60.0" fill="#000000" transform="matrix(1.00, 0.00, -0.00, -1.00, 1319.3, 194.0)">o</text><text xml:space="preserve" font-family="HelveticaNeue-CondensedBold" font-weight="bold" font-size="60.0" fill="#000000" transform="matrix(1.00, 0.00, -0.00, -1.00, 1348.1, 194.0)">m</text><text xml:space="preserve" font-family="HelveticaNeue-CondensedBold" font-weight="bold" font-size="60.0" fill="#000000" transform="matrix(1.00, 0.00, -0.00, -1.00, 1393.6, 194.0)">i</text><text xml:space="preserve" font-family="HelveticaNeue-CondensedBold" font-weight="bold" font-size="60.0" fill="#000000" transform="matrix(1.00, 0.00, -0.00, -1.00, 1408.0, 194.0)">c</text><text xml:space="preserve" font-family="HelveticaNeue-CondensedBold" font-weight="bold" font-size="60.0" fill="#000000" transform="matrix(1.00, 0.00, -0.00, -1.00, 1435.8, 194.0)">a</text><text xml:space="preserve" font-family="HelveticaNeue-CondensedBold" font-weight="bold" font-size="60.0" fill="#000000" transform="matrix(1.00, 0.00, -0.00, -1.00, 1464.6, 194.0)">l</text><text xml:space="preserve" font-family="HelveticaNeue-CondensedBold" font-weight="bold" font-size="60.0" fill="#000000" transform="matrix(1.00, 0.00, -0.00, -1.00, 1479.0, 194.0)"> </text><text xml:space="preserve" font-family="HelveticaNeue-CondensedBold" font-weight="bold" font-size="60.0" fill="#000000" transform="matrix(1.00, 0.00, -0.00, -1.00, 1493.4, 194.0)">v</text><text xml:space="preserve" font-family="HelveticaNeue-CondensedBold" font-weight="bold" font-size="60.0" fill="#000000" transform="matrix(1.00, 0.00, -0.00, -1.00, 1520.1, 194.0)">a</text><text xml:space="preserve" font-family="HelveticaNeue-CondensedBold" font-weight="bold" font-size="60.0" fill="#000000" transform="matrix(1.00, 0.00, -0.00, -1.00, 1548.9, 194.0)">r</text><text xml:space="preserve" font-family="HelveticaNeue-CondensedBold" font-weight="bold" font-size="60.0" fill="#000000" transform="matrix(1.00, 0.00, -0.00, -1.00, 1568.9, 194.0)">i</text><text xml:space="preserve" font-family="HelveticaNeue-CondensedBold" font-weight="bold" font-size="60.0" fill="#000000" transform="matrix(1.00, 0.00, -0.00, -1.00, 1583.3, 194.0)">a</text><text xml:space="preserve" font-family="HelveticaNeue-CondensedBold" font-weight="bold" font-size="60.0" fill="#000000" transform="matrix(1.00, 0.00, -0.00, -1.00, 1612.2, 194.0)">t</text><text xml:space="preserve" font-family="HelveticaNeue-CondensedBold" font-weight="bold" font-size="60.0" fill="#000000" transform="matrix(1.00, 0.00, -0.00, -1.00, 1629.9, 194.0)">i</text><text xml:space="preserve" font-family="HelveticaNeue-CondensedBold" font-weight="bold" font-size="60.0" fill="#000000" transform="matrix(1.00, 0.00, -0.00, -1.00, 1644.3, 194.0)">o</text><text xml:space="preserve" font-family="HelveticaNeue-CondensedBold" font-weight="bold" font-size="60.0" fill="#000000" transform="matrix(1.00, 0.00, -0.00, -1.00, 1673.1, 194.0)">n</text></g></svg>