<?xml version="1.0" encoding="UTF-8" standalone="no"?><svg xmlns="http://www.w3.org/2000/svg" xmlns:xlink="http://www.w3.org/1999/xlink" clip-rule="evenodd" stroke-miterlimit="4.00" viewBox="0 0 1920 1080"><desc>SVG generated by Keynote</desc><defs></defs><g transform="matrix(1.00, 0.00, -0.00, -1.00, 0.0, 1080.0)"><path d="M 0.0 1080.0 L 1920.0 1080.0 L 1920.0 0.0 L 0.0 0.0 Z M 0.0 1080.0 " fill="#FEFFFE"></path><path d="M 10.6 0.0 L 12.6 0.0 L 754.0 0.0 " fill="none" stroke="#000000" stroke-width="4.00" transform="matrix(0.00, -1.00, -1.00, 0.00, 523.5, 936.0)"></path><path d="M 531.9 919.2 L 523.5 936.0 L 515.1 919.2 L 523.5 923.4 Z M 531.9 919.2 " fill="#000000"></path><path d="M 1006.5 0.0 L 1004.5 0.0 L 0.0 0.0 " fill="none" stroke="#000000" stroke-width="4.00" transform="matrix(1.00, 0.00, 0.00, -1.00, 523.5, 184.5)"></path><path d="M 1523.8 176.1 L 1540.6 184.5 L 1523.8 192.9 L 1528.0 184.5 Z M 1523.8 176.1 " fill="#000000"></path><text xml:space="preserve" font-family="GillSans" font-size="30.0" fill="#000000" transform="matrix(1.00, 0.00, -0.00, -1.00, 436.0, 880.0)">l</text><text xml:space="preserve" font-family="GillSans" font-size="30.0" fill="#000000" transform="matrix(1.00, 0.00, -0.00, -1.00, 442.6, 880.0)">o</text><text xml:space="preserve" font-family="GillSans" font-size="30.0" fill="#000000" transform="matrix(1.00, 0.00, -0.00, -1.00, 459.1, 880.0)">g</text><text xml:space="preserve" font-family="GillSans" font-size="30.0" fill="#000000" transform="matrix(1.00, 0.00, -0.00, -1.00, 471.9, 880.0)">(</text><text xml:space="preserve" font-family="GillSans" font-size="30.0" fill="#000000" transform="matrix(1.00, 0.00, -0.00, -1.00, 481.6, 880.0)">S</text><text xml:space="preserve" font-family="GillSans" font-size="30.0" fill="#000000" transform="matrix(1.00, 0.00, -0.00, -1.00, 495.4, 880.0)">)</text><text xml:space="preserve" font-family="GillSans" font-size="30.0" fill="#000000" transform="matrix(1.00, 0.00, -0.00, -1.00, 1431.0, 148.0)">l</text><text xml:space="preserve" font-family="GillSans" font-size="30.0" fill="#000000" transform="matrix(1.00, 0.00, -0.00, -1.00, 1437.6, 148.0)">o</text><text xml:space="preserve" font-family="GillSans" font-size="30.0" fill="#000000" transform="matrix(1.00, 0.00, -0.00, -1.00, 1454.1, 148.0)">g</text><text xml:space="preserve" font-family="GillSans" font-size="30.0" fill="#000000" transform="matrix(1.00, 0.00, -0.00, -1.00, 1466.9, 148.0)">(</text><text xml:space="preserve" font-family="GillSans" font-size="30.0" fill="#000000" transform="matrix(1.00, 0.00, -0.00, -1.00, 1476.6, 148.0)">V</text><text xml:space="preserve" font-family="GillSans" font-size="30.0" fill="#000000" transform="matrix(1.00, 0.00, -0.00, -1.00, 1494.8, 148.0)">)</text><path d="M 789.6 401.6 C 791.7 399.5 791.7 396.2 789.6 394.2 C 787.6 392.1 784.2 392.1 782.2 394.2 C 780.1 396.2 780.1 399.5 782.2 401.6 C 784.2 403.6 787.6 403.6 789.6 401.6 " fill="#2F4856"></path><path d="M 9.0 1.5 C 11.0 3.6 11.0 6.9 9.0 9.0 C 6.9 11.0 3.6 11.0 1.5 9.0 C -0.5 6.9 -0.5 3.6 1.5 1.5 C 3.6 -0.5 6.9 -0.5 9.0 1.5 " fill="none" stroke="#000000" stroke-width="3.00" transform="matrix(1.00, 0.00, 0.00, -1.00, 780.6, 403.1)"></path><image xlink:href="../../1658ACB2-F3DA-43F8-A0AE-55CC7DBC3690/assets/627A216C0005112762AA43AB1AC94345.png" width="79.00" height="75.00" transform="matrix(0.99, 0.00, -0.00, -0.99, 745.0, 303.0)"></image><text xml:space="preserve" font-family="GillSans-SemiBold" font-weight="bold" font-size="42.0" fill="#000000" transform="matrix(1.00, 0.00, -0.00, -1.00, 26.0, 1011.0)">B</text><text xml:space="preserve" font-family="GillSans-SemiBold" font-weight="bold" font-size="42.0" fill="#000000" transform="matrix(1.00, 0.00, -0.00, -1.00, 52.4, 1011.0)">r</text><text xml:space="preserve" font-family="GillSans-SemiBold" font-weight="bold" font-size="42.0" fill="#000000" transform="matrix(1.00, 0.00, -0.00, -1.00, 69.9, 1011.0)">a</text><text xml:space="preserve" font-family="GillSans-SemiBold" font-weight="bold" font-size="42.0" fill="#000000" transform="matrix(1.00, 0.00, -0.00, -1.00, 90.2, 1011.0)">i</text><text xml:space="preserve" font-family="GillSans-SemiBold" font-weight="bold" font-size="42.0" fill="#000000" transform="matrix(1.00, 0.00, -0.00, -1.00, 100.6, 1011.0)">n</text><text xml:space="preserve" font-family="GillSans-SemiBold" font-weight="bold" font-size="42.0" fill="#000000" transform="matrix(1.00, 0.00, -0.00, -1.00, 123.3, 1011.0)"> </text><text xml:space="preserve" font-family="GillSans-SemiBold" font-weight="bold" font-size="42.0" fill="#000000" transform="matrix(1.00, 0.00, -0.00, -1.00, 135.0, 1011.0)">a</text><text xml:space="preserve" font-family="GillSans-SemiBold" font-weight="bold" font-size="42.0" fill="#000000" transform="matrix(1.00, 0.00, -0.00, -1.00, 155.3, 1011.0)">l</text><text xml:space="preserve" font-family="GillSans-SemiBold" font-weight="bold" font-size="42.0" fill="#000000" transform="matrix(1.00, 0.00, -0.00, -1.00, 165.7, 1011.0)">l</text><text xml:space="preserve" font-family="GillSans-SemiBold" font-weight="bold" font-size="42.0" fill="#000000" transform="matrix(1.00, 0.00, -0.00, -1.00, 176.1, 1011.0)">o</text><text xml:space="preserve" font-family="GillSans-SemiBold" font-weight="bold" font-size="42.0" fill="#000000" transform="matrix(1.00, 0.00, -0.00, -1.00, 200.2, 1011.0)">m</text><text xml:space="preserve" font-family="GillSans-SemiBold" font-weight="bold" font-size="42.0" fill="#000000" transform="matrix(1.00, 0.00, -0.00, -1.00, 235.7, 1011.0)">e</text><text xml:space="preserve" font-family="GillSans-SemiBold" font-weight="bold" font-size="42.0" fill="#000000" transform="matrix(1.00, 0.00, -0.00, -1.00, 257.4, 1011.0)">t</text><text xml:space="preserve" font-family="GillSans-SemiBold" font-weight="bold" font-size="42.0" fill="#000000" transform="matrix(1.00, 0.00, -0.00, -1.00, 272.9, 1011.0)">r</text><text xml:space="preserve" font-family="GillSans-SemiBold" font-weight="bold" font-size="42.0" fill="#000000" transform="matrix(1.00, 0.00, -0.00, -1.00, 290.5, 1011.0)">y</text></g></svg>