<?xml version="1.0" encoding="UTF-8" standalone="no"?><svg xmlns="http://www.w3.org/2000/svg" xmlns:xlink="http://www.w3.org/1999/xlink" clip-rule="evenodd" stroke-miterlimit="4.00" viewBox="0 0 1920 1080"><desc>SVG generated by Keynote</desc><defs></defs><g transform="matrix(1.00, 0.00, -0.00, -1.00, 0.0, 1080.0)"><path d="M 0.0 1080.0 L 1920.0 1080.0 L 1920.0 0.0 L 0.0 0.0 Z M 0.0 1080.0 " fill="#000000"></path><text xml:space="preserve" font-family="HelveticaNeue-Medium" font-size="56.0" fill="#FEFFFF" transform="matrix(1.00, 0.00, -0.00, -1.00, 1383.0, 519.0)">F</text><text xml:space="preserve" font-family="HelveticaNeue-Medium" font-size="56.0" fill="#FEFFFF" transform="matrix(1.00, 0.00, -0.00, -1.00, 1416.2, 519.0)">e</text><text xml:space="preserve" font-family="HelveticaNeue-Medium" font-size="56.0" fill="#FEFFFF" transform="matrix(1.00, 0.00, -0.00, -1.00, 1447.3, 519.0)">r</text><text xml:space="preserve" font-family="HelveticaNeue-Medium" font-size="56.0" fill="#FEFFFF" transform="matrix(1.00, 0.00, -0.00, -1.00, 1467.1, 519.0)">r</text><text xml:space="preserve" font-family="HelveticaNeue-Medium" font-size="56.0" fill="#FEFFFF" transform="matrix(1.00, 0.00, -0.00, -1.00, 1485.8, 519.0)">e</text><text xml:space="preserve" font-family="HelveticaNeue-Medium" font-size="56.0" fill="#FEFFFF" transform="matrix(1.00, 0.00, -0.00, -1.00, 1516.9, 519.0)">t</text><text xml:space="preserve" font-family="HelveticaNeue-Medium" font-size="56.0" fill="#FEFFFF" transform="matrix(1.00, 0.00, -0.00, -1.00, 1535.5, 519.0)">s</text><image xlink:href="AA68BF49674BF6B8D46F75794435B750.png" width="952.00" height="540.00" transform="matrix(1.11, 0.00, -0.00, -1.11, 64.0, 841.0)"></image></g></svg>