<?xml version="1.0" encoding="UTF-8" standalone="no"?><svg xmlns="http://www.w3.org/2000/svg" xmlns:xlink="http://www.w3.org/1999/xlink" clip-rule="evenodd" stroke-miterlimit="4.00" viewBox="0 0 1920 1080"><desc>SVG generated by Keynote</desc><defs></defs><g transform="matrix(1.00, 0.00, -0.00, -1.00, 0.0, 1080.0)"><path d="M 0.0 1080.0 L 1920.0 1080.0 L 1920.0 0.0 L 0.0 0.0 Z M 0.0 1080.0 " fill="#FEFFFF"></path><g><clipPath id="clip-26676"><path d="M 291.0 91.0 L 1676.0 91.0 L 1676.0 -3.0 L 291.0 -3.0 Z M 291.0 90.6 "></path></clipPath><g clip-path="url(#clip-26676)"><image xlink:href="B517B4DECF93C432F900FDFCBC94A712.png" width="394.00" height="541.00" transform="matrix(3.52, 0.00, -0.00, -3.51, 291.0, 1896.0)"></image></g></g><g><clipPath id="clip-26677"><path d="M 1280.0 974.0 L 1756.0 974.0 L 1756.0 128.0 L 1280.0 128.0 Z M 1280.4 973.9 "></path></clipPath><g clip-path="url(#clip-26677)"><g><clipPath id="clip-26678"><path d="M 1280.4 128.5 L 1755.8 128.5 L 1755.8 973.9 L 1280.4 973.9 Z M 1280.4 128.5 "></path></clipPath><g clip-path="url(#clip-26678)"><image xlink:href="../../338C8248-DF15-42D6-9C09-8DB7FFBB6C6C/assets/B517B4DECF93C432F900FDFCBC94A712.png" width="394.00" height="541.00" transform="matrix(2.76, 0.00, -0.00, -2.76, 669.0, 1549.0)"></image></g></g></g></g><g><clipPath id="clip-26679"><path d="M 671.0 591.0 L 1216.0 591.0 L 1216.0 94.0 L 671.0 94.0 Z M 670.6 590.8 "></path></clipPath><g clip-path="url(#clip-26679)"><g><clipPath id="clip-26680"><path d="M 670.6 94.1 L 1215.6 94.1 L 1215.6 590.8 L 670.6 590.8 Z M 670.6 94.1 "></path></clipPath><g clip-path="url(#clip-26680)"><image xlink:href="../../338C8248-DF15-42D6-9C09-8DB7FFBB6C6C/assets/B517B4DECF93C432F900FDFCBC94A712.png" width="394.00" height="541.00" transform="matrix(2.76, 0.00, -0.00, -2.75, 671.0, 1516.0)"></image></g></g></g></g><g><clipPath id="clip-26681"><path d="M 194.0 1089.0 L 1281.0 1089.0 L 1281.0 580.0 L 194.0 580.0 Z M 194.4 1089.0 "></path></clipPath><g clip-path="url(#clip-26681)"><g><clipPath id="clip-26682"><path d="M 194.4 580.1 L 1281.3 580.1 L 1281.3 1089.0 L 194.4 1089.0 Z M 194.4 580.1 "></path></clipPath><g clip-path="url(#clip-26682)"><image xlink:href="../../338C8248-DF15-42D6-9C09-8DB7FFBB6C6C/assets/B517B4DECF93C432F900FDFCBC94A712.png" width="394.00" height="541.00" transform="matrix(2.76, 0.00, -0.00, -2.76, 194.0, 1089.0)"></image></g></g></g></g><g><clipPath id="clip-26683"><path d="M 188.0 619.0 L 606.0 619.0 L 606.0 167.0 L 188.0 167.0 Z M 188.0 619.3 "></path></clipPath><g clip-path="url(#clip-26683)"><g><clipPath id="clip-26684"><path d="M 188.0 167.3 L 605.9 167.3 L 605.9 619.3 L 188.0 619.3 Z M 188.0 167.3 "></path></clipPath><g clip-path="url(#clip-26684)"><image xlink:href="../../338C8248-DF15-42D6-9C09-8DB7FFBB6C6C/assets/B517B4DECF93C432F900FDFCBC94A712.png" width="394.00" height="541.00" transform="matrix(2.76, 0.00, -0.00, -2.75, 188.0, 1083.0)"></image></g></g></g></g><g><clipPath id="clip-26685"><path d="M 328.0 170.0 L 466.0 170.0 L 466.0 116.0 L 328.0 116.0 Z M 327.8 170.2 "></path></clipPath><g clip-path="url(#clip-26685)"><g><clipPath id="clip-26686"><path d="M 327.8 116.2 L 466.1 116.2 L 466.1 170.2 L 327.8 170.2 Z M 327.8 116.2 "></path></clipPath><g clip-path="url(#clip-26686)"><image xlink:href="../../338C8248-DF15-42D6-9C09-8DB7FFBB6C6C/assets/B517B4DECF93C432F900FDFCBC94A712.png" width="394.00" height="541.00" transform="matrix(2.76, 0.00, -0.00, -2.76, -102.0, 716.0)"></image></g></g></g></g></g></svg>