<?xml version="1.0" encoding="UTF-8" standalone="no"?><svg xmlns="http://www.w3.org/2000/svg" xmlns:xlink="http://www.w3.org/1999/xlink" clip-rule="evenodd" stroke-miterlimit="10" viewBox="0 0 1920 1080"><desc>SVG generated by Keynote</desc><defs></defs><g transform="matrix(1.00, 0.00, -0.00, -1.00, 0.0, 1080.0)"><path d="M 0.0 1080.0 L 1920.0 1080.0 L 1920.0 0.0 L 0.0 0.0 Z M 0.0 1080.0 " fill="#FEFFFF"></path><image xlink:href="652B62BEE46F21D93A55742FFE9B4BB8.png" width="704.00" height="1475.00" transform="matrix(1.00, 0.00, -0.00, -1.00, 608.5, 1272.5)"></image><image xlink:href="FF8A19FEC34734D09E164B4604FE1357.jpeg" width="1477.00" height="2067.00" transform="matrix(0.42, 0.00, -0.00, -0.42, 648.0, 976.0)"></image><g><clipPath id="clip0x6180018a8100"><path d="M 1139.0 1003.0 L 1711.0 1003.0 L 1711.0 721.0 L 1139.0 721.0 Z M 1138.9 1002.5 "></path></clipPath><g clip-path="url(#clip0x6180018a8100)"><g><clipPath id="clip0x6180018a8280"><path d="M 1392.6 1002.5 C 1391.5 1002.3 1390.0 999.1 1388.5 992.4 C 1386.6 983.5 1384.8 962.9 1384.6 951.5 C 1384.6 947.8 1384.7 945.0 1385.1 944.0 C 1385.6 942.8 1389.3 942.0 1393.9 941.5 C 1396.7 941.5 1399.9 941.4 1403.1 940.8 C 1408.7 940.8 1414.2 941.2 1416.4 942.2 C 1416.5 942.6 1416.7 943.0 1416.7 943.5 C 1416.7 944.2 1416.5 944.7 1416.3 945.2 C 1414.1 946.5 1408.7 947.4 1396.3 948.7 C 1393.8 949.0 1392.6 949.4 1392.0 951.7 C 1391.0 952.7 1391.0 957.7 1391.4 964.8 C 1391.4 964.8 1391.4 964.8 1391.4 964.9 C 1391.4 973.4 1392.2 985.3 1393.1 991.5 C 1394.1 997.9 1393.8 1001.5 1393.0 1002.3 C 1392.9 1002.4 1392.7 1002.5 1392.6 1002.5 Z M 1637.5 998.7 C 1635.3 998.7 1630.0 986.2 1627.6 975.4 C 1626.3 969.4 1625.8 965.0 1625.9 961.3 C 1625.9 960.0 1626.0 958.8 1626.1 957.7 C 1626.7 954.2 1628.0 951.4 1630.4 949.0 C 1634.4 945.1 1636.0 944.6 1639.2 946.3 C 1641.3 947.4 1643.1 949.7 1643.1 951.3 C 1643.1 953.5 1642.2 953.8 1639.5 952.3 C 1638.8 951.9 1638.2 951.9 1637.6 951.7 C 1636.7 951.0 1635.9 951.0 1635.1 951.6 C 1634.6 951.8 1634.1 952.1 1633.7 952.6 C 1630.2 956.0 1631.1 973.2 1635.3 985.1 C 1639.6 997.3 1639.8 998.7 1637.5 998.7 Z M 1538.1 996.6 C 1536.9 996.4 1535.1 994.5 1533.2 990.8 C 1532.5 989.5 1531.9 988.6 1531.4 987.9 C 1530.5 985.7 1529.7 985.5 1528.1 986.7 C 1528.0 986.8 1527.9 986.8 1527.9 986.9 C 1525.3 989.4 1521.1 989.6 1520.8 987.3 C 1520.8 987.0 1520.9 986.7 1521.0 986.3 C 1521.5 985.1 1522.7 983.3 1524.5 981.8 C 1527.4 979.3 1528.4 976.0 1528.4 969.2 C 1528.4 962.5 1529.5 958.8 1532.3 956.0 C 1534.5 953.8 1537.5 952.7 1540.5 952.3 C 1543.7 952.2 1546.9 952.7 1549.5 954.0 C 1549.5 954.0 1549.5 954.0 1549.6 954.0 C 1550.9 955.1 1551.7 956.4 1551.7 958.2 C 1551.7 962.1 1548.9 963.1 1546.9 959.9 C 1545.7 958.0 1543.3 957.6 1540.8 958.4 C 1539.2 958.4 1537.8 959.2 1536.9 960.9 C 1536.3 961.5 1535.6 962.0 1535.1 962.7 C 1532.7 966.3 1532.4 968.9 1533.7 973.0 C 1535.4 977.8 1536.6 978.4 1546.6 979.3 C 1560.0 980.5 1561.1 983.8 1548.4 985.1 C 1544.0 985.6 1541.7 985.9 1540.6 986.8 C 1540.3 986.9 1540.3 987.2 1540.2 987.4 C 1539.5 988.2 1539.5 989.4 1539.7 991.5 C 1539.8 992.8 1539.7 993.7 1539.5 994.5 C 1539.3 995.4 1539.0 996.1 1538.5 996.5 C 1538.4 996.5 1538.3 996.6 1538.1 996.6 Z M 1612.9 992.9 C 1611.3 992.9 1610.0 991.6 1610.0 990.0 C 1610.0 988.6 1611.2 987.4 1612.6 987.2 C 1613.9 987.4 1614.9 988.1 1615.4 989.0 C 1615.5 989.2 1615.7 989.4 1615.7 989.6 C 1615.8 989.8 1615.7 990.0 1615.8 990.2 C 1615.6 991.7 1614.5 992.9 1612.9 992.9 Z M 1662.7 991.0 C 1660.3 991.0 1655.5 978.1 1653.9 967.1 C 1652.9 960.2 1652.9 955.1 1654.1 951.3 C 1654.2 951.0 1654.2 950.8 1654.3 950.6 C 1655.6 947.1 1657.8 944.8 1661.2 943.3 C 1664.2 942.0 1666.3 941.1 1667.0 940.9 C 1668.9 940.9 1670.7 941.3 1672.6 942.2 C 1673.0 942.4 1673.3 942.5 1673.7 942.8 C 1674.8 943.5 1675.9 944.4 1677.0 945.5 C 1677.6 946.1 1678.0 946.8 1678.0 947.2 C 1678.0 950.8 1677.7 950.8 1671.4 947.9 C 1667.2 946.0 1665.8 946.3 1662.5 949.2 C 1657.8 953.5 1657.5 962.4 1661.5 978.0 C 1665.0 991.2 1665.0 991.0 1662.7 991.0 Z M 1582.3 985.0 C 1580.2 984.9 1576.1 981.8 1569.4 975.6 C 1562.7 969.4 1559.4 964.9 1559.8 962.5 C 1560.7 958.0 1566.4 956.9 1572.4 960.0 C 1576.4 962.2 1577.6 962.0 1581.4 958.6 C 1587.3 953.2 1592.1 951.8 1596.4 954.0 C 1598.9 955.4 1600.6 955.1 1602.3 953.0 C 1607.7 946.5 1614.9 952.9 1610.3 960.2 C 1608.9 962.4 1608.5 966.8 1609.3 971.5 C 1609.7 973.8 1609.6 975.2 1609.5 976.5 C 1609.3 977.9 1608.8 978.8 1608.3 979.2 C 1607.0 978.8 1605.2 975.7 1603.6 970.1 C 1601.3 962.3 1600.1 960.8 1595.6 960.2 C 1594.6 960.1 1593.6 960.2 1592.6 960.3 C 1590.6 960.4 1588.6 961.1 1586.8 962.8 C 1586.7 962.8 1586.7 962.9 1586.6 963.0 C 1586.5 963.0 1586.5 963.0 1586.4 963.1 C 1583.2 966.0 1582.8 968.1 1583.9 975.9 C 1584.7 982.0 1584.4 985.0 1582.3 985.0 Z M 1704.6 980.8 C 1703.1 980.6 1701.4 980.1 1699.4 979.3 C 1692.3 976.4 1687.0 969.3 1684.2 959.1 C 1681.5 949.3 1685.2 940.1 1694.0 934.7 C 1697.4 932.6 1700.1 931.5 1702.4 931.2 C 1704.0 931.1 1705.4 931.3 1706.7 931.7 C 1707.6 932.1 1708.4 932.7 1709.1 933.6 C 1712.4 937.6 1709.8 940.7 1704.1 939.3 C 1700.9 938.5 1698.4 939.2 1695.4 941.8 C 1695.2 941.9 1695.1 942.0 1694.9 942.2 C 1694.8 942.3 1694.7 942.3 1694.5 942.5 C 1694.2 942.7 1694.2 942.9 1693.9 943.2 C 1693.8 943.3 1693.6 943.4 1693.5 943.6 C 1689.5 947.7 1690.3 949.4 1698.1 953.1 C 1705.7 956.7 1711.1 965.1 1711.1 973.4 C 1711.1 978.9 1709.0 981.3 1704.6 980.8 Z M 1442.3 978.7 C 1434.5 978.2 1426.3 967.2 1428.3 958.0 C 1429.9 950.9 1433.9 949.4 1441.4 953.3 C 1447.1 956.3 1447.6 956.2 1450.5 952.6 C 1452.1 950.5 1454.6 948.5 1456.3 947.8 C 1456.5 947.7 1456.8 947.6 1457.0 947.5 C 1461.2 946.3 1472.5 948.1 1475.4 950.6 C 1476.7 951.6 1477.6 953.4 1477.8 954.8 C 1477.7 955.5 1477.6 956.0 1477.4 956.5 C 1476.0 958.5 1471.3 958.4 1468.8 955.9 C 1468.7 955.7 1468.3 955.7 1468.1 955.6 C 1465.6 954.0 1463.3 953.6 1461.1 954.4 C 1456.2 954.9 1455.1 956.4 1451.9 966.1 C 1450.0 972.1 1447.1 977.6 1445.6 978.2 C 1444.5 978.6 1443.4 978.7 1442.3 978.7 Z M 1471.1 905.4 C 1470.6 905.1 1470.0 904.1 1469.4 902.4 C 1469.1 901.7 1468.8 899.5 1468.6 897.0 C 1468.5 896.3 1468.5 895.4 1468.4 894.6 C 1468.3 892.0 1468.2 889.1 1468.2 886.1 C 1468.2 882.7 1468.3 879.5 1468.5 876.7 C 1468.5 876.4 1468.5 876.0 1468.5 875.7 C 1468.7 872.8 1469.0 870.6 1469.4 869.7 C 1469.4 869.7 1469.4 869.7 1469.4 869.7 C 1470.0 868.0 1472.3 866.7 1474.4 866.7 C 1475.0 866.7 1475.4 866.7 1475.8 866.8 C 1476.3 867.7 1476.6 869.0 1476.3 870.7 C 1476.3 871.1 1476.2 872.7 1476.1 873.2 C 1475.4 876.8 1474.7 882.6 1474.4 889.5 C 1474.3 892.7 1474.1 895.2 1473.8 897.4 C 1473.7 898.1 1473.7 899.1 1473.5 899.7 C 1473.3 901.2 1473.1 902.3 1472.8 903.2 C 1472.3 904.5 1471.8 905.3 1471.1 905.4 Z M 1451.7 897.3 C 1450.8 897.3 1449.4 893.1 1447.7 884.7 L 1445.5 873.0 L 1437.5 874.0 C 1437.3 874.0 1437.1 874.1 1436.9 874.1 C 1436.5 874.2 1436.2 874.1 1435.9 874.1 C 1435.0 874.2 1434.1 874.2 1433.3 874.2 C 1429.9 874.0 1427.8 872.9 1425.4 870.5 C 1423.1 868.2 1421.7 865.1 1422.4 863.5 C 1423.0 861.8 1423.5 859.0 1423.5 857.0 C 1423.5 855.1 1425.3 851.3 1427.5 848.5 C 1432.7 841.8 1439.3 841.9 1446.9 848.7 L 1453.0 854.1 L 1453.0 876.8 C 1453.2 890.5 1452.9 897.3 1451.7 897.3 Z M 1556.2 887.9 C 1554.7 888.4 1551.9 887.6 1548.8 886.0 C 1548.5 885.8 1548.2 885.7 1547.9 885.5 C 1546.8 884.8 1545.7 884.0 1544.6 883.1 C 1543.7 882.4 1542.7 881.6 1541.8 880.7 C 1534.0 872.9 1526.5 858.0 1526.5 849.7 C 1526.5 842.9 1523.1 840.0 1517.6 842.1 C 1515.3 843.0 1515.1 844.1 1516.7 847.1 C 1519.6 852.6 1516.1 853.7 1510.1 849.0 C 1509.0 848.1 1508.3 847.6 1507.6 847.1 C 1507.5 847.0 1507.4 847.0 1507.4 846.9 C 1507.4 846.9 1507.3 846.9 1507.3 846.9 C 1504.8 845.3 1503.9 845.8 1501.1 848.3 C 1500.1 849.2 1499.4 849.9 1499.0 850.5 L 1496.6 852.5 L 1499.9 854.3 C 1500.7 855.3 1501.7 856.6 1503.3 858.4 C 1511.3 867.5 1510.6 875.2 1501.8 876.0 C 1493.8 876.8 1488.7 871.5 1487.8 864.2 C 1487.7 862.8 1487.7 861.4 1487.9 859.9 C 1487.9 859.7 1487.9 859.5 1487.9 859.4 C 1488.3 856.3 1489.4 853.0 1491.4 849.8 C 1496.2 842.0 1499.5 840.3 1513.4 838.6 C 1523.3 837.4 1525.0 836.6 1526.6 832.0 C 1531.0 819.9 1534.6 813.3 1537.0 812.5 C 1537.9 812.4 1538.8 812.8 1539.5 813.6 C 1540.2 815.4 1539.3 818.9 1536.2 824.9 C 1534.0 829.1 1533.0 833.2 1534.0 834.2 C 1534.9 835.1 1539.5 835.3 1544.2 835.0 L 1552.7 835.0 L 1554.0 824.1 C 1554.7 818.4 1556.4 813.0 1557.8 812.1 C 1559.1 811.3 1561.0 811.0 1561.9 811.5 C 1564.1 812.9 1563.7 820.9 1561.3 823.3 C 1560.1 824.5 1559.7 826.2 1559.7 827.9 C 1559.5 830.2 1560.3 832.3 1561.9 833.7 C 1562.0 833.7 1562.0 833.7 1562.0 833.7 C 1562.9 834.6 1564.0 835.3 1565.3 835.6 C 1572.4 837.2 1572.8 842.9 1565.9 843.7 C 1565.3 843.8 1564.9 843.9 1564.4 844.0 C 1564.3 844.0 1564.2 844.0 1564.0 844.0 C 1562.8 843.5 1561.4 843.8 1560.8 844.7 C 1560.3 845.5 1560.5 848.2 1561.0 851.4 C 1561.0 851.9 1561.0 852.2 1561.0 852.8 C 1561.3 857.5 1563.3 866.2 1565.4 872.1 C 1569.9 884.8 1569.8 884.1 1567.3 884.1 C 1564.1 884.1 1558.0 869.9 1555.1 855.8 L 1552.4 842.0 L 1544.4 842.0 C 1536.2 840.2 1532.3 842.3 1532.3 848.2 C 1532.3 849.0 1532.5 850.0 1532.7 850.9 C 1532.9 853.5 1533.3 856.5 1534.0 859.0 C 1535.3 863.3 1540.0 870.1 1544.7 875.6 C 1544.8 875.7 1544.9 875.7 1544.9 875.8 C 1547.8 879.5 1550.5 882.3 1552.8 883.4 C 1553.6 883.9 1554.3 884.1 1554.8 884.1 C 1555.6 884.1 1556.2 884.3 1556.7 884.7 C 1557.2 885.1 1557.6 885.5 1557.6 886.1 C 1557.6 887.1 1557.1 887.7 1556.2 887.9 Z M 1646.7 884.0 C 1645.5 883.8 1643.0 879.9 1640.9 875.2 C 1637.5 867.5 1636.2 866.4 1632.2 867.2 C 1629.4 867.7 1627.8 867.3 1627.7 866.5 C 1627.5 865.6 1628.7 864.2 1631.4 862.8 C 1634.5 861.1 1635.3 858.7 1635.3 851.0 C 1635.3 843.2 1636.3 840.2 1640.1 836.5 C 1642.7 833.8 1646.2 832.3 1649.6 831.8 C 1650.3 831.7 1651.0 831.8 1651.7 831.8 C 1653.3 831.8 1654.7 831.9 1655.9 832.2 C 1655.9 832.2 1655.9 832.2 1655.9 832.2 C 1656.7 832.5 1657.4 832.8 1658.0 833.2 C 1658.1 833.3 1658.3 833.3 1658.4 833.4 C 1658.4 833.4 1658.4 833.5 1658.4 833.5 C 1659.6 834.4 1660.3 835.6 1660.4 837.2 C 1660.5 838.1 1660.3 839.2 1659.8 840.4 C 1658.8 841.8 1656.6 841.4 1652.9 839.1 C 1647.4 835.6 1640.7 842.0 1641.5 850.0 C 1641.5 850.4 1641.6 850.6 1641.7 850.9 C 1641.4 855.2 1643.2 857.1 1647.6 856.7 C 1647.9 856.7 1648.0 856.7 1648.2 856.7 C 1648.8 856.8 1649.2 856.9 1649.9 857.0 C 1656.0 857.7 1657.6 858.7 1657.6 861.8 C 1657.6 865.0 1656.6 865.6 1651.5 865.1 C 1650.2 864.9 1649.3 865.0 1648.3 865.1 C 1647.9 865.1 1647.5 865.1 1647.2 865.1 C 1647.0 865.2 1646.7 865.2 1646.5 865.2 C 1646.2 865.3 1645.8 865.4 1645.6 865.6 C 1645.4 865.7 1645.3 865.8 1645.2 865.9 C 1645.1 866.0 1645.0 866.1 1644.9 866.2 C 1643.5 867.7 1643.8 870.6 1645.9 875.5 C 1647.6 879.6 1648.4 881.5 1648.6 882.6 C 1648.4 883.5 1647.8 884.0 1646.7 884.0 Z M 1302.8 875.2 C 1297.9 875.2 1293.4 874.8 1288.9 874.4 C 1277.5 872.4 1264.6 868.9 1251.2 863.6 C 1230.1 855.3 1193.2 834.2 1182.0 824.2 C 1157.0 801.7 1149.5 796.2 1148.4 799.3 C 1147.7 800.9 1148.2 805.6 1149.3 809.7 C 1151.4 817.4 1152.1 830.0 1150.4 829.2 C 1150.3 829.1 1150.1 828.8 1150.0 828.6 C 1148.0 825.3 1138.1 784.8 1138.9 783.0 C 1139.1 782.9 1139.3 782.9 1139.4 782.8 C 1140.4 782.2 1147.0 781.8 1155.1 782.1 C 1163.6 782.3 1171.7 781.8 1173.1 780.9 C 1173.9 780.4 1174.6 780.1 1175.2 779.8 C 1175.6 779.8 1177.6 779.7 1177.8 779.7 C 1178.5 780.0 1179.1 780.5 1179.7 781.5 C 1182.2 785.5 1174.3 789.2 1164.5 788.6 C 1159.5 788.3 1155.2 788.9 1154.9 789.9 C 1154.7 791.0 1164.7 800.7 1177.2 811.5 C 1182.5 816.1 1188.0 820.4 1193.6 824.6 C 1196.5 826.9 1199.6 829.5 1201.3 830.7 C 1201.7 831.0 1205.4 832.9 1206.4 833.5 C 1239.1 855.1 1274.2 868.6 1303.5 870.1 C 1319.0 870.9 1324.9 872.9 1320.3 874.5 C 1316.9 875.0 1311.2 875.3 1302.8 875.2 Z M 1605.3 872.4 C 1602.4 872.7 1599.2 872.3 1597.3 871.0 C 1593.0 868.0 1589.0 860.1 1588.8 854.5 C 1588.8 853.5 1589.0 852.4 1589.1 851.3 C 1590.2 843.9 1595.3 834.9 1600.5 832.1 C 1606.3 829.1 1615.7 830.6 1620.5 835.4 C 1625.6 840.6 1622.8 844.5 1616.7 840.5 C 1614.8 839.3 1612.5 838.5 1610.4 838.1 C 1609.5 837.9 1608.7 837.7 1608.0 837.7 C 1604.9 837.5 1602.1 838.2 1600.7 840.0 C 1599.2 841.8 1599.9 843.6 1603.4 847.0 C 1608.5 851.9 1612.9 864.2 1611.4 869.1 C 1611.3 869.3 1611.3 869.4 1611.2 869.5 C 1610.5 871.0 1608.1 872.1 1605.3 872.4 Z M 1450.6 798.6 C 1449.4 798.9 1448.9 797.6 1450.0 794.3 C 1450.8 792.3 1451.2 787.8 1451.4 783.4 C 1451.4 782.3 1451.6 781.2 1451.6 780.2 C 1451.8 777.0 1452.0 775.0 1452.1 773.3 C 1452.5 772.2 1453.0 771.5 1453.7 771.5 C 1459.0 771.5 1460.1 784.1 1455.5 793.0 C 1453.7 796.4 1451.8 798.3 1450.6 798.6 Z M 1514.1 794.7 C 1512.0 794.8 1508.1 790.2 1502.3 781.1 C 1497.4 773.7 1493.5 766.8 1493.4 765.7 C 1493.5 765.5 1493.5 765.3 1493.6 765.2 C 1493.6 765.0 1493.7 764.9 1493.7 764.8 C 1494.0 764.2 1494.7 764.0 1495.5 764.0 C 1496.7 764.3 1498.4 765.5 1500.2 767.5 C 1505.8 773.8 1507.4 770.3 1506.0 754.9 C 1505.2 747.1 1505.2 739.8 1505.9 738.6 C 1506.7 737.5 1508.6 736.5 1510.3 736.5 C 1510.7 736.5 1510.9 736.6 1511.2 736.7 C 1511.6 737.4 1511.9 738.9 1512.2 740.6 C 1512.2 740.7 1512.2 740.8 1512.1 740.9 C 1511.5 743.3 1512.4 755.1 1514.1 767.1 C 1516.6 784.9 1516.9 793.8 1514.4 794.6 C 1514.3 794.6 1514.2 794.7 1514.1 794.7 Z M 1429.5 788.0 C 1428.5 786.9 1427.4 782.6 1427.0 778.3 C 1426.4 770.6 1426.3 770.5 1419.2 771.1 C 1417.6 771.3 1416.1 771.2 1414.8 770.9 C 1414.6 770.9 1414.4 770.9 1414.3 770.9 C 1413.1 770.6 1411.9 770.2 1410.9 769.6 C 1410.7 769.5 1410.5 769.4 1410.3 769.3 C 1403.5 765.3 1402.1 755.7 1409.2 747.8 C 1412.8 743.9 1426.3 742.9 1428.4 746.5 C 1430.7 750.1 1431.7 790.2 1429.5 788.0 Z M 1586.1 782.8 C 1582.6 783.3 1577.0 781.3 1572.3 777.1 C 1561.6 767.8 1560.0 763.8 1565.3 759.5 C 1567.7 757.5 1572.1 756.0 1575.0 756.0 C 1579.6 756.0 1582.4 754.5 1583.2 752.4 C 1584.2 751.8 1584.0 751.0 1583.3 750.0 C 1583.0 748.8 1582.2 747.5 1580.9 746.2 C 1578.2 743.5 1575.5 742.5 1573.4 743.4 C 1571.7 744.1 1568.7 745.2 1566.8 745.7 C 1561.6 747.2 1562.5 740.6 1567.8 738.5 C 1569.9 737.7 1571.5 737.2 1573.0 737.0 C 1575.1 736.9 1577.0 737.1 1578.7 737.6 C 1579.6 737.9 1580.5 738.2 1581.6 738.7 C 1587.7 741.4 1592.1 751.2 1589.3 755.6 C 1588.2 757.4 1583.9 759.5 1579.8 760.3 C 1576.9 760.9 1574.7 761.5 1573.1 762.2 C 1571.7 762.5 1570.6 763.1 1570.5 764.0 C 1569.4 765.7 1570.7 768.0 1574.1 771.5 C 1577.9 775.5 1581.3 777.2 1584.7 776.8 C 1588.0 776.5 1589.6 777.3 1589.6 779.3 C 1589.6 781.4 1588.2 782.6 1586.1 782.8 Z M 1623.1 776.5 C 1618.2 776.8 1617.1 774.9 1622.4 772.1 C 1623.5 771.5 1624.2 771.0 1624.9 770.4 C 1625.1 770.3 1625.2 770.2 1625.4 770.1 C 1628.1 767.5 1627.6 763.2 1624.4 745.7 C 1622.7 736.4 1621.8 727.4 1622.4 725.8 C 1623.1 724.1 1623.9 723.1 1625.4 723.0 L 1628.7 724.0 C 1629.3 724.1 1629.7 724.1 1630.4 724.2 C 1631.8 724.7 1633.3 725.2 1635.3 726.0 C 1648.6 731.3 1654.3 744.7 1649.1 758.2 C 1646.4 765.4 1637.3 773.3 1629.2 775.5 C 1626.8 776.1 1624.7 776.4 1623.1 776.5 Z M 1601.9 739.9 C 1601.6 739.8 1601.4 739.6 1601.2 739.5 C 1600.6 738.9 1600.3 737.9 1600.3 736.5 C 1600.3 734.0 1601.3 732.6 1602.8 733.1 C 1604.1 733.6 1605.2 735.1 1605.2 736.5 C 1605.2 737.8 1604.2 739.1 1603.0 739.7 C 1602.7 739.8 1602.3 740.0 1601.9 739.9 Z M 1657.1 736.4 C 1656.7 736.3 1656.3 736.2 1655.9 735.9 C 1654.4 733.4 1654.2 724.1 1656.0 722.3 C 1656.4 722.0 1656.7 721.8 1657.0 721.6 C 1657.4 721.5 1657.9 721.2 1658.3 721.2 C 1659.7 721.0 1661.1 721.9 1661.9 724.0 C 1663.2 727.5 1659.9 735.7 1657.1 736.4 Z M 1657.1 736.4 "></path></clipPath><g clip-path="url(#clip0x6180018a8280)"><image xlink:href="CCB86CBCCF2DDBB01CB0524BE849DC4A.png" width="653.00" height="371.00" transform="matrix(1.00, 0.00, -0.00, -1.00, 1081.0, 1069.0)"></image></g></g></g></g></g></svg>