<?xml version="1.0" encoding="UTF-8" standalone="no"?>
<!-- Created with Inkscape (http://www.inkscape.org/) -->

<svg
   xmlns:dc="http://purl.org/dc/elements/1.1/"
   xmlns:cc="http://creativecommons.org/ns#"
   xmlns:rdf="http://www.w3.org/1999/02/22-rdf-syntax-ns#"
   xmlns:svg="http://www.w3.org/2000/svg"
   xmlns="http://www.w3.org/2000/svg"
   xmlns:sodipodi="http://sodipodi.sourceforge.net/DTD/sodipodi-0.dtd"
   xmlns:inkscape="http://www.inkscape.org/namespaces/inkscape"
   width="276.27344"
   height="272"
   id="svg3553"
   version="1.1"
   inkscape:version="0.48.5 r10040"
   sodipodi:docname="naat.svg">
  <defs
     id="defs3555" />
  <sodipodi:namedview
     id="base"
     pagecolor="#ffffff"
     bordercolor="#666666"
     borderopacity="1.0"
     inkscape:pageopacity="0.0"
     inkscape:pageshadow="2"
     inkscape:zoom="1.5558594"
     inkscape:cx="195.79336"
     inkscape:cy="136.00001"
     inkscape:document-units="px"
     inkscape:current-layer="layer1"
     showgrid="false"
     fit-margin-top="0"
     fit-margin-left="0"
     fit-margin-right="0"
     fit-margin-bottom="0"
     inkscape:window-width="895"
     inkscape:window-height="755"
     inkscape:window-x="437"
     inkscape:window-y="61"
     inkscape:window-maximized="0" />
  <metadata
     id="metadata3558">
    <rdf:RDF>
      <cc:Work
         rdf:about="">
        <dc:format>image/svg+xml</dc:format>
        <dc:type
           rdf:resource="http://purl.org/dc/dcmitype/StillImage" />
        <dc:title></dc:title>
      </cc:Work>
    </rdf:RDF>
  </metadata>
  <g
     inkscape:label="Layer 1"
     inkscape:groupmode="layer"
     id="layer1"
     transform="translate(-236.86328,-396.36218)">
    <path
       transform="matrix(1.1929825,0,0,1.1929825,105.13671,-1028.491)"
       d="M 342,1308.3622 C 342,1371.3226 290.96046,1422.3622 228,1422.3622 165.03954,1422.3622 114,1371.3226 114,1308.3622 114,1245.4017 165.03954,1194.3622 228,1194.3622 290.96046,1194.3622 342,1245.4017 342,1308.3622 z"
       sodipodi:ry="114"
       sodipodi:rx="114"
       sodipodi:cy="1308.3622"
       sodipodi:cx="228"
       id="path5921"
       style="color:#000000;fill:#ff3610;fill-opacity:1;fill-rule:nonzero;stroke:none;stroke-width:6.4000001;marker:none;visibility:visible;display:inline;overflow:visible;enable-background:accumulate"
       sodipodi:type="arc" />
    <path
       style="font-size:121.81185913px;font-style:normal;font-variant:normal;font-weight:normal;font-stretch:normal;text-indent:0;text-align:start;text-decoration:none;line-height:125%;letter-spacing:0px;word-spacing:0px;text-transform:none;direction:ltr;block-progression:tb;writing-mode:lr-tb;text-anchor:start;baseline-shift:baseline;color:#000000;fill:#ffffff;fill-opacity:1;fill-rule:nonzero;stroke:none;stroke-width:10;marker:none;visibility:visible;display:inline;overflow:visible;enable-background:accumulate;font-family:Sans;-inkscape-font-specification:Sans"
       d="M 274.40625,496.5625 C 269.05469,496.56257 264.02897,497.75827 259.65625,500.1875 L 259.625,500.1875 C 258.99256,500.54281 258.47901,501.09423 257.875,501.5 L 257.875,498.1875 252.875,498.1875 241.875,498.1875 236.875,498.1875 236.875,503.1875 236.875,569.78125 236.875,574.78125 241.875,574.78125 252.875,574.78125 257.875,574.78125 257.875,569.78125 257.875,532.15625 C 257.87497,526.52731 259.23806,522.79955 261.6875,520.09375 264.13338,517.39192 267.12312,516.0938 271.96875,516.09375 275.82379,516.0938 277.63474,517.01601 279.09375,518.875 280.54641,520.72604 281.71871,524.28271 281.71875,529.9375 L 281.71875,569.78125 281.71875,574.78125 286.71875,574.78125 297.65625,574.78125 302.65625,574.78125 302.65625,569.78125 302.65625,529.59375 C 302.65617,519.6944 300.56021,511.47642 295.625,505.53125 295.61945,505.52457 295.63055,505.50668 295.625,505.5 L 295.59375,505.5 C 290.65243,499.53461 283.07866,496.56257 274.40625,496.5625 z"
       id="path3646" />
    <path
       id="path3575"
       style="font-size:121.81185913px;font-style:normal;font-variant:normal;font-weight:normal;font-stretch:normal;text-indent:0;text-align:start;text-decoration:none;line-height:125%;letter-spacing:0px;word-spacing:0px;text-transform:none;direction:ltr;block-progression:tb;writing-mode:lr-tb;text-anchor:start;baseline-shift:baseline;color:#000000;fill:#ffffff;fill-opacity:1;fill-rule:nonzero;stroke:none;stroke-width:10;marker:none;visibility:visible;display:inline;overflow:visible;enable-background:accumulate;font-family:Sans;-inkscape-font-specification:Sans"
       d="M 349.875,541.3125 355.59375,541.3125 C 355.21387,546.20145 353.82938,549.88407 351.4375,552.6875 348.67669,555.92841 345.54652,557.34376 340.65625,557.34375 337.13408,557.34376 335.04561,556.56444 333.53125,555.25 333.51946,555.23932 333.51168,555.22944 333.5,555.21875 332.02535,553.86959 331.37499,552.46301 331.375,549.6875 331.37498,545.97562 332.16922,544.74776 334.0625,543.625 335.8417,542.5699 341.41366,541.31253 349.875,541.3125 z M 342.96875,496.5625 C 339.04949,496.56257 335.05724,497.02499 331,497.875 L 331,497.84375 C 330.97819,497.84811 330.95931,497.87061 330.9375,497.875 326.88054,498.69075 322.71903,499.90218 318.5,501.53125 L 315.3125,502.78125 315.3125,506.21875 315.3125,516.3125 315.3125,524.75 322.71875,520.71875 C 325.69031,519.09151 328.74248,517.87008 331.9375,517.0625 335.14089,516.25289 338.43635,515.8438 341.84375,515.84375 347.05859,515.8438 350.38236,517.0315 352.53125,518.84375 L 352.5625,518.84375 352.59375,518.875 C 353.8585,519.91394 354.62135,521.19911 355.125,522.75 L 345.40625,522.75 C 334.81606,522.75004 326.20611,524.70668 319.90625,529.46875 313.65188,534.23403 310.43749,541.80087 310.4375,550.40625 310.43749,557.86904 312.96088,564.59673 317.96875,569.40625 L 318,569.4375 318.03125,569.4375 C 323.09718,574.20545 329.99955,576.53125 337.75,576.53125 343.73092,576.53125 349.09035,575.47245 353.6875,573.125 L 353.71875,573.09375 C 354.4219,572.72721 355.08396,572.27139 355.75,571.84375 L 355.75,574.78125 360.75,574.78125 371.71875,574.78125 376.71875,574.78125 376.71875,569.78125 376.71875,531.78125 C 376.71867,520.84908 374.11196,511.84582 368.1875,505.625 362.26678,499.4084 353.4684,496.56257 342.96875,496.5625 z" />
    <path
       id="path3577"
       style="font-size:121.81185913px;font-style:normal;font-variant:normal;font-weight:normal;font-stretch:normal;text-indent:0;text-align:start;text-decoration:none;line-height:125%;letter-spacing:0px;word-spacing:0px;text-transform:none;direction:ltr;block-progression:tb;writing-mode:lr-tb;text-anchor:start;baseline-shift:baseline;color:#000000;fill:#ffffff;fill-opacity:1;fill-rule:nonzero;stroke:none;stroke-width:10;marker:none;visibility:visible;display:inline;overflow:visible;enable-background:accumulate;font-family:Sans;-inkscape-font-specification:Sans"
       d="M 424.59375,541.3125 430.3125,541.3125 C 429.93262,546.20145 428.51688,549.88407 426.125,552.6875 423.36419,555.92841 420.26527,557.34376 415.375,557.34375 411.86789,557.34376 409.76295,556.55452 408.25,555.25 406.75056,553.89115 406.09374,552.48499 406.09375,549.6875 406.09373,545.97562 406.85672,544.74776 408.75,543.625 410.5292,542.5699 416.13241,541.31253 424.59375,541.3125 z M 417.6875,496.5625 C 413.75834,496.56257 409.75529,497.02074 405.6875,497.875 L 405.6875,497.84375 C 401.60958,498.6594 397.46047,499.89343 393.21875,501.53125 L 390.03125,502.78125 390.03125,506.21875 390.03125,516.3125 390.03125,524.75 397.40625,520.71875 C 400.37781,519.09151 403.46123,517.87008 406.65625,517.0625 409.85964,516.25289 413.1551,515.8438 416.5625,515.84375 421.77735,515.8438 425.10109,517.03149 427.25,518.84375 L 427.28125,518.84375 427.28125,518.875 C 428.5458,519.91377 429.30882,521.19947 429.8125,522.75 L 420.125,522.75 C 409.5348,522.75004 400.92486,524.70668 394.625,529.46875 L 394.59375,529.46875 C 388.33938,534.23403 385.15624,541.80087 385.15625,550.40625 385.15624,557.86904 387.67963,564.59673 392.6875,569.40625 L 392.71875,569.4375 C 397.78468,574.20545 404.68705,576.53125 412.4375,576.53125 418.41841,576.53125 423.8091,575.47245 428.40625,573.125 L 428.40625,573.09375 428.4375,573.09375 C 429.1455,572.72468 429.79838,572.27475 430.46875,571.84375 L 430.46875,574.78125 435.46875,574.78125 446.40625,574.78125 451.40625,574.78125 451.40625,569.78125 451.40625,531.78125 C 451.40619,520.84907 448.8307,511.84582 442.90625,505.625 436.98552,499.40839 428.18715,496.56257 417.6875,496.5625 z" />
    <path
       style="font-size:121.81185913px;font-style:normal;font-variant:normal;font-weight:normal;font-stretch:normal;text-indent:0;text-align:start;text-decoration:none;line-height:125%;letter-spacing:0px;word-spacing:0px;text-transform:none;direction:ltr;block-progression:tb;writing-mode:lr-tb;text-anchor:start;baseline-shift:baseline;color:#000000;fill:#ffffff;fill-opacity:1;fill-rule:nonzero;stroke:none;stroke-width:10;marker:none;visibility:visible;display:inline;overflow:visible;enable-background:accumulate;font-family:Sans;-inkscape-font-specification:Sans"
       d="M 463.84375,479.25 463.84375,484.25 463.84375,498.1875 460.8125,498.1875 455.8125,498.1875 455.8125,503.1875 455.8125,511.6875 455.8125,516.6875 460.8125,516.6875 463.84375,516.6875 463.84375,547.84375 C 463.84374,556.8136 465.3569,563.94703 470.125,568.65625 L 470.15625,568.65625 470.15625,568.6875 C 474.93636,573.3496 482.06088,574.78125 491.125,574.78125 L 502.375,574.78125 507.375,574.78125 507.375,569.78125 507.375,560.625 507.375,555.625 502.375,555.625 491.125,555.625 C 487.18048,555.62501 485.45731,554.58912 485.65625,554.8125 486.11074,555.24134 484.84373,552.7195 484.84375,547.84375 L 484.84375,516.6875 502.375,516.6875 507.375,516.6875 507.375,511.6875 507.375,503.1875 507.375,498.1875 502.375,498.1875 484.84375,498.1875 484.84328,484.25 484.84328,479.25018 479.84375,479.25018 468.84375,479.25 z"
       id="path3614"
       inkscape:connector-curvature="0"
       sodipodi:nodetypes="ccccccccccscccsccccccscsccccccccccccc" />
  </g>
</svg>
