<?xml version="1.0" encoding="UTF-8" standalone="no"?><svg xmlns="http://www.w3.org/2000/svg" xmlns:xlink="http://www.w3.org/1999/xlink" clip-rule="evenodd" stroke-miterlimit="10" viewBox="0 0 1920 1080"><desc>SVG generated by Keynote</desc><defs></defs><g transform="matrix(1.00, 0.00, -0.00, -1.00, 0.0, 1080.0)"><path d="M 0.0 1080.0 L 1920.0 1080.0 L 1920.0 0.0 L 0.0 0.0 Z M 0.0 1080.0 " fill="#FEFFFF"></path><path d="M 0.0 -0.1 L 776.0 -0.1 L 776.0 338.9 L 0.0 338.9 Z M 0.0 0.0 " fill="none" stroke="#85878C" stroke-width="2.00" transform="matrix(1.00, 0.00, 0.00, -1.00, 572.0, 454.9)"></path><text xml:space="preserve" font-family="HelveticaNeue-CondensedBold,Helvetica Neue" font-weight="bold" font-size="50.0" fill="#000000" transform="matrix(1.00, 0.00, -0.00, -1.00, 610.4, 909.4)">I</text><text xml:space="preserve" font-family="HelveticaNeue-CondensedBold,Helvetica Neue" font-weight="bold" font-size="50.0" fill="#000000" transform="matrix(1.00, 0.00, -0.00, -1.00, 623.3, 909.4)">n</text><text xml:space="preserve" font-family="HelveticaNeue-CondensedBold,Helvetica Neue" font-weight="bold" font-size="50.0" fill="#000000" transform="matrix(1.00, 0.00, -0.00, -1.00, 648.3, 909.4)">h</text><text xml:space="preserve" font-family="HelveticaNeue-CondensedBold,Helvetica Neue" font-weight="bold" font-size="50.0" fill="#000000" transform="matrix(1.00, 0.00, -0.00, -1.00, 673.3, 909.4)">e</text><text xml:space="preserve" font-family="HelveticaNeue-CondensedBold,Helvetica Neue" font-weight="bold" font-size="50.0" fill="#000000" transform="matrix(1.00, 0.00, -0.00, -1.00, 696.4, 909.4)">r</text><text xml:space="preserve" font-family="HelveticaNeue-CondensedBold,Helvetica Neue" font-weight="bold" font-size="50.0" fill="#000000" transform="matrix(1.00, 0.00, -0.00, -1.00, 713.1, 909.4)">i</text><text xml:space="preserve" font-family="HelveticaNeue-CondensedBold,Helvetica Neue" font-weight="bold" font-size="50.0" fill="#000000" transform="matrix(1.00, 0.00, -0.00, -1.00, 725.1, 909.4)">t</text><text xml:space="preserve" font-family="HelveticaNeue-CondensedBold,Helvetica Neue" font-weight="bold" font-size="50.0" fill="#000000" transform="matrix(1.00, 0.00, -0.00, -1.00, 739.9, 909.4)">a</text><text xml:space="preserve" font-family="HelveticaNeue-CondensedBold,Helvetica Neue" font-weight="bold" font-size="50.0" fill="#000000" transform="matrix(1.00, 0.00, -0.00, -1.00, 763.9, 909.4)">b</text><text xml:space="preserve" font-family="HelveticaNeue-CondensedBold,Helvetica Neue" font-weight="bold" font-size="50.0" fill="#000000" transform="matrix(1.00, 0.00, -0.00, -1.00, 788.9, 909.4)">l</text><text xml:space="preserve" font-family="HelveticaNeue-CondensedBold,Helvetica Neue" font-weight="bold" font-size="50.0" fill="#000000" transform="matrix(1.00, 0.00, -0.00, -1.00, 800.9, 909.4)">e</text><text xml:space="preserve" font-family="HelveticaNeue-CondensedBold,Helvetica Neue" font-weight="bold" font-size="50.0" fill="#000000" transform="matrix(1.00, 0.00, -0.00, -1.00, 824.1, 909.4)"> </text><text xml:space="preserve" font-family="HelveticaNeue-CondensedBold,Helvetica Neue" font-weight="bold" font-size="50.0" fill="#000000" transform="matrix(1.00, 0.00, -0.00, -1.00, 836.1, 909.4)">f</text><text xml:space="preserve" font-family="HelveticaNeue-CondensedBold,Helvetica Neue" font-weight="bold" font-size="50.0" fill="#000000" transform="matrix(1.00, 0.00, -0.00, -1.00, 850.9, 909.4)">a</text><text xml:space="preserve" font-family="HelveticaNeue-CondensedBold,Helvetica Neue" font-weight="bold" font-size="50.0" fill="#000000" transform="matrix(1.00, 0.00, -0.00, -1.00, 874.9, 909.4)">c</text><text xml:space="preserve" font-family="HelveticaNeue-CondensedBold,Helvetica Neue" font-weight="bold" font-size="50.0" fill="#000000" transform="matrix(1.00, 0.00, -0.00, -1.00, 898.1, 909.4)">t</text><text xml:space="preserve" font-family="HelveticaNeue-CondensedBold,Helvetica Neue" font-weight="bold" font-size="50.0" fill="#000000" transform="matrix(1.00, 0.00, -0.00, -1.00, 912.9, 909.4)">o</text><text xml:space="preserve" font-family="HelveticaNeue-CondensedBold,Helvetica Neue" font-weight="bold" font-size="50.0" fill="#000000" transform="matrix(1.00, 0.00, -0.00, -1.00, 936.9, 909.4)">r</text><text xml:space="preserve" font-family="HelveticaNeue-CondensedBold,Helvetica Neue" font-weight="bold" font-size="50.0" fill="#000000" transform="matrix(1.00, 0.00, -0.00, -1.00, 953.5, 909.4)">s</text><text xml:space="preserve" font-family="HelveticaNeue-CondensedBold,Helvetica Neue" font-weight="bold" font-size="50.0" fill="#000000" transform="matrix(1.00, 0.00, -0.00, -1.00, 975.7, 909.4)"> </text><text xml:space="preserve" font-family="HelveticaNeue-CondensedBold,Helvetica Neue" font-weight="bold" font-size="50.0" fill="#000000" transform="matrix(1.00, 0.00, -0.00, -1.00, 987.7, 909.4)">+</text><text xml:space="preserve" font-family="HelveticaNeue-CondensedBold,Helvetica Neue" font-weight="bold" font-size="50.0" fill="#000000" transform="matrix(1.00, 0.00, -0.00, -1.00, 1017.7, 909.4)"> </text><text xml:space="preserve" font-family="HelveticaNeue-CondensedBold,Helvetica Neue" font-weight="bold" font-size="50.0" fill="#000000" transform="matrix(1.00, 0.00, -0.00, -1.00, 1029.7, 909.4)">S</text><text xml:space="preserve" font-family="HelveticaNeue-CondensedBold,Helvetica Neue" font-weight="bold" font-size="50.0" fill="#000000" transform="matrix(1.00, 0.00, -0.00, -1.00, 1055.7, 909.4)">h</text><text xml:space="preserve" font-family="HelveticaNeue-CondensedBold,Helvetica Neue" font-weight="bold" font-size="50.0" fill="#000000" transform="matrix(1.00, 0.00, -0.00, -1.00, 1080.7, 909.4)">a</text><text xml:space="preserve" font-family="HelveticaNeue-CondensedBold,Helvetica Neue" font-weight="bold" font-size="50.0" fill="#000000" transform="matrix(1.00, 0.00, -0.00, -1.00, 1104.7, 909.4)">r</text><text xml:space="preserve" font-family="HelveticaNeue-CondensedBold,Helvetica Neue" font-weight="bold" font-size="50.0" fill="#000000" transform="matrix(1.00, 0.00, -0.00, -1.00, 1121.4, 909.4)">e</text><text xml:space="preserve" font-family="HelveticaNeue-CondensedBold,Helvetica Neue" font-weight="bold" font-size="50.0" fill="#000000" transform="matrix(1.00, 0.00, -0.00, -1.00, 1144.5, 909.4)">d</text><text xml:space="preserve" font-family="HelveticaNeue-CondensedBold,Helvetica Neue" font-weight="bold" font-size="50.0" fill="#000000" transform="matrix(1.00, 0.00, -0.00, -1.00, 1169.5, 909.4)"> </text><text xml:space="preserve" font-family="HelveticaNeue-CondensedBold,Helvetica Neue" font-weight="bold" font-size="50.0" fill="#000000" transform="matrix(1.00, 0.00, -0.00, -1.00, 1181.5, 909.4)">e</text><text xml:space="preserve" font-family="HelveticaNeue-CondensedBold,Helvetica Neue" font-weight="bold" font-size="50.0" fill="#000000" transform="matrix(1.00, 0.00, -0.00, -1.00, 1204.7, 909.4)">n</text><text xml:space="preserve" font-family="HelveticaNeue-CondensedBold,Helvetica Neue" font-weight="bold" font-size="50.0" fill="#000000" transform="matrix(1.00, 0.00, -0.00, -1.00, 1229.7, 909.4)">v</text><text xml:space="preserve" font-family="HelveticaNeue-CondensedBold,Helvetica Neue" font-weight="bold" font-size="50.0" fill="#000000" transform="matrix(1.00, 0.00, -0.00, -1.00, 1251.9, 909.4)">i</text><text xml:space="preserve" font-family="HelveticaNeue-CondensedBold,Helvetica Neue" font-weight="bold" font-size="50.0" fill="#000000" transform="matrix(1.00, 0.00, -0.00, -1.00, 1263.9, 909.4)">r</text><text xml:space="preserve" font-family="HelveticaNeue-CondensedBold,Helvetica Neue" font-weight="bold" font-size="50.0" fill="#000000" transform="matrix(1.00, 0.00, -0.00, -1.00, 1280.5, 909.4)">o</text><text xml:space="preserve" font-family="HelveticaNeue-CondensedBold,Helvetica Neue" font-weight="bold" font-size="50.0" fill="#000000" transform="matrix(1.00, 0.00, -0.00, -1.00, 1304.5, 909.4)">n</text><text xml:space="preserve" font-family="HelveticaNeue-CondensedBold,Helvetica Neue" font-weight="bold" font-size="50.0" fill="#000000" transform="matrix(1.00, 0.00, -0.00, -1.00, 1329.5, 909.4)">m</text><text xml:space="preserve" font-family="HelveticaNeue-CondensedBold,Helvetica Neue" font-weight="bold" font-size="50.0" fill="#000000" transform="matrix(1.00, 0.00, -0.00, -1.00, 1367.4, 909.4)">e</text><text xml:space="preserve" font-family="HelveticaNeue-CondensedBold,Helvetica Neue" font-weight="bold" font-size="50.0" fill="#000000" transform="matrix(1.00, 0.00, -0.00, -1.00, 1390.6, 909.4)">n</text><text xml:space="preserve" font-family="HelveticaNeue-CondensedBold,Helvetica Neue" font-weight="bold" font-size="50.0" fill="#000000" transform="matrix(1.00, 0.00, -0.00, -1.00, 1415.6, 909.4)">t</text><image xlink:href="918006E50BAA9A7AA8EE6ABA49CCC1B3.png" width="878.00" height="508.00" transform="matrix(0.57, 0.00, -0.00, -0.57, 695.0, 797.0)"></image><image xlink:href="C67A499D9D3C6AFD89B0DAC50510228B.png" width="1246.00" height="510.00" transform="matrix(0.58, 0.00, -0.00, -0.57, 621.0, 424.0)"></image><image xlink:href="9C949ED9EB2EE79E837BD3828441CD5D.png" width="196.00" height="94.00" transform="matrix(0.60, 0.00, -0.00, -0.61, 474.0, 950.0)"></image></g></svg>