<?xml version="1.0" encoding="UTF-8" standalone="no"?><svg xmlns="http://www.w3.org/2000/svg" xmlns:xlink="http://www.w3.org/1999/xlink" clip-rule="evenodd" stroke-miterlimit="4.00" viewBox="0 0 1920 1080"><desc>SVG generated by Keynote</desc><defs></defs><g transform="matrix(1.00, 0.00, -0.00, -1.00, 0.0, 1080.0)"><path d="M 0.0 1080.0 L 1920.0 1080.0 L 1920.0 0.0 L 0.0 0.0 Z M 0.0 1080.0 " fill="#FEFFFF"></path><image xlink:href="B89D51A152EAD2BE33530E57866CB959.png" width="673.00" height="540.00" transform="matrix(1.64, 0.00, -0.00, -1.64, 774.0, 983.0)"></image><text xml:space="preserve" font-family="HelveticaNeue-CondensedBold" font-weight="bold" font-size="54.0" fill="#000000" transform="matrix(1.00, 0.00, -0.00, -1.00, 117.0, 554.0)">h</text><text xml:space="preserve" font-family="HelveticaNeue-CondensedBold" font-weight="bold" font-size="54.0" fill="#000000" transform="matrix(1.00, 0.00, -0.00, -1.00, 144.0, 554.0)">t</text><text xml:space="preserve" font-family="HelveticaNeue-CondensedBold" font-weight="bold" font-size="54.0" fill="#000000" transform="matrix(1.00, 0.00, -0.00, -1.00, 160.0, 554.0)">t</text><text xml:space="preserve" font-family="HelveticaNeue-CondensedBold" font-weight="bold" font-size="54.0" fill="#000000" transform="matrix(1.00, 0.00, -0.00, -1.00, 176.0, 554.0)">p</text><text xml:space="preserve" font-family="HelveticaNeue-CondensedBold" font-weight="bold" font-size="54.0" fill="#000000" transform="matrix(1.00, 0.00, -0.00, -1.00, 203.0, 554.0)">s</text><text xml:space="preserve" font-family="HelveticaNeue-CondensedBold" font-weight="bold" font-size="54.0" fill="#000000" transform="matrix(1.00, 0.00, -0.00, -1.00, 226.9, 554.0)">:</text><text xml:space="preserve" font-family="HelveticaNeue-CondensedBold" font-weight="bold" font-size="54.0" fill="#000000" transform="matrix(1.00, 0.00, -0.00, -1.00, 239.9, 554.0)">/</text><text xml:space="preserve" font-family="HelveticaNeue-CondensedBold" font-weight="bold" font-size="54.0" fill="#000000" transform="matrix(1.00, 0.00, -0.00, -1.00, 257.8, 554.0)">/</text><text xml:space="preserve" font-family="HelveticaNeue-CondensedBold" font-weight="bold" font-size="54.0" fill="#000000" transform="matrix(1.00, 0.00, -0.00, -1.00, 275.8, 554.0)">g</text><text xml:space="preserve" font-family="HelveticaNeue-CondensedBold" font-weight="bold" font-size="54.0" fill="#000000" transform="matrix(1.00, 0.00, -0.00, -1.00, 302.8, 554.0)">i</text><text xml:space="preserve" font-family="HelveticaNeue-CondensedBold" font-weight="bold" font-size="54.0" fill="#000000" transform="matrix(1.00, 0.00, -0.00, -1.00, 315.7, 554.0)">t</text><text xml:space="preserve" font-family="HelveticaNeue-CondensedBold" font-weight="bold" font-size="54.0" fill="#000000" transform="matrix(1.00, 0.00, -0.00, -1.00, 331.7, 554.0)">h</text><text xml:space="preserve" font-family="HelveticaNeue-CondensedBold" font-weight="bold" font-size="54.0" fill="#000000" transform="matrix(1.00, 0.00, -0.00, -1.00, 358.7, 554.0)">u</text><text xml:space="preserve" font-family="HelveticaNeue-CondensedBold" font-weight="bold" font-size="54.0" fill="#000000" transform="matrix(1.00, 0.00, -0.00, -1.00, 385.7, 554.0)">b</text><text xml:space="preserve" font-family="HelveticaNeue-CondensedBold" font-weight="bold" font-size="54.0" fill="#000000" transform="matrix(1.00, 0.00, -0.00, -1.00, 412.7, 554.0)">.</text><text xml:space="preserve" font-family="HelveticaNeue-CondensedBold" font-weight="bold" font-size="54.0" fill="#000000" transform="matrix(1.00, 0.00, -0.00, -1.00, 425.7, 554.0)">c</text><text xml:space="preserve" font-family="HelveticaNeue-CondensedBold" font-weight="bold" font-size="54.0" fill="#000000" transform="matrix(1.00, 0.00, -0.00, -1.00, 450.7, 554.0)">o</text><text xml:space="preserve" font-family="HelveticaNeue-CondensedBold" font-weight="bold" font-size="54.0" fill="#000000" transform="matrix(1.00, 0.00, -0.00, -1.00, 476.6, 554.0)">m</text><text xml:space="preserve" font-family="HelveticaNeue-CondensedBold" font-weight="bold" font-size="54.0" fill="#000000" transform="matrix(1.00, 0.00, -0.00, -1.00, 517.5, 554.0)">/</text><text xml:space="preserve" font-family="HelveticaNeue-CondensedBold" font-weight="bold" font-size="54.0" fill="#000000" transform="matrix(1.00, 0.00, -0.00, -1.00, 535.4, 554.0)">r</text><text xml:space="preserve" font-family="HelveticaNeue-CondensedBold" font-weight="bold" font-size="54.0" fill="#000000" transform="matrix(1.00, 0.00, -0.00, -1.00, 553.4, 554.0)">0</text><text xml:space="preserve" font-family="HelveticaNeue-CondensedBold" font-weight="bold" font-size="54.0" fill="#000000" transform="matrix(1.00, 0.00, -0.00, -1.00, 579.3, 554.0)">3</text><text xml:space="preserve" font-family="HelveticaNeue-CondensedBold" font-weight="bold" font-size="54.0" fill="#000000" transform="matrix(1.00, 0.00, -0.00, -1.00, 605.3, 554.0)">e</text><text xml:space="preserve" font-family="HelveticaNeue-CondensedBold" font-weight="bold" font-size="54.0" fill="#000000" transform="matrix(1.00, 0.00, -0.00, -1.00, 630.3, 554.0)">r</text><text xml:space="preserve" font-family="HelveticaNeue-CondensedBold" font-weight="bold" font-size="54.0" fill="#000000" transform="matrix(1.00, 0.00, -0.00, -1.00, 648.3, 554.0)">t</text><text xml:space="preserve" font-family="HelveticaNeue-CondensedBold" font-weight="bold" font-size="54.0" fill="#000000" transform="matrix(1.00, 0.00, -0.00, -1.00, 664.2, 554.0)">0</text><text xml:space="preserve" font-family="HelveticaNeue-CondensedBold" font-weight="bold" font-size="54.0" fill="#000000" transform="matrix(1.00, 0.00, -0.00, -1.00, 690.2, 554.0)">/</text><text xml:space="preserve" font-family="HelveticaNeue-CondensedBold" font-weight="bold" font-size="54.0" fill="#000000" transform="matrix(1.00, 0.00, -0.00, -1.00, 336.0, 488.0)">g</text><text xml:space="preserve" font-family="HelveticaNeue-CondensedBold" font-weight="bold" font-size="54.0" fill="#000000" transform="matrix(1.00, 0.00, -0.00, -1.00, 363.0, 488.0)">r</text><text xml:space="preserve" font-family="HelveticaNeue-CondensedBold" font-weight="bold" font-size="54.0" fill="#000000" transform="matrix(1.00, 0.00, -0.00, -1.00, 381.0, 488.0)">o</text><text xml:space="preserve" font-family="HelveticaNeue-CondensedBold" font-weight="bold" font-size="54.0" fill="#000000" transform="matrix(1.00, 0.00, -0.00, -1.00, 407.4, 488.0)">w</text><text xml:space="preserve" font-family="HelveticaNeue-CondensedBold" font-weight="bold" font-size="54.0" fill="#000000" transform="matrix(1.00, 0.00, -0.00, -1.00, 445.5, 488.0)">t</text><text xml:space="preserve" font-family="HelveticaNeue-CondensedBold" font-weight="bold" font-size="54.0" fill="#000000" transform="matrix(1.00, 0.00, -0.00, -1.00, 461.4, 488.0)">h</text><text xml:space="preserve" font-family="HelveticaNeue" font-size="36.0" fill="#000000" transform="matrix(1.00, 0.00, -0.00, -1.00, 1754.7, 14.1)">T</text><text xml:space="preserve" font-family="HelveticaNeue" font-size="36.0" fill="#000000" transform="matrix(1.00, 0.00, -0.00, -1.00, 1771.4, 14.1)">o</text><text xml:space="preserve" font-family="HelveticaNeue" font-size="36.0" fill="#000000" transform="matrix(1.00, 0.00, -0.00, -1.00, 1792.0, 14.1)">r</text><text xml:space="preserve" font-family="HelveticaNeue" font-size="36.0" fill="#000000" transform="matrix(1.00, 0.00, -0.00, -1.00, 1803.4, 14.1)">o</text><text xml:space="preserve" font-family="HelveticaNeue" font-size="36.0" fill="#000000" transform="matrix(1.00, 0.00, -0.00, -1.00, 1824.0, 14.1)"> </text><text xml:space="preserve" font-family="HelveticaNeue" font-size="36.0" fill="#000000" transform="matrix(1.00, 0.00, -0.00, -1.00, 1834.0, 14.1)">2</text><text xml:space="preserve" font-family="HelveticaNeue" font-size="36.0" fill="#000000" transform="matrix(1.00, 0.00, -0.00, -1.00, 1854.0, 14.1)">0</text><text xml:space="preserve" font-family="HelveticaNeue" font-size="36.0" fill="#000000" transform="matrix(1.00, 0.00, -0.00, -1.00, 1874.1, 14.1)">1</text><text xml:space="preserve" font-family="HelveticaNeue" font-size="36.0" fill="#000000" transform="matrix(1.00, 0.00, -0.00, -1.00, 1894.1, 14.1)">2</text></g></svg>