<?xml version="1.0" encoding="UTF-8" standalone="no"?><svg xmlns="http://www.w3.org/2000/svg" xmlns:xlink="http://www.w3.org/1999/xlink" clip-rule="evenodd" stroke-miterlimit="10" viewBox="0 0 1920 1080"><desc>SVG generated by Keynote</desc><defs></defs><g transform="matrix(1.00, 0.00, -0.00, -1.00, 0.0, 1080.0)"><path d="M 0.0 1080.0 L 1920.0 1080.0 L 1920.0 0.0 L 0.0 0.0 Z M 0.0 1080.0 " fill="#FEFFFF"></path><image xlink:href="18811E84DB1D19C0849C02924F52D545.png" width="1280.00" height="1596.00" transform="matrix(0.31, 0.00, -0.00, -0.31, 379.0, 1018.0)"></image><image xlink:href="A4114C8133AA8E4566D1B639136F5A01.png" width="1280.00" height="1711.00" transform="matrix(0.31, 0.00, -0.00, -0.31, 594.0, 587.0)"></image><image xlink:href="D4C4ED7EEA1BEB34282DB46F361C53E0.png" width="1280.00" height="1681.00" transform="matrix(0.31, 0.00, -0.00, -0.31, 179.0, 581.0)"></image><image xlink:href="5537EE1F4A75D80DB8EE552577F80F91.png" width="1280.00" height="1612.00" transform="matrix(0.31, 0.00, -0.00, -0.31, 1381.0, 571.0)"></image><image xlink:href="9DD39639BCF42863EE55F1CF1A16F308.png" width="1280.00" height="1409.00" transform="matrix(0.31, 0.00, -0.00, -0.31, 781.0, 990.0)"></image><image xlink:href="B77C7BF5CD9AE286150863B24B900628.png" width="1280.00" height="1598.00" transform="matrix(0.31, 0.00, -0.00, -0.31, 978.0, 569.0)"></image><image xlink:href="399972F676546566CF7C9D60C698C0B7.png" width="1280.00" height="1511.00" transform="matrix(0.31, 0.00, -0.00, -0.31, 1547.0, 1005.0)"></image><image xlink:href="8F031E59F8ACC1FC25F41866C7267327.png" width="1280.00" height="1597.00" transform="matrix(0.31, 0.00, -0.00, -0.31, -14.0, 1019.0)"></image><image xlink:href="60196691E6D8FB3EA2FA649C1C18419C.png" width="1280.00" height="1545.00" transform="matrix(0.31, 0.00, -0.00, -0.31, 1172.0, 1011.0)"></image></g></svg>