<?xml version="1.0" encoding="UTF-8" standalone="no"?><svg xmlns="http://www.w3.org/2000/svg" xmlns:xlink="http://www.w3.org/1999/xlink" clip-rule="evenodd" stroke-miterlimit="10" viewBox="0 0 1920 1080"><desc>SVG generated by Keynote</desc><defs></defs><g transform="matrix(1.00, 0.00, -0.00, -1.00, 0.0, 1080.0)"><path d="M 0.0 1080.0 L 1920.0 1080.0 L 1920.0 0.0 L 0.0 0.0 Z M 0.0 1080.0 " fill="#125C84"></path><image xlink:href="4F141493B576F92DE0E47752B5BD5CE2.png" width="792.00" height="787.00" transform="matrix(0.63, 0.00, -0.00, -0.63, 904.0, 861.0)"></image><image xlink:href="1A997C3D45EB86987E0FC83DE3107B73.png" width="720.00" height="779.00" transform="matrix(0.63, 0.00, -0.00, -0.63, 482.0, 860.0)"></image><image xlink:href="F7D66559D2CB6248AF4927833C9370A8.png" width="623.00" height="788.00" transform="matrix(0.62, 0.00, -0.00, -0.62, 95.0, 861.0)"></image><image xlink:href="541DED64EA8F32712055DD4F525E72B5.png" width="798.00" height="890.00" transform="matrix(0.55, 0.00, -0.00, -0.55, 1368.0, 861.0)"></image><text xml:space="preserve" font-family="HelveticaNeue-CondensedBold,Helvetica Neue" font-weight="bold" font-size="55.0" fill="#FFFFFF" transform="matrix(1.00, 0.00, -0.00, -1.00, 34.0, 238.9)">A</text><text xml:space="preserve" font-family="HelveticaNeue-CondensedBold,Helvetica Neue" font-weight="bold" font-size="55.0" fill="#FFFFFF" transform="matrix(1.00, 0.00, -0.00, -1.00, 64.6, 238.9)">n</text><text xml:space="preserve" font-family="HelveticaNeue-CondensedBold,Helvetica Neue" font-weight="bold" font-size="55.0" fill="#FFFFFF" transform="matrix(1.00, 0.00, -0.00, -1.00, 92.1, 238.9)"> </text><text xml:space="preserve" font-family="HelveticaNeue-CondensedBold,Helvetica Neue" font-weight="bold" font-size="55.0" fill="#FFFFFF" transform="matrix(1.00, 0.00, -0.00, -1.00, 105.3, 238.9)">e</text><text xml:space="preserve" font-family="HelveticaNeue-CondensedBold,Helvetica Neue" font-weight="bold" font-size="55.0" fill="#FFFFFF" transform="matrix(1.00, 0.00, -0.00, -1.00, 130.8, 238.9)">v</text><text xml:space="preserve" font-family="HelveticaNeue-CondensedBold,Helvetica Neue" font-weight="bold" font-size="55.0" fill="#FFFFFF" transform="matrix(1.00, 0.00, -0.00, -1.00, 155.2, 238.9)">o</text><text xml:space="preserve" font-family="HelveticaNeue-CondensedBold,Helvetica Neue" font-weight="bold" font-size="55.0" fill="#FFFFFF" transform="matrix(1.00, 0.00, -0.00, -1.00, 181.6, 238.9)">l</text><text xml:space="preserve" font-family="HelveticaNeue-CondensedBold,Helvetica Neue" font-weight="bold" font-size="55.0" fill="#FFFFFF" transform="matrix(1.00, 0.00, -0.00, -1.00, 194.8, 238.9)">u</text><text xml:space="preserve" font-family="HelveticaNeue-CondensedBold,Helvetica Neue" font-weight="bold" font-size="55.0" fill="#FFFFFF" transform="matrix(1.00, 0.00, -0.00, -1.00, 222.3, 238.9)">t</text><text xml:space="preserve" font-family="HelveticaNeue-CondensedBold,Helvetica Neue" font-weight="bold" font-size="55.0" fill="#FFFFFF" transform="matrix(1.00, 0.00, -0.00, -1.00, 238.6, 238.9)">i</text><text xml:space="preserve" font-family="HelveticaNeue-CondensedBold,Helvetica Neue" font-weight="bold" font-size="55.0" fill="#FFFFFF" transform="matrix(1.00, 0.00, -0.00, -1.00, 251.8, 238.9)">o</text><text xml:space="preserve" font-family="HelveticaNeue-CondensedBold,Helvetica Neue" font-weight="bold" font-size="55.0" fill="#FFFFFF" transform="matrix(1.00, 0.00, -0.00, -1.00, 278.2, 238.9)">n</text><text xml:space="preserve" font-family="HelveticaNeue-CondensedBold,Helvetica Neue" font-weight="bold" font-size="55.0" fill="#FFFFFF" transform="matrix(1.00, 0.00, -0.00, -1.00, 305.7, 238.9)">a</text><text xml:space="preserve" font-family="HelveticaNeue-CondensedBold,Helvetica Neue" font-weight="bold" font-size="55.0" fill="#FFFFFF" transform="matrix(1.00, 0.00, -0.00, -1.00, 332.1, 238.9)">r</text><text xml:space="preserve" font-family="HelveticaNeue-CondensedBold,Helvetica Neue" font-weight="bold" font-size="55.0" fill="#FFFFFF" transform="matrix(1.00, 0.00, -0.00, -1.00, 351.4, 238.9)">y</text><text xml:space="preserve" font-family="HelveticaNeue-CondensedBold,Helvetica Neue" font-weight="bold" font-size="55.0" fill="#FFFFFF" transform="matrix(1.00, 0.00, -0.00, -1.00, 375.8, 238.9)"> </text><text xml:space="preserve" font-family="HelveticaNeue-CondensedBold,Helvetica Neue" font-weight="bold" font-size="55.0" fill="#FFFFFF" transform="matrix(1.00, 0.00, -0.00, -1.00, 389.0, 238.9)">a</text><text xml:space="preserve" font-family="HelveticaNeue-CondensedBold,Helvetica Neue" font-weight="bold" font-size="55.0" fill="#FFFFFF" transform="matrix(1.00, 0.00, -0.00, -1.00, 415.5, 238.9)">n</text><text xml:space="preserve" font-family="HelveticaNeue-CondensedBold,Helvetica Neue" font-weight="bold" font-size="55.0" fill="#FFFFFF" transform="matrix(1.00, 0.00, -0.00, -1.00, 443.0, 238.9)">d</text><text xml:space="preserve" font-family="HelveticaNeue-CondensedBold,Helvetica Neue" font-weight="bold" font-size="55.0" fill="#FFFFFF" transform="matrix(1.00, 0.00, -0.00, -1.00, 470.5, 238.9)"> </text><text xml:space="preserve" font-family="HelveticaNeue-CondensedBold,Helvetica Neue" font-weight="bold" font-size="55.0" fill="#FFFFFF" transform="matrix(1.00, 0.00, -0.00, -1.00, 483.7, 238.9)">d</text><text xml:space="preserve" font-family="HelveticaNeue-CondensedBold,Helvetica Neue" font-weight="bold" font-size="55.0" fill="#FFFFFF" transform="matrix(1.00, 0.00, -0.00, -1.00, 511.2, 238.9)">e</text><text xml:space="preserve" font-family="HelveticaNeue-CondensedBold,Helvetica Neue" font-weight="bold" font-size="55.0" fill="#FFFFFF" transform="matrix(1.00, 0.00, -0.00, -1.00, 536.7, 238.9)">v</text><text xml:space="preserve" font-family="HelveticaNeue-CondensedBold,Helvetica Neue" font-weight="bold" font-size="55.0" fill="#FFFFFF" transform="matrix(1.00, 0.00, -0.00, -1.00, 561.1, 238.9)">e</text><text xml:space="preserve" font-family="HelveticaNeue-CondensedBold,Helvetica Neue" font-weight="bold" font-size="55.0" fill="#FFFFFF" transform="matrix(1.00, 0.00, -0.00, -1.00, 586.5, 238.9)">l</text><text xml:space="preserve" font-family="HelveticaNeue-CondensedBold,Helvetica Neue" font-weight="bold" font-size="55.0" fill="#FFFFFF" transform="matrix(1.00, 0.00, -0.00, -1.00, 599.7, 238.9)">o</text><text xml:space="preserve" font-family="HelveticaNeue-CondensedBold,Helvetica Neue" font-weight="bold" font-size="55.0" fill="#FFFFFF" transform="matrix(1.00, 0.00, -0.00, -1.00, 626.1, 238.9)">p</text><text xml:space="preserve" font-family="HelveticaNeue-CondensedBold,Helvetica Neue" font-weight="bold" font-size="55.0" fill="#FFFFFF" transform="matrix(1.00, 0.00, -0.00, -1.00, 653.6, 238.9)">m</text><text xml:space="preserve" font-family="HelveticaNeue-CondensedBold,Helvetica Neue" font-weight="bold" font-size="55.0" fill="#FFFFFF" transform="matrix(1.00, 0.00, -0.00, -1.00, 695.3, 238.9)">e</text><text xml:space="preserve" font-family="HelveticaNeue-CondensedBold,Helvetica Neue" font-weight="bold" font-size="55.0" fill="#FFFFFF" transform="matrix(1.00, 0.00, -0.00, -1.00, 720.8, 238.9)">n</text><text xml:space="preserve" font-family="HelveticaNeue-CondensedBold,Helvetica Neue" font-weight="bold" font-size="55.0" fill="#FFFFFF" transform="matrix(1.00, 0.00, -0.00, -1.00, 748.3, 238.9)">t</text><text xml:space="preserve" font-family="HelveticaNeue-CondensedBold,Helvetica Neue" font-weight="bold" font-size="55.0" fill="#FFFFFF" transform="matrix(1.00, 0.00, -0.00, -1.00, 764.6, 238.9)">a</text><text xml:space="preserve" font-family="HelveticaNeue-CondensedBold,Helvetica Neue" font-weight="bold" font-size="55.0" fill="#FFFFFF" transform="matrix(1.00, 0.00, -0.00, -1.00, 791.0, 238.9)">l</text><text xml:space="preserve" font-family="HelveticaNeue-CondensedBold,Helvetica Neue" font-weight="bold" font-size="55.0" fill="#FFFFFF" transform="matrix(1.00, 0.00, -0.00, -1.00, 804.2, 238.9)"> </text><text xml:space="preserve" font-family="HelveticaNeue-CondensedBold,Helvetica Neue" font-weight="bold" font-size="55.0" fill="#FFFFFF" transform="matrix(1.00, 0.00, -0.00, -1.00, 817.4, 238.9)">p</text><text xml:space="preserve" font-family="HelveticaNeue-CondensedBold,Helvetica Neue" font-weight="bold" font-size="55.0" fill="#FFFFFF" transform="matrix(1.00, 0.00, -0.00, -1.00, 844.9, 238.9)">e</text><text xml:space="preserve" font-family="HelveticaNeue-CondensedBold,Helvetica Neue" font-weight="bold" font-size="55.0" fill="#FFFFFF" transform="matrix(1.00, 0.00, -0.00, -1.00, 870.4, 238.9)">r</text><text xml:space="preserve" font-family="HelveticaNeue-CondensedBold,Helvetica Neue" font-weight="bold" font-size="55.0" fill="#FFFFFF" transform="matrix(1.00, 0.00, -0.00, -1.00, 888.7, 238.9)">s</text><text xml:space="preserve" font-family="HelveticaNeue-CondensedBold,Helvetica Neue" font-weight="bold" font-size="55.0" fill="#FFFFFF" transform="matrix(1.00, 0.00, -0.00, -1.00, 913.1, 238.9)">p</text><text xml:space="preserve" font-family="HelveticaNeue-CondensedBold,Helvetica Neue" font-weight="bold" font-size="55.0" fill="#FFFFFF" transform="matrix(1.00, 0.00, -0.00, -1.00, 940.6, 238.9)">e</text><text xml:space="preserve" font-family="HelveticaNeue-CondensedBold,Helvetica Neue" font-weight="bold" font-size="55.0" fill="#FFFFFF" transform="matrix(1.00, 0.00, -0.00, -1.00, 966.1, 238.9)">c</text><text xml:space="preserve" font-family="HelveticaNeue-CondensedBold,Helvetica Neue" font-weight="bold" font-size="55.0" fill="#FFFFFF" transform="matrix(1.00, 0.00, -0.00, -1.00, 991.6, 238.9)">t</text><text xml:space="preserve" font-family="HelveticaNeue-CondensedBold,Helvetica Neue" font-weight="bold" font-size="55.0" fill="#FFFFFF" transform="matrix(1.00, 0.00, -0.00, -1.00, 1007.8, 238.9)">i</text><text xml:space="preserve" font-family="HelveticaNeue-CondensedBold,Helvetica Neue" font-weight="bold" font-size="55.0" fill="#FFFFFF" transform="matrix(1.00, 0.00, -0.00, -1.00, 1021.0, 238.9)">v</text><text xml:space="preserve" font-family="HelveticaNeue-CondensedBold,Helvetica Neue" font-weight="bold" font-size="55.0" fill="#FFFFFF" transform="matrix(1.00, 0.00, -0.00, -1.00, 1045.5, 238.9)">e</text><text xml:space="preserve" font-family="HelveticaNeue-CondensedBold,Helvetica Neue" font-weight="bold" font-size="55.0" fill="#FFFFFF" transform="matrix(1.00, 0.00, -0.00, -1.00, 1070.9, 238.9)"> </text><text xml:space="preserve" font-family="HelveticaNeue-CondensedBold,Helvetica Neue" font-weight="bold" font-size="55.0" fill="#FFFFFF" transform="matrix(1.00, 0.00, -0.00, -1.00, 1084.1, 238.9)">o</text><text xml:space="preserve" font-family="HelveticaNeue-CondensedBold,Helvetica Neue" font-weight="bold" font-size="55.0" fill="#FFFFFF" transform="matrix(1.00, 0.00, -0.00, -1.00, 1110.5, 238.9)">n</text><text xml:space="preserve" font-family="HelveticaNeue-CondensedBold,Helvetica Neue" font-weight="bold" font-size="55.0" fill="#FFFFFF" transform="matrix(1.00, 0.00, -0.00, -1.00, 1138.0, 238.9)"> </text><text xml:space="preserve" font-family="HelveticaNeue-CondensedBold,Helvetica Neue" font-weight="bold" font-size="55.0" fill="#FFFFFF" transform="matrix(1.00, 0.00, -0.00, -1.00, 1151.2, 238.9)">h</text><text xml:space="preserve" font-family="HelveticaNeue-CondensedBold,Helvetica Neue" font-weight="bold" font-size="55.0" fill="#FFFFFF" transform="matrix(1.00, 0.00, -0.00, -1.00, 1178.7, 238.9)">u</text><text xml:space="preserve" font-family="HelveticaNeue-CondensedBold,Helvetica Neue" font-weight="bold" font-size="55.0" fill="#FFFFFF" transform="matrix(1.00, 0.00, -0.00, -1.00, 1206.2, 238.9)">m</text><text xml:space="preserve" font-family="HelveticaNeue-CondensedBold,Helvetica Neue" font-weight="bold" font-size="55.0" fill="#FFFFFF" transform="matrix(1.00, 0.00, -0.00, -1.00, 1247.9, 238.9)">a</text><text xml:space="preserve" font-family="HelveticaNeue-CondensedBold,Helvetica Neue" font-weight="bold" font-size="55.0" fill="#FFFFFF" transform="matrix(1.00, 0.00, -0.00, -1.00, 1274.4, 238.9)">n</text><text xml:space="preserve" font-family="HelveticaNeue-CondensedBold,Helvetica Neue" font-weight="bold" font-size="55.0" fill="#FFFFFF" transform="matrix(1.00, 0.00, -0.00, -1.00, 1301.9, 238.9)"> </text><text xml:space="preserve" font-family="HelveticaNeue-CondensedBold,Helvetica Neue" font-weight="bold" font-size="55.0" fill="#FFFFFF" transform="matrix(1.00, 0.00, -0.00, -1.00, 1315.1, 238.9)">n</text><text xml:space="preserve" font-family="HelveticaNeue-CondensedBold,Helvetica Neue" font-weight="bold" font-size="55.0" fill="#FFFFFF" transform="matrix(1.00, 0.00, -0.00, -1.00, 1342.6, 238.9)">e</text><text xml:space="preserve" font-family="HelveticaNeue-CondensedBold,Helvetica Neue" font-weight="bold" font-size="55.0" fill="#FFFFFF" transform="matrix(1.00, 0.00, -0.00, -1.00, 1368.0, 238.9)">u</text><text xml:space="preserve" font-family="HelveticaNeue-CondensedBold,Helvetica Neue" font-weight="bold" font-size="55.0" fill="#FFFFFF" transform="matrix(1.00, 0.00, -0.00, -1.00, 1395.5, 238.9)">r</text><text xml:space="preserve" font-family="HelveticaNeue-CondensedBold,Helvetica Neue" font-weight="bold" font-size="55.0" fill="#FFFFFF" transform="matrix(1.00, 0.00, -0.00, -1.00, 1413.8, 238.9)">o</text><text xml:space="preserve" font-family="HelveticaNeue-CondensedBold,Helvetica Neue" font-weight="bold" font-size="55.0" fill="#FFFFFF" transform="matrix(1.00, 0.00, -0.00, -1.00, 1440.2, 238.9)">a</text><text xml:space="preserve" font-family="HelveticaNeue-CondensedBold,Helvetica Neue" font-weight="bold" font-size="55.0" fill="#FFFFFF" transform="matrix(1.00, 0.00, -0.00, -1.00, 1466.7, 238.9)">n</text><text xml:space="preserve" font-family="HelveticaNeue-CondensedBold,Helvetica Neue" font-weight="bold" font-size="55.0" fill="#FFFFFF" transform="matrix(1.00, 0.00, -0.00, -1.00, 1494.2, 238.9)">a</text><text xml:space="preserve" font-family="HelveticaNeue-CondensedBold,Helvetica Neue" font-weight="bold" font-size="55.0" fill="#FFFFFF" transform="matrix(1.00, 0.00, -0.00, -1.00, 1520.7, 238.9)">t</text><text xml:space="preserve" font-family="HelveticaNeue-CondensedBold,Helvetica Neue" font-weight="bold" font-size="55.0" fill="#FFFFFF" transform="matrix(1.00, 0.00, -0.00, -1.00, 1536.9, 238.9)">o</text><text xml:space="preserve" font-family="HelveticaNeue-CondensedBold,Helvetica Neue" font-weight="bold" font-size="55.0" fill="#FFFFFF" transform="matrix(1.00, 0.00, -0.00, -1.00, 1563.3, 238.9)">m</text><text xml:space="preserve" font-family="HelveticaNeue-CondensedBold,Helvetica Neue" font-weight="bold" font-size="55.0" fill="#FFFFFF" transform="matrix(1.00, 0.00, -0.00, -1.00, 1605.0, 238.9)">i</text><text xml:space="preserve" font-family="HelveticaNeue-CondensedBold,Helvetica Neue" font-weight="bold" font-size="55.0" fill="#FFFFFF" transform="matrix(1.00, 0.00, -0.00, -1.00, 1618.2, 238.9)">c</text><text xml:space="preserve" font-family="HelveticaNeue-CondensedBold,Helvetica Neue" font-weight="bold" font-size="55.0" fill="#FFFFFF" transform="matrix(1.00, 0.00, -0.00, -1.00, 1643.7, 238.9)">a</text><text xml:space="preserve" font-family="HelveticaNeue-CondensedBold,Helvetica Neue" font-weight="bold" font-size="55.0" fill="#FFFFFF" transform="matrix(1.00, 0.00, -0.00, -1.00, 1670.1, 238.9)">l</text><text xml:space="preserve" font-family="HelveticaNeue-CondensedBold,Helvetica Neue" font-weight="bold" font-size="55.0" fill="#FFFFFF" transform="matrix(1.00, 0.00, -0.00, -1.00, 1683.3, 238.9)"> </text><text xml:space="preserve" font-family="HelveticaNeue-CondensedBold,Helvetica Neue" font-weight="bold" font-size="55.0" fill="#FFFFFF" transform="matrix(1.00, 0.00, -0.00, -1.00, 1696.5, 238.9)">d</text><text xml:space="preserve" font-family="HelveticaNeue-CondensedBold,Helvetica Neue" font-weight="bold" font-size="55.0" fill="#FFFFFF" transform="matrix(1.00, 0.00, -0.00, -1.00, 1724.0, 238.9)">i</text><text xml:space="preserve" font-family="HelveticaNeue-CondensedBold,Helvetica Neue" font-weight="bold" font-size="55.0" fill="#FFFFFF" transform="matrix(1.00, 0.00, -0.00, -1.00, 1737.2, 238.9)">v</text><text xml:space="preserve" font-family="HelveticaNeue-CondensedBold,Helvetica Neue" font-weight="bold" font-size="55.0" fill="#FFFFFF" transform="matrix(1.00, 0.00, -0.00, -1.00, 1761.7, 238.9)">e</text><text xml:space="preserve" font-family="HelveticaNeue-CondensedBold,Helvetica Neue" font-weight="bold" font-size="55.0" fill="#FFFFFF" transform="matrix(1.00, 0.00, -0.00, -1.00, 1787.1, 238.9)">r</text><text xml:space="preserve" font-family="HelveticaNeue-CondensedBold,Helvetica Neue" font-weight="bold" font-size="55.0" fill="#FFFFFF" transform="matrix(1.00, 0.00, -0.00, -1.00, 1805.4, 238.9)">s</text><text xml:space="preserve" font-family="HelveticaNeue-CondensedBold,Helvetica Neue" font-weight="bold" font-size="55.0" fill="#FFFFFF" transform="matrix(1.00, 0.00, -0.00, -1.00, 1829.9, 238.9)">i</text><text xml:space="preserve" font-family="HelveticaNeue-CondensedBold,Helvetica Neue" font-weight="bold" font-size="55.0" fill="#FFFFFF" transform="matrix(1.00, 0.00, -0.00, -1.00, 1843.1, 238.9)">t</text><text xml:space="preserve" font-family="HelveticaNeue-CondensedBold,Helvetica Neue" font-weight="bold" font-size="55.0" fill="#FFFFFF" transform="matrix(1.00, 0.00, -0.00, -1.00, 1859.3, 238.9)">y</text><text xml:space="preserve" font-family="HelveticaNeue-Light,Helvetica Neue" font-size="32.0" fill="#FFFFFF" transform="matrix(1.00, 0.00, -0.00, -1.00, 785.2, 195.4)">M</text><text xml:space="preserve" font-family="HelveticaNeue-Light,Helvetica Neue" font-size="32.0" fill="#FFFFFF" transform="matrix(1.00, 0.00, -0.00, -1.00, 811.4, 195.4)">G</text><text xml:space="preserve" font-family="HelveticaNeue-Light,Helvetica Neue" font-size="32.0" fill="#FFFFFF" transform="matrix(1.00, 0.00, -0.00, -1.00, 835.1, 195.4)">H</text><text xml:space="preserve" font-family="HelveticaNeue-Light,Helvetica Neue" font-size="32.0" fill="#FFFFFF" transform="matrix(1.00, 0.00, -0.00, -1.00, 857.7, 195.4)">,</text><text xml:space="preserve" font-family="HelveticaNeue-Light,Helvetica Neue" font-size="32.0" fill="#FFFFFF" transform="matrix(1.00, 0.00, -0.00, -1.00, 866.6, 195.4)"> </text><text xml:space="preserve" font-family="HelveticaNeue-Light,Helvetica Neue" font-size="32.0" fill="#FFFFFF" transform="matrix(1.00, 0.00, -0.00, -1.00, 875.5, 195.4)">O</text><text xml:space="preserve" font-family="HelveticaNeue-Light,Helvetica Neue" font-size="32.0" fill="#FFFFFF" transform="matrix(1.00, 0.00, -0.00, -1.00, 899.2, 195.4)">c</text><text xml:space="preserve" font-family="HelveticaNeue-Light,Helvetica Neue" font-size="32.0" fill="#FFFFFF" transform="matrix(1.00, 0.00, -0.00, -1.00, 915.8, 195.4)">t</text><text xml:space="preserve" font-family="HelveticaNeue-Light,Helvetica Neue" font-size="32.0" fill="#FFFFFF" transform="matrix(1.00, 0.00, -0.00, -1.00, 925.2, 195.4)">o</text><text xml:space="preserve" font-family="HelveticaNeue-Light,Helvetica Neue" font-size="32.0" fill="#FFFFFF" transform="matrix(1.00, 0.00, -0.00, -1.00, 943.0, 195.4)">b</text><text xml:space="preserve" font-family="HelveticaNeue-Light,Helvetica Neue" font-size="32.0" fill="#FFFFFF" transform="matrix(1.00, 0.00, -0.00, -1.00, 961.4, 195.4)">r</text><text xml:space="preserve" font-family="HelveticaNeue-Light,Helvetica Neue" font-size="32.0" fill="#FFFFFF" transform="matrix(1.00, 0.00, -0.00, -1.00, 970.9, 195.4)">e</text><text xml:space="preserve" font-family="HelveticaNeue-Light,Helvetica Neue" font-size="32.0" fill="#FFFFFF" transform="matrix(1.00, 0.00, -0.00, -1.00, 987.5, 195.4)"> </text><text xml:space="preserve" font-family="HelveticaNeue-Light,Helvetica Neue" font-size="32.0" fill="#FFFFFF" transform="matrix(1.00, 0.00, -0.00, -1.00, 996.4, 195.4)">2</text><text xml:space="preserve" font-family="HelveticaNeue-Light,Helvetica Neue" font-size="32.0" fill="#FFFFFF" transform="matrix(1.00, 0.00, -0.00, -1.00, 1014.2, 195.4)">0</text><text xml:space="preserve" font-family="HelveticaNeue-Light,Helvetica Neue" font-size="32.0" fill="#FFFFFF" transform="matrix(1.00, 0.00, -0.00, -1.00, 1032.0, 195.4)">1</text><text xml:space="preserve" font-family="HelveticaNeue-Light,Helvetica Neue" font-size="32.0" fill="#FFFFFF" transform="matrix(1.00, 0.00, -0.00, -1.00, 1049.8, 195.4)">5</text><text xml:space="preserve" font-family="HelveticaNeue-Light,Helvetica Neue" font-size="32.0" fill="#FFFFFF" transform="matrix(1.00, 0.00, -0.00, -1.00, 1067.6, 195.4)"> </text><text xml:space="preserve" font-family="HelveticaNeue-Light,Helvetica Neue" font-size="32.0" fill="#FFFFFF" transform="matrix(1.00, 0.00, -0.00, -1.00, 1076.5, 195.4)">•</text><text xml:space="preserve" font-family="HelveticaNeue-Light,Helvetica Neue" font-size="32.0" fill="#FFFFFF" transform="matrix(1.00, 0.00, -0.00, -1.00, 1092.5, 195.4)"> </text><text xml:space="preserve" font-family="HelveticaNeue-Light,Helvetica Neue" font-size="32.0" fill="#FFFFFF" transform="matrix(1.00, 0.00, -0.00, -1.00, 1101.4, 195.4)">R</text><text xml:space="preserve" font-family="HelveticaNeue-Light,Helvetica Neue" font-size="32.0" fill="#FFFFFF" transform="matrix(1.00, 0.00, -0.00, -1.00, 1122.7, 195.4)">o</text><text xml:space="preserve" font-family="HelveticaNeue-Light,Helvetica Neue" font-size="32.0" fill="#FFFFFF" transform="matrix(1.00, 0.00, -0.00, -1.00, 1140.5, 195.4)">b</text><text xml:space="preserve" font-family="HelveticaNeue-Light,Helvetica Neue" font-size="32.0" fill="#FFFFFF" transform="matrix(1.00, 0.00, -0.00, -1.00, 1158.9, 195.4)">e</text><text xml:space="preserve" font-family="HelveticaNeue-Light,Helvetica Neue" font-size="32.0" fill="#FFFFFF" transform="matrix(1.00, 0.00, -0.00, -1.00, 1175.5, 195.4)">r</text><text xml:space="preserve" font-family="HelveticaNeue-Light,Helvetica Neue" font-size="32.0" fill="#FFFFFF" transform="matrix(1.00, 0.00, -0.00, -1.00, 1185.6, 195.4)">t</text><text xml:space="preserve" font-family="HelveticaNeue-Light,Helvetica Neue" font-size="32.0" fill="#FFFFFF" transform="matrix(1.00, 0.00, -0.00, -1.00, 1195.0, 195.4)">o</text><text xml:space="preserve" font-family="HelveticaNeue-Light,Helvetica Neue" font-size="32.0" fill="#FFFFFF" transform="matrix(1.00, 0.00, -0.00, -1.00, 1212.8, 195.4)"> </text><text xml:space="preserve" font-family="HelveticaNeue-Light,Helvetica Neue" font-size="32.0" fill="#FFFFFF" transform="matrix(1.00, 0.00, -0.00, -1.00, 1221.7, 195.4)">T</text><text xml:space="preserve" font-family="HelveticaNeue-Light,Helvetica Neue" font-size="32.0" fill="#FFFFFF" transform="matrix(1.00, 0.00, -0.00, -1.00, 1236.0, 195.4)">o</text><text xml:space="preserve" font-family="HelveticaNeue-Light,Helvetica Neue" font-size="32.0" fill="#FFFFFF" transform="matrix(1.00, 0.00, -0.00, -1.00, 1253.8, 195.4)">r</text><text xml:space="preserve" font-family="HelveticaNeue-Light,Helvetica Neue" font-size="32.0" fill="#FFFFFF" transform="matrix(1.00, 0.00, -0.00, -1.00, 1263.3, 195.4)">o</text><text xml:space="preserve" font-family="HelveticaNeue-Light,Helvetica Neue" font-size="32.0" fill="#FFFFFF" transform="matrix(1.00, 0.00, -0.00, -1.00, 1281.1, 195.4)"> </text><text xml:space="preserve" font-family="HelveticaNeue-Light,Helvetica Neue" font-size="32.0" fill="#FFFFFF" transform="matrix(1.00, 0.00, -0.00, -1.00, 1290.0, 195.4)">•</text><text xml:space="preserve" font-family="HelveticaNeue-Light,Helvetica Neue" font-size="32.0" fill="#FFFFFF" transform="matrix(1.00, 0.00, -0.00, -1.00, 1306.0, 195.4)"> </text><text xml:space="preserve" font-family="HelveticaNeue-Light,Helvetica Neue" font-size="32.0" fill="#FFFFFF" transform="matrix(1.00, 0.00, -0.00, -1.00, 1314.8, 195.4)">I</text><text xml:space="preserve" font-family="HelveticaNeue-Light,Helvetica Neue" font-size="32.0" fill="#FFFFFF" transform="matrix(1.00, 0.00, -0.00, -1.00, 1322.0, 195.4)">n</text><text xml:space="preserve" font-family="HelveticaNeue-Light,Helvetica Neue" font-size="32.0" fill="#FFFFFF" transform="matrix(1.00, 0.00, -0.00, -1.00, 1339.1, 195.4)">s</text><text xml:space="preserve" font-family="HelveticaNeue-Light,Helvetica Neue" font-size="32.0" fill="#FFFFFF" transform="matrix(1.00, 0.00, -0.00, -1.00, 1354.5, 195.4)">t</text><text xml:space="preserve" font-family="HelveticaNeue-Light,Helvetica Neue" font-size="32.0" fill="#FFFFFF" transform="matrix(1.00, 0.00, -0.00, -1.00, 1364.0, 195.4)">i</text><text xml:space="preserve" font-family="HelveticaNeue-Light,Helvetica Neue" font-size="32.0" fill="#FFFFFF" transform="matrix(1.00, 0.00, -0.00, -1.00, 1369.9, 195.4)">t</text><text xml:space="preserve" font-family="HelveticaNeue-Light,Helvetica Neue" font-size="32.0" fill="#FFFFFF" transform="matrix(1.00, 0.00, -0.00, -1.00, 1379.4, 195.4)">u</text><text xml:space="preserve" font-family="HelveticaNeue-Light,Helvetica Neue" font-size="32.0" fill="#FFFFFF" transform="matrix(1.00, 0.00, -0.00, -1.00, 1396.6, 195.4)">t</text><text xml:space="preserve" font-family="HelveticaNeue-Light,Helvetica Neue" font-size="32.0" fill="#FFFFFF" transform="matrix(1.00, 0.00, -0.00, -1.00, 1406.0, 195.4)"> </text><text xml:space="preserve" font-family="HelveticaNeue-Light,Helvetica Neue" font-size="32.0" fill="#FFFFFF" transform="matrix(1.00, 0.00, -0.00, -1.00, 1414.9, 195.4)">P</text><text xml:space="preserve" font-family="HelveticaNeue-Light,Helvetica Neue" font-size="32.0" fill="#FFFFFF" transform="matrix(1.00, 0.00, -0.00, -1.00, 1435.1, 195.4)">a</text><text xml:space="preserve" font-family="HelveticaNeue-Light,Helvetica Neue" font-size="32.0" fill="#FFFFFF" transform="matrix(1.00, 0.00, -0.00, -1.00, 1451.7, 195.4)">s</text><text xml:space="preserve" font-family="HelveticaNeue-Light,Helvetica Neue" font-size="32.0" fill="#FFFFFF" transform="matrix(1.00, 0.00, -0.00, -1.00, 1467.1, 195.4)">t</text><text xml:space="preserve" font-family="HelveticaNeue-Light,Helvetica Neue" font-size="32.0" fill="#FFFFFF" transform="matrix(1.00, 0.00, -0.00, -1.00, 1476.6, 195.4)">e</text><text xml:space="preserve" font-family="HelveticaNeue-Light,Helvetica Neue" font-size="32.0" fill="#FFFFFF" transform="matrix(1.00, 0.00, -0.00, -1.00, 1493.2, 195.4)">u</text><text xml:space="preserve" font-family="HelveticaNeue-Light,Helvetica Neue" font-size="32.0" fill="#FFFFFF" transform="matrix(1.00, 0.00, -0.00, -1.00, 1510.4, 195.4)">r</text><text xml:space="preserve" font-family="HelveticaNeue-Light,Helvetica Neue" font-size="32.0" fill="#FFFFFF" transform="matrix(1.00, 0.00, -0.00, -1.00, 1520.4, 195.4)"> </text><text xml:space="preserve" font-family="HelveticaNeue-Light,Helvetica Neue" font-size="32.0" fill="#FFFFFF" transform="matrix(1.00, 0.00, -0.00, -1.00, 1529.3, 195.4)">•</text><text xml:space="preserve" font-family="HelveticaNeue-Light,Helvetica Neue" font-size="32.0" fill="#FFFFFF" transform="matrix(1.00, 0.00, -0.00, -1.00, 1545.3, 195.4)"> </text><text xml:space="preserve" font-family="HelveticaNeue-Light,Helvetica Neue" font-size="32.0" fill="#FFFFFF" transform="matrix(1.00, 0.00, -0.00, -1.00, 1554.2, 195.4)">r</text><text xml:space="preserve" font-family="HelveticaNeue-Light,Helvetica Neue" font-size="32.0" fill="#FFFFFF" transform="matrix(1.00, 0.00, -0.00, -1.00, 1564.3, 195.4)">t</text><text xml:space="preserve" font-family="HelveticaNeue-Light,Helvetica Neue" font-size="32.0" fill="#FFFFFF" transform="matrix(1.00, 0.00, -0.00, -1.00, 1573.8, 195.4)">o</text><text xml:space="preserve" font-family="HelveticaNeue-Light,Helvetica Neue" font-size="32.0" fill="#FFFFFF" transform="matrix(1.00, 0.00, -0.00, -1.00, 1591.6, 195.4)">@</text><text xml:space="preserve" font-family="HelveticaNeue-Light,Helvetica Neue" font-size="32.0" fill="#FFFFFF" transform="matrix(1.00, 0.00, -0.00, -1.00, 1617.2, 195.4)">b</text><text xml:space="preserve" font-family="HelveticaNeue-Light,Helvetica Neue" font-size="32.0" fill="#FFFFFF" transform="matrix(1.00, 0.00, -0.00, -1.00, 1635.6, 195.4)">r</text><text xml:space="preserve" font-family="HelveticaNeue-Light,Helvetica Neue" font-size="32.0" fill="#FFFFFF" transform="matrix(1.00, 0.00, -0.00, -1.00, 1645.6, 195.4)">a</text><text xml:space="preserve" font-family="HelveticaNeue-Light,Helvetica Neue" font-size="32.0" fill="#FFFFFF" transform="matrix(1.00, 0.00, -0.00, -1.00, 1662.2, 195.4)">i</text><text xml:space="preserve" font-family="HelveticaNeue-Light,Helvetica Neue" font-size="32.0" fill="#FFFFFF" transform="matrix(1.00, 0.00, -0.00, -1.00, 1668.2, 195.4)">n</text><text xml:space="preserve" font-family="HelveticaNeue-Light,Helvetica Neue" font-size="32.0" fill="#FFFFFF" transform="matrix(1.00, 0.00, -0.00, -1.00, 1685.3, 195.4)">c</text><text xml:space="preserve" font-family="HelveticaNeue-Light,Helvetica Neue" font-size="32.0" fill="#FFFFFF" transform="matrix(1.00, 0.00, -0.00, -1.00, 1702.0, 195.4)">a</text><text xml:space="preserve" font-family="HelveticaNeue-Light,Helvetica Neue" font-size="32.0" fill="#FFFFFF" transform="matrix(1.00, 0.00, -0.00, -1.00, 1718.6, 195.4)">t</text><text xml:space="preserve" font-family="HelveticaNeue-Light,Helvetica Neue" font-size="32.0" fill="#FFFFFF" transform="matrix(1.00, 0.00, -0.00, -1.00, 1728.0, 195.4)">a</text><text xml:space="preserve" font-family="HelveticaNeue-Light,Helvetica Neue" font-size="32.0" fill="#FFFFFF" transform="matrix(1.00, 0.00, -0.00, -1.00, 1744.6, 195.4)">l</text><text xml:space="preserve" font-family="HelveticaNeue-Light,Helvetica Neue" font-size="32.0" fill="#FFFFFF" transform="matrix(1.00, 0.00, -0.00, -1.00, 1750.6, 195.4)">o</text><text xml:space="preserve" font-family="HelveticaNeue-Light,Helvetica Neue" font-size="32.0" fill="#FFFFFF" transform="matrix(1.00, 0.00, -0.00, -1.00, 1768.4, 195.4)">g</text><text xml:space="preserve" font-family="HelveticaNeue-Light,Helvetica Neue" font-size="32.0" fill="#FFFFFF" transform="matrix(1.00, 0.00, -0.00, -1.00, 1786.1, 195.4)">u</text><text xml:space="preserve" font-family="HelveticaNeue-Light,Helvetica Neue" font-size="32.0" fill="#FFFFFF" transform="matrix(1.00, 0.00, -0.00, -1.00, 1803.3, 195.4)">e</text><text xml:space="preserve" font-family="HelveticaNeue-Light,Helvetica Neue" font-size="32.0" fill="#FFFFFF" transform="matrix(1.00, 0.00, -0.00, -1.00, 1819.9, 195.4)">.</text><text xml:space="preserve" font-family="HelveticaNeue-Light,Helvetica Neue" font-size="32.0" fill="#FFFFFF" transform="matrix(1.00, 0.00, -0.00, -1.00, 1828.8, 195.4)">o</text><text xml:space="preserve" font-family="HelveticaNeue-Light,Helvetica Neue" font-size="32.0" fill="#FFFFFF" transform="matrix(1.00, 0.00, -0.00, -1.00, 1846.6, 195.4)">r</text><text xml:space="preserve" font-family="HelveticaNeue-Light,Helvetica Neue" font-size="32.0" fill="#FFFFFF" transform="matrix(1.00, 0.00, -0.00, -1.00, 1856.7, 195.4)">g</text><path d="M -0.1 -0.0 L 1923.9 -0.0 " fill="none" stroke="#FFFFFF" stroke-width="4.00" transform="matrix(1.00, 0.00, 0.00, -1.00, -2.9, 301.0)"></path></g></svg>