<?xml version="1.0" encoding="UTF-8" standalone="no"?><svg xmlns="http://www.w3.org/2000/svg" xmlns:xlink="http://www.w3.org/1999/xlink" clip-rule="evenodd" stroke-miterlimit="10" viewBox="0 0 1920 1080"><desc>SVG generated by Keynote</desc><defs></defs><g transform="matrix(1.00, 0.00, -0.00, -1.00, 0.0, 1080.0)"><path d="M 0.0 1080.0 L 1920.0 1080.0 L 1920.0 0.0 L 0.0 0.0 Z M 0.0 1080.0 " fill="#FEFFFF"></path><g><clipPath id="clip0x6080018b5a20"><path d="M -2.0 1025.0 L 1922.0 1025.0 L 1922.0 55.0 L -2.0 55.0 Z M -1.8 1025.4 "></path></clipPath><g clip-path="url(#clip0x6080018b5a20)"><image xlink:href="../../0EDDF8CC-6D00-4C9E-82B5-92D3321E8158/assets/5E38A3EC88D6FF5DA5FCF397121F2266.jpeg" width="1366.00" height="768.00" transform="matrix(1.41, 0.00, -0.00, -1.41, -2.0, 1081.0)"></image></g></g><image xlink:href="../../0EDDF8CC-6D00-4C9E-82B5-92D3321E8158/assets/EE72A986EE806D6552A8BCC6847F46CD.png" width="575.00" height="139.00" transform="matrix(1.00, 0.00, -0.00, -1.00, 683.0, 694.0)"></image><text xml:space="preserve" font-family="Times-BoldItalic,Times" font-style="italic" font-weight="bold" font-size="154.0" fill="#FEFFFF" transform="matrix(1.00, 0.00, -0.00, -1.00, 691.4, 578.5)">∆</text><text xml:space="preserve" font-family="Times-BoldItalic,Times" font-style="italic" font-weight="bold" font-size="154.0" fill="#FEFFFF" transform="matrix(1.00, 0.00, -0.00, -1.00, 785.6, 578.5)">=</text><text xml:space="preserve" font-family="Times-BoldItalic,Times" font-style="italic" font-weight="bold" font-size="154.0" fill="#FEFFFF" transform="matrix(1.00, 0.00, -0.00, -1.00, 873.4, 578.5)">0</text><text xml:space="preserve" font-family="Times-BoldItalic,Times" font-style="italic" font-weight="bold" font-size="154.0" fill="#FEFFFF" transform="matrix(1.00, 0.00, -0.00, -1.00, 950.4, 578.5)">.</text><text xml:space="preserve" font-family="Times-BoldItalic,Times" font-style="italic" font-weight="bold" font-size="154.0" fill="#FEFFFF" transform="matrix(1.00, 0.00, -0.00, -1.00, 988.9, 578.5)">0</text><text xml:space="preserve" font-family="Times-BoldItalic,Times" font-style="italic" font-weight="bold" font-size="154.0" fill="#FEFFFF" transform="matrix(1.00, 0.00, -0.00, -1.00, 1065.9, 578.5)">4</text><text xml:space="preserve" font-family="Times-BoldItalic,Times" font-style="italic" font-weight="bold" font-size="154.0" fill="#FEFFFF" transform="matrix(1.00, 0.00, -0.00, -1.00, 1142.9, 578.5)">σ</text><image xlink:href="../../0EDDF8CC-6D00-4C9E-82B5-92D3321E8158/assets/92C49A77DCCEF6E2415F75E33E588858.png" width="479.00" height="168.00" transform="matrix(1.00, 0.00, -0.00, -1.00, 721.0, 507.0)"></image><text xml:space="preserve" font-family="Times-BoldItalic,Times" font-style="italic" font-weight="bold" font-size="154.0" fill="#FEFFFF" transform="matrix(1.00, 0.00, -0.00, -1.00, 742.9, 392.5)">p</text><text xml:space="preserve" font-family="Times-BoldItalic,Times" font-style="italic" font-weight="bold" font-size="154.0" fill="#FEFFFF" transform="matrix(1.00, 0.00, -0.00, -1.00, 819.9, 392.5)">=</text><text xml:space="preserve" font-family="Times-BoldItalic,Times" font-style="italic" font-weight="bold" font-size="154.0" fill="#FEFFFF" transform="matrix(1.00, 0.00, -0.00, -1.00, 907.6, 392.5)">0</text><text xml:space="preserve" font-family="Times-BoldItalic,Times" font-style="italic" font-weight="bold" font-size="154.0" fill="#FEFFFF" transform="matrix(1.00, 0.00, -0.00, -1.00, 984.6, 392.5)">.</text><text xml:space="preserve" font-family="Times-BoldItalic,Times" font-style="italic" font-weight="bold" font-size="154.0" fill="#FEFFFF" transform="matrix(1.00, 0.00, -0.00, -1.00, 1023.1, 392.5)">5</text><text xml:space="preserve" font-family="Times-BoldItalic,Times" font-style="italic" font-weight="bold" font-size="154.0" fill="#FEFFFF" transform="matrix(1.00, 0.00, -0.00, -1.00, 1100.1, 392.5)">6</text></g></svg>