<?xml version="1.0" encoding="UTF-8" standalone="no"?><svg xmlns="http://www.w3.org/2000/svg" xmlns:xlink="http://www.w3.org/1999/xlink" clip-rule="evenodd" stroke-miterlimit="10" viewBox="0 0 1920 1080"><desc>SVG generated by Keynote</desc><defs></defs><g transform="matrix(1.00, 0.00, -0.00, -1.00, 0.0, 1080.0)"><path d="M 0.0 1080.0 L 1920.0 1080.0 L 1920.0 0.0 L 0.0 0.0 Z M 0.0 1080.0 " fill="#FEFFFF"></path><g><clipPath id="clip0x6180014a5ee0"><path d="M 134.0 40.0 L 1786.0 40.0 L 1786.0 1040.0 L 134.0 1040.0 Z M 134.0 40.0 "></path></clipPath><g clip-path="url(#clip0x6180014a5ee0)"><path d="M 364.4 44.2 C 324.5 44.2 292.2 58.7 292.2 76.5 L 292.2 80.8 C 292.2 98.6 324.5 113.1 364.4 113.1 C 404.3 113.1 436.7 98.6 436.7 80.8 L 436.7 76.5 C 436.7 58.7 404.3 44.2 364.4 44.2 Z M 364.4 68.2 C 377.9 68.2 389.2 72.7 391.3 78.5 C 389.2 84.3 378.0 88.8 364.4 88.8 C 350.9 88.8 339.7 84.3 337.5 78.5 C 339.7 72.7 350.9 68.2 364.4 68.2 Z M 364.4 68.2 " fill="#D4D4D4" stroke="#000000" stroke-width="0.13" transform="matrix(3.07, 0.00, 0.00, -3.07, 134.0, 1040.0)"></path><path d="M 1250.9 830.5 C 1292.3 830.5 1326.7 816.9 1333.4 799.1 C 1334.1 801.1 1334.5 803.1 1334.5 805.2 C 1334.5 826.0 1297.1 842.9 1250.9 842.9 C 1204.7 842.9 1167.2 826.0 1167.2 805.2 C 1167.2 803.2 1167.6 801.2 1168.3 799.2 C 1175.0 816.9 1209.4 830.5 1250.9 830.5 Z M 1250.9 830.5 " fill="#909090"></path><path d="M 1250.9 705.7 C 1128.5 705.7 1029.3 750.1 1029.3 805.0 L 1029.3 792.1 C 1029.3 737.2 1128.5 692.8 1250.9 692.8 C 1373.3 692.8 1472.5 737.2 1472.5 792.1 L 1472.5 805.2 C 1472.5 750.1 1373.3 705.7 1250.9 705.7 Z M 1250.9 705.7 " fill="#909090"></path><path d="M 364.4 4.0 C 277.5 4.0 207.1 35.5 207.1 74.7 L 207.1 82.9 C 207.1 121.8 277.5 153.3 364.4 153.3 C 451.3 153.3 521.8 121.8 521.8 82.9 L 521.7 74.7 C 521.8 35.5 451.3 4.0 364.4 4.0 Z M 364.4 18.2 C 441.2 18.2 504.0 45.0 508.7 78.7 C 504.3 112.6 441.4 139.6 364.4 139.6 C 287.5 139.6 224.5 112.6 220.2 78.8 C 224.8 45.0 287.6 18.2 364.4 18.2 Z M 364.4 18.2 " fill="#D4D4D4" stroke="#000000" stroke-width="0.13" transform="matrix(3.07, 0.00, 0.00, -3.07, 134.0, 1040.0)"></path><path d="M 1733.4 811.6 C 1733.4 692.2 1517.4 595.5 1250.9 595.5 C 984.4 595.5 768.3 692.2 768.3 810.6 L 768.3 785.5 C 768.3 666.2 984.4 569.4 1250.9 569.4 C 1517.4 569.4 1733.4 666.2 1733.4 785.5 " fill="#909090"></path><path d="M 809.3 792.7 C 808.2 798.4 807.6 804.3 807.6 810.2 C 807.6 919.9 1006.1 1008.8 1250.9 1008.8 C 1495.7 1008.8 1694.2 919.9 1694.2 810.2 L 1693.3 798.0 C 1678.9 901.8 1486.3 984.0 1250.9 984.0 C 1015.4 984.0 822.7 901.7 808.5 797.8 " fill="#909090"></path><path d="M 521.6 74.3 C 521.6 113.2 451.1 144.7 364.2 144.7 C 277.3 144.7 206.9 113.2 206.9 74.3 C 206.9 35.4 277.3 3.9 364.2 3.9 C 451.1 3.9 521.6 35.4 521.6 74.3 Z M 521.6 74.3 " fill="none" stroke="#000000" stroke-width="0.21" transform="matrix(3.07, 0.00, 0.00, -3.07, 134.0, 1040.0)"></path><path d="M 521.6 82.8 C 521.6 121.7 451.1 153.2 364.2 153.2 C 277.3 153.2 206.9 121.7 206.9 82.8 L 206.9 74.9 " fill="none" stroke="#000000" stroke-width="0.21" transform="matrix(3.07, 0.00, 0.00, -3.07, 134.0, 1040.0)"></path><path d="M 361.3 139.4 L 360.8 153.3 " fill="none" stroke="#000000" stroke-width="0.21" transform="matrix(3.07, 0.00, 0.00, -3.07, 134.0, 1040.0)"></path><path d="M 409.0 136.3 L 412.7 141.4 L 412.7 149.8 " fill="none" stroke="#000000" stroke-width="0.21" transform="matrix(3.07, 0.00, 0.00, -3.07, 134.0, 1040.0)"></path><path d="M 451.8 126.2 L 459.1 130.5 L 459.1 139.0 " fill="none" stroke="#000000" stroke-width="0.21" transform="matrix(3.07, 0.00, 0.00, -3.07, 134.0, 1040.0)"></path><path d="M 484.9 110.4 L 495.1 113.5 L 495.1 122.0 " fill="none" stroke="#000000" stroke-width="0.21" transform="matrix(3.07, 0.00, 0.00, -3.07, 134.0, 1040.0)"></path><path d="M 504.2 90.8 L 516.5 92.3 L 516.5 100.6 " fill="none" stroke="#000000" stroke-width="0.21" transform="matrix(3.07, 0.00, 0.00, -3.07, 134.0, 1040.0)"></path><path d="M 509.0 74.5 L 521.6 74.5 L 521.6 82.9 " fill="none" stroke="#000000" stroke-width="0.21" transform="matrix(3.07, 0.00, 0.00, -3.07, 134.0, 1040.0)"></path><path d="M 512.9 51.5 L 500.7 53.4 L 500.7 61.5 " fill="none" stroke="#000000" stroke-width="0.21" transform="matrix(3.07, 0.00, 0.00, -3.07, 134.0, 1040.0)"></path><path d="M 487.9 30.8 L 477.4 34.5 L 477.4 42.6 " fill="none" stroke="#000000" stroke-width="0.21" transform="matrix(3.07, 0.00, 0.00, -3.07, 134.0, 1040.0)"></path><path d="M 448.9 14.9 L 441.6 20.0 L 441.6 28.1 " fill="none" stroke="#000000" stroke-width="0.21" transform="matrix(3.07, 0.00, 0.00, -3.07, 134.0, 1040.0)"></path><path d="M 399.9 5.7 L 396.8 11.7 L 396.8 19.7 " fill="none" stroke="#000000" stroke-width="0.21" transform="matrix(3.07, 0.00, 0.00, -3.07, 134.0, 1040.0)"></path><path d="M 347.7 3.9 L 349.2 10.4 L 349.2 18.4 " fill="none" stroke="#000000" stroke-width="0.21" transform="matrix(3.07, 0.00, 0.00, -3.07, 134.0, 1040.0)"></path><path d="M 297.0 10.3 L 302.9 16.1 L 302.9 24.2 " fill="none" stroke="#000000" stroke-width="0.21" transform="matrix(3.07, 0.00, 0.00, -3.07, 134.0, 1040.0)"></path><path d="M 263.4 28.3 L 253.8 23.9 " fill="none" stroke="#000000" stroke-width="0.21" transform="matrix(3.07, 0.00, 0.00, -3.07, 134.0, 1040.0)"></path><path d="M 223.2 43.1 L 234.9 45.7 L 234.9 53.9 " fill="none" stroke="#000000" stroke-width="0.21" transform="matrix(3.07, 0.00, 0.00, -3.07, 134.0, 1040.0)"></path><path d="M 208.0 65.6 L 221.0 66.3 L 221.0 74.3 " fill="none" stroke="#000000" stroke-width="0.21" transform="matrix(3.07, 0.00, 0.00, -3.07, 134.0, 1040.0)"></path><path d="M 222.7 87.9 L 210.1 89.1 L 210.1 96.9 " fill="none" stroke="#000000" stroke-width="0.21" transform="matrix(3.07, 0.00, 0.00, -3.07, 134.0, 1040.0)"></path><path d="M 240.4 108.0 L 229.4 111.0 L 229.4 119.1 " fill="none" stroke="#000000" stroke-width="0.21" transform="matrix(3.07, 0.00, 0.00, -3.07, 134.0, 1040.0)"></path><path d="M 271.6 124.4 L 263.7 128.6 L 263.7 136.7 " fill="none" stroke="#000000" stroke-width="0.21" transform="matrix(3.07, 0.00, 0.00, -3.07, 134.0, 1040.0)"></path><path d="M 313.5 135.4 L 309.3 140.5 L 309.3 148.7 " fill="none" stroke="#000000" stroke-width="0.21" transform="matrix(3.07, 0.00, 0.00, -3.07, 134.0, 1040.0)"></path><path d="M 508.8 74.7 C 508.8 110.5 444.1 139.5 364.2 139.5 C 284.4 139.5 219.7 110.5 219.7 74.7 C 219.7 39.0 284.4 10.0 364.2 10.0 C 444.1 10.0 508.8 39.0 508.8 74.7 Z M 508.8 74.7 " fill="none" stroke="#000000" stroke-width="0.21" transform="matrix(3.07, 0.00, 0.00, -3.07, 134.0, 1040.0)"></path><path d="M 220.0 78.8 C 224.6 44.9 287.4 18.1 364.2 18.1 C 441.0 18.1 503.8 44.9 508.5 78.7 " fill="none" stroke="#000000" stroke-width="0.21" transform="matrix(3.07, 0.00, 0.00, -3.07, 134.0, 1040.0)"></path><path d="M 263.4 28.4 L 263.4 36.5 " fill="none" stroke="#000000" stroke-width="0.21" transform="matrix(3.07, 0.00, 0.00, -3.07, 134.0, 1040.0)"></path></g></g><g><clipPath id="clip0x6180014a6de0"><path d="M 543.5 546.3 L 1376.5 546.3 L 1376.5 43.9 L 543.5 43.9 Z M 543.5 546.3 "></path></clipPath><g clip-path="url(#clip0x6180014a6de0)"><g><clipPath id="clip0x6180014a6f60"><path d="M 134.0 40.0 L 1786.0 40.0 L 1786.0 1040.0 L 134.0 1040.0 Z M 134.0 40.0 "></path></clipPath><g clip-path="url(#clip0x6180014a6f60)"><image xlink:href="31A596C612D3C7C7A601100CE08CEC16.png" width="2166.00" height="1306.00" transform="matrix(0.38, 0.00, -0.00, -0.38, 543.5, 546.3)"></image></g></g></g></g><g><clipPath id="clip0x6080016ac600"><path d="M 134.0 40.0 L 1786.0 40.0 L 1786.0 1040.0 L 134.0 1040.0 Z M 134.0 40.0 "></path></clipPath><g clip-path="url(#clip0x6080016ac600)"><path d="M 449.7 199.6 L 461.2 199.6 L 461.2 211.2 L 449.7 211.2 Z M 449.7 199.6 " fill="#FFFFFF" stroke="#000000" stroke-width="0.07" transform="matrix(3.07, 0.00, 0.00, -3.07, 134.0, 1040.0)"></path><path d="M 449.7 212.1 L 461.2 212.1 L 461.2 223.7 L 449.7 223.7 Z M 449.7 212.1 " fill="#D4D4D4" stroke="#000000" stroke-width="0.07" transform="matrix(3.07, 0.00, 0.00, -3.07, 134.0, 1040.0)"></path><path d="M 449.7 224.6 L 461.2 224.6 L 461.2 236.1 L 449.7 236.1 Z M 449.7 224.6 " fill="#AAAAAA" stroke="#000000" stroke-width="0.07" transform="matrix(3.07, 0.00, 0.00, -3.07, 134.0, 1040.0)"></path><path d="M 449.7 237.0 L 461.2 237.0 L 461.2 248.6 L 449.7 248.6 Z M 449.7 237.0 " fill="#7E7E7E" stroke="#000000" stroke-width="0.07" transform="matrix(3.07, 0.00, 0.00, -3.07, 134.0, 1040.0)"></path><path d="M 449.7 249.5 L 461.2 249.5 L 461.2 261.1 L 449.7 261.1 Z M 449.7 249.5 " fill="#606060" stroke="#000000" stroke-width="0.07" transform="matrix(3.07, 0.00, 0.00, -3.07, 134.0, 1040.0)"></path><path d="M 449.7 274.5 L 461.2 274.5 L 461.2 286.0 L 449.7 286.0 Z M 449.7 274.5 " fill="#000000" stroke="#000000" stroke-width="0.07" transform="matrix(3.07, 0.00, 0.00, -3.07, 134.0, 1040.0)"></path><path d="M 449.7 262.0 L 461.2 262.0 L 461.2 273.6 L 449.7 273.6 Z M 449.7 262.0 " fill="#2A2A2A" stroke="#000000" stroke-width="0.07" transform="matrix(3.07, 0.00, 0.00, -3.07, 134.0, 1040.0)"></path><path d="M 208.8 946.7 C 208.8 946.3 208.9 946.0 209.0 945.9 C 209.1 945.8 209.2 945.7 209.5 945.7 C 209.6 945.7 209.7 945.7 209.8 945.7 C 209.9 945.7 210.0 945.7 210.2 945.7 L 210.2 943.8 C 210.1 943.8 210.0 943.7 209.8 943.7 C 209.7 943.7 209.5 943.6 209.4 943.6 C 209.2 943.6 209.0 943.5 208.8 943.5 C 208.7 943.5 208.5 943.5 208.4 943.5 C 207.9 943.5 207.4 943.6 207.0 943.8 C 206.6 944.0 206.4 944.4 206.3 945.0 C 205.7 944.5 205.0 944.1 204.2 943.8 C 203.4 943.6 202.6 943.5 201.9 943.5 C 201.3 943.5 200.7 943.6 200.2 943.7 C 199.7 943.9 199.2 944.1 198.8 944.4 C 198.4 944.7 198.1 945.1 197.8 945.5 C 197.6 946.0 197.5 946.6 197.5 947.2 C 197.5 948.0 197.7 948.6 197.9 949.1 C 198.2 949.6 198.6 950.0 199.0 950.2 C 199.5 950.5 200.1 950.7 200.6 950.9 C 201.2 951.0 201.8 951.1 202.4 951.2 C 202.9 951.3 203.4 951.3 203.8 951.4 C 204.3 951.4 204.7 951.4 205.1 951.5 C 205.4 951.6 205.7 951.8 205.9 952.0 C 206.1 952.2 206.2 952.5 206.2 952.9 C 206.2 953.3 206.1 953.6 205.9 953.8 C 205.8 954.0 205.6 954.2 205.3 954.3 C 205.1 954.4 204.8 954.5 204.5 954.6 C 204.2 954.6 203.9 954.7 203.6 954.7 C 202.8 954.7 202.1 954.5 201.6 954.1 C 201.2 953.8 200.9 953.3 200.8 952.6 L 198.0 952.6 C 198.1 953.4 198.2 954.1 198.6 954.7 C 198.9 955.2 199.3 955.6 199.9 956.0 C 200.4 956.3 201.0 956.5 201.7 956.7 C 202.4 956.8 203.0 956.9 203.7 956.9 C 204.4 956.9 205.0 956.8 205.6 956.7 C 206.2 956.5 206.8 956.3 207.2 956.0 C 207.7 955.7 208.1 955.3 208.4 954.8 C 208.7 954.4 208.8 953.8 208.8 953.2 Z M 206.0 950.2 C 205.6 949.9 205.1 949.7 204.5 949.7 C 203.9 949.6 203.2 949.5 202.6 949.4 C 202.3 949.4 202.0 949.3 201.7 949.2 C 201.5 949.1 201.2 949.0 201.0 948.9 C 200.8 948.7 200.6 948.5 200.5 948.2 C 200.4 948.0 200.3 947.7 200.3 947.3 C 200.3 947.0 200.4 946.7 200.6 946.5 C 200.8 946.3 201.0 946.2 201.3 946.0 C 201.5 945.9 201.8 945.8 202.1 945.7 C 202.4 945.7 202.7 945.7 202.9 945.7 C 203.2 945.7 203.5 945.7 203.9 945.8 C 204.3 945.9 204.6 946.0 204.9 946.2 C 205.3 946.4 205.5 946.7 205.7 946.9 C 205.9 947.3 206.0 947.6 206.0 948.1 Z M 206.0 950.2 " fill="#000000"></path><path d="M 784.7 955.8 L 787.5 955.8 L 787.5 949.2 L 787.6 949.2 C 787.8 949.6 788.0 949.8 788.3 950.1 C 788.5 950.3 788.8 950.5 789.2 950.7 C 789.5 950.9 789.9 951.0 790.2 951.1 C 790.6 951.2 791.0 951.3 791.3 951.3 C 792.3 951.3 793.2 951.1 794.0 950.7 C 794.7 950.4 795.3 949.9 795.8 949.2 C 796.3 948.6 796.7 947.9 796.9 947.1 C 797.1 946.3 797.3 945.4 797.3 944.5 C 797.3 943.6 797.1 942.8 796.9 942.0 C 796.7 941.2 796.4 940.5 795.9 939.9 C 795.5 939.3 794.9 938.8 794.2 938.4 C 793.5 938.1 792.7 937.9 791.8 937.9 C 791.4 937.9 791.0 937.9 790.5 938.0 C 790.1 938.0 789.7 938.1 789.3 938.3 C 788.9 938.5 788.5 938.7 788.2 938.9 C 787.9 939.2 787.6 939.5 787.4 939.9 L 787.4 939.9 L 787.4 938.2 L 784.7 938.2 Z M 794.5 944.5 C 794.5 945.1 794.4 945.7 794.3 946.2 C 794.1 946.8 793.9 947.2 793.6 947.7 C 793.3 948.1 792.9 948.4 792.5 948.7 C 792.1 948.9 791.6 949.1 791.0 949.1 C 789.8 949.1 788.9 948.6 788.3 947.8 C 787.7 947.0 787.4 945.9 787.4 944.5 C 787.4 943.9 787.5 943.3 787.6 942.8 C 787.8 942.2 788.0 941.7 788.4 941.3 C 788.7 940.9 789.0 940.6 789.5 940.4 C 789.9 940.2 790.4 940.1 791.0 940.1 C 791.6 940.1 792.2 940.2 792.6 940.5 C 793.0 940.7 793.4 941.1 793.7 941.5 C 794.0 941.9 794.2 942.4 794.3 942.9 C 794.4 943.5 794.5 944.0 794.5 944.5 Z M 794.5 944.5 " fill="#000000"></path><path d="M 206.7 475.0 C 206.6 475.8 206.3 476.4 205.8 476.8 C 205.3 477.2 204.6 477.4 203.8 477.4 C 203.4 477.4 203.1 477.4 202.7 477.2 C 202.2 477.1 201.9 476.9 201.5 476.5 C 201.2 476.2 200.9 475.7 200.6 475.1 C 200.4 474.5 200.3 473.8 200.3 472.8 C 200.3 472.3 200.4 471.7 200.5 471.2 C 200.6 470.7 200.8 470.2 201.1 469.8 C 201.4 469.4 201.7 469.1 202.1 468.8 C 202.5 468.6 203.1 468.5 203.7 468.5 C 204.5 468.5 205.2 468.7 205.7 469.2 C 206.2 469.7 206.5 470.4 206.7 471.3 L 209.5 471.3 C 209.2 469.7 208.6 468.4 207.6 467.6 C 206.6 466.7 205.3 466.3 203.7 466.3 C 202.7 466.3 201.8 466.4 201.0 466.7 C 200.3 467.1 199.6 467.6 199.1 468.1 C 198.6 468.7 198.2 469.4 197.9 470.2 C 197.6 471.0 197.5 471.9 197.5 472.8 C 197.5 473.7 197.6 474.6 197.9 475.5 C 198.2 476.3 198.5 477.0 199.1 477.6 C 199.6 478.3 200.3 478.7 201.0 479.1 C 201.8 479.5 202.7 479.6 203.8 479.6 C 204.5 479.6 205.2 479.5 205.9 479.3 C 206.5 479.2 207.1 478.9 207.6 478.5 C 208.1 478.1 208.6 477.7 208.9 477.1 C 209.2 476.5 209.4 475.8 209.5 475.0 Z M 206.7 475.0 " fill="#000000"></path><path d="M 1562.6 174.2 L 1569.7 174.2 L 1569.7 171.5 L 1562.6 171.5 Z M 1562.6 174.2 " fill="#000000"></path><path d="M 1577.7 183.7 C 1579.0 183.7 1580.0 183.4 1580.8 182.9 C 1581.5 182.3 1582.1 181.5 1582.6 180.7 C 1583.0 179.8 1583.3 178.8 1583.4 177.8 C 1583.6 176.7 1583.7 175.7 1583.7 174.8 C 1583.7 173.8 1583.6 172.7 1583.4 171.7 C 1583.3 170.7 1583.0 169.7 1582.6 168.8 C 1582.1 168.0 1581.5 167.2 1580.8 166.7 C 1580.0 166.1 1579.0 165.8 1577.7 165.8 C 1576.5 165.8 1575.5 166.1 1574.7 166.7 C 1574.0 167.2 1573.3 168.0 1572.9 168.8 C 1572.5 169.7 1572.2 170.7 1572.0 171.7 C 1571.9 172.7 1571.8 173.8 1571.8 174.8 C 1571.8 175.7 1571.9 176.7 1572.0 177.8 C 1572.2 178.8 1572.5 179.8 1572.9 180.7 C 1573.3 181.5 1574.0 182.3 1574.7 182.9 C 1575.5 183.4 1576.5 183.7 1577.7 183.7 Z M 1577.7 168.1 C 1578.3 168.1 1578.9 168.3 1579.3 168.7 C 1579.7 169.0 1580.0 169.5 1580.2 170.1 C 1580.5 170.7 1580.7 171.4 1580.8 172.2 C 1580.9 173.0 1580.9 173.9 1580.9 174.8 C 1580.9 175.6 1580.9 176.5 1580.8 177.3 C 1580.7 178.1 1580.5 178.8 1580.2 179.4 C 1580.0 180.0 1579.7 180.5 1579.3 180.8 C 1578.9 181.2 1578.3 181.4 1577.7 181.4 C 1577.1 181.4 1576.6 181.2 1576.2 180.8 C 1575.8 180.5 1575.5 180.0 1575.3 179.4 C 1575.0 178.8 1574.9 178.1 1574.8 177.3 C 1574.7 176.5 1574.6 175.6 1574.6 174.8 C 1574.6 173.9 1574.7 173.0 1574.8 172.2 C 1574.9 171.4 1575.0 170.7 1575.3 170.1 C 1575.5 169.5 1575.8 169.0 1576.2 168.7 C 1576.6 168.3 1577.1 168.1 1577.7 168.1 Z M 1577.7 168.1 " fill="#000000"></path><path d="M 1586.3 169.5 L 1589.7 169.5 L 1589.7 166.2 L 1586.3 166.2 Z M 1586.3 169.5 " fill="#000000"></path><path d="M 1594.1 172.5 L 1599.4 172.5 L 1599.4 180.0 L 1599.3 180.0 Z M 1604.2 170.3 L 1602.0 170.3 L 1602.0 166.2 L 1599.4 166.2 L 1599.4 170.3 L 1592.0 170.3 L 1592.0 173.0 L 1599.4 183.3 L 1602.0 183.3 L 1602.0 172.5 L 1604.2 172.5 Z M 1604.2 170.3 " fill="#000000"></path><path d="M 1611.9 183.7 C 1613.1 183.7 1614.1 183.4 1614.9 182.9 C 1615.7 182.3 1616.3 181.5 1616.7 180.7 C 1617.2 179.8 1617.4 178.8 1617.6 177.8 C 1617.7 176.7 1617.8 175.7 1617.8 174.8 C 1617.8 173.8 1617.7 172.7 1617.6 171.7 C 1617.4 170.7 1617.2 169.7 1616.7 168.8 C 1616.3 168.0 1615.7 167.2 1614.9 166.7 C 1614.1 166.1 1613.1 165.8 1611.9 165.8 C 1610.6 165.8 1609.6 166.1 1608.8 166.7 C 1608.1 167.2 1607.5 168.0 1607.0 168.8 C 1606.6 169.7 1606.3 170.7 1606.2 171.7 C 1606.0 172.7 1605.9 173.8 1605.9 174.8 C 1605.9 175.7 1606.0 176.7 1606.2 177.8 C 1606.3 178.8 1606.6 179.8 1607.0 180.7 C 1607.5 181.5 1608.1 182.3 1608.8 182.9 C 1609.6 183.4 1610.6 183.7 1611.9 183.7 Z M 1611.9 168.1 C 1612.5 168.1 1613.0 168.3 1613.4 168.7 C 1613.8 169.0 1614.1 169.5 1614.4 170.1 C 1614.6 170.7 1614.8 171.4 1614.9 172.2 C 1615.0 173.0 1615.0 173.9 1615.0 174.8 C 1615.0 175.6 1615.0 176.5 1614.9 177.3 C 1614.8 178.1 1614.6 178.8 1614.4 179.4 C 1614.1 180.0 1613.8 180.5 1613.4 180.8 C 1613.0 181.2 1612.5 181.4 1611.9 181.4 C 1611.3 181.4 1610.7 181.2 1610.3 180.8 C 1610.0 180.5 1609.6 180.0 1609.4 179.4 C 1609.1 178.8 1609.0 178.1 1608.9 177.3 C 1608.8 176.5 1608.8 175.6 1608.8 174.8 C 1608.8 173.9 1608.8 173.0 1608.9 172.2 C 1609.0 171.4 1609.1 170.7 1609.4 170.1 C 1609.6 169.5 1610.0 169.0 1610.3 168.7 C 1610.7 168.3 1611.3 168.1 1611.9 168.1 Z M 1611.9 168.1 " fill="#000000"></path><path d="M 1628.4 179.0 C 1628.3 179.7 1628.1 180.3 1627.6 180.7 C 1627.2 181.1 1626.6 181.4 1625.9 181.4 C 1625.4 181.4 1625.0 181.3 1624.6 181.1 C 1624.2 180.9 1623.9 180.6 1623.7 180.3 C 1623.4 180.0 1623.2 179.7 1623.0 179.3 C 1622.9 178.9 1622.8 178.5 1622.7 178.0 C 1622.6 177.6 1622.5 177.1 1622.5 176.7 C 1622.4 176.3 1622.4 175.9 1622.4 175.5 L 1622.4 175.4 C 1622.8 176.1 1623.3 176.6 1623.9 177.0 C 1624.6 177.3 1625.3 177.5 1626.1 177.5 C 1627.0 177.5 1627.7 177.3 1628.4 177.0 C 1629.1 176.7 1629.6 176.3 1630.1 175.8 C 1630.6 175.3 1630.9 174.7 1631.1 174.0 C 1631.4 173.3 1631.5 172.5 1631.5 171.7 C 1631.5 170.9 1631.4 170.1 1631.1 169.4 C 1630.8 168.7 1630.4 168.1 1629.9 167.5 C 1629.5 167.0 1628.9 166.6 1628.2 166.3 C 1627.5 166.0 1626.7 165.8 1625.8 165.8 C 1624.6 165.8 1623.5 166.1 1622.7 166.5 C 1621.9 167.0 1621.3 167.6 1620.8 168.4 C 1620.3 169.3 1620.0 170.2 1619.8 171.3 C 1619.6 172.4 1619.5 173.6 1619.5 174.8 C 1619.5 175.8 1619.6 176.9 1619.9 177.9 C 1620.1 179.0 1620.5 179.9 1621.0 180.8 C 1621.5 181.7 1622.1 182.4 1623.0 182.9 C 1623.8 183.4 1624.8 183.7 1626.1 183.7 C 1626.7 183.7 1627.4 183.6 1628.0 183.3 C 1628.6 183.1 1629.1 182.8 1629.6 182.4 C 1630.0 182.0 1630.4 181.5 1630.7 180.9 C 1631.0 180.4 1631.2 179.7 1631.2 179.0 Z M 1625.7 168.1 C 1626.2 168.1 1626.7 168.2 1627.0 168.4 C 1627.4 168.6 1627.7 168.9 1628.0 169.2 C 1628.2 169.6 1628.4 170.0 1628.5 170.4 C 1628.7 170.8 1628.7 171.3 1628.7 171.7 C 1628.7 172.2 1628.7 172.7 1628.5 173.1 C 1628.4 173.5 1628.2 173.9 1628.0 174.2 C 1627.7 174.5 1627.4 174.8 1627.0 175.0 C 1626.7 175.1 1626.2 175.2 1625.7 175.2 C 1625.2 175.2 1624.8 175.1 1624.4 175.0 C 1624.0 174.8 1623.7 174.5 1623.4 174.2 C 1623.2 173.9 1623.0 173.5 1622.8 173.1 C 1622.7 172.7 1622.6 172.2 1622.6 171.7 C 1622.6 171.3 1622.7 170.8 1622.8 170.4 C 1623.0 170.0 1623.2 169.6 1623.4 169.2 C 1623.7 168.9 1624.0 168.6 1624.4 168.4 C 1624.8 168.2 1625.2 168.1 1625.7 168.1 Z M 1625.7 168.1 " fill="#000000"></path><path d="M 1580.0 413.1 C 1581.3 413.1 1582.3 412.8 1583.1 412.2 C 1583.8 411.6 1584.4 410.9 1584.9 410.0 C 1585.3 409.1 1585.6 408.2 1585.7 407.1 C 1585.9 406.1 1586.0 405.1 1586.0 404.1 C 1586.0 403.1 1585.9 402.1 1585.7 401.0 C 1585.6 400.0 1585.3 399.0 1584.9 398.2 C 1584.4 397.3 1583.8 396.6 1583.1 396.0 C 1582.3 395.5 1581.3 395.2 1580.0 395.2 C 1578.8 395.2 1577.8 395.5 1577.0 396.0 C 1576.3 396.6 1575.6 397.3 1575.2 398.2 C 1574.8 399.0 1574.5 400.0 1574.3 401.0 C 1574.2 402.1 1574.1 403.1 1574.1 404.1 C 1574.1 405.1 1574.2 406.1 1574.3 407.1 C 1574.5 408.2 1574.8 409.1 1575.2 410.0 C 1575.6 410.9 1576.3 411.6 1577.0 412.2 C 1577.8 412.8 1578.8 413.1 1580.0 413.1 Z M 1580.0 397.5 C 1580.6 397.5 1581.2 397.7 1581.6 398.0 C 1582.0 398.4 1582.3 398.8 1582.5 399.5 C 1582.8 400.1 1583.0 400.8 1583.1 401.6 C 1583.2 402.4 1583.2 403.2 1583.2 404.1 C 1583.2 405.0 1583.2 405.8 1583.1 406.6 C 1583.0 407.4 1582.8 408.1 1582.5 408.8 C 1582.3 409.3 1582.0 409.8 1581.6 410.2 C 1581.2 410.5 1580.6 410.7 1580.0 410.7 C 1579.4 410.7 1578.9 410.5 1578.5 410.2 C 1578.1 409.8 1577.8 409.3 1577.6 408.8 C 1577.3 408.1 1577.2 407.4 1577.1 406.6 C 1577.0 405.8 1576.9 405.0 1576.9 404.1 C 1576.9 403.2 1577.0 402.4 1577.1 401.6 C 1577.2 400.8 1577.3 400.1 1577.6 399.5 C 1577.8 398.8 1578.1 398.4 1578.5 398.0 C 1578.9 397.7 1579.4 397.5 1580.0 397.5 Z M 1580.0 397.5 " fill="#000000"></path><path d="M 1588.6 398.8 L 1592.0 398.8 L 1592.0 395.5 L 1588.6 395.5 Z M 1588.6 398.8 " fill="#000000"></path><path d="M 1599.3 405.6 C 1599.8 405.6 1600.2 405.6 1600.7 405.7 C 1601.1 405.8 1601.5 405.9 1601.9 406.1 C 1602.2 406.3 1602.5 406.6 1602.8 406.9 C 1603.0 407.3 1603.1 407.8 1603.1 408.3 C 1603.1 409.0 1602.8 409.6 1602.3 410.0 C 1601.9 410.5 1601.2 410.7 1600.4 410.7 C 1599.9 410.7 1599.5 410.6 1599.1 410.4 C 1598.8 410.2 1598.5 410.0 1598.3 409.6 C 1598.0 409.3 1597.8 408.9 1597.7 408.5 C 1597.6 408.1 1597.6 407.7 1597.6 407.2 L 1594.8 407.2 C 1594.8 408.0 1595.0 408.8 1595.2 409.5 C 1595.5 410.2 1595.9 410.8 1596.4 411.3 C 1596.9 411.9 1597.4 412.3 1598.1 412.6 C 1598.8 412.9 1599.6 413.1 1600.5 413.1 C 1601.1 413.1 1601.8 412.9 1602.4 412.7 C 1603.1 412.5 1603.7 412.3 1604.2 411.9 C 1604.7 411.5 1605.1 411.0 1605.4 410.4 C 1605.7 409.9 1605.9 409.2 1605.9 408.5 C 1605.9 407.6 1605.7 406.8 1605.3 406.2 C 1604.9 405.5 1604.3 405.1 1603.5 404.8 L 1603.5 404.7 C 1604.4 404.5 1605.2 404.0 1605.7 403.2 C 1606.3 402.5 1606.6 401.5 1606.6 400.4 C 1606.6 399.6 1606.4 398.9 1606.1 398.2 C 1605.7 397.6 1605.3 397.0 1604.8 396.6 C 1604.2 396.1 1603.6 395.8 1602.8 395.5 C 1602.1 395.3 1601.3 395.2 1600.5 395.2 C 1599.5 395.2 1598.6 395.3 1597.9 395.6 C 1597.1 395.9 1596.5 396.3 1596.0 396.8 C 1595.5 397.4 1595.1 398.0 1594.9 398.7 C 1594.6 399.5 1594.5 400.3 1594.5 401.2 L 1597.3 401.2 C 1597.2 400.1 1597.5 399.2 1598.0 398.5 C 1598.6 397.8 1599.4 397.5 1600.5 397.5 C 1601.4 397.5 1602.2 397.8 1602.8 398.3 C 1603.4 398.8 1603.8 399.6 1603.8 400.6 C 1603.8 401.2 1603.6 401.8 1603.4 402.1 C 1603.1 402.5 1602.8 402.9 1602.3 403.0 C 1601.9 403.3 1601.4 403.4 1600.9 403.4 C 1600.4 403.5 1599.9 403.5 1599.3 403.5 Z M 1599.3 405.6 " fill="#000000"></path><path d="M 1611.3 399.9 C 1611.4 399.2 1611.6 398.6 1612.1 398.2 C 1612.5 397.7 1613.1 397.5 1613.8 397.5 C 1614.6 397.5 1615.2 397.7 1615.6 398.1 C 1616.0 398.5 1616.4 399.0 1616.7 399.6 C 1616.9 400.2 1617.1 400.8 1617.1 401.5 C 1617.2 402.2 1617.3 402.8 1617.4 403.4 L 1617.3 403.4 C 1616.9 402.8 1616.4 402.2 1615.8 401.9 C 1615.1 401.5 1614.4 401.4 1613.6 401.4 C 1612.8 401.4 1612.1 401.5 1611.4 401.8 C 1610.7 402.1 1610.1 402.5 1609.7 402.9 C 1609.2 403.5 1608.8 404.1 1608.6 404.8 C 1608.3 405.5 1608.2 406.3 1608.2 407.2 C 1608.2 408.0 1608.3 408.8 1608.6 409.5 C 1608.8 410.2 1609.2 410.8 1609.8 411.3 C 1610.3 411.9 1610.9 412.3 1611.6 412.6 C 1612.4 412.9 1613.2 413.1 1614.1 413.1 C 1615.3 413.1 1616.3 412.8 1617.1 412.3 C 1617.9 411.9 1618.5 411.2 1619.0 410.4 C 1619.4 409.6 1619.7 408.7 1619.9 407.6 C 1620.1 406.5 1620.2 405.3 1620.2 404.1 C 1620.2 403.0 1620.0 402.0 1619.8 400.9 C 1619.6 399.9 1619.2 398.9 1618.7 398.1 C 1618.2 397.2 1617.6 396.5 1616.8 396.0 C 1615.9 395.5 1614.9 395.2 1613.7 395.2 C 1613.0 395.2 1612.4 395.3 1611.8 395.5 C 1611.2 395.7 1610.6 396.1 1610.1 396.5 C 1609.7 396.9 1609.3 397.4 1609.0 398.0 C 1608.7 398.5 1608.5 399.2 1608.5 399.9 Z M 1614.0 410.7 C 1613.5 410.7 1613.0 410.6 1612.6 410.4 C 1612.3 410.2 1612.0 410.0 1611.7 409.7 C 1611.5 409.3 1611.3 409.0 1611.1 408.5 C 1611.1 408.1 1611.0 407.7 1611.0 407.2 C 1611.0 406.7 1611.1 406.3 1611.1 405.8 C 1611.3 405.4 1611.5 405.0 1611.7 404.7 C 1612.0 404.4 1612.3 404.1 1612.6 403.9 C 1613.0 403.7 1613.5 403.6 1614.0 403.6 C 1614.5 403.6 1615.0 403.7 1615.4 403.9 C 1615.8 404.1 1616.1 404.4 1616.3 404.7 C 1616.6 405.0 1616.8 405.4 1616.9 405.8 C 1617.0 406.3 1617.1 406.7 1617.1 407.2 C 1617.1 407.7 1617.0 408.1 1616.9 408.5 C 1616.8 409.0 1616.6 409.3 1616.3 409.7 C 1616.1 410.0 1615.8 410.2 1615.4 410.4 C 1615.0 410.6 1614.5 410.7 1614.0 410.7 Z M 1614.0 410.7 " fill="#000000"></path><path d="M 1627.8 410.8 C 1627.1 410.8 1626.4 410.6 1625.9 410.1 C 1625.4 409.7 1625.1 409.1 1625.1 408.2 C 1625.1 407.4 1625.4 406.8 1625.9 406.3 C 1626.4 405.9 1627.1 405.7 1627.8 405.7 C 1628.6 405.7 1629.3 405.9 1629.8 406.3 C 1630.3 406.8 1630.6 407.4 1630.6 408.2 C 1630.6 409.1 1630.3 409.7 1629.7 410.1 C 1629.2 410.6 1628.6 410.8 1627.8 410.8 Z M 1627.8 395.2 C 1627.0 395.2 1626.2 395.3 1625.4 395.5 C 1624.7 395.8 1624.1 396.1 1623.5 396.6 C 1623.0 397.1 1622.5 397.6 1622.2 398.3 C 1621.9 399.0 1621.8 399.7 1621.8 400.6 C 1621.8 401.6 1622.1 402.5 1622.6 403.3 C 1623.2 404.0 1623.9 404.5 1624.9 404.8 L 1624.9 404.8 C 1624.1 405.1 1623.5 405.6 1623.1 406.2 C 1622.7 406.8 1622.5 407.5 1622.5 408.4 C 1622.5 409.8 1623.0 411.0 1623.9 411.8 C 1624.8 412.6 1626.1 413.1 1627.8 413.1 C 1629.6 413.1 1630.9 412.6 1631.8 411.8 C 1632.7 411.0 1633.2 409.8 1633.2 408.4 C 1633.2 407.5 1633.0 406.8 1632.6 406.2 C 1632.2 405.6 1631.5 405.1 1630.8 404.8 L 1630.8 404.8 C 1631.7 404.5 1632.5 404.0 1633.1 403.3 C 1633.6 402.5 1633.9 401.6 1633.9 400.6 C 1633.9 399.7 1633.7 399.0 1633.4 398.3 C 1633.1 397.6 1632.7 397.1 1632.2 396.6 C 1631.6 396.1 1631.0 395.8 1630.2 395.5 C 1629.5 395.3 1628.7 395.2 1627.8 395.2 Z M 1627.8 397.4 C 1628.8 397.4 1629.6 397.7 1630.2 398.2 C 1630.8 398.8 1631.1 399.6 1631.1 400.6 C 1631.1 401.5 1630.8 402.2 1630.2 402.8 C 1629.6 403.3 1628.8 403.6 1627.8 403.6 C 1626.9 403.6 1626.1 403.3 1625.5 402.8 C 1624.9 402.2 1624.6 401.5 1624.6 400.6 C 1624.6 399.6 1624.9 398.8 1625.5 398.2 C 1626.1 397.7 1626.9 397.4 1627.8 397.4 Z M 1627.8 397.4 " fill="#000000"></path><path d="M 1578.5 303.4 L 1581.3 303.4 L 1581.3 285.8 L 1578.5 285.8 Z M 1578.5 303.4 " fill="#000000"></path><path d="M 1590.1 285.5 C 1589.1 285.5 1588.2 285.7 1587.4 286.0 C 1586.6 286.3 1586.0 286.8 1585.4 287.4 C 1584.9 288.0 1584.4 288.7 1584.2 289.5 C 1583.9 290.3 1583.7 291.2 1583.7 292.2 C 1583.7 293.2 1583.9 294.0 1584.2 294.8 C 1584.4 295.7 1584.9 296.4 1585.4 297.0 C 1586.0 297.5 1586.6 298.0 1587.4 298.3 C 1588.2 298.7 1589.1 298.9 1590.1 298.9 C 1591.2 298.9 1592.1 298.7 1592.8 298.3 C 1593.6 298.0 1594.3 297.5 1594.8 297.0 C 1595.4 296.4 1595.8 295.7 1596.1 294.8 C 1596.4 294.0 1596.6 293.2 1596.6 292.2 C 1596.6 291.2 1596.4 290.3 1596.1 289.5 C 1595.8 288.7 1595.4 288.0 1594.8 287.4 C 1594.3 286.8 1593.6 286.3 1592.8 286.0 C 1592.1 285.7 1591.2 285.5 1590.1 285.5 Z M 1590.1 287.7 C 1590.8 287.7 1591.3 287.8 1591.8 288.1 C 1592.2 288.3 1592.6 288.7 1592.9 289.1 C 1593.2 289.5 1593.4 290.0 1593.5 290.5 C 1593.7 291.1 1593.7 291.6 1593.7 292.2 C 1593.7 292.7 1593.7 293.3 1593.5 293.8 C 1593.4 294.3 1593.2 294.8 1592.9 295.2 C 1592.6 295.6 1592.2 296.0 1591.8 296.2 C 1591.3 296.5 1590.8 296.7 1590.1 296.7 C 1589.5 296.7 1589.0 296.5 1588.5 296.2 C 1588.1 296.0 1587.7 295.6 1587.4 295.2 C 1587.1 294.8 1586.9 294.3 1586.7 293.8 C 1586.6 293.3 1586.6 292.7 1586.6 292.2 C 1586.6 291.6 1586.6 291.1 1586.7 290.5 C 1586.9 290.0 1587.1 289.5 1587.4 289.1 C 1587.7 288.7 1588.1 288.3 1588.5 288.1 C 1589.0 287.8 1589.5 287.7 1590.1 287.7 Z M 1590.1 287.7 " fill="#000000"></path><path d="M 1610.6 286.5 C 1610.6 284.6 1610.0 283.2 1608.9 282.2 C 1607.9 281.3 1606.3 280.8 1604.3 280.8 C 1603.7 280.8 1603.1 280.9 1602.4 281.0 C 1601.8 281.1 1601.2 281.3 1600.6 281.7 C 1600.1 282.0 1599.7 282.4 1599.3 282.9 C 1598.9 283.4 1598.7 284.0 1598.7 284.7 L 1601.5 284.7 C 1601.6 284.3 1601.7 284.0 1601.9 283.8 C 1602.1 283.6 1602.3 283.4 1602.6 283.2 C 1602.8 283.1 1603.1 283.0 1603.5 283.0 C 1603.8 282.9 1604.2 282.9 1604.5 282.9 C 1605.6 282.9 1606.5 283.2 1607.0 283.7 C 1607.5 284.3 1607.8 285.1 1607.8 286.1 L 1607.8 288.1 L 1607.7 288.1 C 1607.4 287.4 1606.8 286.8 1606.1 286.4 C 1605.4 286.0 1604.7 285.8 1603.9 285.8 C 1602.9 285.8 1602.0 286.0 1601.3 286.4 C 1600.6 286.7 1600.0 287.2 1599.5 287.8 C 1599.1 288.4 1598.7 289.1 1598.5 289.9 C 1598.3 290.7 1598.2 291.6 1598.2 292.5 C 1598.2 293.4 1598.4 294.2 1598.6 294.9 C 1598.9 295.7 1599.3 296.4 1599.7 297.0 C 1600.2 297.5 1600.8 298.0 1601.6 298.3 C 1602.3 298.7 1603.1 298.9 1604.0 298.9 C 1604.8 298.9 1605.5 298.7 1606.2 298.3 C 1606.9 298.0 1607.4 297.5 1607.7 296.8 L 1607.8 296.8 L 1607.8 298.5 L 1610.6 298.5 Z M 1604.4 288.0 C 1605.0 288.0 1605.5 288.2 1606.0 288.4 C 1606.4 288.7 1606.8 289.0 1607.0 289.4 C 1607.3 289.8 1607.5 290.3 1607.6 290.8 C 1607.7 291.4 1607.8 291.9 1607.8 292.4 C 1607.8 293.0 1607.7 293.5 1607.6 294.0 C 1607.5 294.5 1607.3 295.0 1607.0 295.4 C 1606.7 295.8 1606.4 296.1 1605.9 296.3 C 1605.5 296.5 1605.0 296.7 1604.4 296.7 C 1603.7 296.7 1603.2 296.5 1602.8 296.2 C 1602.4 296.0 1602.0 295.6 1601.7 295.2 C 1601.5 294.8 1601.3 294.3 1601.2 293.8 C 1601.1 293.3 1601.0 292.8 1601.0 292.3 C 1601.0 291.7 1601.1 291.2 1601.2 290.7 C 1601.3 290.2 1601.5 289.7 1601.8 289.3 C 1602.1 288.9 1602.4 288.6 1602.8 288.4 C 1603.3 288.1 1603.8 288.0 1604.4 288.0 Z M 1604.4 288.0 " fill="#000000"></path><path d="M 1616.7 281.1 C 1616.2 281.9 1615.7 282.8 1615.3 283.6 C 1614.8 284.4 1614.5 285.3 1614.2 286.2 C 1613.8 287.1 1613.6 288.1 1613.4 289.1 C 1613.2 290.2 1613.1 291.3 1613.1 292.4 C 1613.1 294.4 1613.4 296.4 1614.1 298.3 C 1614.7 300.2 1615.5 302.0 1616.7 303.8 L 1618.9 303.8 C 1618.0 302.0 1617.2 300.2 1616.7 298.3 C 1616.2 296.5 1615.9 294.5 1615.9 292.4 C 1615.9 290.4 1616.2 288.4 1616.6 286.5 C 1617.2 284.7 1617.9 282.9 1618.9 281.1 Z M 1616.7 281.1 " fill="#000000"></path><path d="M 1630.1 291.5 C 1630.1 290.7 1630.0 290.0 1629.9 289.2 C 1629.7 288.5 1629.5 287.9 1629.1 287.3 C 1628.7 286.7 1628.1 286.3 1627.3 285.9 C 1626.6 285.6 1625.6 285.4 1624.3 285.4 C 1623.4 285.4 1622.6 285.5 1621.9 285.8 C 1621.3 286.1 1620.7 286.5 1620.3 287.0 C 1619.9 287.5 1619.6 288.1 1619.4 288.8 C 1619.2 289.4 1619.1 290.2 1619.1 291.1 L 1619.1 292.0 L 1622.2 292.0 L 1622.2 291.1 C 1622.2 290.1 1622.3 289.3 1622.6 288.8 C 1623.0 288.2 1623.6 287.9 1624.6 287.9 C 1625.0 287.9 1625.4 288.0 1625.8 288.1 C 1626.1 288.3 1626.3 288.5 1626.5 288.8 C 1626.7 289.1 1626.8 289.4 1626.9 289.9 C 1627.0 290.3 1627.0 290.7 1627.0 291.3 L 1627.0 303.4 L 1630.1 303.4 Z M 1630.1 291.5 " fill="#000000"></path><path d="M 1634.0 303.8 C 1634.5 303.0 1635.0 302.2 1635.4 301.3 C 1635.8 300.5 1636.2 299.6 1636.5 298.7 C 1636.8 297.7 1637.1 296.8 1637.3 295.8 C 1637.4 294.7 1637.5 293.6 1637.5 292.4 C 1637.5 290.5 1637.2 288.5 1636.6 286.6 C 1636.0 284.7 1635.2 282.9 1634.0 281.1 L 1631.7 281.1 C 1632.7 282.9 1633.5 284.7 1634.0 286.5 C 1634.5 288.4 1634.8 290.4 1634.8 292.4 C 1634.8 294.5 1634.5 296.4 1634.0 298.3 C 1633.5 300.2 1632.8 302.0 1631.7 303.8 Z M 1634.0 303.8 " fill="#000000"></path><path d="M 372.8 14.8 L 369.0 43.7 " fill="none" stroke="#000000" stroke-width="0.28" stroke-dasharray="1.7, 1.7" transform="matrix(3.07, 0.00, 0.00, -3.07, 134.0, 1040.0)"></path><path d="M 419.6 19.6 L 394.3 46.5 " fill="none" stroke="#000000" stroke-width="0.28" stroke-dasharray="1.7, 1.7" transform="matrix(3.07, 0.00, 0.00, -3.07, 134.0, 1040.0)"></path><path d="M 325.9 17.3 L 343.4 44.9 " fill="none" stroke="#000000" stroke-width="0.28" stroke-dasharray="1.7, 1.7" transform="matrix(3.07, 0.00, 0.00, -3.07, 134.0, 1040.0)"></path><path d="M 281.8 26.2 L 320.9 50.6 " fill="none" stroke="#000000" stroke-width="0.28" stroke-dasharray="1.7, 1.7" transform="matrix(3.07, 0.00, 0.00, -3.07, 134.0, 1040.0)"></path><path d="M 248.1 41.0 L 303.9 58.5 " fill="none" stroke="#000000" stroke-width="0.28" stroke-dasharray="1.7, 1.7" transform="matrix(3.07, 0.00, 0.00, -3.07, 134.0, 1040.0)"></path><path d="M 226.4 59.5 L 294.1 68.5 " fill="none" stroke="#000000" stroke-width="0.28" stroke-dasharray="1.7, 1.7" transform="matrix(3.07, 0.00, 0.00, -3.07, 134.0, 1040.0)"></path><path d="M 219.8 78.9 L 292.0 78.4 " fill="none" stroke="#000000" stroke-width="0.28" stroke-dasharray="1.7, 1.7" transform="matrix(3.07, 0.00, 0.00, -3.07, 134.0, 1040.0)"></path><path d="M 230.6 99.5 L 296.8 90.3 " fill="none" stroke="#000000" stroke-width="0.28" stroke-dasharray="1.7, 1.7" transform="matrix(3.07, 0.00, 0.00, -3.07, 134.0, 1040.0)"></path><path d="M 256.4 117.4 L 309.4 100.0 " fill="none" stroke="#000000" stroke-width="0.28" stroke-dasharray="1.7, 1.7" transform="matrix(3.07, 0.00, 0.00, -3.07, 134.0, 1040.0)"></path><path d="M 292.4 130.7 L 327.5 107.0 " fill="none" stroke="#000000" stroke-width="0.28" stroke-dasharray="1.7, 1.7" transform="matrix(3.07, 0.00, 0.00, -3.07, 134.0, 1040.0)"></path><path d="M 338.0 138.4 L 350.1 110.6 " fill="none" stroke="#000000" stroke-width="0.28" stroke-dasharray="1.7, 1.7" transform="matrix(3.07, 0.00, 0.00, -3.07, 134.0, 1040.0)"></path><path d="M 385.7 138.8 L 375.7 110.2 " fill="none" stroke="#000000" stroke-width="0.28" stroke-dasharray="1.7, 1.7" transform="matrix(3.07, 0.00, 0.00, -3.07, 134.0, 1040.0)"></path><path d="M 432.9 131.5 L 398.8 107.4 " fill="none" stroke="#000000" stroke-width="0.28" stroke-dasharray="1.7, 1.7" transform="matrix(3.07, 0.00, 0.00, -3.07, 134.0, 1040.0)"></path><path d="M 470.6 118.6 L 417.0 100.7 " fill="none" stroke="#000000" stroke-width="0.28" stroke-dasharray="1.7, 1.7" transform="matrix(3.07, 0.00, 0.00, -3.07, 134.0, 1040.0)"></path><path d="M 497.4 100.3 L 430.8 91.3 " fill="none" stroke="#000000" stroke-width="0.28" stroke-dasharray="1.7, 1.7" transform="matrix(3.07, 0.00, 0.00, -3.07, 134.0, 1040.0)"></path><path d="M 507.4 83.3 L 436.4 80.6 " fill="none" stroke="#000000" stroke-width="0.28" stroke-dasharray="1.7, 1.7" transform="matrix(3.07, 0.00, 0.00, -3.07, 134.0, 1040.0)"></path><path d="M 506.2 65.8 L 436.0 71.5 " fill="none" stroke="#000000" stroke-width="0.28" stroke-dasharray="1.7, 1.7" transform="matrix(3.07, 0.00, 0.00, -3.07, 134.0, 1040.0)"></path><path d="M 489.7 46.8 L 429.1 61.9 " fill="none" stroke="#000000" stroke-width="0.28" stroke-dasharray="1.7, 1.7" transform="matrix(3.07, 0.00, 0.00, -3.07, 134.0, 1040.0)"></path><path d="M 460.8 31.4 L 415.1 53.3 " fill="none" stroke="#000000" stroke-width="0.28" stroke-dasharray="1.7, 1.7" transform="matrix(3.07, 0.00, 0.00, -3.07, 134.0, 1040.0)"></path><path d="M 444.4 913.0 C 311.1 913.0 203.1 864.6 203.1 804.4 L 203.1 791.9 C 203.1 732.2 311.1 683.8 444.4 683.8 C 577.6 683.8 685.6 732.2 685.6 791.9 L 685.6 804.4 C 685.6 864.6 577.6 913.0 444.4 913.0 Z M 444.4 829.8 C 485.8 829.8 520.2 816.2 526.8 798.3 C 520.3 780.4 485.9 766.8 444.4 766.8 C 402.9 766.8 368.5 780.4 361.9 798.3 C 368.5 816.2 402.9 829.8 444.4 829.8 Z M 444.4 829.8 " fill="#D4D4D4"></path><path d="M 686.0 791.9 C 686.0 732.2 578.0 683.8 444.8 683.8 C 311.5 683.8 203.5 732.2 203.5 791.9 L 203.5 804.4 C 203.5 745.2 311.5 696.9 444.8 696.9 C 578.0 696.9 686.0 745.2 686.0 804.9 Z M 686.0 791.9 " fill="#909090"></path><path d="M 444.7 829.8 C 403.3 829.8 368.9 816.2 362.2 798.5 C 361.4 800.5 361.1 802.5 361.1 804.5 C 361.1 825.3 398.5 842.2 444.7 842.2 C 490.9 842.2 528.4 825.3 528.4 804.5 C 528.4 802.6 528.1 800.8 527.4 798.7 C 520.6 816.2 486.2 829.8 444.7 829.8 Z M 444.7 829.8 " fill="#909090"></path><path d="M 128.6 76.7 C 128.6 83.5 116.3 89.0 101.3 89.0 C 86.2 89.0 74.0 83.5 74.0 76.7 C 74.0 69.9 86.2 64.4 101.3 64.4 C 116.3 64.4 128.6 69.9 128.6 76.7 Z M 128.6 76.7 " fill="none" stroke="#000000" stroke-width="0.21" transform="matrix(3.07, 0.00, 0.00, -3.07, 134.0, 1040.0)"></path><path d="M 180.0 76.5 C 180.0 96.0 144.7 111.7 101.3 111.7 C 57.9 111.7 22.6 96.0 22.6 76.5 C 22.6 57.1 57.9 41.3 101.3 41.3 C 144.7 41.3 180.0 57.1 180.0 76.5 Z M 180.0 76.5 " fill="none" stroke="#000000" stroke-width="0.21" transform="matrix(3.07, 0.00, 0.00, -3.07, 134.0, 1040.0)"></path><path d="M 180.0 80.8 C 180.0 100.2 144.7 116.0 101.3 116.0 C 57.9 116.0 22.6 100.2 22.6 80.8 L 22.6 76.8 " fill="none" stroke="#000000" stroke-width="0.21" transform="matrix(3.07, 0.00, 0.00, -3.07, 134.0, 1040.0)"></path><path d="M 100.6 88.9 L 99.6 116.0 " fill="none" stroke="#000000" stroke-width="0.21" transform="matrix(3.07, 0.00, 0.00, -3.07, 134.0, 1040.0)"></path><path d="M 109.7 88.4 L 125.5 110.1 L 125.5 114.3 " fill="none" stroke="#000000" stroke-width="0.21" transform="matrix(3.07, 0.00, 0.00, -3.07, 134.0, 1040.0)"></path><path d="M 117.9 86.4 L 148.7 104.6 L 148.7 108.9 " fill="none" stroke="#000000" stroke-width="0.21" transform="matrix(3.07, 0.00, 0.00, -3.07, 134.0, 1040.0)"></path><path d="M 124.2 83.3 L 166.7 96.1 L 166.7 100.4 " fill="none" stroke="#000000" stroke-width="0.21" transform="matrix(3.07, 0.00, 0.00, -3.07, 134.0, 1040.0)"></path><path d="M 127.7 79.7 L 177.4 85.5 L 177.4 89.7 " fill="none" stroke="#000000" stroke-width="0.21" transform="matrix(3.07, 0.00, 0.00, -3.07, 134.0, 1040.0)"></path><path d="M 128.6 76.6 L 180.0 76.6 L 180.0 80.8 " fill="none" stroke="#000000" stroke-width="0.21" transform="matrix(3.07, 0.00, 0.00, -3.07, 134.0, 1040.0)"></path><path d="M 126.9 76.6 L 126.9 72.6 L 175.6 65.1 " fill="none" stroke="#000000" stroke-width="0.21" transform="matrix(3.07, 0.00, 0.00, -3.07, 134.0, 1040.0)"></path><path d="M 122.6 73.2 L 122.6 69.0 L 163.1 54.8 " fill="none" stroke="#000000" stroke-width="0.21" transform="matrix(3.07, 0.00, 0.00, -3.07, 134.0, 1040.0)"></path><path d="M 115.8 70.4 L 115.8 66.3 L 143.6 46.8 " fill="none" stroke="#000000" stroke-width="0.21" transform="matrix(3.07, 0.00, 0.00, -3.07, 134.0, 1040.0)"></path><path d="M 107.4 68.8 L 107.4 64.8 L 119.1 42.2 " fill="none" stroke="#000000" stroke-width="0.21" transform="matrix(3.07, 0.00, 0.00, -3.07, 134.0, 1040.0)"></path><path d="M 98.3 68.5 L 98.3 64.4 L 93.0 41.4 " fill="none" stroke="#000000" stroke-width="0.21" transform="matrix(3.07, 0.00, 0.00, -3.07, 134.0, 1040.0)"></path><path d="M 89.5 69.6 L 89.5 65.5 L 67.7 44.6 " fill="none" stroke="#000000" stroke-width="0.21" transform="matrix(3.07, 0.00, 0.00, -3.07, 134.0, 1040.0)"></path><path d="M 82.1 71.9 L 82.1 67.9 L 46.1 51.3 " fill="none" stroke="#000000" stroke-width="0.21" transform="matrix(3.07, 0.00, 0.00, -3.07, 134.0, 1040.0)"></path><path d="M 76.9 75.1 L 76.9 71.1 L 30.8 60.9 " fill="none" stroke="#000000" stroke-width="0.21" transform="matrix(3.07, 0.00, 0.00, -3.07, 134.0, 1040.0)"></path><path d="M 74.2 75.1 L 23.2 72.2 " fill="none" stroke="#000000" stroke-width="0.21" transform="matrix(3.07, 0.00, 0.00, -3.07, 134.0, 1040.0)"></path><path d="M 74.6 79.2 L 24.2 83.9 L 24.2 87.9 " fill="none" stroke="#000000" stroke-width="0.21" transform="matrix(3.07, 0.00, 0.00, -3.07, 134.0, 1040.0)"></path><path d="M 77.8 82.9 L 33.9 94.9 L 33.9 98.9 " fill="none" stroke="#000000" stroke-width="0.21" transform="matrix(3.07, 0.00, 0.00, -3.07, 134.0, 1040.0)"></path><path d="M 83.7 86.0 L 51.0 103.7 L 51.0 107.7 " fill="none" stroke="#000000" stroke-width="0.21" transform="matrix(3.07, 0.00, 0.00, -3.07, 134.0, 1040.0)"></path><path d="M 91.6 88.1 L 73.8 109.6 L 73.8 113.8 " fill="none" stroke="#000000" stroke-width="0.21" transform="matrix(3.07, 0.00, 0.00, -3.07, 134.0, 1040.0)"></path><path d="M 74.4 78.7 C 76.6 72.9 87.8 68.4 101.3 68.4 C 114.8 68.4 126.0 72.9 128.2 78.7 " fill="none" stroke="#000000" stroke-width="0.21" transform="matrix(3.07, 0.00, 0.00, -3.07, 134.0, 1040.0)"></path><path d="M 173.6 76.8 C 173.6 94.6 141.2 109.1 101.3 109.1 C 61.4 109.1 29.0 94.6 29.0 76.8 C 29.0 58.9 61.4 44.4 101.3 44.4 C 141.2 44.4 173.6 58.9 173.6 76.8 Z M 173.6 76.8 " fill="none" stroke="#000000" stroke-width="0.21" transform="matrix(3.07, 0.00, 0.00, -3.07, 134.0, 1040.0)"></path><path d="M 167.1 76.6 C 167.1 92.9 137.6 106.0 101.3 106.0 C 64.9 106.0 35.4 92.9 35.4 76.6 C 35.4 60.3 64.9 47.1 101.3 47.1 C 137.6 47.1 167.1 60.3 167.1 76.6 Z M 167.1 76.6 " fill="none" stroke="#000000" stroke-width="0.21" transform="matrix(3.07, 0.00, 0.00, -3.07, 134.0, 1040.0)"></path><path d="M 160.6 76.6 C 160.6 91.3 134.0 103.2 101.2 103.2 C 68.4 103.2 41.9 91.3 41.9 76.6 C 41.9 61.9 68.4 50.0 101.2 50.0 C 134.0 50.0 160.6 61.9 160.6 76.6 Z M 160.6 76.6 " fill="none" stroke="#000000" stroke-width="0.21" transform="matrix(3.07, 0.00, 0.00, -3.07, 134.0, 1040.0)"></path><path d="M 154.2 76.8 C 154.2 89.8 130.5 100.4 101.2 100.4 C 71.9 100.4 48.2 89.8 48.2 76.8 C 48.2 63.7 71.9 53.1 101.2 53.1 C 130.5 53.1 154.2 63.7 154.2 76.8 Z M 154.2 76.8 " fill="none" stroke="#000000" stroke-width="0.21" transform="matrix(3.07, 0.00, 0.00, -3.07, 134.0, 1040.0)"></path><path d="M 147.8 76.6 C 147.8 88.1 126.9 97.5 101.2 97.5 C 75.5 97.5 54.6 88.1 54.6 76.6 C 54.6 65.1 75.5 55.8 101.2 55.8 C 126.9 55.8 147.8 65.1 147.8 76.6 Z M 147.8 76.6 " fill="none" stroke="#000000" stroke-width="0.21" transform="matrix(3.07, 0.00, 0.00, -3.07, 134.0, 1040.0)"></path><path d="M 141.4 76.6 C 141.4 86.5 123.4 94.6 101.2 94.6 C 79.1 94.6 61.1 86.5 61.1 76.6 C 61.1 66.7 79.1 58.7 101.2 58.7 C 123.4 58.7 141.4 66.7 141.4 76.6 Z M 141.4 76.6 " fill="none" stroke="#000000" stroke-width="0.21" transform="matrix(3.07, 0.00, 0.00, -3.07, 134.0, 1040.0)"></path><path d="M 134.9 76.6 C 134.9 84.9 119.8 91.7 101.2 91.7 C 82.6 91.7 67.5 84.9 67.5 76.6 C 67.5 68.2 82.6 61.4 101.2 61.4 C 119.8 61.4 134.9 68.2 134.9 76.6 Z M 134.9 76.6 " fill="none" stroke="#000000" stroke-width="0.21" transform="matrix(3.07, 0.00, 0.00, -3.07, 134.0, 1040.0)"></path><path d="M 391.5 76.4 C 391.5 83.1 379.3 88.6 364.2 88.6 C 349.2 88.6 337.0 83.1 337.0 76.4 C 337.0 69.6 349.2 64.1 364.2 64.1 C 379.3 64.1 391.5 69.6 391.5 76.4 Z M 391.5 76.4 " fill="none" stroke="#000000" stroke-width="0.21" transform="matrix(3.07, 0.00, 0.00, -3.07, 134.0, 1040.0)"></path><path d="M 363.5 88.6 L 362.6 113.0 " fill="none" stroke="#000000" stroke-width="0.21" transform="matrix(3.07, 0.00, 0.00, -3.07, 134.0, 1040.0)"></path><path d="M 372.7 88.1 L 386.6 107.2 L 386.6 111.4 " fill="none" stroke="#000000" stroke-width="0.21" transform="matrix(3.07, 0.00, 0.00, -3.07, 134.0, 1040.0)"></path><path d="M 380.8 86.1 L 408.0 102.2 L 408.0 106.4 " fill="none" stroke="#000000" stroke-width="0.21" transform="matrix(3.07, 0.00, 0.00, -3.07, 134.0, 1040.0)"></path><path d="M 387.1 83.0 L 424.5 94.3 L 424.5 98.5 " fill="none" stroke="#000000" stroke-width="0.21" transform="matrix(3.07, 0.00, 0.00, -3.07, 134.0, 1040.0)"></path><path d="M 390.7 79.4 L 434.2 84.5 L 434.2 88.7 " fill="none" stroke="#000000" stroke-width="0.21" transform="matrix(3.07, 0.00, 0.00, -3.07, 134.0, 1040.0)"></path><path d="M 391.5 76.3 L 436.4 76.3 " fill="none" stroke="#000000" stroke-width="0.21" transform="matrix(3.07, 0.00, 0.00, -3.07, 134.0, 1040.0)"></path><path d="M 389.9 76.3 L 389.9 72.3 L 432.5 65.8 " fill="none" stroke="#000000" stroke-width="0.21" transform="matrix(3.07, 0.00, 0.00, -3.07, 134.0, 1040.0)"></path><path d="M 385.5 72.9 L 385.5 68.7 L 420.8 56.3 " fill="none" stroke="#000000" stroke-width="0.21" transform="matrix(3.07, 0.00, 0.00, -3.07, 134.0, 1040.0)"></path><path d="M 378.7 70.1 L 378.7 66.0 L 402.9 49.1 " fill="none" stroke="#000000" stroke-width="0.21" transform="matrix(3.07, 0.00, 0.00, -3.07, 134.0, 1040.0)"></path><path d="M 370.3 68.5 L 370.3 64.4 L 380.5 44.9 " fill="none" stroke="#000000" stroke-width="0.21" transform="matrix(3.07, 0.00, 0.00, -3.07, 134.0, 1040.0)"></path><path d="M 361.3 68.2 L 361.3 64.1 L 356.7 44.2 " fill="none" stroke="#000000" stroke-width="0.21" transform="matrix(3.07, 0.00, 0.00, -3.07, 134.0, 1040.0)"></path><path d="M 352.4 69.3 L 352.4 65.2 L 333.6 47.1 " fill="none" stroke="#000000" stroke-width="0.21" transform="matrix(3.07, 0.00, 0.00, -3.07, 134.0, 1040.0)"></path><path d="M 345.1 71.6 L 345.1 67.6 L 313.8 53.3 " fill="none" stroke="#000000" stroke-width="0.21" transform="matrix(3.07, 0.00, 0.00, -3.07, 134.0, 1040.0)"></path><path d="M 339.9 74.8 L 339.9 70.8 L 299.6 61.9 " fill="none" stroke="#000000" stroke-width="0.21" transform="matrix(3.07, 0.00, 0.00, -3.07, 134.0, 1040.0)"></path><path d="M 337.2 74.8 L 292.6 72.2 " fill="none" stroke="#000000" stroke-width="0.21" transform="matrix(3.07, 0.00, 0.00, -3.07, 134.0, 1040.0)"></path><path d="M 337.5 78.9 L 293.4 83.0 L 293.4 87.2 " fill="none" stroke="#000000" stroke-width="0.21" transform="matrix(3.07, 0.00, 0.00, -3.07, 134.0, 1040.0)"></path><path d="M 340.7 82.6 L 302.3 93.1 L 302.3 97.3 " fill="none" stroke="#000000" stroke-width="0.21" transform="matrix(3.07, 0.00, 0.00, -3.07, 134.0, 1040.0)"></path><path d="M 346.6 85.7 L 317.9 101.3 L 317.9 105.5 " fill="none" stroke="#000000" stroke-width="0.21" transform="matrix(3.07, 0.00, 0.00, -3.07, 134.0, 1040.0)"></path><path d="M 354.5 87.8 L 338.9 106.8 L 338.9 110.9 " fill="none" stroke="#000000" stroke-width="0.21" transform="matrix(3.07, 0.00, 0.00, -3.07, 134.0, 1040.0)"></path><path d="M 337.3 78.4 C 339.5 72.5 350.7 68.1 364.2 68.1 C 377.7 68.1 389.0 72.5 391.1 78.4 " fill="none" stroke="#000000" stroke-width="0.21" transform="matrix(3.07, 0.00, 0.00, -3.07, 134.0, 1040.0)"></path><path d="M 436.5 76.4 C 436.5 94.3 404.1 108.8 364.2 108.8 C 324.3 108.8 292.0 94.3 292.0 76.4 C 292.0 58.6 324.3 44.1 364.2 44.1 C 404.1 44.1 436.5 58.6 436.5 76.4 Z M 436.5 76.4 " fill="none" stroke="#000000" stroke-width="0.21" transform="matrix(3.07, 0.00, 0.00, -3.07, 134.0, 1040.0)"></path><path d="M 430.0 76.3 C 430.0 92.5 400.6 105.7 364.2 105.7 C 327.8 105.7 298.4 92.5 298.4 76.3 C 298.4 60.0 327.8 46.8 364.2 46.8 C 400.6 46.8 430.0 60.0 430.0 76.3 Z M 430.0 76.3 " fill="none" stroke="#000000" stroke-width="0.21" transform="matrix(3.07, 0.00, 0.00, -3.07, 134.0, 1040.0)"></path><path d="M 423.5 76.3 C 423.5 91.0 396.9 102.9 364.2 102.9 C 331.4 102.9 304.8 91.0 304.8 76.3 C 304.8 61.6 331.4 49.7 364.2 49.7 C 396.9 49.7 423.5 61.6 423.5 76.3 Z M 423.5 76.3 " fill="none" stroke="#000000" stroke-width="0.21" transform="matrix(3.07, 0.00, 0.00, -3.07, 134.0, 1040.0)"></path><path d="M 417.1 76.4 C 417.1 89.5 393.4 100.1 364.1 100.1 C 334.9 100.1 311.1 89.5 311.1 76.4 C 311.1 63.4 334.9 52.8 364.1 52.8 C 393.4 52.8 417.1 63.4 417.1 76.4 Z M 417.1 76.4 " fill="none" stroke="#000000" stroke-width="0.21" transform="matrix(3.07, 0.00, 0.00, -3.07, 134.0, 1040.0)"></path><path d="M 410.7 76.3 C 410.7 87.8 389.9 97.2 364.2 97.2 C 338.4 97.2 317.6 87.8 317.6 76.3 C 317.6 64.8 338.4 55.5 364.2 55.5 C 389.9 55.5 410.7 64.8 410.7 76.3 Z M 410.7 76.3 " fill="none" stroke="#000000" stroke-width="0.21" transform="matrix(3.07, 0.00, 0.00, -3.07, 134.0, 1040.0)"></path><path d="M 404.3 76.3 C 404.3 86.2 386.4 94.2 364.2 94.2 C 342.0 94.2 324.0 86.2 324.0 76.3 C 324.0 66.4 342.0 58.4 364.2 58.4 C 386.4 58.4 404.3 66.4 404.3 76.3 Z M 404.3 76.3 " fill="none" stroke="#000000" stroke-width="0.21" transform="matrix(3.07, 0.00, 0.00, -3.07, 134.0, 1040.0)"></path><path d="M 397.8 76.2 C 397.8 84.6 382.8 91.4 364.1 91.4 C 345.5 91.4 330.4 84.6 330.4 76.2 C 330.4 67.9 345.5 61.1 364.1 61.1 C 382.8 61.1 397.8 67.9 397.8 76.2 Z M 397.8 76.2 " fill="none" stroke="#000000" stroke-width="0.21" transform="matrix(3.07, 0.00, 0.00, -3.07, 134.0, 1040.0)"></path><path d="M 436.5 76.3 L 436.5 80.7 C 436.5 98.5 404.1 113.0 364.2 113.0 C 324.3 113.0 292.0 98.5 292.0 80.7 L 292.0 76.4 " fill="none" stroke="#000000" stroke-width="0.21" transform="matrix(3.07, 0.00, 0.00, -3.07, 134.0, 1040.0)"></path></g></g><text xml:space="preserve" font-family="HelveticaNeue,Helvetica Neue" font-size="36.0" fill="#000000" transform="matrix(1.00, 0.00, -0.00, -1.00, 1598.6, 14.1)">F</text><text xml:space="preserve" font-family="HelveticaNeue,Helvetica Neue" font-size="36.0" fill="#000000" transform="matrix(1.00, 0.00, -0.00, -1.00, 1619.3, 14.1)">o</text><text xml:space="preserve" font-family="HelveticaNeue,Helvetica Neue" font-size="36.0" fill="#000000" transform="matrix(1.00, 0.00, -0.00, -1.00, 1640.0, 14.1)">u</text><text xml:space="preserve" font-family="HelveticaNeue,Helvetica Neue" font-size="36.0" fill="#000000" transform="matrix(1.00, 0.00, -0.00, -1.00, 1660.0, 14.1)">b</text><text xml:space="preserve" font-family="HelveticaNeue,Helvetica Neue" font-size="36.0" fill="#000000" transform="matrix(1.00, 0.00, -0.00, -1.00, 1681.3, 14.1)">e</text><text xml:space="preserve" font-family="HelveticaNeue,Helvetica Neue" font-size="36.0" fill="#000000" transform="matrix(1.00, 0.00, -0.00, -1.00, 1700.6, 14.1)">t</text><text xml:space="preserve" font-family="HelveticaNeue,Helvetica Neue" font-size="36.0" fill="#000000" transform="matrix(1.00, 0.00, -0.00, -1.00, 1712.0, 14.1)"> </text><text xml:space="preserve" font-family="HelveticaNeue,Helvetica Neue" font-size="36.0" fill="#000000" transform="matrix(1.00, 0.00, -0.00, -1.00, 1722.0, 14.1)">&amp;</text><text xml:space="preserve" font-family="HelveticaNeue,Helvetica Neue" font-size="36.0" fill="#000000" transform="matrix(1.00, 0.00, -0.00, -1.00, 1744.7, 14.1)"> </text><text xml:space="preserve" font-family="HelveticaNeue,Helvetica Neue" font-size="36.0" fill="#000000" transform="matrix(1.00, 0.00, -0.00, -1.00, 1754.7, 14.1)">T</text><text xml:space="preserve" font-family="HelveticaNeue,Helvetica Neue" font-size="36.0" fill="#000000" transform="matrix(1.00, 0.00, -0.00, -1.00, 1771.4, 14.1)">o</text><text xml:space="preserve" font-family="HelveticaNeue,Helvetica Neue" font-size="36.0" fill="#000000" transform="matrix(1.00, 0.00, -0.00, -1.00, 1792.0, 14.1)">r</text><text xml:space="preserve" font-family="HelveticaNeue,Helvetica Neue" font-size="36.0" fill="#000000" transform="matrix(1.00, 0.00, -0.00, -1.00, 1803.4, 14.1)">o</text><text xml:space="preserve" font-family="HelveticaNeue,Helvetica Neue" font-size="36.0" fill="#000000" transform="matrix(1.00, 0.00, -0.00, -1.00, 1824.0, 14.1)"> </text><text xml:space="preserve" font-family="HelveticaNeue,Helvetica Neue" font-size="36.0" fill="#000000" transform="matrix(1.00, 0.00, -0.00, -1.00, 1834.0, 14.1)">2</text><text xml:space="preserve" font-family="HelveticaNeue,Helvetica Neue" font-size="36.0" fill="#000000" transform="matrix(1.00, 0.00, -0.00, -1.00, 1854.0, 14.1)">0</text><text xml:space="preserve" font-family="HelveticaNeue,Helvetica Neue" font-size="36.0" fill="#000000" transform="matrix(1.00, 0.00, -0.00, -1.00, 1874.1, 14.1)">1</text><text xml:space="preserve" font-family="HelveticaNeue,Helvetica Neue" font-size="36.0" fill="#000000" transform="matrix(1.00, 0.00, -0.00, -1.00, 1894.1, 14.1)">5</text></g></svg>