<?xml version="1.0" encoding="UTF-8" standalone="no"?><svg xmlns="http://www.w3.org/2000/svg" xmlns:xlink="http://www.w3.org/1999/xlink" clip-rule="evenodd" stroke-miterlimit="4.00" viewBox="0 0 1920 1080"><desc>SVG generated by Keynote</desc><defs></defs><g transform="matrix(1.00, 0.00, -0.00, -1.00, 0.0, 1080.0)"><path d="M 0.0 1080.0 L 1920.0 1080.0 L 1920.0 0.0 L 0.0 0.0 Z M 0.0 1080.0 " fill="#FEFFFF"></path><image xlink:href="../../4633945F-C8F6-494A-BDDA-9D6F02A6D0C6/assets/1BB16806C5DF09EF42E4BF3BC5736072.png" width="334.00" height="131.00" transform="matrix(1.00, 0.00, -0.00, -1.00, 17.0, 1068.0)"></image><g><clipPath id="clip-18277"><path d="M 162.0 916.0 L 1764.0 916.0 L 1764.0 576.0 L 162.0 576.0 Z M 161.6 915.9 "></path></clipPath><g clip-path="url(#clip-18277)"><g><clipPath id="clip-18278"><path d="M 161.6 575.6 L 1763.9 575.6 L 1763.9 915.9 L 161.6 915.9 Z M 161.6 575.6 "></path></clipPath><g clip-path="url(#clip-18278)"><image xlink:href="../../4633945F-C8F6-494A-BDDA-9D6F02A6D0C6/assets/859E58B2147A792E94E9B13F5F786239.png" width="619.00" height="540.00" transform="matrix(2.59, 0.00, -0.00, -2.59, 162.0, 916.0)"></image></g></g></g></g><g><clipPath id="clip-18279"><path d="M 156.0 542.0 L 1758.0 542.0 L 1758.0 46.0 L 156.0 46.0 Z M 156.1 542.3 "></path></clipPath><g clip-path="url(#clip-18279)"><g><clipPath id="clip-18280"><path d="M 156.1 45.5 L 1758.4 45.5 L 1758.4 542.3 L 156.1 542.3 Z M 156.1 45.5 "></path></clipPath><g clip-path="url(#clip-18280)"><image xlink:href="../../4633945F-C8F6-494A-BDDA-9D6F02A6D0C6/assets/859E58B2147A792E94E9B13F5F786239.png" width="619.00" height="540.00" transform="matrix(2.59, 0.00, -0.00, -2.59, 156.0, 1444.0)"></image></g></g></g></g></g></svg>