<?xml version="1.0" encoding="UTF-8" standalone="no"?><svg xmlns="http://www.w3.org/2000/svg" xmlns:xlink="http://www.w3.org/1999/xlink" clip-rule="evenodd" stroke-miterlimit="4.00" viewBox="0 0 1920 1080"><desc>SVG generated by Keynote</desc><defs></defs><g transform="matrix(1.00, 0.00, -0.00, -1.00, 0.0, 1080.0)"><path d="M 0.0 1080.0 L 1920.0 1080.0 L 1920.0 0.0 L 0.0 0.0 Z M 0.0 1080.0 " fill="#FEFFFF"></path><path d="M -136.8 1237.3 L -63.6 1237.3 L -63.6 1208.7 L -136.8 1208.7 Z M -136.8 1237.3 " fill="#FFFFFF"></path><path d="M -136.8 1052.4 L -63.6 1052.4 L -63.6 1023.8 L -136.8 1023.8 Z M -136.8 1052.4 " fill="#FFFFFF"></path><path d="M -136.8 780.7 L -63.6 780.7 L -63.6 752.1 L -136.8 752.1 Z M -136.8 780.7 " fill="#FFFFFF"></path><g><clipPath id="clip-26628"><path d="M 947.8 234.1 L 1892.9 234.1 L 1892.9 770.4 L 947.8 770.4 Z M 947.8 234.1 "></path></clipPath><g clip-path="url(#clip-26628)"><image xlink:href="CEA492AF195689D827223AE4EA36814B.png" width="682.00" height="387.00" transform="matrix(1.39, 0.00, -0.00, -1.39, 948.0, 770.0)"></image></g></g><g><clipPath id="clip-26629"><path d="M 4.2 239.3 L 942.4 239.3 L 942.4 846.3 L 4.2 846.3 Z M 4.2 239.3 "></path></clipPath><g clip-path="url(#clip-26629)"><image xlink:href="202D1AF843D1C9F99F573F5BD4854532.png" width="677.00" height="438.00" transform="matrix(1.39, 0.00, -0.00, -1.39, 4.0, 846.0)"></image></g></g></g></svg>