<?xml version="1.0" encoding="UTF-8" standalone="no"?><svg xmlns="http://www.w3.org/2000/svg" xmlns:xlink="http://www.w3.org/1999/xlink" clip-rule="evenodd" stroke-miterlimit="4.00" viewBox="0 0 1920 1080"><desc>SVG generated by Keynote</desc><defs></defs><g transform="matrix(1.00, 0.00, -0.00, -1.00, 0.0, 1080.0)"><path d="M 0.0 1080.0 L 1920.0 1080.0 L 1920.0 0.0 L 0.0 0.0 Z M 0.0 1080.0 " fill="#FEFFFF"></path><g><clipPath id="clip-26377"><path d="M 960.7 70.7 L 1875.0 70.7 L 1875.0 923.1 L 960.7 923.1 Z M 960.7 70.7 "></path></clipPath><g clip-path="url(#clip-26377)"><image xlink:href="../../F4DD5F97-C0F9-42A9-B5A5-CEBB1E2CEB4B/assets/8218EC3C2F14A4F9E45A169A2ED38D4E.png" width="580.00" height="540.00" transform="matrix(1.58, 0.00, -0.00, -1.58, 961.0, 923.0)"></image></g></g><g><clipPath id="clip-26378"><path d="M 971.2 210.9 L 1110.8 210.9 L 1110.8 252.8 L 971.2 252.8 Z M 971.2 210.9 "></path></clipPath><g clip-path="url(#clip-26378)"><path d="M 972.2 251.8 L 1109.8 251.8 L 1109.8 211.9 L 972.2 211.9 Z M 972.2 251.8 " fill="#FEFFFF"></path></g></g><image xlink:href="../../F4DD5F97-C0F9-42A9-B5A5-CEBB1E2CEB4B/assets/22E009458C13FC28F24DAA4C7EEB8AFD.png" width="630.00" height="540.00" transform="matrix(1.58, 0.00, -0.00, -1.58, 18.0, 1009.0)"></image></g></svg>