<?xml version="1.0" encoding="UTF-8" standalone="no"?><svg xmlns="http://www.w3.org/2000/svg" xmlns:xlink="http://www.w3.org/1999/xlink" clip-rule="evenodd" stroke-miterlimit="4.00" viewBox="0 0 1920 1080"><desc>SVG generated by Keynote</desc><defs></defs><g transform="matrix(1.00, 0.00, -0.00, -1.00, 0.0, 1080.0)"><path d="M 0.0 1080.0 L 1920.0 1080.0 L 1920.0 0.0 L 0.0 0.0 Z M 0.0 1080.0 " fill="#FEFFFF"></path><text xml:space="preserve" font-family="TimesNewRomanPS-ItalicMT" font-style="italic" font-size="72.0" fill="#000000" transform="matrix(1.00, 0.00, -0.00, -1.00, 741.0, 723.0)">r</text><text xml:space="preserve" font-family="TimesNewRomanPS-ItalicMT" font-style="italic" font-size="48.0" fill="#000000" transform="matrix(1.00, 0.00, -0.00, -1.00, 769.0, 717.8)">M</text><text xml:space="preserve" font-family="TimesNewRomanPS-ItalicMT" font-style="italic" font-size="48.0" fill="#000000" transform="matrix(1.00, 0.00, -0.00, -1.00, 809.0, 717.8)">Z</text><text xml:space="preserve" font-family="TimesNewRomanPS-ItalicMT" font-style="italic" font-size="72.0" fill="#000000" transform="matrix(1.00, 0.00, -0.00, -1.00, 835.7, 723.0)"> </text><text xml:space="preserve" font-family="TimesNewRomanPS-ItalicMT" font-style="italic" font-size="72.0" fill="#000000" transform="matrix(1.00, 0.00, -0.00, -1.00, 853.7, 723.0)">=</text><text xml:space="preserve" font-family="TimesNewRomanPS-ItalicMT" font-style="italic" font-size="72.0" fill="#000000" transform="matrix(1.00, 0.00, -0.00, -1.00, 902.3, 723.0)"> </text><text xml:space="preserve" font-family="TimesNewRomanPS-ItalicMT" font-style="italic" font-size="72.0" fill="#0432FF" transform="matrix(1.00, 0.00, -0.00, -1.00, 920.3, 723.0)">(</text><text xml:space="preserve" font-family="TimesNewRomanPS-ItalicMT" font-style="italic" font-size="72.0" fill="#0432FF" transform="matrix(1.00, 0.00, -0.00, -1.00, 944.3, 723.0)">1</text><text xml:space="preserve" font-family="TimesNewRomanPS-ItalicMT" font-style="italic" font-size="72.0" fill="#0432FF" transform="matrix(1.00, 0.00, -0.00, -1.00, 980.3, 723.0)">)</text><text xml:space="preserve" font-family="TimesNewRomanPS-ItalicMT" font-style="italic" font-size="72.0" fill="#000000" transform="matrix(1.00, 0.00, -0.00, -1.00, 1004.2, 723.0)">A</text><text xml:space="preserve" font-family="TimesNewRomanPS-ItalicMT" font-style="italic" font-size="72.0" fill="#000000" transform="matrix(1.00, 0.00, -0.00, -1.00, 1046.9, 723.0)"> </text><text xml:space="preserve" font-family="TimesNewRomanPS-ItalicMT" font-style="italic" font-size="72.0" fill="#000000" transform="matrix(1.00, 0.00, -0.00, -1.00, 1064.9, 723.0)">+</text><text xml:space="preserve" font-family="TimesNewRomanPS-ItalicMT" font-style="italic" font-size="72.0" fill="#000000" transform="matrix(1.00, 0.00, -0.00, -1.00, 1113.5, 723.0)"> </text><text xml:space="preserve" font-family="TimesNewRomanPS-ItalicMT" font-style="italic" font-size="72.0" fill="#000000" transform="matrix(1.00, 0.00, -0.00, -1.00, 1131.5, 723.0)">C</text><text xml:space="preserve" font-family="TimesNewRomanPS-ItalicMT" font-style="italic" font-size="72.0" fill="#000000" transform="matrix(1.00, 0.00, -0.00, -1.00, 1179.5, 723.0)"> </text><text xml:space="preserve" font-family="TimesNewRomanPS-ItalicMT" font-style="italic" font-size="72.0" fill="#000000" transform="matrix(1.00, 0.00, -0.00, -1.00, 715.0, 640.0)">r</text><text xml:space="preserve" font-family="TimesNewRomanPS-ItalicMT" font-style="italic" font-size="48.0" fill="#000000" transform="matrix(1.00, 0.00, -0.00, -1.00, 743.0, 634.8)">D</text><text xml:space="preserve" font-family="TimesNewRomanPS-ItalicMT" font-style="italic" font-size="48.0" fill="#000000" transform="matrix(1.00, 0.00, -0.00, -1.00, 777.7, 634.8)">Z</text><text xml:space="preserve" font-family="TimesNewRomanPS-ItalicMT" font-style="italic" font-size="72.0" fill="#000000" transform="matrix(1.00, 0.00, -0.00, -1.00, 804.4, 640.0)"> </text><text xml:space="preserve" font-family="TimesNewRomanPS-ItalicMT" font-style="italic" font-size="72.0" fill="#000000" transform="matrix(1.00, 0.00, -0.00, -1.00, 822.4, 640.0)">=</text><text xml:space="preserve" font-family="TimesNewRomanPS-ItalicMT" font-style="italic" font-size="72.0" fill="#000000" transform="matrix(1.00, 0.00, -0.00, -1.00, 871.0, 640.0)"> </text><text xml:space="preserve" font-family="TimesNewRomanPS-ItalicMT" font-style="italic" font-size="72.0" fill="#0432FF" transform="matrix(1.00, 0.00, -0.00, -1.00, 889.0, 640.0)">(</text><text xml:space="preserve" font-family="TimesNewRomanPS-ItalicMT" font-style="italic" font-size="72.0" fill="#0432FF" transform="matrix(1.00, 0.00, -0.00, -1.00, 912.9, 640.0)">1</text><text xml:space="preserve" font-family="TimesNewRomanPS-ItalicMT" font-style="italic" font-size="72.0" fill="#0432FF" transform="matrix(1.00, 0.00, -0.00, -1.00, 948.9, 640.0)">/</text><text xml:space="preserve" font-family="TimesNewRomanPS-ItalicMT" font-style="italic" font-size="72.0" fill="#0432FF" transform="matrix(1.00, 0.00, -0.00, -1.00, 968.9, 640.0)">2</text><text xml:space="preserve" font-family="TimesNewRomanPS-ItalicMT" font-style="italic" font-size="72.0" fill="#0432FF" transform="matrix(1.00, 0.00, -0.00, -1.00, 1004.9, 640.0)">)</text><text xml:space="preserve" font-family="TimesNewRomanPS-ItalicMT" font-style="italic" font-size="72.0" fill="#000000" transform="matrix(1.00, 0.00, -0.00, -1.00, 1028.9, 640.0)">A</text><text xml:space="preserve" font-family="TimesNewRomanPS-ItalicMT" font-style="italic" font-size="72.0" fill="#000000" transform="matrix(1.00, 0.00, -0.00, -1.00, 1071.6, 640.0)"> </text><text xml:space="preserve" font-family="TimesNewRomanPS-ItalicMT" font-style="italic" font-size="72.0" fill="#000000" transform="matrix(1.00, 0.00, -0.00, -1.00, 1089.6, 640.0)">+</text><text xml:space="preserve" font-family="TimesNewRomanPS-ItalicMT" font-style="italic" font-size="72.0" fill="#000000" transform="matrix(1.00, 0.00, -0.00, -1.00, 1138.2, 640.0)"> </text><text xml:space="preserve" font-family="TimesNewRomanPS-ItalicMT" font-style="italic" font-size="72.0" fill="#000000" transform="matrix(1.00, 0.00, -0.00, -1.00, 1156.2, 640.0)">C</text><text xml:space="preserve" font-family="TimesNewRomanPS-ItalicMT" font-style="italic" font-size="72.0" fill="#000000" transform="matrix(1.00, 0.00, -0.00, -1.00, 1204.2, 640.0)"> </text><text xml:space="preserve" font-family="TimesNewRomanPS-ItalicMT" font-style="italic" font-size="72.0" fill="#000000" transform="matrix(1.00, 0.00, -0.00, -1.00, 784.0, 308.0)">r</text><text xml:space="preserve" font-family="TimesNewRomanPS-ItalicMT" font-style="italic" font-size="48.0" fill="#000000" transform="matrix(1.00, 0.00, -0.00, -1.00, 812.0, 302.8)">i</text><text xml:space="preserve" font-family="TimesNewRomanPS-ItalicMT" font-style="italic" font-size="48.0" fill="#000000" transform="matrix(1.00, 0.00, -0.00, -1.00, 825.3, 302.8)">j</text><text xml:space="preserve" font-family="TimesNewRomanPS-ItalicMT" font-style="italic" font-size="72.0" fill="#000000" transform="matrix(1.00, 0.00, -0.00, -1.00, 838.7, 308.0)"> </text><text xml:space="preserve" font-family="TimesNewRomanPS-ItalicMT" font-style="italic" font-size="72.0" fill="#000000" transform="matrix(1.00, 0.00, -0.00, -1.00, 856.7, 308.0)">=</text><text xml:space="preserve" font-family="TimesNewRomanPS-ItalicMT" font-style="italic" font-size="72.0" fill="#000000" transform="matrix(1.00, 0.00, -0.00, -1.00, 905.3, 308.0)"> </text><text xml:space="preserve" font-family="TimesNewRomanPS-ItalicMT" font-style="italic" font-size="72.0" fill="#0432FF" transform="matrix(1.00, 0.00, -0.00, -1.00, 923.3, 308.0)">α</text><text xml:space="preserve" font-family="TimesNewRomanPS-ItalicMT" font-style="italic" font-size="72.0" fill="#000000" transform="matrix(1.00, 0.00, -0.00, -1.00, 961.1, 308.0)">A</text><text xml:space="preserve" font-family="TimesNewRomanPS-ItalicMT" font-style="italic" font-size="72.0" fill="#000000" transform="matrix(1.00, 0.00, -0.00, -1.00, 1003.7, 308.0)"> </text><text xml:space="preserve" font-family="TimesNewRomanPS-ItalicMT" font-style="italic" font-size="72.0" fill="#000000" transform="matrix(1.00, 0.00, -0.00, -1.00, 1021.7, 308.0)">+</text><text xml:space="preserve" font-family="TimesNewRomanPS-ItalicMT" font-style="italic" font-size="72.0" fill="#000000" transform="matrix(1.00, 0.00, -0.00, -1.00, 1070.3, 308.0)"> </text><text xml:space="preserve" font-family="TimesNewRomanPS-ItalicMT" font-style="italic" font-size="72.0" fill="#000000" transform="matrix(1.00, 0.00, -0.00, -1.00, 1088.3, 308.0)">C</text><path d="M 12.8 0.0 L 15.3 0.0 L 149.7 0.0 " fill="none" stroke="#000000" stroke-width="5.00" transform="matrix(0.00, 1.00, 1.00, 0.00, 967.0, 433.7)"></path><path d="M 956.8 454.1 L 967.0 433.7 L 977.2 454.1 L 967.0 449.0 Z M 956.8 454.1 " fill="#000000"></path></g></svg>