<?xml version="1.0" encoding="UTF-8" standalone="no"?><svg xmlns="http://www.w3.org/2000/svg" xmlns:xlink="http://www.w3.org/1999/xlink" clip-rule="evenodd" stroke-miterlimit="10" viewBox="0 0 1920 1080"><desc>SVG generated by Keynote</desc><defs></defs><g transform="matrix(1.00, 0.00, -0.00, -1.00, 0.0, 1080.0)"><path d="M 0.0 1080.0 L 1920.0 1080.0 L 1920.0 0.0 L 0.0 0.0 Z M 0.0 1080.0 " fill="#FEFFFF"></path><g><clipPath id="clip0x6180018a9a20"><path d="M 561.0 261.0 L 1358.0 261.0 L 1358.0 824.0 L 561.0 824.0 Z M 561.0 261.0 "></path></clipPath><g clip-path="url(#clip0x6180018a9a20)"><path d="M 576.4 745.3 L 1342.6 745.3 L 1342.6 325.8 L 576.4 325.8 Z M 576.4 745.3 " fill="#FFFFFF"></path><path d="M 576.4 737.6 L 1342.6 737.6 L 1342.6 325.8 L 576.4 325.8 Z M 576.4 737.6 " fill="#FFFFFF"></path></g></g><g><clipPath id="clip0x6180018a8f40"><path d="M 578.0 709.9 L 1342.6 709.9 L 1342.6 325.8 L 578.0 325.8 Z M 578.0 709.9 "></path></clipPath><g clip-path="url(#clip0x6180018a8f40)"><g><clipPath id="clip0x6180018a9960"><path d="M 561.0 261.0 L 1358.0 261.0 L 1358.0 824.0 L 561.0 824.0 Z M 561.0 261.0 "></path></clipPath><g clip-path="url(#clip0x6180018a9960)"><g><g><clipPath id="clip0x6180018a9c00"><path d="M 578.0 737.6 L 1342.6 737.6 L 1342.6 325.8 L 578.0 325.8 Z M 578.0 737.6 "></path></clipPath><g clip-path="url(#clip0x6180018a9c00)"><g><clipPath id="clip0x6180018a9d80"><path d="M 577.0 325.0 L 1343.0 325.0 L 1343.0 710.0 L 577.0 710.0 Z M 577.0 325.0 "></path></clipPath><g clip-path="url(#clip0x6180018a9d80)"><g><g><clipPath id="clip0x6180018a9fc0"><path d="M 602.6 709.9 L 1294.8 709.9 L 1294.8 325.8 L 602.6 325.8 Z M 602.6 709.9 "></path></clipPath><g clip-path="url(#clip0x6180018a9fc0)"><g><clipPath id="clip0x6180018aa140"><path d="M 577.0 325.0 L 1343.0 325.0 L 1343.0 710.0 L 577.0 710.0 Z M 577.0 325.0 "></path></clipPath><g clip-path="url(#clip0x6180018aa140)"><g><g><clipPath id="clip0x6180018aa380"><path d="M 578.0 737.6 L 1342.6 737.6 L 1342.6 325.8 L 578.0 325.8 Z M 578.0 737.6 "></path></clipPath><g clip-path="url(#clip0x6180018aa380)"><g><clipPath id="clip0x6180018aa500"><path d="M 602.0 325.0 L 1295.0 325.0 L 1295.0 710.0 L 602.0 710.0 Z M 602.0 325.0 "></path></clipPath><g clip-path="url(#clip0x6180018aa500)"><g><g><clipPath id="clip0x6180018aa6e0"><path d="M 602.0 325.0 L 1295.0 325.0 L 1295.0 710.0 L 602.0 710.0 Z M 602.0 325.0 "></path></clipPath><g clip-path="url(#clip0x6180018aa6e0)"><path d="M 610.3 332.0 L 633.5 332.0 L 633.5 325.8 L 610.3 325.8 Z M 610.3 332.0 " fill="#B8B8B8"></path><path d="M 32.5 41.5 L 32.5 45.5 L 47.5 45.5 L 47.5 41.5 L 32.5 41.5 " fill="none" stroke="#000000" stroke-width="1.00" stroke-linecap="square" transform="matrix(1.54, 0.00, 0.00, 1.54, 561.0, 261.0)"></path><path d="M 658.1 332.0 L 681.2 332.0 L 681.2 325.8 L 658.1 325.8 Z M 658.1 332.0 " fill="#B8B8B8"></path><path d="M 63.5 41.5 L 63.5 45.5 L 78.5 45.5 L 78.5 41.5 L 63.5 41.5 " fill="none" stroke="#000000" stroke-width="1.00" stroke-linecap="square" transform="matrix(1.54, 0.00, 0.00, 1.54, 561.0, 261.0)"></path><path d="M 681.2 332.0 L 704.4 332.0 L 704.4 325.8 L 681.2 325.8 Z M 681.2 332.0 " fill="#B8B8B8"></path><path d="M 78.5 41.5 L 78.5 45.5 L 93.5 45.5 L 93.5 41.5 L 78.5 41.5 " fill="none" stroke="#000000" stroke-width="1.00" stroke-linecap="square" transform="matrix(1.54, 0.00, 0.00, 1.54, 561.0, 261.0)"></path><path d="M 704.4 339.7 L 727.5 339.7 L 727.5 325.8 L 704.4 325.8 Z M 704.4 339.7 " fill="#B8B8B8"></path><path d="M 93.5 41.5 L 93.5 50.5 L 108.5 50.5 L 108.5 41.5 L 93.5 41.5 " fill="none" stroke="#000000" stroke-width="1.00" stroke-linecap="square" transform="matrix(1.54, 0.00, 0.00, 1.54, 561.0, 261.0)"></path><path d="M 727.5 332.0 L 750.6 332.0 L 750.6 325.8 L 727.5 325.8 Z M 727.5 332.0 " fill="#B8B8B8"></path><path d="M 108.5 41.5 L 108.5 45.5 L 123.5 45.5 L 123.5 41.5 L 108.5 41.5 " fill="none" stroke="#000000" stroke-width="1.00" stroke-linecap="square" transform="matrix(1.54, 0.00, 0.00, 1.54, 561.0, 261.0)"></path><path d="M 750.6 353.5 L 773.7 353.5 L 773.7 325.8 L 750.6 325.8 Z M 750.6 353.5 " fill="#B8B8B8"></path><path d="M 123.5 41.5 L 123.5 59.5 L 138.5 59.5 L 138.5 41.5 L 123.5 41.5 " fill="none" stroke="#000000" stroke-width="1.00" stroke-linecap="square" transform="matrix(1.54, 0.00, 0.00, 1.54, 561.0, 261.0)"></path><path d="M 773.7 378.2 L 796.9 378.2 L 796.9 325.8 L 773.7 325.8 Z M 773.7 378.2 " fill="#B8B8B8"></path><path d="M 138.5 41.5 L 138.5 75.5 L 153.5 75.5 L 153.5 41.5 L 138.5 41.5 " fill="none" stroke="#000000" stroke-width="1.00" stroke-linecap="square" transform="matrix(1.54, 0.00, 0.00, 1.54, 561.0, 261.0)"></path><path d="M 796.9 390.6 L 820.0 390.6 L 820.0 325.8 L 796.9 325.8 Z M 796.9 390.6 " fill="#B8B8B8"></path><path d="M 153.5 41.5 L 153.5 83.5 L 168.5 83.5 L 168.5 41.5 L 153.5 41.5 " fill="none" stroke="#000000" stroke-width="1.00" stroke-linecap="square" transform="matrix(1.54, 0.00, 0.00, 1.54, 561.0, 261.0)"></path><path d="M 820.0 441.5 L 843.1 441.5 L 843.1 325.8 L 820.0 325.8 Z M 820.0 441.5 " fill="#B8B8B8"></path><path d="M 168.5 41.5 L 168.5 116.5 L 183.5 116.5 L 183.5 41.5 L 168.5 41.5 " fill="none" stroke="#000000" stroke-width="1.00" stroke-linecap="square" transform="matrix(1.54, 0.00, 0.00, 1.54, 561.0, 261.0)"></path><path d="M 843.1 506.3 L 866.2 506.3 L 866.2 325.8 L 843.1 325.8 Z M 843.1 506.3 " fill="#B8B8B8"></path><path d="M 183.5 41.5 L 183.5 158.5 L 198.5 158.5 L 198.5 41.5 L 183.5 41.5 " fill="none" stroke="#000000" stroke-width="1.00" stroke-linecap="square" transform="matrix(1.54, 0.00, 0.00, 1.54, 561.0, 261.0)"></path><path d="M 866.2 595.7 L 889.4 595.7 L 889.4 325.8 L 866.2 325.8 Z M 866.2 595.7 " fill="#B8B8B8"></path><path d="M 198.5 41.5 L 198.5 216.5 L 213.5 216.5 L 213.5 41.5 L 198.5 41.5 " fill="none" stroke="#000000" stroke-width="1.00" stroke-linecap="square" transform="matrix(1.54, 0.00, 0.00, 1.54, 561.0, 261.0)"></path><path d="M 889.4 569.5 L 912.5 569.5 L 912.5 325.8 L 889.4 325.8 Z M 889.4 569.5 " fill="#B8B8B8"></path><path d="M 213.5 41.5 L 213.5 199.5 L 228.5 199.5 L 228.5 41.5 L 213.5 41.5 " fill="none" stroke="#000000" stroke-width="1.00" stroke-linecap="square" transform="matrix(1.54, 0.00, 0.00, 1.54, 561.0, 261.0)"></path><path d="M 912.5 625.0 L 935.6 625.0 L 935.6 325.8 L 912.5 325.8 Z M 912.5 625.0 " fill="#B8B8B8"></path><path d="M 228.5 41.5 L 228.5 235.5 L 243.5 235.5 L 243.5 41.5 L 228.5 41.5 " fill="none" stroke="#000000" stroke-width="1.00" stroke-linecap="square" transform="matrix(1.54, 0.00, 0.00, 1.54, 561.0, 261.0)"></path><path d="M 935.6 702.1 L 960.3 702.1 L 960.3 325.8 L 935.6 325.8 Z M 935.6 702.1 " fill="#B8B8B8"></path><path d="M 243.5 41.5 L 243.5 285.5 L 259.5 285.5 L 259.5 41.5 L 243.5 41.5 " fill="none" stroke="#000000" stroke-width="1.00" stroke-linecap="square" transform="matrix(1.54, 0.00, 0.00, 1.54, 561.0, 261.0)"></path><path d="M 960.3 646.6 L 983.4 646.6 L 983.4 325.8 L 960.3 325.8 Z M 960.3 646.6 " fill="#B8B8B8"></path><path d="M 259.5 41.5 L 259.5 249.5 L 274.5 249.5 L 274.5 41.5 L 259.5 41.5 " fill="none" stroke="#000000" stroke-width="1.00" stroke-linecap="square" transform="matrix(1.54, 0.00, 0.00, 1.54, 561.0, 261.0)"></path><path d="M 983.4 595.7 L 1006.5 595.7 L 1006.5 325.8 L 983.4 325.8 Z M 983.4 595.7 " fill="#B8B8B8"></path><path d="M 274.5 41.5 L 274.5 216.5 L 289.5 216.5 L 289.5 41.5 L 274.5 41.5 " fill="none" stroke="#000000" stroke-width="1.00" stroke-linecap="square" transform="matrix(1.54, 0.00, 0.00, 1.54, 561.0, 261.0)"></path><path d="M 1006.5 569.5 L 1029.6 569.5 L 1029.6 325.8 L 1006.5 325.8 Z M 1006.5 569.5 " fill="#B8B8B8"></path><path d="M 289.5 41.5 L 289.5 199.5 L 304.5 199.5 L 304.5 41.5 L 289.5 41.5 " fill="none" stroke="#000000" stroke-width="1.00" stroke-linecap="square" transform="matrix(1.54, 0.00, 0.00, 1.54, 561.0, 261.0)"></path><path d="M 1029.6 501.6 L 1052.8 501.6 L 1052.8 325.8 L 1029.6 325.8 Z M 1029.6 501.6 " fill="#B8B8B8"></path><path d="M 304.5 41.5 L 304.5 155.5 L 319.5 155.5 L 319.5 41.5 L 304.5 41.5 " fill="none" stroke="#000000" stroke-width="1.00" stroke-linecap="square" transform="matrix(1.54, 0.00, 0.00, 1.54, 561.0, 261.0)"></path><path d="M 1052.8 399.8 L 1075.9 399.8 L 1075.9 325.8 L 1052.8 325.8 Z M 1052.8 399.8 " fill="#B8B8B8"></path><path d="M 319.5 41.5 L 319.5 89.5 L 334.5 89.5 L 334.5 41.5 L 319.5 41.5 " fill="none" stroke="#000000" stroke-width="1.00" stroke-linecap="square" transform="matrix(1.54, 0.00, 0.00, 1.54, 561.0, 261.0)"></path><path d="M 1075.9 390.6 L 1099.0 390.6 L 1099.0 325.8 L 1075.9 325.8 Z M 1075.9 390.6 " fill="#B8B8B8"></path><path d="M 334.5 41.5 L 334.5 83.5 L 349.5 83.5 L 349.5 41.5 L 334.5 41.5 " fill="none" stroke="#000000" stroke-width="1.00" stroke-linecap="square" transform="matrix(1.54, 0.00, 0.00, 1.54, 561.0, 261.0)"></path><path d="M 1099.0 361.3 L 1122.1 361.3 L 1122.1 325.8 L 1099.0 325.8 Z M 1099.0 361.3 " fill="#B8B8B8"></path><path d="M 349.5 41.5 L 349.5 64.5 L 364.5 64.5 L 364.5 41.5 L 349.5 41.5 " fill="none" stroke="#000000" stroke-width="1.00" stroke-linecap="square" transform="matrix(1.54, 0.00, 0.00, 1.54, 561.0, 261.0)"></path><path d="M 1122.1 373.6 L 1145.3 373.6 L 1145.3 325.8 L 1122.1 325.8 Z M 1122.1 373.6 " fill="#B8B8B8"></path><path d="M 364.5 41.5 L 364.5 72.5 L 379.5 72.5 L 379.5 41.5 L 364.5 41.5 " fill="none" stroke="#000000" stroke-width="1.00" stroke-linecap="square" transform="matrix(1.54, 0.00, 0.00, 1.54, 561.0, 261.0)"></path><path d="M 1145.3 378.2 L 1168.4 378.2 L 1168.4 325.8 L 1145.3 325.8 Z M 1145.3 378.2 " fill="#B8B8B8"></path><path d="M 379.5 41.5 L 379.5 75.5 L 394.5 75.5 L 394.5 41.5 L 379.5 41.5 " fill="none" stroke="#000000" stroke-width="1.00" stroke-linecap="square" transform="matrix(1.54, 0.00, 0.00, 1.54, 561.0, 261.0)"></path><path d="M 1168.4 348.9 L 1191.5 348.9 L 1191.5 325.8 L 1168.4 325.8 Z M 1168.4 348.9 " fill="#B8B8B8"></path><path d="M 394.5 41.5 L 394.5 56.5 L 409.5 56.5 L 409.5 41.5 L 394.5 41.5 " fill="none" stroke="#000000" stroke-width="1.00" stroke-linecap="square" transform="matrix(1.54, 0.00, 0.00, 1.54, 561.0, 261.0)"></path><path d="M 1191.5 332.0 L 1214.6 332.0 L 1214.6 325.8 L 1191.5 325.8 Z M 1191.5 332.0 " fill="#B8B8B8"></path><path d="M 409.5 41.5 L 409.5 45.5 L 424.5 45.5 L 424.5 41.5 L 409.5 41.5 " fill="none" stroke="#000000" stroke-width="1.00" stroke-linecap="square" transform="matrix(1.54, 0.00, 0.00, 1.54, 561.0, 261.0)"></path><path d="M 1214.6 332.0 L 1237.8 332.0 L 1237.8 325.8 L 1214.6 325.8 Z M 1214.6 332.0 " fill="#B8B8B8"></path><path d="M 1214.6 332.0 L 1237.8 332.0 L 1237.8 325.8 L 1214.6 325.8 Z M 1214.6 332.0 " fill="#707070"></path><path d="M 424.5 41.5 L 424.5 45.5 L 439.5 45.5 L 439.5 41.5 L 424.5 41.5 " fill="none" stroke="#000000" stroke-width="1.00" stroke-linecap="square" transform="matrix(1.54, 0.00, 0.00, 1.54, 561.0, 261.0)"></path><path d="M 1260.9 332.0 L 1285.5 332.0 L 1285.5 325.8 L 1260.9 325.8 Z M 1260.9 332.0 " fill="#B8B8B8"></path><path d="M 454.5 41.5 L 454.5 45.5 L 470.5 45.5 L 470.5 41.5 L 454.5 41.5 " fill="none" stroke="#000000" stroke-width="1.00" stroke-linecap="square" transform="matrix(1.54, 0.00, 0.00, 1.54, 561.0, 261.0)"></path></g></g></g></g></g></g></g></g></g></g></g></g></g></g></g></g></g><g><clipPath id="clip0x6080018ae0a0"><path d="M 578.0 737.6 L 1342.6 737.6 L 1342.6 325.8 L 578.0 325.8 Z M 578.0 737.6 "></path></clipPath><g clip-path="url(#clip0x6080018ae0a0)"><g><clipPath id="clip0x6080018ae280"><path d="M 577.0 325.0 L 1343.0 325.0 L 1343.0 710.0 L 577.0 710.0 Z M 577.0 325.0 "></path></clipPath><g clip-path="url(#clip0x6080018ae280)"><g><g><clipPath id="clip0x6080018ae4c0"><path d="M 578.0 651.2 L 1342.6 651.2 L 1342.6 325.8 L 578.0 325.8 Z M 578.0 651.2 "></path></clipPath><g clip-path="url(#clip0x6080018ae4c0)"><g><clipPath id="clip0x6080018ae640"><path d="M 577.0 325.0 L 1343.0 325.0 L 1343.0 710.0 L 577.0 710.0 Z M 577.0 325.0 "></path></clipPath><g clip-path="url(#clip0x6080018ae640)"><g><g><clipPath id="clip0x6080018ae820"><path d="M 577.0 325.0 L 1343.0 325.0 L 1343.0 652.0 L 577.0 652.0 Z M 577.0 325.0 "></path></clipPath><g clip-path="url(#clip0x6080018ae820)"><g><g><clipPath id="clip0x6080018aea00"><path d="M 577.0 325.0 L 1343.0 325.0 L 1343.0 652.0 L 577.0 652.0 Z M 577.0 325.0 "></path></clipPath><g clip-path="url(#clip0x6080018aea00)"><path d="M 10.0 42.0 C 9.9 42.0 9.8 42.0 10.0 42.0 C 10.2 42.0 11.4 42.0 11.9 42.0 C 12.4 42.0 13.3 42.0 13.8 42.0 C 14.3 42.0 15.3 42.0 15.7 42.0 C 16.2 42.0 17.2 42.0 17.6 42.0 C 18.1 42.0 19.1 42.1 19.6 42.1 C 20.0 42.1 21.0 42.1 21.5 42.1 C 21.9 42.1 22.9 42.1 23.4 42.1 C 23.9 42.1 24.8 42.1 25.3 42.1 C 25.8 42.1 26.7 42.1 27.2 42.1 C 27.7 42.1 28.6 42.1 29.1 42.1 C 29.6 42.1 30.5 42.1 31.0 42.1 C 31.5 42.1 32.4 42.1 32.9 42.1 C 33.4 42.1 34.4 42.1 34.8 42.1 C 35.3 42.2 36.3 42.2 36.7 42.2 C 37.2 42.2 38.2 42.2 38.7 42.2 C 39.1 42.2 40.1 42.2 40.6 42.2 C 41.0 42.2 42.0 42.2 42.5 42.2 C 43.0 42.2 43.9 42.3 44.4 42.3 C 44.9 42.3 45.8 42.3 46.3 42.3 C 46.8 42.3 47.7 42.3 48.2 42.3 C 48.7 42.4 49.6 42.4 50.1 42.4 C 50.6 42.4 51.6 42.4 52.0 42.4 C 52.5 42.5 53.5 42.5 53.9 42.5 C 54.4 42.5 55.4 42.5 55.9 42.6 C 56.3 42.6 57.3 42.6 57.8 42.6 C 58.2 42.6 59.2 42.7 59.7 42.7 C 60.1 42.7 61.1 42.8 61.6 42.8 C 62.1 42.8 63.0 42.8 63.5 42.9 C 64.0 42.9 64.9 42.9 65.4 43.0 C 65.9 43.0 66.8 43.1 67.3 43.1 C 67.8 43.1 68.7 43.2 69.2 43.2 C 69.7 43.2 70.7 43.3 71.1 43.3 C 71.6 43.4 72.6 43.4 73.0 43.5 C 73.5 43.5 74.5 43.6 75.0 43.7 C 75.4 43.7 76.4 43.8 76.9 43.8 C 77.3 43.9 78.3 44.0 78.8 44.0 C 79.3 44.1 80.2 44.2 80.7 44.2 C 81.2 44.3 82.1 44.4 82.6 44.5 C 83.1 44.5 84.0 44.7 84.5 44.7 C 85.0 44.8 85.9 44.9 86.4 45.0 C 86.9 45.1 87.9 45.2 88.3 45.3 C 88.8 45.4 89.8 45.6 90.2 45.6 C 90.7 45.7 91.7 45.9 92.1 46.0 C 92.6 46.1 93.6 46.3 94.1 46.4 C 94.5 46.5 95.5 46.7 96.0 46.8 C 96.4 46.9 97.4 47.1 97.9 47.3 C 98.4 47.4 99.3 47.6 99.8 47.8 C 100.3 47.9 101.2 48.1 101.7 48.3 C 102.2 48.4 103.1 48.7 103.6 48.9 C 104.1 49.0 105.0 49.3 105.5 49.5 C 106.0 49.6 107.0 50.0 107.4 50.1 C 107.9 50.3 108.9 50.7 109.3 50.8 C 109.8 51.0 110.8 51.4 111.3 51.6 C 111.7 51.8 112.7 52.2 113.2 52.4 C 113.6 52.6 114.6 53.1 115.1 53.3 C 115.6 53.5 116.5 54.0 117.0 54.2 C 117.5 54.5 118.4 55.0 118.9 55.2 C 119.4 55.5 120.3 56.0 120.8 56.3 C 121.3 56.6 122.2 57.1 122.7 57.4 C 123.2 57.7 124.1 58.3 124.6 58.6 C 125.1 58.9 126.1 59.6 126.5 59.9 C 127.0 60.2 128.0 60.9 128.4 61.2 C 128.9 61.6 129.9 62.3 130.4 62.7 C 130.8 63.0 131.8 63.8 132.3 64.2 C 132.7 64.6 133.7 65.4 134.2 65.8 C 134.7 66.2 135.6 67.0 136.1 67.4 C 136.6 67.9 137.5 68.8 138.0 69.2 C 138.5 69.7 139.4 70.6 139.9 71.1 C 140.4 71.6 141.3 72.5 141.8 73.0 C 142.3 73.5 143.3 74.6 143.7 75.1 C 144.2 75.6 145.2 76.7 145.6 77.2 C 146.1 77.8 147.1 78.9 147.6 79.5 C 148.0 80.0 149.0 81.2 149.5 81.8 C 149.9 82.4 150.9 83.6 151.4 84.2 C 151.9 84.8 152.8 86.1 153.3 86.8 C 153.8 87.4 154.7 88.7 155.2 89.4 C 155.7 90.1 156.6 91.4 157.1 92.1 C 157.6 92.8 158.5 94.2 159.0 95.0 C 159.5 95.7 160.4 97.1 160.9 97.9 C 161.4 98.6 162.4 100.1 162.8 100.9 C 163.3 101.7 164.3 103.2 164.7 104.0 C 165.2 104.8 166.2 106.4 166.7 107.2 C 167.1 108.1 168.1 109.7 168.6 110.6 C 169.0 111.4 170.0 113.1 170.5 113.9 C 171.0 114.8 171.9 116.5 172.4 117.4 C 172.9 118.3 173.8 120.1 174.3 121.0 C 174.8 121.9 175.7 123.7 176.2 124.6 C 176.7 125.5 177.6 127.4 178.1 128.3 C 178.6 129.2 179.6 131.1 180.0 132.1 C 180.5 133.0 181.5 134.9 181.9 135.9 C 182.4 136.9 183.4 138.8 183.9 139.8 C 184.3 140.8 185.3 142.7 185.8 143.7 C 186.2 144.7 187.2 146.7 187.7 147.7 C 188.1 148.7 189.1 150.7 189.6 151.7 C 190.1 152.7 191.0 154.7 191.5 155.7 C 192.0 156.7 192.9 158.8 193.4 159.8 C 193.9 160.8 194.8 162.8 195.3 163.8 C 195.8 164.8 196.7 166.9 197.2 167.9 C 197.7 168.9 198.7 170.9 199.1 171.9 C 199.6 172.9 200.6 175.0 201.0 176.0 C 201.5 177.0 202.5 179.0 203.0 180.0 C 203.4 181.0 204.4 182.9 204.9 183.9 C 205.3 184.9 206.3 186.9 206.8 187.8 C 207.3 188.8 208.2 190.7 208.7 191.7 C 209.2 192.6 210.1 194.5 210.6 195.5 C 211.1 196.4 212.0 198.3 212.5 199.2 C 213.0 200.1 213.9 201.9 214.4 202.8 C 214.9 203.7 215.9 205.5 216.3 206.3 C 216.8 207.2 217.8 208.9 218.2 209.7 C 218.7 210.6 219.7 212.2 220.1 213.0 C 220.6 213.8 221.6 215.4 222.1 216.2 C 222.5 217.0 223.5 218.5 224.0 219.2 C 224.4 219.9 225.4 221.4 225.9 222.1 C 226.4 222.8 227.3 224.1 227.8 224.8 C 228.3 225.5 229.2 226.7 229.7 227.4 C 230.2 228.0 231.1 229.2 231.6 229.7 C 232.1 230.3 233.0 231.4 233.5 231.9 C 234.0 232.5 235.0 233.5 235.4 234.0 C 235.9 234.4 236.9 235.3 237.3 235.8 C 237.8 236.2 238.8 237.0 239.3 237.4 C 239.7 237.8 240.7 238.5 241.2 238.8 C 241.6 239.1 242.6 239.7 243.1 240.0 C 243.6 240.3 244.5 240.8 245.0 241.0 C 245.5 241.2 246.4 241.6 246.9 241.8 C 247.4 241.9 248.3 242.2 248.8 242.3 C 249.3 242.4 250.2 242.6 250.7 242.7 C 251.2 242.7 252.1 242.8 252.6 242.8 C 253.1 242.8 254.1 242.7 254.5 242.7 C 255.0 242.6 256.0 242.4 256.4 242.3 C 256.9 242.2 257.9 241.9 258.4 241.8 C 258.8 241.6 259.8 241.2 260.3 241.0 C 260.7 240.8 261.7 240.3 262.2 240.0 C 262.7 239.7 263.6 239.1 264.1 238.8 C 264.6 238.5 265.5 237.8 266.0 237.4 C 266.5 237.0 267.4 236.2 267.9 235.8 C 268.4 235.3 269.3 234.4 269.8 234.0 C 270.3 233.5 271.3 232.5 271.7 231.9 C 272.2 231.4 273.2 230.3 273.6 229.7 C 274.1 229.2 275.1 228.0 275.6 227.4 C 276.0 226.7 277.0 225.5 277.5 224.8 C 277.9 224.1 278.9 222.8 279.4 222.1 C 279.9 221.4 280.8 219.9 281.3 219.2 C 281.8 218.5 282.7 217.0 283.2 216.2 C 283.7 215.4 284.6 213.8 285.1 213.0 C 285.6 212.2 286.5 210.6 287.0 209.7 C 287.5 208.9 288.4 207.2 288.9 206.3 C 289.4 205.5 290.4 203.7 290.8 202.8 C 291.3 201.9 292.3 200.1 292.7 199.2 C 293.2 198.3 294.2 196.4 294.7 195.5 C 295.1 194.5 296.1 192.6 296.6 191.7 C 297.0 190.7 298.0 188.8 298.5 187.8 C 299.0 186.9 299.9 184.9 300.4 183.9 C 300.9 182.9 301.8 181.0 302.3 180.0 C 302.8 179.0 303.7 177.0 304.2 176.0 C 304.7 175.0 305.6 172.9 306.1 171.9 C 306.6 170.9 307.6 168.9 308.0 167.9 C 308.5 166.9 309.5 164.8 309.9 163.8 C 310.4 162.8 311.4 160.8 311.9 159.8 C 312.3 158.8 313.3 156.7 313.8 155.7 C 314.2 154.7 315.2 152.7 315.7 151.7 C 316.1 150.7 317.1 148.7 317.6 147.7 C 318.1 146.7 319.0 144.7 319.5 143.7 C 320.0 142.7 320.9 140.8 321.4 139.8 C 321.9 138.8 322.8 136.9 323.3 135.9 C 323.8 134.9 324.7 133.0 325.2 132.1 C 325.7 131.1 326.7 129.2 327.1 128.3 C 327.6 127.4 328.6 125.5 329.0 124.6 C 329.5 123.7 330.5 121.9 331.0 121.0 C 331.4 120.1 332.4 118.3 332.9 117.4 C 333.3 116.5 334.3 114.8 334.8 113.9 C 335.3 113.1 336.2 111.4 336.7 110.6 C 337.2 109.7 338.1 108.1 338.6 107.2 C 339.1 106.4 340.0 104.8 340.5 104.0 C 341.0 103.2 341.9 101.7 342.4 100.9 C 342.9 100.1 343.9 98.6 344.3 97.9 C 344.8 97.1 345.8 95.7 346.2 95.0 C 346.7 94.2 347.7 92.8 348.1 92.1 C 348.6 91.4 349.6 90.1 350.1 89.4 C 350.5 88.7 351.5 87.4 352.0 86.8 C 352.4 86.1 353.4 84.8 353.9 84.2 C 354.4 83.6 355.3 82.4 355.8 81.8 C 356.3 81.2 357.2 80.0 357.7 79.5 C 358.2 78.9 359.1 77.8 359.6 77.2 C 360.1 76.7 361.0 75.6 361.5 75.1 C 362.0 74.6 363.0 73.5 363.4 73.0 C 363.9 72.5 364.9 71.6 365.3 71.1 C 365.8 70.6 366.8 69.7 367.3 69.2 C 367.7 68.8 368.7 67.9 369.2 67.4 C 369.6 67.0 370.6 66.2 371.1 65.8 C 371.6 65.4 372.5 64.6 373.0 64.2 C 373.5 63.8 374.4 63.0 374.9 62.7 C 375.4 62.3 376.3 61.6 376.8 61.2 C 377.3 60.9 378.2 60.2 378.7 59.9 C 379.2 59.6 380.1 58.9 380.6 58.6 C 381.1 58.3 382.1 57.7 382.5 57.4 C 383.0 57.1 384.0 56.6 384.4 56.3 C 384.9 56.0 385.9 55.5 386.4 55.2 C 386.8 55.0 387.8 54.5 388.3 54.2 C 388.7 54.0 389.7 53.5 390.2 53.3 C 390.7 53.1 391.6 52.6 392.1 52.4 C 392.6 52.2 393.5 51.8 394.0 51.6 C 394.5 51.4 395.4 51.0 395.9 50.8 C 396.4 50.7 397.3 50.3 397.8 50.1 C 398.3 50.0 399.3 49.6 399.7 49.5 C 400.2 49.3 401.2 49.0 401.6 48.9 C 402.1 48.7 403.1 48.4 403.6 48.3 C 404.0 48.1 405.0 47.9 405.5 47.8 C 405.9 47.6 406.9 47.4 407.4 47.3 C 407.9 47.1 408.8 46.9 409.3 46.8 C 409.8 46.7 410.7 46.5 411.2 46.4 C 411.7 46.3 412.6 46.1 413.1 46.0 C 413.6 45.9 414.5 45.7 415.0 45.6 C 415.5 45.6 416.4 45.4 416.9 45.3 C 417.4 45.2 418.4 45.1 418.8 45.0 C 419.3 44.9 420.3 44.8 420.7 44.7 C 421.2 44.7 422.2 44.5 422.7 44.5 C 423.1 44.4 424.1 44.3 424.6 44.2 C 425.0 44.2 426.0 44.1 426.5 44.0 C 427.0 44.0 427.9 43.9 428.4 43.8 C 428.9 43.8 429.8 43.7 430.3 43.7 C 430.8 43.6 431.7 43.5 432.2 43.5 C 432.7 43.4 433.6 43.4 434.1 43.3 C 434.6 43.3 435.6 43.2 436.0 43.2 C 436.5 43.2 437.5 43.1 437.9 43.1 C 438.4 43.1 439.4 43.0 439.9 43.0 C 440.3 42.9 441.3 42.9 441.8 42.9 C 442.2 42.8 443.2 42.8 443.7 42.8 C 444.1 42.8 445.1 42.7 445.6 42.7 C 446.1 42.7 447.0 42.6 447.5 42.6 C 448.0 42.6 448.9 42.6 449.4 42.6 C 449.9 42.5 450.8 42.5 451.3 42.5 C 451.8 42.5 452.7 42.5 453.2 42.4 C 453.7 42.4 454.7 42.4 455.1 42.4 C 455.6 42.4 456.6 42.4 457.0 42.3 C 457.5 42.3 458.5 42.3 459.0 42.3 C 459.4 42.3 460.4 42.3 460.9 42.3 C 461.3 42.3 462.3 42.2 462.8 42.2 C 463.3 42.2 464.2 42.2 464.7 42.2 C 465.2 42.2 466.1 42.2 466.6 42.2 C 467.1 42.2 468.0 42.2 468.5 42.2 C 469.0 42.2 469.9 42.2 470.4 42.1 C 470.9 42.1 471.9 42.1 472.3 42.1 C 472.8 42.1 473.8 42.1 474.2 42.1 C 474.7 42.1 475.7 42.1 476.1 42.1 C 476.6 42.1 477.6 42.1 478.1 42.1 C 478.5 42.1 479.5 42.1 480.0 42.1 C 480.4 42.1 481.4 42.1 481.9 42.1 C 482.4 42.1 483.3 42.1 483.8 42.1 C 484.3 42.1 485.2 42.1 485.7 42.1 C 486.2 42.1 487.1 42.0 487.6 42.0 C 488.1 42.0 489.0 42.0 489.5 42.0 C 490.0 42.0 491.0 42.0 491.4 42.0 C 491.9 42.0 492.9 42.0 493.3 42.0 C 493.8 42.0 494.8 42.0 495.3 42.0 C 495.7 42.0 496.8 42.0 497.2 42.0 " fill="none" stroke="#DB5769" stroke-width="2.00" stroke-linecap="square" transform="matrix(1.54, 0.00, 0.00, 1.54, 561.0, 261.0)"></path></g></g></g></g></g></g></g></g></g></g></g></g></g></g></g></g></g></g></g></g><g><clipPath id="clip0x6080018aebe0"><path d="M 561.0 261.0 L 1358.0 261.0 L 1358.0 824.0 L 561.0 824.0 Z M 561.0 261.0 "></path></clipPath><g clip-path="url(#clip0x6080018aebe0)"><path d="M 507.5 41.5 L 10.5 41.5 " fill="none" stroke="#000000" stroke-width="1.00" stroke-linecap="square" transform="matrix(1.54, 0.00, 0.00, 1.54, 561.0, 261.0)"></path><path d="M 17.5 41.5 L 17.5 38.5 " fill="none" stroke="#000000" stroke-width="1.00" stroke-linecap="square" transform="matrix(1.54, 0.00, 0.00, 1.54, 561.0, 261.0)"></path><path d="M 32.5 41.5 L 32.5 35.5 " fill="none" stroke="#000000" stroke-width="1.00" stroke-linecap="square" transform="matrix(1.54, 0.00, 0.00, 1.54, 561.0, 261.0)"></path><path d="M 600.0 301.0 L 605.8 301.0 L 605.8 299.6 L 598.0 299.6 L 598.0 301.0 C 598.6 301.6 599.5 302.5 600.6 303.6 C 601.7 304.7 602.4 305.4 602.7 305.8 C 603.2 306.4 603.6 306.9 603.8 307.3 C 604.0 307.7 604.1 308.1 604.1 308.5 C 604.1 309.2 603.9 309.7 603.4 310.1 C 603.0 310.5 602.4 310.7 601.6 310.7 C 601.1 310.7 600.5 310.6 599.9 310.5 C 599.4 310.3 598.7 310.0 598.1 309.6 L 598.1 311.3 C 598.8 311.6 599.4 311.8 600.0 311.9 C 600.6 312.1 601.1 312.2 601.6 312.2 C 602.9 312.2 603.9 311.8 604.6 311.2 C 605.4 310.6 605.8 309.7 605.8 308.6 C 605.8 308.1 605.7 307.6 605.5 307.2 C 605.3 306.7 605.0 306.2 604.5 305.6 C 604.3 305.4 603.9 304.9 603.1 304.2 C 602.4 303.4 601.4 302.3 600.0 301.0 Z M 609.4 301.7 L 611.1 301.7 L 611.1 299.6 L 609.4 299.6 Z M 614.8 311.9 L 621.4 311.9 L 621.4 310.5 L 616.3 310.5 L 616.3 307.5 C 616.6 307.6 616.8 307.6 617.1 307.7 C 617.3 307.7 617.5 307.7 617.8 307.7 C 619.2 307.7 620.2 307.4 621.1 306.6 C 621.9 305.8 622.3 304.8 622.3 303.5 C 622.3 302.2 621.8 301.2 621.0 300.4 C 620.2 299.7 619.0 299.3 617.5 299.3 C 617.0 299.3 616.5 299.4 615.9 299.5 C 615.4 299.5 614.8 299.7 614.3 299.9 L 614.3 301.5 C 614.8 301.3 615.3 301.1 615.8 300.9 C 616.3 300.8 616.9 300.7 617.5 300.7 C 618.5 300.7 619.2 301.0 619.8 301.5 C 620.3 302.0 620.6 302.7 620.6 303.5 C 620.6 304.4 620.3 305.1 619.8 305.6 C 619.2 306.1 618.5 306.3 617.5 306.3 C 617.0 306.3 616.6 306.3 616.1 306.2 C 615.7 306.1 615.3 305.9 614.8 305.7 Z M 614.8 311.9 " fill="#000000"></path><path d="M 47.5 41.5 L 47.5 38.5 " fill="none" stroke="#000000" stroke-width="1.00" stroke-linecap="square" transform="matrix(1.54, 0.00, 0.00, 1.54, 561.0, 261.0)"></path><path d="M 63.5 41.5 L 63.5 35.5 " fill="none" stroke="#000000" stroke-width="1.00" stroke-linecap="square" transform="matrix(1.54, 0.00, 0.00, 1.54, 561.0, 261.0)"></path><path d="M 658.8 306.2 C 659.6 306.1 660.3 305.7 660.7 305.2 C 661.2 304.6 661.4 304.0 661.4 303.2 C 661.4 301.9 661.0 301.0 660.1 300.3 C 659.3 299.6 658.1 299.3 656.6 299.3 C 656.0 299.3 655.5 299.4 654.9 299.5 C 654.4 299.6 653.8 299.7 653.3 299.9 L 653.3 301.6 C 653.7 301.3 654.2 301.1 654.8 300.9 C 655.3 300.8 655.9 300.7 656.5 300.7 C 657.5 300.7 658.3 300.9 658.9 301.3 C 659.4 301.8 659.7 302.4 659.7 303.2 C 659.7 303.9 659.5 304.5 658.9 304.9 C 658.4 305.3 657.7 305.5 656.8 305.5 L 655.4 305.5 L 655.4 306.9 L 656.9 306.9 C 657.7 306.9 658.3 307.0 658.8 307.3 C 659.2 307.7 659.4 308.2 659.4 308.8 C 659.4 309.4 659.2 309.9 658.7 310.2 C 658.3 310.6 657.6 310.7 656.8 310.7 C 656.4 310.7 655.9 310.7 655.3 310.6 C 654.8 310.5 654.2 310.3 653.6 310.1 L 653.6 311.6 C 654.3 311.8 654.9 311.9 655.4 312.0 C 656.0 312.1 656.5 312.2 657.0 312.2 C 658.2 312.2 659.2 311.9 660.0 311.3 C 660.7 310.7 661.1 309.9 661.1 308.9 C 661.1 308.3 660.9 307.7 660.5 307.2 C 660.1 306.7 659.6 306.4 658.8 306.2 Z M 658.8 306.2 " fill="#000000"></path><path d="M 78.5 41.5 L 78.5 38.5 " fill="none" stroke="#000000" stroke-width="1.00" stroke-linecap="square" transform="matrix(1.54, 0.00, 0.00, 1.54, 561.0, 261.0)"></path><path d="M 93.5 41.5 L 93.5 35.5 " fill="none" stroke="#000000" stroke-width="1.00" stroke-linecap="square" transform="matrix(1.54, 0.00, 0.00, 1.54, 561.0, 261.0)"></path><path d="M 697.7 306.2 C 698.5 306.1 699.1 305.7 699.6 305.2 C 700.0 304.6 700.2 304.0 700.2 303.2 C 700.2 301.9 699.8 301.0 699.0 300.3 C 698.1 299.6 696.9 299.3 695.4 299.3 C 694.9 299.3 694.3 299.4 693.8 299.5 C 693.2 299.6 692.7 299.7 692.1 299.9 L 692.1 301.6 C 692.6 301.3 693.1 301.1 693.6 300.9 C 694.2 300.8 694.7 300.7 695.4 300.7 C 696.4 300.7 697.2 300.9 697.7 301.3 C 698.3 301.8 698.6 302.4 698.6 303.2 C 698.6 303.9 698.3 304.5 697.8 304.9 C 697.3 305.3 696.6 305.5 695.7 305.5 L 694.2 305.5 L 694.2 306.9 L 695.7 306.9 C 696.6 306.9 697.2 307.0 697.6 307.3 C 698.1 307.7 698.3 308.2 698.3 308.8 C 698.3 309.4 698.0 309.9 697.6 310.2 C 697.1 310.6 696.5 310.7 695.7 310.7 C 695.2 310.7 694.7 310.7 694.2 310.6 C 693.7 310.5 693.1 310.3 692.5 310.1 L 692.5 311.6 C 693.1 311.8 693.7 311.9 694.2 312.0 C 694.8 312.1 695.3 312.2 695.8 312.2 C 697.1 312.2 698.1 311.9 698.8 311.3 C 699.6 310.7 700.0 309.9 700.0 308.9 C 700.0 308.3 699.7 307.7 699.4 307.2 C 699.0 306.7 698.4 306.4 697.7 306.2 Z M 703.4 301.7 L 705.2 301.7 L 705.2 299.6 L 703.4 299.6 Z M 708.8 311.9 L 715.4 311.9 L 715.4 310.5 L 710.4 310.5 L 710.4 307.5 C 710.6 307.6 710.9 307.6 711.1 307.7 C 711.3 307.7 711.6 307.7 711.8 307.7 C 713.2 307.7 714.3 307.4 715.1 306.6 C 715.9 305.8 716.3 304.8 716.3 303.5 C 716.3 302.2 715.9 301.2 715.0 300.4 C 714.2 299.7 713.1 299.3 711.6 299.3 C 711.0 299.3 710.5 299.4 710.0 299.5 C 709.4 299.5 708.9 299.7 708.3 299.9 L 708.3 301.5 C 708.8 301.3 709.3 301.1 709.8 300.9 C 710.4 300.8 710.9 300.7 711.5 300.7 C 712.5 300.7 713.2 301.0 713.8 301.5 C 714.4 302.0 714.6 302.7 714.6 303.5 C 714.6 304.4 714.4 305.1 713.8 305.6 C 713.2 306.1 712.5 306.3 711.5 306.3 C 711.1 306.3 710.6 306.3 710.2 306.2 C 709.7 306.1 709.3 305.9 708.8 305.7 Z M 708.8 311.9 " fill="#000000"></path><path d="M 108.5 41.5 L 108.5 38.5 " fill="none" stroke="#000000" stroke-width="1.00" stroke-linecap="square" transform="matrix(1.54, 0.00, 0.00, 1.54, 561.0, 261.0)"></path><path d="M 123.5 41.5 L 123.5 35.5 " fill="none" stroke="#000000" stroke-width="1.00" stroke-linecap="square" transform="matrix(1.54, 0.00, 0.00, 1.54, 561.0, 261.0)"></path><path d="M 750.9 310.5 L 746.6 303.9 L 750.9 303.9 Z M 750.4 311.9 L 752.5 311.9 L 752.5 303.9 L 754.3 303.9 L 754.3 302.5 L 752.5 302.5 L 752.5 299.6 L 750.9 299.6 L 750.9 302.5 L 745.3 302.5 L 745.3 304.1 Z M 750.4 311.9 " fill="#000000"></path><path d="M 138.5 41.5 L 138.5 38.5 " fill="none" stroke="#000000" stroke-width="1.00" stroke-linecap="square" transform="matrix(1.54, 0.00, 0.00, 1.54, 561.0, 261.0)"></path><path d="M 153.5 41.5 L 153.5 35.5 " fill="none" stroke="#000000" stroke-width="1.00" stroke-linecap="square" transform="matrix(1.54, 0.00, 0.00, 1.54, 561.0, 261.0)"></path><path d="M 789.7 310.5 L 785.5 303.9 L 789.7 303.9 Z M 789.3 311.9 L 791.4 311.9 L 791.4 303.9 L 793.1 303.9 L 793.1 302.5 L 791.4 302.5 L 791.4 299.6 L 789.7 299.6 L 789.7 302.5 L 784.1 302.5 L 784.1 304.1 Z M 795.9 301.7 L 797.7 301.7 L 797.7 299.6 L 795.9 299.6 Z M 801.3 311.9 L 807.9 311.9 L 807.9 310.5 L 802.9 310.5 L 802.9 307.5 C 803.1 307.6 803.3 307.6 803.6 307.7 C 803.8 307.7 804.1 307.7 804.3 307.7 C 805.7 307.7 806.8 307.4 807.6 306.6 C 808.4 305.8 808.8 304.8 808.8 303.5 C 808.8 302.2 808.4 301.2 807.5 300.4 C 806.7 299.7 805.6 299.3 804.0 299.3 C 803.5 299.3 803.0 299.4 802.5 299.5 C 801.9 299.5 801.4 299.7 800.8 299.9 L 800.8 301.5 C 801.3 301.3 801.8 301.1 802.3 300.9 C 802.9 300.8 803.4 300.7 804.0 300.7 C 805.0 300.7 805.7 301.0 806.3 301.5 C 806.8 302.0 807.1 302.7 807.1 303.5 C 807.1 304.4 806.8 305.1 806.3 305.6 C 805.7 306.1 805.0 306.3 804.0 306.3 C 803.6 306.3 803.1 306.3 802.7 306.2 C 802.2 306.1 801.8 305.9 801.3 305.7 Z M 801.3 311.9 " fill="#000000"></path><path d="M 168.5 41.5 L 168.5 38.5 " fill="none" stroke="#000000" stroke-width="1.00" stroke-linecap="square" transform="matrix(1.54, 0.00, 0.00, 1.54, 561.0, 261.0)"></path><path d="M 183.5 41.5 L 183.5 35.5 " fill="none" stroke="#000000" stroke-width="1.00" stroke-linecap="square" transform="matrix(1.54, 0.00, 0.00, 1.54, 561.0, 261.0)"></path><path d="M 838.8 311.9 L 845.4 311.9 L 845.4 310.5 L 840.3 310.5 L 840.3 307.5 C 840.6 307.6 840.8 307.6 841.0 307.7 C 841.3 307.7 841.5 307.7 841.8 307.7 C 843.1 307.7 844.2 307.4 845.0 306.6 C 845.8 305.8 846.2 304.8 846.2 303.5 C 846.2 302.2 845.8 301.2 845.0 300.4 C 844.2 299.7 843.0 299.3 841.5 299.3 C 841.0 299.3 840.4 299.4 839.9 299.5 C 839.4 299.5 838.8 299.7 838.2 299.9 L 838.2 301.5 C 838.7 301.3 839.3 301.1 839.8 300.9 C 840.3 300.8 840.9 300.7 841.5 300.7 C 842.4 300.7 843.2 301.0 843.7 301.5 C 844.3 302.0 844.6 302.7 844.6 303.5 C 844.6 304.4 844.3 305.1 843.7 305.6 C 843.2 306.1 842.4 306.3 841.5 306.3 C 841.0 306.3 840.6 306.3 840.1 306.2 C 839.7 306.1 839.2 305.9 838.8 305.7 Z M 838.8 311.9 " fill="#000000"></path><path d="M 198.5 41.5 L 198.5 38.5 " fill="none" stroke="#000000" stroke-width="1.00" stroke-linecap="square" transform="matrix(1.54, 0.00, 0.00, 1.54, 561.0, 261.0)"></path><path d="M 213.5 41.5 L 213.5 35.5 " fill="none" stroke="#000000" stroke-width="1.00" stroke-linecap="square" transform="matrix(1.54, 0.00, 0.00, 1.54, 561.0, 261.0)"></path><path d="M 877.6 311.9 L 884.2 311.9 L 884.2 310.5 L 879.2 310.5 L 879.2 307.5 C 879.4 307.6 879.6 307.6 879.9 307.7 C 880.1 307.7 880.4 307.7 880.6 307.7 C 882.0 307.7 883.1 307.4 883.9 306.6 C 884.7 305.8 885.1 304.8 885.1 303.5 C 885.1 302.2 884.7 301.2 883.8 300.4 C 883.0 299.7 881.8 299.3 880.3 299.3 C 879.8 299.3 879.3 299.4 878.8 299.5 C 878.2 299.5 877.7 299.7 877.1 299.9 L 877.1 301.5 C 877.6 301.3 878.1 301.1 878.6 300.9 C 879.2 300.8 879.7 300.7 880.3 300.7 C 881.3 300.7 882.0 301.0 882.6 301.5 C 883.1 302.0 883.4 302.7 883.4 303.5 C 883.4 304.4 883.1 305.1 882.6 305.6 C 882.0 306.1 881.3 306.3 880.3 306.3 C 879.9 306.3 879.4 306.3 879.0 306.2 C 878.5 306.1 878.1 305.9 877.6 305.7 Z M 888.4 301.7 L 890.2 301.7 L 890.2 299.6 L 888.4 299.6 Z M 893.8 311.9 L 900.4 311.9 L 900.4 310.5 L 895.4 310.5 L 895.4 307.5 C 895.6 307.6 895.8 307.6 896.1 307.7 C 896.3 307.7 896.6 307.7 896.8 307.7 C 898.2 307.7 899.3 307.4 900.1 306.6 C 900.9 305.8 901.3 304.8 901.3 303.5 C 901.3 302.2 900.9 301.2 900.0 300.4 C 899.2 299.7 898.0 299.3 896.5 299.3 C 896.0 299.3 895.5 299.4 895.0 299.5 C 894.4 299.5 893.9 299.7 893.3 299.9 L 893.3 301.5 C 893.8 301.3 894.3 301.1 894.8 300.9 C 895.4 300.8 895.9 300.7 896.5 300.7 C 897.5 300.7 898.2 301.0 898.8 301.5 C 899.3 302.0 899.6 302.7 899.6 303.5 C 899.6 304.4 899.3 305.1 898.8 305.6 C 898.2 306.1 897.5 306.3 896.5 306.3 C 896.1 306.3 895.6 306.3 895.2 306.2 C 894.7 306.1 894.3 305.9 893.8 305.7 Z M 893.8 311.9 " fill="#000000"></path><path d="M 228.5 41.5 L 228.5 38.5 " fill="none" stroke="#000000" stroke-width="1.00" stroke-linecap="square" transform="matrix(1.54, 0.00, 0.00, 1.54, 561.0, 261.0)"></path><path d="M 243.5 41.5 L 243.5 35.5 " fill="none" stroke="#000000" stroke-width="1.00" stroke-linecap="square" transform="matrix(1.54, 0.00, 0.00, 1.54, 561.0, 261.0)"></path><path d="M 935.0 306.4 C 934.3 306.4 933.7 306.1 933.2 305.6 C 932.8 305.1 932.6 304.4 932.6 303.5 C 932.6 302.6 932.8 301.9 933.2 301.4 C 933.7 300.9 934.3 300.6 935.0 300.6 C 935.8 300.6 936.4 300.9 936.8 301.4 C 937.3 301.9 937.5 302.6 937.5 303.5 C 937.5 304.4 937.3 305.1 936.8 305.6 C 936.4 306.1 935.8 306.4 935.0 306.4 Z M 938.4 311.7 L 938.4 310.1 C 937.9 310.3 937.5 310.5 937.1 310.6 C 936.7 310.7 936.2 310.7 935.8 310.7 C 934.7 310.7 933.9 310.4 933.3 309.6 C 932.7 308.9 932.4 307.7 932.3 306.2 C 932.6 306.7 933.0 307.1 933.5 307.3 C 934.0 307.6 934.6 307.7 935.1 307.7 C 936.4 307.7 937.4 307.4 938.1 306.6 C 938.8 305.8 939.2 304.8 939.2 303.5 C 939.2 302.3 938.8 301.2 938.0 300.5 C 937.3 299.7 936.3 299.3 935.0 299.3 C 933.6 299.3 932.5 299.9 931.8 301.0 C 931.0 302.1 930.6 303.7 930.6 305.7 C 930.6 307.7 931.1 309.2 932.0 310.4 C 932.9 311.6 934.2 312.2 935.8 312.2 C 936.2 312.2 936.6 312.1 937.0 312.0 C 937.4 311.9 937.9 311.8 938.4 311.7 Z M 938.4 311.7 " fill="#000000"></path><path d="M 259.5 41.5 L 259.5 38.5 " fill="none" stroke="#000000" stroke-width="1.00" stroke-linecap="square" transform="matrix(1.54, 0.00, 0.00, 1.54, 561.0, 261.0)"></path><path d="M 274.5 41.5 L 274.5 35.5 " fill="none" stroke="#000000" stroke-width="1.00" stroke-linecap="square" transform="matrix(1.54, 0.00, 0.00, 1.54, 561.0, 261.0)"></path><path d="M 975.4 306.4 C 974.7 306.4 974.1 306.1 973.6 305.6 C 973.2 305.1 973.0 304.4 973.0 303.5 C 973.0 302.6 973.2 301.9 973.6 301.4 C 974.1 300.9 974.7 300.6 975.4 300.6 C 976.2 300.6 976.8 300.9 977.2 301.4 C 977.6 301.9 977.9 302.6 977.9 303.5 C 977.9 304.4 977.6 305.1 977.2 305.6 C 976.8 306.1 976.2 306.4 975.4 306.4 Z M 978.7 311.7 L 978.7 310.1 C 978.3 310.3 977.9 310.5 977.5 310.6 C 977.0 310.7 976.6 310.7 976.2 310.7 C 975.1 310.7 974.2 310.4 973.7 309.6 C 973.1 308.9 972.7 307.7 972.7 306.2 C 973.0 306.7 973.4 307.1 973.9 307.3 C 974.4 307.6 974.9 307.7 975.5 307.7 C 976.8 307.7 977.8 307.4 978.5 306.6 C 979.2 305.8 979.6 304.8 979.6 303.5 C 979.6 302.3 979.2 301.2 978.4 300.5 C 977.7 299.7 976.7 299.3 975.4 299.3 C 974.0 299.3 972.9 299.9 972.1 301.0 C 971.4 302.1 971.0 303.7 971.0 305.7 C 971.0 307.7 971.5 309.2 972.4 310.4 C 973.3 311.6 974.6 312.2 976.1 312.2 C 976.6 312.2 977.0 312.1 977.4 312.0 C 977.8 311.9 978.3 311.8 978.7 311.7 Z M 982.4 301.7 L 984.2 301.7 L 984.2 299.6 L 982.4 299.6 Z M 987.9 311.9 L 994.4 311.9 L 994.4 310.5 L 989.4 310.5 L 989.4 307.5 C 989.6 307.6 989.9 307.6 990.1 307.7 C 990.4 307.7 990.6 307.7 990.8 307.7 C 992.2 307.7 993.3 307.4 994.1 306.6 C 994.9 305.8 995.3 304.8 995.3 303.5 C 995.3 302.2 994.9 301.2 994.1 300.4 C 993.3 299.7 992.1 299.3 990.6 299.3 C 990.1 299.3 989.5 299.4 989.0 299.5 C 988.5 299.5 987.9 299.7 987.3 299.9 L 987.3 301.5 C 987.8 301.3 988.3 301.1 988.9 300.9 C 989.4 300.8 990.0 300.7 990.6 300.7 C 991.5 300.7 992.3 301.0 992.8 301.5 C 993.4 302.0 993.7 302.7 993.7 303.5 C 993.7 304.4 993.4 305.1 992.8 305.6 C 992.3 306.1 991.5 306.3 990.6 306.3 C 990.1 306.3 989.7 306.3 989.2 306.2 C 988.8 306.1 988.3 305.9 987.9 305.7 Z M 987.9 311.9 " fill="#000000"></path><path d="M 289.5 41.5 L 289.5 38.5 " fill="none" stroke="#000000" stroke-width="1.00" stroke-linecap="square" transform="matrix(1.54, 0.00, 0.00, 1.54, 561.0, 261.0)"></path><path d="M 304.5 41.5 L 304.5 35.5 " fill="none" stroke="#000000" stroke-width="1.00" stroke-linecap="square" transform="matrix(1.54, 0.00, 0.00, 1.54, 561.0, 261.0)"></path><path d="M 1024.9 311.9 L 1032.8 311.9 L 1032.8 311.2 L 1028.3 299.6 L 1026.6 299.6 L 1030.8 310.5 L 1024.9 310.5 Z M 1024.9 311.9 " fill="#000000"></path><path d="M 319.5 41.5 L 319.5 38.5 " fill="none" stroke="#000000" stroke-width="1.00" stroke-linecap="square" transform="matrix(1.54, 0.00, 0.00, 1.54, 561.0, 261.0)"></path><path d="M 334.5 41.5 L 334.5 35.5 " fill="none" stroke="#000000" stroke-width="1.00" stroke-linecap="square" transform="matrix(1.54, 0.00, 0.00, 1.54, 561.0, 261.0)"></path><path d="M 1063.7 311.9 L 1071.7 311.9 L 1071.7 311.2 L 1067.2 299.6 L 1065.4 299.6 L 1069.6 310.5 L 1063.7 310.5 Z M 1074.9 301.7 L 1076.7 301.7 L 1076.7 299.6 L 1074.9 299.6 Z M 1080.4 311.9 L 1086.9 311.9 L 1086.9 310.5 L 1081.9 310.5 L 1081.9 307.5 C 1082.1 307.6 1082.4 307.6 1082.6 307.7 C 1082.9 307.7 1083.1 307.7 1083.3 307.7 C 1084.7 307.7 1085.8 307.4 1086.6 306.6 C 1087.4 305.8 1087.8 304.8 1087.8 303.5 C 1087.8 302.2 1087.4 301.2 1086.6 300.4 C 1085.7 299.7 1084.6 299.3 1083.1 299.3 C 1082.6 299.3 1082.0 299.4 1081.5 299.5 C 1081.0 299.5 1080.4 299.7 1079.8 299.9 L 1079.8 301.5 C 1080.3 301.3 1080.8 301.1 1081.4 300.9 C 1081.9 300.8 1082.5 300.7 1083.0 300.7 C 1084.0 300.7 1084.8 301.0 1085.3 301.5 C 1085.9 302.0 1086.2 302.7 1086.2 303.5 C 1086.2 304.4 1085.9 305.1 1085.3 305.6 C 1084.8 306.1 1084.0 306.3 1083.0 306.3 C 1082.6 306.3 1082.1 306.3 1081.7 306.2 C 1081.3 306.1 1080.8 305.9 1080.4 305.7 Z M 1080.4 311.9 " fill="#000000"></path><path d="M 349.5 41.5 L 349.5 38.5 " fill="none" stroke="#000000" stroke-width="1.00" stroke-linecap="square" transform="matrix(1.54, 0.00, 0.00, 1.54, 561.0, 261.0)"></path><path d="M 364.5 41.5 L 364.5 35.5 " fill="none" stroke="#000000" stroke-width="1.00" stroke-linecap="square" transform="matrix(1.54, 0.00, 0.00, 1.54, 561.0, 261.0)"></path><path d="M 1121.4 305.4 C 1120.6 305.4 1119.9 305.2 1119.5 304.8 C 1119.0 304.4 1118.8 303.8 1118.8 303.0 C 1118.8 302.3 1119.0 301.7 1119.5 301.3 C 1119.9 300.9 1120.6 300.6 1121.4 300.6 C 1122.2 300.6 1122.8 300.9 1123.2 301.3 C 1123.7 301.7 1123.9 302.3 1123.9 303.0 C 1123.9 303.8 1123.7 304.4 1123.2 304.8 C 1122.8 305.2 1122.2 305.4 1121.4 305.4 Z M 1119.7 306.1 C 1119.0 306.3 1118.4 306.6 1118.0 307.1 C 1117.6 307.6 1117.4 308.2 1117.4 308.9 C 1117.4 309.9 1117.8 310.7 1118.5 311.3 C 1119.2 311.9 1120.1 312.2 1121.4 312.2 C 1122.6 312.2 1123.5 311.9 1124.3 311.3 C 1125.0 310.7 1125.3 309.9 1125.3 308.9 C 1125.3 308.2 1125.1 307.6 1124.7 307.1 C 1124.3 306.6 1123.8 306.3 1123.1 306.1 C 1123.9 306.0 1124.5 305.6 1124.9 305.1 C 1125.4 304.5 1125.6 303.8 1125.6 303.0 C 1125.6 301.8 1125.2 300.9 1124.5 300.3 C 1123.8 299.6 1122.7 299.3 1121.4 299.3 C 1120.0 299.3 1118.9 299.6 1118.2 300.3 C 1117.5 300.9 1117.1 301.8 1117.1 303.0 C 1117.1 303.8 1117.4 304.5 1117.8 305.1 C 1118.2 305.6 1118.9 306.0 1119.7 306.1 Z M 1119.1 308.8 C 1119.1 308.1 1119.3 307.6 1119.7 307.3 C 1120.1 306.9 1120.6 306.7 1121.4 306.7 C 1122.1 306.7 1122.6 306.9 1123.0 307.3 C 1123.4 307.6 1123.7 308.1 1123.7 308.8 C 1123.7 309.4 1123.4 309.9 1123.0 310.3 C 1122.6 310.7 1122.1 310.8 1121.4 310.8 C 1120.6 310.8 1120.1 310.7 1119.7 310.3 C 1119.3 309.9 1119.1 309.4 1119.1 308.8 Z M 1119.1 308.8 " fill="#000000"></path><path d="M 379.5 41.5 L 379.5 38.5 " fill="none" stroke="#000000" stroke-width="1.00" stroke-linecap="square" transform="matrix(1.54, 0.00, 0.00, 1.54, 561.0, 261.0)"></path><path d="M 394.5 41.5 L 394.5 35.5 " fill="none" stroke="#000000" stroke-width="1.00" stroke-linecap="square" transform="matrix(1.54, 0.00, 0.00, 1.54, 561.0, 261.0)"></path><path d="M 1160.2 305.4 C 1159.4 305.4 1158.8 305.2 1158.3 304.8 C 1157.9 304.4 1157.7 303.8 1157.7 303.0 C 1157.7 302.3 1157.9 301.7 1158.3 301.3 C 1158.8 300.9 1159.4 300.6 1160.2 300.6 C 1161.0 300.6 1161.6 300.9 1162.1 301.3 C 1162.5 301.7 1162.8 302.3 1162.8 303.0 C 1162.8 303.8 1162.5 304.4 1162.1 304.8 C 1161.6 305.2 1161.0 305.4 1160.2 305.4 Z M 1158.5 306.1 C 1157.8 306.3 1157.3 306.6 1156.9 307.1 C 1156.5 307.6 1156.3 308.2 1156.3 308.9 C 1156.3 309.9 1156.6 310.7 1157.3 311.3 C 1158.0 311.9 1159.0 312.2 1160.2 312.2 C 1161.4 312.2 1162.4 311.9 1163.1 311.3 C 1163.8 310.7 1164.2 309.9 1164.2 308.9 C 1164.2 308.2 1164.0 307.6 1163.6 307.1 C 1163.2 306.6 1162.6 306.3 1161.9 306.1 C 1162.7 306.0 1163.3 305.6 1163.8 305.1 C 1164.2 304.5 1164.5 303.8 1164.5 303.0 C 1164.5 301.8 1164.1 300.9 1163.3 300.3 C 1162.6 299.6 1161.6 299.3 1160.2 299.3 C 1158.8 299.3 1157.8 299.6 1157.1 300.3 C 1156.3 300.9 1156.0 301.8 1156.0 303.0 C 1156.0 303.8 1156.2 304.5 1156.6 305.1 C 1157.1 305.6 1157.7 306.0 1158.5 306.1 Z M 1157.9 308.8 C 1157.9 308.1 1158.1 307.6 1158.5 307.3 C 1158.9 306.9 1159.5 306.7 1160.2 306.7 C 1160.9 306.7 1161.5 306.9 1161.9 307.3 C 1162.3 307.6 1162.5 308.1 1162.5 308.8 C 1162.5 309.4 1162.3 309.9 1161.9 310.3 C 1161.5 310.7 1160.9 310.8 1160.2 310.8 C 1159.5 310.8 1158.9 310.7 1158.5 310.3 C 1158.1 309.9 1157.9 309.4 1157.9 308.8 Z M 1167.4 301.7 L 1169.2 301.7 L 1169.2 299.6 L 1167.4 299.6 Z M 1172.8 311.9 L 1179.4 311.9 L 1179.4 310.5 L 1174.4 310.5 L 1174.4 307.5 C 1174.6 307.6 1174.9 307.6 1175.1 307.7 C 1175.4 307.7 1175.6 307.7 1175.8 307.7 C 1177.2 307.7 1178.3 307.4 1179.1 306.6 C 1179.9 305.8 1180.3 304.8 1180.3 303.5 C 1180.3 302.2 1179.9 301.2 1179.1 300.4 C 1178.2 299.7 1177.1 299.3 1175.6 299.3 C 1175.1 299.3 1174.5 299.4 1174.0 299.5 C 1173.4 299.5 1172.9 299.7 1172.3 299.9 L 1172.3 301.5 C 1172.8 301.3 1173.3 301.1 1173.9 300.9 C 1174.4 300.8 1174.9 300.7 1175.5 300.7 C 1176.5 300.7 1177.3 301.0 1177.8 301.5 C 1178.4 302.0 1178.7 302.7 1178.7 303.5 C 1178.7 304.4 1178.4 305.1 1177.8 305.6 C 1177.3 306.1 1176.5 306.3 1175.5 306.3 C 1175.1 306.3 1174.6 306.3 1174.2 306.2 C 1173.8 306.1 1173.3 305.9 1172.8 305.7 Z M 1172.8 311.9 " fill="#000000"></path><path d="M 409.5 41.5 L 409.5 38.5 " fill="none" stroke="#000000" stroke-width="1.00" stroke-linecap="square" transform="matrix(1.54, 0.00, 0.00, 1.54, 561.0, 261.0)"></path><path d="M 424.5 41.5 L 424.5 35.5 " fill="none" stroke="#000000" stroke-width="1.00" stroke-linecap="square" transform="matrix(1.54, 0.00, 0.00, 1.54, 561.0, 261.0)"></path><path d="M 1210.3 299.8 L 1210.3 301.3 C 1210.7 301.2 1211.2 301.0 1211.6 300.9 C 1212.0 300.8 1212.5 300.7 1212.9 300.7 C 1214.0 300.7 1214.8 301.1 1215.4 301.8 C 1216.0 302.6 1216.3 303.7 1216.4 305.2 C 1216.1 304.8 1215.7 304.4 1215.2 304.1 C 1214.7 303.9 1214.1 303.8 1213.5 303.8 C 1212.3 303.8 1211.3 304.1 1210.6 304.9 C 1209.9 305.6 1209.5 306.6 1209.5 307.9 C 1209.5 309.2 1209.9 310.2 1210.7 311.0 C 1211.4 311.8 1212.4 312.2 1213.7 312.2 C 1215.1 312.2 1216.2 311.6 1216.9 310.5 C 1217.7 309.4 1218.1 307.8 1218.1 305.7 C 1218.1 303.8 1217.6 302.2 1216.7 301.1 C 1215.7 299.9 1214.5 299.3 1212.9 299.3 C 1212.5 299.3 1212.1 299.4 1211.7 299.4 C 1211.2 299.5 1210.8 299.6 1210.3 299.8 Z M 1213.7 305.1 C 1214.4 305.1 1215.0 305.3 1215.4 305.8 C 1215.9 306.3 1216.1 307.0 1216.1 307.9 C 1216.1 308.8 1215.9 309.5 1215.4 310.0 C 1215.0 310.6 1214.4 310.8 1213.7 310.8 C 1212.9 310.8 1212.3 310.6 1211.9 310.0 C 1211.4 309.5 1211.2 308.8 1211.2 307.9 C 1211.2 307.0 1211.4 306.3 1211.9 305.8 C 1212.3 305.3 1212.9 305.1 1213.7 305.1 Z M 1213.7 305.1 " fill="#000000"></path><path d="M 439.5 41.5 L 439.5 38.5 " fill="none" stroke="#000000" stroke-width="1.00" stroke-linecap="square" transform="matrix(1.54, 0.00, 0.00, 1.54, 561.0, 261.0)"></path><path d="M 454.5 41.5 L 454.5 35.5 " fill="none" stroke="#000000" stroke-width="1.00" stroke-linecap="square" transform="matrix(1.54, 0.00, 0.00, 1.54, 561.0, 261.0)"></path><path d="M 1249.2 299.8 L 1249.2 301.3 C 1249.6 301.2 1250.0 301.0 1250.4 300.9 C 1250.9 300.8 1251.3 300.7 1251.7 300.7 C 1252.8 300.7 1253.7 301.1 1254.2 301.8 C 1254.8 302.6 1255.2 303.7 1255.2 305.2 C 1254.9 304.8 1254.5 304.4 1254.0 304.1 C 1253.5 303.9 1253.0 303.8 1252.4 303.8 C 1251.2 303.8 1250.2 304.1 1249.5 304.9 C 1248.7 305.6 1248.4 306.6 1248.4 307.9 C 1248.4 309.2 1248.7 310.2 1249.5 311.0 C 1250.3 311.8 1251.3 312.2 1252.5 312.2 C 1253.9 312.2 1255.0 311.6 1255.8 310.5 C 1256.5 309.4 1256.9 307.8 1256.9 305.7 C 1256.9 303.8 1256.4 302.2 1255.5 301.1 C 1254.6 299.9 1253.3 299.3 1251.8 299.3 C 1251.4 299.3 1251.0 299.4 1250.5 299.4 C 1250.1 299.5 1249.6 299.6 1249.2 299.8 Z M 1252.5 305.1 C 1253.3 305.1 1253.8 305.3 1254.3 305.8 C 1254.7 306.3 1254.9 307.0 1254.9 307.9 C 1254.9 308.8 1254.7 309.5 1254.3 310.0 C 1253.8 310.6 1253.3 310.8 1252.5 310.8 C 1251.8 310.8 1251.2 310.6 1250.7 310.0 C 1250.3 309.5 1250.1 308.8 1250.1 307.9 C 1250.1 307.0 1250.3 306.3 1250.7 305.8 C 1251.2 305.3 1251.8 305.1 1252.5 305.1 Z M 1259.9 301.7 L 1261.7 301.7 L 1261.7 299.6 L 1259.9 299.6 Z M 1265.3 311.9 L 1271.9 311.9 L 1271.9 310.5 L 1266.9 310.5 L 1266.9 307.5 C 1267.1 307.6 1267.4 307.6 1267.6 307.7 C 1267.8 307.7 1268.1 307.7 1268.3 307.7 C 1269.7 307.7 1270.8 307.4 1271.6 306.6 C 1272.4 305.8 1272.8 304.8 1272.8 303.5 C 1272.8 302.2 1272.4 301.2 1271.6 300.4 C 1270.7 299.7 1269.6 299.3 1268.1 299.3 C 1267.5 299.3 1267.0 299.4 1266.5 299.5 C 1265.9 299.5 1265.4 299.7 1264.8 299.9 L 1264.8 301.5 C 1265.3 301.3 1265.8 301.1 1266.4 300.9 C 1266.9 300.8 1267.4 300.7 1268.0 300.7 C 1269.0 300.7 1269.8 301.0 1270.3 301.5 C 1270.9 302.0 1271.1 302.7 1271.1 303.5 C 1271.1 304.4 1270.9 305.1 1270.3 305.6 C 1269.8 306.1 1269.0 306.3 1268.0 306.3 C 1267.6 306.3 1267.1 306.3 1266.7 306.2 C 1266.3 306.1 1265.8 305.9 1265.3 305.7 Z M 1265.3 311.9 " fill="#000000"></path><path d="M 470.5 41.5 L 470.5 38.5 " fill="none" stroke="#000000" stroke-width="1.00" stroke-linecap="square" transform="matrix(1.54, 0.00, 0.00, 1.54, 561.0, 261.0)"></path><path d="M 485.5 41.5 L 485.5 35.5 " fill="none" stroke="#000000" stroke-width="1.00" stroke-linecap="square" transform="matrix(1.54, 0.00, 0.00, 1.54, 561.0, 261.0)"></path><path d="M 1302.1 301.0 L 1304.9 301.0 L 1304.9 310.4 L 1301.9 309.8 L 1301.9 311.3 L 1304.9 311.9 L 1306.5 311.9 L 1306.5 301.0 L 1309.3 301.0 L 1309.3 299.6 L 1302.1 299.6 Z M 1316.2 310.8 C 1315.4 310.8 1314.7 310.4 1314.3 309.6 C 1313.8 308.7 1313.6 307.4 1313.6 305.7 C 1313.6 304.0 1313.8 302.8 1314.3 301.9 C 1314.7 301.1 1315.4 300.6 1316.2 300.6 C 1317.1 300.6 1317.7 301.1 1318.2 301.9 C 1318.6 302.8 1318.8 304.0 1318.8 305.7 C 1318.8 307.4 1318.6 308.7 1318.2 309.6 C 1317.7 310.4 1317.1 310.8 1316.2 310.8 Z M 1316.2 312.2 C 1317.6 312.2 1318.7 311.6 1319.4 310.5 C 1320.1 309.4 1320.5 307.8 1320.5 305.7 C 1320.5 303.7 1320.1 302.1 1319.4 301.0 C 1318.7 299.9 1317.6 299.3 1316.2 299.3 C 1314.8 299.3 1313.8 299.9 1313.0 301.0 C 1312.3 302.1 1311.9 303.7 1311.9 305.7 C 1311.9 307.8 1312.3 309.4 1313.0 310.5 C 1313.8 311.6 1314.8 312.2 1316.2 312.2 Z M 1316.2 312.2 " fill="#000000"></path><path d="M 500.5 41.5 L 500.5 38.5 " fill="none" stroke="#000000" stroke-width="1.00" stroke-linecap="square" transform="matrix(1.54, 0.00, 0.00, 1.54, 561.0, 261.0)"></path></g></g><path d="M 10.5 0.5 L 12.6 0.5 L 82.9 0.5 L 84.5 0.5 " fill="none" stroke="#000000" stroke-width="4.00" transform="matrix(1.00, 0.00, 0.00, -1.00, 949.5, 811.5)"></path><path d="M 1027.8 802.6 L 1044.6 811.0 L 1027.8 819.4 L 1032.0 811.0 Z M 1027.8 802.6 " fill="#000000"></path><path d="M 966.2 819.4 L 949.4 811.0 L 966.2 802.6 L 962.0 811.0 Z M 966.2 819.4 " fill="#000000"></path><path d="M 10.5 0.5 L 12.6 0.5 L 82.9 0.5 L 84.5 0.5 " fill="none" stroke="#000000" stroke-width="4.00" transform="matrix(1.00, 0.00, 0.00, -1.00, 853.5, 811.5)"></path><path d="M 931.8 802.6 L 948.6 811.0 L 931.8 819.4 L 936.0 811.0 Z M 931.8 802.6 " fill="#000000"></path><path d="M 870.2 819.4 L 853.4 811.0 L 870.2 802.6 L 866.0 811.0 Z M 870.2 819.4 " fill="#000000"></path><path d="M 0.1 -0.5 L 562.1 -0.5 " fill="none" stroke="#FF2600" stroke-width="4.00" transform="matrix(0.00, -1.00, -1.00, 0.00, 850.5, 822.1)"></path><path d="M 0.1 0.0 L 562.1 0.0 " fill="none" stroke="#FF2600" stroke-width="4.00" transform="matrix(0.00, -1.00, -1.00, 0.00, 1047.0, 822.1)"></path><path d="M 0.1 -0.5 L 562.1 -0.5 " fill="none" stroke="#FF2600" stroke-width="4.00" transform="matrix(0.00, -1.00, -1.00, 0.00, 949.5, 822.1)"></path><text xml:space="preserve" font-family="HelveticaNeue-CondensedBold,Helvetica Neue" font-weight="bold" font-size="74.0" fill="#000000" transform="matrix(1.00, 0.00, -0.00, -1.00, 220.1, 192.6)">S</text><text xml:space="preserve" font-family="HelveticaNeue-CondensedBold,Helvetica Neue" font-weight="bold" font-size="74.0" fill="#000000" transform="matrix(1.00, 0.00, -0.00, -1.00, 258.5, 192.6)">u</text><text xml:space="preserve" font-family="HelveticaNeue-CondensedBold,Helvetica Neue" font-weight="bold" font-size="74.0" fill="#000000" transform="matrix(1.00, 0.00, -0.00, -1.00, 295.5, 192.6)">r</text><text xml:space="preserve" font-family="HelveticaNeue-CondensedBold,Helvetica Neue" font-weight="bold" font-size="74.0" fill="#000000" transform="matrix(1.00, 0.00, -0.00, -1.00, 320.1, 192.6)">f</text><text xml:space="preserve" font-family="HelveticaNeue-CondensedBold,Helvetica Neue" font-weight="bold" font-size="74.0" fill="#000000" transform="matrix(1.00, 0.00, -0.00, -1.00, 342.0, 192.6)">a</text><text xml:space="preserve" font-family="HelveticaNeue-CondensedBold,Helvetica Neue" font-weight="bold" font-size="74.0" fill="#000000" transform="matrix(1.00, 0.00, -0.00, -1.00, 377.6, 192.6)">c</text><text xml:space="preserve" font-family="HelveticaNeue-CondensedBold,Helvetica Neue" font-weight="bold" font-size="74.0" fill="#000000" transform="matrix(1.00, 0.00, -0.00, -1.00, 411.9, 192.6)">e</text><text xml:space="preserve" font-family="HelveticaNeue-CondensedBold,Helvetica Neue" font-weight="bold" font-size="74.0" fill="#000000" transform="matrix(1.00, 0.00, -0.00, -1.00, 446.2, 192.6)"> </text><text xml:space="preserve" font-family="HelveticaNeue-CondensedBold,Helvetica Neue" font-weight="bold" font-size="74.0" fill="#000000" transform="matrix(1.00, 0.00, -0.00, -1.00, 463.9, 192.6)">a</text><text xml:space="preserve" font-family="HelveticaNeue-CondensedBold,Helvetica Neue" font-weight="bold" font-size="74.0" fill="#000000" transform="matrix(1.00, 0.00, -0.00, -1.00, 499.5, 192.6)">r</text><text xml:space="preserve" font-family="HelveticaNeue-CondensedBold,Helvetica Neue" font-weight="bold" font-size="74.0" fill="#000000" transform="matrix(1.00, 0.00, -0.00, -1.00, 524.2, 192.6)">e</text><text xml:space="preserve" font-family="HelveticaNeue-CondensedBold,Helvetica Neue" font-weight="bold" font-size="74.0" fill="#000000" transform="matrix(1.00, 0.00, -0.00, -1.00, 558.4, 192.6)">a</text><text xml:space="preserve" font-family="HelveticaNeue-CondensedBold,Helvetica Neue" font-weight="bold" font-size="74.0" fill="#000000" transform="matrix(1.00, 0.00, -0.00, -1.00, 594.0, 192.6)"> </text><text xml:space="preserve" font-family="HelveticaNeue-CondensedBold,Helvetica Neue" font-weight="bold" font-size="74.0" fill="#000000" transform="matrix(1.00, 0.00, -0.00, -1.00, 611.8, 192.6)">o</text><text xml:space="preserve" font-family="HelveticaNeue-CondensedBold,Helvetica Neue" font-weight="bold" font-size="74.0" fill="#000000" transform="matrix(1.00, 0.00, -0.00, -1.00, 647.3, 192.6)">f</text><text xml:space="preserve" font-family="HelveticaNeue-CondensedBold,Helvetica Neue" font-weight="bold" font-size="74.0" fill="#000000" transform="matrix(1.00, 0.00, -0.00, -1.00, 669.2, 192.6)"> </text><text xml:space="preserve" font-family="HelveticaNeue-CondensedBold,Helvetica Neue" font-weight="bold" font-size="74.0" fill="#000000" transform="matrix(1.00, 0.00, -0.00, -1.00, 687.0, 192.6)">t</text><text xml:space="preserve" font-family="HelveticaNeue-CondensedBold,Helvetica Neue" font-weight="bold" font-size="74.0" fill="#000000" transform="matrix(1.00, 0.00, -0.00, -1.00, 708.9, 192.6)">h</text><text xml:space="preserve" font-family="HelveticaNeue-CondensedBold,Helvetica Neue" font-weight="bold" font-size="74.0" fill="#000000" transform="matrix(1.00, 0.00, -0.00, -1.00, 745.9, 192.6)">e</text><text xml:space="preserve" font-family="HelveticaNeue-CondensedBold,Helvetica Neue" font-weight="bold" font-size="74.0" fill="#000000" transform="matrix(1.00, 0.00, -0.00, -1.00, 780.1, 192.6)"> </text><text xml:space="preserve" font-family="HelveticaNeue-CondensedBold,Helvetica Neue" font-weight="bold" font-size="74.0" fill="#000000" transform="matrix(1.00, 0.00, -0.00, -1.00, 797.9, 192.6)">h</text><text xml:space="preserve" font-family="HelveticaNeue-CondensedBold,Helvetica Neue" font-weight="bold" font-size="74.0" fill="#000000" transform="matrix(1.00, 0.00, -0.00, -1.00, 834.9, 192.6)">u</text><text xml:space="preserve" font-family="HelveticaNeue-CondensedBold,Helvetica Neue" font-weight="bold" font-size="74.0" fill="#000000" transform="matrix(1.00, 0.00, -0.00, -1.00, 871.9, 192.6)">m</text><text xml:space="preserve" font-family="HelveticaNeue-CondensedBold,Helvetica Neue" font-weight="bold" font-size="74.0" fill="#000000" transform="matrix(1.00, 0.00, -0.00, -1.00, 928.0, 192.6)">a</text><text xml:space="preserve" font-family="HelveticaNeue-CondensedBold,Helvetica Neue" font-weight="bold" font-size="74.0" fill="#000000" transform="matrix(1.00, 0.00, -0.00, -1.00, 963.6, 192.6)">n</text><text xml:space="preserve" font-family="HelveticaNeue-CondensedBold,Helvetica Neue" font-weight="bold" font-size="74.0" fill="#000000" transform="matrix(1.00, 0.00, -0.00, -1.00, 1000.6, 192.6)"> </text><text xml:space="preserve" font-family="HelveticaNeue-CondensedBold,Helvetica Neue" font-weight="bold" font-size="74.0" fill="#000000" transform="matrix(1.00, 0.00, -0.00, -1.00, 1018.3, 192.6)">c</text><text xml:space="preserve" font-family="HelveticaNeue-CondensedBold,Helvetica Neue" font-weight="bold" font-size="74.0" fill="#000000" transform="matrix(1.00, 0.00, -0.00, -1.00, 1052.6, 192.6)">o</text><text xml:space="preserve" font-family="HelveticaNeue-CondensedBold,Helvetica Neue" font-weight="bold" font-size="74.0" fill="#000000" transform="matrix(1.00, 0.00, -0.00, -1.00, 1088.1, 192.6)">r</text><text xml:space="preserve" font-family="HelveticaNeue-CondensedBold,Helvetica Neue" font-weight="bold" font-size="74.0" fill="#000000" transform="matrix(1.00, 0.00, -0.00, -1.00, 1112.8, 192.6)">p</text><text xml:space="preserve" font-family="HelveticaNeue-CondensedBold,Helvetica Neue" font-weight="bold" font-size="74.0" fill="#000000" transform="matrix(1.00, 0.00, -0.00, -1.00, 1149.8, 192.6)">u</text><text xml:space="preserve" font-family="HelveticaNeue-CondensedBold,Helvetica Neue" font-weight="bold" font-size="74.0" fill="#000000" transform="matrix(1.00, 0.00, -0.00, -1.00, 1186.8, 192.6)">s</text><text xml:space="preserve" font-family="HelveticaNeue-CondensedBold,Helvetica Neue" font-weight="bold" font-size="74.0" fill="#000000" transform="matrix(1.00, 0.00, -0.00, -1.00, 1219.6, 192.6)"> </text><text xml:space="preserve" font-family="HelveticaNeue-CondensedBold,Helvetica Neue" font-weight="bold" font-size="74.0" fill="#000000" transform="matrix(1.00, 0.00, -0.00, -1.00, 1237.4, 192.6)">c</text><text xml:space="preserve" font-family="HelveticaNeue-CondensedBold,Helvetica Neue" font-weight="bold" font-size="74.0" fill="#000000" transform="matrix(1.00, 0.00, -0.00, -1.00, 1271.6, 192.6)">a</text><text xml:space="preserve" font-family="HelveticaNeue-CondensedBold,Helvetica Neue" font-weight="bold" font-size="74.0" fill="#000000" transform="matrix(1.00, 0.00, -0.00, -1.00, 1307.2, 192.6)">l</text><text xml:space="preserve" font-family="HelveticaNeue-CondensedBold,Helvetica Neue" font-weight="bold" font-size="74.0" fill="#000000" transform="matrix(1.00, 0.00, -0.00, -1.00, 1325.0, 192.6)">l</text><text xml:space="preserve" font-family="HelveticaNeue-CondensedBold,Helvetica Neue" font-weight="bold" font-size="74.0" fill="#000000" transform="matrix(1.00, 0.00, -0.00, -1.00, 1342.8, 192.6)">o</text><text xml:space="preserve" font-family="HelveticaNeue-CondensedBold,Helvetica Neue" font-weight="bold" font-size="74.0" fill="#000000" transform="matrix(1.00, 0.00, -0.00, -1.00, 1378.3, 192.6)">s</text><text xml:space="preserve" font-family="HelveticaNeue-CondensedBold,Helvetica Neue" font-weight="bold" font-size="74.0" fill="#000000" transform="matrix(1.00, 0.00, -0.00, -1.00, 1411.1, 192.6)">u</text><text xml:space="preserve" font-family="HelveticaNeue-CondensedBold,Helvetica Neue" font-weight="bold" font-size="74.0" fill="#000000" transform="matrix(1.00, 0.00, -0.00, -1.00, 1448.1, 192.6)">m</text><text xml:space="preserve" font-family="HelveticaNeue-CondensedBold,Helvetica Neue" font-weight="bold" font-size="74.0" fill="#000000" transform="matrix(1.00, 0.00, -0.00, -1.00, 1504.2, 192.6)"> </text><text xml:space="preserve" font-family="HelveticaNeue-CondensedBold,Helvetica Neue" font-weight="bold" font-size="74.0" fill="#000000" transform="matrix(1.00, 0.00, -0.00, -1.00, 1522.0, 192.6)">(</text><text xml:space="preserve" font-family="HelveticaNeue-CondensedBold,Helvetica Neue" font-weight="bold" font-size="74.0" fill="#000000" transform="matrix(1.00, 0.00, -0.00, -1.00, 1543.9, 192.6)">c</text><text xml:space="preserve" font-family="HelveticaNeue-CondensedBold,Helvetica Neue" font-weight="bold" font-size="74.0" fill="#000000" transform="matrix(1.00, 0.00, -0.00, -1.00, 1578.1, 192.6)">m</text><text xml:space="preserve" font-family="HelveticaNeue-CondensedBold,Helvetica Neue" font-weight="bold" font-size="49.3" fill="#000000" transform="matrix(1.00, 0.00, -0.00, -1.00, 1634.2, 216.3)">2</text><text xml:space="preserve" font-family="HelveticaNeue-CondensedBold,Helvetica Neue" font-weight="bold" font-size="74.0" fill="#000000" transform="matrix(1.00, 0.00, -0.00, -1.00, 1657.9, 192.6)">)</text><text xml:space="preserve" font-family="Helvetica,Helvetica" font-size="60.0" fill="#000000" transform="matrix(1.00, 0.00, -0.00, -1.00, 845.1, 844.0)"></text><text xml:space="preserve" font-family="Helvetica,Helvetica" font-size="60.0" fill="#000000" transform="matrix(1.00, 0.00, -0.00, -1.00, 881.7, 844.0)">~</text><text xml:space="preserve" font-family="Helvetica,Helvetica" font-size="60.0" fill="#000000" transform="matrix(1.00, 0.00, -0.00, -1.00, 916.8, 844.0)">1</text><text xml:space="preserve" font-family="Helvetica,Helvetica" font-size="60.0" fill="#000000" transform="matrix(1.00, 0.00, -0.00, -1.00, 950.2, 844.0)">c</text><text xml:space="preserve" font-family="Helvetica,Helvetica" font-size="60.0" fill="#000000" transform="matrix(1.00, 0.00, -0.00, -1.00, 980.2, 844.0)">m</text><text xml:space="preserve" font-family="Helvetica,Helvetica" font-size="40.0" fill="#000000" transform="matrix(1.00, 0.00, -0.00, -1.00, 1030.1, 859.4)">2</text></g></svg>