<?xml version="1.0" encoding="UTF-8" standalone="no"?><svg xmlns="http://www.w3.org/2000/svg" xmlns:xlink="http://www.w3.org/1999/xlink" clip-rule="evenodd" stroke-miterlimit="4.00" viewBox="0 0 1920 1080"><desc>SVG generated by Keynote</desc><defs></defs><g transform="matrix(1.00, 0.00, -0.00, -1.00, 0.0, 1080.0)"><path d="M 0.0 1080.0 L 1920.0 1080.0 L 1920.0 0.0 L 0.0 0.0 Z M 0.0 1080.0 " fill="#FEFFFF"></path><g><clipPath id="clip-26704"><path d="M 289.0 912.0 L 1615.0 912.0 L 1615.0 656.0 L 289.0 656.0 Z M 289.0 912.4 "></path></clipPath><g clip-path="url(#clip-26704)"><image xlink:href="20EF41CFCED109033A4381D7767CD47D.png" width="961.00" height="342.00" transform="matrix(1.38, 0.00, -0.00, -1.38, 289.0, 1128.0)"></image></g></g><g><clipPath id="clip-26705"><path d="M 291.0 649.0 L 962.0 649.0 L 962.0 2.0 L 291.0 2.0 Z M 291.4 648.7 "></path></clipPath><g clip-path="url(#clip-26705)"><image xlink:href="1E43253F8E622772C7944DAD1DEB24C5.png" width="485.00" height="540.00" transform="matrix(1.38, 0.00, -0.00, -1.38, 291.0, 649.0)"></image></g></g><image xlink:href="605773DB659CAECD82197F56984546FB.png" width="716.00" height="365.00" transform="matrix(1.00, 0.00, -0.00, -1.00, 967.0, 658.0)"></image><g><clipPath id="clip-26706"><path d="M 979.0 299.0 L 1696.0 299.0 L 1696.0 8.0 L 979.0 8.0 Z M 978.9 298.9 "></path></clipPath><g clip-path="url(#clip-26706)"><image xlink:href="EB1513C4247FFE38ABFC8E43079D93E0.png" width="631.00" height="539.00" transform="matrix(1.14, 0.00, -0.00, -1.14, 979.0, 299.0)"></image></g></g><g><clipPath id="clip-26707"><path d="M 289.0 1070.0 L 1615.0 1070.0 L 1615.0 924.0 L 289.0 924.0 Z M 289.0 1069.8 "></path></clipPath><g clip-path="url(#clip-26707)"><image xlink:href="../../97D87A75-4613-44F4-A5AE-D61D2851AF5E/assets/20EF41CFCED109033A4381D7767CD47D.png" width="961.00" height="342.00" transform="matrix(1.38, 0.00, -0.00, -1.38, 289.0, 1070.0)"></image></g></g></g></svg>