<?xml version="1.0" encoding="UTF-8" standalone="no"?><svg xmlns="http://www.w3.org/2000/svg" xmlns:xlink="http://www.w3.org/1999/xlink" clip-rule="evenodd" stroke-miterlimit="4.00" viewBox="0 0 1920 1080"><desc>SVG generated by Keynote</desc><defs></defs><g transform="matrix(1.00, 0.00, -0.00, -1.00, 0.0, 1080.0)"><path d="M 0.0 1080.0 L 1920.0 1080.0 L 1920.0 0.0 L 0.0 0.0 Z M 0.0 1080.0 " fill="#000000"></path><g><clipPath id="clip-26563"><path d="M 157.0 1011.0 L 965.0 1011.0 L 965.0 69.0 L 157.0 69.0 Z M 156.7 1010.6 "></path></clipPath><g clip-path="url(#clip-26563)"><image xlink:href="FAD6B45C164F831E779AA6B7141972DC.png" width="563.00" height="540.00" transform="matrix(1.87, 0.00, -0.00, -1.87, 35.0, 1011.0)"></image></g></g><text xml:space="preserve" font-family="HelveticaNeue-CondensedBold" font-weight="bold" font-size="55.0" fill="#FFFFFF" transform="matrix(1.00, 0.00, -0.00, -1.00, 1275.6, 498.4)">F</text><text xml:space="preserve" font-family="HelveticaNeue-CondensedBold" font-weight="bold" font-size="55.0" fill="#FFFFFF" transform="matrix(1.00, 0.00, -0.00, -1.00, 1299.9, 498.4)">o</text><text xml:space="preserve" font-family="HelveticaNeue-CondensedBold" font-weight="bold" font-size="55.0" fill="#FFFFFF" transform="matrix(1.00, 0.00, -0.00, -1.00, 1326.3, 498.4)">l</text><text xml:space="preserve" font-family="HelveticaNeue-CondensedBold" font-weight="bold" font-size="55.0" fill="#FFFFFF" transform="matrix(1.00, 0.00, -0.00, -1.00, 1339.5, 498.4)">d</text><text xml:space="preserve" font-family="HelveticaNeue-CondensedBold" font-weight="bold" font-size="55.0" fill="#FFFFFF" transform="matrix(1.00, 0.00, -0.00, -1.00, 1367.0, 498.4)">i</text><text xml:space="preserve" font-family="HelveticaNeue-CondensedBold" font-weight="bold" font-size="55.0" fill="#FFFFFF" transform="matrix(1.00, 0.00, -0.00, -1.00, 1380.2, 498.4)">n</text><text xml:space="preserve" font-family="HelveticaNeue-CondensedBold" font-weight="bold" font-size="55.0" fill="#FFFFFF" transform="matrix(1.00, 0.00, -0.00, -1.00, 1407.7, 498.4)">g</text><text xml:space="preserve" font-family="HelveticaNeue-CondensedBold" font-weight="bold" font-size="55.0" fill="#FFFFFF" transform="matrix(1.00, 0.00, -0.00, -1.00, 1435.2, 498.4)"> </text><text xml:space="preserve" font-family="HelveticaNeue-CondensedBold" font-weight="bold" font-size="55.0" fill="#FFFFFF" transform="matrix(1.00, 0.00, -0.00, -1.00, 1448.4, 498.4)">&amp;</text><text xml:space="preserve" font-family="HelveticaNeue-CondensedBold" font-weight="bold" font-size="55.0" fill="#FFFFFF" transform="matrix(1.00, 0.00, -0.00, -1.00, 1481.1, 498.4)"> </text><text xml:space="preserve" font-family="HelveticaNeue-CondensedBold" font-weight="bold" font-size="55.0" fill="#FFFFFF" transform="matrix(1.00, 0.00, -0.00, -1.00, 1494.3, 498.4)">t</text><text xml:space="preserve" font-family="HelveticaNeue-CondensedBold" font-weight="bold" font-size="55.0" fill="#FFFFFF" transform="matrix(1.00, 0.00, -0.00, -1.00, 1510.5, 498.4)">h</text><text xml:space="preserve" font-family="HelveticaNeue-CondensedBold" font-weight="bold" font-size="55.0" fill="#FFFFFF" transform="matrix(1.00, 0.00, -0.00, -1.00, 1538.0, 498.4)">e</text><text xml:space="preserve" font-family="HelveticaNeue-CondensedBold" font-weight="bold" font-size="55.0" fill="#FFFFFF" transform="matrix(1.00, 0.00, -0.00, -1.00, 1563.5, 498.4)"> </text><text xml:space="preserve" font-family="HelveticaNeue-CondensedBold" font-weight="bold" font-size="55.0" fill="#FFFFFF" transform="matrix(1.00, 0.00, -0.00, -1.00, 1576.7, 498.4)">f</text><text xml:space="preserve" font-family="HelveticaNeue-CondensedBold" font-weight="bold" font-size="55.0" fill="#FFFFFF" transform="matrix(1.00, 0.00, -0.00, -1.00, 1593.0, 498.4)">e</text><text xml:space="preserve" font-family="HelveticaNeue-CondensedBold" font-weight="bold" font-size="55.0" fill="#FFFFFF" transform="matrix(1.00, 0.00, -0.00, -1.00, 1618.4, 498.4)">r</text><text xml:space="preserve" font-family="HelveticaNeue-CondensedBold" font-weight="bold" font-size="55.0" fill="#FFFFFF" transform="matrix(1.00, 0.00, -0.00, -1.00, 1636.8, 498.4)">r</text><text xml:space="preserve" font-family="HelveticaNeue-CondensedBold" font-weight="bold" font-size="55.0" fill="#FFFFFF" transform="matrix(1.00, 0.00, -0.00, -1.00, 1655.1, 498.4)">e</text><text xml:space="preserve" font-family="HelveticaNeue-CondensedBold" font-weight="bold" font-size="55.0" fill="#FFFFFF" transform="matrix(1.00, 0.00, -0.00, -1.00, 1680.5, 498.4)">t</text><text xml:space="preserve" font-family="HelveticaNeue-CondensedBold" font-weight="bold" font-size="55.0" fill="#FFFFFF" transform="matrix(1.00, 0.00, -0.00, -1.00, 1696.8, 498.4)"> </text><text xml:space="preserve" font-family="HelveticaNeue-CondensedBold" font-weight="bold" font-size="55.0" fill="#FFFFFF" transform="matrix(1.00, 0.00, -0.00, -1.00, 1710.0, 498.4)">b</text><text xml:space="preserve" font-family="HelveticaNeue-CondensedBold" font-weight="bold" font-size="55.0" fill="#FFFFFF" transform="matrix(1.00, 0.00, -0.00, -1.00, 1737.5, 498.4)">r</text><text xml:space="preserve" font-family="HelveticaNeue-CondensedBold" font-weight="bold" font-size="55.0" fill="#FFFFFF" transform="matrix(1.00, 0.00, -0.00, -1.00, 1755.8, 498.4)">a</text><text xml:space="preserve" font-family="HelveticaNeue-CondensedBold" font-weight="bold" font-size="55.0" fill="#FFFFFF" transform="matrix(1.00, 0.00, -0.00, -1.00, 1782.3, 498.4)">i</text><text xml:space="preserve" font-family="HelveticaNeue-CondensedBold" font-weight="bold" font-size="55.0" fill="#FFFFFF" transform="matrix(1.00, 0.00, -0.00, -1.00, 1795.5, 498.4)">n</text><text xml:space="preserve" font-family="HelveticaNeue-Light" font-size="32.0" fill="#FFFFFF" transform="matrix(1.00, 0.00, -0.00, -1.00, 1049.9, 453.0)">R</text><text xml:space="preserve" font-family="HelveticaNeue-Light" font-size="32.0" fill="#FFFFFF" transform="matrix(1.00, 0.00, -0.00, -1.00, 1071.2, 453.0)">o</text><text xml:space="preserve" font-family="HelveticaNeue-Light" font-size="32.0" fill="#FFFFFF" transform="matrix(1.00, 0.00, -0.00, -1.00, 1089.0, 453.0)">b</text><text xml:space="preserve" font-family="HelveticaNeue-Light" font-size="32.0" fill="#FFFFFF" transform="matrix(1.00, 0.00, -0.00, -1.00, 1107.4, 453.0)">e</text><text xml:space="preserve" font-family="HelveticaNeue-Light" font-size="32.0" fill="#FFFFFF" transform="matrix(1.00, 0.00, -0.00, -1.00, 1124.0, 453.0)">r</text><text xml:space="preserve" font-family="HelveticaNeue-Light" font-size="32.0" fill="#FFFFFF" transform="matrix(1.00, 0.00, -0.00, -1.00, 1134.1, 453.0)">t</text><text xml:space="preserve" font-family="HelveticaNeue-Light" font-size="32.0" fill="#FFFFFF" transform="matrix(1.00, 0.00, -0.00, -1.00, 1143.5, 453.0)">o</text><text xml:space="preserve" font-family="HelveticaNeue-Light" font-size="32.0" fill="#FFFFFF" transform="matrix(1.00, 0.00, -0.00, -1.00, 1161.3, 453.0)"> </text><text xml:space="preserve" font-family="HelveticaNeue-Light" font-size="32.0" fill="#FFFFFF" transform="matrix(1.00, 0.00, -0.00, -1.00, 1170.2, 453.0)">T</text><text xml:space="preserve" font-family="HelveticaNeue-Light" font-size="32.0" fill="#FFFFFF" transform="matrix(1.00, 0.00, -0.00, -1.00, 1184.5, 453.0)">o</text><text xml:space="preserve" font-family="HelveticaNeue-Light" font-size="32.0" fill="#FFFFFF" transform="matrix(1.00, 0.00, -0.00, -1.00, 1202.3, 453.0)">r</text><text xml:space="preserve" font-family="HelveticaNeue-Light" font-size="32.0" fill="#FFFFFF" transform="matrix(1.00, 0.00, -0.00, -1.00, 1211.8, 453.0)">o</text><text xml:space="preserve" font-family="HelveticaNeue-Light" font-size="32.0" fill="#FFFFFF" transform="matrix(1.00, 0.00, -0.00, -1.00, 1229.5, 453.0)"> </text><text xml:space="preserve" font-family="HelveticaNeue-Light" font-size="32.0" fill="#FFFFFF" transform="matrix(1.00, 0.00, -0.00, -1.00, 1238.4, 453.0)">•</text><text xml:space="preserve" font-family="HelveticaNeue-Light" font-size="32.0" fill="#FFFFFF" transform="matrix(1.00, 0.00, -0.00, -1.00, 1254.4, 453.0)"> </text><text xml:space="preserve" font-family="HelveticaNeue-Light" font-size="32.0" fill="#FFFFFF" transform="matrix(1.00, 0.00, -0.00, -1.00, 1263.3, 453.0)">I</text><text xml:space="preserve" font-family="HelveticaNeue-Light" font-size="32.0" fill="#FFFFFF" transform="matrix(1.00, 0.00, -0.00, -1.00, 1270.4, 453.0)">n</text><text xml:space="preserve" font-family="HelveticaNeue-Light" font-size="32.0" fill="#FFFFFF" transform="matrix(1.00, 0.00, -0.00, -1.00, 1287.6, 453.0)">s</text><text xml:space="preserve" font-family="HelveticaNeue-Light" font-size="32.0" fill="#FFFFFF" transform="matrix(1.00, 0.00, -0.00, -1.00, 1303.0, 453.0)">t</text><text xml:space="preserve" font-family="HelveticaNeue-Light" font-size="32.0" fill="#FFFFFF" transform="matrix(1.00, 0.00, -0.00, -1.00, 1312.5, 453.0)">i</text><text xml:space="preserve" font-family="HelveticaNeue-Light" font-size="32.0" fill="#FFFFFF" transform="matrix(1.00, 0.00, -0.00, -1.00, 1318.4, 453.0)">t</text><text xml:space="preserve" font-family="HelveticaNeue-Light" font-size="32.0" fill="#FFFFFF" transform="matrix(1.00, 0.00, -0.00, -1.00, 1327.9, 453.0)">u</text><text xml:space="preserve" font-family="HelveticaNeue-Light" font-size="32.0" fill="#FFFFFF" transform="matrix(1.00, 0.00, -0.00, -1.00, 1345.1, 453.0)">t</text><text xml:space="preserve" font-family="HelveticaNeue-Light" font-size="32.0" fill="#FFFFFF" transform="matrix(1.00, 0.00, -0.00, -1.00, 1354.5, 453.0)"> </text><text xml:space="preserve" font-family="HelveticaNeue-Light" font-size="32.0" fill="#FFFFFF" transform="matrix(1.00, 0.00, -0.00, -1.00, 1363.4, 453.0)">P</text><text xml:space="preserve" font-family="HelveticaNeue-Light" font-size="32.0" fill="#FFFFFF" transform="matrix(1.00, 0.00, -0.00, -1.00, 1383.6, 453.0)">a</text><text xml:space="preserve" font-family="HelveticaNeue-Light" font-size="32.0" fill="#FFFFFF" transform="matrix(1.00, 0.00, -0.00, -1.00, 1400.2, 453.0)">s</text><text xml:space="preserve" font-family="HelveticaNeue-Light" font-size="32.0" fill="#FFFFFF" transform="matrix(1.00, 0.00, -0.00, -1.00, 1415.6, 453.0)">t</text><text xml:space="preserve" font-family="HelveticaNeue-Light" font-size="32.0" fill="#FFFFFF" transform="matrix(1.00, 0.00, -0.00, -1.00, 1425.1, 453.0)">e</text><text xml:space="preserve" font-family="HelveticaNeue-Light" font-size="32.0" fill="#FFFFFF" transform="matrix(1.00, 0.00, -0.00, -1.00, 1441.7, 453.0)">u</text><text xml:space="preserve" font-family="HelveticaNeue-Light" font-size="32.0" fill="#FFFFFF" transform="matrix(1.00, 0.00, -0.00, -1.00, 1458.9, 453.0)">r</text><text xml:space="preserve" font-family="HelveticaNeue-Light" font-size="32.0" fill="#FFFFFF" transform="matrix(1.00, 0.00, -0.00, -1.00, 1468.9, 453.0)"> </text><text xml:space="preserve" font-family="HelveticaNeue-Light" font-size="32.0" fill="#FFFFFF" transform="matrix(1.00, 0.00, -0.00, -1.00, 1477.8, 453.0)">•</text><text xml:space="preserve" font-family="HelveticaNeue-Light" font-size="32.0" fill="#FFFFFF" transform="matrix(1.00, 0.00, -0.00, -1.00, 1493.8, 453.0)"> </text><text xml:space="preserve" font-family="HelveticaNeue-Light" font-size="32.0" fill="#FFFFFF" transform="matrix(1.00, 0.00, -0.00, -1.00, 1502.7, 453.0)">r</text><text xml:space="preserve" font-family="HelveticaNeue-Light" font-size="32.0" fill="#FFFFFF" transform="matrix(1.00, 0.00, -0.00, -1.00, 1512.8, 453.0)">t</text><text xml:space="preserve" font-family="HelveticaNeue-Light" font-size="32.0" fill="#FFFFFF" transform="matrix(1.00, 0.00, -0.00, -1.00, 1522.3, 453.0)">o</text><text xml:space="preserve" font-family="HelveticaNeue-Light" font-size="32.0" fill="#FFFFFF" transform="matrix(1.00, 0.00, -0.00, -1.00, 1540.1, 453.0)">@</text><text xml:space="preserve" font-family="HelveticaNeue-Light" font-size="32.0" fill="#FFFFFF" transform="matrix(1.00, 0.00, -0.00, -1.00, 1565.7, 453.0)">b</text><text xml:space="preserve" font-family="HelveticaNeue-Light" font-size="32.0" fill="#FFFFFF" transform="matrix(1.00, 0.00, -0.00, -1.00, 1584.0, 453.0)">r</text><text xml:space="preserve" font-family="HelveticaNeue-Light" font-size="32.0" fill="#FFFFFF" transform="matrix(1.00, 0.00, -0.00, -1.00, 1594.1, 453.0)">a</text><text xml:space="preserve" font-family="HelveticaNeue-Light" font-size="32.0" fill="#FFFFFF" transform="matrix(1.00, 0.00, -0.00, -1.00, 1610.7, 453.0)">i</text><text xml:space="preserve" font-family="HelveticaNeue-Light" font-size="32.0" fill="#FFFFFF" transform="matrix(1.00, 0.00, -0.00, -1.00, 1616.7, 453.0)">n</text><text xml:space="preserve" font-family="HelveticaNeue-Light" font-size="32.0" fill="#FFFFFF" transform="matrix(1.00, 0.00, -0.00, -1.00, 1633.8, 453.0)">c</text><text xml:space="preserve" font-family="HelveticaNeue-Light" font-size="32.0" fill="#FFFFFF" transform="matrix(1.00, 0.00, -0.00, -1.00, 1650.4, 453.0)">a</text><text xml:space="preserve" font-family="HelveticaNeue-Light" font-size="32.0" fill="#FFFFFF" transform="matrix(1.00, 0.00, -0.00, -1.00, 1667.1, 453.0)">t</text><text xml:space="preserve" font-family="HelveticaNeue-Light" font-size="32.0" fill="#FFFFFF" transform="matrix(1.00, 0.00, -0.00, -1.00, 1676.5, 453.0)">a</text><text xml:space="preserve" font-family="HelveticaNeue-Light" font-size="32.0" fill="#FFFFFF" transform="matrix(1.00, 0.00, -0.00, -1.00, 1693.1, 453.0)">l</text><text xml:space="preserve" font-family="HelveticaNeue-Light" font-size="32.0" fill="#FFFFFF" transform="matrix(1.00, 0.00, -0.00, -1.00, 1699.1, 453.0)">o</text><text xml:space="preserve" font-family="HelveticaNeue-Light" font-size="32.0" fill="#FFFFFF" transform="matrix(1.00, 0.00, -0.00, -1.00, 1716.8, 453.0)">g</text><text xml:space="preserve" font-family="HelveticaNeue-Light" font-size="32.0" fill="#FFFFFF" transform="matrix(1.00, 0.00, -0.00, -1.00, 1734.6, 453.0)">u</text><text xml:space="preserve" font-family="HelveticaNeue-Light" font-size="32.0" fill="#FFFFFF" transform="matrix(1.00, 0.00, -0.00, -1.00, 1751.8, 453.0)">e</text><text xml:space="preserve" font-family="HelveticaNeue-Light" font-size="32.0" fill="#FFFFFF" transform="matrix(1.00, 0.00, -0.00, -1.00, 1768.4, 453.0)">.</text><text xml:space="preserve" font-family="HelveticaNeue-Light" font-size="32.0" fill="#FFFFFF" transform="matrix(1.00, 0.00, -0.00, -1.00, 1777.3, 453.0)">o</text><text xml:space="preserve" font-family="HelveticaNeue-Light" font-size="32.0" fill="#FFFFFF" transform="matrix(1.00, 0.00, -0.00, -1.00, 1795.1, 453.0)">r</text><text xml:space="preserve" font-family="HelveticaNeue-Light" font-size="32.0" fill="#FFFFFF" transform="matrix(1.00, 0.00, -0.00, -1.00, 1805.2, 453.0)">g</text><text xml:space="preserve" font-family="HelveticaNeue-Light" font-size="32.0" fill="#FFFFFF" transform="matrix(1.00, 0.00, -0.00, -1.00, 1823.0, 453.0)"> </text><text xml:space="preserve" font-family="HelveticaNeue-Light" font-size="32.0" fill="#FFFFFF" transform="matrix(1.00, 0.00, -0.00, -1.00, 1391.3, 414.0)">S</text><text xml:space="preserve" font-family="HelveticaNeue-Light" font-size="32.0" fill="#FFFFFF" transform="matrix(1.00, 0.00, -0.00, -1.00, 1411.5, 414.0)">E</text><text xml:space="preserve" font-family="HelveticaNeue-Light" font-size="32.0" fill="#FFFFFF" transform="matrix(1.00, 0.00, -0.00, -1.00, 1430.4, 414.0)">A</text><text xml:space="preserve" font-family="HelveticaNeue-Light" font-size="32.0" fill="#FFFFFF" transform="matrix(1.00, 0.00, -0.00, -1.00, 1450.6, 414.0)">S</text><text xml:space="preserve" font-family="HelveticaNeue-Light" font-size="32.0" fill="#FFFFFF" transform="matrix(1.00, 0.00, -0.00, -1.00, 1470.8, 414.0)"> </text><text xml:space="preserve" font-family="HelveticaNeue-Light" font-size="32.0" fill="#FFFFFF" transform="matrix(1.00, 0.00, -0.00, -1.00, 1479.7, 414.0)"> </text><text xml:space="preserve" font-family="HelveticaNeue-Light" font-size="32.0" fill="#FFFFFF" transform="matrix(1.00, 0.00, -0.00, -1.00, 1488.6, 414.0)">H</text><text xml:space="preserve" font-family="HelveticaNeue-Light" font-size="32.0" fill="#FFFFFF" transform="matrix(1.00, 0.00, -0.00, -1.00, 1511.1, 414.0)">a</text><text xml:space="preserve" font-family="HelveticaNeue-Light" font-size="32.0" fill="#FFFFFF" transform="matrix(1.00, 0.00, -0.00, -1.00, 1527.7, 414.0)">r</text><text xml:space="preserve" font-family="HelveticaNeue-Light" font-size="32.0" fill="#FFFFFF" transform="matrix(1.00, 0.00, -0.00, -1.00, 1537.8, 414.0)">v</text><text xml:space="preserve" font-family="HelveticaNeue-Light" font-size="32.0" fill="#FFFFFF" transform="matrix(1.00, 0.00, -0.00, -1.00, 1552.6, 414.0)">a</text><text xml:space="preserve" font-family="HelveticaNeue-Light" font-size="32.0" fill="#FFFFFF" transform="matrix(1.00, 0.00, -0.00, -1.00, 1569.2, 414.0)">r</text><text xml:space="preserve" font-family="HelveticaNeue-Light" font-size="32.0" fill="#FFFFFF" transform="matrix(1.00, 0.00, -0.00, -1.00, 1578.7, 414.0)">d</text><text xml:space="preserve" font-family="HelveticaNeue-Light" font-size="32.0" fill="#FFFFFF" transform="matrix(1.00, 0.00, -0.00, -1.00, 1597.1, 414.0)"> </text><text xml:space="preserve" font-family="HelveticaNeue-Light" font-size="32.0" fill="#FFFFFF" transform="matrix(1.00, 0.00, -0.00, -1.00, 1606.0, 414.0)">•</text><text xml:space="preserve" font-family="HelveticaNeue-Light" font-size="32.0" fill="#FFFFFF" transform="matrix(1.00, 0.00, -0.00, -1.00, 1622.0, 414.0)"> </text><text xml:space="preserve" font-family="HelveticaNeue-Light" font-size="32.0" fill="#FFFFFF" transform="matrix(1.00, 0.00, -0.00, -1.00, 1630.9, 414.0)">O</text><text xml:space="preserve" font-family="HelveticaNeue-Light" font-size="32.0" fill="#FFFFFF" transform="matrix(1.00, 0.00, -0.00, -1.00, 1654.6, 414.0)">c</text><text xml:space="preserve" font-family="HelveticaNeue-Light" font-size="32.0" fill="#FFFFFF" transform="matrix(1.00, 0.00, -0.00, -1.00, 1671.2, 414.0)">t</text><text xml:space="preserve" font-family="HelveticaNeue-Light" font-size="32.0" fill="#FFFFFF" transform="matrix(1.00, 0.00, -0.00, -1.00, 1680.7, 414.0)">o</text><text xml:space="preserve" font-family="HelveticaNeue-Light" font-size="32.0" fill="#FFFFFF" transform="matrix(1.00, 0.00, -0.00, -1.00, 1698.4, 414.0)">b</text><text xml:space="preserve" font-family="HelveticaNeue-Light" font-size="32.0" fill="#FFFFFF" transform="matrix(1.00, 0.00, -0.00, -1.00, 1716.8, 414.0)">r</text><text xml:space="preserve" font-family="HelveticaNeue-Light" font-size="32.0" fill="#FFFFFF" transform="matrix(1.00, 0.00, -0.00, -1.00, 1726.3, 414.0)">e</text><text xml:space="preserve" font-family="HelveticaNeue-Light" font-size="32.0" fill="#FFFFFF" transform="matrix(1.00, 0.00, -0.00, -1.00, 1742.9, 414.0)"> </text><text xml:space="preserve" font-family="HelveticaNeue-Light" font-size="32.0" fill="#FFFFFF" transform="matrix(1.00, 0.00, -0.00, -1.00, 1751.8, 414.0)">2</text><text xml:space="preserve" font-family="HelveticaNeue-Light" font-size="32.0" fill="#FFFFFF" transform="matrix(1.00, 0.00, -0.00, -1.00, 1769.6, 414.0)">0</text><text xml:space="preserve" font-family="HelveticaNeue-Light" font-size="32.0" fill="#FFFFFF" transform="matrix(1.00, 0.00, -0.00, -1.00, 1787.4, 414.0)">1</text><text xml:space="preserve" font-family="HelveticaNeue-Light" font-size="32.0" fill="#FFFFFF" transform="matrix(1.00, 0.00, -0.00, -1.00, 1805.2, 414.0)">5</text></g></svg>