<?xml version="1.0" encoding="UTF-8" standalone="no"?><svg xmlns="http://www.w3.org/2000/svg" xmlns:xlink="http://www.w3.org/1999/xlink" clip-rule="evenodd" stroke-miterlimit="10" viewBox="0 0 1920 1080"><desc>SVG generated by Keynote</desc><defs></defs><g transform="matrix(1.00, 0.00, -0.00, -1.00, 0.0, 1080.0)"><path d="M 0.0 1080.0 L 1920.0 1080.0 L 1920.0 0.0 L 0.0 0.0 Z M 0.0 1080.0 " fill="#FEFFFF"></path><image xlink:href="79B2F4D305C94F5A747708A8B41A95EC.png" width="882.00" height="800.00" transform="matrix(1.69, 0.00, -0.00, -1.69, 216.0, 1092.0)"></image><g opacity="0.67"><g><clipPath id="clip0x6180018b7760"><path d="M 1502.0 0.0 L 1920.0 0.0 L 1920.0 65.0 L 1502.0 65.0 Z M 1502.0 0.0 "></path></clipPath><g clip-path="url(#clip0x6180018b7760)"><path d="M 1504.0 63.0 L 1926.0 63.0 L 1926.0 -9.0 L 1504.0 -9.0 Z M 1503.9 63.1 " fill="#FEFFFE"></path></g></g></g><text xml:space="preserve" font-family="HelveticaNeue,Helvetica Neue" font-size="32.0" fill="#000000" transform="matrix(1.00, 0.00, -0.00, -1.00, 1625.7, 15.1)">P</text><text xml:space="preserve" font-family="HelveticaNeue,Helvetica Neue" font-size="32.0" fill="#000000" transform="matrix(1.00, 0.00, -0.00, -1.00, 1646.4, 15.1)">o</text><text xml:space="preserve" font-family="HelveticaNeue,Helvetica Neue" font-size="32.0" fill="#000000" transform="matrix(1.00, 0.00, -0.00, -1.00, 1664.8, 15.1)">l</text><text xml:space="preserve" font-family="HelveticaNeue,Helvetica Neue" font-size="32.0" fill="#000000" transform="matrix(1.00, 0.00, -0.00, -1.00, 1671.9, 15.1)">d</text><text xml:space="preserve" font-family="HelveticaNeue,Helvetica Neue" font-size="32.0" fill="#000000" transform="matrix(1.00, 0.00, -0.00, -1.00, 1690.9, 15.1)">r</text><text xml:space="preserve" font-family="HelveticaNeue,Helvetica Neue" font-size="32.0" fill="#000000" transform="matrix(1.00, 0.00, -0.00, -1.00, 1701.5, 15.1)">a</text><text xml:space="preserve" font-family="HelveticaNeue,Helvetica Neue" font-size="32.0" fill="#000000" transform="matrix(1.00, 0.00, -0.00, -1.00, 1718.7, 15.1)">c</text><text xml:space="preserve" font-family="HelveticaNeue,Helvetica Neue" font-size="32.0" fill="#000000" transform="matrix(1.00, 0.00, -0.00, -1.00, 1735.9, 15.1)">k</text><text xml:space="preserve" font-family="HelveticaNeue,Helvetica Neue" font-size="32.0" fill="#000000" transform="matrix(1.00, 0.00, -0.00, -1.00, 1752.5, 15.1)"> </text><text xml:space="preserve" font-family="HelveticaNeue,Helvetica Neue" font-size="32.0" fill="#000000" transform="matrix(1.00, 0.00, -0.00, -1.00, 1761.4, 15.1)">e</text><text xml:space="preserve" font-family="HelveticaNeue,Helvetica Neue" font-size="32.0" fill="#000000" transform="matrix(1.00, 0.00, -0.00, -1.00, 1778.6, 15.1)">t</text><text xml:space="preserve" font-family="HelveticaNeue,Helvetica Neue" font-size="32.0" fill="#000000" transform="matrix(1.00, 0.00, -0.00, -1.00, 1788.7, 15.1)"> </text><text xml:space="preserve" font-family="HelveticaNeue,Helvetica Neue" font-size="32.0" fill="#000000" transform="matrix(1.00, 0.00, -0.00, -1.00, 1797.6, 15.1)">a</text><text xml:space="preserve" font-family="HelveticaNeue,Helvetica Neue" font-size="32.0" fill="#000000" transform="matrix(1.00, 0.00, -0.00, -1.00, 1814.8, 15.1)">l</text><text xml:space="preserve" font-family="HelveticaNeue,Helvetica Neue" font-size="32.0" fill="#000000" transform="matrix(1.00, 0.00, -0.00, -1.00, 1821.9, 15.1)"> </text><text xml:space="preserve" font-family="HelveticaNeue,Helvetica Neue" font-size="32.0" fill="#000000" transform="matrix(1.00, 0.00, -0.00, -1.00, 1830.8, 15.1)">(</text><text xml:space="preserve" font-family="HelveticaNeue,Helvetica Neue" font-size="32.0" fill="#000000" transform="matrix(1.00, 0.00, -0.00, -1.00, 1839.1, 15.1)">2</text><text xml:space="preserve" font-family="HelveticaNeue,Helvetica Neue" font-size="32.0" fill="#000000" transform="matrix(1.00, 0.00, -0.00, -1.00, 1856.8, 15.1)">0</text><text xml:space="preserve" font-family="HelveticaNeue,Helvetica Neue" font-size="32.0" fill="#000000" transform="matrix(1.00, 0.00, -0.00, -1.00, 1874.6, 15.1)">1</text><text xml:space="preserve" font-family="HelveticaNeue,Helvetica Neue" font-size="32.0" fill="#000000" transform="matrix(1.00, 0.00, -0.00, -1.00, 1892.4, 15.1)">1</text></g></svg>