<?xml version="1.0" encoding="UTF-8" standalone="no"?><svg xmlns="http://www.w3.org/2000/svg" xmlns:xlink="http://www.w3.org/1999/xlink" clip-rule="evenodd" stroke-miterlimit="4.00" viewBox="0 0 1920 1080"><desc>SVG generated by Keynote</desc><defs></defs><g transform="matrix(1.00, 0.00, -0.00, -1.00, 0.0, 1080.0)"><path d="M 0.0 1080.0 L 1920.0 1080.0 L 1920.0 0.0 L 0.0 0.0 Z M 0.0 1080.0 " fill="#FEFFFF"></path><image xlink:href="../../8A0FAC40-EDED-4F84-9CF0-553E87EC8375/assets/4A9F8ECA17311B0DF4E3CF2FED218156.png" width="881.00" height="541.00" transform="matrix(1.74, 0.00, -0.00, -1.74, 194.0, 1010.0)"></image><text xml:space="preserve" font-family="HelveticaNeue" font-size="36.0" fill="#000000" transform="matrix(1.00, 0.00, -0.00, -1.00, 1664.0, 14.1)">S</text><text xml:space="preserve" font-family="HelveticaNeue" font-size="36.0" fill="#000000" transform="matrix(1.00, 0.00, -0.00, -1.00, 1687.3, 14.1)">a</text><text xml:space="preserve" font-family="HelveticaNeue" font-size="36.0" fill="#000000" transform="matrix(1.00, 0.00, -0.00, -1.00, 1706.7, 14.1)">h</text><text xml:space="preserve" font-family="HelveticaNeue" font-size="36.0" fill="#000000" transform="matrix(1.00, 0.00, -0.00, -1.00, 1726.7, 14.1)">a</text><text xml:space="preserve" font-family="HelveticaNeue" font-size="36.0" fill="#000000" transform="matrix(1.00, 0.00, -0.00, -1.00, 1746.0, 14.1)"> </text><text xml:space="preserve" font-family="HelveticaNeue" font-size="36.0" fill="#000000" transform="matrix(1.00, 0.00, -0.00, -1.00, 1756.0, 14.1)">e</text><text xml:space="preserve" font-family="HelveticaNeue" font-size="36.0" fill="#000000" transform="matrix(1.00, 0.00, -0.00, -1.00, 1775.3, 14.1)">t</text><text xml:space="preserve" font-family="HelveticaNeue" font-size="36.0" fill="#000000" transform="matrix(1.00, 0.00, -0.00, -1.00, 1786.7, 14.1)"> </text><text xml:space="preserve" font-family="HelveticaNeue" font-size="36.0" fill="#000000" transform="matrix(1.00, 0.00, -0.00, -1.00, 1796.7, 14.1)">a</text><text xml:space="preserve" font-family="HelveticaNeue" font-size="36.0" fill="#000000" transform="matrix(1.00, 0.00, -0.00, -1.00, 1816.0, 14.1)">l</text><text xml:space="preserve" font-family="HelveticaNeue" font-size="36.0" fill="#000000" transform="matrix(1.00, 0.00, -0.00, -1.00, 1824.0, 14.1)"> </text><text xml:space="preserve" font-family="HelveticaNeue" font-size="36.0" fill="#000000" transform="matrix(1.00, 0.00, -0.00, -1.00, 1834.0, 14.1)">2</text><text xml:space="preserve" font-family="HelveticaNeue" font-size="36.0" fill="#000000" transform="matrix(1.00, 0.00, -0.00, -1.00, 1854.0, 14.1)">0</text><text xml:space="preserve" font-family="HelveticaNeue" font-size="36.0" fill="#000000" transform="matrix(1.00, 0.00, -0.00, -1.00, 1874.1, 14.1)">0</text><text xml:space="preserve" font-family="HelveticaNeue" font-size="36.0" fill="#000000" transform="matrix(1.00, 0.00, -0.00, -1.00, 1894.1, 14.1)">8</text></g></svg>