<?xml version="1.0" encoding="UTF-8" standalone="no"?><svg xmlns="http://www.w3.org/2000/svg" xmlns:xlink="http://www.w3.org/1999/xlink" clip-rule="evenodd" stroke-miterlimit="10" viewBox="0 0 1920 1080"><desc>SVG generated by Keynote</desc><defs></defs><g transform="matrix(1.00, 0.00, -0.00, -1.00, 0.0, 1080.0)"><path d="M 0.0 1080.0 L 1920.0 1080.0 L 1920.0 0.0 L 0.0 0.0 Z M 0.0 1080.0 " fill="#000000"></path><image xlink:href="19A77DD0109ED347D7C0E856D9B827A9.jpeg" width="1280.00" height="972.00" transform="matrix(1.02, 0.00, -0.00, -1.02, 306.0, 1024.0)"></image><image xlink:href="03C3CA450020C6D77EB75FBE297D6D97.png" width="628.00" height="355.00" transform="matrix(1.00, 0.00, -0.00, -1.00, 600.0, 836.0)"></image><text xml:space="preserve" font-family="MarkerFelt-Wide,Marker Felt" font-weight="bold" font-size="112.0" fill="#FEFB00" transform="matrix(0.92, 0.40, 0.40, -0.92, 642.1, 500.2)">P</text><text xml:space="preserve" font-family="MarkerFelt-Wide,Marker Felt" font-weight="bold" font-size="112.0" fill="#FEFB00" transform="matrix(0.92, 0.40, 0.40, -0.92, 695.4, 523.5)">O</text><text xml:space="preserve" font-family="MarkerFelt-Wide,Marker Felt" font-weight="bold" font-size="112.0" fill="#FEFB00" transform="matrix(0.92, 0.40, 0.40, -0.92, 760.0, 551.8)">W</text><text xml:space="preserve" font-family="MarkerFelt-Wide,Marker Felt" font-weight="bold" font-size="112.0" fill="#FEFB00" transform="matrix(0.92, 0.40, 0.40, -0.92, 853.9, 592.9)">E</text><text xml:space="preserve" font-family="MarkerFelt-Wide,Marker Felt" font-weight="bold" font-size="112.0" fill="#FEFB00" transform="matrix(0.92, 0.40, 0.40, -0.92, 906.4, 616.0)">R</text><text xml:space="preserve" font-family="MarkerFelt-Wide,Marker Felt" font-weight="bold" font-size="112.0" fill="#FEFB00" transform="matrix(0.92, 0.40, 0.40, -0.92, 968.0, 642.9)">:</text><text xml:space="preserve" font-family="MarkerFelt-Wide,Marker Felt" font-weight="bold" font-size="112.0" fill="#FEFB00" transform="matrix(0.92, 0.40, 0.40, -0.92, 989.5, 652.4)"> </text><text xml:space="preserve" font-family="MarkerFelt-Wide,Marker Felt" font-weight="bold" font-size="112.0" fill="#FEFB00" transform="matrix(0.92, 0.40, 0.40, -0.92, 1015.2, 663.6)">9</text><text xml:space="preserve" font-family="MarkerFelt-Wide,Marker Felt" font-weight="bold" font-size="112.0" fill="#FEFB00" transform="matrix(0.92, 0.40, 0.40, -0.92, 1081.9, 692.8)">9</text><text xml:space="preserve" font-family="MarkerFelt-Wide,Marker Felt" font-weight="bold" font-size="112.0" fill="#FEFB00" transform="matrix(0.92, 0.40, 0.40, -0.92, 1148.5, 722.0)">%</text></g></svg>