<?xml version="1.0" encoding="UTF-8" standalone="no"?><svg xmlns="http://www.w3.org/2000/svg" xmlns:xlink="http://www.w3.org/1999/xlink" clip-rule="evenodd" stroke-miterlimit="4.00" viewBox="0 0 1920 1080"><desc>SVG generated by Keynote</desc><defs></defs><g transform="matrix(1.00, 0.00, -0.00, -1.00, 0.0, 1080.0)"><path d="M 0.0 1080.0 L 1920.0 1080.0 L 1920.0 0.0 L 0.0 0.0 Z M 0.0 1080.0 " fill="#FEFFFF"></path><image xlink:href="7EAF09BA0A0BA2DFB00AE92DA15BC112.png" width="676.00" height="540.00" transform="matrix(2.08, 0.00, -0.00, -2.09, 256.0, 1103.0)"></image><text xml:space="preserve" font-family="HelveticaNeue" font-size="50.0" fill="#000000" transform="matrix(1.00, 0.00, -0.00, -1.00, 460.0, 971.0)">H</text><text xml:space="preserve" font-family="HelveticaNeue" font-size="50.0" fill="#000000" transform="matrix(1.00, 0.00, -0.00, -1.00, 496.1, 971.0)">e</text><text xml:space="preserve" font-family="HelveticaNeue" font-size="50.0" fill="#000000" transform="matrix(1.00, 0.00, -0.00, -1.00, 523.0, 971.0)">i</text><text xml:space="preserve" font-family="HelveticaNeue" font-size="50.0" fill="#000000" transform="matrix(1.00, 0.00, -0.00, -1.00, 534.0, 971.0)">g</text><text xml:space="preserve" font-family="HelveticaNeue" font-size="50.0" fill="#000000" transform="matrix(1.00, 0.00, -0.00, -1.00, 562.8, 971.0)">h</text><text xml:space="preserve" font-family="HelveticaNeue" font-size="50.0" fill="#000000" transform="matrix(1.00, 0.00, -0.00, -1.00, 590.5, 971.0)">t</text><text xml:space="preserve" font-family="HelveticaNeue" font-size="50.0" fill="#000000" transform="matrix(1.00, 0.00, -0.00, -1.00, 1116.0, 971.0)">B</text><text xml:space="preserve" font-family="HelveticaNeue" font-size="50.0" fill="#000000" transform="matrix(1.00, 0.00, -0.00, -1.00, 1150.2, 971.0)">M</text><text xml:space="preserve" font-family="HelveticaNeue" font-size="50.0" fill="#000000" transform="matrix(1.00, 0.00, -0.00, -1.00, 1193.8, 971.0)">I</text><text xml:space="preserve" font-family="HelveticaNeue" font-size="50.0" fill="#000000" transform="matrix(1.00, 0.00, -0.00, -1.00, 483.0, 443.0)">v</text><text xml:space="preserve" font-family="HelveticaNeue" font-size="50.0" fill="#000000" transform="matrix(1.00, 0.00, -0.00, -1.00, 508.0, 443.0)">W</text><text xml:space="preserve" font-family="HelveticaNeue" font-size="50.0" fill="#000000" transform="matrix(1.00, 0.00, -0.00, -1.00, 554.3, 443.0)">F</text><text xml:space="preserve" font-family="HelveticaNeue" font-size="50.0" fill="#000000" transform="matrix(1.00, 0.00, -0.00, -1.00, 1123.0, 443.0)">Q</text><text xml:space="preserve" font-family="HelveticaNeue" font-size="50.0" fill="#000000" transform="matrix(1.00, 0.00, -0.00, -1.00, 1161.0, 443.0)">T</text><text xml:space="preserve" font-family="HelveticaNeue" font-size="50.0" fill="#000000" transform="matrix(1.00, 0.00, -0.00, -1.00, 1189.7, 443.0)">i</text></g></svg>