<?xml version="1.0" encoding="UTF-8" standalone="no"?><svg xmlns="http://www.w3.org/2000/svg" xmlns:xlink="http://www.w3.org/1999/xlink" clip-rule="evenodd" stroke-miterlimit="10" viewBox="0 0 1920 1080"><desc>SVG generated by Keynote</desc><defs></defs><g transform="matrix(1.00, 0.00, -0.00, -1.00, 0.0, 1080.0)"><path d="M 0.0 1080.0 L 1920.0 1080.0 L 1920.0 0.0 L 0.0 0.0 Z M 0.0 1080.0 " fill="#FEFFFF"></path><text xml:space="preserve" font-family="HelveticaNeue-CondensedBold,Helvetica Neue" font-weight="bold" font-size="48.0" fill="#000000" transform="matrix(1.00, 0.00, -0.00, -1.00, 88.4, 524.0)">h</text><text xml:space="preserve" font-family="HelveticaNeue-CondensedBold,Helvetica Neue" font-weight="bold" font-size="48.0" fill="#000000" transform="matrix(1.00, 0.00, -0.00, -1.00, 112.4, 524.0)">t</text><text xml:space="preserve" font-family="HelveticaNeue-CondensedBold,Helvetica Neue" font-weight="bold" font-size="48.0" fill="#000000" transform="matrix(1.00, 0.00, -0.00, -1.00, 126.6, 524.0)">t</text><text xml:space="preserve" font-family="HelveticaNeue-CondensedBold,Helvetica Neue" font-weight="bold" font-size="48.0" fill="#000000" transform="matrix(1.00, 0.00, -0.00, -1.00, 140.8, 524.0)">p</text><text xml:space="preserve" font-family="HelveticaNeue-CondensedBold,Helvetica Neue" font-weight="bold" font-size="48.0" fill="#000000" transform="matrix(1.00, 0.00, -0.00, -1.00, 164.8, 524.0)">:</text><text xml:space="preserve" font-family="HelveticaNeue-CondensedBold,Helvetica Neue" font-weight="bold" font-size="48.0" fill="#000000" transform="matrix(1.00, 0.00, -0.00, -1.00, 176.3, 524.0)">/</text><text xml:space="preserve" font-family="HelveticaNeue-CondensedBold,Helvetica Neue" font-weight="bold" font-size="48.0" fill="#000000" transform="matrix(1.00, 0.00, -0.00, -1.00, 192.3, 524.0)">/</text><text xml:space="preserve" font-family="HelveticaNeue-CondensedBold,Helvetica Neue" font-weight="bold" font-size="48.0" fill="#000000" transform="matrix(1.00, 0.00, -0.00, -1.00, 208.2, 524.0)">b</text><text xml:space="preserve" font-family="HelveticaNeue-CondensedBold,Helvetica Neue" font-weight="bold" font-size="48.0" fill="#000000" transform="matrix(1.00, 0.00, -0.00, -1.00, 232.2, 524.0)">r</text><text xml:space="preserve" font-family="HelveticaNeue-CondensedBold,Helvetica Neue" font-weight="bold" font-size="48.0" fill="#000000" transform="matrix(1.00, 0.00, -0.00, -1.00, 248.2, 524.0)">a</text><text xml:space="preserve" font-family="HelveticaNeue-CondensedBold,Helvetica Neue" font-weight="bold" font-size="48.0" fill="#000000" transform="matrix(1.00, 0.00, -0.00, -1.00, 271.3, 524.0)">i</text><text xml:space="preserve" font-family="HelveticaNeue-CondensedBold,Helvetica Neue" font-weight="bold" font-size="48.0" fill="#000000" transform="matrix(1.00, 0.00, -0.00, -1.00, 282.8, 524.0)">n</text><text xml:space="preserve" font-family="HelveticaNeue-CondensedBold,Helvetica Neue" font-weight="bold" font-size="48.0" fill="#000000" transform="matrix(1.00, 0.00, -0.00, -1.00, 306.8, 524.0)">f</text><text xml:space="preserve" font-family="HelveticaNeue-CondensedBold,Helvetica Neue" font-weight="bold" font-size="48.0" fill="#000000" transform="matrix(1.00, 0.00, -0.00, -1.00, 321.0, 524.0)">o</text><text xml:space="preserve" font-family="HelveticaNeue-CondensedBold,Helvetica Neue" font-weight="bold" font-size="48.0" fill="#000000" transform="matrix(1.00, 0.00, -0.00, -1.00, 344.1, 524.0)">l</text><text xml:space="preserve" font-family="HelveticaNeue-CondensedBold,Helvetica Neue" font-weight="bold" font-size="48.0" fill="#000000" transform="matrix(1.00, 0.00, -0.00, -1.00, 355.6, 524.0)">d</text><text xml:space="preserve" font-family="HelveticaNeue-CondensedBold,Helvetica Neue" font-weight="bold" font-size="48.0" fill="#000000" transform="matrix(1.00, 0.00, -0.00, -1.00, 379.6, 524.0)">i</text><text xml:space="preserve" font-family="HelveticaNeue-CondensedBold,Helvetica Neue" font-weight="bold" font-size="48.0" fill="#000000" transform="matrix(1.00, 0.00, -0.00, -1.00, 391.1, 524.0)">n</text><text xml:space="preserve" font-family="HelveticaNeue-CondensedBold,Helvetica Neue" font-weight="bold" font-size="48.0" fill="#000000" transform="matrix(1.00, 0.00, -0.00, -1.00, 415.1, 524.0)">g</text><text xml:space="preserve" font-family="HelveticaNeue-CondensedBold,Helvetica Neue" font-weight="bold" font-size="48.0" fill="#000000" transform="matrix(1.00, 0.00, -0.00, -1.00, 439.1, 524.0)">.</text><text xml:space="preserve" font-family="HelveticaNeue-CondensedBold,Helvetica Neue" font-weight="bold" font-size="48.0" fill="#000000" transform="matrix(1.00, 0.00, -0.00, -1.00, 450.6, 524.0)">s</text><text xml:space="preserve" font-family="HelveticaNeue-CondensedBold,Helvetica Neue" font-weight="bold" font-size="48.0" fill="#000000" transform="matrix(1.00, 0.00, -0.00, -1.00, 471.9, 524.0)">o</text><text xml:space="preserve" font-family="HelveticaNeue-CondensedBold,Helvetica Neue" font-weight="bold" font-size="48.0" fill="#000000" transform="matrix(1.00, 0.00, -0.00, -1.00, 495.0, 524.0)">u</text><text xml:space="preserve" font-family="HelveticaNeue-CondensedBold,Helvetica Neue" font-weight="bold" font-size="48.0" fill="#000000" transform="matrix(1.00, 0.00, -0.00, -1.00, 519.0, 524.0)">r</text><text xml:space="preserve" font-family="HelveticaNeue-CondensedBold,Helvetica Neue" font-weight="bold" font-size="48.0" fill="#000000" transform="matrix(1.00, 0.00, -0.00, -1.00, 534.9, 524.0)">c</text><text xml:space="preserve" font-family="HelveticaNeue-CondensedBold,Helvetica Neue" font-weight="bold" font-size="48.0" fill="#000000" transform="matrix(1.00, 0.00, -0.00, -1.00, 557.2, 524.0)">e</text><text xml:space="preserve" font-family="HelveticaNeue-CondensedBold,Helvetica Neue" font-weight="bold" font-size="48.0" fill="#000000" transform="matrix(1.00, 0.00, -0.00, -1.00, 579.4, 524.0)">f</text><text xml:space="preserve" font-family="HelveticaNeue-CondensedBold,Helvetica Neue" font-weight="bold" font-size="48.0" fill="#000000" transform="matrix(1.00, 0.00, -0.00, -1.00, 593.6, 524.0)">o</text><text xml:space="preserve" font-family="HelveticaNeue-CondensedBold,Helvetica Neue" font-weight="bold" font-size="48.0" fill="#000000" transform="matrix(1.00, 0.00, -0.00, -1.00, 616.6, 524.0)">r</text><text xml:space="preserve" font-family="HelveticaNeue-CondensedBold,Helvetica Neue" font-weight="bold" font-size="48.0" fill="#000000" transform="matrix(1.00, 0.00, -0.00, -1.00, 632.6, 524.0)">g</text><text xml:space="preserve" font-family="HelveticaNeue-CondensedBold,Helvetica Neue" font-weight="bold" font-size="48.0" fill="#000000" transform="matrix(1.00, 0.00, -0.00, -1.00, 656.6, 524.0)">e</text><text xml:space="preserve" font-family="HelveticaNeue-CondensedBold,Helvetica Neue" font-weight="bold" font-size="48.0" fill="#000000" transform="matrix(1.00, 0.00, -0.00, -1.00, 678.9, 524.0)">.</text><text xml:space="preserve" font-family="HelveticaNeue-CondensedBold,Helvetica Neue" font-weight="bold" font-size="48.0" fill="#000000" transform="matrix(1.00, 0.00, -0.00, -1.00, 690.4, 524.0)">n</text><text xml:space="preserve" font-family="HelveticaNeue-CondensedBold,Helvetica Neue" font-weight="bold" font-size="48.0" fill="#000000" transform="matrix(1.00, 0.00, -0.00, -1.00, 714.4, 524.0)">e</text><text xml:space="preserve" font-family="HelveticaNeue-CondensedBold,Helvetica Neue" font-weight="bold" font-size="48.0" fill="#000000" transform="matrix(1.00, 0.00, -0.00, -1.00, 736.6, 524.0)">t</text><g><clipPath id="clip0x610000ea5f40"><path d="M 802.8 385.9 L 1307.1 385.9 L 1307.1 1101.7 L 802.8 1101.7 Z M 802.8 385.9 "></path></clipPath><g clip-path="url(#clip0x610000ea5f40)"><image xlink:href="C18D4D03F287CB846D258C2972AD69F3.png" width="830.00" height="1178.00" transform="matrix(0.61, 0.00, -0.00, -0.61, 803.0, 1102.0)"></image></g></g><g><clipPath id="clip0x6000016a5460"><path d="M 805.9 -21.6 L 1893.6 -21.6 L 1893.6 476.6 L 805.9 476.6 Z M 805.9 -21.6 "></path></clipPath><g clip-path="url(#clip0x6000016a5460)"><image xlink:href="38E89A7BE5FD12A566EC0E960978B44B.png" width="1790.00" height="820.00" transform="matrix(0.61, 0.00, -0.00, -0.61, 806.0, 477.0)"></image></g></g><g><clipPath id="clip0x6000016a54c0"><path d="M 1208.3 385.9 L 1892.5 385.9 L 1892.5 1101.7 L 1208.3 1101.7 Z M 1208.3 385.9 "></path></clipPath><g clip-path="url(#clip0x6000016a54c0)"><image xlink:href="4A11C2D9062B60BA66FB2FEE4B83D487.png" width="1126.00" height="1178.00" transform="matrix(0.61, 0.00, -0.00, -0.61, 1208.0, 1102.0)"></image></g></g><text xml:space="preserve" font-family="HelveticaNeue,Helvetica Neue" font-size="36.0" fill="#000000" transform="matrix(1.00, 0.00, -0.00, -1.00, 1554.6, 14.1)">T</text><text xml:space="preserve" font-family="HelveticaNeue,Helvetica Neue" font-size="36.0" fill="#000000" transform="matrix(1.00, 0.00, -0.00, -1.00, 1571.3, 14.1)">o</text><text xml:space="preserve" font-family="HelveticaNeue,Helvetica Neue" font-size="36.0" fill="#000000" transform="matrix(1.00, 0.00, -0.00, -1.00, 1592.0, 14.1)">r</text><text xml:space="preserve" font-family="HelveticaNeue,Helvetica Neue" font-size="36.0" fill="#000000" transform="matrix(1.00, 0.00, -0.00, -1.00, 1603.3, 14.1)">o</text><text xml:space="preserve" font-family="HelveticaNeue,Helvetica Neue" font-size="36.0" fill="#000000" transform="matrix(1.00, 0.00, -0.00, -1.00, 1624.0, 14.1)"> </text><text xml:space="preserve" font-family="HelveticaNeue,Helvetica Neue" font-size="36.0" fill="#000000" transform="matrix(1.00, 0.00, -0.00, -1.00, 1634.0, 14.1)">a</text><text xml:space="preserve" font-family="HelveticaNeue,Helvetica Neue" font-size="36.0" fill="#000000" transform="matrix(1.00, 0.00, -0.00, -1.00, 1653.3, 14.1)">n</text><text xml:space="preserve" font-family="HelveticaNeue,Helvetica Neue" font-size="36.0" fill="#000000" transform="matrix(1.00, 0.00, -0.00, -1.00, 1673.3, 14.1)">d</text><text xml:space="preserve" font-family="HelveticaNeue,Helvetica Neue" font-size="36.0" fill="#000000" transform="matrix(1.00, 0.00, -0.00, -1.00, 1694.7, 14.1)"> </text><text xml:space="preserve" font-family="HelveticaNeue,Helvetica Neue" font-size="36.0" fill="#000000" transform="matrix(1.00, 0.00, -0.00, -1.00, 1704.7, 14.1)">B</text><text xml:space="preserve" font-family="HelveticaNeue,Helvetica Neue" font-size="36.0" fill="#000000" transform="matrix(1.00, 0.00, -0.00, -1.00, 1729.3, 14.1)">u</text><text xml:space="preserve" font-family="HelveticaNeue,Helvetica Neue" font-size="36.0" fill="#000000" transform="matrix(1.00, 0.00, -0.00, -1.00, 1749.4, 14.1)">r</text><text xml:space="preserve" font-family="HelveticaNeue,Helvetica Neue" font-size="36.0" fill="#000000" transform="matrix(1.00, 0.00, -0.00, -1.00, 1762.0, 14.1)">n</text><text xml:space="preserve" font-family="HelveticaNeue,Helvetica Neue" font-size="36.0" fill="#000000" transform="matrix(1.00, 0.00, -0.00, -1.00, 1782.0, 14.1)">o</text><text xml:space="preserve" font-family="HelveticaNeue,Helvetica Neue" font-size="36.0" fill="#000000" transform="matrix(1.00, 0.00, -0.00, -1.00, 1802.7, 14.1)">d</text><text xml:space="preserve" font-family="HelveticaNeue,Helvetica Neue" font-size="36.0" fill="#000000" transform="matrix(1.00, 0.00, -0.00, -1.00, 1824.0, 14.1)"> </text><text xml:space="preserve" font-family="HelveticaNeue,Helvetica Neue" font-size="36.0" fill="#000000" transform="matrix(1.00, 0.00, -0.00, -1.00, 1834.0, 14.1)">2</text><text xml:space="preserve" font-family="HelveticaNeue,Helvetica Neue" font-size="36.0" fill="#000000" transform="matrix(1.00, 0.00, -0.00, -1.00, 1854.0, 14.1)">0</text><text xml:space="preserve" font-family="HelveticaNeue,Helvetica Neue" font-size="36.0" fill="#000000" transform="matrix(1.00, 0.00, -0.00, -1.00, 1874.1, 14.1)">0</text><text xml:space="preserve" font-family="HelveticaNeue,Helvetica Neue" font-size="36.0" fill="#000000" transform="matrix(1.00, 0.00, -0.00, -1.00, 1894.1, 14.1)">5</text></g></svg>