<?xml version="1.0" encoding="UTF-8" standalone="no"?><svg xmlns="http://www.w3.org/2000/svg" xmlns:xlink="http://www.w3.org/1999/xlink" clip-rule="evenodd" stroke-miterlimit="4.00" viewBox="0 0 1920 1080"><desc>SVG generated by Keynote</desc><defs></defs><g transform="matrix(1.00, 0.00, -0.00, -1.00, 0.0, 1080.0)"><path d="M 0.0 1080.0 L 1920.0 1080.0 L 1920.0 0.0 L 0.0 0.0 Z M 0.0 1080.0 " fill="#000000"></path><text xml:space="preserve" font-family="HelveticaNeue-Medium" font-size="56.0" fill="#FEFFFF" transform="matrix(1.00, 0.00, -0.00, -1.00, 1057.0, 553.0)">Q</text><text xml:space="preserve" font-family="HelveticaNeue-Medium" font-size="56.0" fill="#FEFFFF" transform="matrix(1.00, 0.00, -0.00, -1.00, 1099.6, 553.0)">u</text><text xml:space="preserve" font-family="HelveticaNeue-Medium" font-size="56.0" fill="#FEFFFF" transform="matrix(1.00, 0.00, -0.00, -1.00, 1131.7, 553.0)">i</text><text xml:space="preserve" font-family="HelveticaNeue-Medium" font-size="56.0" fill="#FEFFFF" transform="matrix(1.00, 0.00, -0.00, -1.00, 1145.2, 553.0)">c</text><text xml:space="preserve" font-family="HelveticaNeue-Medium" font-size="56.0" fill="#FEFFFF" transform="matrix(1.00, 0.00, -0.00, -1.00, 1176.3, 553.0)">k</text><text xml:space="preserve" font-family="HelveticaNeue-Medium" font-size="56.0" fill="#FEFFFF" transform="matrix(1.00, 0.00, -0.00, -1.00, 1206.4, 553.0)"> </text><text xml:space="preserve" font-family="HelveticaNeue-Medium" font-size="56.0" fill="#FEFFFF" transform="matrix(1.00, 0.00, -0.00, -1.00, 1222.0, 553.0)">r</text><text xml:space="preserve" font-family="HelveticaNeue-Medium" font-size="56.0" fill="#FEFFFF" transform="matrix(1.00, 0.00, -0.00, -1.00, 1240.7, 553.0)">e</text><text xml:space="preserve" font-family="HelveticaNeue-Medium" font-size="56.0" fill="#FEFFFF" transform="matrix(1.00, 0.00, -0.00, -1.00, 1271.8, 553.0)">v</text><text xml:space="preserve" font-family="HelveticaNeue-Medium" font-size="56.0" fill="#FEFFFF" transform="matrix(1.00, 0.00, -0.00, -1.00, 1300.9, 553.0)">i</text><text xml:space="preserve" font-family="HelveticaNeue-Medium" font-size="56.0" fill="#FEFFFF" transform="matrix(1.00, 0.00, -0.00, -1.00, 1314.4, 553.0)">e</text><text xml:space="preserve" font-family="HelveticaNeue-Medium" font-size="56.0" fill="#FEFFFF" transform="matrix(1.00, 0.00, -0.00, -1.00, 1345.5, 553.0)">w</text><text xml:space="preserve" font-family="HelveticaNeue-Medium" font-size="56.0" fill="#FEFFFF" transform="matrix(1.00, 0.00, -0.00, -1.00, 1389.1, 553.0)"> </text><text xml:space="preserve" font-family="HelveticaNeue-Medium" font-size="56.0" fill="#FEFFFF" transform="matrix(1.00, 0.00, -0.00, -1.00, 1404.6, 553.0)">o</text><text xml:space="preserve" font-family="HelveticaNeue-Medium" font-size="56.0" fill="#FEFFFF" transform="matrix(1.00, 0.00, -0.00, -1.00, 1437.9, 553.0)">f</text><text xml:space="preserve" font-family="HelveticaNeue-Medium" font-size="56.0" fill="#FEFFFF" transform="matrix(1.00, 0.00, -0.00, -1.00, 1455.5, 553.0)"> </text><text xml:space="preserve" font-family="HelveticaNeue-Medium" font-size="56.0" fill="#FEFFFF" transform="matrix(1.00, 0.00, -0.00, -1.00, 1471.1, 553.0)">e</text><text xml:space="preserve" font-family="HelveticaNeue-Medium" font-size="56.0" fill="#FEFFFF" transform="matrix(1.00, 0.00, -0.00, -1.00, 1502.2, 553.0)">a</text><text xml:space="preserve" font-family="HelveticaNeue-Medium" font-size="56.0" fill="#FEFFFF" transform="matrix(1.00, 0.00, -0.00, -1.00, 1533.3, 553.0)">r</text><text xml:space="preserve" font-family="HelveticaNeue-Medium" font-size="56.0" fill="#FEFFFF" transform="matrix(1.00, 0.00, -0.00, -1.00, 1553.0, 553.0)">l</text><text xml:space="preserve" font-family="HelveticaNeue-Medium" font-size="56.0" fill="#FEFFFF" transform="matrix(1.00, 0.00, -0.00, -1.00, 1566.5, 553.0)">y</text><text xml:space="preserve" font-family="HelveticaNeue-Medium" font-size="56.0" fill="#FEFFFF" transform="matrix(1.00, 0.00, -0.00, -1.00, 1595.6, 553.0)"> </text><text xml:space="preserve" font-family="HelveticaNeue-Medium" font-size="56.0" fill="#FEFFFF" transform="matrix(1.00, 0.00, -0.00, -1.00, 1611.2, 553.0)">b</text><text xml:space="preserve" font-family="HelveticaNeue-Medium" font-size="56.0" fill="#FEFFFF" transform="matrix(1.00, 0.00, -0.00, -1.00, 1645.4, 553.0)">r</text><text xml:space="preserve" font-family="HelveticaNeue-Medium" font-size="56.0" fill="#FEFFFF" transform="matrix(1.00, 0.00, -0.00, -1.00, 1665.1, 553.0)">a</text><text xml:space="preserve" font-family="HelveticaNeue-Medium" font-size="56.0" fill="#FEFFFF" transform="matrix(1.00, 0.00, -0.00, -1.00, 1696.2, 553.0)">i</text><text xml:space="preserve" font-family="HelveticaNeue-Medium" font-size="56.0" fill="#FEFFFF" transform="matrix(1.00, 0.00, -0.00, -1.00, 1709.7, 553.0)">n</text><text xml:space="preserve" font-family="HelveticaNeue-Medium" font-size="56.0" fill="#FEFFFF" transform="matrix(1.00, 0.00, -0.00, -1.00, 1741.9, 553.0)"> </text><text xml:space="preserve" font-family="HelveticaNeue-Medium" font-size="56.0" fill="#FEFFFF" transform="matrix(1.00, 0.00, -0.00, -1.00, 1231.0, 484.0)">d</text><text xml:space="preserve" font-family="HelveticaNeue-Medium" font-size="56.0" fill="#FEFFFF" transform="matrix(1.00, 0.00, -0.00, -1.00, 1265.2, 484.0)">e</text><text xml:space="preserve" font-family="HelveticaNeue-Medium" font-size="56.0" fill="#FEFFFF" transform="matrix(1.00, 0.00, -0.00, -1.00, 1296.4, 484.0)">v</text><text xml:space="preserve" font-family="HelveticaNeue-Medium" font-size="56.0" fill="#FEFFFF" transform="matrix(1.00, 0.00, -0.00, -1.00, 1325.4, 484.0)">e</text><text xml:space="preserve" font-family="HelveticaNeue-Medium" font-size="56.0" fill="#FEFFFF" transform="matrix(1.00, 0.00, -0.00, -1.00, 1356.6, 484.0)">l</text><text xml:space="preserve" font-family="HelveticaNeue-Medium" font-size="56.0" fill="#FEFFFF" transform="matrix(1.00, 0.00, -0.00, -1.00, 1370.0, 484.0)">o</text><text xml:space="preserve" font-family="HelveticaNeue-Medium" font-size="56.0" fill="#FEFFFF" transform="matrix(1.00, 0.00, -0.00, -1.00, 1403.3, 484.0)">p</text><text xml:space="preserve" font-family="HelveticaNeue-Medium" font-size="56.0" fill="#FEFFFF" transform="matrix(1.00, 0.00, -0.00, -1.00, 1437.5, 484.0)">m</text><text xml:space="preserve" font-family="HelveticaNeue-Medium" font-size="56.0" fill="#FEFFFF" transform="matrix(1.00, 0.00, -0.00, -1.00, 1486.2, 484.0)">e</text><text xml:space="preserve" font-family="HelveticaNeue-Medium" font-size="56.0" fill="#FEFFFF" transform="matrix(1.00, 0.00, -0.00, -1.00, 1517.3, 484.0)">n</text><text xml:space="preserve" font-family="HelveticaNeue-Medium" font-size="56.0" fill="#FEFFFF" transform="matrix(1.00, 0.00, -0.00, -1.00, 1549.5, 484.0)">t</text><image xlink:href="../../FED2477F-6B7D-493E-AC7F-68408787D4F7/assets/652C2339835C03814A4862BB923CA334.png" width="960.00" height="478.00" transform="matrix(1.07, 0.00, -0.00, -1.07, -52.0, 796.0)"></image></g></svg>