<?xml version="1.0" encoding="UTF-8" standalone="no"?><svg xmlns="http://www.w3.org/2000/svg" xmlns:xlink="http://www.w3.org/1999/xlink" clip-rule="evenodd" stroke-miterlimit="4.00" viewBox="0 0 1920 1080"><desc>SVG generated by Keynote</desc><defs></defs><g transform="matrix(1.00, 0.00, -0.00, -1.00, 0.0, 1080.0)"><path d="M 0.0 1080.0 L 1920.0 1080.0 L 1920.0 0.0 L 0.0 0.0 Z M 0.0 1080.0 " fill="#FEFFFF"></path><path d="M -136.8 1237.3 L -63.6 1237.3 L -63.6 1208.7 L -136.8 1208.7 Z M -136.8 1237.3 " fill="#FFFFFF"></path><path d="M -136.8 1052.4 L -63.6 1052.4 L -63.6 1023.8 L -136.8 1023.8 Z M -136.8 1052.4 " fill="#FFFFFF"></path><path d="M -136.8 780.7 L -63.6 780.7 L -63.6 752.1 L -136.8 752.1 Z M -136.8 780.7 " fill="#FFFFFF"></path><image xlink:href="../../6D318721-163E-4A09-B99A-F741695EDCAF/assets/822C9D0F27BA5840589F35B6E6EAC449.png" width="1111.00" height="755.00" transform="matrix(1.50, 0.00, -0.00, -1.50, 271.0, 1106.0)"></image><g><clipPath id="clip-26633"><path d="M 38.0 1043.0 L 293.0 1043.0 L 293.0 684.0 L 38.0 684.0 Z M 37.5 1042.8 "></path></clipPath><g clip-path="url(#clip-26633)"><image xlink:href="../../00ABF546-C97A-4DD9-934E-169E5BC4B377/assets/B2EAC6B9A9AAF7F0240EFC9B8EC15A75.jpeg" width="225.00" height="310.00" transform="matrix(1.26, 0.00, -0.00, -1.26, 25.0, 1059.0)"></image></g></g><image xlink:href="../../6D318721-163E-4A09-B99A-F741695EDCAF/assets/6AFC8A7CEA27ABBD26F3822510BDDE6A.png" width="289.00" height="403.00" transform="matrix(1.00, 0.00, -0.00, 1.00, 20.5, 650.6)"></image></g></svg>