<?xml version="1.0" encoding="UTF-8" standalone="no"?><svg xmlns="http://www.w3.org/2000/svg" xmlns:xlink="http://www.w3.org/1999/xlink" clip-rule="evenodd" stroke-miterlimit="4.00" viewBox="0 0 1920 1080"><desc>SVG generated by Keynote</desc><defs></defs><g transform="matrix(1.00, 0.00, -0.00, -1.00, 0.0, 1080.0)"><path d="M 0.0 1080.0 L 1920.0 1080.0 L 1920.0 0.0 L 0.0 0.0 Z M 0.0 1080.0 " fill="#000000"></path><g><clipPath id="clip-26716"><path d="M 218.0 1056.0 L 1016.0 1056.0 L 1016.0 549.0 L 218.0 549.0 Z M 217.5 1056.0 "></path></clipPath><g clip-path="url(#clip-26716)"><image xlink:href="4E856EFCC8D0DB262751540A977B687C.png" width="640.00" height="400.00" transform="matrix(1.50, 0.00, -0.00, -1.50, 132.0, 1095.0)"></image></g></g><g><clipPath id="clip-26717"><path d="M 996.0 1016.0 L 1724.0 1016.0 L 1724.0 519.0 L 996.0 519.0 Z M 996.0 1015.5 "></path></clipPath><g clip-path="url(#clip-26717)"><image xlink:href="805A1A059945D22FC9379028C0AD66ED.png" width="640.00" height="400.00" transform="matrix(1.50, 0.00, -0.00, -1.50, 875.0, 1057.0)"></image></g></g><g><clipPath id="clip-26718"><path d="M 179.0 546.0 L 947.0 546.0 L 947.0 9.0 L 179.0 9.0 Z M 178.5 546.0 "></path></clipPath><g clip-path="url(#clip-26718)"><image xlink:href="4FE1D0329F029D87D4A4E55FC95A0D8F.png" width="640.00" height="400.00" transform="matrix(1.50, 0.00, -0.00, -1.50, 72.0, 582.0)"></image></g></g><image xlink:href="46717987C453BEECACE0F35B7E8B51B5.jpeg" width="549.00" height="343.00" transform="matrix(1.50, 0.00, -0.00, -1.50, 947.0, 546.0)"></image><text xml:space="preserve" font-family="HelveticaNeue-Light" font-size="42.0" fill="#FEFFFF" transform="matrix(1.00, 0.00, -0.00, -1.00, 24.0, 26.0)">W</text><text xml:space="preserve" font-family="HelveticaNeue-Light" font-size="42.0" fill="#FEFFFF" transform="matrix(1.00, 0.00, -0.00, -1.00, 61.3, 26.0)">e</text><text xml:space="preserve" font-family="HelveticaNeue-Light" font-size="42.0" fill="#FEFFFF" transform="matrix(1.00, 0.00, -0.00, -1.00, 83.1, 26.0)">d</text><text xml:space="preserve" font-family="HelveticaNeue-Light" font-size="42.0" fill="#FEFFFF" transform="matrix(1.00, 0.00, -0.00, -1.00, 107.2, 26.0)">e</text><text xml:space="preserve" font-family="HelveticaNeue-Light" font-size="42.0" fill="#FEFFFF" transform="matrix(1.00, 0.00, -0.00, -1.00, 129.0, 26.0)">e</text><text xml:space="preserve" font-family="HelveticaNeue-Light" font-size="42.0" fill="#FEFFFF" transform="matrix(1.00, 0.00, -0.00, -1.00, 150.8, 26.0)">n</text><text xml:space="preserve" font-family="HelveticaNeue-Light" font-size="42.0" fill="#FEFFFF" transform="matrix(1.00, 0.00, -0.00, -1.00, 173.4, 26.0)"> </text><text xml:space="preserve" font-family="HelveticaNeue-Light" font-size="42.0" fill="#FEFFFF" transform="matrix(1.00, 0.00, -0.00, -1.00, 185.1, 26.0)">e</text><text xml:space="preserve" font-family="HelveticaNeue-Light" font-size="42.0" fill="#FEFFFF" transform="matrix(1.00, 0.00, -0.00, -1.00, 206.9, 26.0)">t</text><text xml:space="preserve" font-family="HelveticaNeue-Light" font-size="42.0" fill="#FEFFFF" transform="matrix(1.00, 0.00, -0.00, -1.00, 219.3, 26.0)"> </text><text xml:space="preserve" font-family="HelveticaNeue-Light" font-size="42.0" fill="#FEFFFF" transform="matrix(1.00, 0.00, -0.00, -1.00, 231.0, 26.0)">a</text><text xml:space="preserve" font-family="HelveticaNeue-Light" font-size="42.0" fill="#FEFFFF" transform="matrix(1.00, 0.00, -0.00, -1.00, 252.8, 26.0)">l</text><text xml:space="preserve" font-family="HelveticaNeue-Light" font-size="42.0" fill="#FEFFFF" transform="matrix(1.00, 0.00, -0.00, -1.00, 260.5, 26.0)"> </text><text xml:space="preserve" font-family="HelveticaNeue-Light" font-size="42.0" fill="#FEFFFF" transform="matrix(1.00, 0.00, -0.00, -1.00, 272.2, 26.0)">2</text><text xml:space="preserve" font-family="HelveticaNeue-Light" font-size="42.0" fill="#FEFFFF" transform="matrix(1.00, 0.00, -0.00, -1.00, 295.6, 26.0)">0</text><text xml:space="preserve" font-family="HelveticaNeue-Light" font-size="42.0" fill="#FEFFFF" transform="matrix(1.00, 0.00, -0.00, -1.00, 318.9, 26.0)">1</text><text xml:space="preserve" font-family="HelveticaNeue-Light" font-size="42.0" fill="#FEFFFF" transform="matrix(1.00, 0.00, -0.00, -1.00, 342.3, 26.0)">2</text></g></svg>