<?xml version="1.0" encoding="UTF-8" standalone="no"?><svg xmlns="http://www.w3.org/2000/svg" xmlns:xlink="http://www.w3.org/1999/xlink" clip-rule="evenodd" stroke-miterlimit="4.00" viewBox="0 0 1920 1080"><desc>SVG generated by Keynote</desc><defs></defs><g transform="matrix(1.00, 0.00, -0.00, -1.00, 0.0, 1080.0)"><path d="M 0.0 1080.0 L 1920.0 1080.0 L 1920.0 0.0 L 0.0 0.0 Z M 0.0 1080.0 " fill="#FEFFFF"></path><g><clipPath id="clip-26660"><path d="M 68.4 541.8 L 980.6 541.8 L 980.6 1055.6 L 68.4 1055.6 Z M 68.4 541.8 "></path></clipPath><g clip-path="url(#clip-26660)"><image xlink:href="../../BC8187CC-C861-400D-A3AC-035C40E32DAD/assets/CEA747E6EA4D4C82B72611020607F8AD.png" width="913.00" height="514.00" transform="matrix(1.00, 0.00, -0.00, -1.00, 68.0, 1056.0)"></image></g></g><g><clipPath id="clip-26661"><path d="M 1112.9 586.2 L 1763.0 586.2 L 1763.0 1012.3 L 1112.9 1012.3 Z M 1112.9 586.2 "></path></clipPath><g clip-path="url(#clip-26661)"><image xlink:href="../../BC8187CC-C861-400D-A3AC-035C40E32DAD/assets/F215A7F18DCD27B53EBCB78B6D44D896.png" width="651.00" height="426.00" transform="matrix(1.00, 0.00, -0.00, -1.00, 1113.0, 1012.0)"></image></g></g><g><clipPath id="clip-26662"><path d="M 63.4 25.4 L 982.2 25.4 L 982.2 538.6 L 63.4 538.6 Z M 63.4 25.4 "></path></clipPath><g clip-path="url(#clip-26662)"><image xlink:href="../../BC8187CC-C861-400D-A3AC-035C40E32DAD/assets/FADA7D39055CB0A3DCD4CD8040D87D46.png" width="919.00" height="513.00" transform="matrix(1.00, 0.00, -0.00, -1.00, 63.0, 539.0)"></image></g></g><g><clipPath id="clip-26663"><path d="M 980.4 31.3 L 1892.9 31.3 L 1892.9 544.6 L 980.4 544.6 Z M 980.4 31.3 "></path></clipPath><g clip-path="url(#clip-26663)"><image xlink:href="../../BC8187CC-C861-400D-A3AC-035C40E32DAD/assets/414846691C3816A00BAF23D9152F65B7.png" width="913.00" height="513.00" transform="matrix(1.00, 0.00, -0.00, -1.00, 980.0, 545.0)"></image></g></g><text xml:space="preserve" font-family="HelveticaNeue" font-size="36.0" fill="#000000" transform="matrix(1.00, 0.00, -0.00, -1.00, 1554.6, 14.1)">T</text><text xml:space="preserve" font-family="HelveticaNeue" font-size="36.0" fill="#000000" transform="matrix(1.00, 0.00, -0.00, -1.00, 1571.3, 14.1)">o</text><text xml:space="preserve" font-family="HelveticaNeue" font-size="36.0" fill="#000000" transform="matrix(1.00, 0.00, -0.00, -1.00, 1592.0, 14.1)">r</text><text xml:space="preserve" font-family="HelveticaNeue" font-size="36.0" fill="#000000" transform="matrix(1.00, 0.00, -0.00, -1.00, 1603.3, 14.1)">o</text><text xml:space="preserve" font-family="HelveticaNeue" font-size="36.0" fill="#000000" transform="matrix(1.00, 0.00, -0.00, -1.00, 1624.0, 14.1)"> </text><text xml:space="preserve" font-family="HelveticaNeue" font-size="36.0" fill="#000000" transform="matrix(1.00, 0.00, -0.00, -1.00, 1634.0, 14.1)">a</text><text xml:space="preserve" font-family="HelveticaNeue" font-size="36.0" fill="#000000" transform="matrix(1.00, 0.00, -0.00, -1.00, 1653.3, 14.1)">n</text><text xml:space="preserve" font-family="HelveticaNeue" font-size="36.0" fill="#000000" transform="matrix(1.00, 0.00, -0.00, -1.00, 1673.3, 14.1)">d</text><text xml:space="preserve" font-family="HelveticaNeue" font-size="36.0" fill="#000000" transform="matrix(1.00, 0.00, -0.00, -1.00, 1694.7, 14.1)"> </text><text xml:space="preserve" font-family="HelveticaNeue" font-size="36.0" fill="#000000" transform="matrix(1.00, 0.00, -0.00, -1.00, 1704.7, 14.1)">B</text><text xml:space="preserve" font-family="HelveticaNeue" font-size="36.0" fill="#000000" transform="matrix(1.00, 0.00, -0.00, -1.00, 1729.3, 14.1)">u</text><text xml:space="preserve" font-family="HelveticaNeue" font-size="36.0" fill="#000000" transform="matrix(1.00, 0.00, -0.00, -1.00, 1749.4, 14.1)">r</text><text xml:space="preserve" font-family="HelveticaNeue" font-size="36.0" fill="#000000" transform="matrix(1.00, 0.00, -0.00, -1.00, 1762.0, 14.1)">n</text><text xml:space="preserve" font-family="HelveticaNeue" font-size="36.0" fill="#000000" transform="matrix(1.00, 0.00, -0.00, -1.00, 1782.0, 14.1)">o</text><text xml:space="preserve" font-family="HelveticaNeue" font-size="36.0" fill="#000000" transform="matrix(1.00, 0.00, -0.00, -1.00, 1802.7, 14.1)">d</text><text xml:space="preserve" font-family="HelveticaNeue" font-size="36.0" fill="#000000" transform="matrix(1.00, 0.00, -0.00, -1.00, 1824.0, 14.1)"> </text><text xml:space="preserve" font-family="HelveticaNeue" font-size="36.0" fill="#000000" transform="matrix(1.00, 0.00, -0.00, -1.00, 1834.0, 14.1)">2</text><text xml:space="preserve" font-family="HelveticaNeue" font-size="36.0" fill="#000000" transform="matrix(1.00, 0.00, -0.00, -1.00, 1854.0, 14.1)">0</text><text xml:space="preserve" font-family="HelveticaNeue" font-size="36.0" fill="#000000" transform="matrix(1.00, 0.00, -0.00, -1.00, 1874.1, 14.1)">0</text><text xml:space="preserve" font-family="HelveticaNeue" font-size="36.0" fill="#000000" transform="matrix(1.00, 0.00, -0.00, -1.00, 1894.1, 14.1)">5</text></g></svg>