<?xml version="1.0" encoding="UTF-8" standalone="no"?><svg xmlns="http://www.w3.org/2000/svg" xmlns:xlink="http://www.w3.org/1999/xlink" clip-rule="evenodd" stroke-miterlimit="10" viewBox="0 0 1920 1080"><desc>SVG generated by Keynote</desc><defs></defs><g transform="matrix(1.00, 0.00, -0.00, -1.00, 0.0, 1080.0)"><path d="M 0.0 1080.0 L 1920.0 1080.0 L 1920.0 0.0 L 0.0 0.0 Z M 0.0 1080.0 " fill="#FEFFFF"></path><g><clipPath id="clip0x6100008ab220"><path d="M 659.4 130.4 L 659.4 842.5 L 1681.1 842.5 L 1681.1 130.4 Z M 659.4 130.4 "></path></clipPath><g clip-path="url(#clip0x6100008ab220)"><g><clipPath id="clip0x6100008acf00"><path d="M 659.0 130.0 L 659.0 843.0 L 1681.0 843.0 L 1681.0 130.0 Z M 659.4 130.4 "></path></clipPath><g clip-path="url(#clip0x6100008acf00)"><image xlink:href="D4715FE8E00E22E8C2C33720B226B419.jpeg" width="766.00" height="627.00" transform="matrix(0.00, 0.93, 1.63, -0.00, 659.0, 130.0)"></image></g></g></g></g><g><clipPath id="clip0x6080012b1ca0"><path d="M 1581.7 484.9 L 1581.7 464.6 L 1461.4 464.6 L 1461.4 484.9 Z M 1581.7 484.9 "></path></clipPath><g clip-path="url(#clip0x6080012b1ca0)"><path d="M 1580.7 474.7 L 1462.0 465.6 L 1462.0 483.9 Z M 1580.7 474.7 " fill="#FEFFFF"></path></g></g><g><clipPath id="clip0x6080012b1ee0"><path d="M 1617.0 468.1 L 1523.0 485.7 L 1525.0 496.3 L 1619.0 478.6 Z M 1617.0 468.1 "></path></clipPath><g clip-path="url(#clip0x6080012b1ee0)"><path d="M 1570.2 477.9 L 1525.8 495.1 L 1617.9 477.8 Z M 1570.2 477.9 " fill="#000000"></path></g></g><g><clipPath id="clip0x6080012b2120"><path d="M 1512.1 457.7 L 1604.8 481.2 L 1607.4 470.8 L 1514.7 447.3 Z M 1512.1 457.7 "></path></clipPath><g clip-path="url(#clip0x6080012b2120)"><path d="M 1558.7 468.5 L 1606.2 471.6 L 1515.4 448.5 Z M 1558.7 468.5 " fill="#000000"></path></g></g><g><clipPath id="clip0x6080012b2360"><path d="M 352.3 538.5 L 548.8 1122.1 L 1475.3 810.0 L 1278.7 226.4 Z M 352.3 538.5 "></path></clipPath><g clip-path="url(#clip0x6080012b2360)"><g><clipPath id="clip0x6080012b24e0"><path d="M 416.3 728.2 C 415.9 727.6 415.7 727.0 415.9 726.6 C 416.1 725.7 417.5 725.3 420.0 725.8 C 424.4 726.5 446.3 717.7 447.9 714.6 C 448.4 713.4 445.4 712.3 440.3 711.9 C 430.2 711.0 429.5 707.4 439.6 707.5 C 443.3 707.6 446.7 707.2 446.9 706.6 C 447.2 706.0 450.0 705.9 453.1 706.4 C 460.0 707.5 482.4 702.3 483.1 699.5 C 483.3 698.4 480.5 696.7 476.8 695.7 C 471.8 694.2 470.1 693.0 470.0 690.3 C 469.9 685.8 469.2 686.5 479.0 681.0 C 491.8 673.9 492.1 673.7 489.1 671.8 C 487.7 671.0 481.4 670.6 475.2 671.0 C 466.1 671.5 462.8 672.4 458.0 675.6 C 451.2 680.1 449.0 679.9 452.4 675.0 C 453.7 673.2 454.4 671.1 454.0 670.5 C 453.0 668.9 462.9 666.4 467.2 667.1 C 469.3 667.5 474.3 667.2 478.3 666.5 C 482.4 665.8 490.6 664.8 496.5 664.2 C 502.4 663.7 508.2 662.5 509.4 661.4 C 511.4 659.8 510.9 659.1 506.0 656.7 C 496.2 652.0 484.4 642.9 485.8 641.2 C 486.5 640.4 487.3 639.9 487.5 640.1 C 487.8 640.4 490.4 642.9 493.3 645.8 C 498.2 650.6 499.1 650.8 504.8 648.7 C 508.7 647.2 511.7 647.0 513.0 648.1 C 514.1 649.1 515.6 649.2 516.3 648.4 C 517.0 647.5 520.4 648.6 523.8 650.6 C 528.7 653.6 530.3 653.9 531.3 651.8 C 532.4 649.7 533.5 649.9 536.9 652.8 C 539.2 654.7 543.2 656.1 545.8 655.9 C 548.4 655.7 553.9 656.0 557.8 656.5 C 565.2 657.4 568.7 655.9 565.4 653.3 C 564.4 652.5 562.8 649.4 561.8 646.4 C 560.3 642.0 558.7 640.7 553.4 639.2 C 549.7 638.2 547.3 637.2 548.0 637.0 C 548.6 636.8 547.4 635.1 545.2 633.4 C 535.9 626.2 545.5 629.0 556.6 636.7 C 559.5 638.8 559.7 638.7 560.5 633.7 C 561.2 629.0 562.2 628.1 569.8 625.3 C 583.3 620.3 584.1 616.9 572.3 615.5 C 568.8 615.1 566.2 614.1 566.4 613.2 C 566.6 612.3 565.0 611.3 563.0 611.0 C 556.7 609.9 557.8 607.5 565.7 604.8 C 571.1 603.0 574.9 600.2 579.7 594.9 C 583.3 590.8 586.4 586.7 586.7 585.7 C 588.2 579.3 561.6 586.0 553.2 594.1 C 549.4 597.7 547.6 598.7 545.8 597.8 C 542.2 596.0 539.0 597.7 536.2 602.9 L 533.7 607.5 L 529.3 605.3 C 523.6 602.6 524.2 600.2 531.2 597.5 C 538.4 594.8 540.1 592.9 536.9 590.9 C 533.7 588.9 536.0 586.2 540.3 586.8 C 546.2 587.8 562.1 581.8 564.3 577.9 C 565.4 576.0 565.7 574.0 565.0 573.4 C 562.8 571.6 566.3 571.2 571.3 572.8 C 575.1 574.0 579.4 573.1 595.9 567.5 C 608.2 563.4 615.8 560.2 615.4 559.2 C 615.2 558.3 609.2 557.6 602.2 557.6 C 595.1 557.5 586.1 556.8 582.1 555.9 C 578.1 555.1 574.0 555.0 573.0 555.9 C 572.0 556.7 571.1 556.6 570.9 555.5 C 570.1 548.3 539.9 553.7 531.1 562.7 C 525.8 568.2 525.7 568.2 525.3 565.5 C 525.2 564.4 526.2 562.4 527.6 561.2 C 529.1 560.0 529.4 558.7 528.4 558.2 C 524.4 556.7 508.3 557.6 500.9 559.7 C 494.0 561.7 492.9 561.6 491.7 558.6 C 491.0 556.7 491.1 555.3 492.1 555.5 C 493.0 555.7 494.8 555.1 496.0 554.2 C 497.8 552.7 497.6 552.1 495.1 550.4 C 493.5 549.2 495.4 549.8 499.3 551.6 C 505.5 554.4 509.1 554.5 523.2 552.6 C 532.4 551.3 542.2 550.4 545.0 550.5 C 552.6 550.8 553.4 547.3 546.3 545.1 C 543.0 544.1 538.0 541.3 535.0 538.7 C 532.0 536.1 527.5 533.1 525.1 532.0 C 522.7 530.9 521.1 530.0 521.5 530.1 C 521.9 530.2 523.0 529.2 523.8 527.8 C 525.0 525.9 525.6 526.0 526.4 528.5 C 528.0 533.2 532.6 534.5 534.1 530.6 C 535.2 527.9 536.4 528.0 544.2 531.7 C 550.1 534.6 553.2 535.3 553.5 533.8 C 553.9 532.2 554.7 531.9 556.3 532.6 C 557.9 533.4 559.1 532.9 560.4 531.0 C 561.4 529.5 561.4 530.4 560.3 532.9 L 558.4 537.6 L 563.3 539.2 C 566.4 540.3 568.5 540.1 569.4 538.7 C 570.3 537.3 571.9 537.6 574.4 539.6 C 576.5 541.2 582.1 542.7 586.7 542.8 C 591.4 543.0 597.1 543.6 599.4 544.1 C 605.3 545.6 606.5 543.2 603.1 536.7 C 599.5 529.9 594.5 525.7 589.9 525.8 C 587.4 525.8 586.7 525.2 587.5 523.6 C 588.3 522.0 589.7 521.7 592.3 522.8 C 594.3 523.6 597.6 524.3 599.7 524.2 C 601.8 524.2 605.6 526.3 608.3 529.0 C 611.8 532.5 613.9 533.4 616.0 532.3 C 618.8 530.8 618.8 531.0 616.3 534.4 C 614.9 536.5 613.4 539.9 613.0 541.9 C 612.5 545.1 613.4 546.3 618.4 548.9 C 623.4 551.6 632.9 554.2 636.5 554.0 C 636.9 553.9 640.2 554.2 643.7 554.5 C 654.9 555.5 676.3 552.4 677.7 549.6 C 678.5 547.8 677.1 546.5 671.8 544.5 C 668.0 542.9 665.7 541.4 666.7 541.1 C 667.7 540.7 669.2 541.0 670.0 541.7 C 670.8 542.4 672.0 542.4 672.6 541.7 C 674.5 539.4 679.2 540.7 684.4 545.0 C 688.5 548.4 689.8 548.8 691.1 546.7 C 692.3 544.8 693.4 544.4 695.6 545.2 C 697.2 545.9 699.1 545.6 699.9 544.7 C 700.7 543.8 702.6 544.0 704.2 545.1 C 706.1 546.4 707.4 546.5 707.7 545.2 C 708.0 543.8 710.6 543.1 716.1 542.9 C 720.5 542.8 724.6 542.1 725.2 541.3 C 726.3 540.0 715.0 529.0 710.6 527.1 C 709.4 526.6 708.2 524.9 708.0 523.4 C 707.6 519.7 704.2 519.1 697.8 521.5 L 692.6 523.5 L 695.8 517.7 L 699.1 511.8 L 694.0 507.7 C 689.7 504.1 688.3 503.9 684.0 505.9 C 680.2 507.7 679.2 507.7 680.0 505.8 C 681.5 501.7 666.7 500.4 653.6 503.6 C 642.8 506.1 642.5 506.1 646.2 502.8 L 650.1 499.4 L 637.2 493.7 C 630.1 490.6 621.0 487.5 617.0 486.8 C 613.0 486.1 609.8 485.1 610.0 484.6 C 610.1 484.1 608.7 482.8 606.9 481.7 C 603.7 479.7 603.7 479.6 608.8 481.0 C 611.8 481.7 615.1 481.5 616.4 480.3 C 618.5 478.7 617.8 478.1 612.3 476.1 C 608.8 474.9 604.0 472.0 601.7 469.8 C 599.4 467.5 594.6 464.4 591.0 462.7 C 587.5 461.1 585.6 460.0 586.8 460.2 C 588.0 460.5 589.2 459.8 589.5 458.7 C 589.7 457.7 593.6 460.3 598.1 464.7 C 606.3 472.6 620.2 479.3 622.6 476.4 C 623.3 475.6 624.2 476.0 624.7 477.4 C 625.5 479.9 638.4 483.7 655.1 486.3 C 660.4 487.1 665.9 488.5 667.2 489.3 C 668.6 490.2 672.9 491.4 676.9 492.0 C 685.2 493.3 686.4 491.6 682.2 484.2 C 680.4 480.9 679.2 475.0 678.9 467.3 C 678.7 460.3 677.5 453.4 675.9 450.4 C 673.7 446.2 673.7 445.8 676.1 448.4 C 677.6 450.0 679.2 451.2 679.6 451.1 C 680.0 451.0 680.9 447.5 681.7 443.4 C 682.5 439.3 683.5 436.1 683.9 436.3 C 684.3 436.6 683.8 440.9 682.7 445.9 C 679.7 459.9 681.2 475.9 686.4 485.6 C 691.4 495.2 695.2 495.7 697.8 487.1 C 699.3 482.1 699.1 480.8 696.1 477.6 C 694.3 475.5 691.3 472.9 689.5 471.8 C 687.3 470.4 686.6 469.1 687.3 467.6 C 688.0 466.1 689.7 466.4 692.5 468.6 C 695.1 470.7 697.4 471.2 698.7 470.1 C 700.1 469.0 700.7 469.2 700.7 470.9 C 700.6 472.2 701.6 473.8 702.9 474.5 C 704.6 475.3 705.9 474.4 707.8 471.0 C 710.1 466.6 710.4 466.5 714.2 468.2 C 716.4 469.1 718.8 469.2 719.5 468.3 C 720.2 467.4 721.1 467.5 721.4 468.4 C 721.7 469.3 720.2 470.6 718.1 471.3 C 716.0 472.0 714.1 473.3 713.9 474.1 C 713.5 475.9 720.9 484.4 722.5 483.8 C 723.1 483.6 725.2 480.8 727.0 477.5 C 729.2 473.6 729.7 473.1 728.5 476.1 C 727.5 478.6 727.3 480.5 727.9 480.2 C 728.6 480.0 728.8 481.0 728.2 482.4 C 727.5 484.2 730.1 486.4 737.8 490.6 C 746.0 495.1 748.3 495.7 748.4 493.5 C 748.5 490.9 748.8 490.9 751.4 492.7 C 753.5 494.1 754.4 494.1 754.8 492.4 C 755.2 490.7 756.1 490.6 758.2 492.1 C 760.9 494.0 761.2 493.7 762.5 488.9 C 764.2 482.3 760.4 477.7 752.1 476.5 C 749.0 476.0 746.7 474.7 746.9 473.7 C 747.2 472.4 748.3 472.1 750.1 472.8 C 754.7 474.6 757.9 465.8 754.7 460.2 C 752.7 456.8 752.7 455.9 754.4 456.8 C 755.8 457.5 757.6 457.3 758.6 456.5 C 760.0 455.4 760.8 456.4 761.6 460.5 C 765.9 481.6 766.8 483.3 770.4 476.6 C 771.6 474.3 776.2 468.9 780.5 464.6 C 784.8 460.2 789.5 454.2 790.9 451.2 C 795.6 440.7 797.0 440.2 807.4 446.0 C 816.8 451.1 816.8 451.2 817.0 446.9 C 817.1 444.2 817.8 443.1 818.9 444.0 C 819.8 444.8 821.6 444.6 822.9 443.6 C 824.8 442.1 825.1 442.2 824.1 444.5 C 822.4 448.1 823.1 449.9 828.5 456.0 C 831.8 459.8 833.2 460.5 834.1 458.7 C 835.6 455.8 837.6 454.9 838.3 457.0 C 838.6 457.9 837.9 458.9 836.7 459.3 C 833.0 460.6 831.8 465.9 834.8 467.7 C 836.6 468.8 837.0 469.8 836.1 470.9 C 833.4 474.1 837.7 474.7 845.1 472.2 C 849.9 470.6 853.1 468.6 853.8 466.7 C 855.3 462.9 858.5 461.7 860.5 464.1 C 862.2 466.2 873.1 463.5 873.7 460.9 C 874.5 457.6 868.3 452.3 862.7 451.5 C 859.6 451.0 857.2 449.8 857.4 448.9 C 857.6 448.0 856.1 446.7 853.9 446.1 C 848.7 444.5 850.0 442.6 858.1 439.9 C 866.1 437.2 867.6 434.1 861.1 433.4 C 857.7 433.0 856.7 432.2 857.5 430.4 C 858.6 427.4 867.1 425.3 871.3 426.9 C 872.9 427.5 874.4 427.4 874.8 426.7 C 875.9 424.5 882.6 426.6 882.5 429.1 C 882.4 431.6 891.3 435.7 894.5 434.6 C 895.4 434.3 897.5 432.0 899.1 429.7 C 901.1 426.7 902.7 425.6 904.4 426.3 C 907.1 427.3 909.8 425.1 909.0 422.6 C 908.7 421.7 906.0 420.0 903.1 418.6 C 900.2 417.3 898.0 415.3 898.3 414.1 C 898.6 412.7 899.7 412.7 901.6 414.0 C 903.2 415.2 905.1 415.3 905.9 414.4 C 906.6 413.6 908.0 413.5 908.9 414.3 C 910.2 415.3 911.1 414.6 912.0 412.0 C 913.2 408.5 913.3 408.5 914.0 413.2 C 915.2 420.4 921.1 425.6 925.2 422.9 C 928.1 421.1 928.4 421.2 927.3 424.1 C 925.6 428.5 928.6 432.2 931.7 429.6 C 933.5 428.2 934.0 428.4 933.9 430.6 C 933.8 432.6 936.8 434.6 943.7 437.3 L 953.6 441.1 L 954.1 434.5 C 954.7 426.4 954.7 426.7 950.3 424.2 C 947.7 422.7 947.1 421.6 947.9 419.9 C 948.5 418.6 948.4 416.8 947.5 415.8 C 946.7 414.8 947.2 412.8 948.6 411.4 C 950.6 409.3 951.9 409.1 955.0 410.9 C 957.4 412.2 959.8 412.3 961.5 411.0 C 963.2 409.8 965.9 409.8 968.9 411.2 C 973.7 413.4 994.7 413.7 996.4 411.6 C 998.1 409.6 987.1 399.9 982.6 399.4 C 980.3 399.2 977.5 397.7 976.5 396.2 C 974.9 393.7 973.8 393.8 967.4 397.0 C 960.9 400.3 960.4 400.3 962.5 397.3 C 964.7 394.1 964.6 394.0 960.1 392.9 C 957.5 392.2 952.4 391.2 948.6 390.6 C 935.8 388.6 942.6 387.4 959.1 388.7 C 977.3 390.2 979.9 388.9 976.8 379.7 C 975.6 376.0 973.6 374.0 969.8 372.7 C 966.9 371.7 964.8 370.2 965.2 369.4 C 965.6 368.7 963.6 366.7 960.9 365.1 C 958.2 363.5 959.8 364.1 964.4 366.4 C 969.1 368.7 973.3 370.3 973.9 369.9 C 975.5 368.7 981.9 372.3 985.8 376.5 C 988.6 379.5 989.8 379.8 992.4 377.9 C 995.0 376.0 995.0 376.7 992.0 382.1 C 990.1 385.7 988.8 389.5 989.1 390.5 C 989.5 391.5 994.9 395.0 1001.2 398.4 C 1007.5 401.7 1014.0 405.7 1015.7 407.4 C 1018.6 410.1 1018.8 410.1 1021.7 406.4 C 1023.4 404.3 1024.5 401.7 1024.1 400.6 C 1023.8 399.6 1024.4 397.0 1025.6 394.9 C 1026.8 392.8 1027.1 390.4 1026.2 389.8 C 1025.4 389.0 1025.7 388.7 1026.8 389.0 C 1029.5 389.6 1032.0 380.4 1029.9 377.8 C 1028.6 376.3 1029.4 375.7 1033.5 375.0 C 1041.5 373.8 1044.8 372.6 1048.7 369.8 L 1052.2 367.2 L 1049.5 371.0 C 1048.1 373.1 1047.5 375.3 1048.3 376.0 C 1049.0 376.6 1048.1 378.4 1046.1 380.1 C 1044.1 381.7 1042.3 385.6 1042.1 388.8 C 1041.5 396.6 1044.6 398.2 1048.0 391.9 C 1050.2 387.8 1050.9 387.4 1052.3 389.2 C 1054.8 392.2 1056.6 391.2 1060.8 384.3 C 1063.6 379.8 1064.8 378.8 1065.9 380.3 C 1066.8 381.4 1069.5 383.2 1072.0 384.3 C 1074.5 385.5 1077.9 387.7 1079.5 389.2 C 1081.6 391.2 1083.3 391.4 1085.7 390.0 C 1088.8 388.1 1088.9 388.2 1086.0 393.1 C 1082.7 398.9 1080.7 409.7 1083.0 410.3 C 1085.4 410.8 1098.2 400.7 1100.7 396.3 C 1101.9 394.1 1104.1 392.3 1105.6 392.4 C 1107.0 392.4 1109.0 390.6 1110.0 388.3 C 1112.1 383.5 1114.4 382.1 1114.3 385.8 C 1114.1 389.6 1122.0 396.5 1124.4 394.6 C 1125.9 393.3 1126.6 394.1 1127.3 398.7 C 1127.9 402.2 1129.1 404.6 1130.5 404.9 C 1132.0 405.3 1131.4 407.0 1128.8 410.2 C 1125.4 414.2 1125.2 415.5 1127.3 418.8 C 1128.6 420.9 1131.2 425.3 1133.0 428.6 C 1138.4 438.2 1139.8 438.6 1143.7 431.6 C 1145.5 428.1 1149.4 422.4 1152.3 418.9 C 1155.2 415.3 1157.2 411.3 1156.7 410.0 C 1156.3 408.6 1156.7 407.7 1157.7 408.0 C 1158.7 408.2 1159.7 407.4 1160.0 406.3 C 1160.3 404.9 1162.2 405.0 1165.5 406.5 L 1170.5 408.8 L 1166.1 414.0 C 1159.7 421.5 1157.2 426.5 1158.9 428.5 C 1159.7 429.5 1159.0 431.1 1157.4 432.1 C 1155.5 433.4 1155.1 434.9 1156.3 436.7 C 1157.5 438.5 1156.9 440.6 1154.5 443.3 C 1151.9 446.1 1151.0 449.8 1151.2 456.3 C 1151.5 466.2 1153.3 468.0 1157.6 462.5 C 1159.1 460.6 1163.1 457.1 1166.5 454.7 C 1170.2 452.1 1173.1 448.4 1173.8 445.5 C 1174.4 442.8 1176.6 439.8 1178.6 438.8 C 1181.6 437.3 1182.1 437.5 1181.2 439.9 C 1179.8 443.5 1181.7 444.5 1186.6 442.9 C 1188.7 442.1 1190.2 442.4 1189.9 443.5 C 1189.7 444.5 1187.5 446.0 1185.2 446.8 C 1178.4 449.2 1169.4 458.4 1171.5 460.9 C 1172.9 462.7 1172.3 463.2 1168.1 463.7 C 1158.0 465.0 1150.3 470.4 1144.7 480.2 L 1139.5 489.3 L 1147.0 502.8 C 1151.5 510.9 1155.8 516.9 1157.8 517.7 C 1159.6 518.5 1181.9 522.5 1207.4 526.8 L 1253.7 534.4 L 1311.5 516.2 C 1343.3 506.2 1369.5 498.0 1369.7 498.0 C 1370.0 498.1 1371.0 500.6 1372.1 503.7 L 1374.0 509.4 L 1320.8 526.7 L 1267.5 544.0 L 1226.2 579.6 C 1203.4 599.2 1183.8 617.3 1182.6 619.7 C 1181.3 622.1 1179.0 632.5 1177.3 642.7 L 1174.3 661.4 L 1183.6 668.6 C 1195.1 677.4 1200.7 678.3 1215.0 673.7 C 1221.1 671.8 1227.2 670.3 1228.7 670.3 C 1230.2 670.4 1232.9 670.3 1234.8 670.2 C 1236.7 670.1 1234.1 671.0 1229.0 672.3 C 1223.9 673.6 1219.6 675.3 1219.4 676.2 C 1218.9 678.3 1232.9 682.4 1236.4 681.2 C 1237.9 680.7 1240.7 680.7 1242.6 681.1 C 1244.5 681.6 1247.3 681.0 1248.7 679.8 C 1252.1 677.1 1252.8 677.0 1253.6 679.3 C 1253.9 680.3 1256.2 681.1 1258.5 681.1 C 1261.2 681.0 1259.5 681.8 1253.9 683.2 C 1248.9 684.4 1244.5 685.9 1244.2 686.7 C 1242.9 689.4 1255.2 695.8 1260.4 695.0 C 1263.3 694.7 1268.1 695.2 1271.2 696.4 L 1276.7 698.4 L 1271.2 700.7 C 1268.1 701.9 1264.1 705.0 1262.3 707.6 C 1259.3 711.9 1258.6 712.3 1254.5 711.3 C 1249.0 710.0 1233.2 713.0 1232.6 715.5 C 1232.4 716.5 1234.0 717.8 1236.2 718.5 C 1238.4 719.1 1240.3 720.7 1240.4 721.9 C 1240.6 723.3 1243.5 723.8 1248.6 723.3 C 1252.9 722.9 1257.2 722.8 1258.0 723.3 C 1258.9 723.7 1261.1 723.0 1263.0 721.8 C 1265.8 720.0 1266.6 720.1 1267.0 722.5 C 1267.3 724.5 1269.1 725.4 1273.0 725.5 C 1276.0 725.5 1279.3 726.0 1280.3 726.5 C 1281.3 727.1 1280.9 727.5 1279.2 727.5 C 1277.6 727.4 1271.5 728.1 1265.7 728.9 C 1259.8 729.7 1254.0 729.9 1252.7 729.5 C 1248.0 727.9 1247.2 731.9 1251.7 734.3 C 1254.0 735.6 1257.3 738.0 1259.0 739.7 C 1260.7 741.4 1265.0 742.9 1268.4 743.2 C 1271.9 743.4 1274.5 744.1 1274.2 744.8 C 1273.8 745.5 1272.2 745.9 1270.4 745.7 C 1268.6 745.5 1266.6 745.5 1266.0 745.6 C 1265.4 745.8 1264.3 745.5 1263.5 745.1 C 1262.7 744.7 1261.3 745.1 1260.4 745.9 C 1259.4 746.6 1255.9 745.4 1252.5 743.1 C 1247.4 739.7 1245.9 739.4 1244.6 741.5 C 1243.7 743.0 1242.3 743.8 1241.4 743.4 C 1240.6 743.0 1241.0 741.5 1242.2 740.2 C 1243.4 738.8 1243.9 736.1 1243.2 734.1 C 1241.9 730.1 1234.7 726.3 1232.8 728.6 C 1232.1 729.4 1230.8 729.4 1229.9 728.7 C 1229.0 728.0 1227.4 728.1 1226.3 729.1 C 1224.8 730.3 1224.2 730.0 1224.3 728.2 C 1224.4 725.2 1213.9 721.3 1212.5 723.8 C 1212.1 724.7 1211.8 724.4 1212.0 723.3 C 1212.3 722.2 1210.2 720.2 1207.4 718.9 C 1204.6 717.6 1202.4 717.2 1202.6 718.1 C 1202.7 718.9 1203.6 722.5 1204.6 726.0 C 1206.4 732.5 1206.6 734.9 1206.1 741.1 C 1205.7 746.0 1212.1 751.1 1218.8 751.0 C 1221.8 751.0 1225.5 751.6 1227.0 752.4 C 1229.2 753.5 1229.0 753.7 1225.5 753.2 C 1223.2 752.8 1220.8 753.2 1220.1 754.0 C 1216.8 758.0 1225.6 767.0 1231.0 765.1 C 1233.8 764.2 1234.1 764.6 1233.4 768.3 C 1233.0 770.6 1232.9 773.0 1233.3 773.5 C 1234.6 775.4 1231.4 775.6 1228.5 773.8 C 1226.9 772.8 1224.8 772.7 1223.9 773.5 C 1223.0 774.3 1221.4 773.9 1220.4 772.8 C 1219.1 771.1 1218.3 771.2 1217.1 773.2 C 1216.0 775.0 1215.0 775.4 1213.9 774.4 C 1211.3 772.3 1200.5 772.1 1196.0 774.2 C 1193.4 775.4 1191.9 777.5 1191.8 780.2 C 1191.6 786.2 1193.8 787.8 1200.5 786.9 C 1203.9 786.4 1206.7 787.0 1207.2 788.2 C 1208.1 791.0 1206.5 791.5 1201.2 790.0 C 1197.3 788.9 1196.9 789.1 1196.4 792.4 C 1196.0 794.4 1196.3 797.6 1197.0 799.6 C 1197.8 802.0 1197.0 804.4 1195.0 806.4 C 1192.3 808.9 1191.1 809.1 1188.1 807.4 C 1183.1 804.7 1166.7 806.4 1165.0 809.9 C 1164.0 812.0 1164.7 812.9 1168.3 814.2 C 1171.4 815.4 1172.4 816.5 1171.4 817.7 C 1169.6 819.9 1175.8 822.2 1179.8 820.9 C 1181.4 820.3 1182.8 821.1 1183.2 822.7 C 1183.7 824.9 1185.6 825.2 1191.3 824.1 C 1195.3 823.3 1197.1 823.3 1195.3 824.1 C 1193.4 824.9 1191.7 826.4 1191.5 827.6 C 1191.2 828.7 1189.5 829.7 1187.8 829.8 C 1186.1 829.9 1183.7 831.5 1182.4 833.3 C 1180.3 836.1 1179.6 836.1 1176.1 833.3 C 1173.9 831.7 1171.7 830.9 1171.1 831.6 C 1170.6 832.2 1169.2 831.5 1168.1 829.8 C 1167.0 828.2 1165.6 827.5 1164.9 828.4 C 1164.2 829.2 1161.4 828.7 1158.7 827.1 C 1155.3 825.1 1153.1 824.9 1151.0 826.4 C 1148.5 828.2 1148.3 828.1 1149.4 825.3 C 1150.4 822.6 1149.8 821.6 1145.5 818.6 C 1142.7 816.6 1139.8 815.7 1139.2 816.5 C 1138.5 817.3 1138.1 817.1 1138.4 815.9 C 1139.1 812.9 1130.7 805.1 1129.4 807.6 C 1128.9 808.7 1129.0 812.5 1129.6 816.1 C 1130.2 819.6 1129.5 827.1 1128.0 832.6 C 1125.2 842.7 1125.2 842.9 1129.5 847.3 C 1132.5 850.4 1135.4 851.5 1139.0 851.1 C 1141.8 850.8 1144.4 851.2 1144.6 852.0 C 1145.3 854.1 1141.5 855.1 1138.6 853.6 C 1136.1 852.4 1136.1 852.4 1136.3 860.9 C 1136.3 862.3 1137.7 865.1 1139.3 867.1 C 1142.6 871.1 1142.4 873.6 1138.8 871.8 C 1137.5 871.2 1135.8 871.3 1134.9 872.0 C 1133.8 872.9 1132.5 871.6 1131.3 868.3 C 1129.6 863.7 1123.8 850.5 1122.8 848.9 C 1122.6 848.6 1121.3 850.3 1119.9 852.7 C 1118.6 855.2 1115.5 859.1 1113.2 861.5 C 1110.8 863.9 1107.0 869.3 1104.7 873.4 C 1100.8 880.3 1098.0 880.2 1100.7 873.3 C 1101.3 871.7 1101.2 870.1 1100.4 869.7 C 1099.7 869.3 1100.5 866.9 1102.3 864.2 C 1104.5 860.8 1104.7 859.1 1103.1 858.3 C 1099.6 856.6 1099.8 855.0 1103.6 854.7 C 1107.2 854.5 1111.2 849.8 1109.1 848.1 C 1108.4 847.5 1109.1 844.6 1110.5 841.7 C 1112.0 838.8 1112.7 835.1 1112.1 833.4 C 1111.5 831.6 1111.6 829.5 1112.4 828.6 C 1113.1 827.7 1112.9 826.6 1112.0 826.1 C 1109.6 824.9 1093.7 837.0 1092.4 841.0 C 1091.8 842.7 1091.8 844.6 1092.4 845.0 C 1093.0 845.5 1091.4 846.5 1088.9 847.3 C 1086.4 848.0 1084.5 848.0 1084.7 847.3 C 1085.1 845.3 1075.6 843.2 1074.2 844.9 C 1073.5 845.7 1072.3 845.8 1071.4 845.1 C 1070.3 844.2 1069.2 844.7 1067.9 846.6 C 1066.5 848.7 1066.4 848.3 1067.7 845.1 C 1069.4 840.9 1069.3 840.4 1065.7 837.6 C 1060.3 833.3 1052.1 834.6 1048.1 840.3 C 1044.6 845.4 1045.0 847.2 1051.3 854.1 C 1054.5 857.6 1056.8 858.8 1059.1 858.0 C 1061.8 857.1 1062.3 857.5 1061.8 860.3 C 1061.5 862.2 1061.9 864.2 1062.7 864.6 C 1063.6 865.1 1060.7 864.6 1056.3 863.6 C 1048.5 861.7 1048.2 861.8 1047.7 865.2 C 1046.8 870.4 1051.7 878.0 1056.2 878.3 C 1059.1 878.4 1059.3 878.7 1057.3 879.5 C 1055.8 880.0 1054.4 881.9 1054.0 883.7 C 1053.5 886.3 1052.9 886.6 1050.2 885.6 C 1048.5 884.9 1047.2 885.0 1047.4 885.7 C 1047.7 886.5 1046.7 886.1 1045.3 884.8 C 1043.1 882.9 1042.3 883.0 1040.7 885.5 C 1039.0 888.1 1038.9 888.1 1039.9 885.3 C 1040.8 882.7 1040.2 881.8 1036.5 880.3 C 1031.2 878.2 1027.6 879.1 1025.1 883.1 C 1024.1 884.7 1021.9 886.6 1020.0 887.4 C 1018.2 888.1 1015.5 891.7 1014.0 895.3 C 1012.5 898.9 1010.7 901.6 1010.1 901.3 C 1009.5 901.0 1007.4 903.0 1005.3 905.8 L 1001.7 910.8 L 990.1 905.9 C 978.8 901.1 975.7 901.1 977.3 906.0 C 978.0 908.0 977.6 908.2 975.1 907.3 C 973.4 906.6 971.7 906.6 971.4 907.2 C 971.1 907.9 969.0 907.5 966.8 906.4 C 964.5 905.3 962.0 905.1 961.3 905.9 C 960.6 906.8 958.2 906.6 956.0 905.7 C 952.7 904.2 951.4 904.4 949.6 906.6 C 948.1 908.6 946.7 909.0 945.1 908.3 C 943.6 907.5 942.5 909.0 941.5 913.4 C 939.9 920.6 941.4 922.2 949.8 922.8 C 954.1 923.1 955.0 923.7 954.1 926.0 C 953.2 928.4 952.1 928.4 947.3 926.2 C 944.1 924.7 941.1 923.7 940.7 923.9 C 936.8 926.0 934.4 925.3 929.7 920.7 C 925.5 916.5 923.8 915.9 921.6 917.5 C 918.0 920.1 917.3 917.7 920.4 913.9 C 924.1 909.4 921.8 905.1 912.8 900.1 L 904.8 895.6 L 902.4 901.6 C 899.5 908.7 895.7 912.0 892.1 910.6 C 890.1 909.9 889.2 911.4 888.3 917.5 C 887.2 925.0 887.3 925.3 890.7 926.4 C 892.6 927.0 894.9 927.3 895.6 927.1 C 896.4 926.8 896.7 927.4 896.5 928.5 C 896.3 929.5 899.0 930.7 902.5 931.1 C 906.0 931.5 908.7 932.6 908.5 933.5 C 908.3 934.4 909.4 935.1 910.9 935.2 C 912.4 935.3 913.5 936.1 913.3 937.0 C 913.1 937.9 910.8 938.5 908.2 938.4 C 903.2 938.2 898.9 940.7 901.1 942.5 C 901.9 943.1 901.7 944.8 900.7 946.4 C 898.5 949.9 902.2 956.8 909.1 961.8 C 912.1 964.0 912.8 965.0 910.8 964.2 C 905.9 962.4 905.8 966.8 910.6 969.6 C 912.8 970.9 913.6 971.7 912.4 971.5 C 911.2 971.2 909.9 972.3 909.6 973.9 C 909.2 976.4 908.5 976.3 905.8 973.4 C 900.7 967.9 891.0 961.9 889.1 962.9 C 888.2 963.5 887.3 962.8 887.2 961.5 C 887.0 960.3 885.1 958.2 882.9 956.9 C 880.7 955.6 876.2 951.1 873.1 946.9 C 869.9 942.7 866.4 938.8 865.5 938.2 C 864.5 937.7 863.2 942.3 862.5 948.8 C 861.7 956.3 859.2 964.5 855.5 971.8 C 851.5 979.5 850.2 983.9 851.4 985.7 C 852.7 987.6 852.3 988.4 850.0 988.7 C 848.3 989.0 846.7 989.1 846.4 989.0 C 846.2 988.9 845.0 989.0 843.9 989.2 C 842.8 989.5 841.5 988.7 841.1 987.4 C 839.8 983.7 836.5 981.7 834.9 983.6 C 834.1 984.6 834.8 981.9 836.5 977.5 C 838.1 973.2 839.2 968.8 838.9 967.8 C 838.6 966.8 839.1 964.8 840.0 963.2 C 843.3 957.9 838.2 958.5 828.9 964.5 C 823.8 967.8 819.0 970.9 818.2 971.4 C 817.4 971.9 815.1 973.4 813.0 974.9 C 810.7 976.4 807.5 977.1 804.8 976.6 C 802.4 976.2 799.9 976.2 799.3 976.7 C 798.6 977.1 796.8 977.1 795.4 976.5 C 793.4 975.8 792.6 976.3 792.1 978.9 C 791.7 980.7 791.1 981.6 790.7 980.7 C 790.3 979.9 787.9 974.1 785.3 967.7 C 778.9 951.8 778.2 951.1 774.6 957.7 C 773.0 960.6 769.5 965.5 766.9 968.5 C 764.3 971.6 761.9 975.7 761.6 977.6 C 761.3 979.6 760.2 981.1 759.2 980.8 C 758.3 980.6 756.9 982.7 756.2 985.5 C 754.9 990.5 755.0 990.7 759.3 992.3 C 761.7 993.2 764.6 993.9 765.7 993.9 C 766.9 993.9 767.6 994.9 767.2 996.3 C 766.8 998.1 765.5 998.2 761.8 996.5 C 757.1 994.3 756.9 994.4 757.0 997.5 C 757.1 1003.3 755.0 1016.4 753.9 1016.7 C 752.2 1017.3 746.8 996.8 747.5 992.6 C 748.6 986.3 745.4 986.1 741.3 992.2 C 739.2 995.3 733.9 1000.9 729.5 1004.6 C 722.8 1010.3 721.2 1012.7 720.3 1019.1 C 719.3 1025.4 718.6 1026.4 716.4 1025.0 C 715.0 1024.1 714.0 1022.6 714.2 1021.6 C 714.4 1020.7 713.2 1019.3 711.5 1018.7 C 708.9 1017.7 709.6 1016.2 716.2 1008.0 C 723.2 999.4 723.6 998.4 720.5 997.4 C 715.5 995.8 718.4 993.2 725.5 992.8 C 734.8 992.3 743.8 986.0 749.6 976.0 C 752.4 971.2 754.2 966.8 753.6 966.3 C 753.0 965.8 755.7 961.5 759.5 956.7 C 772.5 940.6 770.3 935.5 754.8 945.6 C 750.0 948.7 742.9 952.3 739.0 953.6 C 735.1 954.9 731.6 956.8 731.4 957.8 C 731.2 958.7 727.1 960.4 722.3 961.5 C 712.6 963.7 707.2 968.5 700.5 981.0 C 698.2 985.2 696.5 986.8 695.3 985.8 C 693.3 984.2 693.2 984.4 698.2 979.9 C 700.7 977.7 701.3 976.0 700.1 975.0 C 696.9 972.4 696.2 969.8 698.5 969.0 C 703.0 967.5 701.2 964.4 695.5 963.9 L 689.5 963.4 L 695.3 961.4 C 698.5 960.3 701.3 958.5 701.5 957.5 C 701.8 956.4 705.5 954.8 710.4 953.7 C 719.4 951.6 740.4 940.9 740.2 938.4 C 740.0 935.7 720.8 936.4 711.0 939.6 C 705.4 941.4 701.1 942.0 700.9 941.1 C 700.8 940.2 697.1 940.6 692.4 942.2 C 684.9 944.7 684.0 944.7 681.2 941.2 C 679.6 939.1 677.6 937.6 676.7 937.9 C 675.7 938.2 676.0 936.5 677.1 934.1 C 679.8 928.8 677.9 926.0 673.1 928.2 C 669.7 929.8 669.7 929.6 673.2 923.9 C 676.8 917.8 676.8 917.7 672.3 911.5 C 669.9 908.0 667.1 905.2 666.2 905.2 C 665.3 905.2 663.2 908.0 661.6 911.4 C 659.1 916.7 658.3 917.4 656.2 915.9 C 654.0 914.3 653.3 914.6 651.0 917.8 C 647.8 922.1 650.1 931.2 654.8 933.0 C 656.5 933.7 658.1 935.1 658.4 936.2 C 659.2 938.6 653.4 942.7 649.5 942.5 C 646.4 942.4 642.9 954.0 645.4 956.0 C 646.2 956.7 645.8 957.0 644.6 956.7 C 641.3 955.9 641.7 961.5 645.2 963.7 C 647.9 965.3 647.8 965.5 644.4 964.9 C 641.0 964.3 640.2 963.0 637.6 954.0 C 635.1 945.5 634.0 943.5 630.6 942.0 C 627.9 940.8 626.2 941.0 625.2 942.5 C 624.3 943.7 620.2 947.7 615.8 951.4 C 607.8 958.2 605.9 962.1 608.0 968.2 C 608.6 970.1 608.5 971.4 607.6 970.9 C 606.7 970.5 605.7 969.3 605.4 968.3 C 605.0 967.3 603.4 967.0 601.6 967.5 C 599.5 968.2 598.1 967.5 597.2 965.3 C 596.3 962.8 597.9 959.8 604.0 952.9 C 608.5 947.9 611.5 943.2 610.7 942.6 C 609.9 941.9 605.0 942.8 599.8 944.6 C 593.0 946.8 589.0 947.3 585.7 946.2 L 581.2 944.5 L 583.4 936.5 C 584.7 932.1 585.1 928.3 584.3 928.2 C 581.9 927.6 567.3 938.0 566.3 941.0 C 565.7 942.7 564.1 944.0 562.6 943.9 C 559.0 943.8 558.2 947.6 561.4 949.5 C 562.9 950.5 563.4 951.7 562.7 952.5 C 562.1 953.3 560.8 953.0 559.9 951.9 C 558.5 950.3 557.1 951.3 552.8 957.2 C 549.8 961.3 547.5 965.3 547.8 966.0 C 548.0 966.8 547.5 967.2 546.5 967.0 C 545.6 966.8 546.4 963.2 548.2 959.0 C 550.1 954.8 551.1 950.7 550.5 949.9 C 548.8 947.7 533.2 954.5 529.7 959.0 C 526.5 963.0 525.1 963.7 524.4 961.7 C 524.1 961.0 523.0 959.7 521.8 958.8 C 520.2 957.4 520.5 957.0 523.3 956.8 C 526.6 956.5 530.2 954.2 539.2 946.4 C 541.3 944.5 544.6 943.4 549.0 943.1 C 555.7 942.7 555.0 943.2 581.4 920.8 C 586.4 916.6 582.6 916.2 564.4 919.1 C 552.0 921.1 546.5 922.7 542.8 925.2 C 536.5 929.7 533.1 928.1 537.4 922.7 C 539.9 919.5 540.1 918.3 538.2 917.1 C 536.3 916.0 537.1 915.8 541.3 916.4 C 544.7 916.8 551.9 915.6 559.3 913.3 C 570.0 910.0 571.4 909.2 570.3 907.0 C 568.0 902.7 571.3 901.4 576.8 904.3 C 581.7 907.0 582.3 907.0 585.8 903.4 C 588.0 901.2 590.9 899.8 593.0 899.9 C 597.3 900.1 610.7 895.9 611.6 894.0 C 611.9 893.3 615.9 891.1 620.3 889.2 C 628.4 885.8 632.6 881.8 627.9 882.1 C 626.5 882.2 621.5 882.1 616.6 882.0 C 611.7 881.8 603.5 883.1 598.3 884.8 C 593.1 886.5 587.8 887.6 586.5 887.3 C 585.3 887.0 581.4 887.5 578.0 888.4 C 565.7 891.4 563.2 888.1 573.4 882.4 C 578.8 879.3 580.1 877.9 579.0 875.9 C 577.9 873.8 579.0 872.9 585.8 870.6 C 592.0 868.5 595.3 866.3 599.7 861.0 C 602.9 857.2 607.3 852.7 609.6 851.0 C 616.7 845.6 612.8 845.0 597.2 849.0 C 583.0 852.7 573.8 857.2 571.4 861.7 C 569.9 864.3 567.5 865.0 568.1 862.6 C 568.8 859.7 563.6 860.2 560.6 863.3 C 558.8 865.2 558.4 867.7 559.4 870.8 C 561.0 875.4 559.5 877.7 556.6 875.2 C 555.7 874.5 554.4 874.7 553.7 875.6 C 552.9 876.5 552.5 876.4 552.8 875.2 C 553.6 871.4 550.2 872.3 541.6 877.9 C 536.9 880.9 531.7 884.0 530.0 884.8 C 528.2 885.5 525.4 888.0 523.6 890.2 C 520.6 894.0 520.4 894.1 519.9 891.5 C 519.6 889.9 520.6 887.9 522.2 887.1 C 524.6 885.7 529.5 881.6 544.6 868.3 C 546.5 866.6 549.6 864.5 551.6 863.6 C 561.9 858.7 559.7 855.0 548.7 858.7 C 544.6 860.0 536.0 861.9 529.5 862.8 C 518.0 864.4 510.9 867.6 502.8 874.9 C 501.4 876.1 500.0 876.0 498.9 874.7 C 497.8 873.4 498.0 872.3 499.3 871.8 C 500.4 871.4 501.8 869.9 502.4 868.3 C 503.1 866.6 506.1 864.8 510.0 863.7 C 513.5 862.7 516.5 861.4 516.7 860.8 C 516.8 860.2 522.2 858.4 528.7 856.8 C 539.4 854.1 540.8 853.4 542.3 849.7 C 543.7 846.0 544.2 845.7 546.2 847.3 C 547.5 848.3 548.8 849.7 549.0 850.4 C 549.3 851.1 553.0 851.9 557.3 852.3 C 563.8 852.9 567.4 852.1 578.8 847.5 C 599.1 839.2 599.1 839.2 600.0 837.4 C 600.5 836.5 605.0 834.9 610.1 833.8 C 618.6 832.0 619.5 831.4 620.1 827.8 C 620.7 824.2 620.2 823.8 614.2 823.3 C 610.6 823.1 601.4 821.5 593.8 819.8 C 586.2 818.1 578.0 817.3 575.5 818.0 C 568.9 820.0 563.0 820.0 563.0 818.1 C 563.0 817.1 556.6 816.9 548.7 817.5 C 532.4 819.0 532.4 818.2 548.1 806.5 C 559.1 798.2 571.5 784.8 570.3 782.4 C 569.9 781.5 570.8 779.9 572.3 778.7 C 573.8 777.5 574.5 775.2 574.0 773.6 C 573.4 772.0 574.5 769.3 576.4 767.5 C 578.6 765.4 579.3 763.5 578.2 762.2 C 577.0 760.7 577.6 759.8 580.3 758.9 C 582.6 758.1 584.4 756.1 584.8 753.9 C 585.1 751.9 586.7 749.8 588.3 749.2 C 592.4 747.9 592.9 745.8 589.7 743.7 C 587.2 742.1 587.3 742.0 590.2 743.0 C 593.0 744.0 594.3 743.2 598.6 737.7 C 605.7 728.6 602.1 727.8 588.8 735.6 C 583.0 739.1 574.3 743.8 569.5 746.1 C 564.7 748.3 560.6 751.0 560.3 751.9 C 560.1 753.0 558.8 753.3 557.2 752.6 C 553.2 751.1 542.8 757.1 536.3 764.5 C 531.9 769.5 531.2 771.5 532.5 775.2 C 534.0 779.7 534.0 779.7 529.9 777.7 C 526.7 776.1 524.6 776.3 520.9 778.3 C 510.5 784.1 502.1 791.7 501.6 795.7 C 501.1 799.2 500.7 799.5 499.1 797.5 C 498.0 796.2 496.4 796.0 495.2 796.9 C 494.0 797.9 493.0 797.8 492.9 796.6 C 492.7 795.3 490.9 795.3 487.7 796.8 C 484.0 798.4 482.5 798.4 481.9 796.5 C 481.2 794.6 483.1 793.4 491.4 790.6 C 498.9 788.1 503.8 785.2 510.0 779.7 C 514.6 775.7 521.3 770.5 524.9 768.2 C 532.6 763.2 531.9 760.5 523.5 762.8 C 520.2 763.7 511.4 765.6 503.9 766.9 C 486.6 770.1 485.6 767.2 502.1 761.7 C 511.0 758.6 514.4 756.8 516.0 754.0 C 518.0 750.5 518.2 750.4 521.0 752.7 C 524.6 755.7 529.9 754.2 530.7 750.1 C 531.2 747.4 532.2 747.0 537.8 747.0 C 542.9 747.0 546.3 745.8 554.1 741.5 C 564.4 735.8 569.5 731.5 567.4 730.5 C 566.8 730.1 562.1 729.8 557.0 729.7 C 546.6 729.4 534.9 732.8 532.5 736.7 C 530.9 739.3 530.6 739.2 529.0 735.6 C 528.5 734.5 525.2 734.4 520.9 735.6 C 512.9 737.7 507.4 735.6 509.1 731.0 C 509.9 729.1 509.1 727.6 506.1 725.2 L 502.0 722.0 L 499.4 726.9 C 498.0 729.6 497.4 732.5 498.1 733.4 C 499.2 734.7 495.1 736.7 491.7 736.5 C 491.4 736.5 492.3 733.7 493.6 730.2 C 495.0 726.8 495.5 723.2 494.9 722.4 C 493.0 719.9 480.5 725.8 478.0 730.3 C 476.8 732.5 474.9 734.2 473.8 734.2 C 472.6 734.2 471.1 736.1 470.4 738.5 L 469.1 743.0 L 464.7 740.7 C 459.0 737.9 459.6 735.7 467.1 731.7 C 470.4 730.0 474.0 726.7 475.2 724.3 C 476.3 722.0 478.2 719.9 479.3 719.8 C 483.0 719.1 488.9 714.3 490.6 710.4 C 492.7 705.7 492.8 705.7 473.2 709.5 C 457.2 712.7 452.0 715.2 448.3 721.9 C 446.0 726.1 445.7 726.3 443.4 724.2 C 440.4 721.5 428.2 725.1 424.4 729.7 C 422.4 732.2 421.4 732.3 418.7 730.3 C 417.6 729.6 416.8 728.8 416.3 728.2 Z M 421.4 709.5 C 421.7 709.2 423.0 709.0 425.3 709.1 C 426.9 709.2 428.0 709.7 427.7 710.2 C 427.4 710.7 425.6 710.9 423.8 710.5 C 421.9 710.1 421.1 709.7 421.4 709.5 Z M 465.5 806.9 C 465.8 806.6 466.5 806.3 467.6 805.9 C 469.7 805.2 470.7 805.2 469.8 806.0 C 468.9 806.8 467.1 807.4 465.9 807.4 C 465.3 807.3 465.1 807.1 465.5 806.9 Z M 431.7 666.1 C 432.0 665.5 433.5 665.1 435.0 665.2 C 439.0 665.3 438.8 666.6 434.7 666.9 C 432.8 667.0 431.4 666.7 431.7 666.1 Z M 481.4 771.0 C 481.6 770.1 482.4 769.2 483.2 768.9 C 484.0 768.6 484.9 769.0 485.1 769.7 C 485.4 770.4 484.6 771.4 483.3 771.8 C 482.0 772.2 481.2 771.8 481.4 771.0 Z M 512.5 823.1 C 511.9 821.4 512.9 820.9 517.5 820.8 C 520.7 820.7 523.4 820.9 523.5 821.2 C 523.6 821.4 521.3 822.5 518.4 823.5 C 515.0 824.6 512.9 824.5 512.5 823.1 Z M 527.9 844.7 C 528.0 844.6 528.8 844.9 530.3 845.4 C 532.3 846.1 533.9 846.9 534.0 847.2 C 534.5 848.5 532.8 848.1 529.9 846.2 C 528.5 845.3 527.9 844.8 527.9 844.7 Z M 499.8 748.4 L 505.5 750.8 C 510.7 753.0 512.1 753.9 510.9 754.3 C 510.6 754.4 508.0 753.1 505.1 751.5 L 499.8 748.4 Z M 549.8 889.0 C 549.7 888.6 550.2 887.6 550.8 886.8 C 551.5 886.0 552.3 886.1 552.6 887.0 C 552.9 887.9 552.5 888.8 551.6 889.1 C 550.8 889.4 549.9 889.4 549.8 889.0 Z M 558.0 902.9 C 557.8 902.5 557.8 902.1 558.0 901.7 C 558.4 901.0 559.8 900.7 561.1 901.0 C 563.0 901.4 563.1 901.8 561.7 902.8 C 560.2 904.0 558.4 903.8 558.0 902.9 Z M 522.8 793.2 C 522.7 792.9 523.1 791.9 523.8 791.0 C 524.5 790.2 525.3 790.3 525.6 791.2 C 525.9 792.1 525.5 793.1 524.6 793.4 C 523.7 793.7 522.9 793.6 522.8 793.2 Z M 593.9 985.4 C 593.1 984.8 593.8 981.9 595.4 979.1 L 598.2 973.9 L 596.9 979.6 C 596.2 982.7 595.5 985.6 595.4 985.9 C 595.3 986.2 594.6 986.0 593.9 985.4 Z M 548.8 839.4 C 548.6 838.5 549.4 837.5 550.7 837.0 C 552.0 836.6 553.3 836.9 553.6 837.8 C 553.9 838.7 553.0 839.7 551.7 840.2 C 550.4 840.6 549.1 840.3 548.8 839.4 Z M 469.2 553.4 C 469.4 552.3 470.4 551.7 471.4 551.9 C 474.0 552.5 473.9 553.6 471.1 554.5 C 469.8 555.0 468.9 554.5 469.2 553.4 Z M 550.5 791.4 C 550.0 790.9 551.5 790.0 555.9 787.6 L 561.1 784.8 L 557.1 788.5 C 554.9 790.5 552.4 792.0 551.5 791.8 C 551.0 791.7 550.6 791.6 550.5 791.4 Z M 505.3 573.2 C 505.4 573.0 506.0 572.7 506.9 572.3 C 508.5 571.7 509.6 571.8 509.2 572.5 C 508.9 573.2 507.6 573.7 506.3 573.6 C 505.6 573.5 505.2 573.4 505.3 573.2 Z M 519.8 587.3 C 519.6 587.0 519.7 586.6 519.9 586.1 C 520.2 585.5 521.9 585.1 523.8 585.2 C 527.0 585.3 527.1 585.4 524.5 586.9 C 522.4 588.1 520.3 588.1 519.8 587.3 Z M 662.4 1003.7 C 661.7 1002.1 662.1 1000.5 663.3 1000.1 C 664.5 999.7 666.4 998.5 667.6 997.5 C 670.9 994.8 670.6 996.5 666.9 1001.8 C 663.7 1006.3 663.6 1006.4 662.4 1003.7 Z M 660.0 945.6 C 660.1 945.4 661.1 945.5 663.2 945.8 C 665.6 946.2 667.2 947.1 666.9 947.8 C 666.5 948.5 664.6 948.2 662.6 947.1 C 660.8 946.2 659.9 945.7 660.0 945.6 Z M 705.8 1039.7 C 705.9 1038.5 706.8 1036.4 708.4 1033.7 C 710.6 1029.9 710.9 1029.6 709.7 1032.6 C 708.8 1034.9 708.4 1037.6 708.7 1038.6 C 709.1 1039.6 708.6 1040.7 707.8 1041.0 C 706.4 1041.5 705.7 1041.0 705.8 1039.7 Z M 682.6 963.9 C 682.9 962.9 684.2 962.2 685.6 962.2 C 689.3 962.4 689.2 963.4 685.4 964.7 C 683.7 965.3 682.4 964.9 682.6 963.9 Z M 555.6 521.7 C 555.1 520.3 555.6 519.4 556.6 519.6 C 557.7 519.9 558.7 520.3 558.8 520.6 C 558.9 521.0 558.4 521.9 557.7 522.7 C 557.0 523.6 556.1 523.1 555.6 521.7 Z M 713.1 987.3 C 713.2 987.1 713.7 986.7 714.6 986.4 C 716.3 985.8 717.3 985.8 716.9 986.5 C 716.6 987.2 715.3 987.8 714.0 987.7 C 713.3 987.7 713.0 987.5 713.1 987.3 Z M 590.9 491.5 C 590.3 489.7 596.9 487.0 599.1 488.1 C 601.5 489.3 601.0 489.8 596.2 491.4 C 593.6 492.3 591.2 492.3 590.9 491.5 Z M 602.7 511.9 C 603.0 511.4 604.7 510.8 607.3 510.3 C 613.0 509.2 613.1 509.3 609.1 511.2 C 606.8 512.3 604.0 512.8 603.0 512.3 C 602.7 512.2 602.6 512.1 602.7 511.9 Z M 775.1 1001.3 C 775.2 1001.1 775.8 1001.1 777.1 1001.2 C 778.9 1001.2 780.1 1001.8 779.7 1002.5 C 779.4 1003.1 778.0 1003.1 776.5 1002.3 C 775.5 1001.8 775.0 1001.5 775.1 1001.3 Z M 625.9 525.2 C 626.4 523.7 629.2 521.9 631.9 522.0 C 635.5 522.1 634.7 525.6 630.8 526.9 C 629.2 527.5 627.2 527.4 626.4 526.7 C 625.9 526.3 625.8 525.8 625.9 525.2 Z M 789.9 991.5 C 789.7 991.3 789.6 990.7 789.6 989.9 C 789.7 988.4 790.0 987.1 790.4 987.0 C 791.6 986.5 792.0 989.8 790.8 991.2 C 790.4 991.6 790.1 991.7 789.9 991.5 Z M 617.3 466.7 C 617.2 466.0 617.9 465.7 619.1 465.3 C 621.3 464.5 622.0 465.2 622.3 468.6 C 622.5 471.0 622.6 473.1 622.6 473.3 C 622.5 473.5 621.0 472.0 619.3 470.0 C 618.0 468.3 617.3 467.4 617.3 466.7 Z M 634.0 510.8 C 634.3 510.5 635.1 510.1 636.4 509.7 C 639.0 508.8 640.4 508.7 639.5 509.5 C 638.5 510.3 636.4 511.0 634.8 511.1 C 633.9 511.2 633.7 511.0 634.0 510.8 Z M 638.2 458.5 C 638.3 458.3 638.8 458.0 639.8 457.7 C 641.4 457.1 642.5 457.1 642.1 457.8 C 641.8 458.5 640.4 459.0 639.2 458.9 C 638.4 458.9 638.1 458.8 638.2 458.5 Z M 822.2 998.9 C 821.4 998.2 822.2 997.2 824.0 996.6 C 827.8 995.3 828.4 996.1 825.6 998.4 C 824.5 999.3 823.0 999.5 822.2 998.9 Z M 851.9 1016.7 C 851.2 1014.6 854.1 1014.1 855.7 1016.1 C 856.5 1017.0 857.3 1017.9 857.4 1018.1 C 857.6 1018.2 856.5 1018.3 855.0 1018.2 C 853.5 1018.2 852.1 1017.5 851.9 1016.7 Z M 847.1 1000.2 C 846.9 1000.0 846.8 999.4 846.8 998.6 C 846.9 997.1 847.2 995.8 847.6 995.7 C 848.8 995.2 849.2 998.5 848.0 999.9 C 847.6 1000.3 847.3 1000.4 847.1 1000.2 Z M 856.9 995.1 C 856.4 993.8 856.8 992.8 857.9 993.1 C 858.9 993.3 859.9 993.8 860.0 994.1 C 860.1 994.4 859.6 995.4 858.9 996.2 C 858.2 997.0 857.3 996.5 856.9 995.1 Z M 670.4 439.8 C 670.4 438.6 671.1 439.3 671.8 441.5 C 672.5 443.6 672.5 444.6 671.7 443.7 C 670.9 442.8 670.3 441.0 670.4 439.8 Z M 691.3 453.5 C 691.3 453.1 691.7 452.8 692.5 452.6 C 694.3 452.0 695.4 453.7 697.2 459.9 C 699.5 467.3 699.4 467.5 696.9 461.9 C 695.4 458.6 693.3 455.3 692.2 454.6 C 691.5 454.2 691.2 453.8 691.3 453.5 Z M 723.2 454.5 C 722.8 454.4 722.9 453.8 723.3 452.7 C 723.9 451.2 725.3 449.7 726.5 449.3 C 730.3 448.0 729.8 451.2 725.9 453.4 C 724.4 454.2 723.6 454.6 723.2 454.5 Z M 843.8 700.4 C 845.5 703.7 849.1 707.5 849.9 706.0 C 850.2 705.3 852.3 705.3 854.5 705.9 C 856.8 706.6 859.9 706.7 861.6 706.1 C 863.7 705.4 864.3 705.8 863.7 707.6 C 861.2 714.7 863.3 717.5 874.7 722.1 C 881.5 724.8 887.7 726.1 890.4 725.4 C 892.8 724.8 896.0 724.5 897.3 724.8 C 898.7 725.1 900.9 725.1 902.3 724.8 C 903.6 724.5 907.0 724.0 909.8 723.7 C 912.6 723.4 927.8 719.5 943.6 715.0 C 970.4 707.5 972.5 706.7 975.4 702.6 C 977.5 699.7 979.3 698.7 980.7 699.4 C 982.1 700.1 987.1 697.3 996.0 690.8 C 1003.3 685.5 1019.4 674.3 1031.9 665.9 C 1044.3 657.6 1055.4 649.6 1056.4 648.1 C 1058.0 645.9 1057.8 645.5 1054.3 644.9 C 1052.2 644.5 1049.4 644.6 1048.2 645.0 C 1047.0 645.4 1043.3 645.4 1040.0 644.9 C 1036.7 644.5 1030.2 644.9 1025.6 645.8 C 1020.3 646.8 1017.0 646.7 1016.8 645.5 C 1016.7 644.4 1012.7 642.9 1007.9 642.2 C 1003.1 641.5 997.4 639.9 995.2 638.7 C 993.1 637.5 988.9 636.4 985.9 636.2 C 982.8 635.9 980.6 634.8 980.7 633.5 C 980.7 632.3 979.6 630.7 978.1 630.2 C 975.7 629.3 975.6 628.5 977.0 625.4 C 977.9 623.4 979.2 621.9 979.9 622.0 C 980.6 622.1 984.8 617.5 989.1 611.7 C 993.4 606.0 1000.0 598.2 1003.6 594.5 C 1009.5 588.5 1009.9 587.5 1007.5 585.2 C 1005.6 583.4 1003.2 583.3 999.1 584.6 C 996.0 585.7 991.9 586.0 990.2 585.3 C 986.9 584.0 964.5 584.1 958.2 585.5 C 956.2 586.0 952.6 586.0 950.3 585.6 C 948.0 585.2 944.2 585.5 941.8 586.2 C 933.4 588.9 912.1 598.2 906.0 601.9 C 902.6 603.9 896.3 607.0 892.0 608.6 C 887.8 610.3 883.8 612.1 883.3 612.7 C 882.7 613.3 878.6 615.2 874.1 617.0 C 867.0 619.7 864.6 622.0 855.0 634.5 C 845.0 647.5 844.1 649.5 845.0 655.1 C 845.6 658.8 847.0 661.9 848.5 662.9 C 850.4 664.0 850.5 664.5 848.9 664.6 C 847.7 664.7 846.4 666.5 846.0 668.5 C 845.5 670.6 844.1 675.3 842.6 678.9 C 839.5 686.9 841.1 692.6 846.9 694.3 C 849.3 695.0 850.5 695.8 849.6 696.1 C 848.7 696.4 846.9 696.1 845.5 695.5 C 843.7 694.5 843.1 695.0 843.0 697.3 C 843.0 698.2 843.3 699.2 843.8 700.4 Z M 931.5 943.5 C 931.8 943.2 932.5 942.9 933.6 942.5 C 935.8 941.8 936.8 941.8 935.8 942.6 C 934.9 943.4 933.1 944.0 931.9 943.9 C 931.3 943.9 931.2 943.7 931.5 943.5 Z M 772.0 460.7 C 772.0 460.4 772.2 460.1 772.7 459.9 C 773.6 459.6 774.6 460.1 774.9 460.9 C 775.2 461.8 775.1 462.6 774.7 462.7 C 774.3 462.9 773.4 462.4 772.5 461.7 C 772.1 461.4 771.9 461.0 772.0 460.7 Z M 959.5 930.5 C 959.6 930.3 960.2 930.3 961.5 930.3 C 963.2 930.4 964.5 931.0 964.1 931.6 C 963.8 932.2 962.4 932.2 960.9 931.5 C 959.9 931.0 959.4 930.6 959.5 930.5 Z M 974.3 915.1 C 974.2 914.4 974.4 913.6 975.2 912.5 C 976.6 910.1 976.9 910.1 976.8 912.4 C 976.7 913.9 977.6 915.3 978.7 915.6 C 979.9 915.9 980.6 916.9 980.3 918.0 C 980.1 919.0 979.7 919.7 979.4 919.5 C 979.2 919.2 977.7 918.2 976.2 917.2 C 975.1 916.4 974.5 915.8 974.3 915.1 Z M 818.8 438.7 C 818.6 438.7 818.5 438.1 818.5 436.9 C 818.6 435.3 819.3 433.7 820.1 433.5 C 822.1 432.8 822.1 433.8 820.1 437.0 C 819.4 438.1 819.0 438.7 818.8 438.7 Z M 937.8 693.1 C 938.1 692.6 939.2 692.3 940.3 692.6 C 943.3 693.3 943.2 694.4 940.1 694.3 C 938.6 694.2 937.5 693.7 937.8 693.1 Z M 927.6 606.3 C 927.7 605.7 927.9 604.9 928.3 603.9 C 929.0 602.0 929.2 600.2 928.7 599.8 C 928.3 599.4 928.5 598.6 929.3 598.0 C 930.1 597.5 931.6 598.9 932.7 601.2 C 934.2 604.4 934.0 605.8 932.0 606.9 C 929.1 608.5 927.6 608.2 927.6 606.3 Z M 961.0 701.1 C 961.1 700.9 961.7 700.8 963.0 700.9 C 964.7 700.9 965.9 701.5 965.6 702.2 C 965.2 702.8 963.8 702.8 962.4 702.1 C 961.4 701.5 960.9 701.2 961.0 701.1 Z M 966.2 693.9 C 966.5 693.4 968.1 693.4 969.8 694.1 C 971.5 694.8 972.7 695.8 972.4 696.4 C 972.1 696.9 970.5 696.9 968.8 696.2 C 967.1 695.5 965.9 694.5 966.2 693.9 Z M 1043.6 897.1 C 1043.4 896.8 1043.5 896.3 1043.8 895.5 C 1044.3 894.2 1044.2 892.9 1043.6 892.6 C 1042.9 892.2 1043.3 891.3 1044.3 890.4 C 1045.7 889.3 1046.4 889.9 1046.7 892.6 C 1047.0 894.7 1046.3 896.7 1045.1 897.1 C 1044.3 897.4 1043.8 897.3 1043.6 897.1 Z M 966.8 661.9 C 966.5 661.0 967.0 660.1 967.9 659.8 C 968.8 659.5 969.7 660.0 970.0 660.8 C 970.3 661.7 969.8 662.6 969.0 662.9 C 968.1 663.2 967.1 662.8 966.8 661.9 Z M 953.9 607.8 C 953.8 607.5 954.2 606.4 954.9 605.6 C 955.6 604.8 956.4 604.9 956.7 605.8 C 957.0 606.7 956.6 607.7 955.7 608.0 C 954.8 608.3 954.0 608.2 953.9 607.8 Z M 959.9 604.8 C 959.6 604.0 960.1 603.0 960.9 602.7 C 961.8 602.4 962.7 602.9 963.0 603.8 C 963.3 604.7 962.8 605.6 962.0 605.9 C 961.1 606.2 960.2 605.7 959.9 604.8 Z M 1071.8 856.1 C 1071.6 855.8 1071.7 855.2 1072.1 854.2 C 1072.7 852.7 1073.4 851.4 1073.7 851.3 C 1074.1 851.2 1074.7 852.1 1075.1 853.2 C 1075.5 854.4 1074.7 855.7 1073.4 856.1 C 1072.5 856.4 1072.0 856.4 1071.8 856.1 Z M 1052.6 595.1 L 1059.8 598.4 C 1066.8 601.6 1067.0 601.8 1064.9 605.4 C 1062.1 610.5 1063.0 612.2 1071.4 617.2 L 1078.7 621.5 L 1079.6 615.6 C 1080.1 612.3 1080.4 609.3 1080.3 608.9 C 1080.1 608.4 1080.3 608.0 1080.7 607.8 C 1081.2 607.7 1082.0 607.4 1082.5 607.2 C 1083.1 607.0 1083.0 608.2 1082.3 609.9 C 1081.7 611.5 1081.9 613.7 1082.8 614.8 C 1083.7 615.8 1083.5 618.4 1082.3 620.5 C 1079.1 626.2 1082.3 626.4 1092.3 621.1 C 1104.2 614.8 1163.4 584.5 1196.7 567.6 C 1222.6 554.4 1227.6 551.2 1223.6 550.3 C 1220.9 549.7 1077.3 580.8 1075.3 582.5 C 1074.4 583.2 1074.4 584.8 1075.4 586.0 C 1076.9 587.9 1075.7 589.2 1072.3 589.2 C 1071.6 589.2 1070.3 587.1 1069.4 584.5 C 1067.1 577.8 1061.8 579.2 1056.7 588.1 L 1052.6 595.1 Z M 1070.8 596.4 C 1070.6 596.0 1071.1 595.0 1071.8 594.2 C 1072.5 593.4 1073.3 593.5 1073.6 594.4 C 1073.9 595.3 1073.5 596.3 1072.6 596.6 C 1071.7 596.9 1070.9 596.8 1070.8 596.4 Z M 1168.9 839.0 C 1169.0 838.7 1169.2 838.4 1169.6 838.3 C 1170.6 837.9 1171.6 838.4 1171.9 839.3 C 1172.1 840.1 1172.0 840.9 1171.7 841.1 C 1171.3 841.2 1170.3 840.7 1169.5 840.0 C 1169.1 839.7 1168.9 839.3 1168.9 839.0 Z M 1017.4 367.9 L 1022.0 369.7 C 1024.5 370.7 1026.6 371.7 1026.7 372.0 C 1027.1 373.3 1025.5 372.8 1021.6 370.4 L 1017.4 367.9 Z M 1186.9 846.1 C 1187.0 844.6 1187.5 844.9 1188.2 846.7 C 1188.8 848.3 1188.8 849.4 1188.1 849.0 C 1187.4 848.7 1186.9 847.4 1186.9 846.1 Z M 1021.3 350.1 C 1021.3 349.9 1022.1 350.1 1023.6 350.7 C 1025.5 351.4 1027.3 353.1 1027.8 354.4 C 1028.7 357.3 1028.2 357.0 1023.6 352.7 C 1022.1 351.2 1021.3 350.4 1021.3 350.1 Z M 1212.8 792.7 C 1212.9 792.5 1213.5 792.2 1214.4 791.9 C 1216.0 791.2 1217.1 791.3 1216.7 792.0 C 1216.4 792.7 1215.0 793.2 1213.7 793.1 C 1213.0 793.1 1212.7 793.0 1212.8 792.7 Z M 1088.1 382.6 C 1087.9 382.3 1088.4 381.3 1089.0 380.5 C 1089.7 379.6 1090.6 379.7 1090.9 380.6 C 1091.2 381.5 1090.7 382.5 1089.8 382.8 C 1089.0 383.1 1088.2 383.0 1088.1 382.6 Z M 1221.5 778.6 C 1221.2 777.8 1221.8 777.3 1222.8 777.5 C 1223.8 777.8 1224.9 778.7 1225.2 779.5 C 1225.5 780.4 1224.9 780.9 1223.9 780.7 C 1222.8 780.4 1221.7 779.5 1221.5 778.6 Z M 1239.6 669.0 C 1239.7 668.5 1240.2 668.0 1240.9 667.4 C 1242.4 666.2 1244.4 665.4 1245.4 665.6 C 1246.3 665.8 1245.9 666.9 1244.4 668.1 C 1243.0 669.3 1241.0 670.0 1240.0 669.8 C 1239.6 669.7 1239.4 669.4 1239.6 669.0 Z M 1160.9 387.9 C 1161.0 387.6 1161.5 387.4 1162.4 387.5 C 1165.4 387.6 1165.7 388.1 1164.2 390.0 C 1163.6 390.7 1162.4 390.4 1161.5 389.4 C 1160.9 388.7 1160.7 388.2 1160.9 387.9 Z M 1264.7 681.4 C 1264.8 680.8 1266.3 680.0 1269.4 678.2 C 1274.4 675.4 1275.4 675.9 1274.2 680.6 C 1273.7 683.0 1272.9 683.2 1268.8 682.6 C 1266.0 682.1 1264.6 681.9 1264.7 681.4 Z M 1183.3 431.7 C 1183.0 430.9 1183.5 429.9 1184.4 429.6 C 1185.2 429.3 1186.2 429.8 1186.4 430.7 C 1186.7 431.5 1186.3 432.5 1185.4 432.8 C 1184.6 433.0 1183.6 432.6 1183.3 431.7 Z M 1183.3 431.7 "></path></clipPath><g clip-path="url(#clip0x6080012b24e0)"><image xlink:href="../../A7D022BD-8A0A-4F64-8CDB-07AB06C6E8E9/assets/D4715FE8E00E22E8C2C33720B226B419.jpeg" width="766.00" height="627.00" transform="matrix(0.30, 0.88, 1.54, -0.52, 293.6, 502.5)"></image></g></g></g></g><g><clipPath id="clip0x6100008ad380"><path d="M 107.7 266.8 L 73.3 822.1 L 922.4 874.7 L 956.8 319.3 Z M 107.7 266.8 "></path></clipPath><g clip-path="url(#clip0x6100008ad380)"><g><clipPath id="clip0x6100008adf20"><path d="M 91.9 521.9 C 91.9 521.6 93.0 521.4 94.2 521.5 C 95.5 521.5 96.5 522.3 96.4 523.2 C 96.4 524.1 95.3 524.3 94.1 523.7 C 92.9 523.1 91.9 522.3 91.9 521.9 Z M 107.3 397.1 C 107.3 396.7 108.0 396.1 108.8 395.6 C 109.7 395.5 110.3 395.7 110.3 396.3 C 110.3 396.4 110.3 396.5 110.2 396.6 C 110.0 397.3 109.3 397.8 108.3 397.8 C 107.7 397.7 107.3 397.4 107.3 397.1 Z M 116.5 454.3 C 116.5 454.0 116.6 453.6 116.8 453.2 C 117.3 452.4 118.2 451.9 119.0 451.8 C 119.9 452.0 120.4 452.6 119.9 453.4 C 119.6 453.8 119.2 454.2 118.7 454.4 C 118.3 454.7 117.8 454.8 117.4 454.8 C 117.2 454.8 117.1 454.7 116.9 454.6 C 116.8 454.5 116.6 454.5 116.5 454.3 Z M 125.0 439.4 C 125.5 439.0 128.0 439.6 130.9 440.6 C 131.2 440.8 131.4 440.8 131.7 440.9 C 136.5 443.0 136.9 443.5 134.2 444.3 C 133.9 444.4 133.6 444.3 133.3 444.4 C 131.8 444.3 130.5 443.9 130.1 442.9 C 129.8 442.3 129.2 441.7 128.6 441.3 C 127.9 440.8 127.2 440.5 126.5 440.5 C 125.8 440.5 125.3 440.3 125.0 440.1 C 124.8 439.9 124.8 439.7 125.0 439.4 Z M 123.9 607.1 C 124.0 605.7 125.5 604.7 127.1 604.8 C 129.6 604.9 129.7 605.4 128.0 607.3 C 127.4 608.0 126.9 608.2 126.3 608.6 C 125.5 608.8 124.6 609.0 124.2 608.9 C 124.0 608.4 123.9 607.8 123.9 607.1 Z M 126.7 671.7 C 126.4 671.4 126.9 670.9 128.2 670.0 C 129.8 668.9 132.0 668.5 133.1 669.0 C 134.2 669.6 135.8 670.0 136.7 670.1 C 137.8 670.1 138.2 670.3 138.3 670.6 C 138.3 670.8 137.9 671.0 137.2 671.3 C 135.8 671.8 133.2 672.2 130.8 672.2 C 128.4 672.1 127.1 672.0 126.7 671.7 Z M 150.7 573.5 C 151.1 573.0 152.5 573.2 153.8 573.8 C 157.1 575.5 156.5 576.6 152.9 575.3 C 151.2 574.7 150.2 573.9 150.7 573.5 Z M 166.6 505.6 C 167.0 505.3 168.5 504.3 169.9 503.3 C 170.8 502.6 171.3 502.4 171.6 502.4 C 172.1 502.5 172.3 503.0 172.2 503.9 C 172.2 503.9 172.2 503.9 172.2 504.0 C 172.2 504.1 172.0 504.2 172.0 504.3 C 171.8 504.8 171.6 505.3 171.1 505.6 C 171.0 505.6 171.0 505.6 171.0 505.7 C 170.3 506.0 169.5 506.1 168.5 506.1 C 167.2 506.0 166.3 505.8 166.6 505.6 Z M 165.5 539.9 C 166.3 536.7 187.0 518.3 197.2 512.2 C 200.7 510.1 203.3 508.3 205.2 506.9 C 208.9 504.1 209.3 502.4 206.1 502.1 C 204.5 501.9 202.2 502.1 199.0 502.6 C 191.9 503.6 191.4 503.5 192.9 501.0 C 193.5 499.9 193.7 498.8 193.7 498.0 C 193.6 497.9 193.8 497.5 193.8 497.4 C 193.4 497.0 198.6 497.3 205.3 498.1 C 206.4 498.2 206.5 498.1 207.4 498.2 C 210.8 498.7 213.3 498.9 214.8 498.7 C 217.0 498.6 218.0 498.1 218.5 496.9 C 218.5 496.9 218.5 496.9 218.5 496.9 C 218.6 496.9 218.6 496.9 218.6 496.8 C 219.1 496.2 219.7 495.7 220.2 495.5 C 220.6 495.5 221.0 495.6 221.5 496.1 C 223.2 497.8 229.8 496.1 244.9 490.1 C 249.2 488.3 254.7 486.4 256.6 485.9 C 257.1 485.8 259.2 485.2 261.3 484.6 C 263.5 483.9 277.4 481.5 292.3 479.1 C 307.2 476.8 319.4 474.1 319.5 473.3 C 319.5 473.0 319.4 472.7 319.2 472.4 C 319.0 472.1 318.6 471.8 318.1 471.6 C 318.1 471.5 318.1 471.5 318.1 471.5 C 318.0 471.5 318.0 471.5 318.0 471.5 C 314.8 469.7 306.3 468.0 289.3 465.6 C 267.7 462.6 251.8 458.8 250.4 456.5 C 250.3 456.3 250.6 456.2 250.7 456.0 C 250.7 455.9 250.7 455.8 250.8 455.7 C 250.8 455.7 250.8 455.6 250.8 455.6 C 252.1 454.9 256.9 454.4 261.5 454.6 C 264.5 454.7 266.7 454.6 268.1 454.2 C 268.2 454.2 268.2 454.2 268.2 454.2 C 268.9 454.1 269.4 453.9 269.8 453.6 C 269.8 453.6 269.9 453.6 269.9 453.6 C 270.0 453.5 270.0 453.3 270.1 453.2 C 270.3 453.0 270.5 452.8 270.6 452.6 C 270.9 451.3 272.5 451.1 275.0 451.1 C 276.3 451.2 277.4 451.2 279.6 451.6 C 284.2 452.5 288.3 452.6 288.8 451.8 C 289.0 451.5 288.8 450.8 288.7 450.2 C 288.7 450.0 288.7 449.8 288.7 449.6 C 288.5 449.0 288.1 448.3 287.8 447.6 C 287.5 447.0 287.5 446.7 286.9 445.8 C 286.1 444.4 285.0 442.9 283.8 441.6 C 282.7 440.3 281.6 439.3 280.5 438.6 C 280.5 438.5 280.4 438.5 280.4 438.5 C 278.4 437.1 277.2 435.2 277.7 434.1 C 278.5 432.1 268.7 420.6 261.9 415.0 C 261.1 414.4 260.2 413.5 259.6 413.1 C 259.6 413.0 259.5 413.0 259.4 413.0 C 259.4 412.9 259.3 412.9 259.3 412.8 C 257.1 411.4 255.2 410.9 253.9 411.1 C 253.9 411.1 253.9 411.1 253.9 411.1 C 253.5 411.1 253.4 411.4 253.1 411.6 C 253.0 411.7 252.7 411.8 252.6 412.0 C 252.4 412.5 252.5 413.1 252.8 414.0 C 253.1 414.5 253.1 414.6 253.0 414.8 C 253.0 414.8 253.1 414.9 253.0 414.9 C 252.9 414.9 252.6 414.5 252.4 414.3 C 252.2 414.2 252.1 414.2 251.8 413.8 C 251.1 413.0 250.5 412.6 249.8 412.6 C 249.2 412.4 248.6 412.5 248.1 413.1 C 248.1 413.2 247.9 413.3 247.8 413.4 C 247.8 413.4 247.8 413.4 247.8 413.4 C 246.6 414.3 245.4 414.7 244.9 414.3 C 244.9 414.2 245.0 414.2 245.0 414.2 C 245.0 413.9 245.4 413.4 246.6 412.7 C 247.8 411.9 249.6 411.0 251.7 410.1 C 252.7 409.7 253.4 409.3 254.3 408.8 C 256.6 408.4 259.0 407.1 260.8 405.2 C 263.3 403.2 264.3 401.3 264.0 398.8 C 264.0 398.4 264.0 398.2 264.0 397.9 C 264.0 397.5 264.2 397.0 264.3 396.5 C 264.8 395.6 266.4 395.3 270.2 395.3 C 270.3 395.4 270.3 395.5 270.5 395.6 C 271.8 396.3 274.1 396.3 275.6 395.8 C 276.0 395.6 276.8 395.6 277.5 395.5 C 279.3 395.5 281.6 395.4 283.9 395.4 C 284.0 395.4 284.3 395.4 284.5 395.4 C 287.7 395.7 294.1 395.4 299.3 394.7 C 299.8 394.6 301.0 394.5 301.6 394.4 C 302.2 394.4 303.1 394.4 303.7 394.3 C 312.6 393.4 325.8 392.5 332.9 392.3 C 340.1 392.0 345.9 391.1 345.8 390.2 C 345.8 390.1 345.1 389.8 345.0 389.7 C 344.6 389.3 343.8 388.8 342.5 388.1 C 340.2 387.0 337.0 385.6 333.1 384.3 C 326.3 381.9 316.1 377.4 310.5 374.1 C 304.9 370.9 298.5 368.1 296.2 368.0 C 295.2 367.9 294.1 367.7 293.2 367.4 C 293.1 367.3 293.0 367.3 292.9 367.3 C 291.9 366.9 291.1 366.4 290.7 365.9 C 289.8 364.9 285.2 363.4 280.4 362.5 C 276.2 361.8 274.1 361.4 273.4 361.0 C 273.1 360.7 273.2 360.5 273.5 360.2 C 273.9 359.9 274.6 359.5 275.6 359.1 C 280.3 356.8 281.8 354.1 280.1 351.9 C 279.6 351.1 278.6 350.4 277.3 349.8 C 277.3 349.8 277.3 349.8 277.3 349.8 C 276.4 349.3 275.7 348.9 275.2 348.5 C 273.9 347.6 273.8 346.4 273.9 344.9 C 274.2 344.7 274.2 344.5 274.6 344.3 C 275.6 343.7 275.8 342.3 274.9 340.3 C 273.6 337.2 274.5 335.1 276.9 335.3 C 277.3 335.3 277.6 335.6 277.8 336.0 C 277.8 336.0 277.8 336.1 277.8 336.1 C 278.0 336.5 278.1 337.0 278.1 337.5 C 278.1 337.5 278.1 337.6 278.0 337.6 C 278.0 338.1 278.7 339.4 279.7 341.0 C 279.8 341.1 279.8 341.1 279.8 341.2 C 279.9 341.3 279.9 341.3 279.9 341.3 C 283.3 346.5 290.6 355.0 292.7 355.5 C 293.7 355.8 302.8 358.9 312.9 362.3 C 313.3 362.4 313.2 362.4 313.5 362.5 C 317.3 363.7 320.8 364.8 324.2 365.8 C 326.9 366.6 332.2 368.4 332.5 368.4 C 333.1 368.3 334.7 368.6 335.9 369.2 C 336.2 369.4 337.3 369.6 337.8 369.8 C 338.4 370.0 338.9 370.2 339.7 370.4 C 342.6 371.3 345.4 372.0 348.6 372.7 C 353.1 373.8 358.2 375.5 362.3 377.4 C 362.9 377.7 363.4 377.9 364.0 378.2 C 368.4 380.4 373.9 382.0 378.6 382.7 C 382.2 383.3 385.2 383.3 386.8 382.8 C 387.4 382.6 387.8 382.3 388.0 382.0 C 388.4 381.4 385.2 377.0 380.8 372.3 C 376.5 367.5 371.8 360.6 370.6 356.9 C 369.9 355.0 369.1 353.1 368.3 351.5 C 367.4 349.8 366.5 348.3 365.9 347.7 C 364.6 346.3 363.9 344.6 364.4 343.9 C 364.9 343.1 364.1 339.0 362.7 334.8 C 362.1 333.1 361.6 331.7 361.0 330.5 C 361.0 330.5 361.0 330.5 361.0 330.5 C 359.8 328.2 358.3 326.6 355.5 324.6 C 354.0 323.7 352.3 322.6 350.0 321.3 C 344.5 318.1 337.6 314.9 334.7 314.2 C 331.8 313.4 329.5 311.9 329.6 310.8 C 329.6 310.4 329.2 309.7 328.9 309.1 C 328.4 308.2 327.7 307.3 326.6 306.3 C 326.4 306.1 326.3 305.9 326.0 305.8 C 326.0 305.7 325.9 305.6 325.8 305.5 C 325.7 305.5 325.7 305.4 325.6 305.3 C 324.9 304.8 323.8 303.7 322.9 302.8 C 322.4 302.3 321.9 301.9 321.4 301.4 C 316.5 296.3 311.7 290.0 311.8 288.4 C 311.8 287.3 310.9 285.4 309.7 284.2 C 309.7 284.2 309.7 284.2 309.6 284.1 C 309.6 284.1 309.6 284.1 309.6 284.1 C 307.6 281.4 307.5 280.5 308.9 279.5 C 309.3 279.4 309.6 279.2 310.0 279.3 C 311.3 279.4 312.3 280.1 312.2 281.0 C 312.2 281.6 318.1 286.5 324.3 291.3 C 324.3 291.3 324.3 291.4 324.4 291.4 C 325.2 292.0 325.9 292.5 326.7 293.1 C 330.9 296.4 334.3 298.8 336.3 299.8 C 336.8 300.1 337.9 300.9 338.1 300.9 C 338.4 300.9 341.8 304.2 345.4 308.0 C 345.6 308.2 345.6 308.2 345.8 308.4 C 345.8 308.4 345.8 308.4 345.8 308.4 C 349.2 312.1 352.4 314.8 352.8 314.4 C 352.8 314.4 352.9 314.4 352.9 314.4 C 354.7 315.5 356.3 316.1 357.6 316.1 C 358.8 316.5 359.6 316.0 360.6 314.4 C 361.4 313.1 361.8 312.5 362.1 312.5 C 362.3 312.5 362.3 313.1 362.2 314.3 C 362.2 315.0 362.4 315.9 362.7 316.7 C 363.1 317.6 363.5 318.3 364.0 318.9 C 364.0 318.9 364.1 318.9 364.1 318.9 C 364.2 319.1 364.4 319.1 364.6 319.2 C 365.2 319.6 365.8 319.7 366.7 319.3 C 367.7 318.9 369.0 317.9 370.7 316.1 C 370.8 316.0 370.8 316.0 370.9 315.9 C 371.0 315.8 371.1 315.8 371.2 315.6 C 374.1 312.8 376.3 309.4 376.2 308.1 C 376.1 307.5 376.2 307.0 376.5 306.6 C 376.9 306.2 377.3 306.0 377.8 306.0 C 379.3 306.3 380.4 306.4 381.2 306.7 C 381.3 306.7 381.3 306.7 381.3 306.7 C 383.0 307.2 383.4 307.9 383.3 309.6 C 383.3 309.8 383.3 310.2 383.2 310.5 C 383.1 311.1 383.1 311.7 382.9 312.6 C 382.8 312.7 382.9 312.9 382.8 313.1 C 382.8 313.4 382.9 313.8 382.8 314.1 C 382.7 315.4 382.5 316.8 382.7 318.3 C 382.7 318.3 382.7 318.3 382.7 318.3 C 382.8 318.9 383.2 319.7 383.4 320.4 C 384.8 326.0 388.5 333.3 396.4 345.7 C 399.5 350.6 402.9 356.1 404.0 358.2 C 404.8 359.4 405.6 360.4 406.5 361.1 C 407.4 361.8 408.3 362.2 409.2 362.3 C 410.9 362.5 412.3 361.5 412.4 359.2 C 412.6 357.3 416.4 351.6 420.9 346.5 C 425.4 341.5 429.0 336.7 428.8 335.9 C 428.7 335.5 428.8 335.2 429.0 335.1 C 429.3 335.0 429.8 335.0 430.3 335.2 C 431.4 335.7 436.2 333.5 441.0 330.4 C 447.5 326.2 450.2 325.2 451.6 326.5 C 453.0 327.9 453.0 329.0 451.6 330.6 C 449.3 333.1 453.0 335.6 457.1 334.2 C 458.8 333.6 466.1 336.6 472.8 340.1 C 475.4 341.5 477.5 342.8 479.4 344.0 C 480.7 344.9 482.2 345.8 483.1 346.5 C 485.2 348.4 486.5 349.1 487.7 348.7 C 488.0 348.6 488.4 348.4 488.7 348.0 C 489.4 347.3 489.9 347.0 490.2 347.1 C 490.5 347.2 490.5 347.7 490.5 348.6 C 490.4 350.0 494.6 356.6 499.9 363.4 C 501.5 365.4 502.2 366.0 503.3 367.4 C 504.7 369.0 506.2 371.0 507.3 372.0 C 509.6 374.3 511.3 375.3 512.8 375.0 C 513.0 374.9 513.4 374.5 513.7 374.3 C 516.4 373.5 519.3 370.5 523.9 365.0 C 524.9 363.9 525.1 363.4 525.8 362.5 C 528.4 359.4 530.9 356.2 532.6 353.6 C 533.7 351.8 535.3 350.7 536.3 351.0 C 536.6 351.1 537.1 351.0 537.5 350.9 C 537.8 350.9 538.0 350.9 538.3 350.9 C 538.5 350.8 538.7 350.7 538.8 350.6 C 539.4 350.4 540.0 350.1 540.5 349.7 C 541.8 348.7 546.9 346.1 551.7 343.9 L 558.6 340.9 L 560.6 340.1 L 565.6 343.8 C 568.4 345.8 571.9 347.6 573.5 347.8 C 575.0 348.0 578.9 351.9 582.1 356.4 C 585.3 360.8 588.5 364.1 589.3 363.7 C 590.1 363.2 590.3 363.9 589.8 365.1 C 588.8 367.4 597.4 375.0 601.2 375.3 C 602.2 375.3 603.9 377.0 604.9 379.0 C 605.8 381.0 607.0 382.2 607.4 381.8 C 607.8 381.4 613.3 384.7 619.5 389.1 C 625.7 393.4 631.3 397.1 632.1 397.1 C 632.7 397.2 635.1 398.2 637.3 399.4 C 637.8 399.7 639.5 400.7 639.8 400.8 C 644.7 403.0 651.3 407.2 655.9 410.7 C 657.4 412.1 659.0 413.4 660.2 414.7 C 666.3 421.6 665.5 421.2 670.7 419.4 L 674.7 418.1 L 672.2 410.6 C 669.9 403.5 669.2 389.4 670.9 386.1 C 671.0 385.8 671.0 385.3 671.2 385.1 C 671.2 385.1 671.2 385.0 671.2 385.0 C 672.0 384.1 672.4 381.9 672.5 379.7 C 672.5 379.6 672.5 379.6 672.5 379.6 C 672.5 379.5 672.5 379.5 672.5 379.5 C 672.6 377.0 672.1 374.4 671.3 373.8 C 670.4 373.1 670.0 371.7 670.5 370.7 C 670.9 369.7 670.7 367.5 670.0 365.9 C 669.0 363.3 669.3 363.2 672.6 364.8 C 674.7 365.8 676.4 366.1 676.5 365.5 C 676.5 365.3 676.7 365.4 676.9 365.6 C 677.2 365.9 677.5 366.2 677.7 366.6 C 677.9 366.9 678.1 367.1 678.4 367.6 C 679.0 369.0 679.8 370.2 680.5 370.2 C 680.9 370.2 681.5 369.9 682.0 369.7 C 682.1 369.7 682.1 369.7 682.2 369.6 C 682.2 369.6 682.3 369.6 682.3 369.6 C 682.9 369.3 683.5 369.0 684.2 368.4 C 684.4 368.3 684.5 368.3 684.7 368.2 C 685.0 368.0 685.2 367.7 685.5 367.5 C 686.0 367.1 686.5 366.7 686.9 366.3 C 687.5 365.8 688.0 365.3 688.4 364.8 C 689.2 363.9 689.7 363.1 690.0 362.4 C 690.1 362.2 690.2 362.3 690.2 362.1 C 690.7 360.8 691.2 360.2 692.0 360.4 C 692.4 360.5 692.7 360.6 693.2 360.9 C 693.4 361.0 693.5 361.0 693.7 361.1 C 693.7 361.2 693.7 361.2 693.7 361.2 C 694.3 361.6 694.8 361.9 695.1 362.3 C 695.5 362.6 695.7 363.0 695.6 363.4 C 695.5 364.3 694.6 365.8 693.2 368.1 C 693.1 368.2 693.0 368.4 693.0 368.5 C 692.1 369.9 691.4 371.4 691.0 372.7 C 690.6 373.7 690.5 374.2 690.5 374.9 C 690.4 375.4 690.2 376.2 690.2 376.6 C 691.0 383.5 691.5 385.5 692.1 389.7 C 692.4 394.2 692.8 398.5 693.7 401.1 C 694.8 406.1 696.1 407.7 698.0 407.5 C 698.1 407.5 698.1 407.5 698.2 407.5 C 698.6 407.9 699.4 408.7 699.6 408.8 C 699.9 408.8 700.0 408.9 700.1 409.1 C 700.1 409.2 700.2 409.2 700.2 409.3 C 700.2 409.5 700.2 409.8 700.1 410.1 C 699.9 410.8 699.9 412.0 700.1 413.4 C 700.3 414.7 700.6 416.2 701.0 417.7 C 701.1 418.1 701.2 418.5 701.3 418.9 C 701.3 418.9 701.3 419.0 701.3 419.0 C 701.8 420.8 702.5 422.7 703.2 424.3 C 704.0 426.0 704.8 427.4 705.6 428.3 L 708.8 432.0 L 711.6 428.3 L 711.8 428.0 C 713.6 425.6 713.8 426.1 713.2 429.3 L 713.1 429.8 C 713.0 430.4 713.0 430.8 712.9 431.3 L 712.9 431.5 L 711.5 438.1 L 718.1 444.4 C 719.5 445.8 721.0 447.3 723.1 449.2 C 723.3 449.4 723.5 449.6 723.6 449.8 C 728.6 454.8 733.5 460.8 735.3 464.2 C 737.6 468.7 739.7 472.1 741.5 474.1 C 743.3 476.1 744.7 476.7 745.4 475.6 C 746.0 474.7 747.2 470.1 748.0 465.3 C 748.5 462.5 749.3 459.6 750.5 456.8 C 751.0 455.5 751.8 454.4 752.5 453.2 C 753.3 451.5 754.0 449.9 755.1 448.3 C 758.2 443.6 760.8 438.9 760.9 437.7 C 761.1 434.1 766.9 436.1 769.0 440.2 C 769.9 444.1 770.0 448.3 769.2 452.4 C 768.5 455.2 767.6 457.9 766.1 460.5 C 765.6 461.5 765.6 461.8 765.2 462.6 C 764.4 464.0 763.4 465.6 763.3 466.1 C 763.3 466.2 762.5 466.9 762.2 467.2 C 761.2 468.4 759.4 470.1 755.9 472.8 C 751.5 476.1 747.5 479.4 747.1 480.1 C 747.0 480.2 747.1 481.1 747.0 481.5 C 746.6 482.3 746.3 483.0 746.4 483.5 C 746.5 484.2 746.9 488.0 747.1 490.3 C 747.3 493.0 747.6 495.6 748.0 498.5 C 748.0 498.6 748.0 498.7 748.0 498.9 C 748.6 505.7 749.6 512.3 750.3 513.4 C 750.4 513.5 751.2 514.0 751.3 514.1 C 751.3 514.1 751.3 514.2 751.3 514.2 C 752.6 515.8 770.6 528.2 791.2 541.8 L 809.0 553.5 L 829.2 566.9 L 844.2 567.9 L 884.9 571.2 L 917.5 573.9 L 940.9 576.0 L 940.6 581.6 L 940.2 587.2 L 889.2 582.9 L 838.1 578.6 L 789.0 596.8 C 762.1 606.8 738.8 616.0 737.3 617.2 C 735.9 618.3 730.4 627.0 725.1 636.5 L 725.0 636.8 L 723.6 639.3 L 715.4 653.7 L 715.5 653.8 L 717.8 658.4 L 721.2 664.8 L 721.2 664.8 C 722.7 667.8 723.9 670.1 724.8 672.1 C 724.8 672.1 724.8 672.1 724.8 672.1 C 724.9 672.5 725.0 672.8 725.1 673.2 C 726.5 676.6 727.1 679.3 727.3 683.7 C 727.3 683.7 727.3 683.7 727.3 683.8 C 727.4 686.2 727.4 689.2 727.4 693.1 C 727.4 693.1 727.4 693.1 727.4 693.2 C 727.3 696.7 727.6 699.7 728.0 702.1 C 728.1 702.6 728.1 704.5 728.2 704.6 C 728.6 705.2 728.9 707.2 728.8 709.2 C 728.7 710.1 729.0 711.2 729.4 712.3 C 729.4 712.4 729.4 712.5 729.5 712.6 C 729.7 713.2 730.1 713.7 730.4 714.2 C 730.8 714.9 731.2 715.6 731.7 716.3 C 731.7 716.3 731.8 716.3 731.8 716.3 C 731.9 716.5 732.1 716.6 732.3 716.8 C 734.1 718.9 736.6 720.8 738.9 721.5 C 741.3 722.3 743.0 723.3 742.5 724.0 C 742.2 724.5 743.8 727.4 746.0 730.7 C 746.2 731.1 746.2 731.1 746.4 731.5 C 748.6 735.1 749.9 738.5 749.4 739.0 C 748.1 740.3 742.5 736.6 736.1 730.5 C 736.0 730.5 735.9 730.4 735.9 730.4 C 735.8 730.3 735.8 730.3 735.7 730.2 C 733.6 728.2 731.4 726.0 729.2 723.6 C 728.9 723.2 728.6 723.0 728.3 722.7 C 727.8 722.0 727.0 721.3 726.6 720.8 C 724.1 717.7 721.6 715.5 720.7 715.5 C 720.1 715.2 719.8 715.0 719.6 715.1 C 719.0 715.7 718.5 719.0 718.5 722.4 C 718.5 724.1 718.2 726.5 717.7 729.0 C 717.7 729.0 717.7 729.0 717.7 729.0 C 717.3 730.8 716.7 732.5 716.2 734.2 C 716.0 734.8 715.9 735.6 715.7 736.2 C 715.6 736.2 715.6 736.4 715.5 736.5 C 714.0 740.5 712.9 744.7 713.0 745.8 C 713.1 746.4 713.0 746.9 712.8 747.3 C 712.6 747.7 712.2 747.9 711.7 747.9 C 710.9 747.9 705.8 751.9 700.5 756.8 C 696.6 760.4 694.5 762.2 692.8 763.3 C 692.5 763.5 691.9 763.9 691.6 764.0 C 691.6 764.0 691.6 764.1 691.6 764.1 C 690.9 764.4 690.3 764.4 689.8 764.2 C 689.7 764.2 689.5 764.2 689.4 764.2 C 689.4 764.2 689.4 764.2 689.4 764.2 C 688.8 763.9 688.2 763.5 687.4 762.9 C 687.3 762.8 687.1 762.7 686.9 762.6 C 686.0 762.0 685.1 761.5 684.1 761.2 C 683.3 760.9 682.5 760.6 681.8 760.9 C 680.5 761.3 672.5 755.4 665.2 749.2 C 664.2 748.3 663.4 747.7 662.4 746.9 C 659.1 744.0 656.2 741.3 654.5 739.2 C 652.6 737.0 651.7 736.7 649.8 738.1 C 649.8 738.1 649.6 738.0 649.6 738.1 C 649.0 738.6 647.7 739.0 646.7 739.0 C 645.6 738.9 645.0 740.0 644.6 741.4 C 644.5 741.8 644.3 742.0 644.2 742.5 C 643.8 744.1 643.2 746.4 642.8 747.5 C 642.4 748.6 641.9 750.1 641.8 750.7 C 641.7 751.4 640.9 752.7 640.1 753.6 C 639.5 754.3 639.1 755.9 638.8 757.9 C 638.7 759.1 638.7 760.5 638.7 761.8 C 638.5 765.5 638.7 769.4 639.3 772.7 C 639.7 774.9 640.3 776.7 641.0 777.6 C 642.4 779.5 643.9 780.8 644.4 780.4 C 644.7 780.0 645.3 780.0 645.9 780.3 C 646.5 780.5 647.2 781.0 647.9 781.6 C 649.1 782.7 650.0 784.3 649.6 785.4 C 649.1 786.6 649.7 788.5 650.9 789.8 C 651.5 790.4 652.1 791.2 652.4 792.0 C 652.8 792.7 653.0 793.5 653.0 794.0 C 652.9 795.1 654.8 798.3 657.1 801.0 C 658.4 802.5 659.3 803.7 660.0 804.6 C 661.3 806.6 661.5 807.6 660.7 808.3 C 660.2 808.6 659.5 808.8 658.6 808.9 C 658.1 809.0 657.5 808.8 656.6 808.3 C 655.8 807.8 654.8 807.1 653.7 806.1 C 647.0 800.5 636.2 787.8 632.1 779.9 C 630.8 777.3 629.7 775.6 628.7 774.3 C 627.6 772.9 626.7 772.1 626.2 772.2 C 626.1 772.2 625.9 772.6 625.8 772.7 C 624.8 773.2 624.0 775.0 623.3 778.3 C 622.4 782.7 621.9 783.3 621.2 780.9 C 620.7 779.2 619.6 778.2 618.8 778.7 C 618.0 779.1 616.9 778.6 616.3 777.5 C 615.7 776.3 617.1 774.1 619.8 772.1 C 622.1 770.3 623.1 768.6 623.8 766.2 C 624.2 764.8 624.5 763.0 624.6 760.8 C 624.6 760.5 624.6 760.5 624.7 760.2 C 624.7 759.7 624.6 759.3 624.7 758.7 C 624.7 757.7 624.8 757.1 624.8 755.9 C 624.8 755.7 624.7 755.5 624.7 755.3 C 624.6 752.6 624.4 750.4 624.1 749.6 C 622.4 746.3 622.7 740.1 624.8 732.0 C 624.8 732.0 624.8 731.9 624.8 731.9 C 624.8 731.6 625.0 731.3 625.0 731.0 C 625.7 728.6 626.5 726.0 627.5 723.2 C 632.0 710.2 632.8 705.8 627.6 708.3 C 627.1 708.5 626.6 708.9 626.0 709.2 C 625.9 709.2 625.7 709.3 625.6 709.4 C 623.9 710.3 621.3 712.3 618.7 714.3 C 617.5 715.2 616.8 715.6 615.3 716.7 C 608.4 722.0 599.6 727.7 595.7 729.5 C 591.8 731.3 587.5 733.4 586.2 734.1 C 586.0 734.2 584.8 734.7 584.5 734.9 C 582.5 735.9 578.9 737.5 574.6 739.3 C 572.1 740.4 570.3 741.3 568.8 742.2 C 568.2 742.4 567.7 742.9 567.1 743.4 C 566.8 743.6 566.4 743.9 566.2 744.2 C 565.9 744.5 565.6 744.7 565.4 745.0 C 565.1 745.3 565.0 745.8 564.7 746.1 C 562.1 748.8 560.6 752.0 560.1 756.0 C 560.0 756.2 560.0 756.4 559.9 756.6 C 559.9 757.1 559.7 757.5 559.7 758.0 C 559.5 760.4 558.9 762.1 558.2 761.6 C 557.6 761.1 553.1 764.7 548.1 769.4 C 547.8 769.7 547.8 769.7 547.5 770.0 C 547.4 770.0 547.4 770.0 547.4 770.1 C 543.1 774.2 539.3 776.9 537.6 777.6 C 537.3 777.4 537.0 777.2 536.9 776.7 C 536.3 774.6 535.7 774.3 534.2 775.7 C 532.4 777.4 531.8 779.7 532.0 781.4 C 531.7 782.2 531.8 782.9 533.1 783.5 C 534.4 784.2 535.1 785.3 534.7 786.0 C 534.4 786.4 534.4 786.9 534.5 787.3 C 534.5 787.3 534.5 787.3 534.5 787.3 C 534.6 787.8 534.9 788.2 535.3 788.5 C 536.1 789.1 536.7 790.5 536.6 791.5 C 536.6 791.8 536.5 791.9 536.4 791.9 C 536.3 792.0 536.2 791.9 536.0 791.8 C 535.6 791.6 535.1 790.9 534.5 790.0 C 532.7 787.1 532.3 786.9 530.1 789.0 C 528.1 790.9 527.8 792.7 528.7 798.1 C 529.4 801.7 529.9 805.8 530.0 807.1 C 530.1 808.2 529.9 808.9 529.5 809.4 C 528.7 810.3 527.2 810.0 525.4 808.6 C 524.5 807.9 523.5 806.9 522.6 805.7 C 520.5 803.0 518.3 800.9 517.5 801.1 C 516.8 801.3 516.6 800.5 517.1 799.3 C 517.6 798.2 517.1 795.8 516.0 794.0 C 515.2 792.6 514.6 791.9 513.9 791.7 C 513.6 791.6 513.3 791.6 512.9 791.7 C 512.6 791.9 512.2 792.1 511.7 792.5 C 511.1 793.0 510.7 793.0 510.3 793.2 C 509.3 793.4 508.5 792.9 507.8 792.0 C 507.4 791.4 507.2 790.8 506.9 790.1 C 506.7 789.6 506.4 789.1 506.2 788.4 C 506.0 787.0 505.9 785.4 506.0 783.7 C 506.0 783.3 506.0 782.9 506.0 782.5 C 506.1 781.8 506.3 781.1 506.6 780.4 C 507.8 777.4 507.2 774.8 504.1 770.9 C 503.5 769.9 502.5 768.7 501.3 767.5 C 501.1 767.3 500.9 767.3 500.7 767.1 C 500.6 766.9 500.5 766.8 500.4 766.7 C 497.8 764.0 496.6 763.8 493.5 765.3 C 493.4 765.3 493.5 765.3 493.4 765.4 C 491.7 766.2 490.9 766.6 490.8 766.4 C 490.7 766.2 491.5 765.4 493.0 763.8 C 496.7 759.7 495.2 758.5 490.6 759.5 C 489.2 759.8 487.2 760.6 485.3 761.3 C 484.4 761.7 483.7 761.8 482.7 762.2 C 481.0 763.0 479.2 764.0 477.3 765.0 C 475.5 765.9 473.9 766.6 471.9 767.8 C 471.7 767.9 471.3 768.4 471.1 768.5 C 470.9 768.7 470.6 768.8 470.4 768.9 C 465.0 772.5 461.5 779.5 461.2 786.3 C 461.1 787.3 461.0 788.3 461.0 789.3 C 461.1 791.7 461.7 793.9 462.6 796.1 C 462.7 796.4 462.8 797.3 462.9 797.5 C 463.8 798.8 462.3 800.7 460.3 802.0 C 460.1 802.1 459.9 802.1 459.7 802.2 C 459.0 802.6 458.7 802.6 458.1 802.9 C 456.5 803.4 455.0 803.6 454.2 802.7 C 453.4 801.7 451.5 800.8 450.1 800.7 C 448.8 800.6 446.2 799.4 443.9 798.1 C 443.3 797.7 442.6 797.3 441.5 796.8 C 438.6 795.2 436.1 794.7 434.0 795.3 C 432.1 795.4 431.0 796.4 429.3 799.1 C 429.2 799.3 429.0 799.4 428.9 799.6 L 428.0 801.0 C 427.0 802.5 426.0 803.5 425.4 803.8 L 423.7 798.2 C 423.6 798.1 423.3 797.7 423.3 797.5 C 421.1 792.2 414.9 783.5 408.1 775.6 C 408.1 775.5 408.0 775.5 407.9 775.4 C 400.8 766.3 393.6 758.3 392.3 758.7 C 391.4 759.0 389.7 759.3 388.5 759.4 C 387.6 759.5 386.7 760.2 385.9 761.0 C 385.9 761.0 385.9 761.1 385.9 761.1 C 385.9 761.1 385.9 761.1 385.9 761.1 C 385.6 761.4 385.3 761.6 385.1 761.9 C 382.8 766.7 380.7 769.9 376.0 776.2 C 374.0 778.9 372.4 782.1 371.3 785.4 C 371.2 785.5 371.2 785.6 371.2 785.7 C 370.3 786.8 369.7 789.3 369.4 793.5 C 369.4 794.1 369.5 794.5 369.5 795.0 C 369.1 801.8 370.7 807.4 374.9 807.6 C 376.1 807.7 376.8 807.9 377.1 808.5 C 377.4 809.0 377.2 809.8 376.8 811.1 C 376.1 812.9 376.1 815.4 376.9 816.5 C 379.3 820.2 380.6 830.7 379.3 835.9 L 378.0 841.0 L 370.3 828.5 C 370.2 828.4 370.2 828.4 370.2 828.3 C 370.1 828.2 370.0 828.0 369.9 827.9 C 367.9 824.5 365.8 820.6 364.0 816.8 C 362.2 812.9 360.7 809.3 360.1 806.9 C 359.2 803.4 358.4 801.0 357.6 799.2 C 357.0 797.8 356.4 796.8 355.8 796.3 C 355.8 796.3 355.9 796.3 355.8 796.3 C 355.8 796.2 355.8 796.3 355.8 796.3 C 354.6 795.1 353.3 796.0 351.7 798.6 C 351.4 798.9 351.2 799.0 351.0 799.3 C 349.2 802.0 347.4 803.7 346.9 803.1 C 346.3 802.4 347.5 800.3 349.5 798.3 C 351.4 796.3 352.5 794.6 351.9 794.6 C 351.3 794.6 351.4 793.6 352.1 792.6 C 352.1 792.5 352.1 792.5 352.1 792.5 C 352.1 792.5 352.1 792.5 352.1 792.5 C 352.9 792.0 353.2 791.2 353.2 790.4 C 354.3 787.7 353.6 785.8 350.8 784.2 C 350.1 783.8 349.7 783.6 349.3 783.3 C 348.6 782.2 348.5 781.2 348.8 780.0 C 349.1 779.4 349.2 778.9 349.7 777.9 C 349.9 777.5 350.1 777.1 350.4 776.7 C 351.1 775.4 351.9 774.4 352.8 773.2 C 353.9 771.5 355.1 769.4 355.7 769.1 C 356.4 768.7 356.6 768.1 356.5 767.4 C 356.6 766.8 356.4 766.3 355.8 765.9 C 355.8 765.8 355.9 765.8 355.8 765.8 C 355.8 765.8 355.8 765.8 355.8 765.8 C 355.3 765.0 355.2 764.4 355.3 763.8 C 355.3 763.7 355.4 763.6 355.4 763.5 C 355.6 762.9 356.0 762.3 356.8 761.7 C 358.1 760.6 359.3 758.9 359.4 757.9 C 359.4 757.3 362.5 751.9 364.4 748.4 C 366.2 745.1 367.9 742.0 369.6 738.7 C 374.7 729.9 377.7 723.5 377.0 722.6 C 376.9 722.5 376.8 722.5 376.7 722.5 C 376.7 722.5 376.9 722.3 376.8 722.3 C 376.2 721.7 372.5 723.1 367.8 725.2 C 367.2 725.5 366.8 725.6 366.2 725.9 C 363.3 727.3 360.1 729.0 356.8 730.8 C 353.5 732.6 350.2 734.4 347.2 736.4 C 345.3 737.6 343.2 738.8 341.2 739.7 C 339.2 740.6 337.3 741.3 336.2 741.5 C 335.6 741.6 334.2 742.3 333.3 742.5 C 331.5 742.8 328.9 743.7 325.9 745.0 C 325.2 745.3 324.7 745.3 324.1 745.6 C 319.8 747.4 313.1 749.4 309.2 750.2 C 308.4 750.3 307.9 750.5 307.1 750.7 C 306.3 750.9 305.7 751.0 304.9 751.2 C 301.5 752.0 298.6 753.0 296.2 754.1 C 295.8 754.3 295.2 754.4 294.8 754.6 C 294.1 755.0 293.4 755.5 292.8 756.0 C 292.1 756.4 291.4 757.0 290.7 757.6 C 288.7 759.3 286.8 761.4 284.9 764.2 C 284.4 765.1 284.0 765.9 283.5 766.7 C 281.2 770.4 279.5 773.9 279.8 775.0 C 279.8 775.2 279.7 775.2 279.8 775.3 C 279.7 776.4 279.2 776.8 278.0 776.2 C 277.8 776.1 277.5 776.1 277.1 776.1 C 277.1 776.1 277.0 776.1 277.0 776.1 C 276.8 776.1 276.6 776.2 276.4 776.2 C 276.1 776.3 275.9 776.3 275.6 776.4 C 274.7 776.7 273.7 777.3 273.0 778.2 C 271.4 779.8 266.8 783.0 262.8 785.1 C 260.8 786.2 258.3 787.8 255.9 789.5 C 255.9 789.5 255.8 789.5 255.8 789.5 C 254.9 790.2 254.2 790.8 253.3 791.5 C 252.0 792.5 250.5 793.6 249.5 794.5 C 249.5 794.5 249.5 794.5 249.4 794.6 C 249.4 794.6 249.4 794.6 249.3 794.6 C 247.1 796.6 245.5 797.9 244.3 798.5 C 244.1 798.6 243.9 798.5 243.7 798.6 C 242.7 798.8 241.8 798.4 240.7 797.3 C 237.8 794.9 238.1 794.4 249.4 783.6 C 255.4 777.9 259.8 774.0 263.3 771.2 C 266.0 769.1 268.4 767.6 270.3 766.7 C 270.6 766.6 271.0 766.4 271.2 766.4 C 273.9 766.5 275.1 763.3 273.3 760.6 C 273.0 760.1 272.9 759.8 272.7 759.4 C 272.7 758.7 272.8 758.2 273.2 758.2 C 273.8 758.2 277.0 754.7 280.0 750.9 C 280.0 750.9 280.0 750.9 280.0 750.8 C 280.5 750.2 280.8 749.7 281.3 749.1 C 283.7 746.0 285.8 743.0 285.7 742.3 C 285.7 742.3 285.8 742.2 285.9 742.2 C 286.0 741.5 296.4 736.4 310.5 729.9 C 318.5 726.5 326.0 723.4 328.3 723.1 C 329.8 722.9 330.9 722.0 330.7 721.1 C 330.4 720.0 317.7 718.3 297.2 716.4 C 291.9 715.7 287.0 715.1 282.6 714.8 C 278.5 714.3 276.5 713.6 277.0 712.4 C 277.9 710.4 273.4 705.9 269.4 704.5 C 268.1 704.1 266.4 706.5 264.9 710.9 C 264.0 713.5 263.8 714.6 263.6 715.7 C 263.6 715.7 263.6 715.7 263.6 715.7 C 262.2 717.1 262.3 717.8 264.2 718.8 C 267.1 720.2 267.1 722.0 264.9 722.2 C 264.3 722.0 263.7 721.4 263.3 720.4 C 262.6 718.9 261.4 718.0 260.6 718.4 C 259.9 718.9 259.4 716.8 259.7 714.0 C 259.7 713.8 259.7 713.7 259.7 713.6 C 259.8 712.7 259.7 711.8 259.5 710.9 C 259.4 710.6 259.3 710.3 259.2 709.9 C 258.2 706.4 255.7 703.3 252.2 701.8 C 250.1 700.8 253.8 694.0 258.0 691.2 C 259.5 690.2 263.3 685.7 266.8 681.0 C 267.0 680.6 267.3 680.3 267.5 680.0 C 267.6 680.0 267.6 679.9 267.6 679.9 C 269.4 677.3 271.9 674.3 274.5 671.6 C 277.0 668.9 279.6 666.4 281.6 664.8 C 283.7 663.2 285.4 661.6 286.5 660.3 C 286.9 659.8 287.1 659.4 287.3 659.0 C 287.4 658.9 287.6 658.7 287.7 658.5 C 287.7 658.4 287.7 658.3 287.7 658.2 C 287.7 658.0 287.8 657.7 287.7 657.6 C 287.7 657.5 287.6 657.6 287.6 657.5 C 287.5 657.5 287.6 657.4 287.5 657.3 C 286.6 656.2 285.4 656.2 284.0 657.3 C 284.0 657.3 284.0 657.3 284.0 657.3 C 282.7 657.5 280.9 657.9 279.3 658.3 C 277.9 658.4 275.9 658.8 273.3 659.6 C 272.0 660.1 270.1 660.5 268.4 660.9 C 257.5 663.5 246.4 665.3 241.7 665.0 C 239.1 664.8 235.4 665.7 233.5 667.0 C 232.9 667.4 232.4 667.6 231.8 667.8 C 230.2 668.3 228.8 668.6 228.4 668.2 C 227.7 667.7 221.7 669.6 215.1 672.4 C 210.7 674.2 207.7 675.7 205.9 676.9 C 204.1 678.1 203.5 679.1 203.8 680.0 C 203.9 680.6 203.8 681.4 203.7 682.3 C 203.5 682.7 203.3 683.2 202.9 683.3 C 202.1 683.8 201.3 685.8 201.2 687.7 C 201.2 687.7 201.2 687.7 201.2 687.8 C 200.3 688.9 199.3 689.6 198.7 688.8 C 198.6 688.8 198.5 688.8 198.4 688.7 C 198.3 688.6 198.2 688.5 198.0 688.4 C 197.9 688.4 197.7 688.3 197.5 688.3 C 196.4 688.1 195.2 688.4 193.4 689.3 C 193.4 689.3 193.4 689.3 193.4 689.3 C 191.3 690.5 186.6 692.6 183.2 694.1 C 177.7 696.6 172.4 701.3 169.4 705.7 C 167.3 708.1 166.4 710.0 166.8 712.8 C 167.0 713.8 166.9 714.0 166.9 714.6 C 166.7 714.9 166.3 714.9 165.6 714.6 C 165.4 714.5 165.0 714.7 164.8 714.7 C 163.6 713.9 162.4 714.5 160.0 716.6 C 158.4 718.1 157.3 718.8 156.9 718.6 C 156.7 718.6 156.6 718.4 156.6 718.2 C 156.4 717.2 157.3 714.8 159.2 710.8 C 161.1 706.6 161.4 705.3 160.4 704.1 C 160.2 703.4 159.7 703.0 159.1 703.0 C 157.2 701.7 157.2 701.3 159.0 701.4 C 159.0 701.4 159.2 701.2 159.3 701.2 C 160.1 701.1 161.6 700.1 163.7 698.5 C 163.8 698.4 164.0 698.1 164.3 698.0 C 166.5 696.2 169.1 694.0 171.7 691.4 C 177.4 685.8 187.4 678.1 194.0 674.3 C 197.5 672.2 200.0 670.5 201.7 669.0 C 201.8 669.0 201.8 669.0 201.8 669.0 C 203.2 667.8 203.8 667.0 204.1 666.3 C 204.6 665.2 203.7 664.6 201.6 664.6 C 201.5 664.6 201.4 664.6 201.4 664.6 C 200.0 664.6 198.4 664.7 195.9 665.2 C 194.8 665.5 194.2 665.6 193.3 665.8 C 187.2 667.0 187.0 666.6 189.0 663.2 C 189.4 662.6 189.8 662.1 190.1 661.7 C 191.5 660.9 193.0 660.5 195.3 660.6 C 195.4 660.6 195.5 660.6 195.6 660.6 C 196.8 660.7 198.2 660.9 200.0 661.2 C 204.9 662.0 210.9 662.1 213.2 661.4 C 215.1 660.9 221.3 659.2 227.1 657.6 C 232.2 656.2 235.9 655.1 240.8 653.6 C 243.0 652.9 244.6 652.3 246.8 651.6 C 248.3 651.0 250.7 650.4 251.8 649.9 C 252.5 649.6 253.1 649.4 253.8 649.1 C 254.4 648.9 255.2 648.6 255.8 648.4 C 262.2 645.9 272.8 642.9 279.2 641.8 C 280.0 641.6 280.7 641.4 281.5 641.2 C 283.1 640.9 284.4 640.6 285.9 640.2 C 286.9 639.9 287.8 639.6 288.7 639.3 C 290.3 638.8 291.7 638.2 292.9 637.6 C 293.8 637.1 294.5 636.7 295.2 636.2 C 295.8 635.8 296.5 635.3 296.9 634.9 C 297.2 634.5 297.5 634.1 297.7 633.7 C 297.8 633.3 297.7 633.0 297.5 632.6 C 297.5 632.5 297.6 632.3 297.5 632.2 C 297.1 631.3 293.6 630.5 289.3 629.9 C 286.6 629.4 283.7 628.9 280.4 628.5 C 273.3 627.6 265.2 625.9 259.7 624.4 C 257.3 623.8 255.8 623.5 252.7 622.5 C 252.5 622.5 252.4 622.5 252.2 622.4 C 248.7 621.3 244.7 620.0 243.0 619.7 C 240.5 619.3 237.4 618.4 236.2 617.7 C 233.7 616.5 229.8 615.1 225.7 613.9 C 225.2 613.8 224.9 613.7 224.4 613.5 C 223.8 613.3 223.5 613.3 222.9 613.1 C 222.5 613.0 222.2 612.9 221.8 612.8 C 217.4 611.6 214.1 610.9 212.5 611.2 C 212.0 611.2 211.2 611.0 210.9 611.1 C 208.9 611.5 205.7 610.8 203.8 609.5 C 203.0 609.0 201.9 608.7 200.9 608.4 C 199.4 608.0 197.9 607.7 196.7 607.8 C 196.6 607.8 196.6 607.8 196.6 607.8 C 196.6 607.8 196.6 607.8 196.5 607.8 C 196.4 607.8 196.3 607.8 196.2 607.8 C 196.1 607.8 196.2 607.8 196.0 607.8 C 194.0 608.0 193.5 607.6 194.0 606.8 C 194.3 606.4 194.2 606.3 194.7 605.7 C 196.1 604.2 196.8 602.5 196.3 601.9 C 195.7 601.2 197.5 601.7 200.2 602.9 C 207.6 606.2 209.8 603.0 204.6 596.3 C 202.3 593.4 199.5 591.0 198.3 590.9 C 196.7 590.8 196.6 590.3 197.9 588.7 C 199.3 587.2 199.3 586.1 198.0 584.5 C 197.1 583.4 196.7 579.9 197.1 576.9 C 197.5 573.8 197.2 570.8 196.4 570.2 C 195.4 569.5 197.1 565.9 200.7 560.9 C 206.1 553.5 206.6 551.9 206.4 544.3 C 205.8 526.9 202.6 521.3 196.1 526.4 C 194.7 527.6 190.7 529.9 187.4 531.4 C 184.0 533.0 178.9 536.9 175.9 540.0 C 171.1 545.1 170.4 545.4 169.9 542.5 C 169.5 540.3 168.4 539.6 166.4 540.3 C 165.6 540.5 165.3 540.4 165.5 539.9 Z M 176.6 605.0 C 176.9 604.9 177.7 604.9 178.8 604.9 C 179.2 604.9 179.3 605.0 179.6 605.1 C 180.0 605.3 180.1 605.5 179.8 605.7 C 179.5 606.0 179.1 606.1 178.6 606.1 C 178.6 606.1 178.6 606.1 178.5 606.1 C 178.0 606.1 177.4 606.0 176.9 605.7 C 176.8 605.6 176.8 605.6 176.7 605.5 C 176.5 605.3 176.3 605.2 176.6 605.0 Z M 175.2 637.6 C 175.2 637.6 175.2 637.6 175.2 637.6 C 175.3 637.2 175.6 636.8 176.1 636.6 C 176.8 636.3 178.1 636.4 179.4 637.1 C 180.5 637.7 180.9 638.0 181.0 638.3 C 181.0 638.4 180.9 638.5 180.8 638.6 C 180.5 638.8 180.2 638.9 179.2 639.1 C 178.5 639.3 177.8 639.3 177.2 639.2 C 177.0 639.2 176.8 639.1 176.7 639.0 C 176.4 639.0 176.2 638.9 176.0 638.8 C 175.5 638.4 175.2 638.1 175.2 637.6 Z M 177.4 613.3 C 177.9 613.1 178.8 613.3 180.4 614.1 C 182.4 615.1 182.5 615.6 180.9 616.5 C 179.7 617.3 178.4 616.9 177.8 615.8 C 177.1 614.4 177.0 613.6 177.4 613.3 Z M 177.6 657.0 C 177.7 655.1 178.4 655.0 180.4 656.3 C 181.9 657.3 183.1 658.5 183.0 658.9 C 183.0 659.1 182.7 659.3 182.2 659.4 C 181.7 659.5 181.0 659.5 180.2 659.5 C 178.7 659.4 177.5 658.3 177.6 657.0 Z M 200.5 353.1 C 200.5 352.9 200.6 352.8 200.7 352.6 C 201.0 351.6 202.0 350.9 203.4 350.8 C 204.4 351.0 205.1 351.8 204.7 352.7 C 203.6 355.6 200.6 355.9 200.5 353.4 C 200.5 353.3 200.5 353.2 200.5 353.1 Z M 207.8 763.3 C 208.0 760.4 207.9 760.4 211.2 762.0 C 213.1 763.0 213.2 763.5 211.5 764.5 C 208.5 766.4 207.6 766.1 207.8 763.3 Z M 237.9 351.6 C 238.1 351.4 239.5 351.5 240.7 351.5 C 242.1 351.7 243.5 352.1 243.9 352.6 C 244.3 353.1 244.4 353.4 244.5 353.7 C 243.4 354.1 242.1 354.0 240.3 353.1 C 240.2 353.1 240.2 353.1 240.2 353.1 C 240.2 353.1 240.2 353.1 240.1 353.1 C 238.5 352.2 237.7 351.8 237.9 351.6 Z M 235.1 438.9 C 235.2 438.0 235.9 437.0 236.7 436.5 C 237.0 436.3 237.2 436.4 237.5 436.4 C 237.8 436.9 237.9 437.3 237.8 437.7 C 237.2 439.3 236.0 439.6 235.1 438.9 Z M 236.0 453.0 C 236.5 452.5 239.5 452.8 242.5 453.6 C 244.5 454.1 245.6 454.6 246.2 455.0 C 246.5 455.2 246.6 455.5 246.6 455.7 C 246.5 455.9 246.3 456.1 246.0 456.3 C 244.8 457.0 243.2 456.8 242.5 455.9 C 241.7 455.0 239.7 454.1 238.1 454.0 C 236.4 453.9 235.5 453.5 236.0 453.0 Z M 244.7 753.1 C 244.7 752.7 245.1 752.2 245.6 752.0 C 246.3 751.7 247.1 751.6 247.9 751.6 C 250.3 751.8 251.5 750.9 251.6 749.8 C 251.9 749.6 252.2 749.4 252.3 749.2 C 253.4 747.4 254.8 747.0 256.7 747.9 C 257.3 748.2 257.7 748.4 257.9 748.7 C 258.5 749.5 257.2 750.3 253.2 752.0 C 249.9 753.5 248.2 754.1 246.9 754.3 C 246.8 754.3 246.8 754.4 246.7 754.4 C 246.3 754.5 246.1 754.5 245.8 754.5 C 245.0 754.5 244.6 754.1 244.7 753.1 Z M 323.5 832.3 C 324.2 831.3 325.0 831.6 325.8 833.0 C 327.0 835.4 326.8 835.7 325.7 835.3 C 325.3 835.2 325.2 835.2 324.7 835.0 C 324.6 834.9 324.6 834.9 324.6 834.9 C 323.5 834.2 323.0 833.1 323.5 832.3 Z M 359.7 299.6 C 359.8 298.6 359.9 297.4 360.2 296.8 C 360.7 295.5 361.0 296.4 361.1 298.2 C 360.8 298.7 360.6 299.5 360.3 299.7 C 360.0 299.9 359.8 299.8 359.7 299.6 Z M 360.3 304.4 C 360.6 303.5 360.8 303.7 360.9 304.4 C 360.7 307.7 360.4 308.6 360.2 307.5 C 360.1 306.5 360.0 305.4 360.3 304.4 Z M 342.6 813.7 C 342.5 813.5 343.0 812.6 343.9 810.7 C 345.1 808.5 346.3 806.4 346.6 806.0 C 347.5 805.1 347.5 805.7 347.1 806.7 C 345.9 809.1 344.7 811.0 343.5 812.7 C 343.2 813.0 342.6 813.7 342.6 813.7 Z M 564.3 555.7 C 564.2 556.7 564.4 557.7 564.7 558.6 C 567.9 566.1 587.6 581.3 592.2 579.7 C 593.5 579.3 595.6 580.5 596.9 582.4 C 598.2 584.2 605.4 588.4 613.0 591.5 C 628.1 597.9 629.3 597.9 644.1 591.5 C 651.2 588.5 666.2 586.6 728.3 580.5 C 769.9 576.4 804.5 572.6 805.2 572.0 C 806.0 571.4 805.8 570.3 804.8 569.5 C 803.3 568.4 709.6 550.4 678.4 545.3 C 666.4 543.3 659.0 541.3 657.2 539.6 C 655.7 538.2 644.4 533.8 628.8 528.6 C 623.9 527.0 617.6 524.7 615.0 523.6 C 611.4 522.2 609.2 522.2 606.5 523.6 C 604.6 524.6 602.4 525.2 601.7 525.0 C 599.5 524.1 581.3 534.0 575.7 539.0 C 572.2 542.1 570.3 545.4 570.1 548.3 C 569.9 550.7 569.2 552.3 568.5 551.7 C 566.7 550.3 564.6 552.8 564.3 555.7 Z M 605.7 369.8 C 605.7 369.5 606.3 368.9 607.0 368.5 C 607.6 368.8 607.9 369.6 608.0 370.3 C 607.8 370.5 607.5 370.7 607.2 370.7 C 606.3 370.6 605.6 370.2 605.7 369.8 Z M 637.4 328.2 C 637.4 328.0 637.5 327.8 637.6 327.7 C 637.7 327.6 637.8 327.5 637.9 327.4 C 638.6 327.1 640.0 327.6 642.6 329.2 C 645.4 330.9 647.4 332.8 646.9 333.5 C 645.7 335.3 637.2 330.6 637.4 328.2 Z M 607.8 805.3 C 607.9 804.4 608.6 804.1 609.4 804.7 C 610.2 805.3 610.8 806.2 610.8 806.6 C 610.8 806.8 610.6 806.9 610.4 807.0 C 610.1 807.1 609.7 807.2 609.3 807.2 C 608.4 807.1 607.8 806.3 607.8 805.3 Z M 654.6 357.3 C 654.7 357.2 654.7 357.0 655.0 357.0 C 655.8 357.1 657.0 357.7 657.5 358.3 C 658.0 358.9 658.1 359.8 657.6 360.3 C 657.4 360.4 657.1 360.3 656.8 360.3 C 656.7 360.2 656.5 360.0 656.4 359.9 C 655.7 359.6 655.3 359.2 655.0 358.7 C 654.9 358.6 654.8 358.5 654.7 358.4 C 654.5 358.0 654.4 357.6 654.6 357.3 Z M 660.0 346.6 C 660.3 346.8 661.6 348.4 664.0 351.4 C 665.8 353.8 667.4 356.0 668.4 357.7 C 668.6 358.0 668.5 358.1 668.6 358.3 C 669.4 359.7 669.9 360.8 669.7 361.1 C 669.1 361.6 668.3 361.0 667.9 359.6 C 667.6 358.3 665.0 354.0 662.2 350.0 C 660.5 347.5 659.7 346.3 660.0 346.6 Z M 707.0 405.7 C 707.1 405.6 707.2 405.6 707.4 405.4 C 707.7 405.4 707.8 405.3 708.4 405.3 C 710.0 405.3 710.8 405.8 710.3 406.3 C 710.3 406.3 710.2 406.3 710.2 406.3 C 710.0 406.4 709.7 406.5 709.4 406.5 C 709.2 406.6 709.1 406.6 708.9 406.6 C 708.4 406.6 707.9 406.5 707.4 406.2 C 707.0 406.0 707.0 405.9 707.0 405.7 Z M 751.5 743.5 C 751.5 743.2 751.7 743.0 752.2 743.0 C 753.1 743.1 754.2 743.6 754.7 744.3 C 755.0 744.7 754.8 745.1 754.8 745.6 C 754.0 745.6 752.8 744.8 751.8 744.1 C 751.7 743.9 751.5 743.7 751.5 743.5 Z M 751.5 743.5 "></path></clipPath><g clip-path="url(#clip0x6100008adf20)"><image xlink:href="../../A7D022BD-8A0A-4F64-8CDB-07AB06C6E8E9/assets/D4715FE8E00E22E8C2C33720B226B419.jpeg" width="766.00" height="627.00" transform="matrix(-0.06, 0.93, 1.50, 0.09, 21.2, 178.4)"></image></g></g></g></g><path d="M 1696.7 845.2 C 1705.9 836.1 1705.9 821.2 1696.7 812.1 C 1687.6 802.9 1672.7 802.9 1663.6 812.1 C 1654.4 821.2 1654.4 836.1 1663.6 845.2 C 1672.7 854.4 1687.6 854.4 1696.7 845.2 Z M 1696.7 845.2 " fill="#000000"></path><path d="M 0.4 -0.3 L 1753.2 -0.3 L 1755.4 -0.3 " fill="none" stroke="#000000" stroke-width="5.00" transform="matrix(1.00, 0.00, 0.00, -1.00, -13.4, 118.2)"></path><path d="M 0.0 0.0 L 3.0 5.0 L 6.0 0.0 M 3.0 0.0 L 3.0 5.0 " fill="none" stroke="#000000" stroke-width="1.47" stroke-linejoin="round" transform="matrix(0.00, 3.40, 3.40, 0.00, 1739.5, 108.3)"></path><path d="M -0.1 -0.1 L 856.9 -0.1 " fill="none" stroke="#000000" stroke-width="2.00" stroke-dasharray="12.0, 12.0" transform="matrix(0.00, 1.00, 1.00, 0.00, 1680.1, 119.1)"></path><text xml:space="preserve" font-family="HelveticaNeue,Helvetica Neue" font-size="50.0" fill="#000000" transform="matrix(1.00, 0.00, -0.00, -1.00, 1617.2, 49.4)">t</text><text xml:space="preserve" font-family="HelveticaNeue,Helvetica Neue" font-size="50.0" fill="#000000" transform="matrix(1.00, 0.00, -0.00, -1.00, 1632.9, 49.4)">o</text><text xml:space="preserve" font-family="HelveticaNeue,Helvetica Neue" font-size="50.0" fill="#000000" transform="matrix(1.00, 0.00, -0.00, -1.00, 1661.6, 49.4)">d</text><text xml:space="preserve" font-family="HelveticaNeue,Helvetica Neue" font-size="50.0" fill="#000000" transform="matrix(1.00, 0.00, -0.00, -1.00, 1691.3, 49.4)">a</text><text xml:space="preserve" font-family="HelveticaNeue,Helvetica Neue" font-size="50.0" fill="#000000" transform="matrix(1.00, 0.00, -0.00, -1.00, 1718.1, 49.4)">y</text></g></svg>