<?xml version="1.0" encoding="UTF-8" standalone="no"?><svg xmlns="http://www.w3.org/2000/svg" xmlns:xlink="http://www.w3.org/1999/xlink" clip-rule="evenodd" stroke-miterlimit="4.00" viewBox="0 0 1920 1080"><desc>SVG generated by Keynote</desc><defs></defs><g transform="matrix(1.00, 0.00, -0.00, -1.00, 0.0, 1080.0)"><path d="M 0.0 1080.0 L 1920.0 1080.0 L 1920.0 0.0 L 0.0 0.0 Z M 0.0 1080.0 " fill="#FEFFFE"></path><image xlink:href="../../FB3545D4-0821-44FD-86D8-5AE701A99D08/assets/6757EE7B18EC45D3D7C6162DDEF71706.png" width="216.00" height="200.00" transform="matrix(0.38, 0.00, -0.00, -0.38, 746.0, 303.0)"></image><image xlink:href="../../FB3545D4-0821-44FD-86D8-5AE701A99D08/assets/6757EE7B18EC45D3D7C6162DDEF71706.png" width="216.00" height="200.00" transform="matrix(0.75, 0.00, -0.00, -0.75, 893.0, 373.0)"></image><image xlink:href="../../FB3545D4-0821-44FD-86D8-5AE701A99D08/assets/6757EE7B18EC45D3D7C6162DDEF71706.png" width="216.00" height="200.00" transform="matrix(1.50, 0.00, -0.00, -1.50, 1077.0, 511.0)"></image><path d="M 10.6 0.0 L 12.6 0.0 L 754.0 0.0 " fill="none" stroke="#000000" stroke-width="4.00" transform="matrix(0.00, -1.00, -1.00, 0.00, 523.5, 936.0)"></path><path d="M 531.9 919.2 L 523.5 936.0 L 515.1 919.2 L 523.5 923.4 Z M 531.9 919.2 " fill="#000000"></path><path d="M 1006.5 0.0 L 1004.5 0.0 L 0.0 0.0 " fill="none" stroke="#000000" stroke-width="4.00" transform="matrix(1.00, 0.00, 0.00, -1.00, 523.5, 184.5)"></path><path d="M 1523.8 176.1 L 1540.6 184.5 L 1523.8 192.9 L 1528.0 184.5 Z M 1523.8 176.1 " fill="#000000"></path><text xml:space="preserve" font-family="GillSans" font-size="30.0" fill="#000000" transform="matrix(1.00, 0.00, -0.00, -1.00, 436.0, 880.0)">l</text><text xml:space="preserve" font-family="GillSans" font-size="30.0" fill="#000000" transform="matrix(1.00, 0.00, -0.00, -1.00, 442.6, 880.0)">o</text><text xml:space="preserve" font-family="GillSans" font-size="30.0" fill="#000000" transform="matrix(1.00, 0.00, -0.00, -1.00, 459.1, 880.0)">g</text><text xml:space="preserve" font-family="GillSans" font-size="30.0" fill="#000000" transform="matrix(1.00, 0.00, -0.00, -1.00, 471.9, 880.0)">(</text><text xml:space="preserve" font-family="GillSans" font-size="30.0" fill="#000000" transform="matrix(1.00, 0.00, -0.00, -1.00, 481.6, 880.0)">S</text><text xml:space="preserve" font-family="GillSans" font-size="30.0" fill="#000000" transform="matrix(1.00, 0.00, -0.00, -1.00, 495.4, 880.0)">)</text><text xml:space="preserve" font-family="GillSans" font-size="30.0" fill="#000000" transform="matrix(1.00, 0.00, -0.00, -1.00, 1431.0, 148.0)">l</text><text xml:space="preserve" font-family="GillSans" font-size="30.0" fill="#000000" transform="matrix(1.00, 0.00, -0.00, -1.00, 1437.6, 148.0)">o</text><text xml:space="preserve" font-family="GillSans" font-size="30.0" fill="#000000" transform="matrix(1.00, 0.00, -0.00, -1.00, 1454.1, 148.0)">g</text><text xml:space="preserve" font-family="GillSans" font-size="30.0" fill="#000000" transform="matrix(1.00, 0.00, -0.00, -1.00, 1466.9, 148.0)">(</text><text xml:space="preserve" font-family="GillSans" font-size="30.0" fill="#000000" transform="matrix(1.00, 0.00, -0.00, -1.00, 1476.6, 148.0)">V</text><text xml:space="preserve" font-family="GillSans" font-size="30.0" fill="#000000" transform="matrix(1.00, 0.00, -0.00, -1.00, 1494.8, 148.0)">)</text><path d="M 0.0 556.9 L 818.4 0.0 " fill="none" stroke="#000000" stroke-width="1.00" stroke-dasharray="6.0, 6.0" transform="matrix(1.00, 0.00, 0.00, -1.00, 526.0, 778.6)"></path><path d="M 789.6 401.6 C 791.7 399.5 791.7 396.2 789.6 394.2 C 787.6 392.1 784.2 392.1 782.2 394.2 C 780.1 396.2 780.1 399.5 782.2 401.6 C 784.2 403.6 787.6 403.6 789.6 401.6 " fill="#2F4856"></path><path d="M 9.0 1.5 C 11.0 3.6 11.0 6.9 9.0 9.0 C 6.9 11.0 3.6 11.0 1.5 9.0 C -0.5 6.9 -0.5 3.6 1.5 1.5 C 3.6 -0.5 6.9 -0.5 9.0 1.5 " fill="none" stroke="#000000" stroke-width="3.00" transform="matrix(1.00, 0.00, 0.00, -1.00, 780.6, 403.1)"></path><path d="M 993.7 543.7 C 995.7 541.6 995.7 538.3 993.7 536.2 C 991.6 534.2 988.3 534.2 986.2 536.2 C 984.2 538.3 984.2 541.6 986.2 543.7 C 988.3 545.7 991.6 545.7 993.7 543.7 " fill="#2F4856"></path><path d="M 9.0 1.5 C 11.0 3.6 11.0 6.9 9.0 9.0 C 6.9 11.0 3.6 11.0 1.5 9.0 C -0.5 6.9 -0.5 3.6 1.5 1.5 C 3.6 -0.5 6.9 -0.5 9.0 1.5 " fill="none" stroke="#000000" stroke-width="3.00" transform="matrix(1.00, 0.00, 0.00, -1.00, 984.7, 545.2)"></path><path d="M 1197.7 680.5 C 1199.8 678.4 1199.8 675.1 1197.7 673.1 C 1195.7 671.0 1192.3 671.0 1190.3 673.1 C 1188.2 675.1 1188.2 678.4 1190.3 680.5 C 1192.3 682.6 1195.7 682.6 1197.7 680.5 " fill="#2F4856"></path><path d="M 9.0 1.5 C 11.0 3.6 11.0 6.9 9.0 9.0 C 6.9 11.0 3.6 11.0 1.5 9.0 C -0.5 6.9 -0.5 3.6 1.5 1.5 C 3.6 -0.5 6.9 -0.5 9.0 1.5 " fill="none" stroke="#000000" stroke-width="3.00" transform="matrix(1.00, 0.00, 0.00, -1.00, 1188.7, 682.0)"></path><path d="M 0.0 556.9 L 818.4 0.0 " fill="none" stroke="#000000" stroke-width="1.00" stroke-dasharray="6.0, 6.0" transform="matrix(1.00, 0.00, 0.00, -1.00, 526.0, 814.3)"></path><path d="M 789.6 437.1 C 791.7 435.1 791.7 431.7 789.6 429.7 C 787.6 427.6 784.2 427.6 782.2 429.7 C 780.1 431.7 780.1 435.1 782.2 437.1 C 784.2 439.2 787.6 439.2 789.6 437.1 " fill="#2F4856"></path><path d="M 9.0 1.5 C 11.0 3.6 11.0 6.9 9.0 9.0 C 6.9 11.0 3.6 11.0 1.5 9.0 C -0.5 6.9 -0.5 3.6 1.5 1.5 C 3.6 -0.5 6.9 -0.5 9.0 1.5 " fill="none" stroke="#000000" stroke-width="3.00" transform="matrix(1.00, 0.00, 0.00, -1.00, 780.6, 438.7)"></path><path d="M 993.7 576.8 C 995.7 574.7 995.7 571.4 993.7 569.3 C 991.6 567.3 988.3 567.3 986.2 569.3 C 984.2 571.4 984.2 574.7 986.2 576.8 C 988.3 578.8 991.6 578.8 993.7 576.8 " fill="#2F4856"></path><path d="M 9.0 1.5 C 11.0 3.6 11.0 6.9 9.0 9.0 C 6.9 11.0 3.6 11.0 1.5 9.0 C -0.5 6.9 -0.5 3.6 1.5 1.5 C 3.6 -0.5 6.9 -0.5 9.0 1.5 " fill="none" stroke="#000000" stroke-width="3.00" transform="matrix(1.00, 0.00, 0.00, -1.00, 984.7, 578.3)"></path><path d="M 1197.7 714.7 C 1199.8 712.6 1199.8 709.3 1197.7 707.3 C 1195.7 705.2 1192.3 705.2 1190.3 707.3 C 1188.2 709.3 1188.2 712.6 1190.3 714.7 C 1192.3 716.8 1195.7 716.8 1197.7 714.7 " fill="#2F4856"></path><path d="M 9.0 1.5 C 11.0 3.6 11.0 6.9 9.0 9.0 C 6.9 11.0 3.6 11.0 1.5 9.0 C -0.5 6.9 -0.5 3.6 1.5 1.5 C 3.6 -0.5 6.9 -0.5 9.0 1.5 " fill="none" stroke="#000000" stroke-width="3.00" transform="matrix(1.00, 0.00, 0.00, -1.00, 1188.7, 716.2)"></path><text xml:space="preserve" font-family="GillSans" font-size="24.3" fill="#000000" transform="matrix(1.00, 0.00, -0.00, -1.00, 431.9, 209.5)">s</text><text xml:space="preserve" font-family="GillSans" font-size="24.3" fill="#000000" transform="matrix(1.00, 0.00, -0.00, -1.00, 441.3, 209.5)">p</text><text xml:space="preserve" font-family="GillSans" font-size="24.3" fill="#000000" transform="matrix(1.00, 0.00, -0.00, -1.00, 453.4, 209.5)">h</text><text xml:space="preserve" font-family="GillSans" font-size="24.3" fill="#000000" transform="matrix(1.00, 0.00, -0.00, -1.00, 465.6, 209.5)">e</text><text xml:space="preserve" font-family="GillSans" font-size="24.3" fill="#000000" transform="matrix(1.00, 0.00, -0.00, -1.00, 477.2, 209.5)">r</text><text xml:space="preserve" font-family="GillSans" font-size="24.3" fill="#000000" transform="matrix(1.00, 0.00, -0.00, -1.00, 486.3, 209.5)">e</text><text xml:space="preserve" font-family="GillSans" font-size="24.3" fill="#000000" transform="matrix(1.00, 0.00, -0.00, -1.00, 450.9, 251.1)">c</text><text xml:space="preserve" font-family="GillSans" font-size="24.3" fill="#000000" transform="matrix(1.00, 0.00, -0.00, -1.00, 461.5, 251.1)">u</text><text xml:space="preserve" font-family="GillSans" font-size="24.3" fill="#000000" transform="matrix(1.00, 0.00, -0.00, -1.00, 473.7, 251.1)">b</text><text xml:space="preserve" font-family="GillSans" font-size="24.3" fill="#000000" transform="matrix(1.00, 0.00, -0.00, -1.00, 485.8, 251.1)">e</text><text xml:space="preserve" font-family="GillSans-SemiBold" font-weight="bold" font-size="42.0" fill="#000000" transform="matrix(1.00, 0.00, -0.00, -1.00, 26.0, 1011.0)">B</text><text xml:space="preserve" font-family="GillSans-SemiBold" font-weight="bold" font-size="42.0" fill="#000000" transform="matrix(1.00, 0.00, -0.00, -1.00, 52.4, 1011.0)">r</text><text xml:space="preserve" font-family="GillSans-SemiBold" font-weight="bold" font-size="42.0" fill="#000000" transform="matrix(1.00, 0.00, -0.00, -1.00, 69.9, 1011.0)">a</text><text xml:space="preserve" font-family="GillSans-SemiBold" font-weight="bold" font-size="42.0" fill="#000000" transform="matrix(1.00, 0.00, -0.00, -1.00, 90.2, 1011.0)">i</text><text xml:space="preserve" font-family="GillSans-SemiBold" font-weight="bold" font-size="42.0" fill="#000000" transform="matrix(1.00, 0.00, -0.00, -1.00, 100.6, 1011.0)">n</text><text xml:space="preserve" font-family="GillSans-SemiBold" font-weight="bold" font-size="42.0" fill="#000000" transform="matrix(1.00, 0.00, -0.00, -1.00, 123.3, 1011.0)"> </text><text xml:space="preserve" font-family="GillSans-SemiBold" font-weight="bold" font-size="42.0" fill="#000000" transform="matrix(1.00, 0.00, -0.00, -1.00, 135.0, 1011.0)">a</text><text xml:space="preserve" font-family="GillSans-SemiBold" font-weight="bold" font-size="42.0" fill="#000000" transform="matrix(1.00, 0.00, -0.00, -1.00, 155.3, 1011.0)">l</text><text xml:space="preserve" font-family="GillSans-SemiBold" font-weight="bold" font-size="42.0" fill="#000000" transform="matrix(1.00, 0.00, -0.00, -1.00, 165.7, 1011.0)">l</text><text xml:space="preserve" font-family="GillSans-SemiBold" font-weight="bold" font-size="42.0" fill="#000000" transform="matrix(1.00, 0.00, -0.00, -1.00, 176.1, 1011.0)">o</text><text xml:space="preserve" font-family="GillSans-SemiBold" font-weight="bold" font-size="42.0" fill="#000000" transform="matrix(1.00, 0.00, -0.00, -1.00, 200.2, 1011.0)">m</text><text xml:space="preserve" font-family="GillSans-SemiBold" font-weight="bold" font-size="42.0" fill="#000000" transform="matrix(1.00, 0.00, -0.00, -1.00, 235.7, 1011.0)">e</text><text xml:space="preserve" font-family="GillSans-SemiBold" font-weight="bold" font-size="42.0" fill="#000000" transform="matrix(1.00, 0.00, -0.00, -1.00, 257.4, 1011.0)">t</text><text xml:space="preserve" font-family="GillSans-SemiBold" font-weight="bold" font-size="42.0" fill="#000000" transform="matrix(1.00, 0.00, -0.00, -1.00, 272.9, 1011.0)">r</text><text xml:space="preserve" font-family="GillSans-SemiBold" font-weight="bold" font-size="42.0" fill="#000000" transform="matrix(1.00, 0.00, -0.00, -1.00, 290.5, 1011.0)">y</text></g></svg>