<?xml version="1.0" encoding="UTF-8" standalone="no"?><svg xmlns="http://www.w3.org/2000/svg" xmlns:xlink="http://www.w3.org/1999/xlink" clip-rule="evenodd" stroke-miterlimit="10" viewBox="0 0 1920 1080"><desc>SVG generated by Keynote</desc><defs></defs><g transform="matrix(1.00, 0.00, -0.00, -1.00, 0.0, 1080.0)"><path d="M 0.0 1080.0 L 1920.0 1080.0 L 1920.0 0.0 L 0.0 0.0 Z M 0.0 1080.0 " fill="#FEFFFF"></path><image xlink:href="../../25751664-854A-4AA9-9C76-85640E5A2EDF/assets/64585AFD6C80267DAD9AC0499E2E9E4D.png" width="2632.00" height="1154.00" transform="matrix(0.51, 0.00, -0.00, -0.51, 303.0, 1064.0)"></image><text xml:space="preserve" font-family="Times-BoldItalic,Times" font-style="italic" font-weight="bold" font-size="114.0" fill="#000000" transform="matrix(1.00, 0.00, -0.00, -1.00, 1339.8, 226.1)">N</text><text xml:space="preserve" font-family="Times-BoldItalic,Times" font-style="italic" font-weight="bold" font-size="114.0" fill="#000000" transform="matrix(1.00, 0.00, -0.00, -1.00, 1422.1, 226.1)">=</text><text xml:space="preserve" font-family="Times-BoldItalic,Times" font-style="italic" font-weight="bold" font-size="114.0" fill="#000000" transform="matrix(1.00, 0.00, -0.00, -1.00, 1487.1, 226.1)">3</text><text xml:space="preserve" font-family="Times-BoldItalic,Times" font-style="italic" font-weight="bold" font-size="114.0" fill="#000000" transform="matrix(1.00, 0.00, -0.00, -1.00, 1544.1, 226.1)">5</text><text xml:space="preserve" font-family="Times-BoldItalic,Times" font-style="italic" font-weight="bold" font-size="114.0" fill="#000000" transform="matrix(1.00, 0.00, -0.00, -1.00, 852.7, 226.1)">N</text><text xml:space="preserve" font-family="Times-BoldItalic,Times" font-style="italic" font-weight="bold" font-size="114.0" fill="#000000" transform="matrix(1.00, 0.00, -0.00, -1.00, 935.1, 226.1)">=</text><text xml:space="preserve" font-family="Times-BoldItalic,Times" font-style="italic" font-weight="bold" font-size="114.0" fill="#000000" transform="matrix(1.00, 0.00, -0.00, -1.00, 1000.0, 226.1)">1</text><text xml:space="preserve" font-family="Times-BoldItalic,Times" font-style="italic" font-weight="bold" font-size="114.0" fill="#000000" transform="matrix(1.00, 0.00, -0.00, -1.00, 1057.0, 226.1)">3</text><text xml:space="preserve" font-family="Times-BoldItalic,Times" font-style="italic" font-weight="bold" font-size="114.0" fill="#000000" transform="matrix(1.00, 0.00, -0.00, -1.00, 1114.0, 226.1)">0</text><text xml:space="preserve" font-family="Times-BoldItalic,Times" font-style="italic" font-weight="bold" font-size="114.0" fill="#000000" transform="matrix(1.00, 0.00, -0.00, -1.00, 380.7, 226.1)">N</text><text xml:space="preserve" font-family="Times-BoldItalic,Times" font-style="italic" font-weight="bold" font-size="114.0" fill="#000000" transform="matrix(1.00, 0.00, -0.00, -1.00, 463.0, 226.1)">=</text><text xml:space="preserve" font-family="Times-BoldItalic,Times" font-style="italic" font-weight="bold" font-size="114.0" fill="#000000" transform="matrix(1.00, 0.00, -0.00, -1.00, 528.0, 226.1)">5</text><text xml:space="preserve" font-family="Times-BoldItalic,Times" font-style="italic" font-weight="bold" font-size="114.0" fill="#000000" transform="matrix(1.00, 0.00, -0.00, -1.00, 585.0, 226.1)">0</text><text xml:space="preserve" font-family="Times-BoldItalic,Times" font-style="italic" font-weight="bold" font-size="114.0" fill="#000000" transform="matrix(1.00, 0.00, -0.00, -1.00, 642.0, 226.1)">0</text></g></svg>