<?xml version="1.0" encoding="UTF-8" standalone="no"?><svg xmlns="http://www.w3.org/2000/svg" xmlns:xlink="http://www.w3.org/1999/xlink" clip-rule="evenodd" stroke-miterlimit="4.00" viewBox="0 0 1920 1080"><desc>SVG generated by Keynote</desc><defs></defs><g transform="matrix(1.00, 0.00, -0.00, -1.00, 0.0, 1080.0)"><path d="M 0.0 1080.0 L 1920.0 1080.0 L 1920.0 0.0 L 0.0 0.0 Z M 0.0 1080.0 " fill="#000000"></path><text xml:space="preserve" font-family="HelveticaNeue-LightItalic" font-style="italic" font-size="48.0" fill="#FEFFFF" transform="matrix(1.00, 0.00, -0.00, -1.00, 546.0, 904.0)">G</text><text xml:space="preserve" font-family="HelveticaNeue-LightItalic" font-style="italic" font-size="48.0" fill="#FEFFFF" transform="matrix(1.00, 0.00, -0.00, -1.00, 581.6, 904.0)">e</text><text xml:space="preserve" font-family="HelveticaNeue-LightItalic" font-style="italic" font-size="48.0" fill="#FEFFFF" transform="matrix(1.00, 0.00, -0.00, -1.00, 606.5, 904.0)">o</text><text xml:space="preserve" font-family="HelveticaNeue-LightItalic" font-style="italic" font-size="48.0" fill="#FEFFFF" transform="matrix(1.00, 0.00, -0.00, -1.00, 633.2, 904.0)">m</text><text xml:space="preserve" font-family="HelveticaNeue-LightItalic" font-style="italic" font-size="48.0" fill="#FEFFFF" transform="matrix(1.00, 0.00, -0.00, -1.00, 673.2, 904.0)">e</text><text xml:space="preserve" font-family="HelveticaNeue-LightItalic" font-style="italic" font-size="48.0" fill="#FEFFFF" transform="matrix(1.00, 0.00, -0.00, -1.00, 698.1, 904.0)">t</text><text xml:space="preserve" font-family="HelveticaNeue-LightItalic" font-style="italic" font-size="48.0" fill="#FEFFFF" transform="matrix(1.00, 0.00, -0.00, -1.00, 712.3, 904.0)">r</text><text xml:space="preserve" font-family="HelveticaNeue-LightItalic" font-style="italic" font-size="48.0" fill="#FEFFFF" transform="matrix(1.00, 0.00, -0.00, -1.00, 727.4, 904.0)">i</text><text xml:space="preserve" font-family="HelveticaNeue-LightItalic" font-style="italic" font-size="48.0" fill="#FEFFFF" transform="matrix(1.00, 0.00, -0.00, -1.00, 736.3, 904.0)">c</text><text xml:space="preserve" font-family="HelveticaNeue-LightItalic" font-style="italic" font-size="48.0" fill="#FEFFFF" transform="matrix(1.00, 0.00, -0.00, -1.00, 761.2, 904.0)">a</text><text xml:space="preserve" font-family="HelveticaNeue-LightItalic" font-style="italic" font-size="48.0" fill="#FEFFFF" transform="matrix(1.00, 0.00, -0.00, -1.00, 786.1, 904.0)">l</text><text xml:space="preserve" font-family="HelveticaNeue-LightItalic" font-style="italic" font-size="48.0" fill="#FEFFFF" transform="matrix(1.00, 0.00, -0.00, -1.00, 795.0, 904.0)"> </text><text xml:space="preserve" font-family="HelveticaNeue-LightItalic" font-style="italic" font-size="48.0" fill="#FEFFFF" transform="matrix(1.00, 0.00, -0.00, -1.00, 808.3, 904.0)">a</text><text xml:space="preserve" font-family="HelveticaNeue-LightItalic" font-style="italic" font-size="48.0" fill="#FEFFFF" transform="matrix(1.00, 0.00, -0.00, -1.00, 833.2, 904.0)">n</text><text xml:space="preserve" font-family="HelveticaNeue-LightItalic" font-style="italic" font-size="48.0" fill="#FEFFFF" transform="matrix(1.00, 0.00, -0.00, -1.00, 859.0, 904.0)">d</text><text xml:space="preserve" font-family="HelveticaNeue-LightItalic" font-style="italic" font-size="48.0" fill="#FEFFFF" transform="matrix(1.00, 0.00, -0.00, -1.00, 886.6, 904.0)"> </text><text xml:space="preserve" font-family="HelveticaNeue-LightItalic" font-style="italic" font-size="48.0" fill="#FEFFFF" transform="matrix(1.00, 0.00, -0.00, -1.00, 899.9, 904.0)">m</text><text xml:space="preserve" font-family="HelveticaNeue-LightItalic" font-style="italic" font-size="48.0" fill="#FEFFFF" transform="matrix(1.00, 0.00, -0.00, -1.00, 939.9, 904.0)">e</text><text xml:space="preserve" font-family="HelveticaNeue-LightItalic" font-style="italic" font-size="48.0" fill="#FEFFFF" transform="matrix(1.00, 0.00, -0.00, -1.00, 964.8, 904.0)">c</text><text xml:space="preserve" font-family="HelveticaNeue-LightItalic" font-style="italic" font-size="48.0" fill="#FEFFFF" transform="matrix(1.00, 0.00, -0.00, -1.00, 989.7, 904.0)">h</text><text xml:space="preserve" font-family="HelveticaNeue-LightItalic" font-style="italic" font-size="48.0" fill="#FEFFFF" transform="matrix(1.00, 0.00, -0.00, -1.00, 1015.5, 904.0)">a</text><text xml:space="preserve" font-family="HelveticaNeue-LightItalic" font-style="italic" font-size="48.0" fill="#FEFFFF" transform="matrix(1.00, 0.00, -0.00, -1.00, 1040.4, 904.0)">n</text><text xml:space="preserve" font-family="HelveticaNeue-LightItalic" font-style="italic" font-size="48.0" fill="#FEFFFF" transform="matrix(1.00, 0.00, -0.00, -1.00, 1066.2, 904.0)">i</text><text xml:space="preserve" font-family="HelveticaNeue-LightItalic" font-style="italic" font-size="48.0" fill="#FEFFFF" transform="matrix(1.00, 0.00, -0.00, -1.00, 1075.1, 904.0)">c</text><text xml:space="preserve" font-family="HelveticaNeue-LightItalic" font-style="italic" font-size="48.0" fill="#FEFFFF" transform="matrix(1.00, 0.00, -0.00, -1.00, 1100.0, 904.0)">a</text><text xml:space="preserve" font-family="HelveticaNeue-LightItalic" font-style="italic" font-size="48.0" fill="#FEFFFF" transform="matrix(1.00, 0.00, -0.00, -1.00, 1124.9, 904.0)">l</text><text xml:space="preserve" font-family="HelveticaNeue-LightItalic" font-style="italic" font-size="48.0" fill="#FEFFFF" transform="matrix(1.00, 0.00, -0.00, -1.00, 1133.8, 904.0)"> </text><text xml:space="preserve" font-family="HelveticaNeue-LightItalic" font-style="italic" font-size="48.0" fill="#FEFFFF" transform="matrix(1.00, 0.00, -0.00, -1.00, 1147.1, 904.0)">c</text><text xml:space="preserve" font-family="HelveticaNeue-LightItalic" font-style="italic" font-size="48.0" fill="#FEFFFF" transform="matrix(1.00, 0.00, -0.00, -1.00, 1172.0, 904.0)">o</text><text xml:space="preserve" font-family="HelveticaNeue-LightItalic" font-style="italic" font-size="48.0" fill="#FEFFFF" transform="matrix(1.00, 0.00, -0.00, -1.00, 1198.7, 904.0)">n</text><text xml:space="preserve" font-family="HelveticaNeue-LightItalic" font-style="italic" font-size="48.0" fill="#FEFFFF" transform="matrix(1.00, 0.00, -0.00, -1.00, 1224.5, 904.0)">s</text><text xml:space="preserve" font-family="HelveticaNeue-LightItalic" font-style="italic" font-size="48.0" fill="#FEFFFF" transform="matrix(1.00, 0.00, -0.00, -1.00, 1247.6, 904.0)">t</text><text xml:space="preserve" font-family="HelveticaNeue-LightItalic" font-style="italic" font-size="48.0" fill="#FEFFFF" transform="matrix(1.00, 0.00, -0.00, -1.00, 1261.8, 904.0)">r</text><text xml:space="preserve" font-family="HelveticaNeue-LightItalic" font-style="italic" font-size="48.0" fill="#FEFFFF" transform="matrix(1.00, 0.00, -0.00, -1.00, 1276.9, 904.0)">a</text><text xml:space="preserve" font-family="HelveticaNeue-LightItalic" font-style="italic" font-size="48.0" fill="#FEFFFF" transform="matrix(1.00, 0.00, -0.00, -1.00, 1301.8, 904.0)">i</text><text xml:space="preserve" font-family="HelveticaNeue-LightItalic" font-style="italic" font-size="48.0" fill="#FEFFFF" transform="matrix(1.00, 0.00, -0.00, -1.00, 1310.7, 904.0)">n</text><text xml:space="preserve" font-family="HelveticaNeue-LightItalic" font-style="italic" font-size="48.0" fill="#FEFFFF" transform="matrix(1.00, 0.00, -0.00, -1.00, 1336.5, 904.0)">t</text><text xml:space="preserve" font-family="HelveticaNeue-LightItalic" font-style="italic" font-size="48.0" fill="#FEFFFF" transform="matrix(1.00, 0.00, -0.00, -1.00, 1350.7, 904.0)">s</text><text xml:space="preserve" font-family="HelveticaNeue-LightItalic" font-style="italic" font-size="48.0" fill="#FEFFFF" transform="matrix(1.00, 0.00, -0.00, -1.00, 1373.8, 904.0)"> </text><text xml:space="preserve" font-family="HelveticaNeue-LightItalic" font-style="italic" font-size="48.0" fill="#FEFFFF" transform="matrix(1.00, 0.00, -0.00, -1.00, 502.0, 847.0)">i</text><text xml:space="preserve" font-family="HelveticaNeue-LightItalic" font-style="italic" font-size="48.0" fill="#FEFFFF" transform="matrix(1.00, 0.00, -0.00, -1.00, 510.9, 847.0)">n</text><text xml:space="preserve" font-family="HelveticaNeue-LightItalic" font-style="italic" font-size="48.0" fill="#FEFFFF" transform="matrix(1.00, 0.00, -0.00, -1.00, 536.7, 847.0)">ﬂ</text><text xml:space="preserve" font-family="HelveticaNeue-LightItalic" font-style="italic" font-size="48.0" fill="#FEFFFF" transform="matrix(1.00, 0.00, -0.00, -1.00, 558.0, 847.0)">u</text><text xml:space="preserve" font-family="HelveticaNeue-LightItalic" font-style="italic" font-size="48.0" fill="#FEFFFF" transform="matrix(1.00, 0.00, -0.00, -1.00, 583.7, 847.0)">e</text><text xml:space="preserve" font-family="HelveticaNeue-LightItalic" font-style="italic" font-size="48.0" fill="#FEFFFF" transform="matrix(1.00, 0.00, -0.00, -1.00, 608.7, 847.0)">n</text><text xml:space="preserve" font-family="HelveticaNeue-LightItalic" font-style="italic" font-size="48.0" fill="#FEFFFF" transform="matrix(1.00, 0.00, -0.00, -1.00, 634.4, 847.0)">c</text><text xml:space="preserve" font-family="HelveticaNeue-LightItalic" font-style="italic" font-size="48.0" fill="#FEFFFF" transform="matrix(1.00, 0.00, -0.00, -1.00, 659.3, 847.0)">e</text><text xml:space="preserve" font-family="HelveticaNeue-LightItalic" font-style="italic" font-size="48.0" fill="#FEFFFF" transform="matrix(1.00, 0.00, -0.00, -1.00, 684.3, 847.0)"> </text><text xml:space="preserve" font-family="HelveticaNeue-LightItalic" font-style="italic" font-size="48.0" fill="#FEFFFF" transform="matrix(1.00, 0.00, -0.00, -1.00, 697.6, 847.0)">a</text><text xml:space="preserve" font-family="HelveticaNeue-LightItalic" font-style="italic" font-size="48.0" fill="#FEFFFF" transform="matrix(1.00, 0.00, -0.00, -1.00, 722.5, 847.0)">n</text><text xml:space="preserve" font-family="HelveticaNeue-LightItalic" font-style="italic" font-size="48.0" fill="#FEFFFF" transform="matrix(1.00, 0.00, -0.00, -1.00, 748.3, 847.0)">d</text><text xml:space="preserve" font-family="HelveticaNeue-LightItalic" font-style="italic" font-size="48.0" fill="#FEFFFF" transform="matrix(1.00, 0.00, -0.00, -1.00, 775.8, 847.0)"> </text><text xml:space="preserve" font-family="HelveticaNeue-LightItalic" font-style="italic" font-size="48.0" fill="#FEFFFF" transform="matrix(1.00, 0.00, -0.00, -1.00, 789.2, 847.0)">d</text><text xml:space="preserve" font-family="HelveticaNeue-LightItalic" font-style="italic" font-size="48.0" fill="#FEFFFF" transform="matrix(1.00, 0.00, -0.00, -1.00, 816.7, 847.0)">e</text><text xml:space="preserve" font-family="HelveticaNeue-LightItalic" font-style="italic" font-size="48.0" fill="#FEFFFF" transform="matrix(1.00, 0.00, -0.00, -1.00, 841.6, 847.0)">ﬁ</text><text xml:space="preserve" font-family="HelveticaNeue-LightItalic" font-style="italic" font-size="48.0" fill="#FEFFFF" transform="matrix(1.00, 0.00, -0.00, -1.00, 863.0, 847.0)">n</text><text xml:space="preserve" font-family="HelveticaNeue-LightItalic" font-style="italic" font-size="48.0" fill="#FEFFFF" transform="matrix(1.00, 0.00, -0.00, -1.00, 888.7, 847.0)">e</text><text xml:space="preserve" font-family="HelveticaNeue-LightItalic" font-style="italic" font-size="48.0" fill="#FEFFFF" transform="matrix(1.00, 0.00, -0.00, -1.00, 913.6, 847.0)"> </text><text xml:space="preserve" font-family="HelveticaNeue-LightItalic" font-style="italic" font-size="48.0" fill="#FEFFFF" transform="matrix(1.00, 0.00, -0.00, -1.00, 927.0, 847.0)">n</text><text xml:space="preserve" font-family="HelveticaNeue-LightItalic" font-style="italic" font-size="48.0" fill="#FEFFFF" transform="matrix(1.00, 0.00, -0.00, -1.00, 952.8, 847.0)">e</text><text xml:space="preserve" font-family="HelveticaNeue-LightItalic" font-style="italic" font-size="48.0" fill="#FEFFFF" transform="matrix(1.00, 0.00, -0.00, -1.00, 977.7, 847.0)">o</text><text xml:space="preserve" font-family="HelveticaNeue-LightItalic" font-style="italic" font-size="48.0" fill="#FEFFFF" transform="matrix(1.00, 0.00, -0.00, -1.00, 1004.4, 847.0)">c</text><text xml:space="preserve" font-family="HelveticaNeue-LightItalic" font-style="italic" font-size="48.0" fill="#FEFFFF" transform="matrix(1.00, 0.00, -0.00, -1.00, 1029.3, 847.0)">o</text><text xml:space="preserve" font-family="HelveticaNeue-LightItalic" font-style="italic" font-size="48.0" fill="#FEFFFF" transform="matrix(1.00, 0.00, -0.00, -1.00, 1056.0, 847.0)">r</text><text xml:space="preserve" font-family="HelveticaNeue-LightItalic" font-style="italic" font-size="48.0" fill="#FEFFFF" transform="matrix(1.00, 0.00, -0.00, -1.00, 1071.1, 847.0)">t</text><text xml:space="preserve" font-family="HelveticaNeue-LightItalic" font-style="italic" font-size="48.0" fill="#FEFFFF" transform="matrix(1.00, 0.00, -0.00, -1.00, 1085.3, 847.0)">i</text><text xml:space="preserve" font-family="HelveticaNeue-LightItalic" font-style="italic" font-size="48.0" fill="#FEFFFF" transform="matrix(1.00, 0.00, -0.00, -1.00, 1094.2, 847.0)">c</text><text xml:space="preserve" font-family="HelveticaNeue-LightItalic" font-style="italic" font-size="48.0" fill="#FEFFFF" transform="matrix(1.00, 0.00, -0.00, -1.00, 1119.1, 847.0)">a</text><text xml:space="preserve" font-family="HelveticaNeue-LightItalic" font-style="italic" font-size="48.0" fill="#FEFFFF" transform="matrix(1.00, 0.00, -0.00, -1.00, 1144.0, 847.0)">l</text><text xml:space="preserve" font-family="HelveticaNeue-LightItalic" font-style="italic" font-size="48.0" fill="#FEFFFF" transform="matrix(1.00, 0.00, -0.00, -1.00, 1152.9, 847.0)"> </text><text xml:space="preserve" font-family="HelveticaNeue-LightItalic" font-style="italic" font-size="48.0" fill="#FEFFFF" transform="matrix(1.00, 0.00, -0.00, -1.00, 1166.2, 847.0)">o</text><text xml:space="preserve" font-family="HelveticaNeue-LightItalic" font-style="italic" font-size="48.0" fill="#FEFFFF" transform="matrix(1.00, 0.00, -0.00, -1.00, 1192.9, 847.0)">r</text><text xml:space="preserve" font-family="HelveticaNeue-LightItalic" font-style="italic" font-size="48.0" fill="#FEFFFF" transform="matrix(1.00, 0.00, -0.00, -1.00, 1208.0, 847.0)">g</text><text xml:space="preserve" font-family="HelveticaNeue-LightItalic" font-style="italic" font-size="48.0" fill="#FEFFFF" transform="matrix(1.00, 0.00, -0.00, -1.00, 1234.7, 847.0)">a</text><text xml:space="preserve" font-family="HelveticaNeue-LightItalic" font-style="italic" font-size="48.0" fill="#FEFFFF" transform="matrix(1.00, 0.00, -0.00, -1.00, 1259.6, 847.0)">n</text><text xml:space="preserve" font-family="HelveticaNeue-LightItalic" font-style="italic" font-size="48.0" fill="#FEFFFF" transform="matrix(1.00, 0.00, -0.00, -1.00, 1285.4, 847.0)">i</text><text xml:space="preserve" font-family="HelveticaNeue-LightItalic" font-style="italic" font-size="48.0" fill="#FEFFFF" transform="matrix(1.00, 0.00, -0.00, -1.00, 1294.3, 847.0)">s</text><text xml:space="preserve" font-family="HelveticaNeue-LightItalic" font-style="italic" font-size="48.0" fill="#FEFFFF" transform="matrix(1.00, 0.00, -0.00, -1.00, 1317.4, 847.0)">a</text><text xml:space="preserve" font-family="HelveticaNeue-LightItalic" font-style="italic" font-size="48.0" fill="#FEFFFF" transform="matrix(1.00, 0.00, -0.00, -1.00, 1342.3, 847.0)">t</text><text xml:space="preserve" font-family="HelveticaNeue-LightItalic" font-style="italic" font-size="48.0" fill="#FEFFFF" transform="matrix(1.00, 0.00, -0.00, -1.00, 1356.5, 847.0)">i</text><text xml:space="preserve" font-family="HelveticaNeue-LightItalic" font-style="italic" font-size="48.0" fill="#FEFFFF" transform="matrix(1.00, 0.00, -0.00, -1.00, 1365.4, 847.0)">o</text><text xml:space="preserve" font-family="HelveticaNeue-LightItalic" font-style="italic" font-size="48.0" fill="#FEFFFF" transform="matrix(1.00, 0.00, -0.00, -1.00, 1392.1, 847.0)">n</text><text xml:space="preserve" font-family="HelveticaNeue-LightItalic" font-style="italic" font-size="48.0" fill="#FEFFFF" transform="matrix(1.00, 0.00, -0.00, -1.00, 1417.8, 847.0)"> </text><text xml:space="preserve" font-family="HelveticaNeue-LightItalic" font-style="italic" font-size="48.0" fill="#FEFFFF" transform="matrix(1.00, 0.00, -0.00, -1.00, 543.0, 790.0)">(</text><text xml:space="preserve" font-family="HelveticaNeue-LightItalic" font-style="italic" font-size="48.0" fill="#FEFFFF" transform="matrix(1.00, 0.00, -0.00, -1.00, 555.4, 790.0)">a</text><text xml:space="preserve" font-family="HelveticaNeue-LightItalic" font-style="italic" font-size="48.0" fill="#FEFFFF" transform="matrix(1.00, 0.00, -0.00, -1.00, 580.3, 790.0)">n</text><text xml:space="preserve" font-family="HelveticaNeue-LightItalic" font-style="italic" font-size="48.0" fill="#FEFFFF" transform="matrix(1.00, 0.00, -0.00, -1.00, 606.1, 790.0)">d</text><text xml:space="preserve" font-family="HelveticaNeue-LightItalic" font-style="italic" font-size="48.0" fill="#FEFFFF" transform="matrix(1.00, 0.00, -0.00, -1.00, 633.7, 790.0)"> </text><text xml:space="preserve" font-family="HelveticaNeue-LightItalic" font-style="italic" font-size="48.0" fill="#FEFFFF" transform="matrix(1.00, 0.00, -0.00, -1.00, 647.0, 790.0)">p</text><text xml:space="preserve" font-family="HelveticaNeue-LightItalic" font-style="italic" font-size="48.0" fill="#FEFFFF" transform="matrix(1.00, 0.00, -0.00, -1.00, 674.6, 790.0)">o</text><text xml:space="preserve" font-family="HelveticaNeue-LightItalic" font-style="italic" font-size="48.0" fill="#FEFFFF" transform="matrix(1.00, 0.00, -0.00, -1.00, 701.3, 790.0)">s</text><text xml:space="preserve" font-family="HelveticaNeue-LightItalic" font-style="italic" font-size="48.0" fill="#FEFFFF" transform="matrix(1.00, 0.00, -0.00, -1.00, 724.3, 790.0)">s</text><text xml:space="preserve" font-family="HelveticaNeue-LightItalic" font-style="italic" font-size="48.0" fill="#FEFFFF" transform="matrix(1.00, 0.00, -0.00, -1.00, 747.4, 790.0)">i</text><text xml:space="preserve" font-family="HelveticaNeue-LightItalic" font-style="italic" font-size="48.0" fill="#FEFFFF" transform="matrix(1.00, 0.00, -0.00, -1.00, 756.3, 790.0)">b</text><text xml:space="preserve" font-family="HelveticaNeue-LightItalic" font-style="italic" font-size="48.0" fill="#FEFFFF" transform="matrix(1.00, 0.00, -0.00, -1.00, 783.9, 790.0)">l</text><text xml:space="preserve" font-family="HelveticaNeue-LightItalic" font-style="italic" font-size="48.0" fill="#FEFFFF" transform="matrix(1.00, 0.00, -0.00, -1.00, 792.7, 790.0)">y</text><text xml:space="preserve" font-family="HelveticaNeue-LightItalic" font-style="italic" font-size="48.0" fill="#FEFFFF" transform="matrix(1.00, 0.00, -0.00, -1.00, 810.6, 790.0)">,</text><text xml:space="preserve" font-family="HelveticaNeue-LightItalic" font-style="italic" font-size="48.0" fill="#FEFFFF" transform="matrix(1.00, 0.00, -0.00, -1.00, 823.9, 790.0)"> </text><text xml:space="preserve" font-family="HelveticaNeue-LightItalic" font-style="italic" font-size="48.0" fill="#FEFFFF" transform="matrix(1.00, 0.00, -0.00, -1.00, 837.2, 790.0)">t</text><text xml:space="preserve" font-family="HelveticaNeue-LightItalic" font-style="italic" font-size="48.0" fill="#FEFFFF" transform="matrix(1.00, 0.00, -0.00, -1.00, 851.4, 790.0)">h</text><text xml:space="preserve" font-family="HelveticaNeue-LightItalic" font-style="italic" font-size="48.0" fill="#FEFFFF" transform="matrix(1.00, 0.00, -0.00, -1.00, 877.2, 790.0)">e</text><text xml:space="preserve" font-family="HelveticaNeue-LightItalic" font-style="italic" font-size="48.0" fill="#FEFFFF" transform="matrix(1.00, 0.00, -0.00, -1.00, 902.1, 790.0)"> </text><text xml:space="preserve" font-family="HelveticaNeue-LightItalic" font-style="italic" font-size="48.0" fill="#FEFFFF" transform="matrix(1.00, 0.00, -0.00, -1.00, 915.5, 790.0)">g</text><text xml:space="preserve" font-family="HelveticaNeue-LightItalic" font-style="italic" font-size="48.0" fill="#FEFFFF" transform="matrix(1.00, 0.00, -0.00, -1.00, 942.2, 790.0)">e</text><text xml:space="preserve" font-family="HelveticaNeue-LightItalic" font-style="italic" font-size="48.0" fill="#FEFFFF" transform="matrix(1.00, 0.00, -0.00, -1.00, 967.1, 790.0)">o</text><text xml:space="preserve" font-family="HelveticaNeue-LightItalic" font-style="italic" font-size="48.0" fill="#FEFFFF" transform="matrix(1.00, 0.00, -0.00, -1.00, 993.8, 790.0)">m</text><text xml:space="preserve" font-family="HelveticaNeue-LightItalic" font-style="italic" font-size="48.0" fill="#FEFFFF" transform="matrix(1.00, 0.00, -0.00, -1.00, 1033.8, 790.0)">e</text><text xml:space="preserve" font-family="HelveticaNeue-LightItalic" font-style="italic" font-size="48.0" fill="#FEFFFF" transform="matrix(1.00, 0.00, -0.00, -1.00, 1058.7, 790.0)">t</text><text xml:space="preserve" font-family="HelveticaNeue-LightItalic" font-style="italic" font-size="48.0" fill="#FEFFFF" transform="matrix(1.00, 0.00, -0.00, -1.00, 1072.9, 790.0)">r</text><text xml:space="preserve" font-family="HelveticaNeue-LightItalic" font-style="italic" font-size="48.0" fill="#FEFFFF" transform="matrix(1.00, 0.00, -0.00, -1.00, 1088.0, 790.0)">y</text><text xml:space="preserve" font-family="HelveticaNeue-LightItalic" font-style="italic" font-size="48.0" fill="#FEFFFF" transform="matrix(1.00, 0.00, -0.00, -1.00, 1110.2, 790.0)"> </text><text xml:space="preserve" font-family="HelveticaNeue-LightItalic" font-style="italic" font-size="48.0" fill="#FEFFFF" transform="matrix(1.00, 0.00, -0.00, -1.00, 1123.6, 790.0)">o</text><text xml:space="preserve" font-family="HelveticaNeue-LightItalic" font-style="italic" font-size="48.0" fill="#FEFFFF" transform="matrix(1.00, 0.00, -0.00, -1.00, 1150.2, 790.0)">f</text><text xml:space="preserve" font-family="HelveticaNeue-LightItalic" font-style="italic" font-size="48.0" fill="#FEFFFF" transform="matrix(1.00, 0.00, -0.00, -1.00, 1162.7, 790.0)"> </text><text xml:space="preserve" font-family="HelveticaNeue-LightItalic" font-style="italic" font-size="48.0" fill="#FEFFFF" transform="matrix(1.00, 0.00, -0.00, -1.00, 1176.0, 790.0)">c</text><text xml:space="preserve" font-family="HelveticaNeue-LightItalic" font-style="italic" font-size="48.0" fill="#FEFFFF" transform="matrix(1.00, 0.00, -0.00, -1.00, 1200.9, 790.0)">o</text><text xml:space="preserve" font-family="HelveticaNeue-LightItalic" font-style="italic" font-size="48.0" fill="#FEFFFF" transform="matrix(1.00, 0.00, -0.00, -1.00, 1227.6, 790.0)">g</text><text xml:space="preserve" font-family="HelveticaNeue-LightItalic" font-style="italic" font-size="48.0" fill="#FEFFFF" transform="matrix(1.00, 0.00, -0.00, -1.00, 1254.3, 790.0)">n</text><text xml:space="preserve" font-family="HelveticaNeue-LightItalic" font-style="italic" font-size="48.0" fill="#FEFFFF" transform="matrix(1.00, 0.00, -0.00, -1.00, 1280.1, 790.0)">i</text><text xml:space="preserve" font-family="HelveticaNeue-LightItalic" font-style="italic" font-size="48.0" fill="#FEFFFF" transform="matrix(1.00, 0.00, -0.00, -1.00, 1289.0, 790.0)">t</text><text xml:space="preserve" font-family="HelveticaNeue-LightItalic" font-style="italic" font-size="48.0" fill="#FEFFFF" transform="matrix(1.00, 0.00, -0.00, -1.00, 1303.2, 790.0)">i</text><text xml:space="preserve" font-family="HelveticaNeue-LightItalic" font-style="italic" font-size="48.0" fill="#FEFFFF" transform="matrix(1.00, 0.00, -0.00, -1.00, 1312.1, 790.0)">o</text><text xml:space="preserve" font-family="HelveticaNeue-LightItalic" font-style="italic" font-size="48.0" fill="#FEFFFF" transform="matrix(1.00, 0.00, -0.00, -1.00, 1338.7, 790.0)">n</text><text xml:space="preserve" font-family="HelveticaNeue-LightItalic" font-style="italic" font-size="48.0" fill="#FEFFFF" transform="matrix(1.00, 0.00, -0.00, -1.00, 1364.5, 790.0)">)</text><g><clipPath id="clip-26666"><path d="M 647.0 590.0 L 1227.0 590.0 L 1227.0 705.0 L 647.0 705.0 Z M 647.0 590.0 "></path></clipPath><g clip-path="url(#clip-26666)"><path d="M 2.0 2.0 C 108.4 108.4 319.6 110.0 429.1 6.8 " fill="none" stroke="#FFFFFF" stroke-width="5.67" stroke-miterlimit="0.00" transform="matrix(1.33, 0.00, 0.00, 1.34, 647.0, 590.0)"></path><path d="M 1158.0 604.5 C 1157.0 605.3 1156.6 606.6 1156.8 607.9 C 1157.2 610.0 1159.2 611.3 1161.2 611.0 L 1218.1 600.1 L 1203.8 656.4 C 1203.3 658.5 1204.5 660.5 1206.6 661.1 C 1208.6 661.6 1210.6 660.3 1211.1 658.3 L 1226.9 596.2 C 1227.2 595.0 1226.9 593.6 1226.0 592.7 C 1225.1 591.7 1223.8 591.3 1222.5 591.6 L 1159.8 603.5 C 1159.1 603.6 1158.5 604.0 1158.0 604.5 C 1157.0 605.3 1158.5 604.0 1158.0 604.5 " fill="#FFFFFF"></path></g></g><text xml:space="preserve" font-family="HelveticaNeue-Medium" font-size="56.0" fill="#FEFFFF" transform="matrix(1.00, 0.00, -0.00, -1.00, 318.0, 515.0)">G</text><text xml:space="preserve" font-family="HelveticaNeue-Medium" font-size="56.0" fill="#FEFFFF" transform="matrix(1.00, 0.00, -0.00, -1.00, 360.5, 515.0)">e</text><text xml:space="preserve" font-family="HelveticaNeue-Medium" font-size="56.0" fill="#FEFFFF" transform="matrix(1.00, 0.00, -0.00, -1.00, 391.6, 515.0)">n</text><text xml:space="preserve" font-family="HelveticaNeue-Medium" font-size="56.0" fill="#FEFFFF" transform="matrix(1.00, 0.00, -0.00, -1.00, 423.8, 515.0)">e</text><text xml:space="preserve" font-family="HelveticaNeue-Medium" font-size="56.0" fill="#FEFFFF" transform="matrix(1.00, 0.00, -0.00, -1.00, 454.9, 515.0)">t</text><text xml:space="preserve" font-family="HelveticaNeue-Medium" font-size="56.0" fill="#FEFFFF" transform="matrix(1.00, 0.00, -0.00, -1.00, 473.6, 515.0)">i</text><text xml:space="preserve" font-family="HelveticaNeue-Medium" font-size="56.0" fill="#FEFFFF" transform="matrix(1.00, 0.00, -0.00, -1.00, 487.1, 515.0)">c</text><text xml:space="preserve" font-family="HelveticaNeue-Medium" font-size="56.0" fill="#FEFFFF" transform="matrix(1.00, 0.00, -0.00, -1.00, 518.2, 515.0)">s</text><text xml:space="preserve" font-family="HelveticaNeue-Medium" font-size="56.0" fill="#FEFFFF" transform="matrix(1.00, 0.00, -0.00, -1.00, 1341.0, 515.0)">M</text><text xml:space="preserve" font-family="HelveticaNeue-Medium" font-size="56.0" fill="#FEFFFF" transform="matrix(1.00, 0.00, -0.00, -1.00, 1390.8, 515.0)">e</text><text xml:space="preserve" font-family="HelveticaNeue-Medium" font-size="56.0" fill="#FEFFFF" transform="matrix(1.00, 0.00, -0.00, -1.00, 1421.9, 515.0)">c</text><text xml:space="preserve" font-family="HelveticaNeue-Medium" font-size="56.0" fill="#FEFFFF" transform="matrix(1.00, 0.00, -0.00, -1.00, 1453.1, 515.0)">h</text><text xml:space="preserve" font-family="HelveticaNeue-Medium" font-size="56.0" fill="#FEFFFF" transform="matrix(1.00, 0.00, -0.00, -1.00, 1485.2, 515.0)">a</text><text xml:space="preserve" font-family="HelveticaNeue-Medium" font-size="56.0" fill="#FEFFFF" transform="matrix(1.00, 0.00, -0.00, -1.00, 1516.3, 515.0)">n</text><text xml:space="preserve" font-family="HelveticaNeue-Medium" font-size="56.0" fill="#FEFFFF" transform="matrix(1.00, 0.00, -0.00, -1.00, 1548.5, 515.0)">i</text><text xml:space="preserve" font-family="HelveticaNeue-Medium" font-size="56.0" fill="#FEFFFF" transform="matrix(1.00, 0.00, -0.00, -1.00, 1562.0, 515.0)">c</text><text xml:space="preserve" font-family="HelveticaNeue-Medium" font-size="56.0" fill="#FEFFFF" transform="matrix(1.00, 0.00, -0.00, -1.00, 1593.1, 515.0)">s</text><g><clipPath id="clip-26667"><path d="M 1241.0 464.0 L 660.0 464.0 L 660.0 349.0 L 1241.0 349.0 Z M 1241.0 464.0 "></path></clipPath><g clip-path="url(#clip-26667)"><path d="M 2.0 2.0 C 108.4 108.4 319.6 110.0 429.1 6.8 " fill="none" stroke="#FFFFFF" stroke-width="5.67" stroke-miterlimit="0.00" transform="matrix(-1.34, 0.00, 0.00, -1.34, 1241.0, 464.0)"></path><path d="M 729.2 449.5 C 730.1 448.7 730.5 447.4 730.3 446.1 C 729.9 444.0 727.9 442.7 725.9 443.0 L 668.9 453.9 L 683.2 397.6 C 683.7 395.5 682.5 393.5 680.5 392.9 C 678.5 392.4 676.4 393.7 675.9 395.7 L 660.1 457.8 C 659.8 459.0 660.1 460.4 661.0 461.3 C 661.9 462.3 663.2 462.7 664.5 462.4 L 727.3 450.5 C 728.0 450.4 728.7 450.0 729.2 449.5 C 730.1 448.7 728.7 450.0 729.2 449.5 " fill="#FFFFFF"></path></g></g><text xml:space="preserve" font-family="HelveticaNeue" font-size="36.0" fill="#FEFFFE" transform="matrix(1.00, 0.00, -0.00, -1.00, 1598.6, 14.1)">F</text><text xml:space="preserve" font-family="HelveticaNeue" font-size="36.0" fill="#FEFFFE" transform="matrix(1.00, 0.00, -0.00, -1.00, 1619.3, 14.1)">o</text><text xml:space="preserve" font-family="HelveticaNeue" font-size="36.0" fill="#FEFFFE" transform="matrix(1.00, 0.00, -0.00, -1.00, 1640.0, 14.1)">u</text><text xml:space="preserve" font-family="HelveticaNeue" font-size="36.0" fill="#FEFFFE" transform="matrix(1.00, 0.00, -0.00, -1.00, 1660.0, 14.1)">b</text><text xml:space="preserve" font-family="HelveticaNeue" font-size="36.0" fill="#FEFFFE" transform="matrix(1.00, 0.00, -0.00, -1.00, 1681.3, 14.1)">e</text><text xml:space="preserve" font-family="HelveticaNeue" font-size="36.0" fill="#FEFFFE" transform="matrix(1.00, 0.00, -0.00, -1.00, 1700.6, 14.1)">t</text><text xml:space="preserve" font-family="HelveticaNeue" font-size="36.0" fill="#FEFFFE" transform="matrix(1.00, 0.00, -0.00, -1.00, 1712.0, 14.1)"> </text><text xml:space="preserve" font-family="HelveticaNeue" font-size="36.0" fill="#FEFFFE" transform="matrix(1.00, 0.00, -0.00, -1.00, 1722.0, 14.1)">&amp;</text><text xml:space="preserve" font-family="HelveticaNeue" font-size="36.0" fill="#FEFFFE" transform="matrix(1.00, 0.00, -0.00, -1.00, 1744.7, 14.1)"> </text><text xml:space="preserve" font-family="HelveticaNeue" font-size="36.0" fill="#FEFFFE" transform="matrix(1.00, 0.00, -0.00, -1.00, 1754.7, 14.1)">T</text><text xml:space="preserve" font-family="HelveticaNeue" font-size="36.0" fill="#FEFFFE" transform="matrix(1.00, 0.00, -0.00, -1.00, 1771.4, 14.1)">o</text><text xml:space="preserve" font-family="HelveticaNeue" font-size="36.0" fill="#FEFFFE" transform="matrix(1.00, 0.00, -0.00, -1.00, 1792.0, 14.1)">r</text><text xml:space="preserve" font-family="HelveticaNeue" font-size="36.0" fill="#FEFFFE" transform="matrix(1.00, 0.00, -0.00, -1.00, 1803.4, 14.1)">o</text><text xml:space="preserve" font-family="HelveticaNeue" font-size="36.0" fill="#FEFFFE" transform="matrix(1.00, 0.00, -0.00, -1.00, 1824.0, 14.1)"> </text><text xml:space="preserve" font-family="HelveticaNeue" font-size="36.0" fill="#FEFFFE" transform="matrix(1.00, 0.00, -0.00, -1.00, 1834.0, 14.1)">2</text><text xml:space="preserve" font-family="HelveticaNeue" font-size="36.0" fill="#FEFFFE" transform="matrix(1.00, 0.00, -0.00, -1.00, 1854.0, 14.1)">0</text><text xml:space="preserve" font-family="HelveticaNeue" font-size="36.0" fill="#FEFFFE" transform="matrix(1.00, 0.00, -0.00, -1.00, 1874.1, 14.1)">1</text><text xml:space="preserve" font-family="HelveticaNeue" font-size="36.0" fill="#FEFFFE" transform="matrix(1.00, 0.00, -0.00, -1.00, 1894.1, 14.1)">5</text></g></svg>