<?xml version="1.0" encoding="UTF-8" standalone="no"?><svg xmlns="http://www.w3.org/2000/svg" xmlns:xlink="http://www.w3.org/1999/xlink" clip-rule="evenodd" stroke-miterlimit="4.00" viewBox="0 0 1920 1080"><desc>SVG generated by Keynote</desc><defs></defs><g transform="matrix(1.00, 0.00, -0.00, -1.00, 0.0, 1080.0)"><path d="M 0.0 1080.0 L 1920.0 1080.0 L 1920.0 0.0 L 0.0 0.0 Z M 0.0 1080.0 " fill="#FEFFFF"></path><image xlink:href="../../DD8EF9A4-D1B8-4B3A-ADE5-FA987502AB26/assets/90B78FB4E0E0432AB55F5D45A757E8B0.png" width="358.00" height="541.00" transform="matrix(1.67, 0.00, -0.00, -1.67, 344.0, 992.0)"></image><image xlink:href="../../DD8EF9A4-D1B8-4B3A-ADE5-FA987502AB26/assets/46BFC0DB15CAFE9ED7ED81093028783E.png" width="373.00" height="540.00" transform="matrix(1.67, 0.00, -0.00, -1.67, 953.0, 991.0)"></image><path d="M 349.5 820.5 L 457.1 820.5 L 457.1 778.5 L 349.5 778.5 Z M 349.5 820.5 " fill="#FFFFFF"></path><g><clipPath id="clip-26601"><path d="M 346.3 776.3 L 460.3 776.3 L 460.3 823.7 L 346.3 823.7 Z M 346.3 776.3 "></path></clipPath><g clip-path="url(#clip-26601)"><text xml:space="preserve" font-family="HelveticaNeue-Medium" font-size="26.0" fill="#000000" transform="matrix(1.00, 0.00, -0.00, -1.00, 354.0, 790.0)">2</text><text xml:space="preserve" font-family="HelveticaNeue-Medium" font-size="26.0" fill="#000000" transform="matrix(1.00, 0.00, -0.00, -1.00, 368.5, 790.0)">6</text><text xml:space="preserve" font-family="HelveticaNeue-Medium" font-size="26.0" fill="#000000" transform="matrix(1.00, 0.00, -0.00, -1.00, 382.9, 790.0)"> </text><text xml:space="preserve" font-family="HelveticaNeue-Medium" font-size="26.0" fill="#000000" transform="matrix(1.00, 0.00, -0.00, -1.00, 390.1, 790.0)">d</text><text xml:space="preserve" font-family="HelveticaNeue-Medium" font-size="26.0" fill="#000000" transform="matrix(1.00, 0.00, -0.00, -1.00, 406.0, 790.0)">a</text><text xml:space="preserve" font-family="HelveticaNeue-Medium" font-size="26.0" fill="#000000" transform="matrix(1.00, 0.00, -0.00, -1.00, 420.5, 790.0)">y</text><text xml:space="preserve" font-family="HelveticaNeue-Medium" font-size="26.0" fill="#000000" transform="matrix(1.00, 0.00, -0.00, -1.00, 434.0, 790.0)">s</text></g></g><path d="M 349.5 549.0 L 457.1 549.0 L 457.1 507.0 L 349.5 507.0 Z M 349.5 549.0 " fill="#FFFFFF"></path><g><clipPath id="clip-26602"><path d="M 346.3 504.8 L 460.3 504.8 L 460.3 552.2 L 346.3 552.2 Z M 346.3 504.8 "></path></clipPath><g clip-path="url(#clip-26602)"><text xml:space="preserve" font-family="HelveticaNeue-Medium" font-size="26.0" fill="#000000" transform="matrix(1.00, 0.00, -0.00, -1.00, 354.0, 519.0)">3</text><text xml:space="preserve" font-family="HelveticaNeue-Medium" font-size="26.0" fill="#000000" transform="matrix(1.00, 0.00, -0.00, -1.00, 368.5, 519.0)">0</text><text xml:space="preserve" font-family="HelveticaNeue-Medium" font-size="26.0" fill="#000000" transform="matrix(1.00, 0.00, -0.00, -1.00, 382.9, 519.0)"> </text><text xml:space="preserve" font-family="HelveticaNeue-Medium" font-size="26.0" fill="#000000" transform="matrix(1.00, 0.00, -0.00, -1.00, 390.1, 519.0)">d</text><text xml:space="preserve" font-family="HelveticaNeue-Medium" font-size="26.0" fill="#000000" transform="matrix(1.00, 0.00, -0.00, -1.00, 406.0, 519.0)">a</text><text xml:space="preserve" font-family="HelveticaNeue-Medium" font-size="26.0" fill="#000000" transform="matrix(1.00, 0.00, -0.00, -1.00, 420.5, 519.0)">y</text><text xml:space="preserve" font-family="HelveticaNeue-Medium" font-size="26.0" fill="#000000" transform="matrix(1.00, 0.00, -0.00, -1.00, 434.0, 519.0)">s</text></g></g><path d="M 349.5 150.0 L 457.1 150.0 L 457.1 108.0 L 349.5 108.0 Z M 349.5 150.0 " fill="#FFFFFF"></path><g><clipPath id="clip-26603"><path d="M 346.3 105.8 L 460.3 105.8 L 460.3 153.2 L 346.3 153.2 Z M 346.3 105.8 "></path></clipPath><g clip-path="url(#clip-26603)"><text xml:space="preserve" font-family="HelveticaNeue-Medium" font-size="26.0" fill="#000000" transform="matrix(1.00, 0.00, -0.00, -1.00, 354.0, 120.0)">4</text><text xml:space="preserve" font-family="HelveticaNeue-Medium" font-size="26.0" fill="#000000" transform="matrix(1.00, 0.00, -0.00, -1.00, 368.5, 120.0)">1</text><text xml:space="preserve" font-family="HelveticaNeue-Medium" font-size="26.0" fill="#000000" transform="matrix(1.00, 0.00, -0.00, -1.00, 382.9, 120.0)"> </text><text xml:space="preserve" font-family="HelveticaNeue-Medium" font-size="26.0" fill="#000000" transform="matrix(1.00, 0.00, -0.00, -1.00, 390.1, 120.0)">d</text><text xml:space="preserve" font-family="HelveticaNeue-Medium" font-size="26.0" fill="#000000" transform="matrix(1.00, 0.00, -0.00, -1.00, 406.0, 120.0)">a</text><text xml:space="preserve" font-family="HelveticaNeue-Medium" font-size="26.0" fill="#000000" transform="matrix(1.00, 0.00, -0.00, -1.00, 420.5, 120.0)">y</text><text xml:space="preserve" font-family="HelveticaNeue-Medium" font-size="26.0" fill="#000000" transform="matrix(1.00, 0.00, -0.00, -1.00, 434.0, 120.0)">s</text></g></g><path d="M 976.5 561.0 L 1059.0 561.0 L 1059.0 519.0 L 976.5 519.0 Z M 976.5 561.0 " fill="#FFFFFF"></path><g><clipPath id="clip-26604"><path d="M 973.3 516.8 L 1062.3 516.8 L 1062.3 564.2 L 973.3 564.2 Z M 973.3 516.8 "></path></clipPath><g clip-path="url(#clip-26604)"><text xml:space="preserve" font-family="HelveticaNeue-Medium" font-size="26.0" fill="#000000" transform="matrix(1.00, 0.00, -0.00, -1.00, 981.0, 531.0)">6</text><text xml:space="preserve" font-family="HelveticaNeue-Medium" font-size="26.0" fill="#000000" transform="matrix(1.00, 0.00, -0.00, -1.00, 995.5, 531.0)"> </text><text xml:space="preserve" font-family="HelveticaNeue-Medium" font-size="26.0" fill="#000000" transform="matrix(1.00, 0.00, -0.00, -1.00, 1002.7, 531.0)">w</text><text xml:space="preserve" font-family="HelveticaNeue-Medium" font-size="26.0" fill="#000000" transform="matrix(1.00, 0.00, -0.00, -1.00, 1022.9, 531.0)">k</text><text xml:space="preserve" font-family="HelveticaNeue-Medium" font-size="26.0" fill="#000000" transform="matrix(1.00, 0.00, -0.00, -1.00, 1036.9, 531.0)">s</text></g></g><path d="M 976.5 150.0 L 1059.0 150.0 L 1059.0 108.0 L 976.5 108.0 Z M 976.5 150.0 " fill="#FFFFFF"></path><g><clipPath id="clip-26605"><path d="M 973.3 105.8 L 1062.3 105.8 L 1062.3 153.2 L 973.3 153.2 Z M 973.3 105.8 "></path></clipPath><g clip-path="url(#clip-26605)"><text xml:space="preserve" font-family="HelveticaNeue-Medium" font-size="26.0" fill="#000000" transform="matrix(1.00, 0.00, -0.00, -1.00, 981.0, 120.0)">8</text><text xml:space="preserve" font-family="HelveticaNeue-Medium" font-size="26.0" fill="#000000" transform="matrix(1.00, 0.00, -0.00, -1.00, 995.5, 120.0)"> </text><text xml:space="preserve" font-family="HelveticaNeue-Medium" font-size="26.0" fill="#000000" transform="matrix(1.00, 0.00, -0.00, -1.00, 1002.7, 120.0)">w</text><text xml:space="preserve" font-family="HelveticaNeue-Medium" font-size="26.0" fill="#000000" transform="matrix(1.00, 0.00, -0.00, -1.00, 1022.9, 120.0)">k</text><text xml:space="preserve" font-family="HelveticaNeue-Medium" font-size="26.0" fill="#000000" transform="matrix(1.00, 0.00, -0.00, -1.00, 1036.9, 120.0)">s</text></g></g><text xml:space="preserve" font-family="HelveticaNeue-Light" font-size="36.0" fill="#000000" transform="matrix(1.00, 0.00, -0.00, -1.00, 19.0, 23.0)">N</text><text xml:space="preserve" font-family="HelveticaNeue-Light" font-size="36.0" fill="#000000" transform="matrix(1.00, 0.00, -0.00, -1.00, 44.3, 23.0)">i</text><text xml:space="preserve" font-family="HelveticaNeue-Light" font-size="36.0" fill="#000000" transform="matrix(1.00, 0.00, -0.00, -1.00, 51.0, 23.0)">e</text><text xml:space="preserve" font-family="HelveticaNeue-Light" font-size="36.0" fill="#000000" transform="matrix(1.00, 0.00, -0.00, -1.00, 69.7, 23.0)">u</text><text xml:space="preserve" font-family="HelveticaNeue-Light" font-size="36.0" fill="#000000" transform="matrix(1.00, 0.00, -0.00, -1.00, 89.0, 23.0)">w</text><text xml:space="preserve" font-family="HelveticaNeue-Light" font-size="36.0" fill="#000000" transform="matrix(1.00, 0.00, -0.00, -1.00, 115.7, 23.0)">e</text><text xml:space="preserve" font-family="HelveticaNeue-Light" font-size="36.0" fill="#000000" transform="matrix(1.00, 0.00, -0.00, -1.00, 134.4, 23.0)">n</text><text xml:space="preserve" font-family="HelveticaNeue-Light" font-size="36.0" fill="#000000" transform="matrix(1.00, 0.00, -0.00, -1.00, 153.7, 23.0)">h</text><text xml:space="preserve" font-family="HelveticaNeue-Light" font-size="36.0" fill="#000000" transform="matrix(1.00, 0.00, -0.00, -1.00, 173.0, 23.0)">u</text><text xml:space="preserve" font-family="HelveticaNeue-Light" font-size="36.0" fill="#000000" transform="matrix(1.00, 0.00, -0.00, -1.00, 192.4, 23.0)">y</text><text xml:space="preserve" font-family="HelveticaNeue-Light" font-size="36.0" fill="#000000" transform="matrix(1.00, 0.00, -0.00, -1.00, 209.0, 23.0)">s</text><text xml:space="preserve" font-family="HelveticaNeue-Light" font-size="36.0" fill="#000000" transform="matrix(1.00, 0.00, -0.00, -1.00, 226.4, 23.0)"> </text><text xml:space="preserve" font-family="HelveticaNeue-Light" font-size="36.0" fill="#000000" transform="matrix(1.00, 0.00, -0.00, -1.00, 236.4, 23.0)">2</text><text xml:space="preserve" font-family="HelveticaNeue-Light" font-size="36.0" fill="#000000" transform="matrix(1.00, 0.00, -0.00, -1.00, 256.4, 23.0)">0</text><text xml:space="preserve" font-family="HelveticaNeue-Light" font-size="36.0" fill="#000000" transform="matrix(1.00, 0.00, -0.00, -1.00, 276.4, 23.0)">0</text><text xml:space="preserve" font-family="HelveticaNeue-Light" font-size="36.0" fill="#000000" transform="matrix(1.00, 0.00, -0.00, -1.00, 296.4, 23.0)">8</text></g></svg>