<?xml version="1.0" encoding="UTF-8" standalone="no"?><svg xmlns="http://www.w3.org/2000/svg" xmlns:xlink="http://www.w3.org/1999/xlink" clip-rule="evenodd" stroke-miterlimit="4.00" viewBox="0 0 1920 1080"><desc>SVG generated by Keynote</desc><defs></defs><g transform="matrix(1.00, 0.00, -0.00, -1.00, 0.0, 1080.0)"><path d="M 0.0 1080.0 L 1920.0 1080.0 L 1920.0 0.0 L 0.0 0.0 Z M 0.0 1080.0 " fill="#FEFFFF"></path><image xlink:href="A396B2DB20224D6540CCE6C4755F65D7.png" width="960.00" height="24.00" transform="matrix(2.00, 0.00, -0.00, -2.04, 0.0, 48.0)"></image><image xlink:href="73C53D77137C7EA68F274E6A97C50CF3.png" width="378.00" height="74.00" transform="matrix(1.00, 0.00, -0.00, -1.01, 5.0, 1073.0)"></image><g><clipPath id="clip-18269"><path d="M 81.0 577.0 L 972.0 577.0 L 972.0 100.0 L 81.0 100.0 Z M 80.6 576.6 "></path></clipPath><g clip-path="url(#clip-18269)"><image xlink:href="C2FDAACE822A35F8741FEA6CF5CD974C.png" width="343.00" height="541.00" transform="matrix(2.60, 0.00, -0.00, -2.59, 81.0, 577.0)"></image></g></g><g><clipPath id="clip-18270"><path d="M 975.0 996.0 L 1866.0 996.0 L 1866.0 84.0 L 975.0 84.0 Z M 974.5 995.6 "></path></clipPath><g clip-path="url(#clip-18270)"><image xlink:href="../../A41CC431-CD79-4DD2-953E-647D98D69F85/assets/C2FDAACE822A35F8741FEA6CF5CD974C.png" width="343.00" height="541.00" transform="matrix(2.60, 0.00, -0.00, -2.59, 974.0, 1487.0)"></image></g></g><path d="M 0.0 0.0 L 634.5 0.0 " fill="none" stroke="#FF330E" stroke-width="10.00" transform="matrix(1.00, 0.00, 0.00, -1.00, 92.6, 405.4)"></path><path d="M 0.0 0.0 L 361.0 0.0 " fill="none" stroke="#FF330E" stroke-width="10.00" transform="matrix(1.00, 0.00, 0.00, -1.00, 92.6, 338.1)"></path></g></svg>