<?xml version="1.0" encoding="UTF-8" standalone="no"?><svg xmlns="http://www.w3.org/2000/svg" xmlns:xlink="http://www.w3.org/1999/xlink" clip-rule="evenodd" stroke-miterlimit="4.00" viewBox="0 0 1920 1080"><desc>SVG generated by Keynote</desc><defs></defs><g transform="matrix(1.00, 0.00, -0.00, -1.00, 0.0, 1080.0)"><path d="M 0.0 1080.0 L 1920.0 1080.0 L 1920.0 0.0 L 0.0 0.0 Z M 0.0 1080.0 " fill="#FEFFFF"></path><image xlink:href="55747058AADC6DA0A0A1037CE3FC883D.png" width="960.00" height="430.00" transform="matrix(1.32, 0.00, -0.00, -1.32, 326.0, 640.0)"></image><g><clipPath id="clip-26674"><path d="M 779.0 1018.0 L 1094.0 1018.0 L 1094.0 703.0 L 779.0 703.0 Z M 778.5 1017.9 "></path></clipPath><g clip-path="url(#clip-26674)"><image xlink:href="8738EE8535FFF2794E3C5E7B8622E386.png" width="265.00" height="264.00" transform="matrix(1.32, 0.00, -0.00, -1.32, 760.0, 1036.0)"></image></g></g><image xlink:href="A7363A9A85ECDA0D9E81E204408C3FAF.png" width="349.00" height="359.00" transform="matrix(1.00, 0.00, -0.00, 1.00, 761.5, 669.9)"></image><path d="M 250.5 718.5 L 384.0 718.5 L 384.0 585.0 L 250.5 585.0 Z M 250.5 718.5 " fill="#FFFFFF"></path></g></svg>