<?xml version="1.0" encoding="UTF-8" standalone="no"?><svg xmlns="http://www.w3.org/2000/svg" xmlns:xlink="http://www.w3.org/1999/xlink" clip-rule="evenodd" stroke-miterlimit="10" viewBox="0 0 1920 1080"><desc>SVG generated by Keynote</desc><defs></defs><g transform="matrix(1.00, 0.00, -0.00, -1.00, 0.0, 1080.0)"><path d="M 0.0 1080.0 L 1920.0 1080.0 L 1920.0 0.0 L 0.0 0.0 Z M 0.0 1080.0 " fill="#000000"></path><image xlink:href="A0BB30B5F9BC9D1C2A0D0880DDC27F12.png" width="396.00" height="490.00" transform="matrix(1.70, 0.00, -0.00, -1.70, 624.0, 955.8)"></image><text xml:space="preserve" font-family="HelveticaNeue,Helvetica Neue" font-size="36.0" fill="#FEFFFF" transform="matrix(1.00, 0.00, -0.00, -1.00, 1198.6, 101.5)">h</text><text xml:space="preserve" font-family="HelveticaNeue,Helvetica Neue" font-size="36.0" fill="#FEFFFF" transform="matrix(1.00, 0.00, -0.00, -1.00, 1218.7, 101.5)">t</text><text xml:space="preserve" font-family="HelveticaNeue,Helvetica Neue" font-size="36.0" fill="#FEFFFF" transform="matrix(1.00, 0.00, -0.00, -1.00, 1230.0, 101.5)">t</text><text xml:space="preserve" font-family="HelveticaNeue,Helvetica Neue" font-size="36.0" fill="#FEFFFF" transform="matrix(1.00, 0.00, -0.00, -1.00, 1241.3, 101.5)">p</text><text xml:space="preserve" font-family="HelveticaNeue,Helvetica Neue" font-size="36.0" fill="#FEFFFF" transform="matrix(1.00, 0.00, -0.00, -1.00, 1262.7, 101.5)">:</text><text xml:space="preserve" font-family="HelveticaNeue,Helvetica Neue" font-size="36.0" fill="#FEFFFF" transform="matrix(1.00, 0.00, -0.00, -1.00, 1272.7, 101.5)">/</text><text xml:space="preserve" font-family="HelveticaNeue,Helvetica Neue" font-size="36.0" fill="#FEFFFF" transform="matrix(1.00, 0.00, -0.00, -1.00, 1284.7, 101.5)">/</text><text xml:space="preserve" font-family="HelveticaNeue,Helvetica Neue" font-size="36.0" fill="#FEFFFF" transform="matrix(1.00, 0.00, -0.00, -1.00, 1296.7, 101.5)">b</text><text xml:space="preserve" font-family="HelveticaNeue,Helvetica Neue" font-size="36.0" fill="#FEFFFF" transform="matrix(1.00, 0.00, -0.00, -1.00, 1318.0, 101.5)">r</text><text xml:space="preserve" font-family="HelveticaNeue,Helvetica Neue" font-size="36.0" fill="#FEFFFF" transform="matrix(1.00, 0.00, -0.00, -1.00, 1330.0, 101.5)">a</text><text xml:space="preserve" font-family="HelveticaNeue,Helvetica Neue" font-size="36.0" fill="#FEFFFF" transform="matrix(1.00, 0.00, -0.00, -1.00, 1349.3, 101.5)">i</text><text xml:space="preserve" font-family="HelveticaNeue,Helvetica Neue" font-size="36.0" fill="#FEFFFF" transform="matrix(1.00, 0.00, -0.00, -1.00, 1357.3, 101.5)">n</text><text xml:space="preserve" font-family="HelveticaNeue,Helvetica Neue" font-size="36.0" fill="#FEFFFF" transform="matrix(1.00, 0.00, -0.00, -1.00, 1377.3, 101.5)">c</text><text xml:space="preserve" font-family="HelveticaNeue,Helvetica Neue" font-size="36.0" fill="#FEFFFF" transform="matrix(1.00, 0.00, -0.00, -1.00, 1396.7, 101.5)">a</text><text xml:space="preserve" font-family="HelveticaNeue,Helvetica Neue" font-size="36.0" fill="#FEFFFF" transform="matrix(1.00, 0.00, -0.00, -1.00, 1416.0, 101.5)">t</text><text xml:space="preserve" font-family="HelveticaNeue,Helvetica Neue" font-size="36.0" fill="#FEFFFF" transform="matrix(1.00, 0.00, -0.00, -1.00, 1427.4, 101.5)">a</text><text xml:space="preserve" font-family="HelveticaNeue,Helvetica Neue" font-size="36.0" fill="#FEFFFF" transform="matrix(1.00, 0.00, -0.00, -1.00, 1446.7, 101.5)">l</text><text xml:space="preserve" font-family="HelveticaNeue,Helvetica Neue" font-size="36.0" fill="#FEFFFF" transform="matrix(1.00, 0.00, -0.00, -1.00, 1454.7, 101.5)">o</text><text xml:space="preserve" font-family="HelveticaNeue,Helvetica Neue" font-size="36.0" fill="#FEFFFF" transform="matrix(1.00, 0.00, -0.00, -1.00, 1475.3, 101.5)">g</text><text xml:space="preserve" font-family="HelveticaNeue,Helvetica Neue" font-size="36.0" fill="#FEFFFF" transform="matrix(1.00, 0.00, -0.00, -1.00, 1496.0, 101.5)">u</text><text xml:space="preserve" font-family="HelveticaNeue,Helvetica Neue" font-size="36.0" fill="#FEFFFF" transform="matrix(1.00, 0.00, -0.00, -1.00, 1516.0, 101.5)">e</text><text xml:space="preserve" font-family="HelveticaNeue,Helvetica Neue" font-size="36.0" fill="#FEFFFF" transform="matrix(1.00, 0.00, -0.00, -1.00, 1535.4, 101.5)">.</text><text xml:space="preserve" font-family="HelveticaNeue,Helvetica Neue" font-size="36.0" fill="#FEFFFF" transform="matrix(1.00, 0.00, -0.00, -1.00, 1545.4, 101.5)">o</text><text xml:space="preserve" font-family="HelveticaNeue,Helvetica Neue" font-size="36.0" fill="#FEFFFF" transform="matrix(1.00, 0.00, -0.00, -1.00, 1566.0, 101.5)">r</text><text xml:space="preserve" font-family="HelveticaNeue,Helvetica Neue" font-size="36.0" fill="#FEFFFF" transform="matrix(1.00, 0.00, -0.00, -1.00, 1577.0, 101.5)">g</text><text xml:space="preserve" font-family="HelveticaNeue,Helvetica Neue" font-size="36.0" fill="#FEFFFF" transform="matrix(1.00, 0.00, -0.00, -1.00, 1597.7, 101.5)">/</text><text xml:space="preserve" font-family="HelveticaNeue,Helvetica Neue" font-size="36.0" fill="#FEFFFF" transform="matrix(1.00, 0.00, -0.00, -1.00, 1609.7, 101.5)">B</text><text xml:space="preserve" font-family="HelveticaNeue,Helvetica Neue" font-size="36.0" fill="#FEFFFF" transform="matrix(1.00, 0.00, -0.00, -1.00, 1634.3, 101.5)">l</text><text xml:space="preserve" font-family="HelveticaNeue,Helvetica Neue" font-size="36.0" fill="#FEFFFF" transform="matrix(1.00, 0.00, -0.00, -1.00, 1642.3, 101.5)">a</text><text xml:space="preserve" font-family="HelveticaNeue,Helvetica Neue" font-size="36.0" fill="#FEFFFF" transform="matrix(1.00, 0.00, -0.00, -1.00, 1661.6, 101.5)">c</text><text xml:space="preserve" font-family="HelveticaNeue,Helvetica Neue" font-size="36.0" fill="#FEFFFF" transform="matrix(1.00, 0.00, -0.00, -1.00, 1681.0, 101.5)">k</text><text xml:space="preserve" font-family="HelveticaNeue,Helvetica Neue" font-size="36.0" fill="#FEFFFF" transform="matrix(1.00, 0.00, -0.00, -1.00, 1699.7, 101.5)">_</text><text xml:space="preserve" font-family="HelveticaNeue,Helvetica Neue" font-size="36.0" fill="#FEFFFF" transform="matrix(1.00, 0.00, -0.00, -1.00, 1717.7, 101.5)">r</text><text xml:space="preserve" font-family="HelveticaNeue,Helvetica Neue" font-size="36.0" fill="#FEFFFF" transform="matrix(1.00, 0.00, -0.00, -1.00, 1729.6, 101.5)">h</text><text xml:space="preserve" font-family="HelveticaNeue,Helvetica Neue" font-size="36.0" fill="#FEFFFF" transform="matrix(1.00, 0.00, -0.00, -1.00, 1749.7, 101.5)">i</text><text xml:space="preserve" font-family="HelveticaNeue,Helvetica Neue" font-size="36.0" fill="#FEFFFF" transform="matrix(1.00, 0.00, -0.00, -1.00, 1757.7, 101.5)">n</text><text xml:space="preserve" font-family="HelveticaNeue,Helvetica Neue" font-size="36.0" fill="#FEFFFF" transform="matrix(1.00, 0.00, -0.00, -1.00, 1777.7, 101.5)">o</text><text xml:space="preserve" font-family="HelveticaNeue,Helvetica Neue" font-size="36.0" fill="#FEFFFF" transform="matrix(1.00, 0.00, -0.00, -1.00, 1798.3, 101.5)">c</text><text xml:space="preserve" font-family="HelveticaNeue,Helvetica Neue" font-size="36.0" fill="#FEFFFF" transform="matrix(1.00, 0.00, -0.00, -1.00, 1817.7, 101.5)">e</text><text xml:space="preserve" font-family="HelveticaNeue,Helvetica Neue" font-size="36.0" fill="#FEFFFF" transform="matrix(1.00, 0.00, -0.00, -1.00, 1837.0, 101.5)">r</text><text xml:space="preserve" font-family="HelveticaNeue,Helvetica Neue" font-size="36.0" fill="#FEFFFF" transform="matrix(1.00, 0.00, -0.00, -1.00, 1848.3, 101.5)">o</text><text xml:space="preserve" font-family="HelveticaNeue,Helvetica Neue" font-size="36.0" fill="#FEFFFF" transform="matrix(1.00, 0.00, -0.00, -1.00, 1869.0, 101.5)">s</text></g></svg>