<?xml version="1.0" encoding="UTF-8" standalone="no"?>
<!-- Created with Inkscape (http://www.inkscape.org/) -->

<svg
   xmlns:dc="http://purl.org/dc/elements/1.1/"
   xmlns:cc="http://creativecommons.org/ns#"
   xmlns:rdf="http://www.w3.org/1999/02/22-rdf-syntax-ns#"
   xmlns:svg="http://www.w3.org/2000/svg"
   xmlns="http://www.w3.org/2000/svg"
   xmlns:sodipodi="http://sodipodi.sourceforge.net/DTD/sodipodi-0.dtd"
   xmlns:inkscape="http://www.inkscape.org/namespaces/inkscape"
   width="63.762691"
   height="56.713749"
   id="svg3592"
   sodipodi:version="0.32"
   inkscape:version="0.91 r13725"
   version="1.0"
   sodipodi:docname="logo-pasteur.svg"
   inkscape:output_extension="org.inkscape.output.svg.inkscape">
  <defs
     id="defs3594">
    <inkscape:perspective
       sodipodi:type="inkscape:persp3d"
       inkscape:vp_x="0 : 526.18109 : 1"
       inkscape:vp_y="0 : 1000 : 0"
       inkscape:vp_z="744.09448 : 526.18109 : 1"
       inkscape:persp3d-origin="372.04724 : 350.78739 : 1"
       id="perspective3600" />
  </defs>
  <sodipodi:namedview
     id="base"
     pagecolor="#ffffff"
     bordercolor="#666666"
     borderopacity="1.0"
     inkscape:pageopacity="0.0"
     inkscape:pageshadow="2"
     inkscape:zoom="3.6059642"
     inkscape:cx="-74.212036"
     inkscape:cy="32.79625"
     inkscape:document-units="px"
     inkscape:current-layer="layer1"
     showgrid="false"
     inkscape:window-width="1811"
     inkscape:window-height="1030"
     inkscape:window-x="20"
     inkscape:window-y="43"
     fit-margin-top="0"
     fit-margin-left="0"
     fit-margin-right="0"
     fit-margin-bottom="0"
     inkscape:window-maximized="0" />
  <metadata
     id="metadata3597">
    <rdf:RDF>
      <cc:Work
         rdf:about="">
        <dc:format>image/svg+xml</dc:format>
        <dc:type
           rdf:resource="http://purl.org/dc/dcmitype/StillImage" />
        <dc:title></dc:title>
      </cc:Work>
    </rdf:RDF>
  </metadata>
  <g
     inkscape:label="Calque 1"
     inkscape:groupmode="layer"
     id="layer1"
     transform="translate(-315.76468,-353.27968)">
    <path
       d="m 355.51612,368.29343 -0.0163,15.51 c 8.02,0 13.27625,-7.06875 13.27625,-14.73875 0,-4.2075 -1.89625,-10.1025 -7.12375,-10.1025 -4.85125,0 -6.1325,5.53375 -6.13625,9.33125"
       style="fill:#005a9a;fill-opacity:1;fill-rule:nonzero;stroke:none"
       id="path157"
       inkscape:connector-curvature="0" />
    <path
       d="m 329.79862,407.63968 c 2.05625,1.66375 3.69375,2.35375 8.93625,2.35375 l 1.81375,0 c 4.83875,0 6.06875,-1.3975 6.06875,-4.8175 0,-3.1425 -0.0188,-15.375 -0.0188,-15.375 -10.53125,-2.9725 -17.54,-8.49375 -23.91375,-14.60125 1.12125,-1.33125 2.86875,-2.20625 4.36875,-2.20625 5.75375,0 11.10125,7.17625 19.26625,9.5675 l 0.006,-9.26875 c 0.007,-8.215 5.14875,-16.8 14.165,-16.8 0.925,0 1.79875,0.085 2.62375,0.25375 -4.22125,-2.21375 -9.03,-3.46625 -14.125,-3.46625 -16.8625,0 -30.53375,13.67125 -30.53375,30.53875 0,9.59375 4.425,18.20375 11.3425,23.82125"
       style="fill:#005a9a;fill-opacity:1;fill-rule:nonzero;stroke:none"
       id="path159"
       inkscape:connector-curvature="0" />
    <path
       d="m 370.68487,362.32218 c 1.09,2.00125 1.675,4.375 1.675,6.9 0,9.5775 -6.88875,19.0075 -16.62125,20.55 l -0.002,20.22125 3.5325,0 c 5.32375,0 7.25,-1.05125 8.95625,-2.44 6.8975,-5.60375 11.3025,-14.1575 11.3025,-23.735 0,-8.385 -3.37625,-15.9775 -8.8425,-21.49625"
       style="fill:#005a9a;fill-opacity:1;fill-rule:nonzero;stroke:none"
       id="path161"
       inkscape:connector-curvature="0" />
    <path
       d="m 317.53737,371.39343 c 1.87625,1.5975 4.45375,1.65 5.7625,0.1175 1.305,-1.53 0.845,-4.07125 -1.02625,-5.665 -1.8775,-1.59875 -4.45625,-1.65125 -5.7675,-0.12 -1.30375,1.535 -0.84375,4.07125 1.03125,5.6675"
       style="fill:#e5a400;fill-opacity:1;fill-rule:nonzero;stroke:none"
       id="path163"
       inkscape:connector-curvature="0" />
  </g>
</svg>
