<?xml version="1.0" encoding="UTF-8" standalone="no"?>
<!-- Generator: Adobe Illustrator 13.0.1, SVG Export Plug-In . SVG Version: 6.00 Build 14948)  -->

<svg
   xmlns:dc="http://purl.org/dc/elements/1.1/"
   xmlns:cc="http://creativecommons.org/ns#"
   xmlns:rdf="http://www.w3.org/1999/02/22-rdf-syntax-ns#"
   xmlns:svg="http://www.w3.org/2000/svg"
   xmlns="http://www.w3.org/2000/svg"
   xmlns:sodipodi="http://sodipodi.sourceforge.net/DTD/sodipodi-0.dtd"
   xmlns:inkscape="http://www.inkscape.org/namespaces/inkscape"
   version="1.1"
   id="Layer_1"
   x="0px"
   y="0px"
   width="46.115772"
   height="57.884998"
   viewBox="0 0 46.115772 57.884998"
   enable-background="new 0 0 250.25 59"
   xml:space="preserve"
   inkscape:version="0.91 r13725"
   sodipodi:docname="logo-mcgill.svg"><metadata
     id="metadata4297"><rdf:RDF><cc:Work
         rdf:about=""><dc:format>image/svg+xml</dc:format><dc:type
           rdf:resource="http://purl.org/dc/dcmitype/StillImage" /><dc:title></dc:title></cc:Work></rdf:RDF></metadata><defs
     id="defs4295" /><sodipodi:namedview
     pagecolor="#ffffff"
     bordercolor="#666666"
     borderopacity="1"
     objecttolerance="10"
     gridtolerance="10"
     guidetolerance="10"
     inkscape:pageopacity="0"
     inkscape:pageshadow="2"
     inkscape:window-width="640"
     inkscape:window-height="480"
     id="namedview4293"
     showgrid="false"
     fit-margin-top="0"
     fit-margin-left="0"
     fit-margin-right="0"
     fit-margin-bottom="0"
     inkscape:zoom="0.2549112"
     inkscape:cx="147.22853"
     inkscape:cy="-122.24713"
     inkscape:window-x="24"
     inkscape:window-y="43"
     inkscape:window-maximized="0"
     inkscape:current-layer="Layer_1" /><g
     id="g5431"
     transform="translate(-332.43407,-190.499)"><path
       style="clip-rule:evenodd;fill:#ef3e33;fill-rule:evenodd"
       inkscape:connector-curvature="0"
       id="path4253"
       d="m 333.653,217.115 c -2.083,-7.42 -0.865,-14.286 -0.865,-22.589 7.426,-3.692 14.779,-4.027 22.747,-4.027 6.89,0 16.661,0.89 22.546,4.015 0.603,7.828 0.95,14.718 -1.06,23.612 -2.011,8.894 -7.858,21.181 -21.193,30.258 -14.554,-9.54 -19.311,-21.072 -22.175,-31.269" /><path
       style="clip-rule:evenodd;fill:#ffffff;fill-rule:evenodd"
       inkscape:connector-curvature="0"
       id="path4255"
       d="m 340.602,206.243 -7.17,7.798 c 1.609,7.474 6.074,23.143 22.34,33.712 16.118,-11.093 20.437,-26.298 21.412,-33.883 l -6.969,-7.645 -7.719,7.822 -7.109,-7.755 -7.085,7.657 -7.7,-7.706" /><path
       style="clip-rule:evenodd;fill:#ffffff;fill-rule:evenodd"
       inkscape:connector-curvature="0"
       id="path4257"
       d="m 368.807,200.232 -0.656,0.767 1.277,-0.183 -0.621,-0.584 m 2.008,-0.876 0.803,1.46 -1.57,0 0.767,-1.46 z m 2.045,0.876 0.656,0.767 -1.277,-0.183 0.621,-0.584 z m 1.497,-1.898 c -0.073,0 -0.257,-0.073 0,-0.147 0.146,0 0.511,0 0.911,0.512 0.184,-0.073 0.585,-0.731 1.023,-0.512 0,0.037 -1.424,3.177 -1.57,3.433 -0.621,-0.329 -4.271,-0.548 -3.906,-0.548 0.292,0 -3.323,0.11 -3.87,0.548 -0.184,-0.329 -1.607,-3.505 -1.607,-3.505 0.438,-0.183 0.913,0.438 1.06,0.511 0.364,-0.511 0.729,-0.511 0.803,-0.511 0.365,0.072 0.146,0.146 0.109,0.219 -1.753,1.424 0.804,3.03 1.352,1.424 2.263,0.255 1.643,-1.571 1.095,-1.826 -0.438,-0.109 -0.146,-0.183 0,-0.183 0.184,-0.109 0.476,-0.109 0.476,0.074 0,-0.986 0.072,-1.645 0.584,-1.937 0.548,0.365 0.62,0.95 0.548,1.937 0.072,-0.183 0.328,-0.074 0.547,-0.074 0.073,0.074 0.438,0.074 0.073,0.219 -0.62,0.219 -1.168,2.155 1.059,1.79 0.509,1.606 3.211,-0.183 1.313,-1.424 z" /><path
       style="clip-rule:evenodd;fill:#ffffff;fill-rule:evenodd"
       inkscape:connector-curvature="0"
       id="path4259"
       d="m 368.117,202.16 c 0.219,0 0.438,0.219 0.438,0.401 0,0.219 -0.219,0.438 -0.438,0.438 -0.183,0 -0.401,-0.219 -0.401,-0.438 0,-0.182 0.219,-0.401 0.401,-0.401 m 1.315,-0.292 c 0.22,0 0.438,0.219 0.438,0.401 0,0.219 -0.219,0.438 -0.438,0.438 -0.183,0 -0.401,-0.219 -0.401,-0.438 -0.001,-0.182 0.218,-0.401 0.401,-0.401 z m 1.424,-0.11 c 0.219,0 0.438,0.219 0.438,0.402 0,0.219 -0.219,0.438 -0.438,0.438 -0.184,0 -0.402,-0.219 -0.402,-0.438 0,-0.183 0.219,-0.402 0.402,-0.402 z m 1.424,0.11 c 0.219,0 0.438,0.219 0.438,0.401 0,0.219 -0.219,0.438 -0.438,0.438 -0.184,0 -0.402,-0.219 -0.402,-0.438 0,-0.182 0.219,-0.401 0.402,-0.401 z m 1.351,0.292 c 0.219,0 0.438,0.219 0.438,0.401 0,0.219 -0.22,0.438 -0.438,0.438 -0.183,0 -0.402,-0.219 -0.402,-0.438 0,-0.182 0.219,-0.401 0.402,-0.401 z m -5.733,1.241 c -0.256,-0.438 -0.548,-1.205 -0.694,-1.388 0.621,-0.474 2.921,-0.547 3.761,-0.547 1.242,0 2.958,0.182 3.505,0.547 0,0 -0.255,0.913 -0.474,1.461 -0.986,-0.365 -2.301,-0.511 -3.177,-0.511 -0.986,0 -2.154,0.146 -2.921,0.438 z" /><path
       style="clip-rule:evenodd;fill:#ffffff;fill-rule:evenodd"
       inkscape:connector-curvature="0"
       id="path4261"
       d="m 370.813,203.256 c 1.606,0 3.095,0.298 3.095,0.476 0,0.179 -1.31,0.298 -2.977,0.298 -1.606,0 -2.976,-0.119 -2.976,-0.298 0,-0.178 1.25,-0.476 2.858,-0.476" /><path
       style="clip-rule:evenodd;fill:#ffffff;fill-rule:evenodd"
       inkscape:connector-curvature="0"
       id="path4263"
       d="m 351.81,196.097 0.243,0 0,-1.217 -0.243,0 0,1.217 z m 1.369,-0.395 0,0 -0.487,-0.852 -0.273,0 0,1.217 0.243,0 0,-0.852 0.487,0.852 0.273,0 0,-1.217 -0.244,0 0,0.852 z m -2.373,3.012 0.548,0 c 0.427,0 0.518,-0.396 0.518,-0.639 0,-0.244 -0.091,-0.609 -0.487,-0.609 l -0.578,0 0,1.248 z m 0.274,-1.035 0.244,0 c 0.121,0 0.304,0.031 0.304,0.396 0,0.213 -0.092,0.426 -0.304,0.426 l -0.244,0 0,-0.822 z m 0.943,0.274 c 0,0.609 0.426,0.669 0.608,0.669 0.152,0 0.608,-0.06 0.608,-0.669 0,-0.578 -0.456,-0.639 -0.608,-0.639 -0.182,0 -0.608,0.061 -0.608,0.639 z m 0.274,0 c 0,-0.335 0.182,-0.426 0.335,-0.426 0.121,0 0.334,0.091 0.334,0.426 0,0.365 -0.213,0.456 -0.334,0.456 -0.153,0 -0.335,-0.091 -0.335,-0.456 z m 2.342,-0.73 -0.395,0 -0.213,0.974 -0.213,-0.974 -0.396,0 0,1.247 0.243,0 0,-1.034 0.243,1.034 0.244,0 0.243,-1.034 0,1.034 0.242,0 0,-1.247 z m -3.224,4.137 0.243,0 0,-1.247 -0.243,0 0,1.247 z m 1.308,-0.486 0,0 -0.486,-0.883 -0.305,0 0,1.278 0.274,0 0,-0.913 0.486,0.913 0.273,0 0,-1.278 -0.243,0 0,0.883 z m 0.517,-0.305 c 0,0.609 0.426,0.67 0.607,0.67 0.153,0 0.579,-0.061 0.579,-0.67 0,-0.578 -0.426,-0.639 -0.579,-0.639 -0.181,0 -0.607,0.061 -0.607,0.639 z m 0.243,0 c 0,-0.334 0.213,-0.426 0.364,-0.426 0.122,0 0.335,0.092 0.335,0.426 0,0.365 -0.213,0.457 -0.335,0.457 -0.151,0 -0.364,-0.092 -0.364,-0.457 z m -3.072,-6.905 c 0,0 1.095,0.456 2.008,0.091 1.095,-0.456 2.129,-0.73 2.92,-0.365 l 0,9.339 c -0.669,-0.243 -1.551,-0.152 -2.555,0.091 -1.004,0.244 -1.582,0.274 -2.373,0.122 l 0,-9.278 z" /><polyline
       transform="translate(331,189.75)"
       style="clip-rule:evenodd;fill:#ffffff;fill-rule:evenodd"
       id="polyline4265"
       points="19.089,3.921 18.207,4.621 18.207,13.991     19.089,13.169 19.089,3.921   " /><path
       style="clip-rule:evenodd;fill:#ffffff;fill-rule:evenodd"
       inkscape:connector-curvature="0"
       id="path4267"
       d="m 349.481,203.893 0.882,-0.7 c 0.639,0.183 2.008,-0.091 2.646,-0.183 1.064,-0.152 1.521,-0.365 2.281,0 -0.426,0.183 -0.699,0.548 -0.699,0.883 l -5.11,0" /><path
       style="clip-rule:evenodd;fill:#ffffff;fill-rule:evenodd"
       inkscape:connector-curvature="0"
       id="path4269"
       d="m 361.375,203.893 -0.851,-0.7 c -0.73,0.183 -1.979,-0.091 -2.647,-0.183 -1.156,-0.152 -1.521,-0.365 -2.189,0 0.334,0.183 0.577,0.548 0.517,0.883 l 5.17,0" /><polyline
       transform="translate(331,189.75)"
       style="clip-rule:evenodd;fill:#ffffff;fill-rule:evenodd"
       id="polyline4271"
       points="29.767,3.83 30.589,4.621 30.589,13.899 29.767,13.108     29.767,3.83   " /><path
       style="clip-rule:evenodd;fill:#ffffff;fill-rule:evenodd"
       inkscape:connector-curvature="0"
       id="path4273"
       d="m 359.534,195.915 0,0 -0.487,-0.882 -0.273,0 0,1.247 0.242,0 0,-0.882 0.519,0.882 0.272,0 0,-1.247 -0.272,0 0,0.882 m -1.887,-0.274 c 0,-0.335 0.182,-0.426 0.334,-0.426 0.121,0 0.335,0.091 0.335,0.426 0,0.365 -0.214,0.456 -0.335,0.456 -0.152,0 -0.334,-0.091 -0.334,-0.456 z m -0.274,0 c 0,0.608 0.426,0.669 0.608,0.669 0.151,0 0.607,-0.061 0.607,-0.669 0,-0.578 -0.456,-0.639 -0.607,-0.639 -0.182,0 -0.608,0.061 -0.608,0.639 z m -0.213,-0.365 c -0.031,-0.183 -0.182,-0.426 -0.548,-0.426 -0.334,0 -0.578,0.213 -0.578,0.639 0,0.456 0.244,0.669 0.578,0.669 0.304,0 0.486,-0.182 0.548,-0.456 l -0.274,0 c -0.029,0.152 -0.122,0.243 -0.273,0.243 -0.243,0 -0.305,-0.213 -0.305,-0.456 0,-0.335 0.184,-0.426 0.305,-0.426 0.213,0 0.244,0.152 0.273,0.213 l 0.274,0 z m 1.156,3.498 0.273,0 0,-1.247 -0.273,0 0,1.247 z m -0.943,-0.547 0.547,0 0,-0.243 -0.547,0 0,-0.274 0.639,0 0,-0.213 -0.913,0 0,1.247 0.274,0 0,-0.517 z m 0.973,2.525 c 0,-0.335 0.184,-0.426 0.335,-0.426 0.121,0 0.334,0.091 0.334,0.426 0,0.365 -0.213,0.456 -0.334,0.456 -0.152,0 -0.335,-0.091 -0.335,-0.456 z m -0.274,0 c 0,0.608 0.426,0.669 0.608,0.669 0.152,0 0.608,-0.061 0.608,-0.669 0,-0.578 -0.456,-0.639 -0.608,-0.639 -0.182,0 -0.608,0.061 -0.608,0.639 z m -1.125,-0.578 0.243,0 c 0.122,0 0.273,0.03 0.273,0.395 0,0.213 -0.061,0.426 -0.273,0.426 l -0.243,0 0,-0.821 z m -0.274,1.034 0.548,0 c 0.427,0 0.518,-0.395 0.518,-0.669 0,-0.243 -0.091,-0.578 -0.518,-0.578 l -0.548,0 0,1.247 z m 3.772,-7.544 c 0,0 -1.096,0.456 -2.007,0.091 -1.157,-0.456 -2.101,-0.73 -2.77,-0.365 l 0,9.339 c 0.578,-0.243 1.339,-0.152 2.373,0.091 1.034,0.244 1.582,0.274 2.403,0.122 l 0,-9.278 z" /><path
       style="clip-rule:evenodd;fill:#ffffff;fill-rule:evenodd"
       inkscape:connector-curvature="0"
       id="path4275"
       d="m 355.474,203.193 c -0.335,0.365 -0.517,0.365 -0.426,0.7 l 0.76,0 c 0.092,-0.335 0,-0.517 -0.334,-0.7" /><path
       style="clip-rule:evenodd;fill:#ef3e33;fill-rule:evenodd"
       inkscape:connector-curvature="0"
       id="path4277"
       d="m 341.379,217.052 c 0.138,0 0.236,0.109 0.236,0.236 0,0.138 -0.099,0.246 -0.236,0.246 -0.146,0 -0.255,-0.108 -0.255,-0.246 0,-0.127 0.108,-0.236 0.255,-0.236 m -1.749,3.489 c 0.108,-0.256 0.354,-0.983 0.492,-1.239 -0.138,-0.235 -0.384,-0.481 -0.59,-0.481 0.098,-0.236 0.511,-0.55 0.452,-0.756 -0.118,-0.207 -0.275,-0.177 -0.698,-0.413 0.138,-0.285 0.452,-0.462 0.659,-0.491 0.245,-0.049 0.245,-0.384 0.619,-0.59 0.432,-0.206 0.874,-0.206 1.365,-0.255 0.668,0.078 2.467,0.56 1.984,2.751 1.081,2.191 4.893,-0.727 6.229,-0.727 -0.256,0.481 -0.59,0.962 -0.845,1.454 0.354,0.255 0.845,0 1.229,0 -0.384,1.218 -1.12,1.7 -1.721,2.191 0.601,1.955 2.86,1.189 4.874,0.982 -0.235,0.659 -1.061,0.718 -1.443,1.209 0.687,0.747 1.443,1.71 1.935,2.683 -0.904,-0.59 -2.78,-1.219 -3.409,-1.455 -1.209,-0.481 -3.685,-0.481 -4.893,0 0.235,0.482 0.717,0.727 1.11,0.963 -0.63,1.228 -1.857,0.492 -2.584,0.256 -0.619,0.491 -1.77,0.52 -2.083,0.236 0,0 0,-0.315 0.383,-0.551 0.235,-0.353 -0.737,-0.422 -1.002,-0.904 0,-0.452 0.48,0 0.746,-0.481 -0.617,-1.238 -3.153,-1.474 -2.809,-4.382 z" /><path
       style="clip-rule:evenodd;fill:#ef3e33;fill-rule:evenodd"
       inkscape:connector-curvature="0"
       id="path4279"
       d="m 358.678,217.41 c 0.148,0 0.246,0.108 0.246,0.256 0,0.127 -0.098,0.235 -0.246,0.235 -0.137,0 -0.245,-0.108 -0.245,-0.235 0,-0.148 0.108,-0.256 0.245,-0.256 m -1.709,3.478 c 0.108,-0.236 0.345,-0.972 0.491,-1.208 -0.146,-0.256 -0.383,-0.492 -0.59,-0.492 0.099,-0.255 0.511,-0.56 0.443,-0.776 -0.108,-0.206 -0.267,-0.177 -0.698,-0.412 0.146,-0.276 0.462,-0.452 0.668,-0.482 0.256,-0.029 0.256,-0.393 0.619,-0.599 0.432,-0.207 0.874,-0.207 1.365,-0.236 0.668,0.059 2.477,0.55 1.985,2.741 1.08,2.191 4.903,-0.727 6.229,-0.727 -0.246,0.491 -0.59,0.983 -0.846,1.464 0.364,0.236 0.846,0 1.229,0 -0.383,1.219 -1.12,1.71 -1.709,2.191 0.589,1.946 2.849,1.189 4.862,0.983 -0.234,0.648 -1.061,0.727 -1.443,1.209 0.698,0.727 1.443,1.709 1.936,2.682 -0.903,-0.59 -2.78,-1.228 -3.399,-1.464 -1.219,-0.491 -3.694,-0.491 -4.903,0 0.236,0.491 0.727,0.727 1.11,0.973 -0.629,1.218 -1.857,0.491 -2.574,0.245 -0.629,0.482 -1.779,0.531 -2.093,0.246 0,0 0,-0.305 0.383,-0.56 0.235,-0.344 -0.737,-0.413 -1.002,-0.904 0,-0.462 0.48,0 0.757,-0.491 -0.629,-1.209 -3.174,-1.464 -2.82,-4.383 z" /><path
       style="clip-rule:evenodd;fill:#ef3e33;fill-rule:evenodd"
       inkscape:connector-curvature="0"
       id="path4281"
       d="m 350.401,229.631 c 0.107,0 0.207,0.108 0.207,0.256 0,0.098 -0.1,0.206 -0.207,0.206 -0.127,0 -0.235,-0.108 -0.235,-0.206 0,-0.148 0.108,-0.256 0.235,-0.256 m -1.729,3.479 c 0.098,-0.236 0.344,-0.973 0.491,-1.209 -0.147,-0.236 -0.394,-0.491 -0.599,-0.491 0.107,-0.236 0.521,-0.56 0.451,-0.767 -0.107,-0.206 -0.284,-0.167 -0.697,-0.412 0.147,-0.285 0.451,-0.452 0.669,-0.492 0.234,-0.029 0.234,-0.383 0.618,-0.589 0.412,-0.216 0.875,-0.216 1.355,-0.246 0.659,0.079 2.477,0.55 1.985,2.761 1.081,2.191 4.902,-0.747 6.22,-0.747 -0.236,0.492 -0.59,0.983 -0.825,1.474 0.343,0.236 0.825,0 1.218,0 -0.393,1.209 -1.109,1.7 -1.71,2.191 0.601,1.956 2.86,1.18 4.874,0.973 -0.235,0.649 -1.081,0.727 -1.464,1.219 0.697,0.727 1.464,1.699 1.955,2.672 -0.904,-0.589 -2.79,-1.208 -3.409,-1.464 -1.229,-0.481 -3.685,-0.481 -4.913,0 0.245,0.491 0.737,0.747 1.12,0.983 -0.629,1.208 -1.847,0.481 -2.574,0.235 -0.639,0.492 -1.778,0.531 -2.084,0.246 0,0 0,-0.304 0.364,-0.56 0.255,-0.334 -0.727,-0.413 -1.002,-0.904 0,-0.442 0.491,0 0.767,-0.481 -0.619,-1.219 -3.164,-1.454 -2.81,-4.392 z" /><path
       style="clip-rule:evenodd;fill:#ffffff;fill-rule:evenodd"
       inkscape:connector-curvature="0"
       id="path4283"
       d="m 338.354,200.232 -0.657,0.767 1.277,-0.183 -0.62,-0.584 m 2.007,-0.876 0.803,1.46 -1.57,0 0.767,-1.46 z m 2.045,0.876 0.657,0.767 -1.278,-0.183 0.621,-0.584 z m 1.497,-1.898 c -0.073,0 -0.256,-0.073 0,-0.147 0.146,0 0.511,0 0.913,0.512 0.182,-0.073 0.584,-0.731 1.021,-0.512 0,0.037 -1.424,3.177 -1.57,3.433 -0.62,-0.329 -4.271,-0.548 -3.906,-0.548 0.292,0 -3.322,0.11 -3.87,0.548 -0.184,-0.329 -1.607,-3.505 -1.607,-3.505 0.438,-0.183 0.913,0.438 1.06,0.511 0.364,-0.511 0.729,-0.511 0.803,-0.511 0.366,0.072 0.146,0.146 0.11,0.219 -1.753,1.424 0.803,3.03 1.351,1.424 2.264,0.255 1.643,-1.571 1.095,-1.826 -0.438,-0.109 -0.146,-0.183 0,-0.183 0.182,-0.109 0.474,-0.109 0.474,0.074 0,-0.986 0.072,-1.645 0.584,-1.937 0.548,0.365 0.621,0.95 0.548,1.937 0.073,-0.183 0.328,-0.074 0.548,-0.074 0.073,0.074 0.438,0.074 0.073,0.219 -0.621,0.219 -1.169,2.155 1.058,1.79 0.512,1.606 3.213,-0.183 1.315,-1.424 z" /><path
       style="clip-rule:evenodd;fill:#ffffff;fill-rule:evenodd"
       inkscape:connector-curvature="0"
       id="path4285"
       d="m 337.663,202.16 c 0.22,0 0.438,0.219 0.438,0.401 0,0.219 -0.219,0.438 -0.438,0.438 -0.182,0 -0.401,-0.219 -0.401,-0.438 0,-0.182 0.219,-0.401 0.401,-0.401 m 1.316,-0.292 c 0.219,0 0.438,0.219 0.438,0.401 0,0.219 -0.219,0.438 -0.438,0.438 -0.184,0 -0.402,-0.219 -0.402,-0.438 -10e-4,-0.182 0.218,-0.401 0.402,-0.401 z m 1.423,-0.11 c 0.219,0 0.438,0.219 0.438,0.402 0,0.219 -0.219,0.438 -0.438,0.438 -0.183,0 -0.402,-0.219 -0.402,-0.438 0,-0.183 0.219,-0.402 0.402,-0.402 z m 1.424,0.11 c 0.219,0 0.438,0.219 0.438,0.401 0,0.219 -0.219,0.438 -0.438,0.438 -0.184,0 -0.402,-0.219 -0.402,-0.438 0,-0.182 0.219,-0.401 0.402,-0.401 z m 1.351,0.292 c 0.22,0 0.438,0.219 0.438,0.401 0,0.219 -0.219,0.438 -0.438,0.438 -0.183,0 -0.401,-0.219 -0.401,-0.438 -0.001,-0.182 0.218,-0.401 0.401,-0.401 z m -5.733,1.241 c -0.255,-0.438 -0.547,-1.205 -0.693,-1.388 0.62,-0.474 2.921,-0.547 3.76,-0.547 1.242,0 2.958,0.182 3.506,0.547 0,0 -0.256,0.913 -0.475,1.461 -0.986,-0.365 -2.3,-0.511 -3.177,-0.511 -0.985,0 -2.154,0.146 -2.921,0.438 z" /><path
       style="clip-rule:evenodd;fill:#ffffff;fill-rule:evenodd"
       inkscape:connector-curvature="0"
       id="path4287"
       d="m 340.358,203.256 c 1.606,0 3.095,0.298 3.095,0.476 0,0.179 -1.31,0.298 -2.977,0.298 -1.606,0 -2.975,-0.119 -2.975,-0.298 0.001,-0.178 1.25,-0.476 2.857,-0.476" /></g></svg>