<?xml version="1.0" encoding="UTF-8" standalone="no"?>
<svg
   xmlns:dc="http://purl.org/dc/elements/1.1/"
   xmlns:cc="http://creativecommons.org/ns#"
   xmlns:rdf="http://www.w3.org/1999/02/22-rdf-syntax-ns#"
   xmlns:svg="http://www.w3.org/2000/svg"
   xmlns="http://www.w3.org/2000/svg"
   viewBox="0 0 147.56102 188.06216"
   height="188.06216"
   width="147.56102"
   xml:space="preserve"
   version="1.1"
   id="svg5026"><metadata
     id="metadata5032"><rdf:RDF><cc:Work
         rdf:about=""><dc:format>image/svg+xml</dc:format><dc:type
           rdf:resource="http://purl.org/dc/dcmitype/StillImage" /><dc:title></dc:title></cc:Work></rdf:RDF></metadata><defs
     id="defs5030"><clipPath
       id="clipPath5040"
       clipPathUnits="userSpaceOnUse"><path
         id="path5042"
         d="m 0,57.354 566.929,0 0,639.968 L 0,697.322 0,57.354 Z" /></clipPath><clipPath
       id="clipPath5054"
       clipPathUnits="userSpaceOnUse"><path
         id="path5056"
         d="m 0,0 566.929,0 0,765.354 L 0,765.354 0,0 Z" /></clipPath><clipPath
       id="clipPath5062"
       clipPathUnits="userSpaceOnUse"><path
         id="path5064"
         d="m -15.1732,698.323 597.2752,0 0,-199.008 -597.2752,0 0,199.008 z" /></clipPath><clipPath
       id="clipPath5066"
       clipPathUnits="userSpaceOnUse"><path
         id="path5068"
         d="m -14.173,500.315 595.276,0 0,197.008 -595.276,0 0,-197.008 z" /></clipPath><linearGradient
       id="linearGradient5070"
       spreadMethod="pad"
       gradientTransform="matrix(0,197.00787,197.00787,0,-14.173233,500.31496)"
       gradientUnits="userSpaceOnUse"
       y2="0"
       x2="1"
       y1="0"
       x1="0"><stop
         id="stop5072"
         offset="0"
         style="stop-opacity:1;stop-color:#ffffff" /><stop
         id="stop5074"
         offset="1"
         style="stop-opacity:1;stop-color:#000000" /></linearGradient><clipPath
       id="clipPath5094"
       clipPathUnits="userSpaceOnUse"><path
         id="path5096"
         d="m -32440.6,32721.6 65207.6,0 0,-65489.6 -65207.6,0 0,65489.6 z" /></clipPath><linearGradient
       id="linearGradient5098"
       spreadMethod="pad"
       gradientTransform="matrix(498.41318,0,0,-498.41318,33.515961,-8.6693115)"
       gradientUnits="userSpaceOnUse"
       y2="0"
       x2="1"
       y1="0"
       x1="0"><stop
         id="stop5100"
         offset="0"
         style="stop-opacity:1;stop-color:#ffffff" /><stop
         id="stop5102"
         offset="1"
         style="stop-opacity:0;stop-color:#ffffff" /></linearGradient><mask
       id="mask5104"
       height="1"
       width="1"
       y="0"
       x="0"
       maskUnits="userSpaceOnUse"><g
         id="g5106"><g
           id="g5108"
           clip-path="url(#clipPath5094)"><g
             id="g5110"><g
               id="g5112"><path
                 id="path5114"
                 style="fill:url(#linearGradient5098);stroke:none"
                 d="m -32440.6,32721.6 65207.6,0 0,-65489.6 -65207.6,0 0,65489.6 z" /></g></g></g></g></mask><clipPath
       id="clipPath5120"
       clipPathUnits="userSpaceOnUse"><path
         id="path5122"
         d="m 33.516,44.3543 498.413,0 0,-53.02361 -498.413,0 0,53.02361 z" /></clipPath><clipPath
       id="clipPath5140"
       clipPathUnits="userSpaceOnUse"><path
         id="path5142"
         d="m 0,0 566.929,0 0,765.354 L 0,765.354 0,0 Z" /></clipPath><clipPath
       id="clipPath5152"
       clipPathUnits="userSpaceOnUse"><path
         id="path5154"
         d="m 0,708.662 566.929,0 0,56.693 -566.929,0 0,-56.693 z" /></clipPath></defs><g
     transform="matrix(1.25,0,0,-1.25,-122.41718,864.81441)"
     id="g5034"><g
       transform="matrix(2.951111,0,0,2.951111,-940.06061,-1483.1444)"
       id="g6255"><path
         id="path5258"
         style="fill:#000000;fill-opacity:1;fill-rule:nonzero;stroke:none"
         d="m 355.01529,705.78184 c -0.0904,-0.41564 -0.60926,-0.97584 -1.22109,-1.04038 -0.84677,-0.0206 -1.56445,0.67638 -1.6135,1.2753 -0.0336,0.55505 0.008,0.69187 0.008,0.69187 l 2.88622,-0.0878 c -0.008,-0.3227 0.0155,-0.48534 -0.0594,-0.83902 m 0.37949,1.90521 -0.10326,-0.25299 -3.14438,0.0826 -0.21685,0.26849 -0.19878,-0.003 0,-1.91296 c -0.0465,-0.87516 0.85967,-1.93877 2.04978,-1.93361 1.12557,0.0568 1.67287,1.11267 1.75032,2.10658 l 0.11875,1.64964 -0.25558,-0.005 z" /><path
         id="path5262"
         style="fill:#000000;fill-opacity:1;fill-rule:nonzero;stroke:none"
         d="m 353.05535,698.63935 0.60409,-1.21593 0.13166,0.0774 -0.0697,0.32012 2.88622,1.26756 0.15231,-0.1833 0.23235,0.11876 -0.52148,1.08685 -0.17297,-0.0749 0.005,-0.32528 -2.82942,-1.234 -0.24267,0.18846 -0.17555,-0.0258 z" /><path
         id="path5266"
         style="fill:#000000;fill-opacity:1;fill-rule:nonzero;stroke:none"
         d="m 353.98472,699.92111 0,-0.12908 -0.81836,-0.17297 c -0.46211,0.31496 -0.68413,0.64798 -0.8287,1.1927 -0.26848,1.06361 0,2.0472 1.39665,2.44735 1.47408,0.44661 2.08592,-0.50341 2.40862,-1.60833 0.0878,-0.32787 0.0929,-0.55763 0.14715,-0.91905 l -0.78222,-0.21427 -0.10585,0.15231 c 0.30979,0.28398 0.4079,0.68929 0.30721,1.07911 -0.15231,0.60151 -0.8545,0.94744 -1.4302,0.72026 l 0.41564,-1.77872 0.3227,-0.12908 0.0568,-0.16522 -0.8416,-0.21943 -0.0465,0.17813 0.12134,0.18329 -0.45952,1.78388 c -0.68154,-0.0439 -1.19012,-0.74608 -1.0378,-1.42246 0.0929,-0.42854 0.60925,-0.92162 1.17462,-0.97842" /><path
         id="path5270"
         style="fill:#000000;fill-opacity:1;fill-rule:nonzero;stroke:none"
         d="m 353.37443,708.50129 c -0.0981,0.22202 0,0.47501 0.21944,0.57828 0.21685,0.0878 0.47759,0.0258 0.5602,-0.16264 0.11617,-0.21428 0,-0.4776 -0.20653,-0.62475 -0.21427,-0.10068 -0.47243,0 -0.57311,0.20911" /><path
         id="path5274"
         style="fill:#000000;fill-opacity:1;fill-rule:nonzero;stroke:none"
         d="m 355.84011,697.16449 c -0.0955,0.2246 -0.0129,0.48534 0.14715,0.57828 0.19362,0.0981 0.48534,0 0.64798,-0.2246 0.0929,-0.21944 -0.005,-0.48018 -0.22202,-0.57053 -0.21943,-0.10585 -0.47759,0.003 -0.57311,0.21685" /><path
         id="path5278"
         style="fill:#000000;fill-opacity:1;fill-rule:nonzero;stroke:none"
         d="m 377.59957,688.81175 c -0.10068,0.21944 0.0103,0.48018 0.23751,0.57828 0.23234,0.10068 0.48792,0 0.57827,-0.21428 0.0852,-0.22718 0,-0.48017 -0.22201,-0.58602 -0.21428,-0.10326 -0.4776,0.008 -0.59377,0.22202" /><path
         id="path5282"
         style="fill:#000000;fill-opacity:1;fill-rule:nonzero;stroke:none"
         d="m 354.25837,715.59499 -0.62216,-1.22367 0.14715,-0.0439 0.26332,0.21685 2.78037,-1.42245 -0.049,-0.22719 0.23235,-0.0929 0.50341,1.06103 -0.1833,0.0852 -0.24783,-0.18587 -2.65646,1.41471 -0.0284,0.2943 -0.13941,0.12392 z" /><path
         id="path5286"
         style="fill:#000000;fill-opacity:1;fill-rule:nonzero;stroke:none"
         d="m 355.99346,710.2387 -0.17297,0.0542 -0.16522,-0.12133 -2.07818,0.44145 2.97916,1.12299 0.2659,0.68413 -0.21427,0.049 -0.20395,-0.0878 -2.80361,1.1075 -0.0155,0.26074 -0.19361,0.0671 -0.35368,-0.95519 0.25041,-0.0878 0.23751,0.11876 1.99041,-0.76674 -3.17794,-1.21851 -0.14457,-0.47243 3.32251,-0.72543 0.14456,-0.16264 0.12134,-0.0516 0.21169,0.7435 z" /><path
         id="path5290"
         style="fill:#000000;fill-opacity:1;fill-rule:nonzero;stroke:none"
         d="m 361.14347,691.10033 c -0.12133,-0.12392 -0.60409,-0.56279 -1.08169,-0.57311 -0.20394,-0.003 -0.38465,0.0619 -0.55504,0.22976 l -0.049,0.0542 c -0.15489,0.11359 -0.22976,0.25558 -0.24009,0.46211 0,0.38982 0.34335,0.92937 0.59377,1.20302 0.21685,0.21685 1.00166,1.03264 1.62898,0.48276 l 0.0929,-0.0826 c 0.58344,-0.58603 -0.20911,-1.58768 -0.38982,-1.77614 m 1.19786,0.69961 0,0 c 0.031,0.52406 -0.0749,0.97326 -0.41564,1.32178 l -0.0439,0.0594 -0.0207,0.0207 -0.0181,0.0155 -0.0129,0.0155 -0.0542,0.0362 c -0.36659,0.3227 -0.82611,0.42596 -1.36566,0.36916 -0.5473,-0.0568 -1.0662,-0.34851 -1.40181,-0.83901 -0.59893,-0.74866 -0.59634,-1.71934 0.11618,-2.41895 l 0.0207,-0.0155 -0.005,0 -0.0103,0.008 0.0155,-0.008 c 0.74866,-0.62475 1.73225,-0.59377 2.48091,0.0103 0.4208,0.36917 0.68928,0.89065 0.7151,1.42504" /><path
         id="path5294"
         style="fill:#000000;fill-opacity:1;fill-rule:nonzero;stroke:none"
         d="m 366.87616,686.60965 1.28305,-0.27881 0.0155,0.14973 -0.28397,0.20395 0.60409,3.0282 0.28655,0.0103 0.0232,0.26074 -1.18495,0.20911 -0.0465,-0.1962 0.29688,-0.21427 -0.59893,-2.92753 -0.31237,-0.0852 -0.0826,-0.16006 z" /><path
         id="path5298"
         style="fill:#000000;fill-opacity:1;fill-rule:nonzero;stroke:none"
         d="m 376.70815,688.0019 0.13682,-0.005 0.25816,-0.80288 c -0.34851,-0.44661 -0.66863,-0.65314 -1.23142,-0.77448 -1.07394,-0.2375 -2.06527,0.0103 -2.38022,1.3605 -0.46727,1.47409 0.46726,2.06269 1.60317,2.37765 0.33044,0.0955 0.56278,0.0981 0.92679,0.14457 l 0.19878,-0.79255 -0.1549,-0.0981 c -0.2659,0.32012 -0.67379,0.42338 -1.07394,0.33561 -0.60667,-0.15748 -0.99133,-0.86484 -0.77964,-1.4457 l 1.79937,0.4079 0.14199,0.32011 0.17813,0.0465 0.1962,-0.82869 -0.18071,-0.0361 -0.18588,0.10843 -1.76839,-0.41048 c 0.031,-0.67121 0.73059,-1.17462 1.41213,-1.0378 0.43887,0.08 0.94745,0.56279 0.90356,1.13074" /><path
         id="path5302"
         style="fill:#000000;fill-opacity:1;fill-rule:nonzero;stroke:none"
         d="m 359.48248,695.32407 -0.13424,-0.12133 0.0207,-0.20653 -1.53347,-1.54121 0.68671,3.08242 -0.43629,0.58344 -0.15232,-0.14199 -0.0439,-0.2246 -2.48608,-1.7245 -0.24008,0.12391 -0.14715,-0.12907 0.64023,-0.82095 0.21427,0.1678 0.0232,0.26591 1.71417,1.22109 -0.69703,-3.2683 0.32787,-0.37433 2.43702,2.40088 0.20653,0.0387 0.11359,0.0749 -0.51374,0.59377 z" /><path
         id="path5306"
         style="fill:#000000;fill-opacity:1;fill-rule:nonzero;stroke:none"
         d="m 371.80906,689.68665 -0.0103,-0.18071 0.18846,-0.12134 0.21427,-2.12981 -2.00331,2.56352 -0.69703,0.0645 0.0284,-0.20911 0.1265,-0.17813 -0.24783,-3.02304 -0.25558,-0.11876 0,-0.20394 1.01457,-0.0155 0.0155,0.28397 -0.17555,0.18846 0.13682,2.08335 2.104,-2.66163 0.49308,0.003 -0.26074,3.33799 0.10069,0.18588 0.0129,0.13682 -0.7848,-0.005 z" /><path
         id="path5310"
         style="fill:#000000;fill-opacity:1;fill-rule:nonzero;stroke:none"
         d="m 361.2692,688.94289 0.0955,0.20911 0.28656,-0.0232 2.00331,2.28213 -0.0955,0.22976 0.16006,0.18846 0.62216,-0.26074 -0.10068,-2.25631 1.27015,1.48441 -0.0645,0.11617 0.10842,0.0749 0.9113,-0.35884 -0.0155,-0.23234 -0.15231,-0.0749 -0.41564,-3.07468 0.22718,-0.25299 -0.0645,-0.18588 -1.0507,0.46985 0.062,0.22202 0.18845,0.0439 0.28914,2.42669 -1.87682,-2.22791 -0.37691,0.12133 0.2659,2.79845 -1.53088,-1.82002 0.13166,-0.24783 -0.0568,-0.14457 -0.82095,0.49308 z" /><path
         id="path5314"
         style="fill:#000000;fill-opacity:1;fill-rule:nonzero;stroke:none"
         d="m 385.08619,692.93016 0.12133,0.0594 0.55763,-0.64282 c -0.0671,-0.56795 -0.25558,-0.89581 -0.68412,-1.28563 -0.83644,-0.78481 -1.83035,-1.01715 -2.83201,0.0258 -1.03264,1.11267 -0.4905,2.09884 0.33819,2.88622 0.25041,0.24525 0.45694,0.36143 0.76157,0.5757 l 0.57053,-0.59119 -0.0826,-0.1678 c -0.40531,0.14457 -0.81837,0.0336 -1.13074,-0.23751 -0.47243,-0.40272 -0.45694,-1.19527 0.0181,-1.58251 l 1.4173,1.19527 -0.0387,0.34336 0.11618,0.12649 0.58085,-0.57569 -0.13166,-0.12134 -0.2246,0.003 -1.40438,-1.30629 c 0.35626,-0.58602 1.22367,-0.7151 1.74515,-0.20653 0.34077,0.27365 0.51116,0.96552 0.30205,1.50249" /><path
         id="path5318"
         style="fill:#000000;fill-opacity:1;fill-rule:nonzero;stroke:none"
         d="m 389.48806,711.66555 0,0.12908 0.82611,0.18329 c 0.4621,-0.33819 0.66863,-0.6583 0.79255,-1.20818 0.27881,-1.07911 -0.0181,-2.05753 -1.3889,-2.42412 -1.4302,-0.44919 -2.09109,0.49309 -2.38539,1.60833 -0.0904,0.31754 -0.0981,0.56021 -0.14457,0.9268 l 0.7719,0.20652 0.10842,-0.16522 c -0.31237,-0.2659 -0.41563,-0.68154 -0.31237,-1.07394 0.14715,-0.60409 0.83127,-0.95261 1.4173,-0.73317 l -0.4079,1.77871 -0.32786,0.13941 -0.0465,0.17555 0.85709,0.23492 0.0336,-0.16006 -0.11875,-0.22718 0.44403,-1.78646 c 0.68929,0.0207 1.21335,0.73834 1.07395,1.4173 -0.0929,0.43887 -0.61959,0.9113 -1.1927,0.97842" /><path
         id="path5322"
         style="fill:#000000;fill-opacity:1;fill-rule:nonzero;stroke:none"
         d="m 386.8174,712.36361 c -0.34851,0.74092 -0.55246,1.82002 0.39757,2.06269 0.80029,0.21427 1.27788,-0.54471 1.38889,-1.15397 l -1.78646,-0.90872 z m 3.11598,1.59026 -0.91905,-0.46469 c 0,0.7151 0.18846,1.52056 0.10585,1.91296 -0.13424,0.5757 -0.3227,0.73318 -0.77964,1.11267 l -0.13166,-0.10326 c 0.13166,-0.23235 0.18071,-0.23235 0.27365,-0.58603 0.12649,-0.4905 0.11101,-0.79513 -0.0129,-1.29595 -0.26074,0.50857 -0.85967,0.69961 -1.47925,0.52406 -0.77448,-0.20395 -1.22884,-1.01973 -0.87258,-1.74258 l 0.77448,-1.79678 0.26074,0.111 0.0594,0.15748 2.77521,1.43537 0.20137,-0.13425 0.15231,0.0516 -0.40789,0.81836 z" /><path
         id="path5326"
         style="fill:#000000;fill-opacity:1;fill-rule:nonzero;stroke:none"
         d="m 387.91613,704.44122 0.0129,2.87073 -0.24009,0.78739 0.99391,-0.63508 c -0.0981,-0.0206 -0.18329,-0.0516 -0.24525,-0.10068 -0.0981,-0.10584 -0.0981,-0.54471 -0.11359,-1.17979 l 3.17536,0.0413 0.0645,0.14199 0.16264,-0.005 0.005,-1.1359 -0.0878,0.003 -0.14715,0.2659 -3.15471,-0.0542 c 0.0103,-0.34594 -0.0439,-0.84418 0.0491,-0.92163 0.0362,-0.0387 0.10068,-0.0723 0.17813,-0.0981 l -0.82869,-0.54988 0.17555,0.57053 z" /><path
         id="path5330"
         style="fill:#000000;fill-opacity:1;fill-rule:nonzero;stroke:none"
         d="m 391.24819,701.70886 0.24783,1.29854 -0.14715,0.0103 -0.22976,-0.26333 -3.06435,0.54214 -0.0258,0.21943 -0.26075,0.0207 -0.16264,-1.18495 0.19362,-0.0207 0.19104,0.23751 2.98174,-0.5189 0.10843,-0.27365 0.1678,-0.0671 z" /><path
         id="path5334"
         style="fill:#000000;fill-opacity:1;fill-rule:nonzero;stroke:none"
         d="m 389.88847,701.04565 0.13424,0.13682 0.72543,-0.33044 c 0.14715,-0.5886 0.12133,-0.99908 -0.13166,-1.53863 -0.52406,-1.00166 -1.27014,-1.66771 -2.70035,-1.08427 -1.37857,0.617 -1.21851,1.75549 -0.75382,2.82943 0.1265,0.3227 0.2659,0.50857 0.4492,0.81062 l 0.79513,-0.29689 -0.0542,-0.21943 c -0.43112,-0.0232 -0.72801,-0.20653 -0.91388,-0.58086 -0.27623,-0.59376 0.17297,-1.11525 0.72285,-1.54895 0.54471,-0.41048 1.73482,-0.23235 2.04978,0.38465 0.19878,0.40789 0.0826,1.01715 -0.3227,1.43795" /><path
         id="path5338"
         style="fill:#000000;fill-opacity:1;fill-rule:nonzero;stroke:none"
         d="m 388.84524,695.57732 0.65831,1.15655 -0.14715,0.003 -0.27365,-0.15489 -2.81652,1.54637 0.0542,0.21686 -0.24525,0.10068 -0.45436,-1.06104 0.18588,-0.0929 0.26848,0.16522 2.61774,-1.47151 0.031,-0.28397 0.12133,-0.12392 z" /><path
         id="path5342"
         style="fill:#000000;fill-opacity:1;fill-rule:nonzero;stroke:none"
         d="m 386.66432,692.66038 1.82777,2.09367 -0.40015,1.00424 -0.25816,-0.26074 c 0,0 0.0878,-0.42596 0.0594,-0.66863 -0.08,-0.50858 -0.76932,-1.12041 -0.76932,-1.12041 l -2.40088,1.96717 0.10069,0.253 -0.21686,0.14456 -0.82094,-1.0378 0.22459,-0.14198 0.26333,0.11359 2.33892,-1.93103 -0.049,-0.27107 0.10068,-0.14457 z" /><path
         id="path5346"
         style="fill:#000000;fill-opacity:1;fill-rule:nonzero;stroke:none"
         d="m 380.25371,687.82842 0.99908,0.52923 -0.10585,0.12649 -0.25558,0.0413 -0.72026,1.43536 c 0,0 0.60151,0.41822 0.97584,0.49825 0.18846,0.0465 0.4905,0.0439 0.4905,0.0439 l -0.36916,0.72543 c 0,0 -0.17297,-0.22202 -0.29431,-0.34077 -0.28655,-0.27365 -1.0094,-0.52149 -1.0094,-0.52149 l -0.50341,1.05588 c 0,0 0.70736,0.4905 1.1643,0.62732 0.14715,0.0439 0.43113,0.0981 0.43113,0.0981 0,0 0.0129,0.19362 0.049,0.30721 0.0671,0.1962 0.25041,0.47243 0.25041,0.47243 l -2.92236,-1.6961 0.0671,-0.21686 0.28397,0.003 1.40697,-2.78038 -0.0671,-0.23492 0.12908,-0.17297 z" /><path
         id="path5350"
         style="fill:#000000;fill-opacity:1;fill-rule:nonzero;stroke:none"
         d="m 382.48988,716.02301 -8.64833,1.34501 c 0.10842,-0.25816 0.17555,-0.56021 0.17555,-0.85451 0,-1.23142 -0.98101,-2.21758 -2.23566,-2.21758 -0.0181,0 -0.049,0.003 -0.0774,0.003 l -0.003,0 c -0.0258,0 -0.0413,-0.003 -0.0723,-0.003 -1.22109,0 -2.1737,0.98616 -2.1737,2.21758 0,0.2943 0.0749,0.59635 0.17555,0.85451 l -8.60444,-1.34501 c -0.25816,1.4586 -0.38724,2.81135 -0.38724,4.02212 0,0.43371 0.0232,0.83385 0.049,1.24175 l 5.14511,0 c 1.41988,0 1.54379,-0.13425 1.60575,-0.20395 0.0929,-0.0878 0.11617,-0.32786 -0.0155,-0.4208 -0.30721,-0.18329 -0.7719,-0.41822 -0.7719,-1.10234 l 0,-0.0361 c 0,-0.55504 0.48793,-0.76415 1.65997,-1.21851 0.32786,-0.13166 1.52314,-0.59119 1.52314,-0.59119 l 0.24783,0.13166 c 0.40273,0.21169 1.27272,0.79255 1.27272,1.79937 0,0.13425 -0.0181,0.23235 -0.0336,0.3227 -0.0258,0.13425 -0.0852,0.24784 -0.14715,0.3511 l 0,0.008 c -0.18071,0.34336 -0.40273,0.44404 -0.40273,0.44404 0,0 0.11359,0.48017 0.79772,0.53697 l 0.003,-0.005 c 0.0258,0.008 0.0516,0.0129 0.0774,0.0129 l 0.0542,0 c 0.34851,0 0.59118,-0.27623 0.59118,-0.62216 0,-0.41822 -0.27881,-0.50341 -0.27881,-1.04813 0,-1.00682 0.87516,-1.58768 1.28563,-1.79937 l 0.26333,-0.13166 c 0,0 1.20818,0.45953 1.54379,0.59119 1.17979,0.45436 1.65222,0.66347 1.65222,1.21851 l 0,0.0361 c 0,0.68412 -0.45694,0.91905 -0.76673,1.10234 -0.14974,0.0929 -0.12392,0.33303 -0.0181,0.4208 0.0774,0.0697 0.18846,0.20395 1.5851,0.20395 l 5.26129,0 c 0.0258,-0.4079 0.0516,-0.80804 0.0516,-1.24175 0,-1.21077 -0.13166,-2.56352 -0.38466,-4.02212 m -0.76157,-3.42319 0,0 -7.30849,3.31734 c 2.57385,-0.3924 6.30167,-0.97067 7.80932,-1.20818 -0.13941,-0.69703 -0.30721,-1.37341 -0.50083,-2.10916 m -8.0081,2.16854 4.62363,-2.16854 -3.15728,0 -1.46635,2.16854 z m 6.57015,-6.64502 -5.54009,0 0,3.12889 6.59596,0 c -0.30979,-1.01457 -0.66088,-2.05237 -1.05587,-3.12889 m -7.88418,4.47648 0,1.71159 1.1359,-1.71159 -1.1359,0 z m -2.50156,0 1.12557,1.71159 0,-1.71159 -1.12557,0 z m 9.66032,-6.33781 c -0.35626,-0.88807 -0.73576,-1.74515 -1.12041,-2.61515 l -4.39129,0 -0.66347,0 0,-9.33762 c -0.49825,-0.72026 -0.92937,-1.29854 -1.3037,-1.69094 -0.10069,-0.10843 -0.27365,-0.27881 -0.38208,-0.35626 -0.0981,0.0774 -0.24783,0.24783 -0.35626,0.35626 -0.36659,0.3924 -0.80288,0.97068 -1.29596,1.69094 l 0,9.33762 -0.65056,0 -4.34482,0 c -0.3924,0.87 -0.76673,1.72708 -1.11267,2.61515 -0.0697,0.17813 -0.1394,0.3511 -0.21169,0.50341 l 6.31974,0 0,4.48681 1.64964,0 0.003,0 1.68578,0 0,-4.48681 6.38428,0 c -0.0671,-0.15231 -0.13683,-0.32528 -0.20911,-0.50341 m -4.81467,-9.83328 0,5.86537 3.09533,0 c -1.04813,-2.19177 -2.11433,-4.21057 -3.09533,-5.86537 m -6.02286,0 c -0.981,1.6548 -2.05494,3.6736 -3.10307,5.86537 l 3.10307,0 0,-5.86537 z m -6.54433,14.8235 6.54433,0 0,-3.12889 -5.50653,0 c -0.40531,1.07652 -0.73834,2.11432 -1.0378,3.12889 m 7.56406,3.51613 -1.45601,-2.16854 -3.13664,0 4.59265,2.16854 z m -7.94614,-2.16854 c -0.18845,0.73575 -0.36142,1.41213 -0.50599,2.10916 1.487,0.23751 5.18384,0.81578 7.7551,1.20818 l -7.24911,-3.31734 z m 9.90041,10.64648 0.003,0 10.78589,0 c 0.0516,-0.20394 0.10068,-0.42338 0.13682,-0.64281 l -5.06508,0 c -2.15305,0 -3.06951,-0.52665 -3.06951,-1.77356 0,-0.37949 0.21685,-0.79513 0.57053,-1.09201 -0.24525,-0.0981 -1.29338,-0.46985 -1.43795,-0.53697 -0.11875,0.14199 -0.35109,0.36142 -0.38465,0.70219 0.10326,0.17039 0.32528,0.50858 0.32528,0.99908 0,0.77448 -0.52923,1.54637 -1.88973,1.5851 -0.62474,-0.0232 -1.01198,-0.20395 -1.3321,-0.46469 -0.0155,-0.0207 -0.0258,-0.0361 -0.0439,-0.0568 -0.56537,-0.14973 -0.92679,-0.53697 -0.92679,-1.03521 l 0,-0.53439 c 0,0 0.25816,-0.0232 0.40015,-0.0774 0.18071,-0.0826 0.24783,-0.17555 0.30463,-0.24525 0.15231,-0.22202 0.0232,-0.71252 -0.28914,-0.87258 -0.14457,0.0671 -1.18753,0.43887 -1.44311,0.53697 0.35368,0.29688 0.58344,0.71252 0.58344,1.09201 0,1.24691 -0.92163,1.77356 -3.09533,1.77356 l -4.95924,0 c 0.0465,0.21943 0.0878,0.43887 0.15232,0.64281 l 10.67488,0 z m -6.89543,4.48681 c 0,0.41564 0.13424,0.94744 1.33468,0.94744 0.97584,0 1.37341,-0.14715 1.53346,-0.26332 0.0852,-0.0516 0.19621,-0.13682 0.19621,-0.54471 l 0,-3.27604 -3.06435,0 0,3.13663 z m 5.4549,3.66586 0,-0.45436 c -0.80546,-0.23751 -1.48958,-0.66347 -1.93361,-1.34243 -0.36917,0.22718 -0.83128,0.32787 -1.30112,0.3795 0.91646,0.67896 2.05494,1.18753 3.23473,1.41729 m -0.8829,2.62806 1.92844,0 0,1.92329 0.39499,0 0.003,0 0.42596,0 0,-1.92329 1.95685,0 0,-0.85192 -1.95685,0 0,-1.95427 -0.42596,0 -0.003,0 -0.39499,0 0,1.95427 -1.92844,0 0,0.85192 z m 4.8663,-6.15451 0,-3.27604 -2.54029,0 -0.003,0 -2.47833,0 -0.008,3.27604 c 0,0.9397 0.63508,2.02913 2.48608,2.02913 l 0.003,0 c 1.90263,0 2.54029,-1.08943 2.54029,-2.02913 m 2.20468,2.10916 c -0.4776,-0.0516 -0.9268,-0.15232 -1.29338,-0.3795 -0.45178,0.67896 -1.13848,1.10492 -1.97492,1.34243 l 0,0.45436 c 1.21077,-0.22976 2.35441,-0.73833 3.2683,-1.41729 m 2.25114,-2.24857 0,-3.13663 -3.09791,0 0,3.27604 c 0,0.40789 0.11359,0.49308 0.18588,0.54471 0.1678,0.11617 0.56795,0.26332 1.55153,0.26332 1.21077,0 1.3605,-0.5318 1.3605,-0.94744 m 4.96957,-3.61165 -0.16264,0.47502 -3.45159,0 0,3.13663 c 0,0.86483 -0.43629,1.78388 -1.60059,2.14014 -0.84418,0.94744 -2.00589,1.79421 -3.29669,2.33634 l 0,2.87331 -1.9775,0 0,1.92587 -1.47667,0 -0.003,0 -1.44053,0 0,-1.92587 -1.93361,0 0,-2.87331 c -1.30112,-0.54213 -2.48608,-1.3889 -3.29411,-2.33634 -1.14623,-0.35626 -1.59026,-1.27531 -1.59026,-2.14014 l 0,-3.13663 -3.42836,0 -0.14973,-0.47502 c -0.41306,-1.24432 -0.5886,-2.61515 -0.5886,-4.11247 0,-4.62363 1.71934,-10.03207 3.39221,-14.25297 2.5661,-6.37395 5.9325,-12.14897 7.69056,-14.07484 0.41564,-0.40789 0.75382,-0.77448 1.30887,-0.79513 0.008,-0.003 0.0232,0 0.0336,0 l 0.003,0 c 0.0207,0 0.0284,-0.003 0.0439,0 0.58085,0.0207 0.92421,0.38724 1.32693,0.79513 1.80712,1.92587 5.20708,7.70089 7.76027,14.07484 1.6832,4.2209 3.4077,9.62934 3.4077,14.25297 0,1.49732 -0.15231,2.86815 -0.57311,4.11247" /></g></g></svg>