<?xml version="1.0" encoding="UTF-8" standalone="no"?><svg xmlns="http://www.w3.org/2000/svg" xmlns:xlink="http://www.w3.org/1999/xlink" clip-rule="evenodd" stroke-miterlimit="10" viewBox="0 0 1920 1080"><desc>SVG generated by Keynote</desc><defs></defs><g transform="matrix(1.00, 0.00, -0.00, -1.00, 0.0, 1080.0)"><path d="M 0.0 1080.0 L 1920.0 1080.0 L 1920.0 0.0 L 0.0 0.0 Z M 0.0 1080.0 " fill="#000000"></path><text xml:space="preserve" font-family="HelveticaNeue,Helvetica Neue" font-size="40.0" fill="#FEFFFE" transform="matrix(1.00, 0.00, -0.00, -1.00, 278.0, 573.1)">W</text><text xml:space="preserve" font-family="HelveticaNeue,Helvetica Neue" font-size="40.0" fill="#FEFFFE" transform="matrix(1.00, 0.00, -0.00, -1.00, 312.8, 573.1)">e</text><text xml:space="preserve" font-family="HelveticaNeue,Helvetica Neue" font-size="40.0" fill="#FEFFFE" transform="matrix(1.00, 0.00, -0.00, -1.00, 334.2, 573.1)"> </text><text xml:space="preserve" font-family="HelveticaNeue,Helvetica Neue" font-size="40.0" fill="#FEFFFE" transform="matrix(1.00, 0.00, -0.00, -1.00, 345.4, 573.1)">n</text><text xml:space="preserve" font-family="HelveticaNeue,Helvetica Neue" font-size="40.0" fill="#FEFFFE" transform="matrix(1.00, 0.00, -0.00, -1.00, 367.6, 573.1)">e</text><text xml:space="preserve" font-family="HelveticaNeue,Helvetica Neue" font-size="40.0" fill="#FEFFFE" transform="matrix(1.00, 0.00, -0.00, -1.00, 389.1, 573.1)">e</text><text xml:space="preserve" font-family="HelveticaNeue,Helvetica Neue" font-size="40.0" fill="#FEFFFE" transform="matrix(1.00, 0.00, -0.00, -1.00, 410.6, 573.1)">d</text><text xml:space="preserve" font-family="HelveticaNeue,Helvetica Neue" font-size="40.0" fill="#FEFFFE" transform="matrix(1.00, 0.00, -0.00, -1.00, 434.3, 573.1)"> </text><text xml:space="preserve" font-family="HelveticaNeue,Helvetica Neue" font-size="40.0" fill="#FEFFFE" transform="matrix(1.00, 0.00, -0.00, -1.00, 445.4, 573.1)">t</text><text xml:space="preserve" font-family="HelveticaNeue,Helvetica Neue" font-size="40.0" fill="#FEFFFE" transform="matrix(1.00, 0.00, -0.00, -1.00, 458.0, 573.1)">o</text><text xml:space="preserve" font-family="HelveticaNeue,Helvetica Neue" font-size="40.0" fill="#FEFFFE" transform="matrix(1.00, 0.00, -0.00, -1.00, 481.0, 573.1)"> </text><text xml:space="preserve" font-family="HelveticaNeue,Helvetica Neue" font-size="40.0" fill="#FEFFFE" transform="matrix(1.00, 0.00, -0.00, -1.00, 492.1, 573.1)">e</text><text xml:space="preserve" font-family="HelveticaNeue,Helvetica Neue" font-size="40.0" fill="#FEFFFE" transform="matrix(1.00, 0.00, -0.00, -1.00, 513.6, 573.1)">m</text><text xml:space="preserve" font-family="HelveticaNeue,Helvetica Neue" font-size="40.0" fill="#FEFFFE" transform="matrix(1.00, 0.00, -0.00, -1.00, 547.7, 573.1)">b</text><text xml:space="preserve" font-family="HelveticaNeue,Helvetica Neue" font-size="40.0" fill="#FEFFFE" transform="matrix(1.00, 0.00, -0.00, -1.00, 571.4, 573.1)">r</text><text xml:space="preserve" font-family="HelveticaNeue,Helvetica Neue" font-size="40.0" fill="#FEFFFE" transform="matrix(1.00, 0.00, -0.00, -1.00, 584.7, 573.1)">a</text><text xml:space="preserve" font-family="HelveticaNeue,Helvetica Neue" font-size="40.0" fill="#FEFFFE" transform="matrix(1.00, 0.00, -0.00, -1.00, 606.2, 573.1)">c</text><text xml:space="preserve" font-family="HelveticaNeue,Helvetica Neue" font-size="40.0" fill="#FEFFFE" transform="matrix(1.00, 0.00, -0.00, -1.00, 627.7, 573.1)">e</text><text xml:space="preserve" font-family="HelveticaNeue,Helvetica Neue" font-size="40.0" fill="#FEFFFE" transform="matrix(1.00, 0.00, -0.00, -1.00, 649.2, 573.1)"> </text><text xml:space="preserve" font-family="HelveticaNeue,Helvetica Neue" font-size="40.0" fill="#FEFFFE" transform="matrix(1.00, 0.00, -0.00, -1.00, 660.3, 573.1)">c</text><text xml:space="preserve" font-family="HelveticaNeue,Helvetica Neue" font-size="40.0" fill="#FEFFFE" transform="matrix(1.00, 0.00, -0.00, -1.00, 681.8, 573.1)">o</text><text xml:space="preserve" font-family="HelveticaNeue,Helvetica Neue" font-size="40.0" fill="#FEFFFE" transform="matrix(1.00, 0.00, -0.00, -1.00, 704.7, 573.1)">l</text><text xml:space="preserve" font-family="HelveticaNeue,Helvetica Neue" font-size="40.0" fill="#FEFFFE" transform="matrix(1.00, 0.00, -0.00, -1.00, 713.6, 573.1)">l</text><text xml:space="preserve" font-family="HelveticaNeue,Helvetica Neue" font-size="40.0" fill="#FEFFFE" transform="matrix(1.00, 0.00, -0.00, -1.00, 722.5, 573.1)">a</text><text xml:space="preserve" font-family="HelveticaNeue,Helvetica Neue" font-size="40.0" fill="#FEFFFE" transform="matrix(1.00, 0.00, -0.00, -1.00, 744.0, 573.1)">b</text><text xml:space="preserve" font-family="HelveticaNeue,Helvetica Neue" font-size="40.0" fill="#FEFFFE" transform="matrix(1.00, 0.00, -0.00, -1.00, 767.7, 573.1)">o</text><text xml:space="preserve" font-family="HelveticaNeue,Helvetica Neue" font-size="40.0" fill="#FEFFFE" transform="matrix(1.00, 0.00, -0.00, -1.00, 790.6, 573.1)">r</text><text xml:space="preserve" font-family="HelveticaNeue,Helvetica Neue" font-size="40.0" fill="#FEFFFE" transform="matrix(1.00, 0.00, -0.00, -1.00, 804.0, 573.1)">a</text><text xml:space="preserve" font-family="HelveticaNeue,Helvetica Neue" font-size="40.0" fill="#FEFFFE" transform="matrix(1.00, 0.00, -0.00, -1.00, 825.4, 573.1)">t</text><text xml:space="preserve" font-family="HelveticaNeue,Helvetica Neue" font-size="40.0" fill="#FEFFFE" transform="matrix(1.00, 0.00, -0.00, -1.00, 838.0, 573.1)">i</text><text xml:space="preserve" font-family="HelveticaNeue,Helvetica Neue" font-size="40.0" fill="#FEFFFE" transform="matrix(1.00, 0.00, -0.00, -1.00, 846.9, 573.1)">o</text><text xml:space="preserve" font-family="HelveticaNeue,Helvetica Neue" font-size="40.0" fill="#FEFFFE" transform="matrix(1.00, 0.00, -0.00, -1.00, 869.9, 573.1)">n</text><text xml:space="preserve" font-family="HelveticaNeue,Helvetica Neue" font-size="40.0" fill="#FEFFFE" transform="matrix(1.00, 0.00, -0.00, -1.00, 892.1, 573.1)"> </text><text xml:space="preserve" font-family="HelveticaNeue,Helvetica Neue" font-size="40.0" fill="#FEFFFE" transform="matrix(1.00, 0.00, -0.00, -1.00, 903.2, 573.1)">a</text><text xml:space="preserve" font-family="HelveticaNeue,Helvetica Neue" font-size="40.0" fill="#FEFFFE" transform="matrix(1.00, 0.00, -0.00, -1.00, 924.7, 573.1)">s</text><text xml:space="preserve" font-family="HelveticaNeue,Helvetica Neue" font-size="40.0" fill="#FEFFFE" transform="matrix(1.00, 0.00, -0.00, -1.00, 944.7, 573.1)"> </text><text xml:space="preserve" font-family="HelveticaNeue,Helvetica Neue" font-size="40.0" fill="#FEFFFE" transform="matrix(1.00, 0.00, -0.00, -1.00, 955.8, 573.1)">a</text><text xml:space="preserve" font-family="HelveticaNeue,Helvetica Neue" font-size="40.0" fill="#FEFFFE" transform="matrix(1.00, 0.00, -0.00, -1.00, 977.3, 573.1)">n</text><text xml:space="preserve" font-family="HelveticaNeue,Helvetica Neue" font-size="40.0" fill="#FEFFFE" transform="matrix(1.00, 0.00, -0.00, -1.00, 999.6, 573.1)"> </text><text xml:space="preserve" font-family="HelveticaNeue,Helvetica Neue" font-size="40.0" fill="#FEFFFE" transform="matrix(1.00, 0.00, -0.00, -1.00, 1010.7, 573.1)">e</text><text xml:space="preserve" font-family="HelveticaNeue,Helvetica Neue" font-size="40.0" fill="#FEFFFE" transform="matrix(1.00, 0.00, -0.00, -1.00, 1032.2, 573.1)">s</text><text xml:space="preserve" font-family="HelveticaNeue,Helvetica Neue" font-size="40.0" fill="#FEFFFE" transform="matrix(1.00, 0.00, -0.00, -1.00, 1052.2, 573.1)">s</text><text xml:space="preserve" font-family="HelveticaNeue,Helvetica Neue" font-size="40.0" fill="#FEFFFE" transform="matrix(1.00, 0.00, -0.00, -1.00, 1072.2, 573.1)">e</text><text xml:space="preserve" font-family="HelveticaNeue,Helvetica Neue" font-size="40.0" fill="#FEFFFE" transform="matrix(1.00, 0.00, -0.00, -1.00, 1093.6, 573.1)">n</text><text xml:space="preserve" font-family="HelveticaNeue,Helvetica Neue" font-size="40.0" fill="#FEFFFE" transform="matrix(1.00, 0.00, -0.00, -1.00, 1115.9, 573.1)">t</text><text xml:space="preserve" font-family="HelveticaNeue,Helvetica Neue" font-size="40.0" fill="#FEFFFE" transform="matrix(1.00, 0.00, -0.00, -1.00, 1128.5, 573.1)">i</text><text xml:space="preserve" font-family="HelveticaNeue,Helvetica Neue" font-size="40.0" fill="#FEFFFE" transform="matrix(1.00, 0.00, -0.00, -1.00, 1137.4, 573.1)">a</text><text xml:space="preserve" font-family="HelveticaNeue,Helvetica Neue" font-size="40.0" fill="#FEFFFE" transform="matrix(1.00, 0.00, -0.00, -1.00, 1158.8, 573.1)">l</text><text xml:space="preserve" font-family="HelveticaNeue,Helvetica Neue" font-size="40.0" fill="#FEFFFE" transform="matrix(1.00, 0.00, -0.00, -1.00, 1167.7, 573.1)"> </text><text xml:space="preserve" font-family="HelveticaNeue,Helvetica Neue" font-size="40.0" fill="#FEFFFE" transform="matrix(1.00, 0.00, -0.00, -1.00, 1178.8, 573.1)">p</text><text xml:space="preserve" font-family="HelveticaNeue,Helvetica Neue" font-size="40.0" fill="#FEFFFE" transform="matrix(1.00, 0.00, -0.00, -1.00, 1202.6, 573.1)">a</text><text xml:space="preserve" font-family="HelveticaNeue,Helvetica Neue" font-size="40.0" fill="#FEFFFE" transform="matrix(1.00, 0.00, -0.00, -1.00, 1224.0, 573.1)">r</text><text xml:space="preserve" font-family="HelveticaNeue,Helvetica Neue" font-size="40.0" fill="#FEFFFE" transform="matrix(1.00, 0.00, -0.00, -1.00, 1237.4, 573.1)">t</text><text xml:space="preserve" font-family="HelveticaNeue,Helvetica Neue" font-size="40.0" fill="#FEFFFE" transform="matrix(1.00, 0.00, -0.00, -1.00, 1250.0, 573.1)"> </text><text xml:space="preserve" font-family="HelveticaNeue,Helvetica Neue" font-size="40.0" fill="#FEFFFE" transform="matrix(1.00, 0.00, -0.00, -1.00, 1261.1, 573.1)">o</text><text xml:space="preserve" font-family="HelveticaNeue,Helvetica Neue" font-size="40.0" fill="#FEFFFE" transform="matrix(1.00, 0.00, -0.00, -1.00, 1284.0, 573.1)">f</text><text xml:space="preserve" font-family="HelveticaNeue,Helvetica Neue" font-size="40.0" fill="#FEFFFE" transform="matrix(1.00, 0.00, -0.00, -1.00, 1295.9, 573.1)"> </text><text xml:space="preserve" font-family="HelveticaNeue,Helvetica Neue" font-size="40.0" fill="#FEFFFE" transform="matrix(1.00, 0.00, -0.00, -1.00, 1307.0, 573.1)">o</text><text xml:space="preserve" font-family="HelveticaNeue,Helvetica Neue" font-size="40.0" fill="#FEFFFE" transform="matrix(1.00, 0.00, -0.00, -1.00, 1330.0, 573.1)">u</text><text xml:space="preserve" font-family="HelveticaNeue,Helvetica Neue" font-size="40.0" fill="#FEFFFE" transform="matrix(1.00, 0.00, -0.00, -1.00, 1352.2, 573.1)">r</text><text xml:space="preserve" font-family="HelveticaNeue,Helvetica Neue" font-size="40.0" fill="#FEFFFE" transform="matrix(1.00, 0.00, -0.00, -1.00, 1365.5, 573.1)"> </text><text xml:space="preserve" font-family="HelveticaNeue,Helvetica Neue" font-size="40.0" fill="#FEFFFE" transform="matrix(1.00, 0.00, -0.00, -1.00, 1376.6, 573.1)">r</text><text xml:space="preserve" font-family="HelveticaNeue,Helvetica Neue" font-size="40.0" fill="#FEFFFE" transform="matrix(1.00, 0.00, -0.00, -1.00, 1389.2, 573.1)">e</text><text xml:space="preserve" font-family="HelveticaNeue,Helvetica Neue" font-size="40.0" fill="#FEFFFE" transform="matrix(1.00, 0.00, -0.00, -1.00, 1410.7, 573.1)">s</text><text xml:space="preserve" font-family="HelveticaNeue,Helvetica Neue" font-size="40.0" fill="#FEFFFE" transform="matrix(1.00, 0.00, -0.00, -1.00, 1430.7, 573.1)">e</text><text xml:space="preserve" font-family="HelveticaNeue,Helvetica Neue" font-size="40.0" fill="#FEFFFE" transform="matrix(1.00, 0.00, -0.00, -1.00, 1452.2, 573.1)">a</text><text xml:space="preserve" font-family="HelveticaNeue,Helvetica Neue" font-size="40.0" fill="#FEFFFE" transform="matrix(1.00, 0.00, -0.00, -1.00, 1473.7, 573.1)">r</text><text xml:space="preserve" font-family="HelveticaNeue,Helvetica Neue" font-size="40.0" fill="#FEFFFE" transform="matrix(1.00, 0.00, -0.00, -1.00, 1486.3, 573.1)">c</text><text xml:space="preserve" font-family="HelveticaNeue,Helvetica Neue" font-size="40.0" fill="#FEFFFE" transform="matrix(1.00, 0.00, -0.00, -1.00, 1507.8, 573.1)">h</text><text xml:space="preserve" font-family="HelveticaNeue,Helvetica Neue" font-size="40.0" fill="#FEFFFE" transform="matrix(1.00, 0.00, -0.00, -1.00, 1530.0, 573.1)">,</text><text xml:space="preserve" font-family="HelveticaNeue,Helvetica Neue" font-size="40.0" fill="#FEFFFE" transform="matrix(1.00, 0.00, -0.00, -1.00, 1541.1, 573.1)"> </text><text xml:space="preserve" font-family="HelveticaNeue,Helvetica Neue" font-size="40.0" fill="#FEFFFE" transform="matrix(1.00, 0.00, -0.00, -1.00, 232.7, 525.1)">s</text><text xml:space="preserve" font-family="HelveticaNeue,Helvetica Neue" font-size="40.0" fill="#FEFFFE" transform="matrix(1.00, 0.00, -0.00, -1.00, 252.7, 525.1)">t</text><text xml:space="preserve" font-family="HelveticaNeue,Helvetica Neue" font-size="40.0" fill="#FEFFFE" transform="matrix(1.00, 0.00, -0.00, -1.00, 265.3, 525.1)">a</text><text xml:space="preserve" font-family="HelveticaNeue,Helvetica Neue" font-size="40.0" fill="#FEFFFE" transform="matrix(1.00, 0.00, -0.00, -1.00, 286.8, 525.1)">r</text><text xml:space="preserve" font-family="HelveticaNeue,Helvetica Neue" font-size="40.0" fill="#FEFFFE" transform="matrix(1.00, 0.00, -0.00, -1.00, 300.1, 525.1)">t</text><text xml:space="preserve" font-family="HelveticaNeue,Helvetica Neue" font-size="40.0" fill="#FEFFFE" transform="matrix(1.00, 0.00, -0.00, -1.00, 312.7, 525.1)">i</text><text xml:space="preserve" font-family="HelveticaNeue,Helvetica Neue" font-size="40.0" fill="#FEFFFE" transform="matrix(1.00, 0.00, -0.00, -1.00, 321.6, 525.1)">n</text><text xml:space="preserve" font-family="HelveticaNeue,Helvetica Neue" font-size="40.0" fill="#FEFFFE" transform="matrix(1.00, 0.00, -0.00, -1.00, 343.8, 525.1)">g</text><text xml:space="preserve" font-family="HelveticaNeue,Helvetica Neue" font-size="40.0" fill="#FEFFFE" transform="matrix(1.00, 0.00, -0.00, -1.00, 366.8, 525.1)"> </text><text xml:space="preserve" font-family="HelveticaNeue,Helvetica Neue" font-size="40.0" fill="#FEFFFE" transform="matrix(1.00, 0.00, -0.00, -1.00, 377.9, 525.1)">w</text><text xml:space="preserve" font-family="HelveticaNeue,Helvetica Neue" font-size="40.0" fill="#FEFFFE" transform="matrix(1.00, 0.00, -0.00, -1.00, 408.2, 525.1)">i</text><text xml:space="preserve" font-family="HelveticaNeue,Helvetica Neue" font-size="40.0" fill="#FEFFFE" transform="matrix(1.00, 0.00, -0.00, -1.00, 417.1, 525.1)">t</text><text xml:space="preserve" font-family="HelveticaNeue,Helvetica Neue" font-size="40.0" fill="#FEFFFE" transform="matrix(1.00, 0.00, -0.00, -1.00, 429.7, 525.1)">h</text><text xml:space="preserve" font-family="HelveticaNeue,Helvetica Neue" font-size="40.0" fill="#FEFFFE" transform="matrix(1.00, 0.00, -0.00, -1.00, 452.0, 525.1)"> </text><text xml:space="preserve" font-family="HelveticaNeue,Helvetica Neue" font-size="40.0" fill="#FEFFFE" transform="matrix(1.00, 0.00, -0.00, -1.00, 463.1, 525.1)">t</text><text xml:space="preserve" font-family="HelveticaNeue,Helvetica Neue" font-size="40.0" fill="#FEFFFE" transform="matrix(1.00, 0.00, -0.00, -1.00, 475.7, 525.1)">h</text><text xml:space="preserve" font-family="HelveticaNeue,Helvetica Neue" font-size="40.0" fill="#FEFFFE" transform="matrix(1.00, 0.00, -0.00, -1.00, 497.9, 525.1)">e</text><text xml:space="preserve" font-family="HelveticaNeue,Helvetica Neue" font-size="40.0" fill="#FEFFFE" transform="matrix(1.00, 0.00, -0.00, -1.00, 519.4, 525.1)"> </text><text xml:space="preserve" font-family="HelveticaNeue,Helvetica Neue" font-size="40.0" fill="#FEFFFE" transform="matrix(1.00, 0.00, -0.00, -1.00, 530.5, 525.1)">o</text><text xml:space="preserve" font-family="HelveticaNeue,Helvetica Neue" font-size="40.0" fill="#FEFFFE" transform="matrix(1.00, 0.00, -0.00, -1.00, 553.5, 525.1)">p</text><text xml:space="preserve" font-family="HelveticaNeue,Helvetica Neue" font-size="40.0" fill="#FEFFFE" transform="matrix(1.00, 0.00, -0.00, -1.00, 577.2, 525.1)">e</text><text xml:space="preserve" font-family="HelveticaNeue,Helvetica Neue" font-size="40.0" fill="#FEFFFE" transform="matrix(1.00, 0.00, -0.00, -1.00, 598.7, 525.1)">n</text><text xml:space="preserve" font-family="HelveticaNeue,Helvetica Neue" font-size="40.0" fill="#FEFFFE" transform="matrix(1.00, 0.00, -0.00, -1.00, 620.9, 525.1)"> </text><text xml:space="preserve" font-family="HelveticaNeue,Helvetica Neue" font-size="40.0" fill="#FEFFFE" transform="matrix(1.00, 0.00, -0.00, -1.00, 632.0, 525.1)">s</text><text xml:space="preserve" font-family="HelveticaNeue,Helvetica Neue" font-size="40.0" fill="#FEFFFE" transform="matrix(1.00, 0.00, -0.00, -1.00, 652.0, 525.1)">h</text><text xml:space="preserve" font-family="HelveticaNeue,Helvetica Neue" font-size="40.0" fill="#FEFFFE" transform="matrix(1.00, 0.00, -0.00, -1.00, 674.3, 525.1)">a</text><text xml:space="preserve" font-family="HelveticaNeue,Helvetica Neue" font-size="40.0" fill="#FEFFFE" transform="matrix(1.00, 0.00, -0.00, -1.00, 695.8, 525.1)">r</text><text xml:space="preserve" font-family="HelveticaNeue,Helvetica Neue" font-size="40.0" fill="#FEFFFE" transform="matrix(1.00, 0.00, -0.00, -1.00, 709.1, 525.1)">i</text><text xml:space="preserve" font-family="HelveticaNeue,Helvetica Neue" font-size="40.0" fill="#FEFFFE" transform="matrix(1.00, 0.00, -0.00, -1.00, 718.0, 525.1)">n</text><text xml:space="preserve" font-family="HelveticaNeue,Helvetica Neue" font-size="40.0" fill="#FEFFFE" transform="matrix(1.00, 0.00, -0.00, -1.00, 740.2, 525.1)">g</text><text xml:space="preserve" font-family="HelveticaNeue,Helvetica Neue" font-size="40.0" fill="#FEFFFE" transform="matrix(1.00, 0.00, -0.00, -1.00, 763.2, 525.1)"> </text><text xml:space="preserve" font-family="HelveticaNeue,Helvetica Neue" font-size="40.0" fill="#FEFFFE" transform="matrix(1.00, 0.00, -0.00, -1.00, 774.3, 525.1)">o</text><text xml:space="preserve" font-family="HelveticaNeue,Helvetica Neue" font-size="40.0" fill="#FEFFFE" transform="matrix(1.00, 0.00, -0.00, -1.00, 797.2, 525.1)">f</text><text xml:space="preserve" font-family="HelveticaNeue,Helvetica Neue" font-size="40.0" fill="#FEFFFE" transform="matrix(1.00, 0.00, -0.00, -1.00, 809.1, 525.1)"> </text><text xml:space="preserve" font-family="HelveticaNeue,Helvetica Neue" font-size="40.0" fill="#FEFFFE" transform="matrix(1.00, 0.00, -0.00, -1.00, 820.2, 525.1)">d</text><text xml:space="preserve" font-family="HelveticaNeue,Helvetica Neue" font-size="40.0" fill="#FEFFFE" transform="matrix(1.00, 0.00, -0.00, -1.00, 843.9, 525.1)">a</text><text xml:space="preserve" font-family="HelveticaNeue,Helvetica Neue" font-size="40.0" fill="#FEFFFE" transform="matrix(1.00, 0.00, -0.00, -1.00, 865.4, 525.1)">t</text><text xml:space="preserve" font-family="HelveticaNeue,Helvetica Neue" font-size="40.0" fill="#FEFFFE" transform="matrix(1.00, 0.00, -0.00, -1.00, 878.0, 525.1)">a</text><text xml:space="preserve" font-family="HelveticaNeue,Helvetica Neue" font-size="40.0" fill="#FEFFFE" transform="matrix(1.00, 0.00, -0.00, -1.00, 899.5, 525.1)"> </text><text xml:space="preserve" font-family="HelveticaNeue,Helvetica Neue" font-size="40.0" fill="#FEFFFE" transform="matrix(1.00, 0.00, -0.00, -1.00, 910.6, 525.1)">a</text><text xml:space="preserve" font-family="HelveticaNeue,Helvetica Neue" font-size="40.0" fill="#FEFFFE" transform="matrix(1.00, 0.00, -0.00, -1.00, 932.1, 525.1)">n</text><text xml:space="preserve" font-family="HelveticaNeue,Helvetica Neue" font-size="40.0" fill="#FEFFFE" transform="matrix(1.00, 0.00, -0.00, -1.00, 954.3, 525.1)">d</text><text xml:space="preserve" font-family="HelveticaNeue,Helvetica Neue" font-size="40.0" fill="#FEFFFE" transform="matrix(1.00, 0.00, -0.00, -1.00, 978.0, 525.1)"> </text><text xml:space="preserve" font-family="HelveticaNeue,Helvetica Neue" font-size="40.0" fill="#FEFFFE" transform="matrix(1.00, 0.00, -0.00, -1.00, 989.2, 525.1)">m</text><text xml:space="preserve" font-family="HelveticaNeue,Helvetica Neue" font-size="40.0" fill="#FEFFFE" transform="matrix(1.00, 0.00, -0.00, -1.00, 1023.3, 525.1)">e</text><text xml:space="preserve" font-family="HelveticaNeue,Helvetica Neue" font-size="40.0" fill="#FEFFFE" transform="matrix(1.00, 0.00, -0.00, -1.00, 1044.8, 525.1)">t</text><text xml:space="preserve" font-family="HelveticaNeue,Helvetica Neue" font-size="40.0" fill="#FEFFFE" transform="matrix(1.00, 0.00, -0.00, -1.00, 1057.4, 525.1)">h</text><text xml:space="preserve" font-family="HelveticaNeue,Helvetica Neue" font-size="40.0" fill="#FEFFFE" transform="matrix(1.00, 0.00, -0.00, -1.00, 1079.6, 525.1)">o</text><text xml:space="preserve" font-family="HelveticaNeue,Helvetica Neue" font-size="40.0" fill="#FEFFFE" transform="matrix(1.00, 0.00, -0.00, -1.00, 1102.6, 525.1)">d</text><text xml:space="preserve" font-family="HelveticaNeue,Helvetica Neue" font-size="40.0" fill="#FEFFFE" transform="matrix(1.00, 0.00, -0.00, -1.00, 1126.3, 525.1)">s</text><text xml:space="preserve" font-family="HelveticaNeue,Helvetica Neue" font-size="40.0" fill="#FEFFFE" transform="matrix(1.00, 0.00, -0.00, -1.00, 1146.3, 525.1)">,</text><text xml:space="preserve" font-family="HelveticaNeue,Helvetica Neue" font-size="40.0" fill="#FEFFFE" transform="matrix(1.00, 0.00, -0.00, -1.00, 1157.4, 525.1)"> </text><text xml:space="preserve" font-family="HelveticaNeue,Helvetica Neue" font-size="40.0" fill="#FEFFFE" transform="matrix(1.00, 0.00, -0.00, -1.00, 1168.5, 525.1)">b</text><text xml:space="preserve" font-family="HelveticaNeue,Helvetica Neue" font-size="40.0" fill="#FEFFFE" transform="matrix(1.00, 0.00, -0.00, -1.00, 1192.2, 525.1)">u</text><text xml:space="preserve" font-family="HelveticaNeue,Helvetica Neue" font-size="40.0" fill="#FEFFFE" transform="matrix(1.00, 0.00, -0.00, -1.00, 1214.5, 525.1)">t</text><text xml:space="preserve" font-family="HelveticaNeue,Helvetica Neue" font-size="40.0" fill="#FEFFFE" transform="matrix(1.00, 0.00, -0.00, -1.00, 1227.1, 525.1)"> </text><text xml:space="preserve" font-family="HelveticaNeue,Helvetica Neue" font-size="40.0" fill="#FEFFFE" transform="matrix(1.00, 0.00, -0.00, -1.00, 1238.2, 525.1)">a</text><text xml:space="preserve" font-family="HelveticaNeue,Helvetica Neue" font-size="40.0" fill="#FEFFFE" transform="matrix(1.00, 0.00, -0.00, -1.00, 1259.7, 525.1)">l</text><text xml:space="preserve" font-family="HelveticaNeue,Helvetica Neue" font-size="40.0" fill="#FEFFFE" transform="matrix(1.00, 0.00, -0.00, -1.00, 1268.6, 525.1)">s</text><text xml:space="preserve" font-family="HelveticaNeue,Helvetica Neue" font-size="40.0" fill="#FEFFFE" transform="matrix(1.00, 0.00, -0.00, -1.00, 1288.6, 525.1)">o</text><text xml:space="preserve" font-family="HelveticaNeue,Helvetica Neue" font-size="40.0" fill="#FEFFFE" transform="matrix(1.00, 0.00, -0.00, -1.00, 1311.5, 525.1)"> </text><text xml:space="preserve" font-family="HelveticaNeue,Helvetica Neue" font-size="40.0" fill="#FEFFFE" transform="matrix(1.00, 0.00, -0.00, -1.00, 1322.6, 525.1)">d</text><text xml:space="preserve" font-family="HelveticaNeue,Helvetica Neue" font-size="40.0" fill="#FEFFFE" transform="matrix(1.00, 0.00, -0.00, -1.00, 1346.4, 525.1)">e</text><text xml:space="preserve" font-family="HelveticaNeue,Helvetica Neue" font-size="40.0" fill="#FEFFFE" transform="matrix(1.00, 0.00, -0.00, -1.00, 1367.8, 525.1)">v</text><text xml:space="preserve" font-family="HelveticaNeue,Helvetica Neue" font-size="40.0" fill="#FEFFFE" transform="matrix(1.00, 0.00, -0.00, -1.00, 1387.8, 525.1)">e</text><text xml:space="preserve" font-family="HelveticaNeue,Helvetica Neue" font-size="40.0" fill="#FEFFFE" transform="matrix(1.00, 0.00, -0.00, -1.00, 1409.3, 525.1)">l</text><text xml:space="preserve" font-family="HelveticaNeue,Helvetica Neue" font-size="40.0" fill="#FEFFFE" transform="matrix(1.00, 0.00, -0.00, -1.00, 1418.2, 525.1)">o</text><text xml:space="preserve" font-family="HelveticaNeue,Helvetica Neue" font-size="40.0" fill="#FEFFFE" transform="matrix(1.00, 0.00, -0.00, -1.00, 1441.2, 525.1)">p</text><text xml:space="preserve" font-family="HelveticaNeue,Helvetica Neue" font-size="40.0" fill="#FEFFFE" transform="matrix(1.00, 0.00, -0.00, -1.00, 1464.9, 525.1)">i</text><text xml:space="preserve" font-family="HelveticaNeue,Helvetica Neue" font-size="40.0" fill="#FEFFFE" transform="matrix(1.00, 0.00, -0.00, -1.00, 1473.8, 525.1)">n</text><text xml:space="preserve" font-family="HelveticaNeue,Helvetica Neue" font-size="40.0" fill="#FEFFFE" transform="matrix(1.00, 0.00, -0.00, -1.00, 1496.0, 525.1)">g</text><text xml:space="preserve" font-family="HelveticaNeue,Helvetica Neue" font-size="40.0" fill="#FEFFFE" transform="matrix(1.00, 0.00, -0.00, -1.00, 1519.0, 525.1)"> </text><text xml:space="preserve" font-family="HelveticaNeue,Helvetica Neue" font-size="40.0" fill="#FEFFFE" transform="matrix(1.00, 0.00, -0.00, -1.00, 1530.1, 525.1)">t</text><text xml:space="preserve" font-family="HelveticaNeue,Helvetica Neue" font-size="40.0" fill="#FEFFFE" transform="matrix(1.00, 0.00, -0.00, -1.00, 1542.7, 525.1)">h</text><text xml:space="preserve" font-family="HelveticaNeue,Helvetica Neue" font-size="40.0" fill="#FEFFFE" transform="matrix(1.00, 0.00, -0.00, -1.00, 1564.9, 525.1)">e</text><text xml:space="preserve" font-family="HelveticaNeue,Helvetica Neue" font-size="40.0" fill="#FEFFFE" transform="matrix(1.00, 0.00, -0.00, -1.00, 1586.4, 525.1)"> </text><text xml:space="preserve" font-family="HelveticaNeue,Helvetica Neue" font-size="40.0" fill="#FEFFFE" transform="matrix(1.00, 0.00, -0.00, -1.00, 490.7, 477.1)">p</text><text xml:space="preserve" font-family="HelveticaNeue,Helvetica Neue" font-size="40.0" fill="#FEFFFE" transform="matrix(1.00, 0.00, -0.00, -1.00, 514.4, 477.1)">l</text><text xml:space="preserve" font-family="HelveticaNeue,Helvetica Neue" font-size="40.0" fill="#FEFFFE" transform="matrix(1.00, 0.00, -0.00, -1.00, 523.3, 477.1)">a</text><text xml:space="preserve" font-family="HelveticaNeue,Helvetica Neue" font-size="40.0" fill="#FEFFFE" transform="matrix(1.00, 0.00, -0.00, -1.00, 544.8, 477.1)">t</text><text xml:space="preserve" font-family="HelveticaNeue,Helvetica Neue" font-size="40.0" fill="#FEFFFE" transform="matrix(1.00, 0.00, -0.00, -1.00, 557.4, 477.1)">f</text><text xml:space="preserve" font-family="HelveticaNeue,Helvetica Neue" font-size="40.0" fill="#FEFFFE" transform="matrix(1.00, 0.00, -0.00, -1.00, 569.2, 477.1)">o</text><text xml:space="preserve" font-family="HelveticaNeue,Helvetica Neue" font-size="40.0" fill="#FEFFFE" transform="matrix(1.00, 0.00, -0.00, -1.00, 592.2, 477.1)">r</text><text xml:space="preserve" font-family="HelveticaNeue,Helvetica Neue" font-size="40.0" fill="#FEFFFE" transform="matrix(1.00, 0.00, -0.00, -1.00, 605.5, 477.1)">m</text><text xml:space="preserve" font-family="HelveticaNeue,Helvetica Neue" font-size="40.0" fill="#FEFFFE" transform="matrix(1.00, 0.00, -0.00, -1.00, 639.6, 477.1)">s</text><text xml:space="preserve" font-family="HelveticaNeue,Helvetica Neue" font-size="40.0" fill="#FEFFFE" transform="matrix(1.00, 0.00, -0.00, -1.00, 659.6, 477.1)"> </text><text xml:space="preserve" font-family="HelveticaNeue,Helvetica Neue" font-size="40.0" fill="#FEFFFE" transform="matrix(1.00, 0.00, -0.00, -1.00, 670.7, 477.1)">t</text><text xml:space="preserve" font-family="HelveticaNeue,Helvetica Neue" font-size="40.0" fill="#FEFFFE" transform="matrix(1.00, 0.00, -0.00, -1.00, 683.3, 477.1)">h</text><text xml:space="preserve" font-family="HelveticaNeue,Helvetica Neue" font-size="40.0" fill="#FEFFFE" transform="matrix(1.00, 0.00, -0.00, -1.00, 705.6, 477.1)">a</text><text xml:space="preserve" font-family="HelveticaNeue,Helvetica Neue" font-size="40.0" fill="#FEFFFE" transform="matrix(1.00, 0.00, -0.00, -1.00, 727.0, 477.1)">t</text><text xml:space="preserve" font-family="HelveticaNeue,Helvetica Neue" font-size="40.0" fill="#FEFFFE" transform="matrix(1.00, 0.00, -0.00, -1.00, 739.6, 477.1)"> </text><text xml:space="preserve" font-family="HelveticaNeue,Helvetica Neue" font-size="40.0" fill="#FEFFFE" transform="matrix(1.00, 0.00, -0.00, -1.00, 750.8, 477.1)">w</text><text xml:space="preserve" font-family="HelveticaNeue,Helvetica Neue" font-size="40.0" fill="#FEFFFE" transform="matrix(1.00, 0.00, -0.00, -1.00, 781.1, 477.1)">i</text><text xml:space="preserve" font-family="HelveticaNeue,Helvetica Neue" font-size="40.0" fill="#FEFFFE" transform="matrix(1.00, 0.00, -0.00, -1.00, 790.0, 477.1)">l</text><text xml:space="preserve" font-family="HelveticaNeue,Helvetica Neue" font-size="40.0" fill="#FEFFFE" transform="matrix(1.00, 0.00, -0.00, -1.00, 798.8, 477.1)">l</text><text xml:space="preserve" font-family="HelveticaNeue,Helvetica Neue" font-size="40.0" fill="#FEFFFE" transform="matrix(1.00, 0.00, -0.00, -1.00, 807.7, 477.1)"> </text><text xml:space="preserve" font-family="HelveticaNeue,Helvetica Neue" font-size="40.0" fill="#FEFFFE" transform="matrix(1.00, 0.00, -0.00, -1.00, 818.8, 477.1)">a</text><text xml:space="preserve" font-family="HelveticaNeue,Helvetica Neue" font-size="40.0" fill="#FEFFFE" transform="matrix(1.00, 0.00, -0.00, -1.00, 840.3, 477.1)">l</text><text xml:space="preserve" font-family="HelveticaNeue,Helvetica Neue" font-size="40.0" fill="#FEFFFE" transform="matrix(1.00, 0.00, -0.00, -1.00, 849.2, 477.1)">l</text><text xml:space="preserve" font-family="HelveticaNeue,Helvetica Neue" font-size="40.0" fill="#FEFFFE" transform="matrix(1.00, 0.00, -0.00, -1.00, 858.1, 477.1)">o</text><text xml:space="preserve" font-family="HelveticaNeue,Helvetica Neue" font-size="40.0" fill="#FEFFFE" transform="matrix(1.00, 0.00, -0.00, -1.00, 881.0, 477.1)">w</text><text xml:space="preserve" font-family="HelveticaNeue,Helvetica Neue" font-size="40.0" fill="#FEFFFE" transform="matrix(1.00, 0.00, -0.00, -1.00, 911.4, 477.1)"> </text><text xml:space="preserve" font-family="HelveticaNeue,Helvetica Neue" font-size="40.0" fill="#FEFFFE" transform="matrix(1.00, 0.00, -0.00, -1.00, 922.5, 477.1)">u</text><text xml:space="preserve" font-family="HelveticaNeue,Helvetica Neue" font-size="40.0" fill="#FEFFFE" transform="matrix(1.00, 0.00, -0.00, -1.00, 944.7, 477.1)">s</text><text xml:space="preserve" font-family="HelveticaNeue,Helvetica Neue" font-size="40.0" fill="#FEFFFE" transform="matrix(1.00, 0.00, -0.00, -1.00, 964.7, 477.1)"> </text><text xml:space="preserve" font-family="HelveticaNeue,Helvetica Neue" font-size="40.0" fill="#FEFFFE" transform="matrix(1.00, 0.00, -0.00, -1.00, 975.8, 477.1)">t</text><text xml:space="preserve" font-family="HelveticaNeue,Helvetica Neue" font-size="40.0" fill="#FEFFFE" transform="matrix(1.00, 0.00, -0.00, -1.00, 988.4, 477.1)">o</text><text xml:space="preserve" font-family="HelveticaNeue,Helvetica Neue" font-size="40.0" fill="#FEFFFE" transform="matrix(1.00, 0.00, -0.00, -1.00, 1011.4, 477.1)"> </text><text xml:space="preserve" font-family="HelveticaNeue,Helvetica Neue" font-size="40.0" fill="#FEFFFE" transform="matrix(1.00, 0.00, -0.00, -1.00, 1022.5, 477.1)">w</text><text xml:space="preserve" font-family="HelveticaNeue,Helvetica Neue" font-size="40.0" fill="#FEFFFE" transform="matrix(1.00, 0.00, -0.00, -1.00, 1052.8, 477.1)">o</text><text xml:space="preserve" font-family="HelveticaNeue,Helvetica Neue" font-size="40.0" fill="#FEFFFE" transform="matrix(1.00, 0.00, -0.00, -1.00, 1075.8, 477.1)">r</text><text xml:space="preserve" font-family="HelveticaNeue,Helvetica Neue" font-size="40.0" fill="#FEFFFE" transform="matrix(1.00, 0.00, -0.00, -1.00, 1089.1, 477.1)">k</text><text xml:space="preserve" font-family="HelveticaNeue,Helvetica Neue" font-size="40.0" fill="#FEFFFE" transform="matrix(1.00, 0.00, -0.00, -1.00, 1109.9, 477.1)"> </text><text xml:space="preserve" font-family="HelveticaNeue,Helvetica Neue" font-size="40.0" fill="#FEFFFE" transform="matrix(1.00, 0.00, -0.00, -1.00, 1121.0, 477.1)">a</text><text xml:space="preserve" font-family="HelveticaNeue,Helvetica Neue" font-size="40.0" fill="#FEFFFE" transform="matrix(1.00, 0.00, -0.00, -1.00, 1142.5, 477.1)">l</text><text xml:space="preserve" font-family="HelveticaNeue,Helvetica Neue" font-size="40.0" fill="#FEFFFE" transform="matrix(1.00, 0.00, -0.00, -1.00, 1151.4, 477.1)">l</text><text xml:space="preserve" font-family="HelveticaNeue,Helvetica Neue" font-size="40.0" fill="#FEFFFE" transform="matrix(1.00, 0.00, -0.00, -1.00, 1160.2, 477.1)"> </text><text xml:space="preserve" font-family="HelveticaNeue,Helvetica Neue" font-size="40.0" fill="#FEFFFE" transform="matrix(1.00, 0.00, -0.00, -1.00, 1171.4, 477.1)">t</text><text xml:space="preserve" font-family="HelveticaNeue,Helvetica Neue" font-size="40.0" fill="#FEFFFE" transform="matrix(1.00, 0.00, -0.00, -1.00, 1184.0, 477.1)">o</text><text xml:space="preserve" font-family="HelveticaNeue,Helvetica Neue" font-size="40.0" fill="#FEFFFE" transform="matrix(1.00, 0.00, -0.00, -1.00, 1206.9, 477.1)">g</text><text xml:space="preserve" font-family="HelveticaNeue,Helvetica Neue" font-size="40.0" fill="#FEFFFE" transform="matrix(1.00, 0.00, -0.00, -1.00, 1229.9, 477.1)">e</text><text xml:space="preserve" font-family="HelveticaNeue,Helvetica Neue" font-size="40.0" fill="#FEFFFE" transform="matrix(1.00, 0.00, -0.00, -1.00, 1251.4, 477.1)">t</text><text xml:space="preserve" font-family="HelveticaNeue,Helvetica Neue" font-size="40.0" fill="#FEFFFE" transform="matrix(1.00, 0.00, -0.00, -1.00, 1264.0, 477.1)">h</text><text xml:space="preserve" font-family="HelveticaNeue,Helvetica Neue" font-size="40.0" fill="#FEFFFE" transform="matrix(1.00, 0.00, -0.00, -1.00, 1286.2, 477.1)">e</text><text xml:space="preserve" font-family="HelveticaNeue,Helvetica Neue" font-size="40.0" fill="#FEFFFE" transform="matrix(1.00, 0.00, -0.00, -1.00, 1307.7, 477.1)">r</text><text xml:space="preserve" font-family="HelveticaNeue,Helvetica Neue" font-size="40.0" fill="#FEFFFE" transform="matrix(1.00, 0.00, -0.00, -1.00, 1317.3, 477.1)">.</text><text xml:space="preserve" font-family="HelveticaNeue,Helvetica Neue" font-size="200.0" fill="#FEFFFE" transform="matrix(1.00, 0.00, -0.00, -1.00, 886.2, 813.6)">3</text></g></svg>