<?xml version="1.0" encoding="UTF-8" standalone="no"?><svg xmlns="http://www.w3.org/2000/svg" xmlns:xlink="http://www.w3.org/1999/xlink" clip-rule="evenodd" stroke-miterlimit="4.00" viewBox="0 0 1920 1080"><desc>SVG generated by Keynote</desc><defs></defs><g transform="matrix(1.00, 0.00, -0.00, -1.00, 0.0, 1080.0)"><path d="M 0.0 1080.0 L 1920.0 1080.0 L 1920.0 0.0 L 0.0 0.0 Z M 0.0 1080.0 " fill="#FEFFFF"></path><image xlink:href="../../51C28079-0992-45C8-A900-E1CBA3CC44C8/assets/548E73F19D436D41D3F5FBF8E5BDB06C.png" width="1948.00" height="444.00" transform="matrix(1.00, 0.00, -0.00, -1.00, -14.2, 814.3)" opacity="0.50"></image><path d="M -10.2 812.3 L 1930.2 812.3 L 1930.2 376.6 L -10.2 376.6 Z M -10.2 812.3 " fill="#170F0E"></path><image xlink:href="../../51C28079-0992-45C8-A900-E1CBA3CC44C8/assets/D60C4015275D662B86CE9B1B64ECDC35.png" width="960.00" height="143.00" transform="matrix(2.00, 0.00, -0.00, -2.01, 0.0, 1082.0)"></image><image xlink:href="../../51C28079-0992-45C8-A900-E1CBA3CC44C8/assets/B14E0DB2AE0AD5BE3119D0E17591DB3A.png" width="836.00" height="336.00" transform="matrix(1.00, 0.00, -0.00, -1.00, 0.0, 783.0)"></image><image xlink:href="../../51C28079-0992-45C8-A900-E1CBA3CC44C8/assets/811DDD6ACC470728F73AF033F6D78A3E.png" width="868.00" height="404.00" transform="matrix(1.00, 0.00, -0.00, -1.00, 858.0, 783.0)"></image><image xlink:href="../../51C28079-0992-45C8-A900-E1CBA3CC44C8/assets/EE933339EB29EF2580537433474D60C1.png" width="960.00" height="421.00" transform="matrix(2.00, 0.00, -0.00, -2.00, 0.0, 429.0)"></image></g></svg>