<?xml version="1.0" encoding="UTF-8" standalone="no"?><svg xmlns="http://www.w3.org/2000/svg" xmlns:xlink="http://www.w3.org/1999/xlink" clip-rule="evenodd" stroke-miterlimit="4.00" viewBox="0 0 1920 1080"><desc>SVG generated by Keynote</desc><defs></defs><g transform="matrix(1.00, 0.00, -0.00, -1.00, 0.0, 1080.0)"><path d="M 0.0 1080.0 L 1920.0 1080.0 L 1920.0 0.0 L 0.0 0.0 Z M 0.0 1080.0 " fill="#FEFFFE"></path><text xml:space="preserve" font-family="HelveticaNeue-CondensedBlack" font-weight="bold" font-size="50.0" fill="#000000" transform="matrix(1.00, 0.00, -0.00, -1.00, 30.0, 987.0)">P</text><text xml:space="preserve" font-family="HelveticaNeue-CondensedBlack" font-weight="bold" font-size="50.0" fill="#000000" transform="matrix(1.00, 0.00, -0.00, -1.00, 56.9, 987.0)">a</text><text xml:space="preserve" font-family="HelveticaNeue-CondensedBlack" font-weight="bold" font-size="50.0" fill="#000000" transform="matrix(1.00, 0.00, -0.00, -1.00, 81.8, 987.0)">t</text><text xml:space="preserve" font-family="HelveticaNeue-CondensedBlack" font-weight="bold" font-size="50.0" fill="#000000" transform="matrix(1.00, 0.00, -0.00, -1.00, 97.6, 987.0)">t</text><text xml:space="preserve" font-family="HelveticaNeue-CondensedBlack" font-weight="bold" font-size="50.0" fill="#000000" transform="matrix(1.00, 0.00, -0.00, -1.00, 113.3, 987.0)">e</text><text xml:space="preserve" font-family="HelveticaNeue-CondensedBlack" font-weight="bold" font-size="50.0" fill="#000000" transform="matrix(1.00, 0.00, -0.00, -1.00, 137.4, 987.0)">r</text><text xml:space="preserve" font-family="HelveticaNeue-CondensedBlack" font-weight="bold" font-size="50.0" fill="#000000" transform="matrix(1.00, 0.00, -0.00, -1.00, 155.0, 987.0)">n</text><text xml:space="preserve" font-family="HelveticaNeue-CondensedBlack" font-weight="bold" font-size="50.0" fill="#000000" transform="matrix(1.00, 0.00, -0.00, -1.00, 181.0, 987.0)">s</text><text xml:space="preserve" font-family="HelveticaNeue-CondensedBlack" font-weight="bold" font-size="50.0" fill="#000000" transform="matrix(1.00, 0.00, -0.00, -1.00, 204.2, 987.0)"> </text><text xml:space="preserve" font-family="HelveticaNeue-CondensedBlack" font-weight="bold" font-size="50.0" fill="#000000" transform="matrix(1.00, 0.00, -0.00, -1.00, 217.2, 987.0)">o</text><text xml:space="preserve" font-family="HelveticaNeue-CondensedBlack" font-weight="bold" font-size="50.0" fill="#000000" transform="matrix(1.00, 0.00, -0.00, -1.00, 242.2, 987.0)">f</text><text xml:space="preserve" font-family="HelveticaNeue-CondensedBlack" font-weight="bold" font-size="50.0" fill="#000000" transform="matrix(1.00, 0.00, -0.00, -1.00, 257.9, 987.0)"> </text><text xml:space="preserve" font-family="HelveticaNeue-CondensedBlack" font-weight="bold" font-size="50.0" fill="#000000" transform="matrix(1.00, 0.00, -0.00, -1.00, 30.0, 926.0)">n</text><text xml:space="preserve" font-family="HelveticaNeue-CondensedBlack" font-weight="bold" font-size="50.0" fill="#000000" transform="matrix(1.00, 0.00, -0.00, -1.00, 56.0, 926.0)">e</text><text xml:space="preserve" font-family="HelveticaNeue-CondensedBlack" font-weight="bold" font-size="50.0" fill="#000000" transform="matrix(1.00, 0.00, -0.00, -1.00, 80.0, 926.0)">u</text><text xml:space="preserve" font-family="HelveticaNeue-CondensedBlack" font-weight="bold" font-size="50.0" fill="#000000" transform="matrix(1.00, 0.00, -0.00, -1.00, 106.0, 926.0)">r</text><text xml:space="preserve" font-family="HelveticaNeue-CondensedBlack" font-weight="bold" font-size="50.0" fill="#000000" transform="matrix(1.00, 0.00, -0.00, -1.00, 123.7, 926.0)">o</text><text xml:space="preserve" font-family="HelveticaNeue-CondensedBlack" font-weight="bold" font-size="50.0" fill="#000000" transform="matrix(1.00, 0.00, -0.00, -1.00, 148.7, 926.0)">a</text><text xml:space="preserve" font-family="HelveticaNeue-CondensedBlack" font-weight="bold" font-size="50.0" fill="#000000" transform="matrix(1.00, 0.00, -0.00, -1.00, 173.7, 926.0)">n</text><text xml:space="preserve" font-family="HelveticaNeue-CondensedBlack" font-weight="bold" font-size="50.0" fill="#000000" transform="matrix(1.00, 0.00, -0.00, -1.00, 199.7, 926.0)">a</text><text xml:space="preserve" font-family="HelveticaNeue-CondensedBlack" font-weight="bold" font-size="50.0" fill="#000000" transform="matrix(1.00, 0.00, -0.00, -1.00, 224.7, 926.0)">t</text><text xml:space="preserve" font-family="HelveticaNeue-CondensedBlack" font-weight="bold" font-size="50.0" fill="#000000" transform="matrix(1.00, 0.00, -0.00, -1.00, 240.4, 926.0)">o</text><text xml:space="preserve" font-family="HelveticaNeue-CondensedBlack" font-weight="bold" font-size="50.0" fill="#000000" transform="matrix(1.00, 0.00, -0.00, -1.00, 265.4, 926.0)">m</text><text xml:space="preserve" font-family="HelveticaNeue-CondensedBlack" font-weight="bold" font-size="50.0" fill="#000000" transform="matrix(1.00, 0.00, -0.00, -1.00, 304.3, 926.0)">i</text><text xml:space="preserve" font-family="HelveticaNeue-CondensedBlack" font-weight="bold" font-size="50.0" fill="#000000" transform="matrix(1.00, 0.00, -0.00, -1.00, 317.2, 926.0)">c</text><text xml:space="preserve" font-family="HelveticaNeue-CondensedBlack" font-weight="bold" font-size="50.0" fill="#000000" transform="matrix(1.00, 0.00, -0.00, -1.00, 341.2, 926.0)">a</text><text xml:space="preserve" font-family="HelveticaNeue-CondensedBlack" font-weight="bold" font-size="50.0" fill="#000000" transform="matrix(1.00, 0.00, -0.00, -1.00, 366.2, 926.0)">l</text><text xml:space="preserve" font-family="HelveticaNeue-CondensedBlack" font-weight="bold" font-size="50.0" fill="#000000" transform="matrix(1.00, 0.00, -0.00, -1.00, 379.1, 926.0)"> </text><text xml:space="preserve" font-family="HelveticaNeue-CondensedBlack" font-weight="bold" font-size="50.0" fill="#000000" transform="matrix(1.00, 0.00, -0.00, -1.00, 392.1, 926.0)">c</text><text xml:space="preserve" font-family="HelveticaNeue-CondensedBlack" font-weight="bold" font-size="50.0" fill="#000000" transform="matrix(1.00, 0.00, -0.00, -1.00, 416.2, 926.0)">o</text><text xml:space="preserve" font-family="HelveticaNeue-CondensedBlack" font-weight="bold" font-size="50.0" fill="#000000" transform="matrix(1.00, 0.00, -0.00, -1.00, 441.2, 926.0)">v</text><text xml:space="preserve" font-family="HelveticaNeue-CondensedBlack" font-weight="bold" font-size="50.0" fill="#000000" transform="matrix(1.00, 0.00, -0.00, -1.00, 464.3, 926.0)">a</text><text xml:space="preserve" font-family="HelveticaNeue-CondensedBlack" font-weight="bold" font-size="50.0" fill="#000000" transform="matrix(1.00, 0.00, -0.00, -1.00, 489.3, 926.0)">r</text><text xml:space="preserve" font-family="HelveticaNeue-CondensedBlack" font-weight="bold" font-size="50.0" fill="#000000" transform="matrix(1.00, 0.00, -0.00, -1.00, 506.9, 926.0)">i</text><text xml:space="preserve" font-family="HelveticaNeue-CondensedBlack" font-weight="bold" font-size="50.0" fill="#000000" transform="matrix(1.00, 0.00, -0.00, -1.00, 519.8, 926.0)">a</text><text xml:space="preserve" font-family="HelveticaNeue-CondensedBlack" font-weight="bold" font-size="50.0" fill="#000000" transform="matrix(1.00, 0.00, -0.00, -1.00, 544.8, 926.0)">n</text><text xml:space="preserve" font-family="HelveticaNeue-CondensedBlack" font-weight="bold" font-size="50.0" fill="#000000" transform="matrix(1.00, 0.00, -0.00, -1.00, 570.8, 926.0)">c</text><text xml:space="preserve" font-family="HelveticaNeue-CondensedBlack" font-weight="bold" font-size="50.0" fill="#000000" transform="matrix(1.00, 0.00, -0.00, -1.00, 594.9, 926.0)">e</text></g></svg>