<?xml version="1.0" encoding="UTF-8" standalone="no"?><svg xmlns="http://www.w3.org/2000/svg" xmlns:xlink="http://www.w3.org/1999/xlink" clip-rule="evenodd" stroke-miterlimit="10" viewBox="0 0 1920 1080"><desc>SVG generated by Keynote</desc><defs></defs><g transform="matrix(1.00, 0.00, -0.00, -1.00, 0.0, 1080.0)"><path d="M 0.0 1080.0 L 1920.0 1080.0 L 1920.0 0.0 L 0.0 0.0 Z M 0.0 1080.0 " fill="#FEFFFF"></path><g><clipPath id="clip0x6080010ac180"><path d="M 360.0 1104.0 L 1560.0 1104.0 L 1560.0 -24.0 L 360.0 -24.0 Z M 360.3 1103.5 "></path></clipPath><g clip-path="url(#clip0x6080010ac180)"><g><clipPath id="clip0x6080010ac660"><path d="M 486.0 36.0 L 1473.0 36.0 L 1473.0 1027.0 L 486.0 1027.0 Z M 486.0 36.0 "></path></clipPath><g clip-path="url(#clip0x6080010ac660)"><path d="M 543.3 998.4 C 543.3 982.5 530.4 969.7 514.6 969.7 C 498.8 969.7 486.0 982.5 486.0 998.4 C 486.0 1014.2 498.8 1027.0 514.6 1027.0 C 530.4 1027.0 543.3 1014.2 543.3 998.4 Z M 543.3 998.4 " fill="#3BA395"></path><path d="M 614.8 998.4 C 614.8 982.5 602.0 969.7 586.1 969.7 C 570.3 969.7 557.5 982.5 557.5 998.4 C 557.5 1014.2 570.3 1027.0 586.1 1027.0 C 602.0 1027.0 614.8 1014.2 614.8 998.4 Z M 614.8 998.4 " fill="#38A7A1"></path><path d="M 686.3 998.4 C 686.3 982.5 673.5 969.7 657.7 969.7 C 641.8 969.7 629.0 982.5 629.0 998.4 C 629.0 1014.2 641.8 1027.0 657.7 1027.0 C 673.5 1027.0 686.3 1014.2 686.3 998.4 Z M 686.3 998.4 " fill="#33A5A3"></path><path d="M 757.8 998.4 C 757.8 982.5 745.0 969.7 729.2 969.7 C 713.4 969.7 700.6 982.5 700.6 998.4 C 700.6 1014.2 713.4 1027.0 729.2 1027.0 C 745.0 1027.0 757.8 1014.2 757.8 998.4 Z M 757.8 998.4 " fill="#79B16E"></path><path d="M 829.3 998.4 C 829.3 982.5 816.5 969.7 800.7 969.7 C 784.9 969.7 772.1 982.5 772.1 998.4 C 772.1 1014.2 784.9 1027.0 800.7 1027.0 C 816.5 1027.0 829.3 1014.2 829.3 998.4 Z M 829.3 998.4 " fill="#E4D438"></path><path d="M 900.8 998.4 C 900.8 982.5 888.0 969.7 872.2 969.7 C 856.4 969.7 843.6 982.5 843.6 998.4 C 843.6 1014.2 856.4 1027.0 872.2 1027.0 C 888.0 1027.0 900.8 1014.2 900.8 998.4 Z M 900.8 998.4 " fill="#DABD2D"></path><path d="M 972.4 998.4 C 972.4 982.5 959.5 969.7 943.7 969.7 C 927.9 969.7 915.1 982.5 915.1 998.4 C 915.1 1014.2 927.9 1027.0 943.7 1027.0 C 959.5 1027.0 972.4 1014.2 972.4 998.4 Z M 972.4 998.4 " fill="#D1AF2A"></path><path d="M 1043.9 998.4 C 1043.9 982.5 1031.1 969.7 1015.3 969.7 C 999.5 969.7 986.6 982.5 986.6 998.4 C 986.6 1014.2 999.5 1027.0 1015.3 1027.0 C 1031.1 1027.0 1043.9 1014.2 1043.9 998.4 Z M 1043.9 998.4 " fill="#E8BC26"></path><path d="M 1115.4 998.4 C 1115.4 982.5 1102.6 969.7 1086.8 969.7 C 1071.0 969.7 1058.2 982.5 1058.2 998.4 C 1058.2 1014.2 1071.0 1027.0 1086.8 1027.0 C 1102.6 1027.0 1115.4 1014.2 1115.4 998.4 Z M 1115.4 998.4 " fill="#B6B63F"></path><path d="M 1186.9 998.4 C 1186.9 982.5 1174.1 969.7 1158.3 969.7 C 1142.5 969.7 1129.7 982.5 1129.7 998.4 C 1129.7 1014.2 1142.5 1027.0 1158.3 1027.0 C 1174.1 1027.0 1186.9 1014.2 1186.9 998.4 Z M 1186.9 998.4 " fill="#3D9E7E"></path><path d="M 1258.5 998.4 C 1258.5 982.5 1245.6 969.7 1229.8 969.7 C 1214.0 969.7 1201.2 982.5 1201.2 998.4 C 1201.2 1014.2 1214.0 1027.0 1229.8 1027.0 C 1245.6 1027.0 1258.5 1014.2 1258.5 998.4 Z M 1258.5 998.4 " fill="#219E91"></path><path d="M 1330.0 998.4 C 1330.0 982.5 1317.1 969.7 1301.3 969.7 C 1285.5 969.7 1272.7 982.5 1272.7 998.4 C 1272.7 1014.2 1285.5 1027.0 1301.3 1027.0 C 1317.1 1027.0 1330.0 1014.2 1330.0 998.4 Z M 1330.0 998.4 " fill="#2AA08E"></path><path d="M 1401.5 998.4 C 1401.5 982.5 1388.7 969.7 1372.9 969.7 C 1357.0 969.7 1344.2 982.5 1344.2 998.4 C 1344.2 1014.2 1357.0 1027.0 1372.9 1027.0 C 1388.7 1027.0 1401.5 1014.2 1401.5 998.4 Z M 1401.5 998.4 " fill="#269C87"></path><path d="M 1473.0 998.4 C 1473.0 982.5 1460.2 969.7 1444.4 969.7 C 1428.6 969.7 1415.7 982.5 1415.7 998.4 C 1415.7 1014.2 1428.6 1027.0 1444.4 1027.0 C 1460.2 1027.0 1473.0 1014.2 1473.0 998.4 Z M 1473.0 998.4 " fill="#1D9785"></path><path d="M 543.3 926.5 C 543.3 910.7 530.4 897.9 514.6 897.9 C 498.8 897.9 486.0 910.7 486.0 926.5 C 486.0 942.4 498.8 955.2 514.6 955.2 C 530.4 955.2 543.3 942.4 543.3 926.5 Z M 543.3 926.5 " fill="#3DA7A0"></path><path d="M 614.8 926.5 C 614.8 910.7 602.0 897.9 586.1 897.9 C 570.3 897.9 557.5 910.7 557.5 926.5 C 557.5 942.4 570.3 955.2 586.1 955.2 C 602.0 955.2 614.8 942.4 614.8 926.5 Z M 614.8 926.5 " fill="#4BAA99"></path><path d="M 686.3 926.5 C 686.3 910.7 673.5 897.9 657.7 897.9 C 641.8 897.9 629.0 910.7 629.0 926.5 C 629.0 942.4 641.8 955.2 657.7 955.2 C 673.5 955.2 686.3 942.4 686.3 926.5 Z M 686.3 926.5 " fill="#AAC660"></path><path d="M 757.8 926.5 C 757.8 910.7 745.0 897.9 729.2 897.9 C 713.4 897.9 700.6 910.7 700.6 926.5 C 700.6 942.4 713.4 955.2 729.2 955.2 C 745.0 955.2 757.8 942.4 757.8 926.5 Z M 757.8 926.5 " fill="#EFD828"></path><path d="M 829.3 926.5 C 829.3 910.7 816.5 897.9 800.7 897.9 C 784.9 897.9 772.1 910.7 772.1 926.5 C 772.1 942.4 784.9 955.2 800.7 955.2 C 816.5 955.2 829.3 942.4 829.3 926.5 Z M 829.3 926.5 " fill="#DAB315"></path><path d="M 900.8 926.5 C 900.8 910.7 888.0 897.9 872.2 897.9 C 856.4 897.9 843.6 910.7 843.6 926.5 C 843.6 942.4 856.4 955.2 872.2 955.2 C 888.0 955.2 900.8 942.4 900.8 926.5 Z M 900.8 926.5 " fill="#E8BC1D"></path><path d="M 972.4 926.5 C 972.4 910.7 959.5 897.9 943.7 897.9 C 927.9 897.9 915.1 910.7 915.1 926.5 C 915.1 942.4 927.9 955.2 943.7 955.2 C 959.5 955.2 972.4 942.4 972.4 926.5 Z M 972.4 926.5 " fill="#AE891C"></path><path d="M 1043.9 926.5 C 1043.9 910.7 1031.1 897.9 1015.3 897.9 C 999.5 897.9 986.6 910.7 986.6 926.5 C 986.6 942.4 999.5 955.2 1015.3 955.2 C 1031.1 955.2 1043.9 942.4 1043.9 926.5 Z M 1043.9 926.5 " fill="#E8BA21"></path><path d="M 1115.4 926.5 C 1115.4 910.7 1102.6 897.9 1086.8 897.9 C 1071.0 897.9 1058.2 910.7 1058.2 926.5 C 1058.2 942.4 1071.0 955.2 1086.8 955.2 C 1102.6 955.2 1115.4 942.4 1115.4 926.5 Z M 1115.4 926.5 " fill="#F2CD28"></path><path d="M 1186.9 926.5 C 1186.9 910.7 1174.1 897.9 1158.3 897.9 C 1142.5 897.9 1129.7 910.7 1129.7 926.5 C 1129.7 942.4 1142.5 955.2 1158.3 955.2 C 1174.1 955.2 1186.9 942.4 1186.9 926.5 Z M 1186.9 926.5 " fill="#BFC141"></path><path d="M 1258.5 926.5 C 1258.5 910.7 1245.6 897.9 1229.8 897.9 C 1214.0 897.9 1201.2 910.7 1201.2 926.5 C 1201.2 942.4 1214.0 955.2 1229.8 955.2 C 1245.6 955.2 1258.5 942.4 1258.5 926.5 Z M 1258.5 926.5 " fill="#44A37E"></path><path d="M 1330.0 926.5 C 1330.0 910.7 1317.1 897.9 1301.3 897.9 C 1285.5 897.9 1272.7 910.7 1272.7 926.5 C 1272.7 942.4 1285.5 955.2 1301.3 955.2 C 1317.1 955.2 1330.0 942.4 1330.0 926.5 Z M 1330.0 926.5 " fill="#3BA58C"></path><path d="M 1401.5 926.5 C 1401.5 910.7 1388.7 897.9 1372.9 897.9 C 1357.0 897.9 1344.2 910.7 1344.2 926.5 C 1344.2 942.4 1357.0 955.2 1372.9 955.2 C 1388.7 955.2 1401.5 942.4 1401.5 926.5 Z M 1401.5 926.5 " fill="#2BA397"></path><path d="M 1473.0 926.5 C 1473.0 910.7 1460.2 897.9 1444.4 897.9 C 1428.6 897.9 1415.7 910.7 1415.7 926.5 C 1415.7 942.4 1428.6 955.2 1444.4 955.2 C 1460.2 955.2 1473.0 942.4 1473.0 926.5 Z M 1473.0 926.5 " fill="#28A190"></path><path d="M 543.3 854.7 C 543.3 838.9 530.4 826.1 514.6 826.1 C 498.8 826.1 486.0 838.9 486.0 854.7 C 486.0 870.5 498.8 883.3 514.6 883.3 C 530.4 883.3 543.3 870.5 543.3 854.7 Z M 543.3 854.7 " fill="#3DA7AA"></path><path d="M 614.8 854.7 C 614.8 838.9 602.0 826.1 586.1 826.1 C 570.3 826.1 557.5 838.9 557.5 854.7 C 557.5 870.5 570.3 883.3 586.1 883.3 C 602.0 883.3 614.8 870.5 614.8 854.7 Z M 614.8 854.7 " fill="#579567"></path><path d="M 686.3 854.7 C 686.3 838.9 673.5 826.1 657.7 826.1 C 641.8 826.1 629.0 838.9 629.0 854.7 C 629.0 870.5 641.8 883.3 657.7 883.3 C 673.5 883.3 686.3 870.5 686.3 854.7 Z M 686.3 854.7 " fill="#EFD82A"></path><path d="M 757.8 854.7 C 757.8 838.9 745.0 826.1 729.2 826.1 C 713.4 826.1 700.6 838.9 700.6 854.7 C 700.6 870.5 713.4 883.3 729.2 883.3 C 745.0 883.3 757.8 870.5 757.8 854.7 Z M 757.8 854.7 " fill="#B69E1D"></path><path d="M 829.3 854.7 C 829.3 838.9 816.5 826.1 800.7 826.1 C 784.9 826.1 772.1 838.9 772.1 854.7 C 772.1 870.5 784.9 883.3 800.7 883.3 C 816.5 883.3 829.3 870.5 829.3 854.7 Z M 829.3 854.7 " fill="#937B1F"></path><path d="M 900.8 854.7 C 900.8 838.9 888.0 826.1 872.2 826.1 C 856.4 826.1 843.6 838.9 843.6 854.7 C 843.6 870.5 856.4 883.3 872.2 883.3 C 888.0 883.3 900.8 870.5 900.8 854.7 Z M 900.8 854.7 " fill="#EDCA28"></path><path d="M 972.4 854.7 C 972.4 838.9 959.5 826.1 943.7 826.1 C 927.9 826.1 915.1 838.9 915.1 854.7 C 915.1 870.5 927.9 883.3 943.7 883.3 C 959.5 883.3 972.4 870.5 972.4 854.7 Z M 972.4 854.7 " fill="#EBC818"></path><path d="M 1043.9 854.7 C 1043.9 838.9 1031.1 826.1 1015.3 826.1 C 999.5 826.1 986.6 838.9 986.6 854.7 C 986.6 870.5 999.5 883.3 1015.3 883.3 C 1031.1 883.3 1043.9 870.5 1043.9 854.7 Z M 1043.9 854.7 " fill="#EBC321"></path><path d="M 1115.4 854.7 C 1115.4 838.9 1102.6 826.1 1086.8 826.1 C 1071.0 826.1 1058.2 838.9 1058.2 854.7 C 1058.2 870.5 1071.0 883.3 1086.8 883.3 C 1102.6 883.3 1115.4 870.5 1115.4 854.7 Z M 1115.4 854.7 " fill="#E6C11A"></path><path d="M 1186.9 854.7 C 1186.9 838.9 1174.1 826.1 1158.3 826.1 C 1142.5 826.1 1129.7 838.9 1129.7 854.7 C 1129.7 870.5 1142.5 883.3 1158.3 883.3 C 1174.1 883.3 1186.9 870.5 1186.9 854.7 Z M 1186.9 854.7 " fill="#F0D128"></path><path d="M 1258.5 854.7 C 1258.5 838.9 1245.6 826.1 1229.8 826.1 C 1214.0 826.1 1201.2 838.9 1201.2 854.7 C 1201.2 870.5 1214.0 883.3 1229.8 883.3 C 1245.6 883.3 1258.5 870.5 1258.5 854.7 Z M 1258.5 854.7 " fill="#EFC62B"></path><path d="M 1330.0 854.7 C 1330.0 838.9 1317.1 826.1 1301.3 826.1 C 1285.5 826.1 1272.7 838.9 1272.7 854.7 C 1272.7 870.5 1285.5 883.3 1301.3 883.3 C 1317.1 883.3 1330.0 870.5 1330.0 854.7 Z M 1330.0 854.7 " fill="#DBBF26"></path><path d="M 1401.5 854.7 C 1401.5 838.9 1388.7 826.1 1372.9 826.1 C 1357.0 826.1 1344.2 838.9 1344.2 854.7 C 1344.2 870.5 1357.0 883.3 1372.9 883.3 C 1388.7 883.3 1401.5 870.5 1401.5 854.7 Z M 1401.5 854.7 " fill="#49A782"></path><path d="M 1473.0 854.7 C 1473.0 838.9 1460.2 826.1 1444.4 826.1 C 1428.6 826.1 1415.7 838.9 1415.7 854.7 C 1415.7 870.5 1428.6 883.3 1444.4 883.3 C 1460.2 883.3 1473.0 870.5 1473.0 854.7 Z M 1473.0 854.7 " fill="#28A197"></path><path d="M 543.3 782.9 C 543.3 767.1 530.4 754.2 514.6 754.2 C 498.8 754.2 486.0 767.1 486.0 782.9 C 486.0 798.7 498.8 811.5 514.6 811.5 C 530.4 811.5 543.3 798.7 543.3 782.9 Z M 543.3 782.9 " fill="#3FAAAE"></path><path d="M 614.8 782.9 C 614.8 767.1 602.0 754.2 586.1 754.2 C 570.3 754.2 557.5 767.1 557.5 782.9 C 557.5 798.7 570.3 811.5 586.1 811.5 C 602.0 811.5 614.8 798.7 614.8 782.9 Z M 614.8 782.9 " fill="#5B955D"></path><path d="M 686.3 782.9 C 686.3 767.1 673.5 754.2 657.7 754.2 C 641.8 754.2 629.0 767.1 629.0 782.9 C 629.0 798.7 641.8 811.5 657.7 811.5 C 673.5 811.5 686.3 798.7 686.3 782.9 Z M 686.3 782.9 " fill="#EBCD1F"></path><path d="M 757.8 782.9 C 757.8 767.1 745.0 754.2 729.2 754.2 C 713.4 754.2 700.6 767.1 700.6 782.9 C 700.6 798.7 713.4 811.5 729.2 811.5 C 745.0 811.5 757.8 798.7 757.8 782.9 Z M 757.8 782.9 " fill="#C1A344"></path><path d="M 829.3 782.9 C 829.3 767.1 816.5 754.2 800.7 754.2 C 784.9 754.2 772.1 767.1 772.1 782.9 C 772.1 798.7 784.9 811.5 800.7 811.5 C 816.5 811.5 829.3 798.7 829.3 782.9 Z M 829.3 782.9 " fill="#DFA779"></path><path d="M 900.8 782.9 C 900.8 767.1 888.0 754.2 872.2 754.2 C 856.4 754.2 843.6 767.1 843.6 782.9 C 843.6 798.7 856.4 811.5 872.2 811.5 C 888.0 811.5 900.8 798.7 900.8 782.9 Z M 900.8 782.9 " fill="#EBC349"></path><path d="M 972.4 782.9 C 972.4 767.1 959.5 754.2 943.7 754.2 C 927.9 754.2 915.1 767.1 915.1 782.9 C 915.1 798.7 927.9 811.5 943.7 811.5 C 959.5 811.5 972.4 798.7 972.4 782.9 Z M 972.4 782.9 " fill="#E8B864"></path><path d="M 1043.9 782.9 C 1043.9 767.1 1031.1 754.2 1015.3 754.2 C 999.5 754.2 986.6 767.1 986.6 782.9 C 986.6 798.7 999.5 811.5 1015.3 811.5 C 1031.1 811.5 1043.9 798.7 1043.9 782.9 Z M 1043.9 782.9 " fill="#E2A77C"></path><path d="M 1115.4 782.9 C 1115.4 767.1 1102.6 754.2 1086.8 754.2 C 1071.0 754.2 1058.2 767.1 1058.2 782.9 C 1058.2 798.7 1071.0 811.5 1086.8 811.5 C 1102.6 811.5 1115.4 798.7 1115.4 782.9 Z M 1115.4 782.9 " fill="#DA9C69"></path><path d="M 1186.9 782.9 C 1186.9 767.1 1174.1 754.2 1158.3 754.2 C 1142.5 754.2 1129.7 767.1 1129.7 782.9 C 1129.7 798.7 1142.5 811.5 1158.3 811.5 C 1174.1 811.5 1186.9 798.7 1186.9 782.9 Z M 1186.9 782.9 " fill="#EBC136"></path><path d="M 1258.5 782.9 C 1258.5 767.1 1245.6 754.2 1229.8 754.2 C 1214.0 754.2 1201.2 767.1 1201.2 782.9 C 1201.2 798.7 1214.0 811.5 1229.8 811.5 C 1245.6 811.5 1258.5 798.7 1258.5 782.9 Z M 1258.5 782.9 " fill="#EDC128"></path><path d="M 1330.0 782.9 C 1330.0 767.1 1317.1 754.2 1301.3 754.2 C 1285.5 754.2 1272.7 767.1 1272.7 782.9 C 1272.7 798.7 1285.5 811.5 1301.3 811.5 C 1317.1 811.5 1330.0 798.7 1330.0 782.9 Z M 1330.0 782.9 " fill="#E8B631"></path><path d="M 1401.5 782.9 C 1401.5 767.1 1388.7 754.2 1372.9 754.2 C 1357.0 754.2 1344.2 767.1 1344.2 782.9 C 1344.2 798.7 1357.0 811.5 1372.9 811.5 C 1388.7 811.5 1401.5 798.7 1401.5 782.9 Z M 1401.5 782.9 " fill="#80A850"></path><path d="M 1473.0 782.9 C 1473.0 767.1 1460.2 754.2 1444.4 754.2 C 1428.6 754.2 1415.7 767.1 1415.7 782.9 C 1415.7 798.7 1428.6 811.5 1444.4 811.5 C 1460.2 811.5 1473.0 798.7 1473.0 782.9 Z M 1473.0 782.9 " fill="#28A3A0"></path><path d="M 543.3 711.1 C 543.3 695.2 530.4 682.4 514.6 682.4 C 498.8 682.4 486.0 695.2 486.0 711.1 C 486.0 726.9 498.8 739.7 514.6 739.7 C 530.4 739.7 543.3 726.9 543.3 711.1 Z M 543.3 711.1 " fill="#3FAAAE"></path><path d="M 614.8 711.1 C 614.8 695.2 602.0 682.4 586.1 682.4 C 570.3 682.4 557.5 695.2 557.5 711.1 C 557.5 726.9 570.3 739.7 586.1 739.7 C 602.0 739.7 614.8 726.9 614.8 711.1 Z M 614.8 711.1 " fill="#489374"></path><path d="M 686.3 711.1 C 686.3 695.2 673.5 682.4 657.7 682.4 C 641.8 682.4 629.0 695.2 629.0 711.1 C 629.0 726.9 641.8 739.7 657.7 739.7 C 673.5 739.7 686.3 726.9 686.3 711.1 Z M 686.3 711.1 " fill="#85721F"></path><path d="M 757.8 711.1 C 757.8 695.2 745.0 682.4 729.2 682.4 C 713.4 682.4 700.6 695.2 700.6 711.1 C 700.6 726.9 713.4 739.7 729.2 739.7 C 745.0 739.7 757.8 726.9 757.8 711.1 Z M 757.8 711.1 " fill="#C69E59"></path><path d="M 829.3 711.1 C 829.3 695.2 816.5 682.4 800.7 682.4 C 784.9 682.4 772.1 695.2 772.1 711.1 C 772.1 726.9 784.9 739.7 800.7 739.7 C 816.5 739.7 829.3 726.9 829.3 711.1 Z M 829.3 711.1 " fill="#E2AAC4"></path><path d="M 900.8 711.1 C 900.8 695.2 888.0 682.4 872.2 682.4 C 856.4 682.4 843.6 695.2 843.6 711.1 C 843.6 726.9 856.4 739.7 872.2 739.7 C 888.0 739.7 900.8 726.9 900.8 711.1 Z M 900.8 711.1 " fill="#DFA3AF"></path><path d="M 972.4 711.1 C 972.4 695.2 959.5 682.4 943.7 682.4 C 927.9 682.4 915.1 695.2 915.1 711.1 C 915.1 726.9 927.9 739.7 943.7 739.7 C 959.5 739.7 972.4 726.9 972.4 711.1 Z M 972.4 711.1 " fill="#DFA0B5"></path><path d="M 1043.9 711.1 C 1043.9 695.2 1031.1 682.4 1015.3 682.4 C 999.5 682.4 986.6 695.2 986.6 711.1 C 986.6 726.9 999.5 739.7 1015.3 739.7 C 1031.1 739.7 1043.9 726.9 1043.9 711.1 Z M 1043.9 711.1 " fill="#DF9EB1"></path><path d="M 1115.4 711.1 C 1115.4 695.2 1102.6 682.4 1086.8 682.4 C 1071.0 682.4 1058.2 695.2 1058.2 711.1 C 1058.2 726.9 1071.0 739.7 1086.8 739.7 C 1102.6 739.7 1115.4 726.9 1115.4 711.1 Z M 1115.4 711.1 " fill="#DD9AB3"></path><path d="M 1186.9 711.1 C 1186.9 695.2 1174.1 682.4 1158.3 682.4 C 1142.5 682.4 1129.7 695.2 1129.7 711.1 C 1129.7 726.9 1142.5 739.7 1158.3 739.7 C 1174.1 739.7 1186.9 726.9 1186.9 711.1 Z M 1186.9 711.1 " fill="#DDA15B"></path><path d="M 1258.5 711.1 C 1258.5 695.2 1245.6 682.4 1229.8 682.4 C 1214.0 682.4 1201.2 695.2 1201.2 711.1 C 1201.2 726.9 1214.0 739.7 1229.8 739.7 C 1245.6 739.7 1258.5 726.9 1258.5 711.1 Z M 1258.5 711.1 " fill="#C69E14"></path><path d="M 1330.0 711.1 C 1330.0 695.2 1317.1 682.4 1301.3 682.4 C 1285.5 682.4 1272.7 695.2 1272.7 711.1 C 1272.7 726.9 1285.5 739.7 1301.3 739.7 C 1317.1 739.7 1330.0 726.9 1330.0 711.1 Z M 1330.0 711.1 " fill="#D8A514"></path><path d="M 1401.5 711.1 C 1401.5 695.2 1388.7 682.4 1372.9 682.4 C 1357.0 682.4 1344.2 695.2 1344.2 711.1 C 1344.2 726.9 1357.0 739.7 1372.9 739.7 C 1388.7 739.7 1401.5 726.9 1401.5 711.1 Z M 1401.5 711.1 " fill="#386642"></path><path d="M 1473.0 711.1 C 1473.0 695.2 1460.2 682.4 1444.4 682.4 C 1428.6 682.4 1415.7 695.2 1415.7 711.1 C 1415.7 726.9 1428.6 739.7 1444.4 739.7 C 1460.2 739.7 1473.0 726.9 1473.0 711.1 Z M 1473.0 711.1 " fill="#34A7A3"></path><path d="M 543.3 639.2 C 543.3 623.4 530.4 610.6 514.6 610.6 C 498.8 610.6 486.0 623.4 486.0 639.2 C 486.0 655.0 498.8 667.9 514.6 667.9 C 530.4 667.9 543.3 655.0 543.3 639.2 Z M 543.3 639.2 " fill="#46ACAC"></path><path d="M 614.8 639.2 C 614.8 623.4 602.0 610.6 586.1 610.6 C 570.3 610.6 557.5 623.4 557.5 639.2 C 557.5 655.0 570.3 667.9 586.1 667.9 C 602.0 667.9 614.8 655.0 614.8 639.2 Z M 614.8 639.2 " fill="#9EAC48"></path><path d="M 686.3 639.2 C 686.3 623.4 673.5 610.6 657.7 610.6 C 641.8 610.6 629.0 623.4 629.0 639.2 C 629.0 655.0 641.8 667.9 657.7 667.9 C 673.5 667.9 686.3 655.0 686.3 639.2 Z M 686.3 639.2 " fill="#604D1D"></path><path d="M 757.8 639.2 C 757.8 623.4 745.0 610.6 729.2 610.6 C 713.4 610.6 700.6 623.4 700.6 639.2 C 700.6 655.0 713.4 667.9 729.2 667.9 C 745.0 667.9 757.8 655.0 757.8 639.2 Z M 757.8 639.2 " fill="#A3797C"></path><path d="M 829.3 639.2 C 829.3 623.4 816.5 610.6 800.7 610.6 C 784.9 610.6 772.1 623.4 772.1 639.2 C 772.1 655.0 784.9 667.9 800.7 667.9 C 816.5 667.9 829.3 655.0 829.3 639.2 Z M 829.3 639.2 " fill="#E2A5B3"></path><path d="M 900.8 639.2 C 900.8 623.4 888.0 610.6 872.2 610.6 C 856.4 610.6 843.6 623.4 843.6 639.2 C 843.6 655.0 856.4 667.9 872.2 667.9 C 888.0 667.9 900.8 655.0 900.8 639.2 Z M 900.8 639.2 " fill="#E1A5B3"></path><path d="M 972.4 639.2 C 972.4 623.4 959.5 610.6 943.7 610.6 C 927.9 610.6 915.1 623.4 915.1 639.2 C 915.1 655.0 927.9 667.9 943.7 667.9 C 959.5 667.9 972.4 655.0 972.4 639.2 Z M 972.4 639.2 " fill="#DD9AA5"></path><path d="M 1043.9 639.2 C 1043.9 623.4 1031.1 610.6 1015.3 610.6 C 999.5 610.6 986.6 623.4 986.6 639.2 C 986.6 655.0 999.5 667.9 1015.3 667.9 C 1031.1 667.9 1043.9 655.0 1043.9 639.2 Z M 1043.9 639.2 " fill="#D68A90"></path><path d="M 1115.4 639.2 C 1115.4 623.4 1102.6 610.6 1086.8 610.6 C 1071.0 610.6 1058.2 623.4 1058.2 639.2 C 1058.2 655.0 1071.0 667.9 1086.8 667.9 C 1102.6 667.9 1115.4 655.0 1115.4 639.2 Z M 1115.4 639.2 " fill="#D8909A"></path><path d="M 1186.9 639.2 C 1186.9 623.4 1174.1 610.6 1158.3 610.6 C 1142.5 610.6 1129.7 623.4 1129.7 639.2 C 1129.7 655.0 1142.5 667.9 1158.3 667.9 C 1174.1 667.9 1186.9 655.0 1186.9 639.2 Z M 1186.9 639.2 " fill="#D49C54"></path><path d="M 1258.5 639.2 C 1258.5 623.4 1245.6 610.6 1229.8 610.6 C 1214.0 610.6 1201.2 623.4 1201.2 639.2 C 1201.2 655.0 1214.0 667.9 1229.8 667.9 C 1245.6 667.9 1258.5 655.0 1258.5 639.2 Z M 1258.5 639.2 " fill="#C39E1A"></path><path d="M 1330.0 639.2 C 1330.0 623.4 1317.1 610.6 1301.3 610.6 C 1285.5 610.6 1272.7 623.4 1272.7 639.2 C 1272.7 655.0 1285.5 667.9 1301.3 667.9 C 1317.1 667.9 1330.0 655.0 1330.0 639.2 Z M 1330.0 639.2 " fill="#C69A15"></path><path d="M 1401.5 639.2 C 1401.5 623.4 1388.7 610.6 1372.9 610.6 C 1357.0 610.6 1344.2 623.4 1344.2 639.2 C 1344.2 655.0 1357.0 667.9 1372.9 667.9 C 1388.7 667.9 1401.5 655.0 1401.5 639.2 Z M 1401.5 639.2 " fill="#56723D"></path><path d="M 1473.0 639.2 C 1473.0 623.4 1460.2 610.6 1444.4 610.6 C 1428.6 610.6 1415.7 623.4 1415.7 639.2 C 1415.7 655.0 1428.6 667.9 1444.4 667.9 C 1460.2 667.9 1473.0 655.0 1473.0 639.2 Z M 1473.0 639.2 " fill="#34A8A3"></path><path d="M 543.3 567.4 C 543.3 551.6 530.4 538.8 514.6 538.8 C 498.8 538.8 486.0 551.6 486.0 567.4 C 486.0 583.2 498.8 596.1 514.6 596.1 C 530.4 596.1 543.3 583.2 543.3 567.4 Z M 543.3 567.4 " fill="#4BAAA5"></path><path d="M 614.8 567.4 C 614.8 551.6 602.0 538.8 586.1 538.8 C 570.3 538.8 557.5 551.6 557.5 567.4 C 557.5 583.2 570.3 596.1 586.1 596.1 C 602.0 596.1 614.8 583.2 614.8 567.4 Z M 614.8 567.4 " fill="#97932F"></path><path d="M 686.3 567.4 C 686.3 551.6 673.5 538.8 657.7 538.8 C 641.8 538.8 629.0 551.6 629.0 567.4 C 629.0 583.2 641.8 596.1 657.7 596.1 C 673.5 596.1 686.3 583.2 686.3 567.4 Z M 686.3 567.4 " fill="#4D381F"></path><path d="M 757.8 567.4 C 757.8 551.6 745.0 538.8 729.2 538.8 C 713.4 538.8 700.6 551.6 700.6 567.4 C 700.6 583.2 713.4 596.1 729.2 596.1 C 745.0 596.1 757.8 583.2 757.8 567.4 Z M 757.8 567.4 " fill="#907B8C"></path><path d="M 829.3 567.4 C 829.3 551.6 816.5 538.8 800.7 538.8 C 784.9 538.8 772.1 551.6 772.1 567.4 C 772.1 583.2 784.9 596.1 800.7 596.1 C 816.5 596.1 829.3 583.2 829.3 567.4 Z M 829.3 567.4 " fill="#9A8991"></path><path d="M 900.8 567.4 C 900.8 551.6 888.0 538.8 872.2 538.8 C 856.4 538.8 843.6 551.6 843.6 567.4 C 843.6 583.2 856.4 596.1 872.2 596.1 C 888.0 596.1 900.8 583.2 900.8 567.4 Z M 900.8 567.4 " fill="#DD9EAE"></path><path d="M 972.4 567.4 C 972.4 551.6 959.5 538.8 943.7 538.8 C 927.9 538.8 915.1 551.6 915.1 567.4 C 915.1 583.2 927.9 596.1 943.7 596.1 C 959.5 596.1 972.4 583.2 972.4 567.4 Z M 972.4 567.4 " fill="#C19097"></path><path d="M 1043.9 567.4 C 1043.9 551.6 1031.1 538.8 1015.3 538.8 C 999.5 538.8 986.6 551.6 986.6 567.4 C 986.6 583.2 999.5 596.1 1015.3 596.1 C 1031.1 596.1 1043.9 583.2 1043.9 567.4 Z M 1043.9 567.4 " fill="#93878E"></path><path d="M 1115.4 567.4 C 1115.4 551.6 1102.6 538.8 1086.8 538.8 C 1071.0 538.8 1058.2 551.6 1058.2 567.4 C 1058.2 583.2 1071.0 596.1 1086.8 596.1 C 1102.6 596.1 1115.4 583.2 1115.4 567.4 Z M 1115.4 567.4 " fill="#876469"></path><path d="M 1186.9 567.4 C 1186.9 551.6 1174.1 538.8 1158.3 538.8 C 1142.5 538.8 1129.7 551.6 1129.7 567.4 C 1129.7 583.2 1142.5 596.1 1158.3 596.1 C 1174.1 596.1 1186.9 583.2 1186.9 567.4 Z M 1186.9 567.4 " fill="#8E6B36"></path><path d="M 1258.5 567.4 C 1258.5 551.6 1245.6 538.8 1229.8 538.8 C 1214.0 538.8 1201.2 551.6 1201.2 567.4 C 1201.2 583.2 1214.0 596.1 1229.8 596.1 C 1245.6 596.1 1258.5 583.2 1258.5 567.4 Z M 1258.5 567.4 " fill="#AA871C"></path><path d="M 1330.0 567.4 C 1330.0 551.6 1317.1 538.8 1301.3 538.8 C 1285.5 538.8 1272.7 551.6 1272.7 567.4 C 1272.7 583.2 1285.5 596.1 1301.3 596.1 C 1317.1 596.1 1330.0 583.2 1330.0 567.4 Z M 1330.0 567.4 " fill="#99791D"></path><path d="M 1401.5 567.4 C 1401.5 551.6 1388.7 538.8 1372.9 538.8 C 1357.0 538.8 1344.2 551.6 1344.2 567.4 C 1344.2 583.2 1357.0 596.1 1372.9 596.1 C 1388.7 596.1 1401.5 583.2 1401.5 567.4 Z M 1401.5 567.4 " fill="#576D2F"></path><path d="M 1473.0 567.4 C 1473.0 551.6 1460.2 538.8 1444.4 538.8 C 1428.6 538.8 1415.7 551.6 1415.7 567.4 C 1415.7 583.2 1428.6 596.1 1444.4 596.1 C 1460.2 596.1 1473.0 583.2 1473.0 567.4 Z M 1473.0 567.4 " fill="#2FA7A1"></path><path d="M 543.3 495.6 C 543.3 479.8 530.4 466.9 514.6 466.9 C 498.8 466.9 486.0 479.8 486.0 495.6 C 486.0 511.4 498.8 524.2 514.6 524.2 C 530.4 524.2 543.3 511.4 543.3 495.6 Z M 543.3 495.6 " fill="#3DA5A5"></path><path d="M 614.8 495.6 C 614.8 479.8 602.0 466.9 586.1 466.9 C 570.3 466.9 557.5 479.8 557.5 495.6 C 557.5 511.4 570.3 524.2 586.1 524.2 C 602.0 524.2 614.8 511.4 614.8 495.6 Z M 614.8 495.6 " fill="#698542"></path><path d="M 686.3 495.6 C 686.3 479.8 673.5 466.9 657.7 466.9 C 641.8 466.9 629.0 479.8 629.0 495.6 C 629.0 511.4 641.8 524.2 657.7 524.2 C 673.5 524.2 686.3 511.4 686.3 495.6 Z M 686.3 495.6 " fill="#896728"></path><path d="M 757.8 495.6 C 757.8 479.8 745.0 466.9 729.2 466.9 C 713.4 466.9 700.6 479.8 700.6 495.6 C 700.6 511.4 713.4 524.2 729.2 524.2 C 745.0 524.2 757.8 511.4 757.8 495.6 Z M 757.8 495.6 " fill="#856772"></path><path d="M 829.3 495.6 C 829.3 479.8 816.5 466.9 800.7 466.9 C 784.9 466.9 772.1 479.8 772.1 495.6 C 772.1 511.4 784.9 524.2 800.7 524.2 C 816.5 524.2 829.3 511.4 829.3 495.6 Z M 829.3 495.6 " fill="#BC95A1"></path><path d="M 900.8 495.6 C 900.8 479.8 888.0 466.9 872.2 466.9 C 856.4 466.9 843.6 479.8 843.6 495.6 C 843.6 511.4 856.4 524.2 872.2 524.2 C 888.0 524.2 900.8 511.4 900.8 495.6 Z M 900.8 495.6 " fill="#DD9CAC"></path><path d="M 972.4 495.6 C 972.4 479.8 959.5 466.9 943.7 466.9 C 927.9 466.9 915.1 479.8 915.1 495.6 C 915.1 511.4 927.9 524.2 943.7 524.2 C 959.5 524.2 972.4 511.4 972.4 495.6 Z M 972.4 495.6 " fill="#CF9CA5"></path><path d="M 1043.9 495.6 C 1043.9 479.8 1031.1 466.9 1015.3 466.9 C 999.5 466.9 986.6 479.8 986.6 495.6 C 986.6 511.4 999.5 524.2 1015.3 524.2 C 1031.1 524.2 1043.9 511.4 1043.9 495.6 Z M 1043.9 495.6 " fill="#74696D"></path><path d="M 1115.4 495.6 C 1115.4 479.8 1102.6 466.9 1086.8 466.9 C 1071.0 466.9 1058.2 479.8 1058.2 495.6 C 1058.2 511.4 1071.0 524.2 1086.8 524.2 C 1102.6 524.2 1115.4 511.4 1115.4 495.6 Z M 1115.4 495.6 " fill="#836B70"></path><path d="M 1186.9 495.6 C 1186.9 479.8 1174.1 466.9 1158.3 466.9 C 1142.5 466.9 1129.7 479.8 1129.7 495.6 C 1129.7 511.4 1142.5 524.2 1158.3 524.2 C 1174.1 524.2 1186.9 511.4 1186.9 495.6 Z M 1186.9 495.6 " fill="#A57E3B"></path><path d="M 1258.5 495.6 C 1258.5 479.8 1245.6 466.9 1229.8 466.9 C 1214.0 466.9 1201.2 479.8 1201.2 495.6 C 1201.2 511.4 1214.0 524.2 1229.8 524.2 C 1245.6 524.2 1258.5 511.4 1258.5 495.6 Z M 1258.5 495.6 " fill="#8E7921"></path><path d="M 1330.0 495.6 C 1330.0 479.8 1317.1 466.9 1301.3 466.9 C 1285.5 466.9 1272.7 479.8 1272.7 495.6 C 1272.7 511.4 1285.5 524.2 1301.3 524.2 C 1317.1 524.2 1330.0 511.4 1330.0 495.6 Z M 1330.0 495.6 " fill="#85671F"></path><path d="M 1401.5 495.6 C 1401.5 479.8 1388.7 466.9 1372.9 466.9 C 1357.0 466.9 1344.2 479.8 1344.2 495.6 C 1344.2 511.4 1357.0 524.2 1372.9 524.2 C 1388.7 524.2 1401.5 511.4 1401.5 495.6 Z M 1401.5 495.6 " fill="#386446"></path><path d="M 1473.0 495.6 C 1473.0 479.8 1460.2 466.9 1444.4 466.9 C 1428.6 466.9 1415.7 479.8 1415.7 495.6 C 1415.7 511.4 1428.6 524.2 1444.4 524.2 C 1460.2 524.2 1473.0 511.4 1473.0 495.6 Z M 1473.0 495.6 " fill="#34A5A3"></path><path d="M 543.3 423.8 C 543.3 407.9 530.4 395.1 514.6 395.1 C 498.8 395.1 486.0 407.9 486.0 423.8 C 486.0 439.6 498.8 452.4 514.6 452.4 C 530.4 452.4 543.3 439.6 543.3 423.8 Z M 543.3 423.8 " fill="#36AAA8"></path><path d="M 614.8 423.8 C 614.8 407.9 602.0 395.1 586.1 395.1 C 570.3 395.1 557.5 407.9 557.5 423.8 C 557.5 439.6 570.3 452.4 586.1 452.4 C 602.0 452.4 614.8 439.6 614.8 423.8 Z M 614.8 423.8 " fill="#69934B"></path><path d="M 686.3 423.8 C 686.3 407.9 673.5 395.1 657.7 395.1 C 641.8 395.1 629.0 407.9 629.0 423.8 C 629.0 439.6 641.8 452.4 657.7 452.4 C 673.5 452.4 686.3 439.6 686.3 423.8 Z M 686.3 423.8 " fill="#D89E3F"></path><path d="M 757.8 423.8 C 757.8 407.9 745.0 395.1 729.2 395.1 C 713.4 395.1 700.6 407.9 700.6 423.8 C 700.6 439.6 713.4 452.4 729.2 452.4 C 745.0 452.4 757.8 439.6 757.8 423.8 Z M 757.8 423.8 " fill="#E4A5BA"></path><path d="M 829.3 423.8 C 829.3 407.9 816.5 395.1 800.7 395.1 C 784.9 395.1 772.1 407.9 772.1 423.8 C 772.1 439.6 784.9 452.4 800.7 452.4 C 816.5 452.4 829.3 439.6 829.3 423.8 Z M 829.3 423.8 " fill="#DB95A3"></path><path d="M 900.8 423.8 C 900.8 407.9 888.0 395.1 872.2 395.1 C 856.4 395.1 843.6 407.9 843.6 423.8 C 843.6 439.6 856.4 452.4 872.2 452.4 C 888.0 452.4 900.8 439.6 900.8 423.8 Z M 900.8 423.8 " fill="#D48993"></path><path d="M 972.4 423.8 C 972.4 407.9 959.5 395.1 943.7 395.1 C 927.9 395.1 915.1 407.9 915.1 423.8 C 915.1 439.6 927.9 452.4 943.7 452.4 C 959.5 452.4 972.4 439.6 972.4 423.8 Z M 972.4 423.8 " fill="#DA909C"></path><path d="M 1043.9 423.8 C 1043.9 407.9 1031.1 395.1 1015.3 395.1 C 999.5 395.1 986.6 407.9 986.6 423.8 C 986.6 439.6 999.5 452.4 1015.3 452.4 C 1031.1 452.4 1043.9 439.6 1043.9 423.8 Z M 1043.9 423.8 " fill="#DD9AA8"></path><path d="M 1115.4 423.8 C 1115.4 407.9 1102.6 395.1 1086.8 395.1 C 1071.0 395.1 1058.2 407.9 1058.2 423.8 C 1058.2 439.6 1071.0 452.4 1086.8 452.4 C 1102.6 452.4 1115.4 439.6 1115.4 423.8 Z M 1115.4 423.8 " fill="#CD858C"></path><path d="M 1186.9 423.8 C 1186.9 407.9 1174.1 395.1 1158.3 395.1 C 1142.5 395.1 1129.7 407.9 1129.7 423.8 C 1129.7 439.6 1142.5 452.4 1158.3 452.4 C 1174.1 452.4 1186.9 439.6 1186.9 423.8 Z M 1186.9 423.8 " fill="#594B1F"></path><path d="M 1258.5 423.8 C 1258.5 407.9 1245.6 395.1 1229.8 395.1 C 1214.0 395.1 1201.2 407.9 1201.2 423.8 C 1201.2 439.6 1214.0 452.4 1229.8 452.4 C 1245.6 452.4 1258.5 439.6 1258.5 423.8 Z M 1258.5 423.8 " fill="#91791F"></path><path d="M 1330.0 423.8 C 1330.0 407.9 1317.1 395.1 1301.3 395.1 C 1285.5 395.1 1272.7 407.9 1272.7 423.8 C 1272.7 439.6 1285.5 452.4 1301.3 452.4 C 1317.1 452.4 1330.0 439.6 1330.0 423.8 Z M 1330.0 423.8 " fill="#70501C"></path><path d="M 1401.5 423.8 C 1401.5 407.9 1388.7 395.1 1372.9 395.1 C 1357.0 395.1 1344.2 407.9 1344.2 423.8 C 1344.2 439.6 1357.0 452.4 1372.9 452.4 C 1388.7 452.4 1401.5 439.6 1401.5 423.8 Z M 1401.5 423.8 " fill="#3B795D"></path><path d="M 1473.0 423.8 C 1473.0 407.9 1460.2 395.1 1444.4 395.1 C 1428.6 395.1 1415.7 407.9 1415.7 423.8 C 1415.7 439.6 1428.6 452.4 1444.4 452.4 C 1460.2 452.4 1473.0 439.6 1473.0 423.8 Z M 1473.0 423.8 " fill="#2FA5A3"></path><path d="M 543.3 351.9 C 543.3 336.1 530.4 323.3 514.6 323.3 C 498.8 323.3 486.0 336.1 486.0 351.9 C 486.0 367.8 498.8 380.6 514.6 380.6 C 530.4 380.6 543.3 367.8 543.3 351.9 Z M 543.3 351.9 " fill="#28A3A1"></path><path d="M 614.8 351.9 C 614.8 336.1 602.0 323.3 586.1 323.3 C 570.3 323.3 557.5 336.1 557.5 351.9 C 557.5 367.8 570.3 380.6 586.1 380.6 C 602.0 380.6 614.8 367.8 614.8 351.9 Z M 614.8 351.9 " fill="#46A585"></path><path d="M 686.3 351.9 C 686.3 336.1 673.5 323.3 657.7 323.3 C 641.8 323.3 629.0 336.1 629.0 351.9 C 629.0 367.8 641.8 380.6 657.7 380.6 C 673.5 380.6 686.3 367.8 686.3 351.9 Z M 686.3 351.9 " fill="#6E5D26"></path><path d="M 757.8 351.9 C 757.8 336.1 745.0 323.3 729.2 323.3 C 713.4 323.3 700.6 336.1 700.6 351.9 C 700.6 367.8 713.4 380.6 729.2 380.6 C 745.0 380.6 757.8 367.8 757.8 351.9 Z M 757.8 351.9 " fill="#D88A97"></path><path d="M 829.3 351.9 C 829.3 336.1 816.5 323.3 800.7 323.3 C 784.9 323.3 772.1 336.1 772.1 351.9 C 772.1 367.8 784.9 380.6 800.7 380.6 C 816.5 380.6 829.3 367.8 829.3 351.9 Z M 829.3 351.9 " fill="#CF8390"></path><path d="M 900.8 351.9 C 900.8 336.1 888.0 323.3 872.2 323.3 C 856.4 323.3 843.6 336.1 843.6 351.9 C 843.6 367.8 856.4 380.6 872.2 380.6 C 888.0 380.6 900.8 367.8 900.8 351.9 Z M 900.8 351.9 " fill="#875457"></path><path d="M 972.4 351.9 C 972.4 336.1 959.5 323.3 943.7 323.3 C 927.9 323.3 915.1 336.1 915.1 351.9 C 915.1 367.8 927.9 380.6 943.7 380.6 C 959.5 380.6 972.4 367.8 972.4 351.9 Z M 972.4 351.9 " fill="#CD8590"></path><path d="M 1043.9 351.9 C 1043.9 336.1 1031.1 323.3 1015.3 323.3 C 999.5 323.3 986.6 336.1 986.6 351.9 C 986.6 367.8 999.5 380.6 1015.3 380.6 C 1031.1 380.6 1043.9 367.8 1043.9 351.9 Z M 1043.9 351.9 " fill="#DB939E"></path><path d="M 1115.4 351.9 C 1115.4 336.1 1102.6 323.3 1086.8 323.3 C 1071.0 323.3 1058.2 336.1 1058.2 351.9 C 1058.2 367.8 1071.0 380.6 1086.8 380.6 C 1102.6 380.6 1115.4 367.8 1115.4 351.9 Z M 1115.4 351.9 " fill="#724D4D"></path><path d="M 1186.9 351.9 C 1186.9 336.1 1174.1 323.3 1158.3 323.3 C 1142.5 323.3 1129.7 336.1 1129.7 351.9 C 1129.7 367.8 1142.5 380.6 1158.3 380.6 C 1174.1 380.6 1186.9 367.8 1186.9 351.9 Z M 1186.9 351.9 " fill="#1F1A15"></path><path d="M 1258.5 351.9 C 1258.5 336.1 1245.6 323.3 1229.8 323.3 C 1214.0 323.3 1201.2 336.1 1201.2 351.9 C 1201.2 367.8 1214.0 380.6 1229.8 380.6 C 1245.6 380.6 1258.5 367.8 1258.5 351.9 Z M 1258.5 351.9 " fill="#83671D"></path><path d="M 1330.0 351.9 C 1330.0 336.1 1317.1 323.3 1301.3 323.3 C 1285.5 323.3 1272.7 336.1 1272.7 351.9 C 1272.7 367.8 1285.5 380.6 1301.3 380.6 C 1317.1 380.6 1330.0 367.8 1330.0 351.9 Z M 1330.0 351.9 " fill="#3D2B14"></path><path d="M 1401.5 351.9 C 1401.5 336.1 1388.7 323.3 1372.9 323.3 C 1357.0 323.3 1344.2 336.1 1344.2 351.9 C 1344.2 367.8 1357.0 380.6 1372.9 380.6 C 1388.7 380.6 1401.5 367.8 1401.5 351.9 Z M 1401.5 351.9 " fill="#1C6256"></path><path d="M 1473.0 351.9 C 1473.0 336.1 1460.2 323.3 1444.4 323.3 C 1428.6 323.3 1415.7 336.1 1415.7 351.9 C 1415.7 367.8 1428.6 380.6 1444.4 380.6 C 1460.2 380.6 1473.0 367.8 1473.0 351.9 Z M 1473.0 351.9 " fill="#2FA7A3"></path><path d="M 543.3 280.1 C 543.3 264.3 530.4 251.5 514.6 251.5 C 498.8 251.5 486.0 264.3 486.0 280.1 C 486.0 295.9 498.8 308.8 514.6 308.8 C 530.4 308.8 543.3 295.9 543.3 280.1 Z M 543.3 280.1 " fill="#149E95"></path><path d="M 614.8 280.1 C 614.8 264.3 602.0 251.5 586.1 251.5 C 570.3 251.5 557.5 264.3 557.5 280.1 C 557.5 295.9 570.3 308.8 586.1 308.8 C 602.0 308.8 614.8 295.9 614.8 280.1 Z M 614.8 280.1 " fill="#28A399"></path><path d="M 686.3 280.1 C 686.3 264.3 673.5 251.5 657.7 251.5 C 641.8 251.5 629.0 264.3 629.0 280.1 C 629.0 295.9 641.8 308.8 657.7 308.8 C 673.5 308.8 686.3 295.9 686.3 280.1 Z M 686.3 280.1 " fill="#3D4B33"></path><path d="M 757.8 280.1 C 757.8 264.3 745.0 251.5 729.2 251.5 C 713.4 251.5 700.6 264.3 700.6 280.1 C 700.6 295.9 713.4 308.8 729.2 308.8 C 745.0 308.8 757.8 295.9 757.8 280.1 Z M 757.8 280.1 " fill="#BC7077"></path><path d="M 829.3 280.1 C 829.3 264.3 816.5 251.5 800.7 251.5 C 784.9 251.5 772.1 264.3 772.1 280.1 C 772.1 295.9 784.9 308.8 800.7 308.8 C 816.5 308.8 829.3 295.9 829.3 280.1 Z M 829.3 280.1 " fill="#794D4B"></path><path d="M 900.8 280.1 C 900.8 264.3 888.0 251.5 872.2 251.5 C 856.4 251.5 843.6 264.3 843.6 280.1 C 843.6 295.9 856.4 308.8 872.2 308.8 C 888.0 308.8 900.8 295.9 900.8 280.1 Z M 900.8 280.1 " fill="#826659"></path><path d="M 972.4 280.1 C 972.4 264.3 959.5 251.5 943.7 251.5 C 927.9 251.5 915.1 264.3 915.1 280.1 C 915.1 295.9 927.9 308.8 943.7 308.8 C 959.5 308.8 972.4 295.9 972.4 280.1 Z M 972.4 280.1 " fill="#744B4D"></path><path d="M 1043.9 280.1 C 1043.9 264.3 1031.1 251.5 1015.3 251.5 C 999.5 251.5 986.6 264.3 986.6 280.1 C 986.6 295.9 999.5 308.8 1015.3 308.8 C 1031.1 308.8 1043.9 295.9 1043.9 280.1 Z M 1043.9 280.1 " fill="#DA8C9A"></path><path d="M 1115.4 280.1 C 1115.4 264.3 1102.6 251.5 1086.8 251.5 C 1071.0 251.5 1058.2 264.3 1058.2 280.1 C 1058.2 295.9 1071.0 308.8 1086.8 308.8 C 1102.6 308.8 1115.4 295.9 1115.4 280.1 Z M 1115.4 280.1 " fill="#79524B"></path><path d="M 1186.9 280.1 C 1186.9 264.3 1174.1 251.5 1158.3 251.5 C 1142.5 251.5 1129.7 264.3 1129.7 280.1 C 1129.7 295.9 1142.5 308.8 1158.3 308.8 C 1174.1 308.8 1186.9 295.9 1186.9 280.1 Z M 1186.9 280.1 " fill="#1C1417"></path><path d="M 1258.5 280.1 C 1258.5 264.3 1245.6 251.5 1229.8 251.5 C 1214.0 251.5 1201.2 264.3 1201.2 280.1 C 1201.2 295.9 1214.0 308.8 1229.8 308.8 C 1245.6 308.8 1258.5 295.9 1258.5 280.1 Z M 1258.5 280.1 " fill="#1F1414"></path><path d="M 1330.0 280.1 C 1330.0 264.3 1317.1 251.5 1301.3 251.5 C 1285.5 251.5 1272.7 264.3 1272.7 280.1 C 1272.7 295.9 1285.5 308.8 1301.3 308.8 C 1317.1 308.8 1330.0 295.9 1330.0 280.1 Z M 1330.0 280.1 " fill="#17443B"></path><path d="M 1401.5 280.1 C 1401.5 264.3 1388.7 251.5 1372.9 251.5 C 1357.0 251.5 1344.2 264.3 1344.2 280.1 C 1344.2 295.9 1357.0 308.8 1372.9 308.8 C 1388.7 308.8 1401.5 295.9 1401.5 280.1 Z M 1401.5 280.1 " fill="#1AA095"></path><path d="M 1473.0 280.1 C 1473.0 264.3 1460.2 251.5 1444.4 251.5 C 1428.6 251.5 1415.7 264.3 1415.7 280.1 C 1415.7 295.9 1428.6 308.8 1444.4 308.8 C 1460.2 308.8 1473.0 295.9 1473.0 280.1 Z M 1473.0 280.1 " fill="#1FA59E"></path><path d="M 543.3 208.3 C 543.3 192.5 530.4 179.6 514.6 179.6 C 498.8 179.6 486.0 192.5 486.0 208.3 C 486.0 224.1 498.8 236.9 514.6 236.9 C 530.4 236.9 543.3 224.1 543.3 208.3 Z M 543.3 208.3 " fill="#0A9A90"></path><path d="M 614.8 208.3 C 614.8 192.5 602.0 179.6 586.1 179.6 C 570.3 179.6 557.5 192.5 557.5 208.3 C 557.5 224.1 570.3 236.9 586.1 236.9 C 602.0 236.9 614.8 224.1 614.8 208.3 Z M 614.8 208.3 " fill="#1FA39A"></path><path d="M 686.3 208.3 C 686.3 192.5 673.5 179.6 657.7 179.6 C 641.8 179.6 629.0 192.5 629.0 208.3 C 629.0 224.1 641.8 236.9 657.7 236.9 C 673.5 236.9 686.3 224.1 686.3 208.3 Z M 686.3 208.3 " fill="#217059"></path><path d="M 757.8 208.3 C 757.8 192.5 745.0 179.6 729.2 179.6 C 713.4 179.6 700.6 192.5 700.6 208.3 C 700.6 224.1 713.4 236.9 729.2 236.9 C 745.0 236.9 757.8 224.1 757.8 208.3 Z M 757.8 208.3 " fill="#824F4B"></path><path d="M 829.3 208.3 C 829.3 192.5 816.5 179.6 800.7 179.6 C 784.9 179.6 772.1 192.5 772.1 208.3 C 772.1 224.1 784.9 236.9 800.7 236.9 C 816.5 236.9 829.3 224.1 829.3 208.3 Z M 829.3 208.3 " fill="#9E6262"></path><path d="M 900.8 208.3 C 900.8 192.5 888.0 179.6 872.2 179.6 C 856.4 179.6 843.6 192.5 843.6 208.3 C 843.6 224.1 856.4 236.9 872.2 236.9 C 888.0 236.9 900.8 224.1 900.8 208.3 Z M 900.8 208.3 " fill="#804D4B"></path><path d="M 972.4 208.3 C 972.4 192.5 959.5 179.6 943.7 179.6 C 927.9 179.6 915.1 192.5 915.1 208.3 C 915.1 224.1 927.9 236.9 943.7 236.9 C 959.5 236.9 972.4 224.1 972.4 208.3 Z M 972.4 208.3 " fill="#BA797E"></path><path d="M 1043.9 208.3 C 1043.9 192.5 1031.1 179.6 1015.3 179.6 C 999.5 179.6 986.6 192.5 986.6 208.3 C 986.6 224.1 999.5 236.9 1015.3 236.9 C 1031.1 236.9 1043.9 224.1 1043.9 208.3 Z M 1043.9 208.3 " fill="#C88082"></path><path d="M 1115.4 208.3 C 1115.4 192.5 1102.6 179.6 1086.8 179.6 C 1071.0 179.6 1058.2 192.5 1058.2 208.3 C 1058.2 224.1 1071.0 236.9 1086.8 236.9 C 1102.6 236.9 1115.4 224.1 1115.4 208.3 Z M 1115.4 208.3 " fill="#422D28"></path><path d="M 1186.9 208.3 C 1186.9 192.5 1174.1 179.6 1158.3 179.6 C 1142.5 179.6 1129.7 192.5 1129.7 208.3 C 1129.7 224.1 1142.5 236.9 1158.3 236.9 C 1174.1 236.9 1186.9 224.1 1186.9 208.3 Z M 1186.9 208.3 " fill="#0E0E0A"></path><path d="M 1258.5 208.3 C 1258.5 192.5 1245.6 179.6 1229.8 179.6 C 1214.0 179.6 1201.2 192.5 1201.2 208.3 C 1201.2 224.1 1214.0 236.9 1229.8 236.9 C 1245.6 236.9 1258.5 224.1 1258.5 208.3 Z M 1258.5 208.3 " fill="#142321"></path><path d="M 1330.0 208.3 C 1330.0 192.5 1317.1 179.6 1301.3 179.6 C 1285.5 179.6 1272.7 192.5 1272.7 208.3 C 1272.7 224.1 1285.5 236.9 1301.3 236.9 C 1317.1 236.9 1330.0 224.1 1330.0 208.3 Z M 1330.0 208.3 " fill="#179E93"></path><path d="M 1401.5 208.3 C 1401.5 192.5 1388.7 179.6 1372.9 179.6 C 1357.0 179.6 1344.2 192.5 1344.2 208.3 C 1344.2 224.1 1357.0 236.9 1372.9 236.9 C 1388.7 236.9 1401.5 224.1 1401.5 208.3 Z M 1401.5 208.3 " fill="#1CA39C"></path><path d="M 1473.0 208.3 C 1473.0 192.5 1460.2 179.6 1444.4 179.6 C 1428.6 179.6 1415.7 192.5 1415.7 208.3 C 1415.7 224.1 1428.6 236.9 1444.4 236.9 C 1460.2 236.9 1473.0 224.1 1473.0 208.3 Z M 1473.0 208.3 " fill="#0B9A93"></path><path d="M 543.3 136.5 C 543.3 120.7 530.4 107.8 514.6 107.8 C 498.8 107.8 486.0 120.7 486.0 136.5 C 486.0 152.3 498.8 165.1 514.6 165.1 C 530.4 165.1 543.3 152.3 543.3 136.5 Z M 543.3 136.5 " fill="#158C83"></path><path d="M 614.8 136.5 C 614.8 120.7 602.0 107.8 586.1 107.8 C 570.3 107.8 557.5 120.7 557.5 136.5 C 557.5 152.3 570.3 165.1 586.1 165.1 C 602.0 165.1 614.8 152.3 614.8 136.5 Z M 614.8 136.5 " fill="#0B9A90"></path><path d="M 686.3 136.5 C 686.3 120.7 673.5 107.8 657.7 107.8 C 641.8 107.8 629.0 120.7 629.0 136.5 C 629.0 152.3 641.8 165.1 657.7 165.1 C 673.5 165.1 686.3 152.3 686.3 136.5 Z M 686.3 136.5 " fill="#149A8C"></path><path d="M 757.8 136.5 C 757.8 120.7 745.0 107.8 729.2 107.8 C 713.4 107.8 700.6 120.7 700.6 136.5 C 700.6 152.3 713.4 165.1 729.2 165.1 C 745.0 165.1 757.8 152.3 757.8 136.5 Z M 757.8 136.5 " fill="#346044"></path><path d="M 829.3 136.5 C 829.3 120.7 816.5 107.8 800.7 107.8 C 784.9 107.8 772.1 120.7 772.1 136.5 C 772.1 152.3 784.9 165.1 800.7 165.1 C 816.5 165.1 829.3 152.3 829.3 136.5 Z M 829.3 136.5 " fill="#A36769"></path><path d="M 900.8 136.5 C 900.8 120.7 888.0 107.8 872.2 107.8 C 856.4 107.8 843.6 120.7 843.6 136.5 C 843.6 152.3 856.4 165.1 872.2 165.1 C 888.0 165.1 900.8 152.3 900.8 136.5 Z M 900.8 136.5 " fill="#CF838E"></path><path d="M 972.4 136.5 C 972.4 120.7 959.5 107.8 943.7 107.8 C 927.9 107.8 915.1 120.7 915.1 136.5 C 915.1 152.3 927.9 165.1 943.7 165.1 C 959.5 165.1 972.4 152.3 972.4 136.5 Z M 972.4 136.5 " fill="#AA7070"></path><path d="M 1043.9 136.5 C 1043.9 120.7 1031.1 107.8 1015.3 107.8 C 999.5 107.8 986.6 120.7 986.6 136.5 C 986.6 152.3 999.5 165.1 1015.3 165.1 C 1031.1 165.1 1043.9 152.3 1043.9 136.5 Z M 1043.9 136.5 " fill="#332321"></path><path d="M 1115.4 136.5 C 1115.4 120.7 1102.6 107.8 1086.8 107.8 C 1071.0 107.8 1058.2 120.7 1058.2 136.5 C 1058.2 152.3 1071.0 165.1 1086.8 165.1 C 1102.6 165.1 1115.4 152.3 1115.4 136.5 Z M 1115.4 136.5 " fill="#0D1111"></path><path d="M 1186.9 136.5 C 1186.9 120.7 1174.1 107.8 1158.3 107.8 C 1142.5 107.8 1129.7 120.7 1129.7 136.5 C 1129.7 152.3 1142.5 165.1 1158.3 165.1 C 1174.1 165.1 1186.9 152.3 1186.9 136.5 Z M 1186.9 136.5 " fill="#1F6E62"></path><path d="M 1258.5 136.5 C 1258.5 120.7 1245.6 107.8 1229.8 107.8 C 1214.0 107.8 1201.2 120.7 1201.2 136.5 C 1201.2 152.3 1214.0 165.1 1229.8 165.1 C 1245.6 165.1 1258.5 152.3 1258.5 136.5 Z M 1258.5 136.5 " fill="#1F6D5E"></path><path d="M 1330.0 136.5 C 1330.0 120.7 1317.1 107.8 1301.3 107.8 C 1285.5 107.8 1272.7 120.7 1272.7 136.5 C 1272.7 152.3 1285.5 165.1 1301.3 165.1 C 1317.1 165.1 1330.0 152.3 1330.0 136.5 Z M 1330.0 136.5 " fill="#14938A"></path><path d="M 1401.5 136.5 C 1401.5 120.7 1388.7 107.8 1372.9 107.8 C 1357.0 107.8 1344.2 120.7 1344.2 136.5 C 1344.2 152.3 1357.0 165.1 1372.9 165.1 C 1388.7 165.1 1401.5 152.3 1401.5 136.5 Z M 1401.5 136.5 " fill="#08958C"></path><path d="M 1473.0 136.5 C 1473.0 120.7 1460.2 107.8 1444.4 107.8 C 1428.6 107.8 1415.7 120.7 1415.7 136.5 C 1415.7 152.3 1428.6 165.1 1444.4 165.1 C 1460.2 165.1 1473.0 152.3 1473.0 136.5 Z M 1473.0 136.5 " fill="#0B938C"></path><path d="M 543.3 64.6 C 543.3 48.8 530.4 36.0 514.6 36.0 C 498.8 36.0 486.0 48.8 486.0 64.6 C 486.0 80.5 498.8 93.3 514.6 93.3 C 530.4 93.3 543.3 80.5 543.3 64.6 Z M 543.3 64.6 " fill="#188079"></path><path d="M 614.8 64.6 C 614.8 48.8 602.0 36.0 586.1 36.0 C 570.3 36.0 557.5 48.8 557.5 64.6 C 557.5 80.5 570.3 93.3 586.1 93.3 C 602.0 93.3 614.8 80.5 614.8 64.6 Z M 614.8 64.6 " fill="#179089"></path><path d="M 686.3 64.6 C 686.3 48.8 673.5 36.0 657.7 36.0 C 641.8 36.0 629.0 48.8 629.0 64.6 C 629.0 80.5 641.8 93.3 657.7 93.3 C 673.5 93.3 686.3 80.5 686.3 64.6 Z M 686.3 64.6 " fill="#11978E"></path><path d="M 757.8 64.6 C 757.8 48.8 745.0 36.0 729.2 36.0 C 713.4 36.0 700.6 48.8 700.6 64.6 C 700.6 80.5 713.4 93.3 729.2 93.3 C 745.0 93.3 757.8 80.5 757.8 64.6 Z M 757.8 64.6 " fill="#178A7E"></path><path d="M 829.3 64.6 C 829.3 48.8 816.5 36.0 800.7 36.0 C 784.9 36.0 772.1 48.8 772.1 64.6 C 772.1 80.5 784.9 93.3 800.7 93.3 C 816.5 93.3 829.3 80.5 829.3 64.6 Z M 829.3 64.6 " fill="#1A1A17"></path><path d="M 900.8 64.6 C 900.8 48.8 888.0 36.0 872.2 36.0 C 856.4 36.0 843.6 48.8 843.6 64.6 C 843.6 80.5 856.4 93.3 872.2 93.3 C 888.0 93.3 900.8 80.5 900.8 64.6 Z M 900.8 64.6 " fill="#141112"></path><path d="M 972.4 64.6 C 972.4 48.8 959.5 36.0 943.7 36.0 C 927.9 36.0 915.1 48.8 915.1 64.6 C 915.1 80.5 927.9 93.3 943.7 93.3 C 959.5 93.3 972.4 80.5 972.4 64.6 Z M 972.4 64.6 " fill="#0D0D0D"></path><path d="M 1043.9 64.6 C 1043.9 48.8 1031.1 36.0 1015.3 36.0 C 999.5 36.0 986.6 48.8 986.6 64.6 C 986.6 80.5 999.5 93.3 1015.3 93.3 C 1031.1 93.3 1043.9 80.5 1043.9 64.6 Z M 1043.9 64.6 " fill="#422A26"></path><path d="M 1115.4 64.6 C 1115.4 48.8 1102.6 36.0 1086.8 36.0 C 1071.0 36.0 1058.2 48.8 1058.2 64.6 C 1058.2 80.5 1071.0 93.3 1086.8 93.3 C 1102.6 93.3 1115.4 80.5 1115.4 64.6 Z M 1115.4 64.6 " fill="#755B57"></path><path d="M 1186.9 64.6 C 1186.9 48.8 1174.1 36.0 1158.3 36.0 C 1142.5 36.0 1129.7 48.8 1129.7 64.6 C 1129.7 80.5 1142.5 93.3 1158.3 93.3 C 1174.1 93.3 1186.9 80.5 1186.9 64.6 Z M 1186.9 64.6 " fill="#1A8E80"></path><path d="M 1258.5 64.6 C 1258.5 48.8 1245.6 36.0 1229.8 36.0 C 1214.0 36.0 1201.2 48.8 1201.2 64.6 C 1201.2 80.5 1214.0 93.3 1229.8 93.3 C 1245.6 93.3 1258.5 80.5 1258.5 64.6 Z M 1258.5 64.6 " fill="#148E85"></path><path d="M 1330.0 64.6 C 1330.0 48.8 1317.1 36.0 1301.3 36.0 C 1285.5 36.0 1272.7 48.8 1272.7 64.6 C 1272.7 80.5 1285.5 93.3 1301.3 93.3 C 1317.1 93.3 1330.0 80.5 1330.0 64.6 Z M 1330.0 64.6 " fill="#188E82"></path><path d="M 1401.5 64.6 C 1401.5 48.8 1388.7 36.0 1372.9 36.0 C 1357.0 36.0 1344.2 48.8 1344.2 64.6 C 1344.2 80.5 1357.0 93.3 1372.9 93.3 C 1388.7 93.3 1401.5 80.5 1401.5 64.6 Z M 1401.5 64.6 " fill="#1A9083"></path><path d="M 1473.0 64.6 C 1473.0 48.8 1460.2 36.0 1444.4 36.0 C 1428.6 36.0 1415.7 48.8 1415.7 64.6 C 1415.7 80.5 1428.6 93.3 1444.4 93.3 C 1460.2 93.3 1473.0 80.5 1473.0 64.6 Z M 1473.0 64.6 " fill="#1A9083"></path></g></g></g></g><g><clipPath id="clip0x6080010b5a80"><path d="M 1341.5 247.2 L 1404.0 247.2 L 1404.0 309.7 L 1341.5 309.7 Z M 1341.5 247.2 "></path></clipPath><g clip-path="url(#clip0x6080010b5a80)"><path d="M 1394.1 299.9 C 1406.0 288.0 1406.0 268.9 1394.1 257.1 C 1382.3 245.2 1363.2 245.2 1351.3 257.1 C 1339.5 268.9 1339.5 288.0 1351.3 299.9 C 1363.2 311.7 1382.3 311.7 1394.1 299.9 Z M 1394.1 299.9 " fill="#FF330E"></path></g></g><text xml:space="preserve" font-family="HelveticaNeue,Helvetica Neue" font-size="34.0" fill="#000000" transform="matrix(1.00, 0.00, -0.00, -1.00, 1520.8, 86.6)">P</text><text xml:space="preserve" font-family="HelveticaNeue,Helvetica Neue" font-size="34.0" fill="#000000" transform="matrix(1.00, 0.00, -0.00, -1.00, 1542.9, 86.6)">a</text><text xml:space="preserve" font-family="HelveticaNeue,Helvetica Neue" font-size="34.0" fill="#000000" transform="matrix(1.00, 0.00, -0.00, -1.00, 1561.1, 86.6)">i</text><text xml:space="preserve" font-family="HelveticaNeue,Helvetica Neue" font-size="34.0" fill="#000000" transform="matrix(1.00, 0.00, -0.00, -1.00, 1568.7, 86.6)">n</text><text xml:space="preserve" font-family="HelveticaNeue,Helvetica Neue" font-size="34.0" fill="#000000" transform="matrix(1.00, 0.00, -0.00, -1.00, 1587.6, 86.6)">t</text><text xml:space="preserve" font-family="HelveticaNeue,Helvetica Neue" font-size="34.0" fill="#000000" transform="matrix(1.00, 0.00, -0.00, -1.00, 1598.3, 86.6)">i</text><text xml:space="preserve" font-family="HelveticaNeue,Helvetica Neue" font-size="34.0" fill="#000000" transform="matrix(1.00, 0.00, -0.00, -1.00, 1605.8, 86.6)">n</text><text xml:space="preserve" font-family="HelveticaNeue,Helvetica Neue" font-size="34.0" fill="#000000" transform="matrix(1.00, 0.00, -0.00, -1.00, 1624.7, 86.6)">g</text><text xml:space="preserve" font-family="HelveticaNeue,Helvetica Neue" font-size="34.0" fill="#000000" transform="matrix(1.00, 0.00, -0.00, -1.00, 1644.3, 86.6)"> </text><text xml:space="preserve" font-family="HelveticaNeue,Helvetica Neue" font-size="34.0" fill="#000000" transform="matrix(1.00, 0.00, -0.00, -1.00, 1653.7, 86.6)">b</text><text xml:space="preserve" font-family="HelveticaNeue,Helvetica Neue" font-size="34.0" fill="#000000" transform="matrix(1.00, 0.00, -0.00, -1.00, 1673.9, 86.6)">y</text><text xml:space="preserve" font-family="HelveticaNeue,Helvetica Neue" font-size="34.0" fill="#000000" transform="matrix(1.00, 0.00, -0.00, -1.00, 1690.9, 86.6)">
</text><text xml:space="preserve" font-family="HelveticaNeue,Helvetica Neue" font-size="34.0" fill="#000000" transform="matrix(1.00, 0.00, -0.00, -1.00, 1520.8, 46.6)">G</text><text xml:space="preserve" font-family="HelveticaNeue,Helvetica Neue" font-size="34.0" fill="#000000" transform="matrix(1.00, 0.00, -0.00, -1.00, 1546.6, 46.6)">a</text><text xml:space="preserve" font-family="HelveticaNeue,Helvetica Neue" font-size="34.0" fill="#000000" transform="matrix(1.00, 0.00, -0.00, -1.00, 1564.9, 46.6)">r</text><text xml:space="preserve" font-family="HelveticaNeue,Helvetica Neue" font-size="34.0" fill="#000000" transform="matrix(1.00, 0.00, -0.00, -1.00, 1576.2, 46.6)">y</text><text xml:space="preserve" font-family="HelveticaNeue,Helvetica Neue" font-size="34.0" fill="#000000" transform="matrix(1.00, 0.00, -0.00, -1.00, 1593.2, 46.6)"> </text><text xml:space="preserve" font-family="HelveticaNeue,Helvetica Neue" font-size="34.0" fill="#000000" transform="matrix(1.00, 0.00, -0.00, -1.00, 1602.7, 46.6)">A</text><text xml:space="preserve" font-family="HelveticaNeue,Helvetica Neue" font-size="34.0" fill="#000000" transform="matrix(1.00, 0.00, -0.00, -1.00, 1624.7, 46.6)">n</text><text xml:space="preserve" font-family="HelveticaNeue,Helvetica Neue" font-size="34.0" fill="#000000" transform="matrix(1.00, 0.00, -0.00, -1.00, 1643.6, 46.6)">d</text><text xml:space="preserve" font-family="HelveticaNeue,Helvetica Neue" font-size="34.0" fill="#000000" transform="matrix(1.00, 0.00, -0.00, -1.00, 1663.8, 46.6)">r</text><text xml:space="preserve" font-family="HelveticaNeue,Helvetica Neue" font-size="34.0" fill="#000000" transform="matrix(1.00, 0.00, -0.00, -1.00, 1674.5, 46.6)">e</text><text xml:space="preserve" font-family="HelveticaNeue,Helvetica Neue" font-size="34.0" fill="#000000" transform="matrix(1.00, 0.00, -0.00, -1.00, 1692.7, 46.6)">w</text><text xml:space="preserve" font-family="HelveticaNeue,Helvetica Neue" font-size="34.0" fill="#000000" transform="matrix(1.00, 0.00, -0.00, -1.00, 1718.5, 46.6)"> </text><text xml:space="preserve" font-family="HelveticaNeue,Helvetica Neue" font-size="34.0" fill="#000000" transform="matrix(1.00, 0.00, -0.00, -1.00, 1728.0, 46.6)">C</text><text xml:space="preserve" font-family="HelveticaNeue,Helvetica Neue" font-size="34.0" fill="#000000" transform="matrix(1.00, 0.00, -0.00, -1.00, 1752.5, 46.6)">l</text><text xml:space="preserve" font-family="HelveticaNeue,Helvetica Neue" font-size="34.0" fill="#000000" transform="matrix(1.00, 0.00, -0.00, -1.00, 1760.1, 46.6)">a</text><text xml:space="preserve" font-family="HelveticaNeue,Helvetica Neue" font-size="34.0" fill="#000000" transform="matrix(1.00, 0.00, -0.00, -1.00, 1778.3, 46.6)">r</text><text xml:space="preserve" font-family="HelveticaNeue,Helvetica Neue" font-size="34.0" fill="#000000" transform="matrix(1.00, 0.00, -0.00, -1.00, 1789.6, 46.6)">k</text><text xml:space="preserve" font-family="HelveticaNeue,Helvetica Neue" font-size="34.0" fill="#000000" transform="matrix(1.00, 0.00, -0.00, -1.00, 1807.3, 46.6)">e</text></g></svg>